M48
;Layer_Color=9474304
;FILE_FORMAT=4:4
METRIC,LZ
;TYPE=PLATED
T1F00S00C0.2540
T2F00S00C0.3810
T3F00S00C0.6350
T4F00S00C0.7112
T5F00S00C0.8128
T6F00S00C0.9000
T7F00S00C0.9900
T9F00S00C1.0160
T10F00S00C2.9972
T11F00S00C3.2000
%
T01
X0070231Y0002413
X0039878Y00349296
X0040353Y0035931
X00392672
X00381762Y0041402
X0038481Y00425147
T02
X0041656Y0041402
X00411871Y00424946
T03
X0020193Y0004826
X0030353Y0004572
T04
X0098298Y0011684
X0096933Y0023841
X0097568Y0027524
X0098203Y0031715
X0100108Y003489
X00988115Y0038744
X0096901Y0038836
X0101251Y0040478
X01081304Y0031334
X0107982Y00287556
X01061617Y0027778
X0108458Y0023749
X0109728
Y0022479
X0108458
Y0021209
X0109728
Y0019939
X0108458
Y0018669
X0109728
X0112427Y00294335
X0112935Y0031334
X01187812Y0042291
X0094615Y0039624
X009271Y00381
X0091313Y0036703
X0089154Y0036957
X0087376Y0038227
X0085598Y0039116
X0084074Y004064
X0080264Y003429
X00799204Y00321684
X0081407Y0028956
X0076708
X0069342Y002921
X0058674Y0030988
X0056896Y0027559
X0061087Y0018923
X0064262Y0019431
X0075692Y001905
X0077089Y0012827
X0078232Y0006604
X00762411Y00056388
X00744161Y0004669
X0068834Y00102515
X0064643Y0006096
X0057404Y0004191
X0055626Y0005461
X00578358Y00090678
X00842512Y0009144
X0086614Y0003302
X0086741Y0028321
X0094862Y0032556
X0052197Y0036576
X0050419Y0037592
X0046482Y0039116
X0046736Y0040894
X0043561Y0029972
X0039624Y0027305
X0040386Y0022733
X0035433Y0022225
X0030099Y0022479
X003302Y0034417
X00333375Y0036733
X00306802Y00367862
X0045212Y001778
X00468473Y0017272
X0054483Y0021336
X00540417Y0023114
X00436273Y00079348
X0038608Y0046355
X00399938Y0047782
X0039116Y0051435
X0035814Y0060198
X00343535Y0061214
X0033782Y0072329
X003175
Y0074676
X0033782
X0044155Y0078867
X0048768Y00793546
X0048166Y0081026
X0051562Y0078105
X00505733Y0076581
X0050038Y006477
X0052705Y0065024
X0045212Y0064135
X00508Y0046609
X0053086Y0044069
X00287115Y0046101
X00272344Y0047132
X0024511Y00505714
Y0052451
X0020955Y0056642
X0059055Y0051816
X0060198Y0046228
Y0043561
X0057277
X0067437Y0043307
X007112Y0045847
X0072898Y0047641
X00716826Y0051054
X0081661Y0050816
X0092456Y0048387
X00944698Y0043688
X00876424Y0059182
X0087249Y007017
X0089281
Y0072517
X0087249
X01040616Y00756012
X0103479Y00773068
X0106934Y0073279
X01055524Y0070358
X0111445Y0063627
Y0061595
X0113792
Y0063627
X01040616Y00583714
X0098933Y0048387
X01109619Y0048133
X0110363Y0046228
X0116078Y0043688
X01184054Y004826
X0120396
T05
X0106553Y0013208
X011049Y0010795
X0116713Y0011049
X0110236Y0027178
X0110363Y0036195
X0108458Y004191
X0093472Y0022352
X0088265Y0026797
X0084709Y001143
X0062031Y0009652
X00637286Y00037044
X00585108Y0023622
X0044704Y0021082
X0026416
X0017907Y0021463
X0033274Y000381
X0011176Y0004826
X0004445Y0034417
X0009398Y0059563
X0013335Y0074041
X0014605Y0076327
X0028829Y0076454
X0027233Y0054356
X0024837Y0054229
X00508Y005842
X0053086Y0081026
X0068453Y0076073
X0071882
X008128
X0079121Y0056896
X0080365Y0044984
X0057404Y0046228
X012319Y0055499
X0125603Y0053213
X0126365Y0059055
X0126746Y0072644
X0126365Y0079248
X0113157Y0082042
X0108839Y0077597
X0112903Y0072771
X0093345Y0083185
X0074549Y0084074
X0071882Y0084201
X0035687Y0083693
X001778Y0084455
X0009144Y0084201
T06
X0116332Y00251783
Y00277183
Y00302583
X0068072Y00381
Y004064
X0014224Y0078994
X0011684
Y0081534
X0014224
X0016764
Y0078994
X0019304
Y0081534
X0021844
Y0078994
X0024384
Y0081534
X0026924
Y0078994
X0029464
Y0081534
X0069342
Y0078994
X0071882
Y0081534
X0074422
Y0078994
X0076962
Y0081534
X0079502
Y0078994
X0082042
Y0081534
X0084582
Y0078994
X0087122
Y0081534
X0066167Y006096
X0063627
X011811Y0064516
Y0067056
Y0069596
Y0072136
Y0074676
Y0077216
Y0079756
Y0082296
X012065
Y0079756
Y0077216
Y0074676
Y0072136
Y0069596
Y0067056
Y0064516
T07
X0122246Y0011049
X0126746
Y0017549
X0122246
T09
X0122682Y0023749
X0125682
Y0026749
X0122682
X0122679Y0036147
Y0039147
X0125679
Y0036147
T10
X00085852Y00087884
Y00258572
X0008636Y0037846
Y00549148
T11
X0127127Y000381
X000381
X0127127Y0082804
X000381
M30
