G04*
G04 #@! TF.GenerationSoftware,Altium Limited,Altium Designer,19.1.8 (144)*
G04*
G04 Layer_Color=16711935*
%FSLAX44Y44*%
%MOMM*%
G71*
G01*
G75*
%ADD11C,0.0500*%
%ADD12C,0.4000*%
%ADD15C,0.1000*%
%ADD17C,0.0762*%
%ADD115C,0.0000*%
%ADD116C,0.0254*%
%ADD117C,0.1500*%
D11*
X988345Y352684D02*
X981681D01*
X980348Y351351D01*
Y348685D01*
X981681Y347352D01*
X988345D01*
X980348Y344687D02*
Y342021D01*
Y343354D01*
X988345D01*
X987012Y344687D01*
Y338022D02*
X988345Y336689D01*
Y334023D01*
X987012Y332690D01*
X985680D01*
X984347Y334023D01*
Y335356D01*
Y334023D01*
X983014Y332690D01*
X981681D01*
X980348Y334023D01*
Y336689D01*
X981681Y338022D01*
D12*
X1022226Y384148D02*
G03*
X1022226Y384148I-2000J0D01*
G01*
D15*
X623580Y465510D02*
X640580D01*
X623580Y456510D02*
X640580D01*
X623580D02*
Y465510D01*
X640580Y456510D02*
Y465510D01*
X653180Y417650D02*
Y438650D01*
X639680Y417650D02*
Y438650D01*
X653180D01*
X639680Y417650D02*
X653180D01*
X414790Y62630D02*
X435790D01*
X414790Y49130D02*
X435790D01*
X414790D02*
Y62630D01*
X435790Y49130D02*
Y62630D01*
X1026740Y407532D02*
Y424532D01*
X1035740Y407532D02*
Y424532D01*
X1026740Y407532D02*
X1035740D01*
X1026740Y424532D02*
X1035740D01*
X357750Y52650D02*
Y61650D01*
X340750Y52650D02*
Y61650D01*
Y52650D02*
X357750D01*
X340750Y61650D02*
X357750D01*
X833990Y507660D02*
X847490D01*
X833990Y528660D02*
X847490D01*
X833990Y507660D02*
Y528660D01*
X847490Y507660D02*
Y528660D01*
X541520Y115170D02*
Y128670D01*
X520520Y115170D02*
Y128670D01*
Y115170D02*
X541520D01*
X520520Y128670D02*
X541520D01*
X474590Y123770D02*
Y132770D01*
X457590Y123770D02*
Y132770D01*
Y123770D02*
X474590D01*
X457590Y132770D02*
X474590D01*
X883520Y467540D02*
X897020D01*
X883520Y446540D02*
X897020D01*
Y467540D01*
X883520Y446540D02*
Y467540D01*
X957180Y470080D02*
X970680D01*
X957180Y449080D02*
X970680D01*
Y470080D01*
X957180Y449080D02*
Y470080D01*
X880690Y422900D02*
X889690D01*
X880690Y405900D02*
X889690D01*
Y422900D01*
X880690Y405900D02*
Y422900D01*
X954350Y426710D02*
X963350D01*
X954350Y409710D02*
X963350D01*
Y426710D01*
X954350Y409710D02*
Y426710D01*
X485640Y365370D02*
Y374370D01*
X468640Y365370D02*
Y374370D01*
Y365370D02*
X485640D01*
X468640Y374370D02*
X485640D01*
X505380Y413090D02*
X518880D01*
X505380Y392090D02*
X518880D01*
Y413090D01*
X505380Y392090D02*
Y413090D01*
X1032110Y470080D02*
X1045610D01*
X1032110Y449080D02*
X1045610D01*
Y470080D01*
X1032110Y449080D02*
Y470080D01*
X839080Y546680D02*
Y555680D01*
X822080Y546680D02*
Y555680D01*
Y546680D02*
X839080D01*
X822080Y555680D02*
X839080D01*
X66920Y293950D02*
Y302950D01*
X49920Y293950D02*
Y302950D01*
Y293950D02*
X66920D01*
X49920Y302950D02*
X66920D01*
X151310Y294240D02*
Y307740D01*
X130310Y294240D02*
Y307740D01*
Y294240D02*
X151310D01*
X130310Y307740D02*
X151310D01*
D17*
X421894Y332886D02*
X413430Y341350D01*
X421894D02*
X413430Y332886D01*
X421894Y337118D02*
X413430D01*
X417662Y341350D02*
Y332886D01*
D115*
X401828Y328803D02*
G03*
X395732Y328803I-3048J0D01*
G01*
X315976Y484320D02*
G03*
X315976Y484320I-762J0D01*
G01*
X333502Y490347D02*
G03*
X339598Y490347I3048J0D01*
G01*
X690372Y85217D02*
G03*
X696468Y85217I3048J0D01*
G01*
X672846Y79190D02*
G03*
X672846Y79190I-762J0D01*
G01*
X715772Y341884D02*
G03*
X715772Y341884I-762J0D01*
G01*
X404622Y572370D02*
G03*
X410718Y572370I3048J0D01*
G01*
X381184Y566420D02*
G03*
X381184Y566420I-762J0D01*
G01*
X701802Y179059D02*
G03*
X701802Y179059I-762J0D01*
G01*
X706990Y154859D02*
G03*
X706990Y148763I0J-3048D01*
G01*
X712870Y145542D02*
G03*
X712870Y151638I0J3048D01*
G01*
X719582Y121342D02*
G03*
X719582Y121342I-762J0D01*
G01*
X380238Y304038D02*
G03*
X380238Y304038I-1270J0D01*
G01*
X601079Y568960D02*
G03*
X601079Y568960I-762J0D01*
G01*
D116*
X421259Y333306D02*
Y336354D01*
Y333306D02*
X431800D01*
Y336354D01*
X421259D02*
X431800D01*
X421259Y339806D02*
Y342854D01*
Y339806D02*
X431800D01*
Y342854D01*
X421259D02*
X431800D01*
X421259Y346306D02*
Y349354D01*
Y346306D02*
X431800D01*
Y349354D01*
X421259D02*
X431800D01*
X421259Y352806D02*
Y355854D01*
Y352806D02*
X431800D01*
Y355854D01*
X421259D02*
X431800D01*
X421259Y359306D02*
Y362354D01*
Y359306D02*
X431800D01*
Y362354D01*
X421259D02*
X431800D01*
X421259Y365806D02*
Y368854D01*
Y365806D02*
X431800D01*
Y368854D01*
X421259D02*
X431800D01*
X421259Y372306D02*
Y375354D01*
Y372306D02*
X431800D01*
Y375354D01*
X421259D02*
X431800D01*
X376301Y372306D02*
Y375354D01*
X365760D02*
X376301D01*
X365760Y372306D02*
Y375354D01*
Y372306D02*
X376301D01*
Y365806D02*
Y368854D01*
X365760D02*
X376301D01*
X365760Y365806D02*
Y368854D01*
Y365806D02*
X376301D01*
Y359306D02*
Y362354D01*
X365760D02*
X376301D01*
X365760Y359306D02*
Y362354D01*
Y359306D02*
X376301D01*
Y352806D02*
Y355854D01*
X365760D02*
X376301D01*
X365760Y352806D02*
Y355854D01*
Y352806D02*
X376301D01*
Y346306D02*
Y349354D01*
X365760D02*
X376301D01*
X365760Y346306D02*
Y349354D01*
Y346306D02*
X376301D01*
Y339806D02*
Y342854D01*
X365760D02*
X376301D01*
X365760Y339806D02*
Y342854D01*
Y339806D02*
X376301D01*
Y333306D02*
Y336354D01*
X365760D02*
X376301D01*
X365760Y333306D02*
Y336354D01*
Y333306D02*
X376301D01*
Y379857D02*
X421259D01*
X376301Y328803D02*
Y379857D01*
Y328803D02*
X421259D01*
Y379857D01*
X314071Y482796D02*
Y485844D01*
X304546D02*
X314071D01*
X304546Y482796D02*
Y485844D01*
Y482796D02*
X314071D01*
Y476296D02*
Y479344D01*
X304546D02*
X314071D01*
X304546Y476296D02*
Y479344D01*
Y476296D02*
X314071D01*
Y469796D02*
Y472844D01*
X304546D02*
X314071D01*
X304546Y469796D02*
Y472844D01*
Y469796D02*
X314071D01*
Y463296D02*
Y466344D01*
X304546D02*
X314071D01*
X304546Y463296D02*
Y466344D01*
Y463296D02*
X314071D01*
Y456796D02*
Y459844D01*
X304546D02*
X314071D01*
X304546Y456796D02*
Y459844D01*
Y456796D02*
X314071D01*
Y450296D02*
Y453344D01*
X304546D02*
X314071D01*
X304546Y450296D02*
Y453344D01*
Y450296D02*
X314071D01*
Y443796D02*
Y446844D01*
X304546D02*
X314071D01*
X304546Y443796D02*
Y446844D01*
Y443796D02*
X314071D01*
X359029Y443796D02*
Y446844D01*
Y443796D02*
X368554D01*
Y446844D01*
X359029D02*
X368554D01*
X359029Y450296D02*
Y453344D01*
Y450296D02*
X368554D01*
Y453344D01*
X359029D02*
X368554D01*
X359029Y456796D02*
Y459844D01*
Y456796D02*
X368554D01*
Y459844D01*
X359029D02*
X368554D01*
X359029Y463296D02*
Y466344D01*
Y463296D02*
X368554D01*
Y466344D01*
X359029D02*
X368554D01*
X359029Y469796D02*
Y472844D01*
Y469796D02*
X368554D01*
Y472844D01*
X359029D02*
X368554D01*
X359029Y476296D02*
Y479344D01*
Y476296D02*
X368554D01*
Y479344D01*
X359029D02*
X368554D01*
X359029Y482796D02*
Y485844D01*
Y482796D02*
X368554D01*
Y485844D01*
X359029D02*
X368554D01*
X314071Y439293D02*
X359029D01*
Y490347D01*
X314071D02*
X359029D01*
X314071Y439293D02*
Y490347D01*
X670941Y34163D02*
Y85217D01*
X715899D01*
Y34163D02*
Y85217D01*
X670941Y34163D02*
X715899D01*
Y80714D02*
X725424D01*
Y77666D02*
Y80714D01*
X715899Y77666D02*
X725424D01*
X715899D02*
Y80714D01*
Y74214D02*
X725424D01*
Y71166D02*
Y74214D01*
X715899Y71166D02*
X725424D01*
X715899D02*
Y74214D01*
Y67714D02*
X725424D01*
Y64666D02*
Y67714D01*
X715899Y64666D02*
X725424D01*
X715899D02*
Y67714D01*
Y61214D02*
X725424D01*
Y58166D02*
Y61214D01*
X715899Y58166D02*
X725424D01*
X715899D02*
Y61214D01*
Y54714D02*
X725424D01*
Y51666D02*
Y54714D01*
X715899Y51666D02*
X725424D01*
X715899D02*
Y54714D01*
Y48214D02*
X725424D01*
Y45166D02*
Y48214D01*
X715899Y45166D02*
X725424D01*
X715899D02*
Y48214D01*
Y41714D02*
X725424D01*
Y38666D02*
Y41714D01*
X715899Y38666D02*
X725424D01*
X715899D02*
Y41714D01*
X661416Y38666D02*
X670941D01*
X661416D02*
Y41714D01*
X670941D01*
Y38666D02*
Y41714D01*
X661416Y45166D02*
X670941D01*
X661416D02*
Y48214D01*
X670941D01*
Y45166D02*
Y48214D01*
X661416Y51666D02*
X670941D01*
X661416D02*
Y54714D01*
X670941D01*
Y51666D02*
Y54714D01*
X661416Y58166D02*
X670941D01*
X661416D02*
Y61214D01*
X670941D01*
Y58166D02*
Y61214D01*
X661416Y64666D02*
X670941D01*
X661416D02*
Y67714D01*
X670941D01*
Y64666D02*
Y67714D01*
X661416Y71166D02*
X670941D01*
X661416D02*
Y74214D01*
X670941D01*
Y71166D02*
Y74214D01*
X661416Y77666D02*
X670941D01*
X661416D02*
Y80714D01*
X670941D01*
Y77666D02*
Y80714D01*
X885862Y345790D02*
Y357790D01*
X879362D02*
X885862D01*
X879362Y345790D02*
Y357790D01*
Y345790D02*
X885862D01*
X892862D02*
Y357790D01*
Y345790D02*
X899362D01*
Y357790D01*
X892862D02*
X899362D01*
X879362Y345790D02*
X899362D01*
Y357790D01*
X879362D02*
X899362D01*
X879362Y345790D02*
Y357790D01*
X1048100Y213308D02*
X1060100D01*
X1048100Y206808D02*
Y213308D01*
Y206808D02*
X1060100D01*
Y213308D01*
X1048100Y220308D02*
X1060100D01*
Y226808D01*
X1048100D02*
X1060100D01*
X1048100Y220308D02*
Y226808D01*
X1060100Y206808D02*
Y226808D01*
X1048100D02*
X1060100D01*
X1048100Y206808D02*
Y226808D01*
Y206808D02*
X1060100D01*
X1089608Y145130D02*
Y157130D01*
X1083108D02*
X1089608D01*
X1083108Y145130D02*
Y157130D01*
Y145130D02*
X1089608D01*
X1096608D02*
Y157130D01*
Y145130D02*
X1103108D01*
Y157130D01*
X1096608D02*
X1103108D01*
X1083108Y145130D02*
X1103108D01*
Y157130D01*
X1083108D02*
X1103108D01*
X1083108Y145130D02*
Y157130D01*
X1185260Y280321D02*
X1197260D01*
Y286821D01*
X1185260D02*
X1197260D01*
X1185260Y280321D02*
Y286821D01*
Y273321D02*
X1197260D01*
X1185260Y266821D02*
Y273321D01*
Y266821D02*
X1197260D01*
Y273321D01*
X1185260Y266821D02*
Y286821D01*
Y266821D02*
X1197260D01*
Y286821D01*
X1185260D02*
X1197260D01*
X1053180Y419152D02*
X1065180D01*
Y425652D01*
X1053180D02*
X1065180D01*
X1053180Y419152D02*
Y425652D01*
Y412152D02*
X1065180D01*
X1053180Y405652D02*
Y412152D01*
Y405652D02*
X1065180D01*
Y412152D01*
X1053180Y405652D02*
Y425652D01*
Y405652D02*
X1065180D01*
Y425652D01*
X1053180D02*
X1065180D01*
X984238Y418428D02*
X996238D01*
Y424928D01*
X984238D02*
X996238D01*
X984238Y418428D02*
Y424928D01*
Y411428D02*
X996238D01*
X984238Y404928D02*
Y411428D01*
Y404928D02*
X996238D01*
Y411428D01*
X984238Y404928D02*
Y424928D01*
Y404928D02*
X996238D01*
Y424928D01*
X984238D02*
X996238D01*
X910940Y417158D02*
X922940D01*
Y423658D01*
X910940D02*
X922940D01*
X910940Y417158D02*
Y423658D01*
Y410158D02*
X922940D01*
X910940Y403658D02*
Y410158D01*
Y403658D02*
X922940D01*
Y410158D01*
X910940Y403658D02*
Y423658D01*
Y403658D02*
X922940D01*
Y423658D01*
X910940D02*
X922940D01*
X1182720Y165698D02*
X1194720D01*
Y172198D01*
X1182720D02*
X1194720D01*
X1182720Y165698D02*
Y172198D01*
Y158698D02*
X1194720D01*
X1182720Y152198D02*
Y158698D01*
Y152198D02*
X1194720D01*
Y158698D01*
X1182720Y152198D02*
Y172198D01*
Y152198D02*
X1194720D01*
Y172198D01*
X1182720D02*
X1194720D01*
X714338Y91790D02*
Y103790D01*
Y91790D02*
X720838D01*
Y103790D01*
X714338D02*
X720838D01*
X707338Y91790D02*
Y103790D01*
X700838D02*
X707338D01*
X700838Y91790D02*
Y103790D01*
Y91790D02*
X707338D01*
X700838Y103790D02*
X720838D01*
X700838Y91790D02*
Y103790D01*
Y91790D02*
X720838D01*
Y103790D01*
X356198Y507080D02*
Y519080D01*
Y507080D02*
X362698D01*
Y519080D01*
X356198D02*
X362698D01*
X349198Y507080D02*
Y519080D01*
X342698D02*
X349198D01*
X342698Y507080D02*
Y519080D01*
Y507080D02*
X349198D01*
X342698Y519080D02*
X362698D01*
X342698Y507080D02*
Y519080D01*
Y507080D02*
X362698D01*
Y519080D01*
X767132Y396590D02*
Y408590D01*
Y396590D02*
X773632D01*
Y408590D01*
X767132D02*
X773632D01*
X760132Y396590D02*
Y408590D01*
X753632D02*
X760132D01*
X753632Y396590D02*
Y408590D01*
Y396590D02*
X760132D01*
X753632Y408590D02*
X773632D01*
X753632Y396590D02*
Y408590D01*
Y396590D02*
X773632D01*
Y408590D01*
X765862Y375000D02*
Y387000D01*
Y375000D02*
X772362D01*
Y387000D01*
X765862D02*
X772362D01*
X758862Y375000D02*
Y387000D01*
X752362D02*
X758862D01*
X752362Y375000D02*
Y387000D01*
Y375000D02*
X758862D01*
X752362Y387000D02*
X772362D01*
X752362Y375000D02*
Y387000D01*
Y375000D02*
X772362D01*
Y387000D01*
X647573Y346964D02*
X782447D01*
Y208026D02*
Y346964D01*
X647573Y208026D02*
X782447D01*
X647573D02*
Y346964D01*
X590860Y269590D02*
Y281590D01*
X584360D02*
X590860D01*
X584360Y269590D02*
Y281590D01*
Y269590D02*
X590860D01*
X597860D02*
Y281590D01*
Y269590D02*
X604360D01*
Y281590D01*
X597860D02*
X604360D01*
X584360Y269590D02*
X604360D01*
Y281590D01*
X584360D02*
X604360D01*
X584360Y269590D02*
Y281590D01*
X572458Y286100D02*
Y298100D01*
X565958D02*
X572458D01*
X565958Y286100D02*
Y298100D01*
Y286100D02*
X572458D01*
X579458D02*
Y298100D01*
Y286100D02*
X585958D01*
Y298100D01*
X579458D02*
X585958D01*
X565958Y286100D02*
X585958D01*
Y298100D01*
X565958D02*
X585958D01*
X565958Y286100D02*
Y298100D01*
X580080Y251810D02*
Y263810D01*
Y251810D02*
X586580D01*
Y263810D01*
X580080D02*
X586580D01*
X573080Y251810D02*
Y263810D01*
X566580D02*
X573080D01*
X566580Y251810D02*
Y263810D01*
Y251810D02*
X573080D01*
X566580Y263810D02*
X586580D01*
X566580Y251810D02*
Y263810D01*
Y251810D02*
X586580D01*
Y263810D01*
X556858Y383625D02*
Y395625D01*
Y383625D02*
X563358D01*
Y395625D01*
X556858D02*
X563358D01*
X549858Y383625D02*
Y395625D01*
X543358D02*
X549858D01*
X543358Y383625D02*
Y395625D01*
Y383625D02*
X549858D01*
X543358Y395625D02*
X563358D01*
X543358Y383625D02*
Y395625D01*
Y383625D02*
X563358D01*
Y395625D01*
X560122Y322930D02*
Y334930D01*
Y322930D02*
X566622D01*
Y334930D01*
X560122D02*
X566622D01*
X553122Y322930D02*
Y334930D01*
X546622D02*
X553122D01*
X546622Y322930D02*
Y334930D01*
Y322930D02*
X553122D01*
X546622Y334930D02*
X566622D01*
X546622Y322930D02*
Y334930D01*
Y322930D02*
X566622D01*
Y334930D01*
X608278Y36882D02*
Y48882D01*
X601778D02*
X608278D01*
X601778Y36882D02*
Y48882D01*
Y36882D02*
X608278D01*
X615278D02*
Y48882D01*
Y36882D02*
X621778D01*
Y48882D01*
X615278D02*
X621778D01*
X601778Y36882D02*
X621778D01*
Y48882D01*
X601778D02*
X621778D01*
X601778Y36882D02*
Y48882D01*
X828350Y48610D02*
Y60610D01*
X821850D02*
X828350D01*
X821850Y48610D02*
Y60610D01*
Y48610D02*
X828350D01*
X835350D02*
Y60610D01*
Y48610D02*
X841850D01*
Y60610D01*
X835350D02*
X841850D01*
X821850Y48610D02*
X841850D01*
Y60610D01*
X821850D02*
X841850D01*
X821850Y48610D02*
Y60610D01*
X787710Y28290D02*
Y40290D01*
X781210D02*
X787710D01*
X781210Y28290D02*
Y40290D01*
Y28290D02*
X787710D01*
X794710D02*
Y40290D01*
Y28290D02*
X801210D01*
Y40290D01*
X794710D02*
X801210D01*
X781210Y28290D02*
X801210D01*
Y40290D01*
X781210D02*
X801210D01*
X781210Y28290D02*
Y40290D01*
X378670Y522370D02*
Y572370D01*
X436670D01*
Y522370D02*
Y572370D01*
X656990Y122811D02*
X706990D01*
Y180811D01*
X656990D02*
X706990D01*
X712870Y119590D02*
X762870D01*
X712870D02*
Y177590D01*
X762870D01*
X705448Y467710D02*
Y479710D01*
Y467710D02*
X711948D01*
Y479710D01*
X705448D02*
X711948D01*
X698448Y467710D02*
Y479710D01*
X691948D02*
X698448D01*
X691948Y467710D02*
Y479710D01*
Y467710D02*
X698448D01*
X691948Y479710D02*
X711948D01*
X691948Y467710D02*
Y479710D01*
Y467710D02*
X711948D01*
Y479710D01*
X739478Y446120D02*
Y458120D01*
Y446120D02*
X745978D01*
Y458120D01*
X739478D02*
X745978D01*
X732478Y446120D02*
Y458120D01*
X725978D02*
X732478D01*
X725978Y446120D02*
Y458120D01*
Y446120D02*
X732478D01*
X725978Y458120D02*
X745978D01*
X725978Y446120D02*
Y458120D01*
Y446120D02*
X745978D01*
Y458120D01*
X723950Y488030D02*
Y500030D01*
X717450D02*
X723950D01*
X717450Y488030D02*
Y500030D01*
Y488030D02*
X723950D01*
X730950D02*
Y500030D01*
Y488030D02*
X737450D01*
Y500030D01*
X730950D02*
X737450D01*
X717450Y488030D02*
X737450D01*
Y500030D01*
X717450D02*
X737450D01*
X717450Y488030D02*
Y500030D01*
X708750Y538170D02*
X720750D01*
Y544670D01*
X708750D02*
X720750D01*
X708750Y538170D02*
Y544670D01*
Y531170D02*
X720750D01*
X708750Y524670D02*
Y531170D01*
Y524670D02*
X720750D01*
Y531170D01*
X708750Y524670D02*
Y544670D01*
Y524670D02*
X720750D01*
Y544670D01*
X708750D02*
X720750D01*
X762090Y537808D02*
X774090D01*
Y544308D01*
X762090D02*
X774090D01*
X762090Y537808D02*
Y544308D01*
Y530808D02*
X774090D01*
X762090Y524308D02*
Y530808D01*
Y524308D02*
X774090D01*
Y530808D01*
X762090Y524308D02*
Y544308D01*
Y524308D02*
X774090D01*
Y544308D01*
X762090D02*
X774090D01*
X651860Y536538D02*
X663860D01*
Y543038D01*
X651860D02*
X663860D01*
X651860Y536538D02*
Y543038D01*
Y529538D02*
X663860D01*
X651860Y523038D02*
Y529538D01*
Y523038D02*
X663860D01*
Y529538D01*
X651860Y523038D02*
Y543038D01*
Y523038D02*
X663860D01*
Y543038D01*
X651860D02*
X663860D01*
X612490Y529538D02*
X624490D01*
X612490Y523038D02*
Y529538D01*
Y523038D02*
X624490D01*
Y529538D01*
X612490Y536538D02*
X624490D01*
Y543038D01*
X612490D02*
X624490D01*
X612490Y536538D02*
Y543038D01*
X624490Y523038D02*
Y543038D01*
X612490D02*
X624490D01*
X612490Y523038D02*
Y543038D01*
Y523038D02*
X624490D01*
X423968Y442412D02*
Y454412D01*
X417468D02*
X423968D01*
X417468Y442412D02*
Y454412D01*
Y442412D02*
X423968D01*
X430968D02*
Y454412D01*
Y442412D02*
X437468D01*
Y454412D01*
X430968D02*
X437468D01*
X417468Y442412D02*
X437468D01*
Y454412D01*
X417468D02*
X437468D01*
X417468Y442412D02*
Y454412D01*
X285440Y435960D02*
Y447960D01*
Y435960D02*
X291940D01*
Y447960D01*
X285440D02*
X291940D01*
X278440Y435960D02*
Y447960D01*
X271940D02*
X278440D01*
X271940Y435960D02*
Y447960D01*
Y435960D02*
X278440D01*
X271940Y447960D02*
X291940D01*
X271940Y435960D02*
Y447960D01*
Y435960D02*
X291940D01*
Y447960D01*
X268642Y480410D02*
Y492410D01*
X262142D02*
X268642D01*
X262142Y480410D02*
Y492410D01*
Y480410D02*
X268642D01*
X275642D02*
Y492410D01*
Y480410D02*
X282142D01*
Y492410D01*
X275642D02*
X282142D01*
X262142Y480410D02*
X282142D01*
Y492410D01*
X262142D02*
X282142D01*
X262142Y480410D02*
Y492410D01*
X1192840Y456280D02*
Y468280D01*
X1186340D02*
X1192840D01*
X1186340Y456280D02*
Y468280D01*
Y456280D02*
X1192840D01*
X1199840D02*
Y468280D01*
Y456280D02*
X1206340D01*
Y468280D01*
X1199840D02*
X1206340D01*
X1186340Y456280D02*
X1206340D01*
Y468280D01*
X1186340D02*
X1206340D01*
X1186340Y456280D02*
Y468280D01*
X1224590Y476600D02*
Y488600D01*
X1218090D02*
X1224590D01*
X1218090Y476600D02*
Y488600D01*
Y476600D02*
X1224590D01*
X1231590D02*
Y488600D01*
Y476600D02*
X1238090D01*
Y488600D01*
X1231590D02*
X1238090D01*
X1218090Y476600D02*
X1238090D01*
Y488600D01*
X1218090D02*
X1238090D01*
X1218090Y476600D02*
Y488600D01*
X1199840Y434690D02*
Y446690D01*
Y434690D02*
X1206340D01*
Y446690D01*
X1199840D02*
X1206340D01*
X1192840Y434690D02*
Y446690D01*
X1186340D02*
X1192840D01*
X1186340Y434690D02*
Y446690D01*
Y434690D02*
X1192840D01*
X1186340Y446690D02*
X1206340D01*
X1186340Y434690D02*
Y446690D01*
Y434690D02*
X1206340D01*
Y446690D01*
X1177281Y547060D02*
X1189281D01*
Y553560D01*
X1177281D02*
X1189281D01*
X1177281Y547060D02*
Y553560D01*
Y540060D02*
X1189281D01*
X1177281Y533560D02*
Y540060D01*
Y533560D02*
X1189281D01*
Y540060D01*
X1177281Y533560D02*
Y553560D01*
Y533560D02*
X1189281D01*
Y553560D01*
X1177281D02*
X1189281D01*
X1112870Y543758D02*
X1124870D01*
Y550258D01*
X1112870D02*
X1124870D01*
X1112870Y543758D02*
Y550258D01*
Y536758D02*
X1124870D01*
X1112870Y530258D02*
Y536758D01*
Y530258D02*
X1124870D01*
Y536758D01*
X1112870Y530258D02*
Y550258D01*
Y530258D02*
X1124870D01*
Y550258D01*
X1112870D02*
X1124870D01*
X1034130Y796600D02*
X1046130D01*
X1034130Y790100D02*
Y796600D01*
Y790100D02*
X1046130D01*
Y796600D01*
X1034130Y803600D02*
X1046130D01*
Y810100D01*
X1034130D02*
X1046130D01*
X1034130Y803600D02*
Y810100D01*
X1046130Y790100D02*
Y810100D01*
X1034130D02*
X1046130D01*
X1034130Y790100D02*
Y810100D01*
Y790100D02*
X1046130D01*
X1012540Y759770D02*
X1024540D01*
X1012540Y753270D02*
Y759770D01*
Y753270D02*
X1024540D01*
Y759770D01*
X1012540Y766770D02*
X1024540D01*
Y773270D01*
X1012540D02*
X1024540D01*
X1012540Y766770D02*
Y773270D01*
X1024540Y753270D02*
Y773270D01*
X1012540D02*
X1024540D01*
X1012540Y753270D02*
Y773270D01*
Y753270D02*
X1024540D01*
X1056990Y768040D02*
X1068990D01*
Y774540D01*
X1056990D02*
X1068990D01*
X1056990Y768040D02*
Y774540D01*
Y761040D02*
X1068990D01*
X1056990Y754540D02*
Y761040D01*
Y754540D02*
X1068990D01*
Y761040D01*
X1056990Y754540D02*
Y774540D01*
Y754540D02*
X1068990D01*
Y774540D01*
X1056990D02*
X1068990D01*
X962608Y756000D02*
Y768000D01*
X956108D02*
X962608D01*
X956108Y756000D02*
Y768000D01*
Y756000D02*
X962608D01*
X969608D02*
Y768000D01*
Y756000D02*
X976108D01*
Y768000D01*
X969608D02*
X976108D01*
X956108Y756000D02*
X976108D01*
Y768000D01*
X956108D02*
X976108D01*
X956108Y756000D02*
Y768000D01*
X962608Y688690D02*
Y700690D01*
X956108D02*
X962608D01*
X956108Y688690D02*
Y700690D01*
Y688690D02*
X962608D01*
X969608D02*
Y700690D01*
Y688690D02*
X976108D01*
Y700690D01*
X969608D02*
X976108D01*
X956108Y688690D02*
X976108D01*
Y700690D01*
X956108D02*
X976108D01*
X956108Y688690D02*
Y700690D01*
X485490Y832522D02*
X497490D01*
X485490Y826022D02*
Y832522D01*
Y826022D02*
X497490D01*
Y832522D01*
X485490Y839522D02*
X497490D01*
Y846022D01*
X485490D02*
X497490D01*
X485490Y839522D02*
Y846022D01*
X497490Y826022D02*
Y846022D01*
X485490D02*
X497490D01*
X485490Y826022D02*
Y846022D01*
Y826022D02*
X497490D01*
X460090Y798778D02*
X472090D01*
X460090Y792278D02*
Y798778D01*
Y792278D02*
X472090D01*
Y798778D01*
X460090Y805778D02*
X472090D01*
Y812278D01*
X460090D02*
X472090D01*
X460090Y805778D02*
Y812278D01*
X472090Y792278D02*
Y812278D01*
X460090D02*
X472090D01*
X460090Y792278D02*
Y812278D01*
Y792278D02*
X472090D01*
X499460Y805778D02*
X511460D01*
Y812278D01*
X499460D02*
X511460D01*
X499460Y805778D02*
Y812278D01*
Y798778D02*
X511460D01*
X499460Y792278D02*
Y798778D01*
Y792278D02*
X511460D01*
Y798778D01*
X499460Y792278D02*
Y812278D01*
Y792278D02*
X511460D01*
Y812278D01*
X499460D02*
X511460D01*
X407072Y789020D02*
Y801020D01*
X400572D02*
X407072D01*
X400572Y789020D02*
Y801020D01*
Y789020D02*
X407072D01*
X414072D02*
Y801020D01*
Y789020D02*
X420572D01*
Y801020D01*
X414072D02*
X420572D01*
X400572Y789020D02*
X420572D01*
Y801020D01*
X400572D02*
X420572D01*
X400572Y789020D02*
Y801020D01*
X408342Y725520D02*
Y737520D01*
X401842D02*
X408342D01*
X401842Y725520D02*
Y737520D01*
Y725520D02*
X408342D01*
X415342D02*
Y737520D01*
Y725520D02*
X421842D01*
Y737520D01*
X415342D02*
X421842D01*
X401842Y725520D02*
X421842D01*
Y737520D01*
X401842D02*
X421842D01*
X401842Y725520D02*
Y737520D01*
X376428Y291846D02*
Y300228D01*
X358521D02*
X376428D01*
X358521Y291846D02*
X376428D01*
Y268859D02*
Y277241D01*
X358521D02*
X376428D01*
X358521Y268859D02*
X376428D01*
Y245872D02*
Y254254D01*
X358521D02*
X376428D01*
X358521Y245872D02*
X376428D01*
X413512Y257302D02*
Y288798D01*
Y257302D02*
X431419D01*
Y288798D01*
X413512D02*
X431419D01*
X376428Y239522D02*
Y306578D01*
Y239522D02*
X413512D01*
Y306578D01*
X376428D02*
X413512D01*
X456589Y303938D02*
Y315938D01*
X450089D02*
X456589D01*
X450089Y303938D02*
Y315938D01*
Y303938D02*
X456589D01*
X463589D02*
Y315938D01*
Y303938D02*
X470089D01*
Y315938D01*
X463589D02*
X470089D01*
X450089Y303938D02*
X470089D01*
Y315938D01*
X450089D02*
X470089D01*
X450089Y303938D02*
Y315938D01*
X456589Y341830D02*
Y353830D01*
X450089D02*
X456589D01*
X450089Y341830D02*
Y353830D01*
Y341830D02*
X456589D01*
X463589D02*
Y353830D01*
Y341830D02*
X470089D01*
Y353830D01*
X463589D02*
X470089D01*
X450089Y341830D02*
X470089D01*
Y353830D01*
X450089D02*
X470089D01*
X450089Y341830D02*
Y353830D01*
X457135Y325528D02*
Y337528D01*
X450635D02*
X457135D01*
X450635Y325528D02*
Y337528D01*
Y325528D02*
X457135D01*
X464135D02*
Y337528D01*
Y325528D02*
X470635D01*
Y337528D01*
X464135D02*
X470635D01*
X450635Y325528D02*
X470635D01*
Y337528D01*
X450635D02*
X470635D01*
X450635Y325528D02*
Y337528D01*
X344842Y181960D02*
Y193960D01*
X338342D02*
X344842D01*
X338342Y181960D02*
Y193960D01*
Y181960D02*
X344842D01*
X351842D02*
Y193960D01*
Y181960D02*
X358342D01*
Y193960D01*
X351842D02*
X358342D01*
X338342Y181960D02*
X358342D01*
Y193960D01*
X338342D02*
X358342D01*
X338342Y181960D02*
Y193960D01*
X343572Y123540D02*
Y135540D01*
X337072D02*
X343572D01*
X337072Y123540D02*
Y135540D01*
Y123540D02*
X343572D01*
X350572D02*
Y135540D01*
Y123540D02*
X357072D01*
Y135540D01*
X350572D02*
X357072D01*
X337072Y123540D02*
X357072D01*
Y135540D01*
X337072D02*
X357072D01*
X337072Y123540D02*
Y135540D01*
X469590Y141320D02*
Y153320D01*
Y141320D02*
X476090D01*
Y153320D01*
X469590D02*
X476090D01*
X462590Y141320D02*
Y153320D01*
X456090D02*
X462590D01*
X456090Y141320D02*
Y153320D01*
Y141320D02*
X462590D01*
X456090Y153320D02*
X476090D01*
X456090Y141320D02*
Y153320D01*
Y141320D02*
X476090D01*
Y153320D01*
X467670Y190850D02*
Y202850D01*
X461170D02*
X467670D01*
X461170Y190850D02*
Y202850D01*
Y190850D02*
X467670D01*
X474670D02*
Y202850D01*
Y190850D02*
X481170D01*
Y202850D01*
X474670D02*
X481170D01*
X461170Y190850D02*
X481170D01*
Y202850D01*
X461170D02*
X481170D01*
X461170Y190850D02*
Y202850D01*
X490892Y166720D02*
Y178720D01*
X484392D02*
X490892D01*
X484392Y166720D02*
Y178720D01*
Y166720D02*
X490892D01*
X497892D02*
Y178720D01*
Y166720D02*
X504392D01*
Y178720D01*
X497892D02*
X504392D01*
X484392Y166720D02*
X504392D01*
Y178720D01*
X484392D02*
X504392D01*
X484392Y166720D02*
Y178720D01*
X605397Y501523D02*
Y636397D01*
X466460Y501523D02*
X605397D01*
X466460D02*
Y636397D01*
X605397D01*
D117*
X931880Y363560D02*
X1032880D01*
X931880Y262560D02*
Y363560D01*
Y262560D02*
X1032880D01*
Y363560D01*
M02*
