G04*
G04 #@! TF.GenerationSoftware,Altium Limited,Altium Designer,19.1.8 (144)*
G04*
G04 Layer_Physical_Order=1*
G04 Layer_Color=255*
%FSLAX44Y44*%
%MOMM*%
G71*
G01*
G75*
%ADD13C,0.2540*%
%ADD16C,0.1270*%
%ADD19R,1.7780X0.4064*%
%ADD20R,2.4600X2.3100*%
%ADD21R,1.9000X3.3700*%
%ADD22R,3.3700X1.9000*%
%ADD23R,1.4224X0.3302*%
%ADD24R,2.9972X3.0988*%
%ADD25R,1.4500X0.2540*%
%ADD26R,0.2540X1.4500*%
%ADD27R,0.8000X0.8000*%
%ADD28R,1.4500X1.2000*%
%ADD29R,1.3208X0.5588*%
%ADD30R,1.6002X2.6924*%
%ADD31R,1.2000X1.4500*%
%ADD32R,0.8000X0.8000*%
%ADD33R,1.5500X0.3000*%
%ADD34R,0.3000X1.5500*%
%ADD35R,1.0056X1.2000*%
%ADD36R,1.3800X1.1000*%
%ADD37R,1.2000X1.0056*%
%ADD38R,1.1000X1.3800*%
%ADD39R,1.3000X2.1000*%
%ADD40R,2.6924X1.6002*%
%ADD41R,3.4036X3.6576*%
%ADD46R,0.8500X0.5000*%
%ADD47R,0.8000X0.6000*%
%ADD48R,3.7500X4.4100*%
%ADD49R,1.3208X0.9398*%
%ADD50R,1.2700X3.3020*%
%ADD51R,3.6576X3.4036*%
%ADD52R,1.5000X0.6000*%
%ADD68R,4.2904X4.4682*%
%ADD71R,4.4682X4.2904*%
%ADD92C,1.5240*%
%ADD93C,0.6350*%
%ADD94R,0.6300X0.6500*%
%ADD95R,0.6500X0.6300*%
%ADD96C,0.5080*%
%ADD97C,0.3810*%
%ADD98C,0.7620*%
%ADD99C,1.7780*%
%ADD100C,1.0160*%
%ADD101O,2.2606X1.5240*%
%ADD102C,1.5240*%
%ADD103C,1.5000*%
%ADD104R,1.5000X1.5000*%
%ADD105C,1.0160*%
%ADD106R,1.0160X1.0160*%
%ADD107C,1.4980*%
%ADD108R,1.5000X1.5000*%
%ADD109C,3.8100*%
%ADD110O,6.6802X2.5146*%
%ADD111C,1.2700*%
%ADD112C,0.6350*%
%ADD113C,0.7620*%
G36*
X1193351Y858516D02*
X1193880Y858090D01*
X1193880Y807720D01*
X1186126D01*
X1184053Y808579D01*
X1181100Y808968D01*
X1178148Y808579D01*
X1176074Y807720D01*
X1146810D01*
Y744220D01*
X1145904Y743314D01*
X1143773Y741890D01*
X1141406Y740910D01*
X1138893Y740410D01*
X1137612Y740410D01*
X1115060D01*
Y672138D01*
X1115060Y672138D01*
X1115060Y670857D01*
X1114560Y668344D01*
X1113580Y665976D01*
X1112156Y663846D01*
X1111250Y662940D01*
X1073605Y625294D01*
X1071835Y623526D01*
X1067675Y620746D01*
X1063053Y618831D01*
X1058146Y617855D01*
X826770D01*
Y557720D01*
X816040D01*
Y557530D01*
X822580D01*
Y544830D01*
X816040D01*
Y544640D01*
X826770D01*
Y537210D01*
X826770Y537210D01*
X826470Y536486D01*
X776630Y536486D01*
Y536490D01*
Y550404D01*
X774440D01*
Y542836D01*
X761740D01*
Y550404D01*
X759550D01*
Y536490D01*
X750570D01*
Y642620D01*
X750570Y642620D01*
Y647700D01*
X537926D01*
X537089Y648655D01*
X537298Y650240D01*
X536949Y652892D01*
X535925Y655364D01*
X534296Y657486D01*
X532174Y659115D01*
X529702Y660138D01*
X527050Y660488D01*
X524398Y660138D01*
X521926Y659115D01*
X519804Y657486D01*
X518175Y655364D01*
X517151Y652892D01*
X516802Y650240D01*
X517011Y648655D01*
X516174Y647700D01*
X510628D01*
X510279Y650352D01*
X509255Y652824D01*
X507626Y654946D01*
X505504Y656575D01*
X503032Y657598D01*
X500380Y657948D01*
X497728Y657598D01*
X495256Y656575D01*
X493134Y654946D01*
X491505Y652824D01*
X490481Y650352D01*
X490132Y647700D01*
X460054D01*
X459366Y648596D01*
X457244Y650225D01*
X454772Y651248D01*
X452120Y651598D01*
X449468Y651248D01*
X446996Y650225D01*
X444874Y648596D01*
X444186Y647700D01*
X83452D01*
X82557Y648602D01*
X83820Y800100D01*
X105580D01*
X106800Y799980D01*
Y796290D01*
X116840D01*
Y789940D01*
X123190D01*
Y773626D01*
X126178Y770639D01*
Y747713D01*
X126104Y747656D01*
X125416Y746760D01*
X133350D01*
X141284D01*
X140918Y747237D01*
X140959Y747515D01*
X142309Y747962D01*
X154940Y735330D01*
Y698500D01*
X638810D01*
Y800100D01*
X682160D01*
X683380Y799980D01*
X683380Y798830D01*
Y796290D01*
X703460D01*
Y799980D01*
X704680Y800100D01*
X708660D01*
Y794966D01*
X707801Y792893D01*
X707412Y789940D01*
X707801Y786988D01*
X708660Y784914D01*
Y766070D01*
X707684Y763714D01*
X707291Y760730D01*
X707684Y757746D01*
X708660Y755390D01*
Y698500D01*
X826770D01*
Y670560D01*
X1035034Y670560D01*
X1036230Y670560D01*
X1036230Y670560D01*
X1036230Y670560D01*
X1038704Y670621D01*
X1043627Y671105D01*
X1048480Y672070D01*
X1053215Y673507D01*
X1057786Y675400D01*
X1062150Y677732D01*
X1066263Y680481D01*
X1070088Y683620D01*
X1071880Y685327D01*
X1071880Y722877D01*
X1071992Y722891D01*
X1074464Y723915D01*
X1076586Y725544D01*
X1078215Y727666D01*
X1079239Y730138D01*
X1079588Y732790D01*
X1079239Y735442D01*
X1078215Y737914D01*
X1076586Y740036D01*
X1074464Y741665D01*
X1071992Y742689D01*
X1071880Y742703D01*
Y745926D01*
X1071880Y745926D01*
X1071895Y746283D01*
X1072705Y747174D01*
X1072800D01*
Y753642D01*
X1073081Y754575D01*
X1074732Y757696D01*
X1076952Y760440D01*
X1079659Y762705D01*
X1082752Y764407D01*
X1084832Y765072D01*
X1085406Y764834D01*
X1088390Y764441D01*
X1091374Y764834D01*
X1093209Y765594D01*
X1096541Y764666D01*
X1099695Y763081D01*
X1101090Y762000D01*
Y852388D01*
X1101090Y852388D01*
X1101090Y852388D01*
X1101153Y853560D01*
X1101423Y854918D01*
X1102077Y856496D01*
X1103026Y857916D01*
X1103630Y858520D01*
X1190734Y858520D01*
X1190734Y858520D01*
X1190734Y858520D01*
X1191169Y858502D01*
X1192031Y858616D01*
X1192610Y858835D01*
X1193351Y858516D01*
D02*
G37*
G36*
X963930Y770540D02*
Y762000D01*
Y747110D01*
Y741680D01*
X734060D01*
Y784914D01*
X735330Y785167D01*
X735450Y784877D01*
X737059Y782779D01*
X737870Y782157D01*
Y789940D01*
Y797723D01*
X737059Y797101D01*
X735450Y795003D01*
X735330Y794713D01*
X734060Y794966D01*
Y801916D01*
X963930D01*
Y770540D01*
D02*
G37*
G36*
X394476Y801370D02*
X402044D01*
Y795020D01*
X408394D01*
Y786480D01*
X408940D01*
Y783490D01*
X408390D01*
Y764870D01*
Y760730D01*
X298852D01*
X298264Y761610D01*
X298203Y762000D01*
X298538Y764540D01*
X298188Y767192D01*
X297165Y769664D01*
X295536Y771786D01*
X294640Y772474D01*
Y764540D01*
X281940D01*
Y772474D01*
X281044Y771786D01*
X279415Y769664D01*
X278391Y767192D01*
X278042Y764540D01*
X278377Y762000D01*
X278316Y761610D01*
X277728Y760730D01*
X158750D01*
Y782947D01*
X160020Y783378D01*
X160479Y782779D01*
X161290Y782157D01*
Y789940D01*
Y797723D01*
X160479Y797101D01*
X160020Y796502D01*
X158750Y796933D01*
Y802640D01*
X394476D01*
Y801370D01*
D02*
G37*
G36*
X408390Y747610D02*
X408940D01*
Y740060D01*
X395746D01*
Y737870D01*
X403314D01*
Y725170D01*
X395746D01*
Y722980D01*
X408940D01*
Y709930D01*
X306070Y709930D01*
Y758140D01*
X408390D01*
Y747610D01*
D02*
G37*
G36*
X963930Y703230D02*
X959753D01*
X959250Y703616D01*
X957550Y704320D01*
X955727Y704560D01*
X945220D01*
Y715690D01*
X932180D01*
Y703650D01*
X925830D01*
Y697300D01*
X906440D01*
Y691610D01*
X928186D01*
X928442Y691414D01*
X930142Y690710D01*
X931965Y690470D01*
X950012D01*
Y688340D01*
X861060Y688340D01*
Y736600D01*
X963930Y736600D01*
Y703230D01*
D02*
G37*
G36*
X447420Y618490D02*
X516890D01*
Y591390D01*
X515620Y590959D01*
X515246Y591446D01*
X514350Y592134D01*
Y584200D01*
X501650D01*
Y592134D01*
X500754Y591446D01*
X499125Y589324D01*
X498792Y588518D01*
X489574D01*
Y568960D01*
Y549402D01*
X504052D01*
Y573695D01*
X505107Y574401D01*
X505348Y574301D01*
X508000Y573952D01*
X510652Y574301D01*
X513124Y575325D01*
X515246Y576954D01*
X515620Y577441D01*
X516890Y577010D01*
Y514739D01*
X515717Y514253D01*
X515620Y514350D01*
X424180D01*
Y522489D01*
X435021D01*
Y534670D01*
Y547370D01*
Y560070D01*
Y572251D01*
X424180D01*
Y618490D01*
X430913D01*
X430951Y618450D01*
X430399Y617180D01*
X427490D01*
Y607100D01*
X427930D01*
Y612140D01*
X434280D01*
Y618365D01*
X434908Y618490D01*
X447420D01*
D01*
D02*
G37*
G36*
X742950Y536490D02*
X724560D01*
X723480Y536490D01*
X723423Y536848D01*
X714750D01*
X706210D01*
Y536486D01*
X706210Y535630D01*
X705111Y535216D01*
X680720D01*
Y593090D01*
X676910Y596900D01*
X651560D01*
Y604454D01*
X652830Y604706D01*
X652900Y604537D01*
X654509Y602439D01*
X655320Y601817D01*
Y609600D01*
Y617383D01*
X654509Y616761D01*
X652900Y614663D01*
X652830Y614493D01*
X651560Y614746D01*
Y627380D01*
X651510Y627630D01*
Y642620D01*
X742950D01*
Y536490D01*
D02*
G37*
G36*
X1193880Y589975D02*
X1189190D01*
Y602320D01*
X1183500D01*
Y582930D01*
Y563540D01*
X1189190D01*
Y575885D01*
X1193880D01*
Y545550D01*
X1191821D01*
Y545738D01*
X1183281D01*
X1174741D01*
Y545550D01*
X1151970D01*
Y786130D01*
X1193880D01*
Y589975D01*
D02*
G37*
G36*
X1149350Y544830D02*
X1127410D01*
Y556354D01*
X1125220D01*
Y548786D01*
X1112520D01*
Y556354D01*
X1110330D01*
Y544830D01*
X1101090D01*
X1101090Y647700D01*
X1149350D01*
X1149350Y544830D01*
D02*
G37*
G36*
X675640Y483870D02*
X408102Y483870D01*
X407184Y485066D01*
X405061Y486695D01*
X402590Y487719D01*
X399938Y488068D01*
X397285Y487719D01*
X394814Y486695D01*
X392691Y485066D01*
X391774Y483870D01*
X374650D01*
Y488511D01*
X371348D01*
Y484320D01*
X358648D01*
Y488511D01*
X355600D01*
Y504540D01*
X368794D01*
Y506730D01*
X361226D01*
Y519430D01*
X368794D01*
Y521620D01*
X355600D01*
X355600Y576580D01*
X387350D01*
X388620Y575310D01*
Y573521D01*
X387488D01*
Y536564D01*
X387279Y535380D01*
X386009D01*
Y546660D01*
X386009Y546810D01*
Y547370D01*
X380319D01*
Y535381D01*
X374629D01*
Y535380D01*
X373359D01*
Y534670D01*
X372110D01*
Y504190D01*
X390494D01*
X391160Y504102D01*
X391826Y504190D01*
X656590D01*
X669290Y516890D01*
Y532130D01*
X667670D01*
Y533348D01*
X667401D01*
X666400Y533998D01*
Y535216D01*
X657860D01*
Y547916D01*
X666400D01*
Y549134D01*
X654050D01*
Y559308D01*
X657352D01*
Y575310D01*
Y591312D01*
X654050D01*
Y593090D01*
X675640D01*
X675640Y483870D01*
D02*
G37*
G36*
X648970Y550404D02*
X648050D01*
Y549810D01*
X645160D01*
Y541770D01*
X638810D01*
Y535420D01*
X629370D01*
Y534083D01*
X628108Y533840D01*
X627030Y534461D01*
Y535216D01*
X618490D01*
X609950D01*
Y534618D01*
X609950Y533998D01*
X608949Y533348D01*
X608680D01*
Y532130D01*
X562610D01*
Y626110D01*
X562513Y626207D01*
X562999Y627380D01*
X648970D01*
Y550404D01*
D02*
G37*
G36*
X231406Y490443D02*
X231796Y489860D01*
X232480Y489175D01*
X265844Y449801D01*
Y448310D01*
X273344D01*
X273412Y448242D01*
Y441960D01*
X279762D01*
Y433376D01*
X306560Y401752D01*
X343508Y389782D01*
Y381720D01*
X345198D01*
Y391160D01*
X357898D01*
Y381720D01*
X359498D01*
Y380450D01*
X372317D01*
X374717Y379672D01*
X374517Y378402D01*
X369062D01*
Y367480D01*
D01*
Y360980D01*
D01*
Y360173D01*
X357632D01*
Y360172D01*
X356362D01*
Y354132D01*
X344170Y351274D01*
X344170Y222916D01*
X344082Y222250D01*
X344170Y221584D01*
Y196500D01*
X332246D01*
Y194310D01*
X339814D01*
Y181610D01*
X332246D01*
Y179420D01*
X344170D01*
Y161290D01*
X246380D01*
X246380Y264160D01*
X158750Y351790D01*
X158750Y440690D01*
X140970Y458470D01*
X27940Y458470D01*
X27940Y568960D01*
X72465D01*
X72919Y567690D01*
X70117Y565391D01*
X67261Y561910D01*
X65138Y557938D01*
X63831Y553629D01*
X63389Y549148D01*
X63831Y544667D01*
X65138Y540358D01*
X67261Y536386D01*
X70117Y532905D01*
X73598Y530049D01*
X77569Y527926D01*
X81879Y526619D01*
X86360Y526177D01*
X90841Y526619D01*
X95150Y527926D01*
X99122Y530049D01*
X102603Y532905D01*
X105459Y536386D01*
X107582Y540358D01*
X108889Y544667D01*
X109331Y549148D01*
X108889Y553629D01*
X107582Y557938D01*
X105459Y561910D01*
X102603Y565391D01*
X99801Y567690D01*
X100255Y568960D01*
X164873D01*
X231406Y490443D01*
D02*
G37*
G36*
X350520Y521620D02*
D01*
Y513080D01*
X344170D01*
Y506730D01*
X336602D01*
Y504540D01*
X338343D01*
Y497840D01*
X311150D01*
Y551770D01*
X311700D01*
Y570390D01*
X311150D01*
Y571500D01*
X310430D01*
Y571990D01*
X300990D01*
X291550D01*
Y571500D01*
X288840D01*
Y572250D01*
X279400D01*
X269960D01*
Y571500D01*
X267250D01*
Y573000D01*
X257810D01*
X248370D01*
Y571500D01*
X246168D01*
Y573000D01*
X236728D01*
Y579350D01*
X230378D01*
Y587390D01*
X227288D01*
Y585177D01*
X222480D01*
X221962Y585074D01*
X220980Y585880D01*
Y591820D01*
X222250Y593090D01*
X350520D01*
Y521620D01*
D02*
G37*
G36*
X477503Y427084D02*
X477215Y411539D01*
X476021Y411261D01*
X475125Y413423D01*
X473710Y415268D01*
Y408940D01*
X467360D01*
Y402590D01*
X461032D01*
X462877Y401175D01*
X462918Y401157D01*
X462747Y399854D01*
X462499Y399821D01*
X460337Y398925D01*
X458492Y397510D01*
X471148D01*
X469303Y398925D01*
X469262Y398943D01*
X469433Y400246D01*
X469681Y400279D01*
X471843Y401175D01*
X473700Y402600D01*
X475125Y404457D01*
X475846Y406197D01*
X477112Y405933D01*
X476581Y377300D01*
X475680Y376410D01*
X475490Y376410D01*
Y369870D01*
X469140D01*
Y363520D01*
X462600D01*
Y363330D01*
X475052D01*
X476304Y362319D01*
X476250Y359410D01*
X474579Y357739D01*
X472375D01*
X471875Y357640D01*
X442723D01*
Y355803D01*
X441198D01*
Y360172D01*
X439928D01*
Y360980D01*
X428498D01*
Y373680D01*
D01*
Y378410D01*
X433070D01*
X434061Y378607D01*
X434902Y379168D01*
X435463Y380009D01*
X435497Y380180D01*
X437492D01*
Y384260D01*
X437890D01*
Y393700D01*
Y403140D01*
X437492D01*
Y408327D01*
X438150Y427990D01*
X476614D01*
X477503Y427084D01*
D02*
G37*
G36*
X746266Y389540D02*
Y387350D01*
X753834D01*
Y381000D01*
X760184D01*
Y372460D01*
X760730D01*
Y368850D01*
X759980D01*
Y359410D01*
Y349970D01*
X760730D01*
Y304181D01*
X666750D01*
X666653Y304084D01*
X665480Y304570D01*
Y390388D01*
X665632Y390541D01*
X670680D01*
Y387350D01*
X680720D01*
X690760D01*
Y390541D01*
X745616D01*
X746266Y389540D01*
D02*
G37*
G36*
X433070Y403140D02*
X418940D01*
Y400050D01*
X426980D01*
Y387350D01*
X418940D01*
Y384260D01*
X433070D01*
Y381000D01*
X420775D01*
X419100Y382675D01*
X416560Y380135D01*
Y379672D01*
X415798D01*
Y367988D01*
Y361488D01*
Y354988D01*
Y348488D01*
Y341988D01*
X416560D01*
Y340672D01*
X415798D01*
Y328988D01*
X419042D01*
X422910Y325120D01*
Y314216D01*
X421640Y313690D01*
X374650D01*
Y323850D01*
X379788Y328988D01*
X381762D01*
Y335488D01*
Y341988D01*
Y348488D01*
Y354988D01*
Y361488D01*
Y367988D01*
Y379672D01*
X379730D01*
X378402Y381000D01*
X377820D01*
X376848Y381720D01*
Y384810D01*
X368808D01*
Y391160D01*
X362458D01*
Y400600D01*
X360858D01*
Y402040D01*
X362458D01*
Y411480D01*
Y420920D01*
X360858D01*
Y422190D01*
X359410D01*
Y435610D01*
X433070D01*
Y403140D01*
D02*
G37*
G36*
X631190Y468584D02*
X630620Y467550D01*
X630430D01*
Y461010D01*
Y454470D01*
X630620D01*
X631190Y453436D01*
Y371475D01*
X630890Y370751D01*
X554990Y370751D01*
Y381085D01*
X555536D01*
Y389625D01*
Y398165D01*
X554990D01*
X554990Y476885D01*
X631190D01*
Y468584D01*
D02*
G37*
G36*
X811022Y425450D02*
Y350532D01*
X810972Y350515D01*
X809752Y350249D01*
X807764Y351775D01*
X805292Y352799D01*
X802640Y353148D01*
X799988Y352799D01*
X797516Y351775D01*
X795394Y350146D01*
X793765Y348024D01*
X792741Y345552D01*
X792392Y342900D01*
X792741Y340248D01*
X793765Y337776D01*
X795394Y335654D01*
X797516Y334025D01*
X799606Y333159D01*
X799275Y331922D01*
X799204Y331931D01*
X796552Y331582D01*
X794080Y330559D01*
X791958Y328930D01*
X790329Y326808D01*
X789305Y324336D01*
X788956Y321684D01*
X789305Y319032D01*
X790329Y316560D01*
X791958Y314438D01*
X794080Y312809D01*
X796552Y311785D01*
X799204Y311436D01*
X801786Y311776D01*
X808255Y305307D01*
Y297905D01*
X806824Y296806D01*
X805195Y294684D01*
X804172Y292212D01*
X803822Y289560D01*
X804172Y286908D01*
X805195Y284436D01*
X806824Y282314D01*
X808946Y280685D01*
X811022Y279825D01*
X811022Y76200D01*
X782986Y76200D01*
X782320Y76288D01*
X781654Y76200D01*
X776672D01*
X776172Y76300D01*
X732790D01*
Y78151D01*
X731520D01*
Y83381D01*
X728218D01*
Y79190D01*
X715518D01*
Y83381D01*
X712216D01*
X711200Y83994D01*
Y88228D01*
X712470Y89250D01*
X713016D01*
Y97790D01*
Y106330D01*
X712470D01*
X711798Y106330D01*
X711200Y107352D01*
X711200Y124460D01*
X713030D01*
Y121239D01*
X725170D01*
D01*
X737870D01*
D01*
X749859D01*
Y114279D01*
X750570D01*
Y109220D01*
X782320Y109220D01*
X782320Y411607D01*
X780998D01*
Y412400D01*
X763322D01*
X763322Y412400D01*
X762477Y411480D01*
X761690Y411130D01*
X761454D01*
Y402590D01*
X748754D01*
Y411130D01*
X747536D01*
Y396385D01*
X746266Y395859D01*
X745758Y396367D01*
X733552D01*
Y400050D01*
X717550D01*
X701548D01*
Y396367D01*
X697230D01*
X697230Y425450D01*
X811022Y425450D01*
D02*
G37*
G36*
X765175Y256540D02*
X765175Y196432D01*
X763905Y196000D01*
X763270Y196828D01*
Y190500D01*
X756920D01*
Y184150D01*
X750592D01*
X751591Y183384D01*
X751502Y181878D01*
X751130Y181631D01*
X750010D01*
Y181631D01*
X738430D01*
Y181631D01*
X737870D01*
Y175941D01*
X725170D01*
D01*
X712989D01*
Y171450D01*
X708141Y171450D01*
Y171993D01*
X671184D01*
X670000Y172201D01*
Y173471D01*
X681280D01*
X681430Y173471D01*
X681990D01*
Y179161D01*
D01*
X670001D01*
Y184851D01*
X670000D01*
Y186121D01*
X658133D01*
X654685Y189570D01*
X654685Y256540D01*
X765175Y256540D01*
D02*
G37*
G36*
X652893Y156949D02*
X654050Y156797D01*
X654071Y115549D01*
X689385D01*
X689638Y114279D01*
X689582Y114256D01*
X687990Y113035D01*
X686149Y111194D01*
X686019Y111177D01*
X683857Y110281D01*
X682012Y108865D01*
X688340D01*
Y96165D01*
X682012D01*
X683857Y94750D01*
X686019Y93854D01*
X688340Y93549D01*
X690661Y93854D01*
X692823Y94750D01*
X693354Y95157D01*
X694624Y94531D01*
Y90170D01*
X642620D01*
Y105250D01*
X643297D01*
Y123870D01*
X642027D01*
Y125470D01*
X632587D01*
Y131820D01*
X626237D01*
Y139860D01*
X623147D01*
Y139125D01*
X620310D01*
Y140380D01*
X617220D01*
Y132340D01*
X604520D01*
Y140380D01*
X601430D01*
Y139255D01*
X597450D01*
Y140120D01*
X594360D01*
Y132080D01*
X581660D01*
Y140120D01*
X578570D01*
Y139125D01*
X574590D01*
Y140120D01*
X571500D01*
Y132080D01*
X558800D01*
Y140120D01*
X555710D01*
X554990Y141092D01*
Y148590D01*
Y157480D01*
X651610D01*
X652893Y156949D01*
D02*
G37*
G36*
X344170Y138080D02*
X330976D01*
Y135890D01*
X338544D01*
Y123190D01*
X330976D01*
Y121000D01*
X344170D01*
Y63690D01*
X334710D01*
Y63500D01*
X341250D01*
Y50800D01*
X334710D01*
Y50610D01*
X344170D01*
Y38849D01*
X342900Y38766D01*
X342639Y40752D01*
X341615Y43224D01*
X339986Y45346D01*
X339090Y46034D01*
Y38100D01*
Y30166D01*
X339986Y30854D01*
X341615Y32976D01*
X342639Y35448D01*
X342900Y37434D01*
X344170Y37351D01*
Y21557D01*
X245706D01*
X244812Y22459D01*
X246074Y156177D01*
X344170D01*
Y138080D01*
D02*
G37*
G36*
X42356Y285750D02*
X42882Y284480D01*
X38198Y279796D01*
X37079Y278337D01*
X36375Y276638D01*
X36135Y274815D01*
Y253238D01*
X36375Y251415D01*
X37079Y249715D01*
X38198Y248256D01*
X69538Y216916D01*
X100330D01*
Y225752D01*
X85852D01*
X82889Y225460D01*
X81379Y225002D01*
X50225Y256156D01*
Y271896D01*
X55402Y277073D01*
X56521Y278532D01*
X57225Y280231D01*
X57465Y282055D01*
Y285750D01*
X193040Y285750D01*
X231140Y247650D01*
Y22455D01*
X230242Y21558D01*
X165100Y21590D01*
Y143510D01*
X148590Y160020D01*
X27940Y160020D01*
X27940Y285750D01*
X42356D01*
D02*
G37*
%LPC*%
G36*
X1191140Y833000D02*
X1187450D01*
Y829310D01*
X1191140D01*
Y833000D01*
D02*
G37*
G36*
X1174750D02*
X1171060D01*
Y829310D01*
X1174750D01*
Y833000D01*
D02*
G37*
G36*
X1137920Y828354D02*
Y826770D01*
X1139504D01*
X1138816Y827666D01*
X1137920Y828354D01*
D02*
G37*
G36*
X1125220D02*
X1124324Y827666D01*
X1123636Y826770D01*
X1125220D01*
Y828354D01*
D02*
G37*
G36*
X1191140Y816610D02*
X1187450D01*
Y812920D01*
X1191140D01*
Y816610D01*
D02*
G37*
G36*
X1174750D02*
X1171060D01*
Y812920D01*
X1174750D01*
Y816610D01*
D02*
G37*
G36*
X1139504Y814070D02*
X1137920D01*
Y812486D01*
X1138816Y813174D01*
X1139504Y814070D01*
D02*
G37*
G36*
X1125220D02*
X1123636D01*
X1124324Y813174D01*
X1125220Y812486D01*
Y814070D01*
D02*
G37*
G36*
X110490Y783590D02*
X106800D01*
Y779900D01*
X110490D01*
Y783590D01*
D02*
G37*
G36*
X703460D02*
X679354D01*
X679147Y783280D01*
X678703Y781050D01*
Y769065D01*
X677284Y767976D01*
X676596Y767080D01*
X692464D01*
X691776Y767976D01*
X690357Y769065D01*
Y778636D01*
X691621Y779900D01*
X703460D01*
Y783590D01*
D02*
G37*
G36*
X692464Y754380D02*
X690880D01*
Y752796D01*
X691776Y753484D01*
X692464Y754380D01*
D02*
G37*
G36*
X678180D02*
X676596D01*
X677284Y753484D01*
X678180Y752796D01*
Y754380D01*
D02*
G37*
G36*
X141284Y734060D02*
X139700D01*
Y732476D01*
X140596Y733164D01*
X141284Y734060D01*
D02*
G37*
G36*
X127000D02*
X125416D01*
X126104Y733164D01*
X127000Y732476D01*
Y734060D01*
D02*
G37*
G36*
X761930Y594700D02*
X756240D01*
Y581660D01*
X761930D01*
Y594700D01*
D02*
G37*
G36*
X797560Y576894D02*
Y575310D01*
X799144D01*
X798456Y576206D01*
X797560Y576894D01*
D02*
G37*
G36*
X799144Y562610D02*
X797560D01*
Y561026D01*
X798456Y561714D01*
X799144Y562610D01*
D02*
G37*
G36*
X780320Y594700D02*
X774630D01*
Y575310D01*
Y555920D01*
X780320D01*
Y565383D01*
X781590Y565635D01*
X782335Y563836D01*
X783964Y561714D01*
X784860Y561026D01*
Y568960D01*
Y576894D01*
X783964Y576206D01*
X782335Y574084D01*
X781590Y572285D01*
X780320Y572537D01*
Y594700D01*
D02*
G37*
G36*
X761930Y568960D02*
X756240D01*
Y555920D01*
X761930D01*
Y568960D01*
D02*
G37*
G36*
X877570Y797723D02*
Y796290D01*
X879003D01*
X878381Y797101D01*
X877570Y797723D01*
D02*
G37*
G36*
X864870D02*
X864059Y797101D01*
X863437Y796290D01*
X864870D01*
Y797723D01*
D02*
G37*
G36*
X852170D02*
Y796290D01*
X853603D01*
X852981Y797101D01*
X852170Y797723D01*
D02*
G37*
G36*
X839470D02*
X838659Y797101D01*
X838037Y796290D01*
X839470D01*
Y797723D01*
D02*
G37*
G36*
X826770D02*
Y796290D01*
X828203D01*
X827581Y797101D01*
X826770Y797723D01*
D02*
G37*
G36*
X814070D02*
X813259Y797101D01*
X812637Y796290D01*
X814070D01*
Y797723D01*
D02*
G37*
G36*
X801370D02*
Y796290D01*
X802803D01*
X802181Y797101D01*
X801370Y797723D01*
D02*
G37*
G36*
X788670D02*
X787859Y797101D01*
X787237Y796290D01*
X788670D01*
Y797723D01*
D02*
G37*
G36*
X775970D02*
Y796290D01*
X777403D01*
X776781Y797101D01*
X775970Y797723D01*
D02*
G37*
G36*
X763270D02*
X762459Y797101D01*
X761837Y796290D01*
X763270D01*
Y797723D01*
D02*
G37*
G36*
X750570D02*
Y796290D01*
X752003D01*
X751381Y797101D01*
X750570Y797723D01*
D02*
G37*
G36*
X879003Y783590D02*
X877570D01*
Y782157D01*
X878381Y782779D01*
X879003Y783590D01*
D02*
G37*
G36*
X864870D02*
X863437D01*
X864059Y782779D01*
X864870Y782157D01*
Y783590D01*
D02*
G37*
G36*
X853603D02*
X852170D01*
Y782157D01*
X852981Y782779D01*
X853603Y783590D01*
D02*
G37*
G36*
X839470D02*
X838037D01*
X838659Y782779D01*
X839470Y782157D01*
Y783590D01*
D02*
G37*
G36*
X828203D02*
X826770D01*
Y782157D01*
X827581Y782779D01*
X828203Y783590D01*
D02*
G37*
G36*
X814070D02*
X812637D01*
X813259Y782779D01*
X814070Y782157D01*
Y783590D01*
D02*
G37*
G36*
X802803D02*
X801370D01*
Y782157D01*
X802181Y782779D01*
X802803Y783590D01*
D02*
G37*
G36*
X788670D02*
X787237D01*
X787859Y782779D01*
X788670Y782157D01*
Y783590D01*
D02*
G37*
G36*
X777403D02*
X775970D01*
Y782157D01*
X776781Y782779D01*
X777403Y783590D01*
D02*
G37*
G36*
X763270D02*
X761837D01*
X762459Y782779D01*
X763270Y782157D01*
Y783590D01*
D02*
G37*
G36*
X752003D02*
X750570D01*
Y782157D01*
X751381Y782779D01*
X752003Y783590D01*
D02*
G37*
G36*
X819150Y768664D02*
Y767080D01*
X820734D01*
X820046Y767976D01*
X819150Y768664D01*
D02*
G37*
G36*
X806450D02*
X805554Y767976D01*
X804866Y767080D01*
X806450D01*
Y768664D01*
D02*
G37*
G36*
X951230Y770540D02*
X950012D01*
Y763421D01*
X945220D01*
Y768890D01*
X932180D01*
Y756850D01*
Y744810D01*
X945220D01*
Y753063D01*
X951230D01*
Y762000D01*
Y770540D01*
D02*
G37*
G36*
X919480Y768890D02*
X906440D01*
Y763200D01*
X919480D01*
Y768890D01*
D02*
G37*
G36*
X820734Y754380D02*
X819150D01*
Y752796D01*
X820046Y753484D01*
X820734Y754380D01*
D02*
G37*
G36*
X806450D02*
X804866D01*
X805554Y753484D01*
X806450Y752796D01*
Y754380D01*
D02*
G37*
G36*
X919480Y750500D02*
X906440D01*
Y744810D01*
X919480D01*
Y750500D01*
D02*
G37*
G36*
X300990Y797723D02*
Y796290D01*
X302423D01*
X301801Y797101D01*
X300990Y797723D01*
D02*
G37*
G36*
X288290D02*
X287479Y797101D01*
X286857Y796290D01*
X288290D01*
Y797723D01*
D02*
G37*
G36*
X275590D02*
Y796290D01*
X277023D01*
X276401Y797101D01*
X275590Y797723D01*
D02*
G37*
G36*
X262890D02*
X262079Y797101D01*
X261457Y796290D01*
X262890D01*
Y797723D01*
D02*
G37*
G36*
X250190D02*
Y796290D01*
X251623D01*
X251001Y797101D01*
X250190Y797723D01*
D02*
G37*
G36*
X237490D02*
X236679Y797101D01*
X236057Y796290D01*
X237490D01*
Y797723D01*
D02*
G37*
G36*
X224790D02*
Y796290D01*
X226223D01*
X225601Y797101D01*
X224790Y797723D01*
D02*
G37*
G36*
X212090D02*
X211279Y797101D01*
X210657Y796290D01*
X212090D01*
Y797723D01*
D02*
G37*
G36*
X199390D02*
Y796290D01*
X200823D01*
X200201Y797101D01*
X199390Y797723D01*
D02*
G37*
G36*
X186690D02*
X185879Y797101D01*
X185257Y796290D01*
X186690D01*
Y797723D01*
D02*
G37*
G36*
X173990D02*
Y796290D01*
X175423D01*
X174801Y797101D01*
X173990Y797723D01*
D02*
G37*
G36*
X388960Y800570D02*
X375920D01*
Y794880D01*
X388960D01*
Y800570D01*
D02*
G37*
G36*
X363220D02*
X350180D01*
Y794880D01*
X363220D01*
Y800570D01*
D02*
G37*
G36*
X395694Y788670D02*
X394476D01*
Y786480D01*
X395694D01*
Y788670D01*
D02*
G37*
G36*
X302423Y783590D02*
X300990D01*
Y782157D01*
X301801Y782779D01*
X302423Y783590D01*
D02*
G37*
G36*
X288290D02*
X286857D01*
X287479Y782779D01*
X288290Y782157D01*
Y783590D01*
D02*
G37*
G36*
X277023D02*
X275590D01*
Y782157D01*
X276401Y782779D01*
X277023Y783590D01*
D02*
G37*
G36*
X262890D02*
X261457D01*
X262079Y782779D01*
X262890Y782157D01*
Y783590D01*
D02*
G37*
G36*
X251623D02*
X250190D01*
Y782157D01*
X251001Y782779D01*
X251623Y783590D01*
D02*
G37*
G36*
X237490D02*
X236057D01*
X236679Y782779D01*
X237490Y782157D01*
Y783590D01*
D02*
G37*
G36*
X226223D02*
X224790D01*
Y782157D01*
X225601Y782779D01*
X226223Y783590D01*
D02*
G37*
G36*
X212090D02*
X210657D01*
X211279Y782779D01*
X212090Y782157D01*
Y783590D01*
D02*
G37*
G36*
X200823D02*
X199390D01*
Y782157D01*
X200201Y782779D01*
X200823Y783590D01*
D02*
G37*
G36*
X186690D02*
X185257D01*
X185879Y782779D01*
X186690Y782157D01*
Y783590D01*
D02*
G37*
G36*
X175423D02*
X173990D01*
Y782157D01*
X174801Y782779D01*
X175423Y783590D01*
D02*
G37*
G36*
X388960Y782180D02*
X375920D01*
Y776490D01*
X388960D01*
Y782180D01*
D02*
G37*
G36*
X363220D02*
X350180D01*
Y776490D01*
X363220D01*
Y782180D01*
D02*
G37*
G36*
X388960Y747370D02*
X375920D01*
Y741680D01*
X388960D01*
Y747370D01*
D02*
G37*
G36*
X363220D02*
X350180D01*
Y741680D01*
X363220D01*
Y747370D01*
D02*
G37*
G36*
X388960Y728980D02*
X375920D01*
Y723290D01*
X388960D01*
Y728980D01*
D02*
G37*
G36*
X363220D02*
X350180D01*
Y723290D01*
X363220D01*
Y728980D01*
D02*
G37*
G36*
X919480Y715690D02*
X906440D01*
Y710000D01*
X919480D01*
Y715690D01*
D02*
G37*
G36*
X476874Y588518D02*
X462396D01*
Y575310D01*
X476874D01*
Y588518D01*
D02*
G37*
G36*
Y562610D02*
X462396D01*
Y549402D01*
X476874D01*
Y562610D01*
D02*
G37*
G36*
X668020Y617383D02*
Y615950D01*
X669453D01*
X668831Y616761D01*
X668020Y617383D01*
D02*
G37*
G36*
X669453Y603250D02*
X668020D01*
Y601817D01*
X668831Y602439D01*
X669453Y603250D01*
D02*
G37*
G36*
X727120Y594700D02*
X721430D01*
Y581660D01*
X727120D01*
Y594700D01*
D02*
G37*
G36*
X708730D02*
X703040D01*
Y581660D01*
X708730D01*
Y594700D01*
D02*
G37*
G36*
X727120Y568960D02*
X721430D01*
Y555920D01*
X727120D01*
Y568960D01*
D02*
G37*
G36*
X708730D02*
X703040D01*
Y555920D01*
X708730D01*
Y568960D01*
D02*
G37*
G36*
X723290Y550766D02*
X721100D01*
Y549548D01*
X723290D01*
Y550766D01*
D02*
G37*
G36*
X708400D02*
X706210D01*
Y549548D01*
X708400D01*
Y550766D01*
D02*
G37*
G36*
X1187450Y779943D02*
Y778510D01*
X1188883D01*
X1188261Y779321D01*
X1187450Y779943D01*
D02*
G37*
G36*
X1174750D02*
X1173939Y779321D01*
X1173317Y778510D01*
X1174750D01*
Y779943D01*
D02*
G37*
G36*
X1188883Y765810D02*
X1187450D01*
Y764377D01*
X1188261Y764999D01*
X1188883Y765810D01*
D02*
G37*
G36*
X1174750D02*
X1173317D01*
X1173939Y764999D01*
X1174750Y764377D01*
Y765810D01*
D02*
G37*
G36*
X1187450Y754543D02*
Y753110D01*
X1188883D01*
X1188261Y753921D01*
X1187450Y754543D01*
D02*
G37*
G36*
X1174750D02*
X1173939Y753921D01*
X1173317Y753110D01*
X1174750D01*
Y754543D01*
D02*
G37*
G36*
X1188883Y740410D02*
X1187450D01*
Y738977D01*
X1188261Y739599D01*
X1188883Y740410D01*
D02*
G37*
G36*
X1174750D02*
X1173317D01*
X1173939Y739599D01*
X1174750Y738977D01*
Y740410D01*
D02*
G37*
G36*
X1187450Y729143D02*
Y727710D01*
X1188883D01*
X1188261Y728521D01*
X1187450Y729143D01*
D02*
G37*
G36*
X1174750D02*
X1173939Y728521D01*
X1173317Y727710D01*
X1174750D01*
Y729143D01*
D02*
G37*
G36*
X1188883Y715010D02*
X1187450D01*
Y713577D01*
X1188261Y714199D01*
X1188883Y715010D01*
D02*
G37*
G36*
X1174750D02*
X1173317D01*
X1173939Y714199D01*
X1174750Y713577D01*
Y715010D01*
D02*
G37*
G36*
X1187450Y703743D02*
Y702310D01*
X1188883D01*
X1188261Y703121D01*
X1187450Y703743D01*
D02*
G37*
G36*
X1174750D02*
X1173939Y703121D01*
X1173317Y702310D01*
X1174750D01*
Y703743D01*
D02*
G37*
G36*
X1188883Y689610D02*
X1187450D01*
Y688177D01*
X1188261Y688799D01*
X1188883Y689610D01*
D02*
G37*
G36*
X1174750D02*
X1173317D01*
X1173939Y688799D01*
X1174750Y688177D01*
Y689610D01*
D02*
G37*
G36*
X1187450Y678343D02*
Y676910D01*
X1188883D01*
X1188261Y677721D01*
X1187450Y678343D01*
D02*
G37*
G36*
X1174750D02*
X1173939Y677721D01*
X1173317Y676910D01*
X1174750D01*
Y678343D01*
D02*
G37*
G36*
X1188883Y664210D02*
X1187450D01*
Y662777D01*
X1188261Y663399D01*
X1188883Y664210D01*
D02*
G37*
G36*
X1174750D02*
X1173317D01*
X1173939Y663399D01*
X1174750Y662777D01*
Y664210D01*
D02*
G37*
G36*
X1187450Y652943D02*
Y651510D01*
X1188883D01*
X1188261Y652321D01*
X1187450Y652943D01*
D02*
G37*
G36*
X1174750D02*
X1173939Y652321D01*
X1173317Y651510D01*
X1174750D01*
Y652943D01*
D02*
G37*
G36*
X1188883Y638810D02*
X1187450D01*
Y637377D01*
X1188261Y637999D01*
X1188883Y638810D01*
D02*
G37*
G36*
X1174750D02*
X1173317D01*
X1173939Y637999D01*
X1174750Y637377D01*
Y638810D01*
D02*
G37*
G36*
X1170800Y602320D02*
X1165110D01*
Y589280D01*
X1170800D01*
Y602320D01*
D02*
G37*
G36*
Y576580D02*
X1165110D01*
Y563540D01*
X1170800D01*
Y576580D01*
D02*
G37*
G36*
X1191821Y559656D02*
X1189631D01*
Y558438D01*
X1191821D01*
Y559656D01*
D02*
G37*
G36*
X1176931D02*
X1174741D01*
Y558438D01*
X1176931D01*
Y559656D01*
D02*
G37*
G36*
X1135990Y602320D02*
X1130300D01*
Y589280D01*
X1135990D01*
Y602320D01*
D02*
G37*
G36*
X1117600D02*
X1111910D01*
Y589280D01*
X1117600D01*
Y602320D01*
D02*
G37*
G36*
X1135990Y576580D02*
X1130300D01*
Y563540D01*
X1135990D01*
Y576580D01*
D02*
G37*
G36*
X1117600D02*
X1111910D01*
Y563540D01*
X1117600D01*
Y576580D01*
D02*
G37*
G36*
X674243Y591312D02*
X670052D01*
Y581660D01*
X674243D01*
Y591312D01*
D02*
G37*
G36*
Y568960D02*
X670052D01*
Y559308D01*
X674243D01*
Y568960D01*
D02*
G37*
G36*
X646310Y619640D02*
X642620D01*
Y615950D01*
X646310D01*
Y619640D01*
D02*
G37*
G36*
X629920D02*
X626230D01*
Y615950D01*
X629920D01*
Y619640D01*
D02*
G37*
G36*
X646310Y603250D02*
X642620D01*
Y599560D01*
X646310D01*
Y603250D01*
D02*
G37*
G36*
X629920D02*
X626230D01*
Y599560D01*
X629920D01*
Y603250D01*
D02*
G37*
G36*
X644271Y591312D02*
X640080D01*
Y581660D01*
X644271D01*
Y591312D01*
D02*
G37*
G36*
X627380D02*
X623189D01*
Y581660D01*
X627380D01*
Y591312D01*
D02*
G37*
G36*
X609462Y588518D02*
X594983D01*
Y575310D01*
X609462D01*
Y588518D01*
D02*
G37*
G36*
X582284D02*
X567805D01*
Y575310D01*
X582284D01*
Y588518D01*
D02*
G37*
G36*
X644271Y568960D02*
X640080D01*
Y559308D01*
X644271D01*
Y568960D01*
D02*
G37*
G36*
X627380D02*
X623189D01*
Y559308D01*
X627380D01*
Y568960D01*
D02*
G37*
G36*
X582284Y562610D02*
X567805D01*
Y549402D01*
X582284D01*
Y562610D01*
D02*
G37*
G36*
X632460Y549810D02*
X629370D01*
Y548120D01*
X632460D01*
Y549810D01*
D02*
G37*
G36*
X624840Y549134D02*
Y547916D01*
X627030D01*
Y549134D01*
X624840D01*
D02*
G37*
G36*
X609462Y562610D02*
X594983D01*
Y549402D01*
X608431D01*
X608666Y549402D01*
X608859Y549386D01*
X609541Y549229D01*
X609929Y548380D01*
X609950Y548136D01*
X609950Y547985D01*
Y547916D01*
X612140D01*
Y549134D01*
X610981D01*
X610746Y549134D01*
X610552Y549150D01*
X609871Y549307D01*
X609482Y550156D01*
X609462Y550400D01*
X609462Y550550D01*
Y562610D01*
D02*
G37*
G36*
X128016Y516328D02*
X113538D01*
Y507492D01*
X141758D01*
X140643Y509579D01*
X138754Y511880D01*
X136453Y513769D01*
X133827Y515172D01*
X130979Y516036D01*
X128016Y516328D01*
D02*
G37*
G36*
X100838D02*
X86360D01*
X83397Y516036D01*
X80548Y515172D01*
X77923Y513769D01*
X75622Y511880D01*
X73733Y509579D01*
X72618Y507492D01*
X100838D01*
Y516328D01*
D02*
G37*
G36*
X141758Y494792D02*
X113538D01*
Y485956D01*
X128016D01*
X130979Y486248D01*
X133827Y487112D01*
X136453Y488515D01*
X138754Y490404D01*
X140643Y492705D01*
X141758Y494792D01*
D02*
G37*
G36*
X100838D02*
X72618D01*
X73733Y492705D01*
X75622Y490404D01*
X77923Y488515D01*
X80548Y487112D01*
X83397Y486248D01*
X86360Y485956D01*
X100838D01*
Y494792D01*
D02*
G37*
G36*
X267062Y435610D02*
X265844D01*
Y433420D01*
X267062D01*
Y435610D01*
D02*
G37*
G36*
X270510Y218754D02*
Y217170D01*
X272094D01*
X271406Y218066D01*
X270510Y218754D01*
D02*
G37*
G36*
X257810D02*
X256914Y218066D01*
X256226Y217170D01*
X257810D01*
Y218754D01*
D02*
G37*
G36*
X272094Y204470D02*
X270510D01*
Y202886D01*
X271406Y203574D01*
X272094Y204470D01*
D02*
G37*
G36*
X257810D02*
X256226D01*
X256914Y203574D01*
X257810Y202886D01*
Y204470D01*
D02*
G37*
G36*
X308950Y198730D02*
X295910D01*
Y193040D01*
X308950D01*
Y198730D01*
D02*
G37*
G36*
X283210D02*
X270170D01*
Y193040D01*
X283210D01*
Y198730D01*
D02*
G37*
G36*
X308950Y180340D02*
X295910D01*
Y174650D01*
X308950D01*
Y180340D01*
D02*
G37*
G36*
X283210D02*
X270170D01*
Y174650D01*
X283210D01*
Y180340D01*
D02*
G37*
G36*
X267250Y587390D02*
X264160D01*
Y585700D01*
X267250D01*
Y587390D01*
D02*
G37*
G36*
X246168D02*
X243078D01*
Y585700D01*
X246168D01*
Y587390D01*
D02*
G37*
G36*
X251460D02*
X248370D01*
Y585700D01*
X251460D01*
Y587390D01*
D02*
G37*
G36*
X288840Y586640D02*
X285750D01*
Y584950D01*
X288840D01*
Y586640D01*
D02*
G37*
G36*
X273050D02*
X269960D01*
Y584950D01*
X273050D01*
Y586640D01*
D02*
G37*
G36*
X310430Y586380D02*
X307340D01*
Y584690D01*
X310430D01*
Y586380D01*
D02*
G37*
G36*
X294640D02*
X291550D01*
Y584690D01*
X294640D01*
Y586380D01*
D02*
G37*
G36*
X337820Y521620D02*
X336602D01*
Y519430D01*
X337820D01*
Y521620D01*
D02*
G37*
G36*
X452280Y403140D02*
X450590D01*
Y400050D01*
X452280D01*
Y403140D01*
D02*
G37*
G36*
Y387350D02*
X450590D01*
Y384260D01*
X452280D01*
Y387350D01*
D02*
G37*
G36*
X462790Y376410D02*
X462600D01*
Y376220D01*
X462790D01*
Y376410D01*
D02*
G37*
G36*
X733552Y386969D02*
X723900D01*
Y382778D01*
X733552D01*
Y386969D01*
D02*
G37*
G36*
X711200D02*
X701548D01*
Y382778D01*
X711200D01*
Y386969D01*
D02*
G37*
G36*
X747484Y374650D02*
X746266D01*
Y372460D01*
X747484D01*
Y374650D01*
D02*
G37*
G36*
X690760D02*
X687070D01*
Y370960D01*
X690760D01*
Y374650D01*
D02*
G37*
G36*
X674370D02*
X670680D01*
Y370960D01*
X674370D01*
Y374650D01*
D02*
G37*
G36*
X733552Y370078D02*
X723900D01*
Y365887D01*
X733552D01*
Y370078D01*
D02*
G37*
G36*
X711200D02*
X701548D01*
Y365887D01*
X711200D01*
Y370078D01*
D02*
G37*
G36*
X747280Y368850D02*
X745590D01*
Y365760D01*
X747280D01*
Y368850D01*
D02*
G37*
G36*
Y353060D02*
X745590D01*
Y349970D01*
X747280D01*
Y353060D01*
D02*
G37*
G36*
X734568Y351028D02*
X721360D01*
Y336550D01*
X734568D01*
Y351028D01*
D02*
G37*
G36*
X708660D02*
X695452D01*
Y336550D01*
X708660D01*
Y351028D01*
D02*
G37*
G36*
X734568Y323850D02*
X721360D01*
Y309372D01*
X734568D01*
Y323850D01*
D02*
G37*
G36*
X708660D02*
X695452D01*
Y309372D01*
X708660D01*
Y323850D01*
D02*
G37*
G36*
X378460Y425772D02*
X378336Y425147D01*
X378828Y422669D01*
X379691Y421377D01*
X379284Y420002D01*
X378118Y419222D01*
X376848Y419901D01*
Y420920D01*
X375158D01*
Y411480D01*
Y402040D01*
X376848D01*
Y408139D01*
X378118Y408818D01*
X379284Y408038D01*
X381762Y407546D01*
X382387Y407670D01*
X381762D01*
Y420370D01*
X384810D01*
Y425147D01*
X378460D01*
Y425772D01*
D02*
G37*
G36*
X376848Y400600D02*
X375158D01*
Y397510D01*
X376848D01*
Y400600D01*
D02*
G37*
G36*
X413620Y368420D02*
X405130D01*
Y360680D01*
X413620D01*
Y368420D01*
D02*
G37*
G36*
X392430D02*
X383940D01*
Y360680D01*
X392430D01*
Y368420D01*
D02*
G37*
G36*
X413620Y347980D02*
X405130D01*
Y340240D01*
X413620D01*
Y347980D01*
D02*
G37*
G36*
X392430D02*
X383940D01*
Y340240D01*
X392430D01*
Y347980D01*
D02*
G37*
G36*
X580390Y470214D02*
Y468630D01*
X581974D01*
X581286Y469526D01*
X580390Y470214D01*
D02*
G37*
G36*
X567690D02*
X566794Y469526D01*
X566106Y468630D01*
X567690D01*
Y470214D01*
D02*
G37*
G36*
X617730Y467550D02*
X617540D01*
Y467360D01*
X617730D01*
Y467550D01*
D02*
G37*
G36*
Y454660D02*
X617540D01*
Y454470D01*
X617730D01*
Y454660D01*
D02*
G37*
G36*
X581974Y455930D02*
X580390D01*
Y454346D01*
X581286Y455034D01*
X581974Y455930D01*
D02*
G37*
G36*
X567690D02*
X566106D01*
X566794Y455034D01*
X567690Y454346D01*
Y455930D01*
D02*
G37*
G36*
X589280Y399320D02*
X576240D01*
Y395498D01*
X569454D01*
Y398165D01*
X568236D01*
Y389625D01*
Y381085D01*
X569454D01*
Y381407D01*
X576240D01*
Y375240D01*
X589280D01*
Y387280D01*
Y399320D01*
D02*
G37*
G36*
X615020D02*
X601980D01*
Y393630D01*
X615020D01*
Y399320D01*
D02*
G37*
G36*
Y380930D02*
X601980D01*
Y375240D01*
X615020D01*
Y380930D01*
D02*
G37*
G36*
X733552Y416941D02*
X723900D01*
Y412750D01*
X733552D01*
Y416941D01*
D02*
G37*
G36*
X711200D02*
X701548D01*
Y412750D01*
X711200D01*
Y416941D01*
D02*
G37*
G36*
X725716Y106330D02*
Y104140D01*
X726934D01*
Y106330D01*
X725716D01*
D02*
G37*
G36*
X726934Y91440D02*
X725716D01*
Y89250D01*
X726934D01*
Y91440D01*
D02*
G37*
G36*
X734568Y245618D02*
X721360D01*
Y231140D01*
X734568D01*
Y245618D01*
D02*
G37*
G36*
X708660D02*
X695452D01*
Y231140D01*
X708660D01*
Y245618D01*
D02*
G37*
G36*
X734568Y218440D02*
X721360D01*
Y203962D01*
X734568D01*
Y218440D01*
D02*
G37*
G36*
X708660D02*
X695452D01*
Y203962D01*
X708660D01*
Y218440D01*
D02*
G37*
G36*
X642027Y139860D02*
X638937D01*
Y138170D01*
X642027D01*
Y139860D01*
D02*
G37*
G36*
X308950Y145530D02*
X295910D01*
Y139840D01*
X308950D01*
Y145530D01*
D02*
G37*
G36*
X283210D02*
X270170D01*
Y139840D01*
X283210D01*
Y145530D01*
D02*
G37*
G36*
X308950Y127140D02*
X295910D01*
Y121450D01*
X308950D01*
Y127140D01*
D02*
G37*
G36*
X283210D02*
X270170D01*
Y121450D01*
X283210D01*
Y127140D01*
D02*
G37*
G36*
X326390Y46034D02*
X325494Y45346D01*
X324806Y44450D01*
X326390D01*
Y46034D01*
D02*
G37*
G36*
Y31750D02*
X324806D01*
X325494Y30854D01*
X326390Y30166D01*
Y31750D01*
D02*
G37*
G36*
X85852Y281543D02*
X81371Y281101D01*
X77062Y279794D01*
X73090Y277671D01*
X69609Y274815D01*
X66753Y271334D01*
X64630Y267362D01*
X63323Y263053D01*
X62881Y258572D01*
X63323Y254091D01*
X64630Y249781D01*
X66753Y245810D01*
X69609Y242329D01*
X73090Y239473D01*
X77062Y237350D01*
X81371Y236043D01*
X85852Y235601D01*
X90333Y236043D01*
X94642Y237350D01*
X98614Y239473D01*
X102095Y242329D01*
X104951Y245810D01*
X107074Y249781D01*
X108381Y254091D01*
X108823Y258572D01*
X108381Y263053D01*
X107074Y267362D01*
X104951Y271334D01*
X102095Y274815D01*
X98614Y277671D01*
X94642Y279794D01*
X90333Y281101D01*
X85852Y281543D01*
D02*
G37*
G36*
X185420Y222564D02*
Y220980D01*
X187004D01*
X186316Y221876D01*
X185420Y222564D01*
D02*
G37*
G36*
X172720D02*
X171824Y221876D01*
X171136Y220980D01*
X172720D01*
Y222564D01*
D02*
G37*
G36*
X127508Y225752D02*
X113030D01*
Y216916D01*
X141250D01*
X140135Y219003D01*
X138246Y221304D01*
X135945Y223193D01*
X133320Y224596D01*
X130471Y225460D01*
X127508Y225752D01*
D02*
G37*
G36*
X187004Y208280D02*
X185420D01*
Y206696D01*
X186316Y207384D01*
X187004Y208280D01*
D02*
G37*
G36*
X172720D02*
X171136D01*
X171824Y207384D01*
X172720Y206696D01*
Y208280D01*
D02*
G37*
G36*
X141250Y204216D02*
X113030D01*
Y195380D01*
X127508D01*
X130471Y195672D01*
X133320Y196536D01*
X135945Y197939D01*
X138246Y199828D01*
X140135Y202129D01*
X141250Y204216D01*
D02*
G37*
G36*
X100330D02*
X72110D01*
X73225Y202129D01*
X75114Y199828D01*
X77415Y197939D01*
X80041Y196536D01*
X82889Y195672D01*
X85852Y195380D01*
X100330D01*
Y204216D01*
D02*
G37*
%LPD*%
D13*
X1023620Y291777D02*
G03*
X1028266Y280560I15863J0D01*
G01*
X1035691Y310560D02*
G03*
X1023620Y305560I0J-17071D01*
G01*
X1110320Y393700D02*
G03*
X1118412Y397052I0J11443D01*
G01*
X1151970Y456211D02*
G03*
X1159409Y438251I25400J0D01*
G01*
X1125513Y415167D02*
G03*
X1127760Y417702I-293J2523D01*
G01*
X1127760Y427629D02*
G03*
X1120321Y445589I-25400J0D01*
G01*
X1125513Y415167D02*
G03*
X1113164Y409244I2247J-20519D01*
G01*
X1061617Y277780D02*
G03*
X1059879Y281975I-5932J0D01*
G01*
X979880Y265100D02*
G03*
X975680Y275240I-14340J0D01*
G01*
X969330Y238410D02*
G03*
X974880Y251809I-13399J13399D01*
G01*
X1196732Y483572D02*
X1219562D01*
X912873Y304640D02*
X913595Y305362D01*
X1023620Y291777D02*
Y305560D01*
X1028266Y280560D02*
X1039880D01*
X1035691Y310560D02*
X1039880D01*
X1118412Y397052D02*
X1134110Y412750D01*
X813435Y290195D02*
Y307453D01*
X799204Y321684D02*
X813435Y307453D01*
X988115Y387440D02*
X996920D01*
X748113Y56388D02*
X762411D01*
X744811Y59690D02*
X748113Y56388D01*
X766259Y66190D02*
X776061Y56388D01*
X793851D01*
X721868Y66190D02*
X766259D01*
X542354Y231140D02*
X568052Y256838D01*
X540417Y231140D02*
X542354D01*
X568052Y256838D02*
Y257810D01*
X277622Y451358D02*
X307640D01*
X235458Y493522D02*
X277622Y451358D01*
X307640D02*
X308102Y451820D01*
X297359Y461010D02*
X299876Y463527D01*
X287115Y461010D02*
X297359D01*
X299876Y463527D02*
X306809D01*
X308102Y464820D01*
X235458Y493522D02*
Y560820D01*
X1055524Y703580D02*
Y714312D01*
X1051166Y718670D02*
X1055524Y714312D01*
X1046520Y718670D02*
X1051166D01*
X439420Y299720D02*
X448830Y290310D01*
X435610Y299720D02*
X439420D01*
X1188052Y492252D02*
X1196732Y483572D01*
X1174402Y472948D02*
Y486598D01*
X1169674Y468220D02*
X1174402Y472948D01*
X1180056Y492252D02*
X1188052D01*
X1174402Y486598D02*
X1180056Y492252D01*
X1184054Y478376D02*
Y482600D01*
Y478376D02*
X1191570Y470860D01*
X611632Y69850D02*
X613156Y68326D01*
X631448Y42882D02*
X637286Y37044D01*
X642412Y24130D02*
X654942Y36660D01*
X565658Y24130D02*
X642412D01*
X546100Y43688D02*
X565658Y24130D01*
X656492Y45270D02*
X663552D01*
X654558Y43336D02*
X656492Y45270D01*
X654558Y37044D02*
Y43336D01*
Y37044D02*
X654942Y36660D01*
X720440Y510540D02*
X735978Y495002D01*
X716826Y510540D02*
X720440D01*
X735978Y494030D02*
Y495002D01*
X702310Y50800D02*
X706420Y46690D01*
X761092Y12700D02*
X782682Y34290D01*
X697796Y12700D02*
X761092D01*
X670306Y40190D02*
X697796Y12700D01*
X1191570Y466038D02*
Y470860D01*
X1187812Y462280D02*
X1191570Y466038D01*
X513676Y782994D02*
X515620Y781050D01*
X513676Y782994D02*
Y786506D01*
X502984Y765810D02*
X505733D01*
X500524Y763350D02*
X502984Y765810D01*
X485550Y763350D02*
X500524D01*
X485550Y758350D02*
Y763350D01*
X441550Y788670D02*
Y805020D01*
X445780Y809250D01*
X447040D01*
X1151970Y456211D02*
Y468220D01*
X1103630Y462280D02*
X1120321Y445589D01*
X1159409Y438251D02*
X1160780Y436880D01*
X1127760Y417702D02*
Y427629D01*
X1110320Y406400D02*
X1113164Y409244D01*
X451287Y773350D02*
X466257Y758380D01*
X485520D01*
X1018178Y772160D02*
X1018540Y771798D01*
X999490Y772160D02*
X1018178D01*
X1187812Y461426D02*
Y462280D01*
X1062018Y740112D02*
X1069340Y732790D01*
X1046520Y718670D02*
Y718750D01*
X1046290Y718980D02*
X1046520Y718750D01*
X1040540Y718980D02*
X1046290D01*
X1166970Y468220D02*
X1169674D01*
X1219562Y482600D02*
Y483572D01*
X1032846Y771124D02*
X1034790Y773068D01*
X1032846Y768076D02*
Y771124D01*
X1019512Y754742D02*
X1032846Y768076D01*
X1018540Y754742D02*
X1019512D01*
X1040616Y756012D02*
X1041102D01*
X1040616D02*
Y758761D01*
X1041102Y756012D02*
X1051092Y746022D01*
X1040616Y758761D02*
X1044442Y762587D01*
Y787814D01*
X1040684Y791572D02*
X1044442Y787814D01*
X1040130Y791572D02*
X1040684D01*
X891520Y467040D02*
X907730D01*
X890270D02*
X891520D01*
X907730D02*
X924560Y483870D01*
X916940Y422186D02*
Y441620D01*
X891520Y467040D02*
X916940Y441620D01*
X839490Y508160D02*
X840740D01*
X816610D02*
X839490D01*
X659450Y418150D02*
X674370Y433070D01*
X646430Y418150D02*
X659450D01*
X886532Y382270D02*
X896184Y391922D01*
X873760Y382270D02*
X886532D01*
X711200Y458470D02*
X713949D01*
X716901Y461422D01*
X736176D01*
X744506Y453092D01*
Y452120D02*
Y453092D01*
X733278Y476410D02*
X753300D01*
X946150Y396240D02*
X959880Y382510D01*
Y370560D02*
Y382510D01*
X969010Y388360D02*
X969682Y387688D01*
Y370758D02*
Y387688D01*
X927100Y381000D02*
X928370D01*
X929640Y382270D01*
X941004Y383286D02*
X942678Y381612D01*
X940784Y383286D02*
X941004D01*
X933196Y390874D02*
X940784Y383286D01*
X933196Y390874D02*
Y391094D01*
X932368Y391922D02*
X933196Y391094D01*
X929640Y382270D02*
X941350Y370560D01*
X896184Y391922D02*
X932368D01*
X942678Y381612D02*
X947748D01*
X949682Y379678D01*
Y370758D02*
Y379678D01*
X958320Y398070D02*
X992605D01*
X947588Y408802D02*
X958320Y398070D01*
X920612Y408802D02*
X947588D01*
X916940Y405130D02*
X920612Y408802D01*
X1004880Y370560D02*
Y385795D01*
X969682Y370758D02*
X969880Y370560D01*
X961390Y406400D02*
X990238D01*
X958850Y408940D02*
X961390Y406400D01*
X974880Y357603D02*
Y370560D01*
X506432Y793750D02*
X513676Y786506D01*
X505460Y793750D02*
X506432D01*
X485520Y758380D02*
X485550Y758350D01*
X472375Y352560D02*
X480830D01*
X468617Y348802D02*
X472375Y352560D01*
X468617Y347830D02*
Y348802D01*
X480830Y352560D02*
X504190Y375920D01*
X468617Y310910D02*
X521970Y364263D01*
Y365760D01*
X529590Y355210D02*
X542160Y367780D01*
X529590Y298060D02*
Y355210D01*
X508588Y277058D02*
X529590Y298060D01*
X300534Y471828D02*
X307594D01*
X292853Y479509D02*
X300534Y471828D01*
Y478328D02*
X307594D01*
X295364Y483498D02*
X300534Y478328D01*
X295364Y483498D02*
Y546776D01*
X483150Y264880D02*
X486410Y261620D01*
X483150Y264880D02*
Y268820D01*
X478920Y273050D02*
X483150Y268820D01*
X477520Y273050D02*
X478920D01*
X486410Y261620D02*
X510656D01*
X515896Y266860D01*
X543970D01*
X448830Y290310D02*
X477520D01*
X430530Y273050D02*
X477520D01*
X584238Y309880D02*
X586740D01*
X567430Y293072D02*
X584238Y309880D01*
X567430Y292100D02*
Y293072D01*
X568960Y275590D02*
X585832D01*
X421160Y188778D02*
Y190178D01*
X401312Y168930D02*
X421160Y188778D01*
X390352Y168930D02*
X401312D01*
X390252Y168830D02*
X390352Y168930D01*
X434252Y153830D02*
Y156488D01*
X938656Y350560D02*
X940448Y348768D01*
X924880Y350560D02*
X938656D01*
X938818Y335362D02*
X948620Y325560D01*
X925078Y335362D02*
X938818D01*
X941350Y370560D02*
X944880D01*
X996920Y387440D02*
X1004682Y379678D01*
Y370758D02*
Y379678D01*
Y370758D02*
X1004880Y370560D01*
X992605Y398070D02*
X1004880Y385795D01*
X1010830Y382872D02*
Y387440D01*
X1010078Y382120D02*
X1010830Y382872D01*
X1010078Y370758D02*
Y382120D01*
X1009880Y370560D02*
X1010078Y370758D01*
X1014880Y242633D02*
X1015830Y241683D01*
X1014880Y242633D02*
Y255560D01*
X1004880Y242633D02*
X1005830Y241683D01*
X1004880Y242633D02*
Y255560D01*
X913595Y305362D02*
X924682D01*
X924880Y305560D01*
X912487Y334034D02*
Y337193D01*
Y334034D02*
X915762Y330758D01*
X924682D01*
X924880Y330560D01*
X949682Y370758D02*
X949880Y370560D01*
X959880D02*
X960078Y370362D01*
X468617Y309938D02*
Y310910D01*
X813435Y290195D02*
X814070Y289560D01*
X1009880Y357700D02*
Y370560D01*
X1001080Y348900D02*
X1009880Y357700D01*
X1109619Y472801D02*
Y481330D01*
Y472801D02*
X1134110Y448310D01*
Y412750D02*
Y448310D01*
X1062018Y740112D02*
Y756012D01*
X1050623Y729178D02*
X1058260Y736814D01*
X1040738Y729178D02*
X1050623D01*
X1051092Y736112D02*
Y746022D01*
X1049158Y734178D02*
X1051092Y736112D01*
X1040738Y734178D02*
X1049158D01*
X1058260Y736814D02*
Y752254D01*
X924880Y335560D02*
X925078Y335362D01*
X1140460Y351790D02*
Y358400D01*
X1134110Y345440D02*
X1140460Y351790D01*
X1115275Y345440D02*
X1134110D01*
X1082254Y312420D02*
X1115275Y345440D01*
X1140460Y358400D02*
X1144010Y361950D01*
X1078524Y310560D02*
X1081304Y313340D01*
X1114110Y303503D02*
X1119513D01*
X1129350Y313340D01*
X1113787Y303180D02*
X1114110Y303503D01*
X1064166Y303180D02*
X1113787D01*
X1061546Y300560D02*
X1064166Y303180D01*
X1039880Y300560D02*
X1061546D01*
X1039880Y295560D02*
X1064166D01*
X1121521Y294335D02*
X1124270D01*
X1118648Y297208D02*
X1121521Y294335D01*
X1065814Y297208D02*
X1118648D01*
X1064166Y295560D02*
X1065814Y297208D01*
X1065937Y287556D02*
X1079820D01*
X1039880Y290560D02*
X1062933D01*
X1065937Y287556D01*
X1124090Y295741D02*
X1124270Y295560D01*
X1079820Y288221D02*
X1082260Y290660D01*
X1079820Y287556D02*
Y288221D01*
X1073150Y271780D02*
X1102360D01*
X1066800Y265430D02*
X1073150Y271780D01*
X1050040Y265430D02*
X1066800D01*
X1040830Y274640D02*
X1050040Y265430D01*
X1056294Y285560D02*
X1059879Y281975D01*
X1039880Y310560D02*
X1078524D01*
X1124270Y294335D02*
Y295560D01*
X1039880Y285560D02*
X1056294D01*
X916940Y815340D02*
X933450Y831850D01*
X871220Y815340D02*
X916940D01*
X1205230Y504190D02*
Y505590D01*
X1196428Y514392D02*
X1205230Y505590D01*
X1167200Y514392D02*
X1196428D01*
X1166970Y514162D02*
X1167200Y514392D01*
X1166970Y512220D02*
Y514162D01*
X1156970Y468220D02*
X1157168Y468022D01*
Y458136D02*
Y468022D01*
Y458136D02*
X1163740Y451564D01*
X1177910D01*
X1187812Y441662D01*
Y440690D02*
Y441662D01*
X1161970Y468220D02*
X1162168Y468022D01*
Y459602D02*
Y468022D01*
Y459602D02*
X1164102Y457668D01*
X1184054D01*
X1187812Y461426D01*
X1161970Y512220D02*
X1162168Y512022D01*
Y503602D02*
Y512022D01*
Y503602D02*
X1164102Y501668D01*
X1185448D01*
X1187970Y504190D01*
X1146970Y468220D02*
X1151970D01*
Y485220D01*
X1161970Y495220D01*
Y512220D01*
X1156970Y527180D02*
X1163241Y533451D01*
Y534851D01*
X1156970Y512220D02*
Y527180D01*
X1151970Y512220D02*
X1156970D01*
X1144530Y533400D02*
X1146970Y530960D01*
Y512220D02*
Y530960D01*
X1013540Y733980D02*
Y740850D01*
X1005120Y749270D02*
X1013540Y740850D01*
X1005120Y749270D02*
Y750670D01*
X1000890Y754900D02*
X1005120Y750670D01*
X999490Y754900D02*
X1000890D01*
X998090Y772160D02*
X999490D01*
X989288Y763358D02*
X998090Y772160D01*
X989288Y748032D02*
Y763358D01*
Y748032D02*
X990560Y746760D01*
Y739210D02*
Y746760D01*
Y739210D02*
X990790Y738980D01*
X996540D01*
X1023540Y723980D02*
X1040540D01*
X1013540Y733980D02*
X1023540Y723980D01*
X996540Y733980D02*
X1013540D01*
X1040540Y718980D02*
Y723980D01*
X1058260Y752254D02*
X1062018Y756012D01*
X1040540Y728980D02*
X1040738Y729178D01*
X1040540Y733980D02*
X1040738Y734178D01*
X1034790Y738980D02*
X1040540D01*
X1034560Y739210D02*
X1034790Y738980D01*
X1034560Y739210D02*
Y739694D01*
X1019512Y754742D02*
X1034560Y739694D01*
X976530Y718980D02*
X996540D01*
X974636Y717086D02*
X976530Y718980D01*
X985390Y728980D02*
X996540D01*
X978030Y736340D02*
X985390Y728980D01*
X976630Y736340D02*
X978030D01*
X996540Y723980D02*
Y728980D01*
X974636Y762000D02*
X976630Y760006D01*
Y736340D02*
Y760006D01*
X974636Y694690D02*
Y717086D01*
X953822Y758242D02*
X957580Y762000D01*
X927222Y758242D02*
X953822D01*
X925830Y756850D02*
X927222Y758242D01*
X842512Y91440D02*
Y94189D01*
X847090Y98767D01*
Y114300D01*
X86360Y426466D02*
X107188D01*
X44450Y384556D02*
X86360Y426466D01*
X44450Y344170D02*
Y384556D01*
X150810Y300990D02*
Y302240D01*
X753300Y486410D02*
Y491410D01*
Y486410D02*
X753498Y486212D01*
X761918D01*
X764380Y483750D01*
Y456350D02*
Y483750D01*
Y456350D02*
X768610Y452120D01*
X797102Y476212D02*
X797300Y476410D01*
X788682Y476212D02*
X797102D01*
X773010Y460540D02*
X788682Y476212D01*
X773010Y457920D02*
Y460540D01*
X768610Y453520D02*
X773010Y457920D01*
X768610Y452120D02*
Y453520D01*
X808362Y476410D02*
X821561Y489609D01*
Y490231D01*
X839490Y508160D01*
X797300Y476410D02*
X808362D01*
X838580Y551180D02*
X840740Y549020D01*
Y528160D02*
Y549020D01*
X640080Y461010D02*
X646430Y454660D01*
Y438150D02*
Y454660D01*
X639161Y84739D02*
X649233D01*
X632587Y91313D02*
X639161Y84739D01*
X632587Y91313D02*
Y114560D01*
X637286Y75184D02*
X652322D01*
X620310Y92160D02*
X637286Y75184D01*
X620310Y92160D02*
Y96520D01*
X649233Y84739D02*
X654781Y79190D01*
X646430Y60960D02*
X663702D01*
X654850Y66190D02*
X664972D01*
X650428Y70612D02*
X654850Y66190D01*
X613238Y70612D02*
X650428D01*
X663702Y60960D02*
X664972Y59690D01*
X612178Y69552D02*
X613238Y70612D01*
X652322Y75184D02*
X654816Y72690D01*
X664972D01*
X654781Y79190D02*
X664972D01*
X607822Y69850D02*
X611632D01*
X642620Y194310D02*
X657769Y179161D01*
X662940D01*
X543970Y266860D02*
Y271860D01*
X568052Y257810D02*
Y258782D01*
X558441Y268393D02*
X568052Y258782D01*
X558441Y268393D02*
Y270809D01*
X552588Y276662D02*
X558441Y270809D01*
X544168Y276662D02*
X552588D01*
X543970Y276860D02*
X544168Y276662D01*
X567430Y276860D02*
Y277832D01*
X563402Y281860D02*
X567430Y277832D01*
X543970Y281860D02*
X563402D01*
X567430Y291128D02*
Y292100D01*
X563162Y286860D02*
X567430Y291128D01*
X543970Y286860D02*
X563162D01*
X487730Y281860D02*
X499970D01*
X478920Y273050D02*
X487730Y281860D01*
X477520Y290310D02*
X480970Y286860D01*
X499970D01*
Y271860D02*
Y276860D01*
X500168Y277058D02*
X508588D01*
X499970Y276860D02*
X500168Y277058D01*
X542160Y367780D02*
X543560D01*
X500168Y267058D02*
X509628D01*
X499970Y266860D02*
X500168Y267058D01*
X509628D02*
X543560Y300990D01*
Y350520D01*
X801008Y33020D02*
X866140D01*
X799738Y34290D02*
X801008Y33020D01*
X721868Y59690D02*
X744811D01*
X768946Y126326D02*
X770890Y128270D01*
X762107Y126326D02*
X768946D01*
X757020Y121239D02*
X762107Y126326D01*
X756920Y121239D02*
X757020D01*
X840378Y54610D02*
X842512Y56744D01*
Y73660D01*
X742792Y46690D02*
X744161D01*
X736292Y53190D02*
X742792Y46690D01*
X721868Y53190D02*
X736292D01*
X842512Y73660D02*
Y91440D01*
X721868Y40190D02*
X727202D01*
X730354Y37038D01*
X769732D01*
X782574Y49880D01*
X819564D01*
X823322Y53638D01*
Y54610D01*
X793851Y56388D02*
X805493Y68030D01*
X821022D01*
X825252Y72260D01*
Y73660D01*
X730498Y71120D02*
X776172D01*
X730348Y71270D02*
X730498Y71120D01*
X723288Y71270D02*
X730348D01*
X721868Y72690D02*
X723288Y71270D01*
X776172Y71120D02*
X781252Y66040D01*
X782320D01*
X664972Y40190D02*
X670306D01*
X620310Y96520D02*
Y99064D01*
X706420Y46690D02*
X721868D01*
X686920Y53190D02*
X693420Y59690D01*
X664972Y53190D02*
X686920D01*
X556260Y54610D02*
X574040D01*
X579584Y60154D01*
X546100Y64747D02*
X559520Y78167D01*
X546100Y43688D02*
Y64747D01*
X663552Y45270D02*
X664972Y46690D01*
X559520Y78167D02*
Y110590D01*
X563750Y114820D01*
X565150D01*
X579584Y60154D02*
X590334D01*
X578104Y79248D02*
X585978D01*
X578104D02*
Y90424D01*
X620306Y42882D02*
X631448D01*
X565150Y114820D02*
X566550D01*
X617512Y55486D02*
X620306Y52692D01*
X617512Y55486D02*
Y68028D01*
X620306Y42882D02*
Y52692D01*
X807852Y488542D02*
Y495063D01*
X805918Y486608D02*
X807852Y488542D01*
X803320Y486608D02*
X805918D01*
X803122Y486410D02*
X803320Y486608D01*
X797300Y486410D02*
X803122D01*
X794915Y508000D02*
X807852Y495063D01*
X758190Y508000D02*
X794915D01*
X732428Y524742D02*
Y526142D01*
X796403Y491640D02*
Y497727D01*
X790702Y503428D02*
X796403Y497727D01*
X753742Y503428D02*
X790702D01*
X796403Y491640D02*
X796633Y491410D01*
X797300D01*
X750050Y516140D02*
X758190Y508000D01*
X750050Y516140D02*
Y525780D01*
X732428Y524742D02*
X753742Y503428D01*
X416820Y445320D02*
X418350Y446850D01*
X364998Y445320D02*
X416820D01*
X435406Y448310D02*
Y449974D01*
X407547Y453390D02*
X411871Y457714D01*
X380050Y453390D02*
X407547D01*
X375628Y457812D02*
X380050Y453390D01*
X390906Y473202D02*
X395940Y468168D01*
X382043Y473202D02*
X390906D01*
X380162Y471320D02*
X382043Y473202D01*
X384810Y464820D02*
X386080Y463550D01*
X364998Y464820D02*
X384810D01*
X395940Y468168D02*
X417380D01*
X364998Y471320D02*
X380162D01*
X364998Y477820D02*
X399938D01*
X365506Y457812D02*
X375628D01*
X411871Y457714D02*
X427666D01*
X753300Y461886D02*
Y471410D01*
X744506Y453092D02*
X753300Y461886D01*
X753102Y481608D02*
X753300Y481410D01*
X744682Y481608D02*
X753102D01*
X742748Y483542D02*
X744682Y481608D01*
X742748Y483542D02*
Y486288D01*
X735978Y493058D02*
X742748Y486288D01*
X735978Y493058D02*
Y494030D01*
X797300Y464950D02*
Y471410D01*
X785870Y453520D02*
X797300Y464950D01*
X785870Y452120D02*
Y453520D01*
X797300Y471410D02*
X803050D01*
X750050Y525780D02*
X768090D01*
X797300Y481410D02*
X797498Y481212D01*
X797300Y481410D02*
Y486410D01*
X714750Y526142D02*
X732428D01*
X285458Y491198D02*
Y515112D01*
X280670Y486410D02*
X285458Y491198D01*
X272330Y543560D02*
X285458Y530432D01*
Y515112D02*
Y530432D01*
X299936Y487152D02*
Y560026D01*
Y487152D02*
X302768Y484320D01*
X299936Y560026D02*
X300990Y561080D01*
X418350Y446850D02*
Y448310D01*
X364998Y458320D02*
X365506Y457812D01*
X302768Y484320D02*
X308102D01*
X279400Y561340D02*
X280800D01*
X295364Y546776D01*
X307594Y478328D02*
X308102Y477820D01*
X245110Y524510D02*
X263614D01*
X235458Y560820D02*
X236728Y562090D01*
X292853Y479509D02*
Y479543D01*
X307594Y471828D02*
X308102Y471320D01*
X290716Y481680D02*
X292853Y479543D01*
X284428Y481680D02*
X290716D01*
X280670Y485438D02*
X284428Y481680D01*
X280670Y485438D02*
Y486410D01*
X427666Y457714D02*
X435406Y449974D01*
X417380Y468168D02*
X418350Y467198D01*
X441550Y773350D02*
X451287D01*
X1031240Y408032D02*
X1032148Y407124D01*
X1059180D01*
X890270Y427480D02*
Y447040D01*
X885190Y422400D02*
X890270Y427480D01*
X885825Y405765D02*
X916305D01*
X963930Y430020D02*
Y449580D01*
X958850Y424940D02*
X963930Y430020D01*
X991870Y406400D02*
X1010830Y387440D01*
X990238Y406400D02*
X991870D01*
X1023807Y389890D02*
X1050290D01*
X1038700Y431492D02*
Y449580D01*
X1031240Y424032D02*
X1038700Y431492D01*
Y449580D02*
X1038860D01*
X1023620Y275560D02*
X1039880D01*
X1028266Y315560D02*
X1039880D01*
X1015713Y380994D02*
Y383666D01*
X1022857Y390810D01*
X1050290Y389890D02*
X1059180Y398780D01*
Y407124D01*
X1026923Y350560D02*
X1039880D01*
X979880Y255560D02*
Y265100D01*
X1099650Y357970D02*
X1103630Y361950D01*
X897890Y351790D02*
X912487Y337193D01*
X1084580Y419100D02*
X1108880D01*
X979880Y252311D02*
Y255560D01*
X1301750Y0D02*
G03*
X1309370Y7620I0J7620D01*
G01*
Y858520D02*
G03*
X1300480Y866140I-8255J-635D01*
G01*
X7620D02*
G03*
X0Y858520I0J-7620D01*
G01*
Y7620D02*
G03*
X7620Y0I7620J0D01*
G01*
X1301750D01*
X1309370Y7620D02*
Y852170D01*
Y858520D01*
X7620Y866140D02*
X1300480D01*
X0Y7620D02*
Y858520D01*
D16*
X481660Y785467D02*
X487163Y779963D01*
X431191Y308463D02*
X431191D01*
X432666Y309938D01*
X426766Y304038D02*
X431191Y308463D01*
X441799Y326163D02*
X447714D01*
X422977Y307340D02*
X441799Y326163D01*
X374015Y307340D02*
X422977D01*
X372647Y304038D02*
X426766D01*
X357505Y323850D02*
X374015Y307340D01*
X354203Y322482D02*
X372647Y304038D01*
X432666Y309938D02*
X451561D01*
X447714Y326163D02*
X452107Y330556D01*
X720476Y476410D02*
X728980D01*
X716826Y480060D02*
X720476Y476410D01*
X490676Y827951D02*
X491490Y828764D01*
X490676Y799635D02*
Y827951D01*
X486775Y792641D02*
X497840Y781576D01*
X431049Y783101D02*
X435800Y778350D01*
X505460Y780738D02*
Y793750D01*
X487680Y793546D02*
Y796639D01*
X490676Y799635D01*
X860679Y395859D02*
X933999D01*
X855980Y391160D02*
X860679Y395859D01*
X710476Y473710D02*
X716826Y480060D01*
X486383Y769183D02*
X493905D01*
X505460Y780738D01*
X486383Y774183D02*
X494235D01*
X497840Y777788D01*
Y781576D01*
X954047Y370728D02*
Y380880D01*
X949379Y385549D02*
X954047Y380880D01*
X942635Y387223D02*
X944309Y385549D01*
X942415Y387223D02*
X942635D01*
X937133Y392505D02*
X942415Y387223D01*
X937133Y392505D02*
Y392725D01*
X933999Y395859D02*
X937133Y392725D01*
X944309Y385549D02*
X949379D01*
X954047Y370728D02*
X954713D01*
X954880Y370560D01*
X480351Y336893D02*
X519409Y375951D01*
X473556Y336893D02*
X480351D01*
X469163Y332500D02*
X473556Y336893D01*
X469163Y331528D02*
Y332500D01*
X481660Y808348D02*
Y810260D01*
X467062Y793750D02*
X481660Y808348D01*
X466090Y793750D02*
X467062D01*
X491490Y828764D02*
Y830034D01*
X519409Y375951D02*
Y382847D01*
X522047Y385485D02*
Y399695D01*
X519409Y382847D02*
X522047Y385485D01*
X530860Y430070D02*
Y440690D01*
X513380Y412590D02*
X530860Y430070D01*
X512130Y412590D02*
X513380D01*
X544830Y182845D02*
Y213360D01*
X518745Y402997D02*
X522047Y399695D01*
X518745Y402997D02*
Y407225D01*
X513380Y412590D02*
X518745Y407225D01*
X468473Y172720D02*
X485864D01*
X465380D02*
X468473D01*
X461443Y168783D02*
X465380Y172720D01*
X434299Y168783D02*
X461443D01*
X434252Y168830D02*
X434299Y168783D01*
X452120Y186055D02*
X454835Y188770D01*
X455534D01*
X462642Y195878D01*
Y196850D01*
X452120Y177800D02*
Y186055D01*
X456756Y196406D02*
X462198D01*
X462642Y196850D01*
X440867Y180517D02*
X456756Y196406D01*
X500638Y138653D02*
X544830Y182845D01*
X468473Y138653D02*
X500638D01*
X458090Y128270D02*
X468473Y138653D01*
X1022857Y390810D02*
Y394433D01*
X1012510Y404780D02*
X1022857Y394433D01*
X1187812Y425232D02*
Y440690D01*
X515655Y127285D02*
X521020Y121920D01*
X475075Y127285D02*
X515655D01*
X474090Y128270D02*
X475075Y127285D01*
X457562Y128798D02*
X458090Y128270D01*
X457562Y128798D02*
Y147320D01*
X435800Y778350D02*
X441550D01*
X485550D02*
X487163Y779963D01*
X485550Y768350D02*
X486383Y769183D01*
X485550Y773350D02*
X486383Y774183D01*
X475345Y785467D02*
X481660D01*
X467062Y793750D02*
X475345Y785467D01*
X425219Y774180D02*
X431049Y768350D01*
X419100Y774180D02*
X425219D01*
X441550Y763350D02*
Y768350D01*
X420530Y758350D02*
X441550D01*
X419100Y756920D02*
X420530Y758350D01*
X431049Y768350D02*
X441550D01*
X452107Y330556D02*
Y331528D01*
X428498Y347830D02*
X451561D01*
X354203Y322482D02*
Y339334D01*
X354399Y339530D01*
Y341856D01*
X358976Y346433D01*
X367665D01*
X369062Y347830D01*
X357505Y323850D02*
Y337966D01*
X359471Y339933D01*
X367665D01*
X369062Y341330D01*
X457562Y147320D02*
Y148292D01*
X442857Y162997D02*
X457562Y148292D01*
X435085Y162997D02*
X442857D01*
X434252Y163830D02*
X435085Y162997D01*
X440867Y174695D02*
Y180517D01*
X440002Y173830D02*
X440867Y174695D01*
X434252Y173830D02*
X440002D01*
X390252Y158830D02*
Y163830D01*
X379041D02*
X390252D01*
X377816Y165055D02*
X379041Y163830D01*
X370987Y165055D02*
X377816D01*
X366122Y169920D02*
X370987Y165055D01*
X367292Y153830D02*
X390252D01*
X366122Y152660D02*
X367292Y153830D01*
X1015713Y371393D02*
Y380994D01*
X1014880Y370560D02*
X1015713Y371393D01*
X974880Y251809D02*
Y255560D01*
D19*
X428498Y334830D02*
D03*
Y341330D02*
D03*
Y347830D02*
D03*
Y354330D02*
D03*
Y360830D02*
D03*
Y367330D02*
D03*
Y373830D02*
D03*
X369062D02*
D03*
Y367330D02*
D03*
Y360830D02*
D03*
Y354330D02*
D03*
Y347830D02*
D03*
Y341330D02*
D03*
Y334830D02*
D03*
D20*
X398780Y354330D02*
D03*
D21*
X715080Y575310D02*
D03*
X768280D02*
D03*
X1177150Y582930D02*
D03*
X1123950D02*
D03*
D22*
X595630Y387280D02*
D03*
Y334080D02*
D03*
X289560Y133490D02*
D03*
Y186690D02*
D03*
X369570Y788530D02*
D03*
Y735330D02*
D03*
X925830Y703650D02*
D03*
Y756850D02*
D03*
D23*
X308102Y484320D02*
D03*
Y477820D02*
D03*
Y471320D02*
D03*
Y464820D02*
D03*
Y458320D02*
D03*
Y451820D02*
D03*
Y445320D02*
D03*
X364998Y445320D02*
D03*
Y451820D02*
D03*
Y458320D02*
D03*
Y464820D02*
D03*
Y471320D02*
D03*
Y477820D02*
D03*
Y484320D02*
D03*
X721868Y79190D02*
D03*
Y72690D02*
D03*
Y66190D02*
D03*
Y59690D02*
D03*
Y53190D02*
D03*
Y46690D02*
D03*
Y40190D02*
D03*
X664972Y40190D02*
D03*
Y46690D02*
D03*
Y53190D02*
D03*
Y59690D02*
D03*
Y66190D02*
D03*
Y72690D02*
D03*
Y79190D02*
D03*
D24*
X336550Y464820D02*
D03*
X693420Y59690D02*
D03*
D25*
X485550Y758350D02*
D03*
Y763350D02*
D03*
Y768350D02*
D03*
Y773350D02*
D03*
Y778350D02*
D03*
X441550D02*
D03*
Y773350D02*
D03*
Y768350D02*
D03*
Y763350D02*
D03*
Y758350D02*
D03*
X797300Y491410D02*
D03*
Y486410D02*
D03*
Y481410D02*
D03*
Y476410D02*
D03*
Y471410D02*
D03*
X753300D02*
D03*
Y476410D02*
D03*
Y481410D02*
D03*
Y486410D02*
D03*
Y491410D02*
D03*
X543970Y266860D02*
D03*
Y271860D02*
D03*
Y276860D02*
D03*
Y281860D02*
D03*
Y286860D02*
D03*
X499970D02*
D03*
Y281860D02*
D03*
Y276860D02*
D03*
Y271860D02*
D03*
Y266860D02*
D03*
X390252Y153830D02*
D03*
Y158830D02*
D03*
Y163830D02*
D03*
Y168830D02*
D03*
Y173830D02*
D03*
X434252D02*
D03*
Y168830D02*
D03*
Y163830D02*
D03*
Y158830D02*
D03*
Y153830D02*
D03*
X1040540Y718980D02*
D03*
Y723980D02*
D03*
Y728980D02*
D03*
Y733980D02*
D03*
Y738980D02*
D03*
X996540D02*
D03*
Y733980D02*
D03*
Y728980D02*
D03*
Y723980D02*
D03*
Y718980D02*
D03*
D26*
X1146970Y512220D02*
D03*
X1151970D02*
D03*
X1156970D02*
D03*
X1161970D02*
D03*
X1166970D02*
D03*
Y468220D02*
D03*
X1161970D02*
D03*
X1156970D02*
D03*
X1151970D02*
D03*
X1146970D02*
D03*
D27*
X624080Y461010D02*
D03*
X640080D02*
D03*
X357250Y57150D02*
D03*
X341250D02*
D03*
X474090Y128270D02*
D03*
X458090D02*
D03*
X485140Y369870D02*
D03*
X469140D02*
D03*
X838580Y551180D02*
D03*
X822580D02*
D03*
X66420Y298450D02*
D03*
X50420D02*
D03*
D28*
X646430Y438150D02*
D03*
Y418150D02*
D03*
X840740Y508160D02*
D03*
Y528160D02*
D03*
X890270Y467040D02*
D03*
Y447040D02*
D03*
X963930Y469580D02*
D03*
Y449580D02*
D03*
X512130Y412590D02*
D03*
Y392590D02*
D03*
X1038860Y469580D02*
D03*
Y449580D02*
D03*
D29*
X285458Y515112D02*
D03*
X263614Y505714D02*
D03*
Y524510D02*
D03*
X590334Y78950D02*
D03*
Y60154D02*
D03*
X612178Y69552D02*
D03*
D30*
X663702Y575310D02*
D03*
X633730D02*
D03*
D31*
X415290Y55880D02*
D03*
X435290D02*
D03*
X541020Y121920D02*
D03*
X521020D02*
D03*
X150810Y300990D02*
D03*
X130810D02*
D03*
D32*
X1031240Y408032D02*
D03*
Y424032D02*
D03*
X885190Y422400D02*
D03*
Y406400D02*
D03*
X958850Y426210D02*
D03*
Y410210D02*
D03*
D33*
X1039880Y350560D02*
D03*
Y345560D02*
D03*
Y340560D02*
D03*
Y335560D02*
D03*
Y330560D02*
D03*
Y325560D02*
D03*
Y320560D02*
D03*
Y315560D02*
D03*
Y310560D02*
D03*
Y305560D02*
D03*
Y300560D02*
D03*
Y295560D02*
D03*
Y290560D02*
D03*
Y285560D02*
D03*
Y280560D02*
D03*
Y275560D02*
D03*
X924880D02*
D03*
Y280560D02*
D03*
Y285560D02*
D03*
Y290560D02*
D03*
Y295560D02*
D03*
Y300560D02*
D03*
Y305560D02*
D03*
Y310560D02*
D03*
Y315560D02*
D03*
Y320560D02*
D03*
Y325560D02*
D03*
Y330560D02*
D03*
Y335560D02*
D03*
Y340560D02*
D03*
Y345560D02*
D03*
Y350560D02*
D03*
D34*
X1019880Y255560D02*
D03*
X1014880D02*
D03*
X1009880D02*
D03*
X1004880D02*
D03*
X999880D02*
D03*
X994880D02*
D03*
X989880D02*
D03*
X984880D02*
D03*
X979880D02*
D03*
X974880D02*
D03*
X969880D02*
D03*
X964880D02*
D03*
X959880D02*
D03*
X954880D02*
D03*
X949880D02*
D03*
X944880D02*
D03*
Y370560D02*
D03*
X949880D02*
D03*
X954880D02*
D03*
X959880D02*
D03*
X964880D02*
D03*
X969880D02*
D03*
X974880D02*
D03*
X979880D02*
D03*
X984880D02*
D03*
X989880D02*
D03*
X994880D02*
D03*
X999880D02*
D03*
X1004880D02*
D03*
X1009880D02*
D03*
X1014880D02*
D03*
X1019880D02*
D03*
D35*
X880834Y351790D02*
D03*
X897890D02*
D03*
X1084580Y151130D02*
D03*
X1101636D02*
D03*
X719366Y97790D02*
D03*
X702310D02*
D03*
X361226Y513080D02*
D03*
X344170D02*
D03*
X772160Y402590D02*
D03*
X755104D02*
D03*
X770890Y381000D02*
D03*
X753834D02*
D03*
X585832Y275590D02*
D03*
X602888D02*
D03*
X567430Y292100D02*
D03*
X584486D02*
D03*
X585108Y257810D02*
D03*
X568052D02*
D03*
X561886Y389625D02*
D03*
X544830D02*
D03*
X565150Y328930D02*
D03*
X548094D02*
D03*
X603250Y42882D02*
D03*
X620306D02*
D03*
X823322Y54610D02*
D03*
X840378D02*
D03*
X782682Y34290D02*
D03*
X799738D02*
D03*
X710476Y473710D02*
D03*
X693420D02*
D03*
X744506Y452120D02*
D03*
X727450D02*
D03*
X718922Y494030D02*
D03*
X735978D02*
D03*
X418940Y448412D02*
D03*
X435996D02*
D03*
X290468Y441960D02*
D03*
X273412D02*
D03*
X263614Y486410D02*
D03*
X280670D02*
D03*
X1187812Y462280D02*
D03*
X1204868D02*
D03*
X1219562Y482600D02*
D03*
X1236618D02*
D03*
X1204868Y440690D02*
D03*
X1187812D02*
D03*
X957580Y762000D02*
D03*
X974636D02*
D03*
X957580Y694690D02*
D03*
X974636D02*
D03*
X402044Y795020D02*
D03*
X419100D02*
D03*
X403314Y731520D02*
D03*
X420370D02*
D03*
X451561Y309938D02*
D03*
X468617D02*
D03*
X451561Y347830D02*
D03*
X468617D02*
D03*
X452107Y331528D02*
D03*
X469163D02*
D03*
X339814Y187960D02*
D03*
X356870D02*
D03*
X338544Y129540D02*
D03*
X355600D02*
D03*
X474618Y147320D02*
D03*
X457562D02*
D03*
X462642Y196850D02*
D03*
X479698D02*
D03*
X485864Y172720D02*
D03*
X502920D02*
D03*
D36*
X1130300Y197600D02*
D03*
Y180340D02*
D03*
X477520Y273050D02*
D03*
Y290310D02*
D03*
X543560Y350520D02*
D03*
Y367780D02*
D03*
X632587Y131820D02*
D03*
Y114560D02*
D03*
X565150Y132080D02*
D03*
Y114820D02*
D03*
X610870Y132340D02*
D03*
Y115080D02*
D03*
X588010Y132080D02*
D03*
Y114820D02*
D03*
X638810Y524510D02*
D03*
Y541770D02*
D03*
X300990Y578340D02*
D03*
Y561080D02*
D03*
X236728Y579350D02*
D03*
Y562090D02*
D03*
X257810Y579350D02*
D03*
Y562090D02*
D03*
X279400Y578600D02*
D03*
Y561340D02*
D03*
X999490Y754900D02*
D03*
Y772160D02*
D03*
X976630Y719080D02*
D03*
Y736340D02*
D03*
X447040Y809250D02*
D03*
Y826510D02*
D03*
X419100Y756920D02*
D03*
Y774180D02*
D03*
X366122Y152660D02*
D03*
Y169920D02*
D03*
D37*
X1054100Y208280D02*
D03*
Y225336D02*
D03*
X1191260Y285349D02*
D03*
Y268293D02*
D03*
X1059180Y424180D02*
D03*
Y407124D02*
D03*
X990238Y423456D02*
D03*
Y406400D02*
D03*
X916940Y422186D02*
D03*
Y405130D02*
D03*
X1188720Y170726D02*
D03*
Y153670D02*
D03*
X714750Y543198D02*
D03*
Y526142D02*
D03*
X768090Y542836D02*
D03*
Y525780D02*
D03*
X657860Y541566D02*
D03*
Y524510D02*
D03*
X618490D02*
D03*
Y541566D02*
D03*
X1183281Y552088D02*
D03*
Y535032D02*
D03*
X1118870Y548786D02*
D03*
Y531730D02*
D03*
X1040130Y791572D02*
D03*
Y808628D02*
D03*
X1018540Y754742D02*
D03*
Y771798D02*
D03*
X1062990Y773068D02*
D03*
Y756012D02*
D03*
X491490Y827494D02*
D03*
Y844550D02*
D03*
X466090Y793750D02*
D03*
Y810806D02*
D03*
X505460D02*
D03*
Y793750D02*
D03*
D38*
X1126750Y361950D02*
D03*
X1144010D02*
D03*
X944880Y128270D02*
D03*
X962140D02*
D03*
X901180Y304800D02*
D03*
X883920D02*
D03*
X901440Y328930D02*
D03*
X884180D02*
D03*
X770890Y359410D02*
D03*
X753630D02*
D03*
X842512Y73660D02*
D03*
X825252D02*
D03*
X768610Y452120D02*
D03*
X785870D02*
D03*
X732790Y525780D02*
D03*
X750050D02*
D03*
X436200Y471320D02*
D03*
X418940D02*
D03*
X1187970Y504190D02*
D03*
X1205230D02*
D03*
X1144530Y533400D02*
D03*
X1161790D02*
D03*
X426980Y393700D02*
D03*
X444240D02*
D03*
X368808Y411480D02*
D03*
X351548D02*
D03*
X368808Y391160D02*
D03*
X351548D02*
D03*
X421482Y190500D02*
D03*
X404222D02*
D03*
D39*
X928370Y198400D02*
D03*
X979170D02*
D03*
Y152400D02*
D03*
X928370D02*
D03*
D40*
X717550Y376428D02*
D03*
Y406400D02*
D03*
D41*
X715010Y224790D02*
D03*
Y330200D02*
D03*
D46*
X434280Y586740D02*
D03*
Y624840D02*
D03*
Y599440D02*
D03*
Y612140D02*
D03*
D47*
X376030Y624840D02*
D03*
Y612140D02*
D03*
Y599440D02*
D03*
Y586740D02*
D03*
D48*
X398780Y605790D02*
D03*
D49*
X359537Y296037D02*
D03*
Y273050D02*
D03*
Y250063D02*
D03*
D50*
X430530Y273050D02*
D03*
D51*
X483223Y568960D02*
D03*
X588633D02*
D03*
D52*
X1163320Y419100D02*
D03*
Y406400D02*
D03*
Y393700D02*
D03*
Y381000D02*
D03*
X1110320D02*
D03*
Y393700D02*
D03*
Y406400D02*
D03*
Y419100D02*
D03*
D68*
X412750Y547370D02*
D03*
D71*
X681990Y146731D02*
D03*
X737870Y153670D02*
D03*
D92*
X437297Y367330D02*
G03*
X439928Y368420I0J3721D01*
G01*
X464820Y391160D02*
G03*
X461146Y389638I0J-5195D01*
G01*
X333375Y367330D02*
X369062D01*
X439928Y368420D02*
X461146Y389638D01*
X428498Y367330D02*
X437297D01*
D93*
X882650Y255631D02*
G03*
X890089Y237670I25400J0D01*
G01*
X944880Y128270D02*
G03*
X939492Y141278I-18396J0D01*
G01*
X901180Y304800D02*
G03*
X899160Y299923I4877J-4877D01*
G01*
X912873Y304640D02*
G03*
X912487Y304800I-386J-386D01*
G01*
X1160780Y425232D02*
G03*
X1163320Y419100I8672J0D01*
G01*
X884180Y328930D02*
G03*
X883920Y328302I628J-628D01*
G01*
X967160Y140391D02*
G03*
X962140Y128270I12120J-12120D01*
G01*
X1278890Y704489D02*
G03*
X1271451Y722449I-25400J0D01*
G01*
X1278890Y408940D02*
G03*
X1270986Y405666I0J-11178D01*
G01*
X890089Y237670D02*
X897890Y229870D01*
X882650Y255631D02*
Y267970D01*
X899160Y284480D02*
Y299923D01*
X928370Y152400D02*
X939492Y141278D01*
X901180Y304800D02*
Y328930D01*
Y304800D02*
X912487D01*
X398780Y354330D02*
X399530D01*
X412530Y341330D01*
X271129Y472535D02*
X272344Y471320D01*
X271129Y472535D02*
Y477559D01*
X265467Y483221D02*
X271129Y477559D01*
X265467Y483221D02*
Y484557D01*
X610761Y114934D02*
X620310Y107778D01*
X371113Y624665D02*
X376030D01*
X988115Y482655D02*
X990545D01*
X1160780Y425232D02*
Y436880D01*
X1163145Y418925D02*
X1163320Y419100D01*
X883920Y304800D02*
Y328302D01*
X967160Y140391D02*
X972185Y145415D01*
X962140Y126870D02*
Y128270D01*
X436085Y77945D02*
X436880Y78740D01*
X435665Y79955D02*
X436880Y78740D01*
X1243993Y348673D02*
X1256790Y361470D01*
X1243993Y250317D02*
Y348673D01*
Y250317D02*
X1256820Y237490D01*
X1204868Y440690D02*
Y462280D01*
X1206655Y464067D01*
X1219421D01*
X1230275Y474921D01*
Y475285D01*
X1236618Y481628D01*
Y482600D01*
X1234765Y484453D02*
X1236618Y482600D01*
X1234765Y484453D02*
Y485789D01*
X1220089Y500465D02*
X1234765Y485789D01*
X1207555Y500465D02*
X1220089D01*
X1205230Y502790D02*
X1207555Y500465D01*
X1205230Y502790D02*
Y504190D01*
X1064441Y774519D02*
X1086939D01*
X1062990Y773068D02*
X1064441Y774519D01*
X1062473Y773585D02*
X1062990Y773068D01*
X1062473Y773585D02*
Y787621D01*
X1047809Y802285D02*
X1062473Y787621D01*
X1047445Y802285D02*
X1047809D01*
X1041102Y808628D02*
X1047445Y802285D01*
X1040130Y808628D02*
X1041102D01*
X1038277Y806775D02*
X1040130Y808628D01*
X1036941Y806775D02*
X1038277D01*
X1018540Y788374D02*
X1036941Y806775D01*
X1018540Y771798D02*
Y788374D01*
X785870Y452120D02*
X787010Y450980D01*
X802510D01*
X803650Y449840D01*
X718922Y493058D02*
Y494030D01*
X717069Y491205D02*
X718922Y493058D01*
X709579Y491205D02*
X717069D01*
X700241Y481867D02*
X709579Y491205D01*
X700241Y481503D02*
Y481867D01*
X693420Y474682D02*
X700241Y481503D01*
X693420Y473710D02*
Y474682D01*
Y473710D02*
X695141Y471989D01*
Y458185D02*
Y471989D01*
Y458185D02*
X706413Y446913D01*
X715987D01*
X718369Y449295D01*
X725597D01*
X727450Y451148D01*
Y452120D01*
X718820Y819150D02*
X742950Y843280D01*
X897890Y351790D02*
X913130Y367030D01*
X941756Y348768D02*
X972159Y318365D01*
X940448Y348768D02*
X941756D01*
X972159Y318365D02*
X980815D01*
X982030Y317150D02*
Y350453D01*
X980815Y318365D02*
X982030Y317150D01*
X974880Y357603D02*
X982030Y350453D01*
X498971Y389625D02*
X509305D01*
X489331Y379985D02*
X498971Y389625D01*
X489331Y374061D02*
Y379985D01*
X485140Y369870D02*
X489331Y374061D01*
X585108Y236220D02*
Y257810D01*
Y258782D01*
X586961Y260635D01*
X589269D01*
X596545Y267911D01*
Y268275D01*
X602888Y274618D01*
Y275590D01*
X601035Y277443D02*
X602888Y275590D01*
X601035Y277443D02*
Y278779D01*
X590539Y289275D02*
X601035Y278779D01*
X586339Y289275D02*
X590539D01*
X584486Y291128D02*
X586339Y289275D01*
X584486Y291128D02*
Y292100D01*
X479698Y196850D02*
X480126D01*
X501067Y170867D02*
X502920Y172720D01*
X501067Y169531D02*
Y170867D01*
X491374Y159838D02*
X501067Y169531D01*
X486164Y159838D02*
X491374D01*
X474618Y148292D02*
X486164Y159838D01*
X474618Y147320D02*
Y148292D01*
X501067Y174573D02*
X502920Y172720D01*
X501067Y174573D02*
Y175909D01*
X480126Y196850D02*
X501067Y175909D01*
X477845Y198703D02*
X479698Y196850D01*
X477845Y198703D02*
Y200039D01*
X467064Y210820D02*
X477845Y200039D01*
X447040Y210820D02*
X467064D01*
X422038D02*
X447040D01*
X410775Y199557D02*
X422038Y210820D01*
X632327Y132080D02*
X632587Y131820D01*
X611130Y132080D02*
X632327D01*
X610870Y132340D02*
X611130Y132080D01*
X610740Y132210D02*
X610870Y132340D01*
X588140Y132210D02*
X610740D01*
X588010Y132080D02*
X588140Y132210D01*
X565150Y132080D02*
X588010D01*
X563750D02*
X565150D01*
X557197Y125527D02*
X563750Y132080D01*
X543845Y125527D02*
X557197D01*
X541020Y122702D02*
X543845Y125527D01*
X541020Y121920D02*
Y122702D01*
X436880Y78740D02*
X499090D01*
X541020Y120670D01*
Y121920D01*
X435665Y79955D02*
Y152417D01*
X434252Y153830D02*
X435665Y152417D01*
X436085Y56675D02*
Y77945D01*
X435290Y55880D02*
X436085Y56675D01*
X878635Y294435D02*
Y298115D01*
X883920Y303400D01*
Y304800D01*
X867410Y283210D02*
X878635Y294435D01*
X982030Y317150D02*
X983620Y315560D01*
X1038860Y469580D02*
X1040110D01*
X1059180Y450510D01*
Y424180D02*
Y450510D01*
X990545Y482655D02*
X1003620Y469580D01*
X1038860D01*
X988115Y425309D02*
X989968Y423456D01*
X990238D01*
X988115Y425309D02*
Y482655D01*
X978255D02*
X988115D01*
X965180Y469580D02*
X978255Y482655D01*
X963930Y469580D02*
X965180D01*
X981765Y118055D02*
X982980Y116840D01*
X970955Y118055D02*
X981765D01*
X962140Y126870D02*
X970955Y118055D01*
X897890Y229870D02*
X900900D01*
X928370Y202400D01*
Y198400D02*
Y202400D01*
X1267460Y726440D02*
X1271451Y722449D01*
X1278890Y408940D02*
Y704489D01*
X1256790Y391470D02*
X1270986Y405666D01*
X742950Y843280D02*
X745490Y840740D01*
X718820Y815340D02*
Y819150D01*
X1203960Y582930D02*
X1231900Y554990D01*
X1177150Y582930D02*
X1203960D01*
X1205230Y505590D02*
X1231770Y532130D01*
X1205049Y505409D02*
X1205230Y505590D01*
X1231770Y532130D02*
X1256030D01*
X1121410Y580390D02*
X1123950Y582930D01*
X1118870Y533400D02*
X1144530D01*
X1163241Y534851D02*
X1185999D01*
X1179445Y643505D02*
X1181100Y645160D01*
X718820Y760730D02*
Y789940D01*
Y841375D02*
Y842010D01*
X693420Y815975D02*
X718820Y841375D01*
X693420Y815340D02*
Y815975D01*
X1086939Y774519D02*
X1088390Y775970D01*
X957580Y694690D02*
Y695662D01*
X955727Y697515D02*
X957580Y695662D01*
X931965Y697515D02*
X955727D01*
X925830Y703650D02*
X931965Y697515D01*
X93980Y595630D02*
X110617Y578993D01*
Y504571D02*
Y578993D01*
X107188Y501142D02*
X110617Y504571D01*
X150810Y302240D02*
Y307320D01*
X129095Y299275D02*
X130810Y300990D01*
X67245Y299275D02*
X129095D01*
X66420Y298450D02*
X67245Y299275D01*
X43180Y253238D02*
Y274815D01*
Y253238D02*
X85852Y210566D01*
X106680D01*
X43180Y274815D02*
X50420Y282055D01*
Y298450D01*
X610761Y114934D02*
X610761Y114934D01*
X610740Y114950D02*
X610761Y114934D01*
X593055Y331505D02*
X595630Y334080D01*
X567003Y331505D02*
X593055D01*
X565150Y329652D02*
X567003Y331505D01*
X565150Y328930D02*
Y329652D01*
X543560Y367780D02*
X544195Y368415D01*
Y388990D01*
X544830Y389625D01*
X561886D02*
X563058Y388452D01*
X594458D01*
X595630Y387280D01*
X574040Y41910D02*
X574526Y42396D01*
X602764D01*
X603250Y42882D01*
X620310Y99064D02*
Y107778D01*
X588140Y114950D02*
X610740D01*
X588010Y114820D02*
X588140Y114950D01*
X603250Y41910D02*
Y42882D01*
X436164Y466644D02*
X507446D01*
X435508Y448412D02*
Y467096D01*
X365045Y618597D02*
X371113Y624665D01*
X365045Y610603D02*
Y618597D01*
X358140Y601980D02*
X373380Y586740D01*
X376030D01*
X358140Y601980D02*
X359858D01*
X362398Y599440D01*
X376030D01*
X359858Y601980D02*
X369843Y611965D01*
X375855D01*
X376030Y612140D01*
X358140Y603698D02*
X365045Y610603D01*
X358140Y601980D02*
Y603698D01*
X801244Y449840D02*
X803650D01*
X791417Y440013D02*
X801244Y449840D01*
X738221Y440013D02*
X791417D01*
X733793Y444441D02*
X738221Y440013D01*
X733793Y444441D02*
Y444805D01*
X727450Y451148D02*
X733793Y444805D01*
X727450Y452120D02*
Y453092D01*
X256410Y562090D02*
X257810D01*
X250071Y555751D02*
X256410Y562090D01*
X250071Y543991D02*
Y555751D01*
X248370Y542290D02*
X250071Y543991D01*
X590550Y518160D02*
X592268D01*
X598618Y524510D01*
X618490D01*
X638810D01*
X657860D01*
X279025Y561715D02*
X279400Y561340D01*
X258185Y561715D02*
X279025D01*
X257810Y562090D02*
X258185Y561715D01*
X263614Y486410D02*
X265467Y484557D01*
X435406Y448310D02*
X435508Y448412D01*
Y467096D02*
X435610Y467198D01*
X507446Y466644D02*
X508000Y466090D01*
X435610Y467198D02*
X436164Y466644D01*
X142240Y815340D02*
X148590D01*
X116840Y789940D02*
X133223Y773557D01*
Y740537D02*
Y773557D01*
Y740537D02*
X133350Y740410D01*
X142240Y787599D02*
Y789940D01*
Y787599D02*
X146050Y783789D01*
Y763270D02*
Y783789D01*
X116840Y815340D02*
Y815975D01*
X91440Y841375D02*
X116840Y815975D01*
X91440Y841375D02*
Y842010D01*
X148590Y815340D02*
X177800Y844550D01*
X530314Y810806D02*
X530860Y810260D01*
X419735Y732155D02*
X420370Y731520D01*
X419735Y732155D02*
Y756285D01*
X419100Y756920D02*
X419735Y756285D01*
X419100Y774180D02*
Y795020D01*
X369570Y788530D02*
X373235Y792195D01*
X369570Y735330D02*
X371475Y733425D01*
X512130Y392450D02*
Y393700D01*
X509305Y389625D02*
X512130Y392450D01*
X444240Y392300D02*
Y393700D01*
X351548Y391160D02*
Y411480D01*
Y391160D02*
X353873Y388835D01*
Y384447D02*
Y388835D01*
Y384447D02*
X364490Y373830D01*
X441915Y391375D02*
X444240Y393700D01*
X339814Y187960D02*
Y278219D01*
X357632Y296037D01*
X359537D01*
Y227457D02*
Y250063D01*
X354330Y222250D02*
X359537Y227457D01*
X384175Y227330D02*
X403860D01*
X361442Y250063D02*
X384175Y227330D01*
X359537Y250063D02*
X361442D01*
X359537Y273050D02*
X396240D01*
X410775Y198453D02*
Y199557D01*
X404222Y191900D02*
X410775Y198453D01*
X404222Y190500D02*
Y191900D01*
X396240Y273050D02*
X430530D01*
X124841Y333289D02*
X150810Y307320D01*
X124841Y333289D02*
Y417783D01*
X116158Y426466D02*
X124841Y417783D01*
X107188Y426466D02*
X116158D01*
X404222Y189100D02*
Y190500D01*
X391959Y176837D02*
X404222Y189100D01*
X391959Y175537D02*
Y176837D01*
X367328Y171126D02*
Y176530D01*
X366122Y169920D02*
X367328Y171126D01*
X356870Y186988D02*
X367328Y176530D01*
X356870Y186988D02*
Y187960D01*
X366122Y141034D02*
Y152660D01*
X355600Y130512D02*
X366122Y141034D01*
X355600Y129540D02*
Y130512D01*
X414655Y56515D02*
X415290Y55880D01*
X357885Y56515D02*
X414655D01*
X357250Y57150D02*
X357885Y56515D01*
X885190Y406400D02*
X885825Y405765D01*
X916305D02*
X916940Y405130D01*
X983620Y315560D02*
X1023620Y275560D01*
X1028266Y315560D02*
X1028266Y315560D01*
X983620Y315560D02*
X1028266D01*
X1097280Y199390D02*
X1098009Y198661D01*
X1129239D01*
X1130300Y197600D01*
X1101636Y182334D02*
X1103630Y180340D01*
X1097280Y186690D02*
X1101636Y182334D01*
X1103630Y180340D02*
X1130300D01*
X1163320Y251783D02*
X1211113D01*
X1226820Y267490D01*
X1191260Y268293D02*
X1191662Y267892D01*
X1226419D01*
X1226820Y267490D01*
X1058726Y424634D02*
X1059180Y424180D01*
X1021587Y355896D02*
Y370560D01*
Y355896D02*
X1026923Y350560D01*
X880834Y336265D02*
Y351790D01*
X881855Y331255D02*
X884180Y328930D01*
X881855Y331255D02*
Y335244D01*
X880834Y336265D02*
X881855Y335244D01*
X1015830Y241683D02*
X1042412Y215101D01*
X1046307D01*
X1053128Y208280D01*
X1054100D01*
X1117148Y153670D02*
X1188720D01*
X1113428Y149950D02*
X1117148Y153670D01*
X958050Y223520D02*
X979170Y202400D01*
Y198400D02*
Y202400D01*
X934720Y223520D02*
X958050D01*
X1005830Y229060D02*
Y241683D01*
X979170Y202400D02*
X1005830Y229060D01*
X928370Y152400D02*
Y198400D01*
X1157981Y418925D02*
X1163145D01*
X1126750Y387694D02*
X1157981Y418925D01*
X1126750Y361950D02*
Y387694D01*
X1144010Y361950D02*
X1146335Y364275D01*
Y368165D01*
X1159170Y381000D01*
X1163320D01*
X1221740Y375920D02*
X1241240D01*
X1203960Y393700D02*
X1221740Y375920D01*
X1163320Y393700D02*
X1203960D01*
X1211860Y406400D02*
X1226790Y391470D01*
X1163320Y406400D02*
X1211860D01*
X1241240Y375920D02*
X1256790Y391470D01*
X1169670Y293693D02*
Y293892D01*
X1163320Y300242D02*
X1169670Y293892D01*
X1163320Y300242D02*
Y302583D01*
X1169670Y293693D02*
X1176161Y287202D01*
X1189407D01*
X1255933Y268377D02*
X1256820Y267490D01*
X1167130Y110490D02*
X1222460D01*
Y175490D01*
X1113428Y144530D02*
Y149950D01*
X1100978Y132080D02*
X1113428Y144530D01*
X1085238Y132080D02*
X1100978D01*
X1071880Y145438D02*
X1085238Y132080D01*
X1071880Y145438D02*
Y158899D01*
X1044238Y186541D02*
X1071880Y158899D01*
X1044238Y186541D02*
Y199390D01*
X1101636Y151130D02*
Y182334D01*
X1084580Y151130D02*
Y186690D01*
X1067226Y237490D02*
X1084580D01*
X1055072Y225336D02*
X1067226Y237490D01*
X1054100Y225336D02*
X1055072D01*
X1044238Y199390D02*
X1053128Y208280D01*
X1103630Y361950D02*
Y364356D01*
X1107399Y368125D01*
Y380825D01*
X1107574Y381000D01*
X1110320D01*
X1188720Y170726D02*
X1189692D01*
X1194456Y175490D01*
X1222460D01*
X882650Y267970D02*
X899160Y284480D01*
X901180Y328930D02*
X901440D01*
X972185Y145415D02*
X976185D01*
X979170Y148400D01*
Y152400D01*
D94*
X435021Y566420D02*
D03*
Y553720D02*
D03*
Y541020D02*
D03*
Y528320D02*
D03*
X380319D02*
D03*
Y541020D02*
D03*
Y553720D02*
D03*
Y566420D02*
D03*
D95*
X701040Y179161D02*
D03*
X688340D02*
D03*
X675640D02*
D03*
X662940D02*
D03*
Y124460D02*
D03*
X675640D02*
D03*
X688340D02*
D03*
X701040D02*
D03*
X718820Y175941D02*
D03*
X731520D02*
D03*
X744220D02*
D03*
X756920D02*
D03*
Y121239D02*
D03*
X744220D02*
D03*
X731520D02*
D03*
X718820D02*
D03*
D96*
X469422Y823454D02*
X490518Y844550D01*
X469422Y813294D02*
Y823454D01*
X490518Y844550D02*
X491490D01*
X530041Y810533D02*
X530314Y810806D01*
X505733Y810533D02*
X530041D01*
X505460Y810806D02*
X505733Y810533D01*
X505460Y810806D02*
Y831552D01*
X492462Y844550D02*
X505460Y831552D01*
X491490Y844550D02*
X492462D01*
X466934Y810806D02*
X469422Y813294D01*
X466090Y810806D02*
X466934D01*
X389702Y515808D02*
X391160Y514350D01*
X389702Y515808D02*
Y518837D01*
X380319Y528220D02*
X389702Y518837D01*
X380319Y528220D02*
Y528320D01*
X767080Y289560D02*
X768538Y291018D01*
Y357058D01*
X770890Y359410D01*
Y381000D01*
X771525Y381635D01*
Y401955D01*
X772160Y402590D01*
X344170Y612140D02*
X364442Y632412D01*
X343535Y612140D02*
X344170D01*
X364442Y632412D02*
X425038D01*
X292956Y444558D02*
X307340D01*
X308102Y445320D01*
X290468Y442070D02*
X292956Y444558D01*
X290468Y441960D02*
Y442070D01*
X425038Y632412D02*
X432610Y624840D01*
X434280D01*
D97*
X428498Y360830D02*
Y367330D01*
X412530Y341330D02*
X428498D01*
X450043Y784175D02*
X452737Y781481D01*
X448451Y784175D02*
X450043D01*
X445548Y787078D02*
X448451Y784175D01*
X462967Y813929D02*
X466090Y810806D01*
X461021Y813929D02*
X462967D01*
X448440Y826510D02*
X461021Y813929D01*
X447040Y826510D02*
X448440D01*
X431049Y783101D02*
Y811919D01*
X445640Y826510D01*
X447040D01*
X452737Y774800D02*
Y781481D01*
X451287Y773350D02*
X452737Y774800D01*
X209550Y566420D02*
X222480Y579350D01*
X236728D01*
X684530Y781050D02*
X693420Y789940D01*
X684530Y760730D02*
Y781050D01*
X245110Y505714D02*
X263614D01*
X336550Y464312D02*
Y464820D01*
X344170Y472440D02*
Y513080D01*
X336550Y464820D02*
X344170Y472440D01*
X336550Y464820D02*
X349550Y451820D01*
X364998D01*
X330050Y458320D02*
X336550Y464820D01*
X308102Y458320D02*
X330050D01*
X335280Y815340D02*
X356870Y836930D01*
X294640Y815340D02*
X335280D01*
D98*
X693472Y107600D02*
X702310Y98762D01*
X693425Y107600D02*
X693472D01*
X688340Y102515D02*
X693425Y107600D01*
X702310Y97790D02*
Y98762D01*
Y24130D02*
Y50800D01*
X693420Y59690D02*
X702310Y50800D01*
X424582Y156488D02*
X434252D01*
X421160Y159910D02*
Y188778D01*
Y159910D02*
X424582Y156488D01*
X421160Y190178D02*
X421482Y190500D01*
X630025Y189230D02*
X654882Y164373D01*
X610870Y189230D02*
X630025D01*
X654882Y164373D02*
X664348D01*
X681990Y146731D01*
X702310Y68580D02*
Y97790D01*
X693420Y59690D02*
X702310Y68580D01*
D99*
X647700Y390724D02*
X660836Y403860D01*
X647700Y361950D02*
Y390724D01*
X660836Y403860D02*
X678180D01*
X619830Y334080D02*
X647700Y361950D01*
X595630Y334080D02*
X619830D01*
D100*
X678180Y403860D02*
X680720Y406400D01*
D101*
X1271270Y38100D02*
D03*
Y828040D02*
D03*
X38100D02*
D03*
Y38100D02*
D03*
D102*
X1226790Y391470D02*
D03*
X1256790D02*
D03*
X1226790Y361470D02*
D03*
X1256790D02*
D03*
X508000Y584200D02*
D03*
X1084580Y419100D02*
D03*
X1102360Y271780D02*
D03*
X1167130Y110490D02*
D03*
X882650Y267970D02*
D03*
X934720Y223520D02*
D03*
X1103630Y361950D02*
D03*
X1104900Y107950D02*
D03*
X1065530Y132080D02*
D03*
X1256820Y237490D02*
D03*
X1226820D02*
D03*
X1256820Y267490D02*
D03*
X1226820D02*
D03*
X585108Y236220D02*
D03*
X574040Y462280D02*
D03*
X637286Y37044D02*
D03*
X847090Y114300D02*
D03*
X620310Y96520D02*
D03*
X791210Y568960D02*
D03*
X803650Y449840D02*
D03*
X272330Y543560D02*
D03*
X248370Y542290D02*
D03*
X1263650Y590550D02*
D03*
X1267460Y726440D02*
D03*
X1263650Y792480D02*
D03*
X1131570Y820420D02*
D03*
X1129030Y727710D02*
D03*
X1231900Y554990D02*
D03*
X1256030Y532130D02*
D03*
X812800Y760730D02*
D03*
X745490Y840740D02*
D03*
X933450Y831850D02*
D03*
X718820Y842010D02*
D03*
X684530Y760730D02*
D03*
X718820D02*
D03*
X1088390Y775970D02*
D03*
X177800Y844550D02*
D03*
X146050Y763270D02*
D03*
X91440Y842010D02*
D03*
X530860Y810260D02*
D03*
X288290Y764540D02*
D03*
X356870Y836930D02*
D03*
X133350Y740410D02*
D03*
X264160Y210820D02*
D03*
X93980Y595630D02*
D03*
X44450Y344170D02*
D03*
X179070Y214630D02*
D03*
X111760Y48260D02*
D03*
X447040Y210820D02*
D03*
X332740Y38100D02*
D03*
D103*
X680720Y406400D02*
D03*
X1163320Y302583D02*
D03*
Y277183D02*
D03*
X661670Y609600D02*
D03*
X1206500Y822960D02*
D03*
X1181100Y797560D02*
D03*
X1206500D02*
D03*
X1181100Y772160D02*
D03*
X1206500D02*
D03*
X1181100Y746760D02*
D03*
X1206500D02*
D03*
X1181100Y721360D02*
D03*
X1206500D02*
D03*
X1181100Y695960D02*
D03*
X1206500D02*
D03*
X1181100Y670560D02*
D03*
X1206500D02*
D03*
X1181100Y645160D02*
D03*
X1206500D02*
D03*
X693420Y815340D02*
D03*
X718820Y789940D02*
D03*
Y815340D02*
D03*
X744220Y789940D02*
D03*
Y815340D02*
D03*
X769620Y789940D02*
D03*
Y815340D02*
D03*
X795020Y789940D02*
D03*
Y815340D02*
D03*
X820420Y789940D02*
D03*
Y815340D02*
D03*
X845820Y789940D02*
D03*
Y815340D02*
D03*
X871220Y789940D02*
D03*
Y815340D02*
D03*
X116840D02*
D03*
X142240Y789940D02*
D03*
Y815340D02*
D03*
X167640Y789940D02*
D03*
Y815340D02*
D03*
X193040Y789940D02*
D03*
Y815340D02*
D03*
X218440Y789940D02*
D03*
Y815340D02*
D03*
X243840Y789940D02*
D03*
Y815340D02*
D03*
X269240Y789940D02*
D03*
Y815340D02*
D03*
X294640Y789940D02*
D03*
Y815340D02*
D03*
D104*
X680720Y381000D02*
D03*
X1163320Y251783D02*
D03*
X1181100Y822960D02*
D03*
D105*
X1084580Y237490D02*
D03*
X1097280D02*
D03*
X1084580Y224790D02*
D03*
X1097280D02*
D03*
X1084580Y212090D02*
D03*
X1097280D02*
D03*
X1084580Y199390D02*
D03*
X1097280D02*
D03*
X1084580Y186690D02*
D03*
X303530Y45720D02*
D03*
X201930Y48260D02*
D03*
D106*
X1097280Y186690D02*
D03*
D107*
X1267460Y175490D02*
D03*
Y110490D02*
D03*
X1222460Y175490D02*
D03*
Y110490D02*
D03*
D108*
X636270Y609600D02*
D03*
X693420Y789940D02*
D03*
X116840D02*
D03*
D109*
X86360Y378460D02*
D03*
Y549148D02*
D03*
X85852Y87884D02*
D03*
Y258572D02*
D03*
D110*
X107188Y501142D02*
D03*
Y426466D02*
D03*
X106680Y210566D02*
D03*
Y135890D02*
D03*
D111*
X306802Y367862D02*
D03*
X330200Y344170D02*
D03*
X333375Y367330D02*
D03*
X799204Y321684D02*
D03*
X802640Y342900D02*
D03*
X988115Y387440D02*
D03*
X762411Y56388D02*
D03*
X540417Y231140D02*
D03*
X287115Y461010D02*
D03*
X272344Y471320D02*
D03*
X688340Y102515D02*
D03*
X1055524Y703580D02*
D03*
X435610Y299720D02*
D03*
X728980Y476410D02*
D03*
X1184054Y482600D02*
D03*
X891540Y369570D02*
D03*
X716826Y510540D02*
D03*
X1203960Y482600D02*
D03*
X1040616Y583714D02*
D03*
X876424Y591820D02*
D03*
X515620Y781050D02*
D03*
X505733Y765810D02*
D03*
X527050Y650240D02*
D03*
X441550Y788670D02*
D03*
X464820Y391160D02*
D03*
X467360Y408940D02*
D03*
X500380Y647700D02*
D03*
X452120Y641350D02*
D03*
X1069340Y732790D02*
D03*
X487680Y793546D02*
D03*
X1040616Y756012D02*
D03*
X1034790Y773068D02*
D03*
X924560Y483870D02*
D03*
X816610Y508160D02*
D03*
X674370Y433070D02*
D03*
X873760Y382270D02*
D03*
X711200Y458470D02*
D03*
X969010Y388360D02*
D03*
X913130Y367030D02*
D03*
X927100Y381000D02*
D03*
X946150Y396240D02*
D03*
X944698Y436880D02*
D03*
X840740Y406400D02*
D03*
X855980Y391160D02*
D03*
X481660Y810260D02*
D03*
X521970Y365760D02*
D03*
X504190Y375920D02*
D03*
X530860Y440690D02*
D03*
X209550Y566420D02*
D03*
X693420Y292100D02*
D03*
X544830Y213360D02*
D03*
X436273Y79348D02*
D03*
X568960Y275590D02*
D03*
X586740Y309880D02*
D03*
X452120Y177800D02*
D03*
X468473Y172720D02*
D03*
X867410Y283210D02*
D03*
X1187812Y422910D02*
D03*
X982030Y317150D02*
D03*
X948620Y325560D02*
D03*
X989330Y483870D02*
D03*
X814070Y289560D02*
D03*
X1001080Y348900D02*
D03*
X1012510Y404780D02*
D03*
X1109619Y481330D02*
D03*
X982980Y116840D02*
D03*
X1081304Y313340D02*
D03*
X1079820Y287556D02*
D03*
X1061617Y277780D02*
D03*
X1124270Y294335D02*
D03*
X1129350Y313340D02*
D03*
X1103630Y462280D02*
D03*
X1160780Y436880D02*
D03*
X601980Y462280D02*
D03*
Y435610D02*
D03*
X572770D02*
D03*
X1137920Y615950D02*
D03*
X1114450Y636270D02*
D03*
X1137920D02*
D03*
X1114450Y615950D02*
D03*
X892810Y701700D02*
D03*
X872490Y725170D02*
D03*
Y701700D02*
D03*
X892810Y725170D02*
D03*
X646430Y60960D02*
D03*
X610870Y189230D02*
D03*
X300990Y224790D02*
D03*
X866140Y33020D02*
D03*
X770890Y128270D02*
D03*
X756920Y190500D02*
D03*
X842512Y91440D02*
D03*
X744161Y46690D02*
D03*
X782320Y66040D02*
D03*
X767080Y289560D02*
D03*
X574040Y41910D02*
D03*
X556260Y54610D02*
D03*
X578358Y90678D02*
D03*
X642620Y194310D02*
D03*
X386080Y463550D02*
D03*
X245110Y505714D02*
D03*
X343535Y612140D02*
D03*
X358140Y601980D02*
D03*
X590550Y518160D02*
D03*
X245110Y524510D02*
D03*
X399938Y477820D02*
D03*
X508000Y466090D02*
D03*
X391160Y514350D02*
D03*
X337820Y746760D02*
D03*
X317500Y723290D02*
D03*
Y746760D02*
D03*
X337820Y723290D02*
D03*
X403860Y227330D02*
D03*
X354330Y222250D02*
D03*
X396240Y273050D02*
D03*
X969330Y238410D02*
D03*
X975680Y275240D02*
D03*
D112*
X398780Y349296D02*
D03*
X392672Y359310D02*
D03*
X403530D02*
D03*
D113*
X702310Y24130D02*
D03*
X384810Y425147D02*
D03*
X416560Y414020D02*
D03*
X381762D02*
D03*
X411871Y424946D02*
D03*
M02*
