G04*
G04 #@! TF.GenerationSoftware,Altium Limited,Altium Designer,19.1.8 (144)*
G04*
G04 Layer_Physical_Order=1*
G04 Layer_Color=255*
%FSLAX25Y25*%
%MOIN*%
G70*
G01*
G75*
%ADD13C,0.01000*%
%ADD16C,0.00500*%
%ADD19R,0.07000X0.01600*%
%ADD20R,0.09685X0.09095*%
%ADD21R,0.07480X0.13268*%
%ADD22R,0.13268X0.07480*%
%ADD23R,0.05600X0.01300*%
%ADD24R,0.11800X0.12200*%
%ADD25R,0.05709X0.01000*%
%ADD26R,0.01000X0.05709*%
%ADD27R,0.03150X0.03150*%
%ADD28R,0.05709X0.04724*%
%ADD29R,0.05200X0.02200*%
%ADD30R,0.06300X0.10600*%
%ADD31R,0.04724X0.05709*%
%ADD32R,0.03150X0.03150*%
%ADD33R,0.06102X0.01181*%
%ADD34R,0.01181X0.06102*%
%ADD35R,0.03959X0.04724*%
%ADD36R,0.05433X0.04331*%
%ADD37R,0.04724X0.03959*%
%ADD38R,0.04331X0.05433*%
%ADD39R,0.05118X0.08268*%
%ADD40R,0.10600X0.06300*%
%ADD41R,0.13400X0.14400*%
%ADD46R,0.03347X0.01968*%
%ADD47R,0.03150X0.02362*%
%ADD48R,0.14764X0.17362*%
%ADD49R,0.05200X0.03700*%
%ADD50R,0.05000X0.13000*%
%ADD51R,0.14400X0.13400*%
%ADD52R,0.05906X0.02362*%
%ADD68R,0.16891X0.17591*%
%ADD71R,0.17591X0.16891*%
%ADD92C,0.06000*%
%ADD93C,0.02500*%
%ADD94R,0.02480X0.02559*%
%ADD95R,0.02559X0.02480*%
%ADD96C,0.02000*%
%ADD97C,0.01500*%
%ADD98C,0.03000*%
%ADD99C,0.07000*%
%ADD100C,0.04000*%
%ADD101O,0.08900X0.06000*%
%ADD102C,0.06000*%
%ADD103C,0.05906*%
%ADD104R,0.05906X0.05906*%
%ADD105C,0.04000*%
%ADD106R,0.04000X0.04000*%
%ADD107C,0.05898*%
%ADD108R,0.05906X0.05906*%
%ADD109C,0.15000*%
%ADD110O,0.26300X0.09900*%
%ADD111C,0.05000*%
%ADD112C,0.02500*%
%ADD113C,0.03000*%
G36*
X469823Y337998D02*
X470031Y337831D01*
X470031Y318000D01*
X466979D01*
X466162Y318338D01*
X465000Y318491D01*
X463838Y318338D01*
X463021Y318000D01*
X451500D01*
Y293000D01*
X451143Y292643D01*
X450305Y292083D01*
X449372Y291697D01*
X448383Y291500D01*
X447879Y291500D01*
X439000D01*
Y264621D01*
X439000Y264621D01*
X439000Y264117D01*
X438803Y263127D01*
X438417Y262195D01*
X437857Y261357D01*
X437500Y261000D01*
X422679Y246179D01*
X421982Y245482D01*
X420345Y244388D01*
X418525Y243634D01*
X416593Y243250D01*
X325500D01*
Y219575D01*
X321276D01*
Y219500D01*
X323850D01*
Y214500D01*
X321276D01*
Y214425D01*
X325500D01*
Y211500D01*
X325500Y211500D01*
X325382Y211215D01*
X305760Y211215D01*
Y211216D01*
Y216694D01*
X304898D01*
Y213715D01*
X299898D01*
Y216694D01*
X299035D01*
Y211216D01*
X295500D01*
Y253000D01*
X295500Y253000D01*
Y255000D01*
X211782D01*
X211452Y255376D01*
X211535Y256000D01*
X211397Y257044D01*
X210994Y258017D01*
X210353Y258853D01*
X209517Y259494D01*
X208544Y259897D01*
X207500Y260034D01*
X206456Y259897D01*
X205483Y259494D01*
X204647Y258853D01*
X204006Y258017D01*
X203603Y257044D01*
X203466Y256000D01*
X203548Y255376D01*
X203218Y255000D01*
X201034D01*
X200897Y256044D01*
X200494Y257017D01*
X199853Y257853D01*
X199017Y258494D01*
X198044Y258897D01*
X197000Y259034D01*
X195956Y258897D01*
X194983Y258494D01*
X194147Y257853D01*
X193506Y257017D01*
X193103Y256044D01*
X192965Y255000D01*
X181124D01*
X180853Y255353D01*
X180017Y255994D01*
X179044Y256397D01*
X178000Y256535D01*
X176956Y256397D01*
X175983Y255994D01*
X175147Y255353D01*
X174876Y255000D01*
X32855D01*
X32503Y255355D01*
X33000Y315000D01*
X41567D01*
X42047Y314953D01*
Y313500D01*
X46000D01*
Y311000D01*
X48500D01*
Y304577D01*
X49676Y303401D01*
Y294375D01*
X49647Y294353D01*
X49376Y294000D01*
X52500D01*
X55624D01*
X55480Y294188D01*
X55496Y294297D01*
X56027Y294473D01*
X61000Y289500D01*
Y275000D01*
X251500D01*
Y315000D01*
X268567D01*
X269047Y314953D01*
X269047Y314500D01*
Y313500D01*
X276953D01*
Y314953D01*
X277433Y315000D01*
X279000D01*
Y312979D01*
X278662Y312162D01*
X278509Y311000D01*
X278662Y309838D01*
X279000Y309021D01*
Y301602D01*
X278616Y300675D01*
X278461Y299500D01*
X278616Y298325D01*
X279000Y297398D01*
Y275000D01*
X325500D01*
Y264000D01*
X407494Y264000D01*
X407964Y264000D01*
X407964Y264000D01*
X407964Y264000D01*
X408938Y264024D01*
X410877Y264215D01*
X412787Y264595D01*
X414651Y265160D01*
X416451Y265905D01*
X418169Y266824D01*
X419789Y267906D01*
X421294Y269142D01*
X422000Y269814D01*
X422000Y284597D01*
X422044Y284603D01*
X423017Y285006D01*
X423853Y285647D01*
X424494Y286483D01*
X424897Y287456D01*
X425035Y288500D01*
X424897Y289544D01*
X424494Y290517D01*
X423853Y291353D01*
X423017Y291994D01*
X422044Y292397D01*
X422000Y292403D01*
Y293671D01*
X422000Y293671D01*
X422006Y293812D01*
X422325Y294163D01*
X422362D01*
Y296709D01*
X422473Y297077D01*
X423123Y298305D01*
X423997Y299386D01*
X425063Y300278D01*
X426280Y300948D01*
X427099Y301209D01*
X427325Y301116D01*
X428500Y300961D01*
X429675Y301116D01*
X430397Y301415D01*
X431709Y301049D01*
X432951Y300426D01*
X433500Y300000D01*
Y335586D01*
X433500Y335586D01*
X433500Y335586D01*
X433525Y336047D01*
X433631Y336582D01*
X433889Y337203D01*
X434262Y337762D01*
X434500Y338000D01*
X468793Y338000D01*
X468793Y338000D01*
X468793Y338000D01*
X468964Y337993D01*
X469303Y338038D01*
X469531Y338124D01*
X469823Y337998D01*
D02*
G37*
G36*
X379500Y303362D02*
Y300000D01*
Y294138D01*
Y292000D01*
X289000D01*
Y309021D01*
X289500Y309121D01*
X289547Y309007D01*
X290181Y308181D01*
X290500Y307936D01*
Y311000D01*
Y314064D01*
X290181Y313819D01*
X289547Y312993D01*
X289500Y312879D01*
X289000Y312979D01*
Y315715D01*
X379500D01*
Y303362D01*
D02*
G37*
G36*
X155306Y315500D02*
X158285D01*
Y313000D01*
X160785D01*
Y309638D01*
X161000D01*
Y308461D01*
X160784D01*
Y301130D01*
Y299500D01*
X117658D01*
X117427Y299846D01*
X117403Y300000D01*
X117534Y301000D01*
X117397Y302044D01*
X116994Y303017D01*
X116353Y303853D01*
X116000Y304124D01*
Y301000D01*
X111000D01*
Y304124D01*
X110647Y303853D01*
X110006Y303017D01*
X109603Y302044D01*
X109466Y301000D01*
X109597Y300000D01*
X109573Y299846D01*
X109342Y299500D01*
X62500D01*
Y308247D01*
X63000Y308417D01*
X63181Y308181D01*
X63500Y307936D01*
Y311000D01*
Y314064D01*
X63181Y313819D01*
X63000Y313583D01*
X62500Y313753D01*
Y316000D01*
X155306D01*
Y315500D01*
D02*
G37*
G36*
X160784Y294335D02*
X161000D01*
Y291362D01*
X155806D01*
Y290500D01*
X158785D01*
Y285500D01*
X155806D01*
Y284638D01*
X161000D01*
Y279500D01*
X120500Y279500D01*
Y298480D01*
X160784D01*
Y294335D01*
D02*
G37*
G36*
X379500Y276862D02*
X377856D01*
X377657Y277014D01*
X376988Y277291D01*
X376271Y277386D01*
X372134D01*
Y281768D01*
X367000D01*
Y277028D01*
X364500D01*
Y274528D01*
X356866D01*
Y272287D01*
X365428D01*
X365528Y272210D01*
X366197Y271933D01*
X366915Y271838D01*
X374021D01*
Y271000D01*
X339000Y271000D01*
Y290000D01*
X379500Y290000D01*
Y276862D01*
D02*
G37*
G36*
X176150Y243500D02*
X203500D01*
Y232831D01*
X203000Y232661D01*
X202853Y232853D01*
X202500Y233124D01*
Y230000D01*
X197500D01*
Y233124D01*
X197147Y232853D01*
X196506Y232017D01*
X196375Y231700D01*
X192745D01*
Y224000D01*
Y216300D01*
X198445D01*
Y225864D01*
X198861Y226142D01*
X198956Y226103D01*
X200000Y225965D01*
X201044Y226103D01*
X202017Y226506D01*
X202853Y227147D01*
X203000Y227339D01*
X203500Y227169D01*
Y202653D01*
X203038Y202462D01*
X203000Y202500D01*
X167000D01*
Y205704D01*
X171268D01*
Y210500D01*
Y215500D01*
Y220500D01*
Y225296D01*
X167000D01*
Y243500D01*
X169651D01*
X169666Y243484D01*
X169449Y242984D01*
X168303D01*
Y239016D01*
X168476D01*
Y241000D01*
X170976D01*
Y243451D01*
X171224Y243500D01*
X176150D01*
D01*
D02*
G37*
G36*
X292500Y211216D02*
X285260D01*
X284835Y211216D01*
X284812Y211357D01*
X281398D01*
X278035D01*
Y211215D01*
X278035Y210878D01*
X277603Y210715D01*
X268000D01*
Y233500D01*
X266500Y235000D01*
X256520D01*
Y237974D01*
X257020Y238073D01*
X257047Y238007D01*
X257681Y237181D01*
X258000Y236936D01*
Y240000D01*
Y243064D01*
X257681Y242819D01*
X257047Y241993D01*
X257020Y241927D01*
X256520Y242026D01*
Y247000D01*
X256500Y247098D01*
Y253000D01*
X292500D01*
Y211216D01*
D02*
G37*
G36*
X470031Y232274D02*
X468185D01*
Y237134D01*
X465945D01*
Y229500D01*
Y221866D01*
X468185D01*
Y226726D01*
X470031D01*
Y214784D01*
X469221D01*
Y214858D01*
X465859D01*
X462497D01*
Y214784D01*
X453532D01*
Y309500D01*
X470031D01*
Y232274D01*
D02*
G37*
G36*
X452500Y214500D02*
X443862D01*
Y219037D01*
X443000D01*
Y216058D01*
X438000D01*
Y219037D01*
X437138D01*
Y214500D01*
X433500D01*
X433500Y255000D01*
X452500D01*
X452500Y214500D01*
D02*
G37*
G36*
X266000Y190500D02*
X160670Y190500D01*
X160309Y190971D01*
X159473Y191612D01*
X158500Y192015D01*
X157456Y192153D01*
X156412Y192015D01*
X155438Y191612D01*
X154603Y190971D01*
X154242Y190500D01*
X147500D01*
Y192327D01*
X146200D01*
Y190677D01*
X141200D01*
Y192327D01*
X140000D01*
Y198638D01*
X145194D01*
Y199500D01*
X142215D01*
Y204500D01*
X145194D01*
Y205362D01*
X140000D01*
X140000Y227000D01*
X152500D01*
X153000Y226500D01*
Y225796D01*
X152554D01*
Y211245D01*
X152472Y210780D01*
X151972D01*
Y215220D01*
X151972Y215280D01*
Y215500D01*
X149732D01*
Y210780D01*
X147492D01*
Y210780D01*
X146992D01*
Y210500D01*
X146500D01*
Y198500D01*
X153738D01*
X154000Y198466D01*
X154262Y198500D01*
X258500D01*
X263500Y203500D01*
Y209500D01*
X262862D01*
Y209980D01*
X262756D01*
X262362Y210235D01*
Y210715D01*
X259000D01*
Y215715D01*
X262362D01*
Y216195D01*
X257500D01*
Y220200D01*
X258800D01*
Y226500D01*
Y232800D01*
X257500D01*
Y233500D01*
X266000D01*
X266000Y190500D01*
D02*
G37*
G36*
X255500Y216694D02*
X255138D01*
Y216461D01*
X254000D01*
Y213295D01*
X251500D01*
Y210795D01*
X247783D01*
Y210269D01*
X247287Y210173D01*
X246862Y210418D01*
Y210715D01*
X243500D01*
X240138D01*
Y210479D01*
X240138Y210235D01*
X239744Y209980D01*
X239638D01*
Y209500D01*
X221500D01*
Y246500D01*
X221462Y246538D01*
X221653Y247000D01*
X255500D01*
Y216694D01*
D02*
G37*
G36*
X91105Y193088D02*
X91258Y192858D01*
X91528Y192588D01*
X104663Y177087D01*
Y176500D01*
X107616D01*
X107642Y176473D01*
Y174000D01*
X110143D01*
Y170621D01*
X120693Y158170D01*
X135239Y153458D01*
Y150284D01*
X135905D01*
Y154000D01*
X140905D01*
Y150284D01*
X141535D01*
Y149784D01*
X146581D01*
X147527Y149477D01*
X147448Y148977D01*
X145300D01*
Y144677D01*
D01*
Y142118D01*
D01*
Y141800D01*
X140800D01*
Y141800D01*
X140300D01*
Y139422D01*
X135500Y138297D01*
X135500Y87762D01*
X135466Y87500D01*
X135500Y87238D01*
Y77362D01*
X130806D01*
Y76500D01*
X133785D01*
Y71500D01*
X130806D01*
Y70638D01*
X135500D01*
Y63500D01*
X97000D01*
X97000Y104000D01*
X62500Y138500D01*
X62500Y173500D01*
X55500Y180500D01*
X11000Y180500D01*
X11000Y224000D01*
X28529D01*
X28708Y223500D01*
X27605Y222595D01*
X26481Y221224D01*
X25645Y219661D01*
X25130Y217964D01*
X24957Y216200D01*
X25130Y214436D01*
X25645Y212739D01*
X26481Y211176D01*
X27605Y209805D01*
X28976Y208681D01*
X30539Y207845D01*
X32236Y207330D01*
X34000Y207156D01*
X35764Y207330D01*
X37461Y207845D01*
X39024Y208681D01*
X40395Y209805D01*
X41519Y211176D01*
X42355Y212739D01*
X42870Y214436D01*
X43044Y216200D01*
X42870Y217964D01*
X42355Y219661D01*
X41519Y221224D01*
X40395Y222595D01*
X39292Y223500D01*
X39471Y224000D01*
X64911D01*
X91105Y193088D01*
D02*
G37*
G36*
X138000Y205362D02*
D01*
Y202000D01*
X135500D01*
Y199500D01*
X132520D01*
Y198638D01*
X133206D01*
Y196000D01*
X122500D01*
Y217232D01*
X122716D01*
Y224563D01*
X122500D01*
Y225000D01*
X122216D01*
Y225193D01*
X118500D01*
X114784D01*
Y225000D01*
X113716D01*
Y225295D01*
X110000D01*
X106283D01*
Y225000D01*
X105217D01*
Y225591D01*
X101500D01*
X97783D01*
Y225000D01*
X96917D01*
Y225591D01*
X93200D01*
Y228091D01*
X90700D01*
Y231256D01*
X89483D01*
Y230385D01*
X87591D01*
X87387Y230344D01*
X87000Y230661D01*
Y233000D01*
X87500Y233500D01*
X138000D01*
Y205362D01*
D02*
G37*
G36*
X187993Y168143D02*
X187880Y162023D01*
X187410Y161914D01*
X187057Y162765D01*
X186500Y163491D01*
Y161000D01*
X184000D01*
Y158500D01*
X181509D01*
X182235Y157943D01*
X182251Y157936D01*
X182184Y157423D01*
X182086Y157410D01*
X181235Y157057D01*
X180509Y156500D01*
X185491D01*
X184765Y157057D01*
X184749Y157064D01*
X184816Y157577D01*
X184914Y157590D01*
X185765Y157943D01*
X186496Y158504D01*
X187057Y159235D01*
X187341Y159920D01*
X187839Y159816D01*
X187630Y148544D01*
X187276Y148193D01*
X187201Y148193D01*
Y145618D01*
X184701D01*
Y143118D01*
X182126D01*
Y143043D01*
X187029D01*
X187521Y142645D01*
X187500Y141500D01*
X186842Y140842D01*
X185974D01*
X185777Y140803D01*
X174300D01*
Y140080D01*
X173700D01*
Y141800D01*
X173200D01*
Y142118D01*
X168700D01*
Y147118D01*
D01*
Y148980D01*
X170500D01*
X170890Y149058D01*
X171221Y149279D01*
X171442Y149610D01*
X171456Y149677D01*
X172241D01*
Y151284D01*
X172398D01*
Y155000D01*
Y158716D01*
X172241D01*
Y160759D01*
X172500Y168500D01*
X187643D01*
X187993Y168143D01*
D02*
G37*
G36*
X293806Y153362D02*
Y152500D01*
X296785D01*
Y150000D01*
X299285D01*
Y146638D01*
X299500D01*
Y145217D01*
X299205D01*
Y141500D01*
Y137784D01*
X299500D01*
Y119756D01*
X262500D01*
X262462Y119718D01*
X262000Y119910D01*
Y153696D01*
X262060Y153756D01*
X264047D01*
Y152500D01*
X268000D01*
X271953D01*
Y153756D01*
X293550D01*
X293806Y153362D01*
D02*
G37*
G36*
X170500Y158716D02*
X164937D01*
Y157500D01*
X168102D01*
Y152500D01*
X164937D01*
Y151284D01*
X170500D01*
Y150000D01*
X165660D01*
X165000Y150660D01*
X164000Y149660D01*
Y149477D01*
X163700D01*
Y144877D01*
Y142318D01*
Y139759D01*
Y137200D01*
Y134641D01*
X164000D01*
Y134123D01*
X163700D01*
Y129523D01*
X164977D01*
X166500Y128000D01*
Y123707D01*
X166000Y123500D01*
X147500D01*
Y127500D01*
X149523Y129523D01*
X150300D01*
Y132082D01*
Y134641D01*
Y137200D01*
Y139759D01*
Y142318D01*
Y144877D01*
Y149477D01*
X149500D01*
X148977Y150000D01*
X148748D01*
X148365Y150284D01*
Y151500D01*
X145200D01*
Y154000D01*
X142700D01*
Y157717D01*
X142070D01*
Y158283D01*
X142700D01*
Y162000D01*
Y165717D01*
X142070D01*
Y166217D01*
X141500D01*
Y171500D01*
X170500D01*
Y158716D01*
D02*
G37*
G36*
X248500Y184482D02*
X248276Y184075D01*
X248201D01*
Y181500D01*
Y178925D01*
X248276D01*
X248500Y178518D01*
Y146250D01*
X248382Y145965D01*
X218500Y145965D01*
Y150033D01*
X218715D01*
Y153396D01*
Y156758D01*
X218500D01*
X218500Y187750D01*
X248500D01*
Y184482D01*
D02*
G37*
G36*
X319300Y167500D02*
Y138005D01*
X319280Y137998D01*
X318800Y137893D01*
X318017Y138494D01*
X317044Y138897D01*
X316000Y139034D01*
X314956Y138897D01*
X313983Y138494D01*
X313147Y137853D01*
X312506Y137017D01*
X312103Y136044D01*
X311965Y135000D01*
X312103Y133956D01*
X312506Y132983D01*
X313147Y132147D01*
X313983Y131506D01*
X314806Y131165D01*
X314675Y130678D01*
X314647Y130682D01*
X313603Y130544D01*
X312630Y130141D01*
X311794Y129500D01*
X311153Y128664D01*
X310750Y127691D01*
X310613Y126647D01*
X310750Y125603D01*
X311153Y124630D01*
X311794Y123794D01*
X312630Y123153D01*
X313603Y122750D01*
X314647Y122613D01*
X315664Y122747D01*
X318211Y120200D01*
Y117285D01*
X317647Y116853D01*
X317006Y116017D01*
X316603Y115044D01*
X316465Y114000D01*
X316603Y112956D01*
X317006Y111983D01*
X317647Y111147D01*
X318483Y110506D01*
X319300Y110168D01*
X319300Y30000D01*
X308262Y30000D01*
X308000Y30035D01*
X307738Y30000D01*
X305776D01*
X305579Y30039D01*
X288500D01*
Y30768D01*
X288000D01*
Y32827D01*
X286700D01*
Y31177D01*
X281700D01*
Y32827D01*
X280400D01*
X280000Y33069D01*
Y34735D01*
X280500Y35138D01*
X280715D01*
Y38500D01*
Y41862D01*
X280500D01*
X280235Y41862D01*
X280000Y42265D01*
X280000Y49000D01*
X280720D01*
Y47732D01*
X285500D01*
D01*
X290500D01*
D01*
X295220D01*
Y44992D01*
X295500D01*
Y43000D01*
X308000Y43000D01*
X308000Y162050D01*
X307480D01*
Y162362D01*
X300520D01*
X300520Y162362D01*
X300188Y162000D01*
X299878Y161862D01*
X299785D01*
Y158500D01*
X294785D01*
Y161862D01*
X294305D01*
Y156057D01*
X293806Y155850D01*
X293605Y156050D01*
X288800D01*
Y157500D01*
X282500D01*
X276200D01*
Y156050D01*
X274500D01*
X274500Y167500D01*
X319300Y167500D01*
D02*
G37*
G36*
X301250Y101000D02*
X301250Y77335D01*
X300750Y77166D01*
X300500Y77491D01*
Y75000D01*
X298000D01*
Y72500D01*
X295509D01*
X295902Y72198D01*
X295867Y71606D01*
X295721Y71508D01*
X295280D01*
Y71508D01*
X290721D01*
Y71508D01*
X290500D01*
Y69268D01*
X285500D01*
D01*
X280704D01*
Y67500D01*
X278796Y67500D01*
Y67714D01*
X264246D01*
X263779Y67796D01*
Y68296D01*
X268220D01*
X268280Y68296D01*
X268500D01*
Y70536D01*
D01*
X263780D01*
Y72776D01*
X263779D01*
Y73276D01*
X259108D01*
X257750Y74634D01*
X257750Y101000D01*
X301250Y101000D01*
D02*
G37*
G36*
X257044Y61791D02*
X257500Y61731D01*
X257508Y45492D01*
X271411D01*
X271511Y44992D01*
X271489Y44983D01*
X270862Y44502D01*
X270137Y43777D01*
X270086Y43770D01*
X269235Y43418D01*
X268509Y42860D01*
X271000D01*
Y37860D01*
X268509D01*
X269235Y37303D01*
X270086Y36950D01*
X271000Y36830D01*
X271914Y36950D01*
X272765Y37303D01*
X272974Y37464D01*
X273474Y37217D01*
Y35500D01*
X253000D01*
Y41437D01*
X253267D01*
Y48768D01*
X252766D01*
Y49398D01*
X249050D01*
Y51898D01*
X246550D01*
Y55063D01*
X245334D01*
Y54774D01*
X244216D01*
Y55268D01*
X243000D01*
Y52102D01*
X238000D01*
Y55268D01*
X236784D01*
Y54825D01*
X235216D01*
Y55165D01*
X234000D01*
Y52000D01*
X229000D01*
Y55165D01*
X227783D01*
Y54774D01*
X226217D01*
Y55165D01*
X225000D01*
Y52000D01*
X220000D01*
Y55165D01*
X218783D01*
X218500Y55548D01*
Y58500D01*
Y62000D01*
X256540D01*
X257044Y61791D01*
D02*
G37*
G36*
X135500Y54362D02*
X130306D01*
Y53500D01*
X133285D01*
Y48500D01*
X130306D01*
Y47638D01*
X135500D01*
Y25075D01*
X131776D01*
Y25000D01*
X134350D01*
Y20000D01*
X131776D01*
Y19925D01*
X135500D01*
Y15295D01*
X135000Y15262D01*
X134897Y16044D01*
X134494Y17017D01*
X133853Y17853D01*
X133500Y18124D01*
Y15000D01*
Y11876D01*
X133853Y12147D01*
X134494Y12983D01*
X134897Y13956D01*
X135000Y14738D01*
X135500Y14705D01*
Y8487D01*
X96735D01*
X96383Y8842D01*
X96880Y61487D01*
X135500D01*
Y54362D01*
D02*
G37*
G36*
X16676Y112500D02*
X16883Y112000D01*
X15039Y110156D01*
X14598Y109582D01*
X14321Y108913D01*
X14226Y108195D01*
Y99700D01*
X14321Y98982D01*
X14598Y98313D01*
X15039Y97739D01*
X27377Y85400D01*
X39500D01*
Y88879D01*
X33800D01*
X32634Y88764D01*
X32039Y88584D01*
X19774Y100849D01*
Y107046D01*
X21812Y109084D01*
X22253Y109658D01*
X22530Y110327D01*
X22624Y111045D01*
Y112500D01*
X76000Y112500D01*
X91000Y97500D01*
Y8841D01*
X90646Y8487D01*
X65000Y8500D01*
Y56500D01*
X58500Y63000D01*
X11000Y63000D01*
X11000Y112500D01*
X16676D01*
D02*
G37*
%LPC*%
G36*
X468953Y327953D02*
X467500D01*
Y326500D01*
X468953D01*
Y327953D01*
D02*
G37*
G36*
X462500D02*
X461047D01*
Y326500D01*
X462500D01*
Y327953D01*
D02*
G37*
G36*
X448000Y326124D02*
Y325500D01*
X448624D01*
X448353Y325853D01*
X448000Y326124D01*
D02*
G37*
G36*
X443000D02*
X442647Y325853D01*
X442376Y325500D01*
X443000D01*
Y326124D01*
D02*
G37*
G36*
X468953Y321500D02*
X467500D01*
Y320047D01*
X468953D01*
Y321500D01*
D02*
G37*
G36*
X462500D02*
X461047D01*
Y320047D01*
X462500D01*
Y321500D01*
D02*
G37*
G36*
X448624Y320500D02*
X448000D01*
Y319876D01*
X448353Y320147D01*
X448624Y320500D01*
D02*
G37*
G36*
X443000D02*
X442376D01*
X442647Y320147D01*
X443000Y319876D01*
Y320500D01*
D02*
G37*
G36*
X43500Y308500D02*
X42047D01*
Y307047D01*
X43500D01*
Y308500D01*
D02*
G37*
G36*
X276953D02*
X267462D01*
X267380Y308378D01*
X267206Y307500D01*
Y302782D01*
X266647Y302353D01*
X266376Y302000D01*
X272624D01*
X272353Y302353D01*
X271794Y302782D01*
Y306550D01*
X272292Y307047D01*
X276953D01*
Y308500D01*
D02*
G37*
G36*
X272624Y297000D02*
X272000D01*
Y296376D01*
X272353Y296647D01*
X272624Y297000D01*
D02*
G37*
G36*
X267000D02*
X266376D01*
X266647Y296647D01*
X267000Y296376D01*
Y297000D01*
D02*
G37*
G36*
X55624Y289000D02*
X55000D01*
Y288376D01*
X55353Y288647D01*
X55624Y289000D01*
D02*
G37*
G36*
X50000D02*
X49376D01*
X49647Y288647D01*
X50000Y288376D01*
Y289000D01*
D02*
G37*
G36*
X299972Y234134D02*
X297732D01*
Y229000D01*
X299972D01*
Y234134D01*
D02*
G37*
G36*
X314000Y227124D02*
Y226500D01*
X314624D01*
X314353Y226853D01*
X314000Y227124D01*
D02*
G37*
G36*
X314624Y221500D02*
X314000D01*
Y220876D01*
X314353Y221147D01*
X314624Y221500D01*
D02*
G37*
G36*
X307213Y234134D02*
X304972D01*
Y226500D01*
Y218866D01*
X307213D01*
Y222592D01*
X307713Y222691D01*
X308006Y221983D01*
X308647Y221147D01*
X309000Y220876D01*
Y224000D01*
Y227124D01*
X308647Y226853D01*
X308006Y226017D01*
X307713Y225309D01*
X307213Y225408D01*
Y234134D01*
D02*
G37*
G36*
X299972Y224000D02*
X297732D01*
Y218866D01*
X299972D01*
Y224000D01*
D02*
G37*
G36*
X345500Y314064D02*
Y313500D01*
X346064D01*
X345819Y313819D01*
X345500Y314064D01*
D02*
G37*
G36*
X340500D02*
X340181Y313819D01*
X339936Y313500D01*
X340500D01*
Y314064D01*
D02*
G37*
G36*
X335500D02*
Y313500D01*
X336064D01*
X335819Y313819D01*
X335500Y314064D01*
D02*
G37*
G36*
X330500D02*
X330181Y313819D01*
X329936Y313500D01*
X330500D01*
Y314064D01*
D02*
G37*
G36*
X325500D02*
Y313500D01*
X326064D01*
X325819Y313819D01*
X325500Y314064D01*
D02*
G37*
G36*
X320500D02*
X320181Y313819D01*
X319936Y313500D01*
X320500D01*
Y314064D01*
D02*
G37*
G36*
X315500D02*
Y313500D01*
X316064D01*
X315819Y313819D01*
X315500Y314064D01*
D02*
G37*
G36*
X310500D02*
X310181Y313819D01*
X309936Y313500D01*
X310500D01*
Y314064D01*
D02*
G37*
G36*
X305500D02*
Y313500D01*
X306064D01*
X305819Y313819D01*
X305500Y314064D01*
D02*
G37*
G36*
X300500D02*
X300181Y313819D01*
X299936Y313500D01*
X300500D01*
Y314064D01*
D02*
G37*
G36*
X295500D02*
Y313500D01*
X296064D01*
X295819Y313819D01*
X295500Y314064D01*
D02*
G37*
G36*
X346064Y308500D02*
X345500D01*
Y307936D01*
X345819Y308181D01*
X346064Y308500D01*
D02*
G37*
G36*
X340500D02*
X339936D01*
X340181Y308181D01*
X340500Y307936D01*
Y308500D01*
D02*
G37*
G36*
X336064D02*
X335500D01*
Y307936D01*
X335819Y308181D01*
X336064Y308500D01*
D02*
G37*
G36*
X330500D02*
X329936D01*
X330181Y308181D01*
X330500Y307936D01*
Y308500D01*
D02*
G37*
G36*
X326064D02*
X325500D01*
Y307936D01*
X325819Y308181D01*
X326064Y308500D01*
D02*
G37*
G36*
X320500D02*
X319936D01*
X320181Y308181D01*
X320500Y307936D01*
Y308500D01*
D02*
G37*
G36*
X316064D02*
X315500D01*
Y307936D01*
X315819Y308181D01*
X316064Y308500D01*
D02*
G37*
G36*
X310500D02*
X309936D01*
X310181Y308181D01*
X310500Y307936D01*
Y308500D01*
D02*
G37*
G36*
X306064D02*
X305500D01*
Y307936D01*
X305819Y308181D01*
X306064Y308500D01*
D02*
G37*
G36*
X300500D02*
X299936D01*
X300181Y308181D01*
X300500Y307936D01*
Y308500D01*
D02*
G37*
G36*
X296064D02*
X295500D01*
Y307936D01*
X295819Y308181D01*
X296064Y308500D01*
D02*
G37*
G36*
X322500Y302624D02*
Y302000D01*
X323124D01*
X322853Y302353D01*
X322500Y302624D01*
D02*
G37*
G36*
X317500D02*
X317147Y302353D01*
X316876Y302000D01*
X317500D01*
Y302624D01*
D02*
G37*
G36*
X374500Y303362D02*
X374021D01*
Y300560D01*
X372134D01*
Y302713D01*
X367000D01*
Y297972D01*
Y293232D01*
X372134D01*
Y296481D01*
X374500D01*
Y300000D01*
Y303362D01*
D02*
G37*
G36*
X362000Y302713D02*
X356866D01*
Y300472D01*
X362000D01*
Y302713D01*
D02*
G37*
G36*
X323124Y297000D02*
X322500D01*
Y296376D01*
X322853Y296647D01*
X323124Y297000D01*
D02*
G37*
G36*
X317500D02*
X316876D01*
X317147Y296647D01*
X317500Y296376D01*
Y297000D01*
D02*
G37*
G36*
X362000Y295472D02*
X356866D01*
Y293232D01*
X362000D01*
Y295472D01*
D02*
G37*
G36*
X118500Y314064D02*
Y313500D01*
X119064D01*
X118819Y313819D01*
X118500Y314064D01*
D02*
G37*
G36*
X113500D02*
X113181Y313819D01*
X112936Y313500D01*
X113500D01*
Y314064D01*
D02*
G37*
G36*
X108500D02*
Y313500D01*
X109064D01*
X108819Y313819D01*
X108500Y314064D01*
D02*
G37*
G36*
X103500D02*
X103181Y313819D01*
X102936Y313500D01*
X103500D01*
Y314064D01*
D02*
G37*
G36*
X98500D02*
Y313500D01*
X99064D01*
X98819Y313819D01*
X98500Y314064D01*
D02*
G37*
G36*
X93500D02*
X93181Y313819D01*
X92936Y313500D01*
X93500D01*
Y314064D01*
D02*
G37*
G36*
X88500D02*
Y313500D01*
X89064D01*
X88819Y313819D01*
X88500Y314064D01*
D02*
G37*
G36*
X83500D02*
X83181Y313819D01*
X82936Y313500D01*
X83500D01*
Y314064D01*
D02*
G37*
G36*
X78500D02*
Y313500D01*
X79064D01*
X78819Y313819D01*
X78500Y314064D01*
D02*
G37*
G36*
X73500D02*
X73181Y313819D01*
X72936Y313500D01*
X73500D01*
Y314064D01*
D02*
G37*
G36*
X68500D02*
Y313500D01*
X69064D01*
X68819Y313819D01*
X68500Y314064D01*
D02*
G37*
G36*
X153134Y315185D02*
X148000D01*
Y312945D01*
X153134D01*
Y315185D01*
D02*
G37*
G36*
X143000D02*
X137866D01*
Y312945D01*
X143000D01*
Y315185D01*
D02*
G37*
G36*
X155785Y310500D02*
X155306D01*
Y309638D01*
X155785D01*
Y310500D01*
D02*
G37*
G36*
X119064Y308500D02*
X118500D01*
Y307936D01*
X118819Y308181D01*
X119064Y308500D01*
D02*
G37*
G36*
X113500D02*
X112936D01*
X113181Y308181D01*
X113500Y307936D01*
Y308500D01*
D02*
G37*
G36*
X109064D02*
X108500D01*
Y307936D01*
X108819Y308181D01*
X109064Y308500D01*
D02*
G37*
G36*
X103500D02*
X102936D01*
X103181Y308181D01*
X103500Y307936D01*
Y308500D01*
D02*
G37*
G36*
X99064D02*
X98500D01*
Y307936D01*
X98819Y308181D01*
X99064Y308500D01*
D02*
G37*
G36*
X93500D02*
X92936D01*
X93181Y308181D01*
X93500Y307936D01*
Y308500D01*
D02*
G37*
G36*
X89064D02*
X88500D01*
Y307936D01*
X88819Y308181D01*
X89064Y308500D01*
D02*
G37*
G36*
X83500D02*
X82936D01*
X83181Y308181D01*
X83500Y307936D01*
Y308500D01*
D02*
G37*
G36*
X79064D02*
X78500D01*
Y307936D01*
X78819Y308181D01*
X79064Y308500D01*
D02*
G37*
G36*
X73500D02*
X72936D01*
X73181Y308181D01*
X73500Y307936D01*
Y308500D01*
D02*
G37*
G36*
X69064D02*
X68500D01*
Y307936D01*
X68819Y308181D01*
X69064Y308500D01*
D02*
G37*
G36*
X153134Y307945D02*
X148000D01*
Y305705D01*
X153134D01*
Y307945D01*
D02*
G37*
G36*
X143000D02*
X137866D01*
Y305705D01*
X143000D01*
Y307945D01*
D02*
G37*
G36*
X153134Y294240D02*
X148000D01*
Y292000D01*
X153134D01*
Y294240D01*
D02*
G37*
G36*
X143000D02*
X137866D01*
Y292000D01*
X143000D01*
Y294240D01*
D02*
G37*
G36*
X153134Y287000D02*
X148000D01*
Y284760D01*
X153134D01*
Y287000D01*
D02*
G37*
G36*
X143000D02*
X137866D01*
Y284760D01*
X143000D01*
Y287000D01*
D02*
G37*
G36*
X362000Y281768D02*
X356866D01*
Y279528D01*
X362000D01*
Y281768D01*
D02*
G37*
G36*
X187745Y231700D02*
X182045D01*
Y226500D01*
X187745D01*
Y231700D01*
D02*
G37*
G36*
Y221500D02*
X182045D01*
Y216300D01*
X187745D01*
Y221500D01*
D02*
G37*
G36*
X263000Y243064D02*
Y242500D01*
X263564D01*
X263319Y242819D01*
X263000Y243064D01*
D02*
G37*
G36*
X263564Y237500D02*
X263000D01*
Y236936D01*
X263319Y237181D01*
X263564Y237500D01*
D02*
G37*
G36*
X286268Y234134D02*
X284028D01*
Y229000D01*
X286268D01*
Y234134D01*
D02*
G37*
G36*
X279028D02*
X276787D01*
Y229000D01*
X279028D01*
Y234134D01*
D02*
G37*
G36*
X286268Y224000D02*
X284028D01*
Y218866D01*
X286268D01*
Y224000D01*
D02*
G37*
G36*
X279028D02*
X276787D01*
Y218866D01*
X279028D01*
Y224000D01*
D02*
G37*
G36*
X284760Y216837D02*
X283898D01*
Y216357D01*
X284760D01*
Y216837D01*
D02*
G37*
G36*
X278898D02*
X278035D01*
Y216357D01*
X278898D01*
Y216837D01*
D02*
G37*
G36*
X467500Y307064D02*
Y306500D01*
X468064D01*
X467819Y306819D01*
X467500Y307064D01*
D02*
G37*
G36*
X462500D02*
X462181Y306819D01*
X461936Y306500D01*
X462500D01*
Y307064D01*
D02*
G37*
G36*
X468064Y301500D02*
X467500D01*
Y300936D01*
X467819Y301181D01*
X468064Y301500D01*
D02*
G37*
G36*
X462500D02*
X461936D01*
X462181Y301181D01*
X462500Y300936D01*
Y301500D01*
D02*
G37*
G36*
X467500Y297064D02*
Y296500D01*
X468064D01*
X467819Y296819D01*
X467500Y297064D01*
D02*
G37*
G36*
X462500D02*
X462181Y296819D01*
X461936Y296500D01*
X462500D01*
Y297064D01*
D02*
G37*
G36*
X468064Y291500D02*
X467500D01*
Y290936D01*
X467819Y291181D01*
X468064Y291500D01*
D02*
G37*
G36*
X462500D02*
X461936D01*
X462181Y291181D01*
X462500Y290936D01*
Y291500D01*
D02*
G37*
G36*
X467500Y287064D02*
Y286500D01*
X468064D01*
X467819Y286819D01*
X467500Y287064D01*
D02*
G37*
G36*
X462500D02*
X462181Y286819D01*
X461936Y286500D01*
X462500D01*
Y287064D01*
D02*
G37*
G36*
X468064Y281500D02*
X467500D01*
Y280936D01*
X467819Y281181D01*
X468064Y281500D01*
D02*
G37*
G36*
X462500D02*
X461936D01*
X462181Y281181D01*
X462500Y280936D01*
Y281500D01*
D02*
G37*
G36*
X467500Y277064D02*
Y276500D01*
X468064D01*
X467819Y276819D01*
X467500Y277064D01*
D02*
G37*
G36*
X462500D02*
X462181Y276819D01*
X461936Y276500D01*
X462500D01*
Y277064D01*
D02*
G37*
G36*
X468064Y271500D02*
X467500D01*
Y270936D01*
X467819Y271181D01*
X468064Y271500D01*
D02*
G37*
G36*
X462500D02*
X461936D01*
X462181Y271181D01*
X462500Y270936D01*
Y271500D01*
D02*
G37*
G36*
X467500Y267064D02*
Y266500D01*
X468064D01*
X467819Y266819D01*
X467500Y267064D01*
D02*
G37*
G36*
X462500D02*
X462181Y266819D01*
X461936Y266500D01*
X462500D01*
Y267064D01*
D02*
G37*
G36*
X468064Y261500D02*
X467500D01*
Y260936D01*
X467819Y261181D01*
X468064Y261500D01*
D02*
G37*
G36*
X462500D02*
X461936D01*
X462181Y261181D01*
X462500Y260936D01*
Y261500D01*
D02*
G37*
G36*
X467500Y257064D02*
Y256500D01*
X468064D01*
X467819Y256819D01*
X467500Y257064D01*
D02*
G37*
G36*
X462500D02*
X462181Y256819D01*
X461936Y256500D01*
X462500D01*
Y257064D01*
D02*
G37*
G36*
X468064Y251500D02*
X467500D01*
Y250936D01*
X467819Y251181D01*
X468064Y251500D01*
D02*
G37*
G36*
X462500D02*
X461936D01*
X462181Y251181D01*
X462500Y250936D01*
Y251500D01*
D02*
G37*
G36*
X460945Y237134D02*
X458705D01*
Y232000D01*
X460945D01*
Y237134D01*
D02*
G37*
G36*
Y227000D02*
X458705D01*
Y221866D01*
X460945D01*
Y227000D01*
D02*
G37*
G36*
X469221Y220337D02*
X468359D01*
Y219858D01*
X469221D01*
Y220337D01*
D02*
G37*
G36*
X463359D02*
X462497D01*
Y219858D01*
X463359D01*
Y220337D01*
D02*
G37*
G36*
X447240Y237134D02*
X445000D01*
Y232000D01*
X447240D01*
Y237134D01*
D02*
G37*
G36*
X440000D02*
X437760D01*
Y232000D01*
X440000D01*
Y237134D01*
D02*
G37*
G36*
X447240Y227000D02*
X445000D01*
Y221866D01*
X447240D01*
Y227000D01*
D02*
G37*
G36*
X440000D02*
X437760D01*
Y221866D01*
X440000D01*
Y227000D01*
D02*
G37*
G36*
X265450Y232800D02*
X263800D01*
Y229000D01*
X265450D01*
Y232800D01*
D02*
G37*
G36*
Y224000D02*
X263800D01*
Y220200D01*
X265450D01*
Y224000D01*
D02*
G37*
G36*
X254453Y243953D02*
X253000D01*
Y242500D01*
X254453D01*
Y243953D01*
D02*
G37*
G36*
X248000D02*
X246547D01*
Y242500D01*
X248000D01*
Y243953D01*
D02*
G37*
G36*
X254453Y237500D02*
X253000D01*
Y236047D01*
X254453D01*
Y237500D01*
D02*
G37*
G36*
X248000D02*
X246547D01*
Y236047D01*
X248000D01*
Y237500D01*
D02*
G37*
G36*
X253650Y232800D02*
X252000D01*
Y229000D01*
X253650D01*
Y232800D01*
D02*
G37*
G36*
X247000D02*
X245350D01*
Y229000D01*
X247000D01*
Y232800D01*
D02*
G37*
G36*
X239946Y231700D02*
X234245D01*
Y226500D01*
X239946D01*
Y231700D01*
D02*
G37*
G36*
X229245D02*
X223546D01*
Y226500D01*
X229245D01*
Y231700D01*
D02*
G37*
G36*
X253650Y224000D02*
X252000D01*
Y220200D01*
X253650D01*
Y224000D01*
D02*
G37*
G36*
X247000D02*
X245350D01*
Y220200D01*
X247000D01*
Y224000D01*
D02*
G37*
G36*
X229245Y221500D02*
X223546D01*
Y216300D01*
X229245D01*
Y221500D01*
D02*
G37*
G36*
X249000Y216461D02*
X247783D01*
Y215795D01*
X249000D01*
Y216461D01*
D02*
G37*
G36*
X246000Y216195D02*
Y215715D01*
X246862D01*
Y216195D01*
X246000D01*
D02*
G37*
G36*
X239946Y221500D02*
X234245D01*
Y216300D01*
X239540D01*
X239632Y216300D01*
X239708Y216294D01*
X239977Y216232D01*
X240130Y215897D01*
X240138Y215802D01*
X240138Y215742D01*
Y215715D01*
X241000D01*
Y216195D01*
X240544D01*
X240451Y216195D01*
X240375Y216201D01*
X240107Y216263D01*
X239954Y216597D01*
X239946Y216693D01*
X239946Y216752D01*
Y221500D01*
D02*
G37*
G36*
X50400Y203279D02*
X44700D01*
Y199800D01*
X55810D01*
X55371Y200622D01*
X54628Y201528D01*
X53722Y202271D01*
X52688Y202824D01*
X51566Y203164D01*
X50400Y203279D01*
D02*
G37*
G36*
X39700D02*
X34000D01*
X32834Y203164D01*
X31712Y202824D01*
X30678Y202271D01*
X29772Y201528D01*
X29029Y200622D01*
X28590Y199800D01*
X39700D01*
Y203279D01*
D02*
G37*
G36*
X55810Y194800D02*
X44700D01*
Y191321D01*
X50400D01*
X51566Y191436D01*
X52688Y191776D01*
X53722Y192329D01*
X54628Y193072D01*
X55371Y193978D01*
X55810Y194800D01*
D02*
G37*
G36*
X39700D02*
X28590D01*
X29029Y193978D01*
X29772Y193072D01*
X30678Y192329D01*
X31712Y191776D01*
X32834Y191436D01*
X34000Y191321D01*
X39700D01*
Y194800D01*
D02*
G37*
G36*
X105142Y171500D02*
X104663D01*
Y170638D01*
X105142D01*
Y171500D01*
D02*
G37*
G36*
X106500Y86124D02*
Y85500D01*
X107124D01*
X106853Y85853D01*
X106500Y86124D01*
D02*
G37*
G36*
X101500D02*
X101147Y85853D01*
X100876Y85500D01*
X101500D01*
Y86124D01*
D02*
G37*
G36*
X107124Y80500D02*
X106500D01*
Y79876D01*
X106853Y80147D01*
X107124Y80500D01*
D02*
G37*
G36*
X101500D02*
X100876D01*
X101147Y80147D01*
X101500Y79876D01*
Y80500D01*
D02*
G37*
G36*
X121634Y78240D02*
X116500D01*
Y76000D01*
X121634D01*
Y78240D01*
D02*
G37*
G36*
X111500D02*
X106366D01*
Y76000D01*
X111500D01*
Y78240D01*
D02*
G37*
G36*
X121634Y71000D02*
X116500D01*
Y68760D01*
X121634D01*
Y71000D01*
D02*
G37*
G36*
X111500D02*
X106366D01*
Y68760D01*
X111500D01*
Y71000D01*
D02*
G37*
G36*
X105217Y231256D02*
X104000D01*
Y230591D01*
X105217D01*
Y231256D01*
D02*
G37*
G36*
X96917D02*
X95700D01*
Y230591D01*
X96917D01*
Y231256D01*
D02*
G37*
G36*
X99000D02*
X97783D01*
Y230591D01*
X99000D01*
Y231256D01*
D02*
G37*
G36*
X113716Y230961D02*
X112500D01*
Y230295D01*
X113716D01*
Y230961D01*
D02*
G37*
G36*
X107500D02*
X106283D01*
Y230295D01*
X107500D01*
Y230961D01*
D02*
G37*
G36*
X122216Y230858D02*
X121000D01*
Y230193D01*
X122216D01*
Y230858D01*
D02*
G37*
G36*
X116000D02*
X114784D01*
Y230193D01*
X116000D01*
Y230858D01*
D02*
G37*
G36*
X133000Y205362D02*
X132520D01*
Y204500D01*
X133000D01*
Y205362D01*
D02*
G37*
G36*
X178063Y158716D02*
X177398D01*
Y157500D01*
X178063D01*
Y158716D01*
D02*
G37*
G36*
Y152500D02*
X177398D01*
Y151284D01*
X178063D01*
Y152500D01*
D02*
G37*
G36*
X182201Y148193D02*
X182126D01*
Y148118D01*
X182201D01*
Y148193D01*
D02*
G37*
G36*
X288800Y152350D02*
X285000D01*
Y150700D01*
X288800D01*
Y152350D01*
D02*
G37*
G36*
X280000D02*
X276200D01*
Y150700D01*
X280000D01*
Y152350D01*
D02*
G37*
G36*
X294285Y147500D02*
X293806D01*
Y146638D01*
X294285D01*
Y147500D01*
D02*
G37*
G36*
X271953D02*
X270500D01*
Y146047D01*
X271953D01*
Y147500D01*
D02*
G37*
G36*
X265500D02*
X264047D01*
Y146047D01*
X265500D01*
Y147500D01*
D02*
G37*
G36*
X288800Y145700D02*
X285000D01*
Y144050D01*
X288800D01*
Y145700D01*
D02*
G37*
G36*
X280000D02*
X276200D01*
Y144050D01*
X280000D01*
Y145700D01*
D02*
G37*
G36*
X294205Y145217D02*
X293539D01*
Y144000D01*
X294205D01*
Y145217D01*
D02*
G37*
G36*
Y139000D02*
X293539D01*
Y137784D01*
X294205D01*
Y139000D01*
D02*
G37*
G36*
X289200Y138200D02*
X284000D01*
Y132500D01*
X289200D01*
Y138200D01*
D02*
G37*
G36*
X279000D02*
X273800D01*
Y132500D01*
X279000D01*
Y138200D01*
D02*
G37*
G36*
X289200Y127500D02*
X284000D01*
Y121800D01*
X289200D01*
Y127500D01*
D02*
G37*
G36*
X279000D02*
X273800D01*
Y121800D01*
X279000D01*
Y127500D01*
D02*
G37*
G36*
X149000Y167627D02*
X148951Y167380D01*
X149145Y166405D01*
X149485Y165897D01*
X149325Y165355D01*
X148865Y165048D01*
X148365Y165315D01*
Y165717D01*
X147700D01*
Y162000D01*
Y158283D01*
X148365D01*
Y160685D01*
X148865Y160952D01*
X149325Y160645D01*
X150300Y160451D01*
X150546Y160500D01*
X150300D01*
Y165500D01*
X151500D01*
Y167380D01*
X149000D01*
Y167627D01*
D02*
G37*
G36*
X148365Y157717D02*
X147700D01*
Y156500D01*
X148365D01*
Y157717D01*
D02*
G37*
G36*
X162843Y145047D02*
X159500D01*
Y142000D01*
X162843D01*
Y145047D01*
D02*
G37*
G36*
X154500D02*
X151157D01*
Y142000D01*
X154500D01*
Y145047D01*
D02*
G37*
G36*
X162843Y137000D02*
X159500D01*
Y133953D01*
X162843D01*
Y137000D01*
D02*
G37*
G36*
X154500D02*
X151157D01*
Y133953D01*
X154500D01*
Y137000D01*
D02*
G37*
G36*
X228500Y185124D02*
Y184500D01*
X229124D01*
X228853Y184853D01*
X228500Y185124D01*
D02*
G37*
G36*
X223500D02*
X223147Y184853D01*
X222876Y184500D01*
X223500D01*
Y185124D01*
D02*
G37*
G36*
X243201Y184075D02*
X243126D01*
Y184000D01*
X243201D01*
Y184075D01*
D02*
G37*
G36*
Y179000D02*
X243126D01*
Y178925D01*
X243201D01*
Y179000D01*
D02*
G37*
G36*
X229124Y179500D02*
X228500D01*
Y178876D01*
X228853Y179147D01*
X229124Y179500D01*
D02*
G37*
G36*
X223500D02*
X222876D01*
X223147Y179147D01*
X223500Y178876D01*
Y179500D01*
D02*
G37*
G36*
X232000Y157213D02*
X226866D01*
Y155708D01*
X224195D01*
Y156758D01*
X223715D01*
Y153396D01*
Y150033D01*
X224195D01*
Y150160D01*
X226866D01*
Y147732D01*
X232000D01*
Y152472D01*
Y157213D01*
D02*
G37*
G36*
X242134D02*
X237000D01*
Y154972D01*
X242134D01*
Y157213D01*
D02*
G37*
G36*
Y149972D02*
X237000D01*
Y147732D01*
X242134D01*
Y149972D01*
D02*
G37*
G36*
X288800Y164150D02*
X285000D01*
Y162500D01*
X288800D01*
Y164150D01*
D02*
G37*
G36*
X280000D02*
X276200D01*
Y162500D01*
X280000D01*
Y164150D01*
D02*
G37*
G36*
X285715Y41862D02*
Y41000D01*
X286194D01*
Y41862D01*
X285715D01*
D02*
G37*
G36*
X286194Y36000D02*
X285715D01*
Y35138D01*
X286194D01*
Y36000D01*
D02*
G37*
G36*
X289200Y96700D02*
X284000D01*
Y91000D01*
X289200D01*
Y96700D01*
D02*
G37*
G36*
X279000D02*
X273800D01*
Y91000D01*
X279000D01*
Y96700D01*
D02*
G37*
G36*
X289200Y86000D02*
X284000D01*
Y80300D01*
X289200D01*
Y86000D01*
D02*
G37*
G36*
X279000D02*
X273800D01*
Y80300D01*
X279000D01*
Y86000D01*
D02*
G37*
G36*
X252766Y55063D02*
X251550D01*
Y54398D01*
X252766D01*
Y55063D01*
D02*
G37*
G36*
X121634Y57295D02*
X116500D01*
Y55055D01*
X121634D01*
Y57295D01*
D02*
G37*
G36*
X111500D02*
X106366D01*
Y55055D01*
X111500D01*
Y57295D01*
D02*
G37*
G36*
X121634Y50055D02*
X116500D01*
Y47815D01*
X121634D01*
Y50055D01*
D02*
G37*
G36*
X111500D02*
X106366D01*
Y47815D01*
X111500D01*
Y50055D01*
D02*
G37*
G36*
X128500Y18124D02*
X128147Y17853D01*
X127876Y17500D01*
X128500D01*
Y18124D01*
D02*
G37*
G36*
Y12500D02*
X127876D01*
X128147Y12147D01*
X128500Y11876D01*
Y12500D01*
D02*
G37*
G36*
X33800Y110844D02*
X32036Y110670D01*
X30339Y110155D01*
X28776Y109319D01*
X27405Y108195D01*
X26281Y106824D01*
X25445Y105261D01*
X24930Y103564D01*
X24757Y101800D01*
X24930Y100036D01*
X25445Y98339D01*
X26281Y96776D01*
X27405Y95405D01*
X28776Y94281D01*
X30339Y93445D01*
X32036Y92930D01*
X33800Y92756D01*
X35564Y92930D01*
X37261Y93445D01*
X38824Y94281D01*
X40195Y95405D01*
X41319Y96776D01*
X42155Y98339D01*
X42670Y100036D01*
X42843Y101800D01*
X42670Y103564D01*
X42155Y105261D01*
X41319Y106824D01*
X40195Y108195D01*
X38824Y109319D01*
X37261Y110155D01*
X35564Y110670D01*
X33800Y110844D01*
D02*
G37*
G36*
X73000Y87624D02*
Y87000D01*
X73624D01*
X73353Y87353D01*
X73000Y87624D01*
D02*
G37*
G36*
X68000D02*
X67647Y87353D01*
X67376Y87000D01*
X68000D01*
Y87624D01*
D02*
G37*
G36*
X50200Y88879D02*
X44500D01*
Y85400D01*
X55610D01*
X55171Y86222D01*
X54428Y87128D01*
X53522Y87871D01*
X52488Y88424D01*
X51366Y88764D01*
X50200Y88879D01*
D02*
G37*
G36*
X73624Y82000D02*
X73000D01*
Y81376D01*
X73353Y81647D01*
X73624Y82000D01*
D02*
G37*
G36*
X68000D02*
X67376D01*
X67647Y81647D01*
X68000Y81376D01*
Y82000D01*
D02*
G37*
G36*
X55610Y80400D02*
X44500D01*
Y76921D01*
X50200D01*
X51366Y77036D01*
X52488Y77376D01*
X53522Y77929D01*
X54428Y78672D01*
X55171Y79578D01*
X55610Y80400D01*
D02*
G37*
G36*
X39500D02*
X28390D01*
X28829Y79578D01*
X29572Y78672D01*
X30478Y77929D01*
X31512Y77376D01*
X32634Y77036D01*
X33800Y76921D01*
X39500D01*
Y80400D01*
D02*
G37*
%LPD*%
D13*
X403000Y114873D02*
G03*
X404829Y110457I6245J0D01*
G01*
X407752Y122268D02*
G03*
X403000Y120299I0J-6721D01*
G01*
X437134Y155000D02*
G03*
X440320Y156320I0J4505D01*
G01*
X453532Y179611D02*
G03*
X456460Y172540I10000J0D01*
G01*
X443115Y163452D02*
G03*
X444000Y164450I-115J993D01*
G01*
X444000Y168358D02*
G03*
X441071Y175429I-10000J0D01*
G01*
X443115Y163452D02*
G03*
X438254Y161120I885J-8078D01*
G01*
X417959Y109362D02*
G03*
X417275Y111014I-2336J0D01*
G01*
X385780Y104370D02*
G03*
X384126Y108362I-5646J0D01*
G01*
X381626Y93862D02*
G03*
X383811Y99137I-5275J5275D01*
G01*
X471154Y190383D02*
X480142D01*
X359399Y119937D02*
X359683Y120221D01*
X403000Y114873D02*
Y120299D01*
X404829Y110457D02*
X409402D01*
X407752Y122268D02*
X409402D01*
X440320Y156320D02*
X446500Y162500D01*
X320250Y114250D02*
Y121044D01*
X314647Y126647D02*
X320250Y121044D01*
X389022Y152535D02*
X392488D01*
X294533Y22200D02*
X300162D01*
X293233Y23500D02*
X294533Y22200D01*
X301677Y26059D02*
X305536Y22200D01*
X312540D01*
X284200Y26059D02*
X301677D01*
X213525Y91000D02*
X223642Y101117D01*
X212763Y91000D02*
X213525D01*
X223642Y101117D02*
Y101500D01*
X109300Y177700D02*
X121118D01*
X92700Y194300D02*
X109300Y177700D01*
X121118D02*
X121300Y177882D01*
X117071Y181500D02*
X118061Y182491D01*
X113037Y181500D02*
X117071D01*
X118061Y182491D02*
X120791D01*
X121300Y183000D01*
X92700Y194300D02*
Y220795D01*
X415560Y277000D02*
Y281225D01*
X413845Y282941D02*
X415560Y281225D01*
X412016Y282941D02*
X413845D01*
X173000Y118000D02*
X176705Y114295D01*
X171500Y118000D02*
X173000D01*
X467737Y193800D02*
X471154Y190383D01*
X462363Y186200D02*
Y191574D01*
X460502Y184339D02*
X462363Y186200D01*
X464589Y193800D02*
X467737D01*
X462363Y191574D02*
X464589Y193800D01*
X466163Y188337D02*
Y190000D01*
Y188337D02*
X469122Y185378D01*
X240800Y27500D02*
X241400Y26900D01*
X248602Y16883D02*
X250900Y14584D01*
X252918Y9500D02*
X257851Y14433D01*
X222700Y9500D02*
X252918D01*
X215000Y17200D02*
X222700Y9500D01*
X258461Y17823D02*
X261241D01*
X257700Y17061D02*
X258461Y17823D01*
X257700Y14584D02*
Y17061D01*
Y14584D02*
X257851Y14433D01*
X283638Y201000D02*
X289755Y194883D01*
X282215Y201000D02*
X283638D01*
X289755Y194500D02*
Y194883D01*
X276500Y20000D02*
X278118Y18382D01*
X299642Y5000D02*
X308142Y13500D01*
X274723Y5000D02*
X299642D01*
X263900Y15823D02*
X274723Y5000D01*
X469122Y183479D02*
Y185378D01*
X467642Y182000D02*
X469122Y183479D01*
X202235Y308265D02*
X203000Y307500D01*
X202235Y308265D02*
Y309648D01*
X198025Y301500D02*
X199108D01*
X197057Y300532D02*
X198025Y301500D01*
X191161Y300532D02*
X197057D01*
X191161Y298563D02*
Y300532D01*
X173839Y310500D02*
Y316937D01*
X175504Y318602D01*
X176000D01*
X453532Y179611D02*
Y184339D01*
X434500Y182000D02*
X441071Y175429D01*
X456460Y172540D02*
X457000Y172000D01*
X444000Y164450D02*
Y168358D01*
X437134Y160000D02*
X438254Y161120D01*
X177672Y304468D02*
X183566Y298575D01*
X191150D01*
X400857Y304000D02*
X401000Y303857D01*
X393500Y304000D02*
X400857D01*
X467642Y181664D02*
Y182000D01*
X418117Y291383D02*
X421000Y288500D01*
X412016Y282941D02*
Y282972D01*
X411925Y283063D02*
X412016Y282972D01*
X409661Y283063D02*
X411925D01*
X459437Y184339D02*
X460502D01*
X480142Y190000D02*
Y190383D01*
X406632Y303592D02*
X407398Y304358D01*
X406632Y302392D02*
Y303592D01*
X401383Y297143D02*
X406632Y302392D01*
X401000Y297143D02*
X401383D01*
X409691Y297642D02*
X409883D01*
X409691D02*
Y298725D01*
X409883Y297642D02*
X413816Y293709D01*
X409691Y298725D02*
X411198Y300231D01*
Y310163D01*
X409718Y311643D02*
X411198Y310163D01*
X409500Y311643D02*
X409718D01*
X350992Y183874D02*
X357374D01*
X350500D02*
X350992D01*
X357374D02*
X364000Y190500D01*
X361000Y166215D02*
Y173866D01*
X350992Y183874D02*
X361000Y173866D01*
X330508Y200063D02*
X331000D01*
X321500D02*
X330508D01*
X259626Y164626D02*
X265500Y170500D01*
X254500Y164626D02*
X259626D01*
X349028Y150500D02*
X352828Y154300D01*
X344000Y150500D02*
X349028D01*
X280000Y180500D02*
X281082D01*
X282245Y181662D01*
X289833D01*
X293113Y178383D01*
Y178000D02*
Y178383D01*
X288692Y187563D02*
X296575D01*
X372500Y156000D02*
X377906Y150594D01*
Y145890D02*
Y150594D01*
X381500Y152898D02*
X381765Y152633D01*
Y145968D02*
Y152633D01*
X365000Y150000D02*
X365500D01*
X366000Y150500D01*
X370474Y150900D02*
X371133Y150241D01*
X370388Y150900D02*
X370474D01*
X367400Y153887D02*
X370388Y150900D01*
X367400Y153887D02*
Y153974D01*
X367074Y154300D02*
X367400Y153974D01*
X366000Y150500D02*
X370610Y145890D01*
X352828Y154300D02*
X367074D01*
X371133Y150241D02*
X373129D01*
X373890Y149479D01*
Y145968D02*
Y149479D01*
X377291Y156720D02*
X390789D01*
X373066Y160946D02*
X377291Y156720D01*
X362446Y160946D02*
X373066D01*
X361000Y159500D02*
X362446Y160946D01*
X395622Y145890D02*
Y151888D01*
X381765Y145968D02*
X381842Y145890D01*
X378500Y160000D02*
X389858D01*
X377500Y161000D02*
X378500Y160000D01*
X383811Y140789D02*
Y145890D01*
X199383Y312500D02*
X202235Y309648D01*
X199000Y312500D02*
X199383D01*
X191150Y298575D02*
X191161Y298563D01*
X185974Y138803D02*
X189303D01*
X184495Y137324D02*
X185974Y138803D01*
X184495Y136941D02*
Y137324D01*
X189303Y138803D02*
X198500Y148000D01*
X184495Y122405D02*
X205500Y143411D01*
Y144000D01*
X208500Y139847D02*
X213449Y144795D01*
X208500Y117347D02*
Y139847D01*
X200231Y109078D02*
X208500Y117347D01*
X118321Y185759D02*
X121100D01*
X115297Y188783D02*
X118321Y185759D01*
Y188318D02*
X121100D01*
X116285Y190354D02*
X118321Y188318D01*
X116285Y190354D02*
Y215266D01*
X190217Y104283D02*
X191500Y103000D01*
X190217Y104283D02*
Y105835D01*
X188551Y107500D02*
X190217Y105835D01*
X188000Y107500D02*
X188551D01*
X191500Y103000D02*
X201046D01*
X203109Y105063D01*
X214161D01*
X176705Y114295D02*
X188000D01*
X169500Y107500D02*
X188000D01*
X230015Y122000D02*
X231000D01*
X223398Y115383D02*
X230015Y122000D01*
X223398Y115000D02*
Y115383D01*
X224000Y108500D02*
X230643D01*
X165811Y74322D02*
Y74873D01*
X157997Y66508D02*
X165811Y74322D01*
X153682Y66508D02*
X157997D01*
X153642Y66469D02*
X153682Y66508D01*
X170965Y60563D02*
Y61610D01*
X369550Y138016D02*
X370255Y137310D01*
X364126Y138016D02*
X369550D01*
X369613Y132032D02*
X373472Y128173D01*
X364204Y132032D02*
X369613D01*
X370610Y145890D02*
X372000D01*
X392488Y152535D02*
X395544Y149479D01*
Y145968D02*
Y149479D01*
Y145968D02*
X395622Y145890D01*
X390789Y156720D02*
X395622Y151888D01*
X397965Y150737D02*
Y152535D01*
X397669Y150441D02*
X397965Y150737D01*
X397669Y145968D02*
Y150441D01*
X397590Y145890D02*
X397669Y145968D01*
X399559Y95525D02*
X399933Y95151D01*
X399559Y95525D02*
Y100614D01*
X395622Y95525D02*
X395996Y95151D01*
X395622Y95525D02*
Y100614D01*
X359683Y120221D02*
X364048D01*
X364126Y120299D01*
X359247Y131509D02*
Y132753D01*
Y131509D02*
X360536Y130220D01*
X364048D01*
X364126Y130142D01*
X373890Y145968D02*
X373969Y145890D01*
X377906D02*
X377983Y145812D01*
X184495Y122023D02*
Y122405D01*
X320250Y114250D02*
X320500Y114000D01*
X397590Y140827D02*
Y145890D01*
X394126Y137362D02*
X397590Y140827D01*
X436858Y186142D02*
Y189500D01*
Y186142D02*
X446500Y176500D01*
Y162500D02*
Y176500D01*
X418117Y291383D02*
Y297642D01*
X413631Y287078D02*
X416638Y290085D01*
X409739Y287078D02*
X413631D01*
X413816Y289808D02*
Y293709D01*
X413054Y289047D02*
X413816Y289808D01*
X409739Y289047D02*
X413054D01*
X416638Y290085D02*
Y296163D01*
X364126Y132110D02*
X364204Y132032D01*
X449000Y138500D02*
Y141102D01*
X446500Y136000D02*
X449000Y138500D01*
X439084Y136000D02*
X446500D01*
X426084Y123000D02*
X439084Y136000D01*
X449000Y141102D02*
X450398Y142500D01*
X424616Y122268D02*
X425710Y123362D01*
X438626Y119489D02*
X440753D01*
X444626Y123362D01*
X438499Y119362D02*
X438626Y119489D01*
X418963Y119362D02*
X438499D01*
X417932Y118331D02*
X418963Y119362D01*
X409402Y118331D02*
X417932D01*
X409402Y116362D02*
X418963D01*
X441544Y115880D02*
X442626D01*
X440413Y117011D02*
X441544Y115880D01*
X419612Y117011D02*
X440413D01*
X418963Y116362D02*
X419612Y117011D01*
X419660Y113211D02*
X425126D01*
X409402Y114394D02*
X418478D01*
X419660Y113211D01*
X442555Y116433D02*
X442626Y116362D01*
X425126Y113473D02*
X426086Y114433D01*
X425126Y113211D02*
Y113473D01*
X422500Y107000D02*
X434000D01*
X420000Y104500D02*
X422500Y107000D01*
X413402Y104500D02*
X420000D01*
X409776Y108126D02*
X413402Y104500D01*
X415864Y112425D02*
X417275Y111014D01*
X409402Y122268D02*
X424616D01*
X442626Y115880D02*
Y116362D01*
X409402Y112425D02*
X415864D01*
X361000Y321000D02*
X367500Y327500D01*
X343000Y321000D02*
X361000D01*
X474500Y198500D02*
Y199051D01*
X471035Y202517D02*
X474500Y199051D01*
X459528Y202517D02*
X471035D01*
X459437Y202426D02*
X459528Y202517D01*
X459437Y201661D02*
Y202426D01*
X455500Y184339D02*
X455578Y184261D01*
Y180369D02*
Y184261D01*
Y180369D02*
X458165Y177781D01*
X463744D01*
X467642Y173883D01*
Y173500D02*
Y173883D01*
X457469Y184339D02*
X457547Y184261D01*
Y180946D02*
Y184261D01*
Y180946D02*
X458308Y180184D01*
X466163D01*
X467642Y181664D01*
X457469Y201661D02*
X457547Y201584D01*
Y198269D02*
Y201584D01*
Y198269D02*
X458308Y197507D01*
X466712D01*
X467705Y198500D01*
X451563Y184339D02*
X453532D01*
Y191032D01*
X457469Y194968D01*
Y201661D01*
X455500Y207551D02*
X457969Y210020D01*
Y210571D01*
X455500Y201661D02*
Y207551D01*
X453532Y201661D02*
X455500D01*
X450602Y210000D02*
X451563Y209039D01*
Y201661D02*
Y209039D01*
X399031Y288968D02*
Y291673D01*
X395717Y294988D02*
X399031Y291673D01*
X395717Y294988D02*
Y295539D01*
X394051Y297205D02*
X395717Y295539D01*
X393500Y297205D02*
X394051D01*
X392949Y304000D02*
X393500D01*
X389483Y300535D02*
X392949Y304000D01*
X389483Y294501D02*
Y300535D01*
Y294501D02*
X389984Y294000D01*
Y291028D02*
Y294000D01*
Y291028D02*
X390075Y290937D01*
X392339D01*
X402969Y285032D02*
X409661D01*
X399031Y288968D02*
X402969Y285032D01*
X392339Y288968D02*
X399031D01*
X409661Y283063D02*
Y285032D01*
X416638Y296163D02*
X418117Y297642D01*
X409661Y287000D02*
X409739Y287078D01*
X409661Y288968D02*
X409739Y289047D01*
X407398Y290937D02*
X409661D01*
X407307Y291028D02*
X407398Y290937D01*
X407307Y291028D02*
Y291218D01*
X401383Y297143D02*
X407307Y291218D01*
X384461Y283063D02*
X392339D01*
X383715Y282317D02*
X384461Y283063D01*
X387949Y287000D02*
X392339D01*
X385051Y289898D02*
X387949Y287000D01*
X384500Y289898D02*
X385051D01*
X392339Y285032D02*
Y287000D01*
X383715Y300000D02*
X384500Y299215D01*
Y289898D02*
Y299215D01*
X383715Y273500D02*
Y282317D01*
X375520Y298520D02*
X377000Y300000D01*
X365048Y298520D02*
X375520D01*
X364500Y297972D02*
X365048Y298520D01*
X331698Y36000D02*
Y37082D01*
X333500Y38885D01*
Y45000D01*
X34000Y167900D02*
X42200D01*
X17500Y151400D02*
X34000Y167900D01*
X17500Y135500D02*
Y151400D01*
X59374Y118500D02*
Y118992D01*
X296575Y191500D02*
Y193468D01*
Y191500D02*
X296653Y191422D01*
X299968D01*
X300937Y190453D01*
Y179665D02*
Y190453D01*
Y179665D02*
X302602Y178000D01*
X313820Y187485D02*
X313898Y187563D01*
X310505Y187485D02*
X313820D01*
X304335Y181315D02*
X310505Y187485D01*
X304335Y180283D02*
Y181315D01*
X302602Y178551D02*
X304335Y180283D01*
X302602Y178000D02*
Y178551D01*
X318253Y187563D02*
X323449Y192760D01*
Y193004D01*
X330508Y200063D01*
X313898Y187563D02*
X318253D01*
X330150Y217000D02*
X331000Y216150D01*
Y207937D02*
Y216150D01*
X252000Y181500D02*
X254500Y179000D01*
Y172500D02*
Y179000D01*
X251638Y33362D02*
X255604D01*
X249050Y35950D02*
X251638Y33362D01*
X249050Y35950D02*
Y45102D01*
X250900Y29600D02*
X256820D01*
X244216Y36283D02*
X250900Y29600D01*
X244216Y36283D02*
Y38000D01*
X255604Y33362D02*
X257788Y31177D01*
X254500Y24000D02*
X261300D01*
X257815Y26059D02*
X261800D01*
X256074Y27800D02*
X257815Y26059D01*
X241432Y27800D02*
X256074D01*
X261300Y24000D02*
X261800Y23500D01*
X241015Y27383D02*
X241432Y27800D01*
X256820Y29600D02*
X257802Y28618D01*
X261800D01*
X257788Y31177D02*
X261800D01*
X239300Y27500D02*
X240800D01*
X253000Y76500D02*
X258964Y70536D01*
X261000D01*
X214161Y105063D02*
Y107032D01*
X223642Y101500D02*
Y101883D01*
X219859Y105667D02*
X223642Y101883D01*
X219859Y105667D02*
Y106618D01*
X217554Y108922D02*
X219859Y106618D01*
X214239Y108922D02*
X217554D01*
X214161Y109000D02*
X214239Y108922D01*
X223398Y109000D02*
Y109383D01*
X221812Y110968D02*
X223398Y109383D01*
X214161Y110968D02*
X221812D01*
X223398Y114617D02*
Y115000D01*
X221717Y112937D02*
X223398Y114617D01*
X214161Y112937D02*
X221717D01*
X192020Y110968D02*
X196839D01*
X188551Y107500D02*
X192020Y110968D01*
X188000Y114295D02*
X189358Y112937D01*
X196839D01*
Y107032D02*
Y109000D01*
X196916Y109078D02*
X200231D01*
X196839Y109000D02*
X196916Y109078D01*
X213449Y144795D02*
X214000D01*
X196916Y105141D02*
X200641D01*
X196839Y105063D02*
X196916Y105141D01*
X200641D02*
X214000Y118500D01*
Y138000D01*
X315357Y13000D02*
X341000D01*
X314858Y13500D02*
X315357Y13000D01*
X284200Y23500D02*
X293233D01*
X302735Y49735D02*
X303500Y50500D01*
X300042Y49735D02*
X302735D01*
X298039Y47732D02*
X300042Y49735D01*
X298000Y47732D02*
X298039D01*
X330857Y21500D02*
X331698Y22340D01*
Y29000D01*
X292438Y18382D02*
X292977D01*
X289879Y20941D02*
X292438Y18382D01*
X284200Y20941D02*
X289879D01*
X331698Y29000D02*
Y36000D01*
X284200Y15823D02*
X286300D01*
X287541Y14582D01*
X303044D01*
X308100Y19638D01*
X322663D01*
X324143Y21117D01*
Y21500D01*
X312540Y22200D02*
X317123Y26783D01*
X323237D01*
X324902Y28449D01*
Y29000D01*
X287597Y28000D02*
X305579D01*
X287539Y28059D02*
X287597Y28000D01*
X284759Y28059D02*
X287539D01*
X284200Y28618D02*
X284759Y28059D01*
X305579Y28000D02*
X307579Y26000D01*
X308000D01*
X261800Y15823D02*
X263900D01*
X244216Y38000D02*
Y39002D01*
X278118Y18382D02*
X284200D01*
X270441Y20941D02*
X273000Y23500D01*
X261800Y20941D02*
X270441D01*
X219000Y21500D02*
X226000D01*
X228183Y23683D01*
X215000Y25491D02*
X220284Y30774D01*
X215000Y17200D02*
Y25491D01*
X261241Y17823D02*
X261800Y18382D01*
X220284Y30774D02*
Y43539D01*
X221949Y45205D01*
X222500D01*
X228183Y23683D02*
X232415D01*
X227600Y31200D02*
X230700D01*
X227600D02*
Y35600D01*
X244215Y16883D02*
X248602D01*
X222500Y45205D02*
X223051D01*
X243115Y21845D02*
X244215Y20745D01*
X243115Y21845D02*
Y26783D01*
X244215Y16883D02*
Y20745D01*
X318052Y192340D02*
Y194907D01*
X317290Y191578D02*
X318052Y192340D01*
X316268Y191578D02*
X317290D01*
X316190Y191500D02*
X316268Y191578D01*
X313898Y191500D02*
X316190D01*
X312959Y200000D02*
X318052Y194907D01*
X298500Y200000D02*
X312959D01*
X288357Y206591D02*
Y207142D01*
X313545Y193559D02*
Y195956D01*
X311300Y198200D02*
X313545Y195956D01*
X296749Y198200D02*
X311300D01*
X313545Y193559D02*
X313635Y193468D01*
X313898D01*
X295295Y203205D02*
X298500Y200000D01*
X295295Y203205D02*
Y207000D01*
X288357Y206591D02*
X296749Y198200D01*
X164102Y175323D02*
X164705Y175925D01*
X143700Y175323D02*
X164102D01*
X171420Y176500D02*
Y177155D01*
X160451Y178500D02*
X162154Y180202D01*
X149626Y178500D02*
X160451D01*
X147885Y180241D02*
X149626Y178500D01*
X153900Y186300D02*
X155882Y184318D01*
X150411Y186300D02*
X153900D01*
X149670Y185559D02*
X150411Y186300D01*
X151500Y183000D02*
X152000Y182500D01*
X143700Y183000D02*
X151500D01*
X155882Y184318D02*
X164323D01*
X143700Y185559D02*
X149670D01*
X143700Y188118D02*
X157456D01*
X143900Y180241D02*
X147885D01*
X162154Y180202D02*
X168372D01*
X296575Y181845D02*
Y185594D01*
X293113Y178383D02*
X296575Y181845D01*
X296497Y189609D02*
X296575Y189532D01*
X293182Y189609D02*
X296497D01*
X292421Y190371D02*
X293182Y189609D01*
X292421Y190371D02*
Y191452D01*
X289755Y194117D02*
X292421Y191452D01*
X289755Y194117D02*
Y194500D01*
X313898Y183051D02*
Y185594D01*
X309398Y178551D02*
X313898Y183051D01*
X309398Y178000D02*
Y178551D01*
X313898Y185594D02*
X316161D01*
X295295Y207000D02*
X302398D01*
X313898Y189532D02*
X313976Y189453D01*
X313898Y189532D02*
Y191500D01*
X281398Y207142D02*
X288357D01*
X112385Y193385D02*
Y202800D01*
X110500Y191500D02*
X112385Y193385D01*
X107217Y214000D02*
X112385Y208832D01*
Y202800D02*
Y208832D01*
X118085Y191792D02*
Y220483D01*
Y191792D02*
X119200Y190677D01*
X118085Y220483D02*
X118500Y220898D01*
X164705Y175925D02*
Y176500D01*
X143700Y180441D02*
X143900Y180241D01*
X119200Y190677D02*
X121300D01*
X110000Y221000D02*
X110551D01*
X116285Y215266D01*
X121100Y188318D02*
X121300Y188118D01*
X96500Y206500D02*
X103785D01*
X92700Y220795D02*
X93200Y221295D01*
X115297Y188783D02*
Y188797D01*
X121100Y185759D02*
X121300Y185559D01*
X114455Y189638D02*
X115297Y188797D01*
X111979Y189638D02*
X114455D01*
X110500Y191117D02*
X111979Y189638D01*
X110500Y191117D02*
Y191500D01*
X168372Y180202D02*
X171420Y177155D01*
X164323Y184318D02*
X164705Y183936D01*
X173839Y304468D02*
X177672D01*
X406000Y160643D02*
X406357Y160285D01*
X417000D01*
X350500Y168299D02*
Y176000D01*
X348500Y166299D02*
X350500Y168299D01*
X348750Y159750D02*
X360750D01*
X379500Y169299D02*
Y177000D01*
X377500Y167299D02*
X379500Y169299D01*
X390500Y160000D02*
X397965Y152535D01*
X389858Y160000D02*
X390500D01*
X403074Y153500D02*
X413500D01*
X408937Y169879D02*
Y177000D01*
X406000Y166942D02*
X408937Y169879D01*
Y177000D02*
X409000D01*
X403000Y108488D02*
X409402D01*
X404829Y124236D02*
X409402D01*
X399887Y149998D02*
Y151050D01*
X402700Y153862D01*
X413500Y153500D02*
X417000Y157000D01*
Y160285D01*
X404300Y138016D02*
X409402D01*
X385780Y100614D02*
Y104370D01*
X432933Y140933D02*
X434500Y142500D01*
X353500Y138500D02*
X359247Y132753D01*
X427000Y165000D02*
X436567D01*
X385780Y99335D02*
Y100614D01*
X512500Y0D02*
G03*
X515500Y3000I0J3000D01*
G01*
Y338000D02*
G03*
X512000Y341000I-3250J-250D01*
G01*
X3000Y341000D02*
G03*
X0Y338000I0J-3000D01*
G01*
Y3000D02*
G03*
X3000Y0I3000J0D01*
G01*
X512500D01*
X515500Y3000D02*
Y335500D01*
Y338000D01*
X3000Y341000D02*
X512000D01*
X0Y3000D02*
Y338000D01*
D16*
X189630Y309239D02*
X191797Y307072D01*
X169760Y121442D02*
X169760D01*
X170341Y122023D01*
X168018Y119700D02*
X169760Y121442D01*
X173937Y128410D02*
X176265D01*
X166526Y121000D02*
X173937Y128410D01*
X147250Y121000D02*
X166526D01*
X146712Y119700D02*
X168018D01*
X140750Y127500D02*
X147250Y121000D01*
X139450Y126962D02*
X146712Y119700D01*
X170341Y122023D02*
X177780D01*
X176265Y128410D02*
X177995Y130140D01*
X283652Y187563D02*
X287000D01*
X282215Y189000D02*
X283652Y187563D01*
X193180Y325965D02*
X193500Y326285D01*
X193180Y314817D02*
Y325965D01*
X191644Y312063D02*
X196000Y307707D01*
X169704Y308308D02*
X171575Y306437D01*
X199000Y307377D02*
Y312500D01*
X192000Y312420D02*
Y313637D01*
X193180Y314817D01*
X338850Y155850D02*
X367716D01*
X337000Y154000D02*
X338850Y155850D01*
X279715Y186500D02*
X282215Y189000D01*
X191489Y302828D02*
X194451D01*
X199000Y307377D01*
X191489Y304797D02*
X194581D01*
X196000Y306216D01*
Y307707D01*
X375609Y145956D02*
Y149953D01*
X373771Y151791D02*
X375609Y149953D01*
X371116Y152450D02*
X371775Y151791D01*
X371030Y152450D02*
X371116D01*
X368950Y154530D02*
X371030Y152450D01*
X368950Y154530D02*
Y154616D01*
X367716Y155850D02*
X368950Y154616D01*
X371775Y151791D02*
X373771D01*
X375609Y145956D02*
X375871D01*
X375937Y145890D01*
X189114Y132635D02*
X204492Y148012D01*
X186439Y132635D02*
X189114D01*
X184710Y130905D02*
X186439Y132635D01*
X184710Y130523D02*
Y130905D01*
X189630Y318247D02*
Y319000D01*
X183883Y312500D02*
X189630Y318247D01*
X183500Y312500D02*
X183883D01*
X193500Y326285D02*
Y326785D01*
X204492Y148012D02*
Y150727D01*
X205530Y151766D02*
Y157360D01*
X204492Y150727D02*
X205530Y151766D01*
X209000Y169319D02*
Y173500D01*
X202118Y162437D02*
X209000Y169319D01*
X201626Y162437D02*
X202118D01*
X214500Y71986D02*
Y84000D01*
X204230Y158660D02*
X205530Y157360D01*
X204230Y158660D02*
Y160325D01*
X202118Y162437D02*
X204230Y160325D01*
X184438Y68000D02*
X191285D01*
X183221D02*
X184438D01*
X181670Y66450D02*
X183221Y68000D01*
X170984Y66450D02*
X181670D01*
X170965Y66469D02*
X170984Y66450D01*
X178000Y73250D02*
X179069Y74319D01*
X179344D01*
X182142Y77117D01*
Y77500D01*
X178000Y70000D02*
Y73250D01*
X179825Y77325D02*
X181968D01*
X182142Y77500D01*
X173570Y71070D02*
X179825Y77325D01*
X197102Y54588D02*
X214500Y71986D01*
X184438Y54588D02*
X197102D01*
X180350Y50500D02*
X184438Y54588D01*
X402700Y153862D02*
Y155289D01*
X398626Y159362D02*
X402700Y155289D01*
X467642Y167414D02*
Y173500D01*
X203014Y50112D02*
X205126Y48000D01*
X187037Y50112D02*
X203014D01*
X186650Y50500D02*
X187037Y50112D01*
X180142Y50708D02*
X180350Y50500D01*
X180142Y50708D02*
Y58000D01*
X171575Y306437D02*
X173839D01*
X191161D02*
X191797Y307072D01*
X191161Y302500D02*
X191489Y302828D01*
X191161Y304468D02*
X191489Y304797D01*
X187144Y309239D02*
X189630D01*
X183883Y312500D02*
X187144Y309239D01*
X167409Y304795D02*
X169704Y302500D01*
X165000Y304795D02*
X167409D01*
X173839Y300532D02*
Y302500D01*
X165563Y298563D02*
X173839D01*
X165000Y298000D02*
X165563Y298563D01*
X169704Y302500D02*
X173839D01*
X177995Y130140D02*
Y130523D01*
X168700Y136941D02*
X177780D01*
X139450Y126962D02*
Y133596D01*
X139527Y133673D01*
Y134589D01*
X141329Y136391D01*
X144750D01*
X145300Y136941D01*
X140750Y127500D02*
Y133058D01*
X141524Y133832D01*
X144750D01*
X145300Y134382D01*
X180142Y58000D02*
Y58383D01*
X174353Y64172D02*
X180142Y58383D01*
X171293Y64172D02*
X174353D01*
X170965Y64500D02*
X171293Y64172D01*
X173570Y68778D02*
Y71070D01*
X173229Y68437D02*
X173570Y68778D01*
X170965Y68437D02*
X173229D01*
X153642Y62532D02*
Y64500D01*
X149229D02*
X153642D01*
X148747Y64982D02*
X149229Y64500D01*
X146058Y64982D02*
X148747D01*
X144142Y66898D02*
X146058Y64982D01*
X144603Y60563D02*
X153642D01*
X144142Y60102D02*
X144603Y60563D01*
X399887Y146218D02*
Y149998D01*
X399559Y145890D02*
X399887Y146218D01*
X383811Y99137D02*
Y100614D01*
D19*
X168700Y131823D02*
D03*
Y134382D02*
D03*
Y136941D02*
D03*
Y139500D02*
D03*
Y142059D02*
D03*
Y144618D02*
D03*
Y147177D02*
D03*
X145300D02*
D03*
Y144618D02*
D03*
Y142059D02*
D03*
Y139500D02*
D03*
Y136941D02*
D03*
Y134382D02*
D03*
Y131823D02*
D03*
D20*
X157000Y139500D02*
D03*
D21*
X281528Y226500D02*
D03*
X302472D02*
D03*
X463445Y229500D02*
D03*
X442500D02*
D03*
D22*
X234500Y152472D02*
D03*
Y131528D02*
D03*
X114000Y52555D02*
D03*
Y73500D02*
D03*
X145500Y310445D02*
D03*
Y289500D02*
D03*
X364500Y277028D02*
D03*
Y297972D02*
D03*
D23*
X121300Y190677D02*
D03*
Y188118D02*
D03*
Y185559D02*
D03*
Y183000D02*
D03*
Y180441D02*
D03*
Y177882D02*
D03*
Y175323D02*
D03*
X143700Y175323D02*
D03*
Y177882D02*
D03*
Y180441D02*
D03*
Y183000D02*
D03*
Y185559D02*
D03*
Y188118D02*
D03*
Y190677D02*
D03*
X284200Y31177D02*
D03*
Y28618D02*
D03*
Y26059D02*
D03*
Y23500D02*
D03*
Y20941D02*
D03*
Y18382D02*
D03*
Y15823D02*
D03*
X261800Y15823D02*
D03*
Y18382D02*
D03*
Y20941D02*
D03*
Y23500D02*
D03*
Y26059D02*
D03*
Y28618D02*
D03*
Y31177D02*
D03*
D24*
X132500Y183000D02*
D03*
X273000Y23500D02*
D03*
D25*
X191161Y298563D02*
D03*
Y300532D02*
D03*
Y302500D02*
D03*
Y304468D02*
D03*
Y306437D02*
D03*
X173839D02*
D03*
Y304468D02*
D03*
Y302500D02*
D03*
Y300532D02*
D03*
Y298563D02*
D03*
X313898Y193468D02*
D03*
Y191500D02*
D03*
Y189532D02*
D03*
Y187563D02*
D03*
Y185594D02*
D03*
X296575D02*
D03*
Y187563D02*
D03*
Y189532D02*
D03*
Y191500D02*
D03*
Y193468D02*
D03*
X214161Y105063D02*
D03*
Y107032D02*
D03*
Y109000D02*
D03*
Y110968D02*
D03*
Y112937D02*
D03*
X196839D02*
D03*
Y110968D02*
D03*
Y109000D02*
D03*
Y107032D02*
D03*
Y105063D02*
D03*
X153642Y60563D02*
D03*
Y62532D02*
D03*
Y64500D02*
D03*
Y66469D02*
D03*
Y68437D02*
D03*
X170965D02*
D03*
Y66469D02*
D03*
Y64500D02*
D03*
Y62532D02*
D03*
Y60563D02*
D03*
X409661Y283063D02*
D03*
Y285032D02*
D03*
Y287000D02*
D03*
Y288968D02*
D03*
Y290937D02*
D03*
X392339D02*
D03*
Y288968D02*
D03*
Y287000D02*
D03*
Y285032D02*
D03*
Y283063D02*
D03*
D26*
X451563Y201661D02*
D03*
X453532D02*
D03*
X455500D02*
D03*
X457469D02*
D03*
X459437D02*
D03*
Y184339D02*
D03*
X457469D02*
D03*
X455500D02*
D03*
X453532D02*
D03*
X451563D02*
D03*
D27*
X245701Y181500D02*
D03*
X252000D02*
D03*
X140650Y22500D02*
D03*
X134350D02*
D03*
X186650Y50500D02*
D03*
X180350D02*
D03*
X191000Y145618D02*
D03*
X184701D02*
D03*
X330150Y217000D02*
D03*
X323850D02*
D03*
X26150Y117500D02*
D03*
X19850D02*
D03*
D28*
X254500Y172500D02*
D03*
Y164626D02*
D03*
X331000Y200063D02*
D03*
Y207937D02*
D03*
X350500Y183874D02*
D03*
Y176000D02*
D03*
X379500Y184874D02*
D03*
Y177000D02*
D03*
X201626Y162437D02*
D03*
Y154563D02*
D03*
X409000Y184874D02*
D03*
Y177000D02*
D03*
D29*
X112385Y202800D02*
D03*
X103785Y199100D02*
D03*
Y206500D02*
D03*
X232415Y31083D02*
D03*
Y23683D02*
D03*
X241015Y27383D02*
D03*
D30*
X261300Y226500D02*
D03*
X249500D02*
D03*
D31*
X163500Y22000D02*
D03*
X171374D02*
D03*
X213000Y48000D02*
D03*
X205126D02*
D03*
X59374Y118500D02*
D03*
X51500D02*
D03*
D32*
X406000Y160643D02*
D03*
Y166942D02*
D03*
X348500Y166299D02*
D03*
Y160000D02*
D03*
X377500Y167799D02*
D03*
Y161500D02*
D03*
D33*
X409402Y138016D02*
D03*
Y136047D02*
D03*
Y134079D02*
D03*
Y132110D02*
D03*
Y130142D02*
D03*
Y128173D02*
D03*
Y126205D02*
D03*
Y124236D02*
D03*
Y122268D02*
D03*
Y120299D02*
D03*
Y118331D02*
D03*
Y116362D02*
D03*
Y114394D02*
D03*
Y112425D02*
D03*
Y110457D02*
D03*
Y108488D02*
D03*
X364126D02*
D03*
Y110457D02*
D03*
Y112425D02*
D03*
Y114394D02*
D03*
Y116362D02*
D03*
Y118331D02*
D03*
Y120299D02*
D03*
Y122268D02*
D03*
Y124236D02*
D03*
Y126205D02*
D03*
Y128173D02*
D03*
Y130142D02*
D03*
Y132110D02*
D03*
Y134079D02*
D03*
Y136047D02*
D03*
Y138016D02*
D03*
D34*
X401528Y100614D02*
D03*
X399559D02*
D03*
X397590D02*
D03*
X395622D02*
D03*
X393653D02*
D03*
X391685D02*
D03*
X389717D02*
D03*
X387748D02*
D03*
X385780D02*
D03*
X383811D02*
D03*
X381842D02*
D03*
X379874D02*
D03*
X377906D02*
D03*
X375937D02*
D03*
X373969D02*
D03*
X372000D02*
D03*
Y145890D02*
D03*
X373969D02*
D03*
X375937D02*
D03*
X377906D02*
D03*
X379874D02*
D03*
X381842D02*
D03*
X383811D02*
D03*
X385780D02*
D03*
X387748D02*
D03*
X389717D02*
D03*
X391685D02*
D03*
X393653D02*
D03*
X395622D02*
D03*
X397590D02*
D03*
X399559D02*
D03*
X401528D02*
D03*
D35*
X346785Y138500D02*
D03*
X353500D02*
D03*
X427000Y59500D02*
D03*
X433715D02*
D03*
X283215Y38500D02*
D03*
X276500D02*
D03*
X142215Y202000D02*
D03*
X135500D02*
D03*
X304000Y158500D02*
D03*
X297285D02*
D03*
X303500Y150000D02*
D03*
X296785D02*
D03*
X230643Y108500D02*
D03*
X237357D02*
D03*
X223398Y115000D02*
D03*
X230113D02*
D03*
X230358Y101500D02*
D03*
X223642D02*
D03*
X221215Y153396D02*
D03*
X214500D02*
D03*
X222500Y129500D02*
D03*
X215785D02*
D03*
X237500Y16883D02*
D03*
X244215D02*
D03*
X324143Y21500D02*
D03*
X330857D02*
D03*
X308142Y13500D02*
D03*
X314858D02*
D03*
X279715Y186500D02*
D03*
X273000D02*
D03*
X293113Y178000D02*
D03*
X286398D02*
D03*
X283040Y194500D02*
D03*
X289755D02*
D03*
X164937Y176540D02*
D03*
X171652D02*
D03*
X114357Y174000D02*
D03*
X107642D02*
D03*
X103785Y191500D02*
D03*
X110500D02*
D03*
X467642Y182000D02*
D03*
X474358D02*
D03*
X480142Y190000D02*
D03*
X486858D02*
D03*
X474358Y173500D02*
D03*
X467642D02*
D03*
X377000Y300000D02*
D03*
X383715D02*
D03*
X377000Y273500D02*
D03*
X383715D02*
D03*
X158285Y313000D02*
D03*
X165000D02*
D03*
X158785Y288000D02*
D03*
X165500D02*
D03*
X177780Y122023D02*
D03*
X184495D02*
D03*
X177780Y136941D02*
D03*
X184495D02*
D03*
X177995Y130523D02*
D03*
X184710D02*
D03*
X133785Y74000D02*
D03*
X140500D02*
D03*
X133285Y51000D02*
D03*
X140000D02*
D03*
X186857Y58000D02*
D03*
X180142D02*
D03*
X182142Y77500D02*
D03*
X188857D02*
D03*
X191285Y68000D02*
D03*
X198000D02*
D03*
D36*
X445000Y77795D02*
D03*
Y71000D02*
D03*
X188000Y107500D02*
D03*
Y114295D02*
D03*
X214000Y138000D02*
D03*
Y144795D02*
D03*
X249050Y51898D02*
D03*
Y45102D02*
D03*
X222500Y52000D02*
D03*
Y45205D02*
D03*
X240500Y52102D02*
D03*
Y45307D02*
D03*
X231500Y52000D02*
D03*
Y45205D02*
D03*
X251500Y206500D02*
D03*
Y213295D02*
D03*
X118500Y227693D02*
D03*
Y220898D02*
D03*
X93200Y228091D02*
D03*
Y221295D02*
D03*
X101500Y228091D02*
D03*
Y221295D02*
D03*
X110000Y227795D02*
D03*
Y221000D02*
D03*
X393500Y297205D02*
D03*
Y304000D02*
D03*
X384500Y283102D02*
D03*
Y289898D02*
D03*
X176000Y318602D02*
D03*
Y325398D02*
D03*
X165000Y298000D02*
D03*
Y304795D02*
D03*
X144142Y60102D02*
D03*
Y66898D02*
D03*
D37*
X415000Y82000D02*
D03*
Y88715D02*
D03*
X469000Y112342D02*
D03*
Y105627D02*
D03*
X417000Y167000D02*
D03*
Y160285D02*
D03*
X389858Y166715D02*
D03*
Y160000D02*
D03*
X361000Y166215D02*
D03*
Y159500D02*
D03*
X468000Y67215D02*
D03*
Y60500D02*
D03*
X281398Y213858D02*
D03*
Y207142D02*
D03*
X302398Y213715D02*
D03*
Y207000D02*
D03*
X259000Y213215D02*
D03*
Y206500D02*
D03*
X243500D02*
D03*
Y213215D02*
D03*
X465859Y217357D02*
D03*
Y210643D02*
D03*
X440500Y216058D02*
D03*
Y209343D02*
D03*
X409500Y311643D02*
D03*
Y318357D02*
D03*
X401000Y297143D02*
D03*
Y303857D02*
D03*
X418500Y304358D02*
D03*
Y297642D02*
D03*
X193500Y325785D02*
D03*
Y332500D02*
D03*
X183500Y312500D02*
D03*
Y319215D02*
D03*
X199000D02*
D03*
Y312500D02*
D03*
D38*
X443602Y142500D02*
D03*
X450398D02*
D03*
X372000Y50500D02*
D03*
X378795D02*
D03*
X354795Y120000D02*
D03*
X348000D02*
D03*
X354898Y129500D02*
D03*
X348102D02*
D03*
X303500Y141500D02*
D03*
X296705D02*
D03*
X331698Y29000D02*
D03*
X324902D02*
D03*
X302602Y178000D02*
D03*
X309398D02*
D03*
X288500Y207000D02*
D03*
X295295D02*
D03*
X171732Y185559D02*
D03*
X164937D02*
D03*
X467705Y198500D02*
D03*
X474500D02*
D03*
X450602Y210000D02*
D03*
X457398D02*
D03*
X168102Y155000D02*
D03*
X174898D02*
D03*
X145200Y162000D02*
D03*
X138405D02*
D03*
X145200Y154000D02*
D03*
X138405D02*
D03*
X165938Y75000D02*
D03*
X159142D02*
D03*
D39*
X365500Y78110D02*
D03*
X385500D02*
D03*
Y60000D02*
D03*
X365500D02*
D03*
D40*
X282500Y148200D02*
D03*
Y160000D02*
D03*
D41*
X281500Y88500D02*
D03*
Y130000D02*
D03*
D46*
X170976Y231000D02*
D03*
Y246000D02*
D03*
Y236000D02*
D03*
Y241000D02*
D03*
D47*
X148043Y246000D02*
D03*
Y241000D02*
D03*
Y236000D02*
D03*
Y231000D02*
D03*
D48*
X157000Y238500D02*
D03*
D49*
X141550Y116550D02*
D03*
Y107500D02*
D03*
Y98450D02*
D03*
D50*
X169500Y107500D02*
D03*
D51*
X190245Y224000D02*
D03*
X231746D02*
D03*
D52*
X458000Y165000D02*
D03*
Y160000D02*
D03*
Y155000D02*
D03*
Y150000D02*
D03*
X437134D02*
D03*
Y155000D02*
D03*
Y160000D02*
D03*
Y165000D02*
D03*
D68*
X162500Y215500D02*
D03*
D71*
X268500Y57768D02*
D03*
X290500Y60500D02*
D03*
D92*
X172164Y144618D02*
G03*
X173200Y145047I0J1465D01*
G01*
X183000Y154000D02*
G03*
X181554Y153401I0J-2045D01*
G01*
X131250Y144618D02*
X145300D01*
X173200Y145047D02*
X181554Y153401D01*
X168700Y144618D02*
X172164D01*
D93*
X347500Y100642D02*
G03*
X350429Y93571I10000J0D01*
G01*
X372000Y50500D02*
G03*
X369879Y55621I-7243J0D01*
G01*
X354795Y120000D02*
G03*
X354000Y118080I1920J-1920D01*
G01*
X359399Y119937D02*
G03*
X359247Y120000I-152J-152D01*
G01*
X457000Y167414D02*
G03*
X458000Y165000I3414J0D01*
G01*
X348102Y129500D02*
G03*
X348000Y129253I247J-247D01*
G01*
X380772Y55272D02*
G03*
X378795Y50500I4772J-4772D01*
G01*
X503500Y277358D02*
G03*
X500571Y284429I-10000J0D01*
G01*
X503500Y161000D02*
G03*
X500388Y159711I0J-4401D01*
G01*
X350429Y93571D02*
X353500Y90500D01*
X347500Y100642D02*
Y105500D01*
X354000Y112000D02*
Y118080D01*
X365500Y60000D02*
X369879Y55621D01*
X354795Y120000D02*
Y129500D01*
Y120000D02*
X359247D01*
X157000Y139500D02*
X157295D01*
X162414Y134382D01*
X106744Y186037D02*
X107222Y185559D01*
X106744Y186037D02*
Y188015D01*
X104515Y190245D02*
X106744Y188015D01*
X104515Y190245D02*
Y190770D01*
X240457Y45250D02*
X244216Y42432D01*
X146108Y245931D02*
X148043D01*
X389022Y190022D02*
X389978D01*
X457000Y167414D02*
Y172000D01*
X457931Y164931D02*
X458000Y165000D01*
X348000Y120000D02*
Y129253D01*
X380772Y55272D02*
X382750Y57250D01*
X378795Y49949D02*
Y50500D01*
X171687Y30687D02*
X172000Y31000D01*
X171522Y31478D02*
X172000Y31000D01*
X489761Y137273D02*
X494799Y142311D01*
X489761Y98550D02*
Y137273D01*
Y98550D02*
X494811Y93500D01*
X474358Y173500D02*
Y182000D01*
X475061Y182704D01*
X480087D01*
X484360Y186977D01*
Y187120D01*
X486858Y189617D01*
Y190000D01*
X486128Y190729D02*
X486858Y190000D01*
X486128Y190729D02*
Y191255D01*
X480350Y197034D02*
X486128Y191255D01*
X475415Y197034D02*
X480350D01*
X474500Y197949D02*
X475415Y197034D01*
X474500Y197949D02*
Y198500D01*
X419071Y304929D02*
X427929D01*
X418500Y304358D02*
X419071Y304929D01*
X418296Y304561D02*
X418500Y304358D01*
X418296Y304561D02*
Y310087D01*
X412523Y315860D02*
X418296Y310087D01*
X412380Y315860D02*
X412523D01*
X409883Y318357D02*
X412380Y315860D01*
X409500Y318357D02*
X409883D01*
X408771Y317628D02*
X409500Y318357D01*
X408245Y317628D02*
X408771D01*
X401000Y310383D02*
X408245Y317628D01*
X401000Y303857D02*
Y310383D01*
X309398Y178000D02*
X309846Y177551D01*
X315949D01*
X316398Y177102D01*
X283040Y194117D02*
Y194500D01*
X282311Y193388D02*
X283040Y194117D01*
X279362Y193388D02*
X282311D01*
X275685Y189711D02*
X279362Y193388D01*
X275685Y189568D02*
Y189711D01*
X273000Y186883D02*
X275685Y189568D01*
X273000Y186500D02*
Y186883D01*
Y186500D02*
X273677Y185822D01*
Y180388D02*
Y185822D01*
Y180388D02*
X278115Y175950D01*
X281885D01*
X282822Y176888D01*
X285668D01*
X286398Y177617D01*
Y178000D01*
X283000Y322500D02*
X292500Y332000D01*
X353500Y138500D02*
X359500Y144500D01*
X370770Y137310D02*
X382740Y125340D01*
X370255Y137310D02*
X370770D01*
X382740Y125340D02*
X386148D01*
X386626Y124862D02*
Y137974D01*
X386148Y125340D02*
X386626Y124862D01*
X383811Y140789D02*
X386626Y137974D01*
X196445Y153396D02*
X200514D01*
X192650Y149600D02*
X196445Y153396D01*
X192650Y147268D02*
Y149600D01*
X191000Y145618D02*
X192650Y147268D01*
X230358Y93000D02*
Y101500D01*
Y101883D01*
X231087Y102612D01*
X231996D01*
X234860Y105477D01*
Y105620D01*
X237357Y108117D01*
Y108500D01*
X236628Y109230D02*
X237357Y108500D01*
X236628Y109230D02*
Y109755D01*
X232496Y113888D02*
X236628Y109755D01*
X230842Y113888D02*
X232496D01*
X230113Y114617D02*
X230842Y113888D01*
X230113Y114617D02*
Y115000D01*
X188857Y77500D02*
X189026D01*
X197271Y67270D02*
X198000Y68000D01*
X197271Y66745D02*
Y67270D01*
X193454Y62928D02*
X197271Y66745D01*
X191403Y62928D02*
X193454D01*
X186857Y58383D02*
X191403Y62928D01*
X186857Y58000D02*
Y58383D01*
X197271Y68730D02*
X198000Y68000D01*
X197271Y68730D02*
Y69255D01*
X189026Y77500D02*
X197271Y69255D01*
X188128Y78229D02*
X188857Y77500D01*
X188128Y78229D02*
Y78755D01*
X183883Y83000D02*
X188128Y78755D01*
X176000Y83000D02*
X183883D01*
X166157D02*
X176000D01*
X161723Y78566D02*
X166157Y83000D01*
X248948Y52000D02*
X249050Y51898D01*
X240602Y52000D02*
X248948D01*
X240500Y52102D02*
X240602Y52000D01*
X240449Y52051D02*
X240500Y52102D01*
X231551Y52051D02*
X240449D01*
X231500Y52000D02*
X231551Y52051D01*
X222500Y52000D02*
X231500D01*
X221949D02*
X222500D01*
X219369Y49420D02*
X221949Y52000D01*
X214112Y49420D02*
X219369D01*
X213000Y48308D02*
X214112Y49420D01*
X213000Y48000D02*
Y48308D01*
X172000Y31000D02*
X196492D01*
X213000Y47508D01*
Y48000D01*
X171522Y31478D02*
Y60007D01*
X170965Y60563D02*
X171522Y60007D01*
X171687Y22313D02*
Y30687D01*
X171374Y22000D02*
X171687Y22313D01*
X345919Y115919D02*
Y117368D01*
X348000Y119449D01*
Y120000D01*
X341500Y111500D02*
X345919Y115919D01*
X386626Y124862D02*
X387252Y124236D01*
X409000Y184874D02*
X409492D01*
X417000Y177366D01*
Y167000D02*
Y177366D01*
X389978Y190022D02*
X395126Y184874D01*
X409000D01*
X389022Y167445D02*
X389751Y166715D01*
X389858D01*
X389022Y167445D02*
Y190022D01*
X385140D02*
X389022D01*
X379992Y184874D02*
X385140Y190022D01*
X379500Y184874D02*
X379992D01*
X386522Y46478D02*
X387000Y46000D01*
X382266Y46478D02*
X386522D01*
X378795Y49949D02*
X382266Y46478D01*
X353500Y90500D02*
X354685D01*
X365500Y79685D01*
Y78110D02*
Y79685D01*
X499000Y286000D02*
X500571Y284429D01*
X503500Y161000D02*
Y277358D01*
X494799Y154122D02*
X500388Y159711D01*
X292500Y332000D02*
X293500Y331000D01*
X283000Y321000D02*
Y322500D01*
X474000Y229500D02*
X485000Y218500D01*
X463445Y229500D02*
X474000D01*
X474500Y199051D02*
X484949Y209500D01*
X474429Y198980D02*
X474500Y199051D01*
X484949Y209500D02*
X494500D01*
X441500Y228500D02*
X442500Y229500D01*
X440500Y210000D02*
X450602D01*
X457969Y210571D02*
X466929D01*
X464348Y253348D02*
X465000Y254000D01*
X283000Y299500D02*
Y311000D01*
Y331250D02*
Y331500D01*
X273000Y321250D02*
X283000Y331250D01*
X273000Y321000D02*
Y321250D01*
X427929Y304929D02*
X428500Y305500D01*
X377000Y273500D02*
Y273883D01*
X376271Y274612D02*
X377000Y273883D01*
X366915Y274612D02*
X376271D01*
X364500Y277028D02*
X366915Y274612D01*
X37000Y234500D02*
X43550Y227950D01*
Y198650D02*
Y227950D01*
X42200Y197300D02*
X43550Y198650D01*
X59374Y118992D02*
Y120992D01*
X50825Y117825D02*
X51500Y118500D01*
X26474Y117825D02*
X50825D01*
X26150Y117500D02*
X26474Y117825D01*
X17000Y99700D02*
Y108195D01*
Y99700D02*
X33800Y82900D01*
X42000D01*
X17000Y108195D02*
X19850Y111045D01*
Y117500D01*
X240457Y45250D02*
X240457Y45250D01*
X240449Y45256D02*
X240457Y45250D01*
X233486Y130514D02*
X234500Y131528D01*
X223230Y130514D02*
X233486D01*
X222500Y129784D02*
X223230Y130514D01*
X222500Y129500D02*
Y129784D01*
X214000Y144795D02*
X214250Y145045D01*
Y153146D01*
X214500Y153396D01*
X221215D02*
X221676Y152934D01*
X234038D01*
X234500Y152472D01*
X226000Y16500D02*
X226191Y16691D01*
X237309D01*
X237500Y16883D01*
X244216Y39002D02*
Y42432D01*
X231551Y45256D02*
X240449D01*
X231500Y45205D02*
X231551Y45256D01*
X237500Y16500D02*
Y16883D01*
X171718Y183718D02*
X199782D01*
X171460Y176540D02*
Y183896D01*
X143719Y243542D02*
X146108Y245931D01*
X143719Y240395D02*
Y243542D01*
X141000Y237000D02*
X147000Y231000D01*
X148043D01*
X141000Y237000D02*
X141676D01*
X142676Y236000D01*
X148043D01*
X141676Y237000D02*
X145608Y240931D01*
X147974D01*
X148043Y241000D01*
X141000Y237677D02*
X143719Y240395D01*
X141000Y237000D02*
Y237677D01*
X315451Y177102D02*
X316398D01*
X311582Y173233D02*
X315451Y177102D01*
X290638Y173233D02*
X311582D01*
X288895Y174977D02*
X290638Y173233D01*
X288895Y174977D02*
Y175120D01*
X286398Y177617D02*
X288895Y175120D01*
X286398Y178000D02*
Y178383D01*
X100949Y221295D02*
X101500D01*
X98453Y218800D02*
X100949Y221295D01*
X98453Y214170D02*
Y218800D01*
X97783Y213500D02*
X98453Y214170D01*
X232500Y204000D02*
X233176D01*
X235677Y206500D01*
X243500D01*
X251500D01*
X259000D01*
X109852Y221148D02*
X110000Y221000D01*
X101648Y221148D02*
X109852D01*
X101500Y221295D02*
X101648Y221148D01*
X103785Y191500D02*
X104515Y190770D01*
X171420Y176500D02*
X171460Y176540D01*
Y183896D02*
X171500Y183936D01*
X199782Y183718D02*
X200000Y183500D01*
X171500Y183936D02*
X171718Y183718D01*
X56000Y321000D02*
X58500D01*
X46000Y311000D02*
X52450Y304550D01*
Y291550D02*
Y304550D01*
Y291550D02*
X52500Y291500D01*
X56000Y310079D02*
Y311000D01*
Y310079D02*
X57500Y308578D01*
Y300500D02*
Y308578D01*
X46000Y321000D02*
Y321250D01*
X36000Y331250D02*
X46000Y321250D01*
X36000Y331250D02*
Y331500D01*
X58500Y321000D02*
X70000Y332500D01*
X208785Y319215D02*
X209000Y319000D01*
X165250Y288250D02*
X165500Y288000D01*
X165250Y288250D02*
Y297750D01*
X165000Y298000D02*
X165250Y297750D01*
X165000Y304795D02*
Y313000D01*
X145500Y310445D02*
X146943Y311888D01*
X145500Y289500D02*
X146250Y288750D01*
X201626Y154508D02*
Y155000D01*
X200514Y153396D02*
X201626Y154508D01*
X174898Y154449D02*
Y155000D01*
X138405Y154000D02*
Y162000D01*
Y154000D02*
X139320Y153085D01*
Y151357D02*
Y153085D01*
Y151357D02*
X143500Y147177D01*
X173982Y154085D02*
X174898Y155000D01*
X133785Y74000D02*
Y109535D01*
X140800Y116550D01*
X141550D01*
Y89550D02*
Y98450D01*
X139500Y87500D02*
X141550Y89550D01*
X151250Y89500D02*
X159000D01*
X142300Y98450D02*
X151250Y89500D01*
X141550Y98450D02*
X142300D01*
X141550Y107500D02*
X156000D01*
X161723Y78131D02*
Y78566D01*
X159142Y75551D02*
X161723Y78131D01*
X159142Y75000D02*
Y75551D01*
X156000Y107500D02*
X169500D01*
X49150Y131216D02*
X59374Y120992D01*
X49150Y131216D02*
Y164482D01*
X45732Y167900D02*
X49150Y164482D01*
X42200Y167900D02*
X45732D01*
X159142Y74449D02*
Y75000D01*
X154315Y69621D02*
X159142Y74449D01*
X154315Y69109D02*
Y69621D01*
X144617Y67372D02*
Y69500D01*
X144142Y66898D02*
X144617Y67372D01*
X140500Y73617D02*
X144617Y69500D01*
X140500Y73617D02*
Y74000D01*
X144142Y55525D02*
Y60102D01*
X140000Y51383D02*
X144142Y55525D01*
X140000Y51000D02*
Y51383D01*
X163250Y22250D02*
X163500Y22000D01*
X140900Y22250D02*
X163250D01*
X140650Y22500D02*
X140900Y22250D01*
X348500Y160000D02*
X348750Y159750D01*
X360750D02*
X361000Y159500D01*
X387252Y124236D02*
X403000Y108488D01*
X404829Y124236D02*
X404829Y124236D01*
X387252Y124236D02*
X404829D01*
X432000Y78500D02*
X432287Y78213D01*
X444582D01*
X445000Y77795D01*
X433715Y71785D02*
X434500Y71000D01*
X432000Y73500D02*
X433715Y71785D01*
X434500Y71000D02*
X445000D01*
X458000Y99127D02*
X476816D01*
X483000Y105311D01*
X469000Y105627D02*
X469158Y105469D01*
X482842D01*
X483000Y105311D01*
X416821Y167179D02*
X417000Y167000D01*
X402200Y140117D02*
Y145890D01*
Y140117D02*
X404300Y138016D01*
X346785Y132388D02*
Y138500D01*
X347187Y130415D02*
X348102Y129500D01*
X347187Y130415D02*
Y131986D01*
X346785Y132388D02*
X347187Y131986D01*
X399933Y95151D02*
X410398Y84685D01*
X411932D01*
X414617Y82000D01*
X415000D01*
X439822Y60500D02*
X468000D01*
X438357Y59035D02*
X439822Y60500D01*
X377185Y88000D02*
X385500Y79685D01*
Y78110D02*
Y79685D01*
X368000Y88000D02*
X377185D01*
X395996Y90181D02*
Y95151D01*
X385500Y79685D02*
X395996Y90181D01*
X365500Y60000D02*
Y78110D01*
X455898Y164931D02*
X457931D01*
X443602Y152635D02*
X455898Y164931D01*
X443602Y142500D02*
Y152635D01*
X450398Y142500D02*
X451313Y143415D01*
Y144947D01*
X456366Y150000D01*
X458000D01*
X481000Y148000D02*
X488677D01*
X474000Y155000D02*
X481000Y148000D01*
X458000Y155000D02*
X474000D01*
X477110Y160000D02*
X482988Y154122D01*
X458000Y160000D02*
X477110D01*
X488677Y148000D02*
X494799Y154122D01*
X460500Y115627D02*
Y115706D01*
X458000Y118206D02*
X460500Y115706D01*
X458000Y118206D02*
Y119127D01*
X460500Y115627D02*
X463056Y113072D01*
X468270D01*
X494462Y105660D02*
X494811Y105311D01*
X459500Y43500D02*
X481284D01*
Y69091D01*
X438357Y56902D02*
Y59035D01*
X433456Y52000D02*
X438357Y56902D01*
X427259Y52000D02*
X433456D01*
X422000Y57259D02*
X427259Y52000D01*
X422000Y57259D02*
Y62559D01*
X411117Y73441D02*
X422000Y62559D01*
X411117Y73441D02*
Y78500D01*
X433715Y59500D02*
Y71785D01*
X427000Y59500D02*
Y73500D01*
X420168Y93500D02*
X427000D01*
X415383Y88715D02*
X420168Y93500D01*
X415000Y88715D02*
X415383D01*
X411117Y78500D02*
X414617Y82000D01*
X434500Y142500D02*
Y143447D01*
X435984Y144931D01*
Y149931D01*
X436053Y150000D01*
X437134D01*
X468000Y67215D02*
X468383D01*
X470258Y69091D01*
X481284D01*
X347500Y105500D02*
X354000Y112000D01*
X354795Y129500D02*
X354898D01*
X382750Y57250D02*
X384325D01*
X385500Y58425D01*
Y60000D01*
D94*
X171268Y223000D02*
D03*
Y218000D02*
D03*
Y213000D02*
D03*
Y208000D02*
D03*
X149732D02*
D03*
Y213000D02*
D03*
Y218000D02*
D03*
Y223000D02*
D03*
D95*
X276000Y70536D02*
D03*
X271000D02*
D03*
X266000D02*
D03*
X261000D02*
D03*
Y49000D02*
D03*
X266000D02*
D03*
X271000D02*
D03*
X276000D02*
D03*
X283000Y69268D02*
D03*
X288000D02*
D03*
X293000D02*
D03*
X298000D02*
D03*
Y47732D02*
D03*
X293000D02*
D03*
X288000D02*
D03*
X283000D02*
D03*
D96*
X184812Y324195D02*
X193117Y332500D01*
X184812Y320195D02*
Y324195D01*
X193117Y332500D02*
X193500D01*
X208678Y319108D02*
X208785Y319215D01*
X199108Y319108D02*
X208678D01*
X199000Y319215D02*
X199108Y319108D01*
X199000Y319215D02*
Y327383D01*
X193883Y332500D02*
X199000Y327383D01*
X193500Y332500D02*
X193883D01*
X183832Y319215D02*
X184812Y320195D01*
X183500Y319215D02*
X183832D01*
X153426Y203074D02*
X154000Y202500D01*
X153426Y203074D02*
Y204267D01*
X149732Y207961D02*
X153426Y204267D01*
X149732Y207961D02*
Y208000D01*
X302000Y114000D02*
X302574Y114574D01*
Y140574D01*
X303500Y141500D01*
Y150000D01*
X303750Y150250D01*
Y158250D01*
X304000Y158500D01*
X135500Y241000D02*
X143481Y248981D01*
X135250Y241000D02*
X135500D01*
X143481Y248981D02*
X167338D01*
X115337Y175023D02*
X121000D01*
X121300Y175323D01*
X114357Y174043D02*
X115337Y175023D01*
X114357Y174000D02*
Y174043D01*
X167338Y248981D02*
X170319Y246000D01*
X170976D01*
D97*
X168700Y142059D02*
Y144618D01*
X162414Y134382D02*
X168700D01*
X177182Y308730D02*
X178243Y307670D01*
X176555Y308730D02*
X177182D01*
X175412Y309873D02*
X176555Y308730D01*
X182271Y320444D02*
X183500Y319215D01*
X181504Y320444D02*
X182271D01*
X176551Y325398D02*
X181504Y320444D01*
X176000Y325398D02*
X176551D01*
X169704Y308308D02*
Y319653D01*
X175449Y325398D01*
X176000D01*
X178243Y305039D02*
Y307670D01*
X177672Y304468D02*
X178243Y305039D01*
X82500Y223000D02*
X87591Y228091D01*
X93200D01*
X269500Y307500D02*
X273000Y311000D01*
X269500Y299500D02*
Y307500D01*
X96500Y199100D02*
X103785D01*
X132500Y182800D02*
Y183000D01*
X135500Y186000D02*
Y202000D01*
X132500Y183000D02*
X135500Y186000D01*
X132500Y183000D02*
X137618Y177882D01*
X143700D01*
X129941Y180441D02*
X132500Y183000D01*
X121300Y180441D02*
X129941D01*
X132000Y321000D02*
X140500Y329500D01*
X116000Y321000D02*
X132000D01*
D98*
X273021Y42362D02*
X276500Y38883D01*
X273002Y42362D02*
X273021D01*
X271000Y40360D02*
X273002Y42362D01*
X276500Y38500D02*
Y38883D01*
Y9500D02*
Y20000D01*
X273000Y23500D02*
X276500Y20000D01*
X167158Y61610D02*
X170965D01*
X165811Y62957D02*
Y74322D01*
Y62957D02*
X167158Y61610D01*
X165811Y74873D02*
X165938Y75000D01*
X248041Y74500D02*
X257827Y64714D01*
X240500Y74500D02*
X248041D01*
X257827Y64714D02*
X261554D01*
X268500Y57768D01*
X276500Y27000D02*
Y38500D01*
X273000Y23500D02*
X276500Y27000D01*
D99*
X255000Y153828D02*
X260172Y159000D01*
X255000Y142500D02*
Y153828D01*
X260172Y159000D02*
X267000D01*
X244028Y131528D02*
X255000Y142500D01*
X234500Y131528D02*
X244028D01*
D100*
X267000Y159000D02*
X268000Y160000D01*
D101*
X500500Y15000D02*
D03*
Y326000D02*
D03*
X15000D02*
D03*
Y15000D02*
D03*
D102*
X482988Y154122D02*
D03*
X494799D02*
D03*
X482988Y142311D02*
D03*
X494799D02*
D03*
X200000Y230000D02*
D03*
X427000Y165000D02*
D03*
X434000Y107000D02*
D03*
X459500Y43500D02*
D03*
X347500Y105500D02*
D03*
X368000Y88000D02*
D03*
X434500Y142500D02*
D03*
X435000Y42500D02*
D03*
X419500Y52000D02*
D03*
X494811Y93500D02*
D03*
X483000D02*
D03*
X494811Y105311D02*
D03*
X483000D02*
D03*
X230358Y93000D02*
D03*
X226000Y182000D02*
D03*
X250900Y14584D02*
D03*
X333500Y45000D02*
D03*
X244216Y38000D02*
D03*
X311500Y224000D02*
D03*
X316398Y177102D02*
D03*
X107217Y214000D02*
D03*
X97783Y213500D02*
D03*
X497500Y232500D02*
D03*
X499000Y286000D02*
D03*
X497500Y312000D02*
D03*
X445500Y323000D02*
D03*
X444500Y286500D02*
D03*
X485000Y218500D02*
D03*
X494500Y209500D02*
D03*
X320000Y299500D02*
D03*
X293500Y331000D02*
D03*
X367500Y327500D02*
D03*
X283000Y331500D02*
D03*
X269500Y299500D02*
D03*
X283000D02*
D03*
X428500Y305500D02*
D03*
X70000Y332500D02*
D03*
X57500Y300500D02*
D03*
X36000Y331500D02*
D03*
X209000Y319000D02*
D03*
X113500Y301000D02*
D03*
X140500Y329500D02*
D03*
X52500Y291500D02*
D03*
X104000Y83000D02*
D03*
X37000Y234500D02*
D03*
X17500Y135500D02*
D03*
X70500Y84500D02*
D03*
X44000Y19000D02*
D03*
X176000Y83000D02*
D03*
X131000Y15000D02*
D03*
D103*
X268000Y160000D02*
D03*
X458000Y119127D02*
D03*
Y109127D02*
D03*
X260500Y240000D02*
D03*
X475000Y324000D02*
D03*
X465000Y314000D02*
D03*
X475000D02*
D03*
X465000Y304000D02*
D03*
X475000D02*
D03*
X465000Y294000D02*
D03*
X475000D02*
D03*
X465000Y284000D02*
D03*
X475000D02*
D03*
X465000Y274000D02*
D03*
X475000D02*
D03*
X465000Y264000D02*
D03*
X475000D02*
D03*
X465000Y254000D02*
D03*
X475000D02*
D03*
X273000Y321000D02*
D03*
X283000Y311000D02*
D03*
Y321000D02*
D03*
X293000Y311000D02*
D03*
Y321000D02*
D03*
X303000Y311000D02*
D03*
Y321000D02*
D03*
X313000Y311000D02*
D03*
Y321000D02*
D03*
X323000Y311000D02*
D03*
Y321000D02*
D03*
X333000Y311000D02*
D03*
Y321000D02*
D03*
X343000Y311000D02*
D03*
Y321000D02*
D03*
X46000D02*
D03*
X56000Y311000D02*
D03*
Y321000D02*
D03*
X66000Y311000D02*
D03*
Y321000D02*
D03*
X76000Y311000D02*
D03*
Y321000D02*
D03*
X86000Y311000D02*
D03*
Y321000D02*
D03*
X96000Y311000D02*
D03*
Y321000D02*
D03*
X106000Y311000D02*
D03*
Y321000D02*
D03*
X116000Y311000D02*
D03*
Y321000D02*
D03*
D104*
X268000Y150000D02*
D03*
X458000Y99127D02*
D03*
X465000Y324000D02*
D03*
D105*
X427000Y93500D02*
D03*
X432000D02*
D03*
X427000Y88500D02*
D03*
X432000D02*
D03*
X427000Y83500D02*
D03*
X432000D02*
D03*
X427000Y78500D02*
D03*
X432000D02*
D03*
X427000Y73500D02*
D03*
X119500Y18000D02*
D03*
X79500Y19000D02*
D03*
D106*
X432000Y73500D02*
D03*
D107*
X499000Y69091D02*
D03*
Y43500D02*
D03*
X481284Y69091D02*
D03*
Y43500D02*
D03*
D108*
X250500Y240000D02*
D03*
X273000Y311000D02*
D03*
X46000D02*
D03*
D109*
X34000Y149000D02*
D03*
Y216200D02*
D03*
X33800Y34600D02*
D03*
Y101800D02*
D03*
D110*
X42200Y197300D02*
D03*
Y167900D02*
D03*
X42000Y82900D02*
D03*
Y53500D02*
D03*
D111*
X120788Y144827D02*
D03*
X130000Y135500D02*
D03*
X131250Y144618D02*
D03*
X314647Y126647D02*
D03*
X316000Y135000D02*
D03*
X389022Y152535D02*
D03*
X300162Y22200D02*
D03*
X212763Y91000D02*
D03*
X113037Y181500D02*
D03*
X107222Y185559D02*
D03*
X271000Y40360D02*
D03*
X415560Y277000D02*
D03*
X171500Y118000D02*
D03*
X287000Y187563D02*
D03*
X466163Y190000D02*
D03*
X351000Y145500D02*
D03*
X282215Y201000D02*
D03*
X474000Y190000D02*
D03*
X409691Y229809D02*
D03*
X345049Y233000D02*
D03*
X203000Y307500D02*
D03*
X199108Y301500D02*
D03*
X207500Y256000D02*
D03*
X173839Y310500D02*
D03*
X183000Y154000D02*
D03*
X184000Y161000D02*
D03*
X197000Y255000D02*
D03*
X178000Y252500D02*
D03*
X421000Y288500D02*
D03*
X192000Y312420D02*
D03*
X409691Y297642D02*
D03*
X407398Y304358D02*
D03*
X364000Y190500D02*
D03*
X321500Y200063D02*
D03*
X265500Y170500D02*
D03*
X344000Y150500D02*
D03*
X280000Y180500D02*
D03*
X381500Y152898D02*
D03*
X359500Y144500D02*
D03*
X365000Y150000D02*
D03*
X372500Y156000D02*
D03*
X371928Y172000D02*
D03*
X331000Y160000D02*
D03*
X337000Y154000D02*
D03*
X189630Y319000D02*
D03*
X205500Y144000D02*
D03*
X198500Y148000D02*
D03*
X209000Y173500D02*
D03*
X82500Y223000D02*
D03*
X273000Y115000D02*
D03*
X214500Y84000D02*
D03*
X171761Y31239D02*
D03*
X224000Y108500D02*
D03*
X231000Y122000D02*
D03*
X178000Y70000D02*
D03*
X184438Y68000D02*
D03*
X341500Y111500D02*
D03*
X467642Y166500D02*
D03*
X386626Y124862D02*
D03*
X373472Y128173D02*
D03*
X389500Y190500D02*
D03*
X320500Y114000D02*
D03*
X394126Y137362D02*
D03*
X398626Y159362D02*
D03*
X436858Y189500D02*
D03*
X387000Y46000D02*
D03*
X425710Y123362D02*
D03*
X425126Y113211D02*
D03*
X417959Y109362D02*
D03*
X442626Y115880D02*
D03*
X444626Y123362D02*
D03*
X434500Y182000D02*
D03*
X457000Y172000D02*
D03*
X237000Y182000D02*
D03*
Y171500D02*
D03*
X225500D02*
D03*
X448000Y242500D02*
D03*
X438760Y250500D02*
D03*
X448000D02*
D03*
X438760Y242500D02*
D03*
X351500Y276260D02*
D03*
X343500Y285500D02*
D03*
Y276260D02*
D03*
X351500Y285500D02*
D03*
X254500Y24000D02*
D03*
X240500Y74500D02*
D03*
X118500Y88500D02*
D03*
X341000Y13000D02*
D03*
X303500Y50500D02*
D03*
X298000Y75000D02*
D03*
X331698Y36000D02*
D03*
X292977Y18382D02*
D03*
X308000Y26000D02*
D03*
X302000Y114000D02*
D03*
X226000Y16500D02*
D03*
X219000Y21500D02*
D03*
X227700Y35700D02*
D03*
X253000Y76500D02*
D03*
X152000Y182500D02*
D03*
X96500Y199100D02*
D03*
X135250Y241000D02*
D03*
X141000Y237000D02*
D03*
X232500Y204000D02*
D03*
X96500Y206500D02*
D03*
X157456Y188118D02*
D03*
X200000Y183500D02*
D03*
X154000Y202500D02*
D03*
X133000Y294000D02*
D03*
X125000Y284760D02*
D03*
Y294000D02*
D03*
X133000Y284760D02*
D03*
X159000Y89500D02*
D03*
X139500Y87500D02*
D03*
X156000Y107500D02*
D03*
X381626Y93862D02*
D03*
X384126Y108362D02*
D03*
D112*
X157000Y137518D02*
D03*
X154595Y141461D02*
D03*
X158870D02*
D03*
D113*
X276500Y9500D02*
D03*
X151500Y167380D02*
D03*
X164000Y163000D02*
D03*
X150300D02*
D03*
X162154Y167302D02*
D03*
M02*
