G04*
G04 #@! TF.GenerationSoftware,Altium Limited,Altium Designer,19.1.8 (144)*
G04*
G04 Layer_Physical_Order=2*
G04 Layer_Color=36540*
%FSLAX44Y44*%
%MOMM*%
G71*
G01*
G75*
%ADD13C,0.2540*%
%ADD16C,0.1270*%
%ADD93C,0.6350*%
%ADD96C,0.5080*%
%ADD97C,0.3810*%
%ADD102C,1.5240*%
%ADD103C,1.5000*%
%ADD104R,1.5000X1.5000*%
%ADD105C,1.0160*%
%ADD110O,6.6802X2.5146*%
%ADD111C,1.2700*%
%ADD114C,1.2700*%
G36*
X1149350Y673100D02*
Y647474D01*
X1148177Y646988D01*
X1122603Y672562D01*
X1123089Y673735D01*
X1148715D01*
X1149350Y673100D01*
D02*
G37*
G36*
X350520Y758190D02*
X350520D01*
D01*
X407670Y756686D01*
Y708660D01*
X861060D01*
Y736600D01*
X906780D01*
X906780Y674370D01*
X906145Y673735D01*
X1106780D01*
X1134780Y645735D01*
X1134532Y644489D01*
X1133437Y644035D01*
X1131592Y642620D01*
X1137894D01*
X1137920Y642594D01*
Y629920D01*
X1131592D01*
X1133437Y628505D01*
X1135599Y627609D01*
X1137920Y627303D01*
X1140241Y627609D01*
X1141337Y628063D01*
X1142393Y627357D01*
Y624863D01*
X1141337Y624157D01*
X1140241Y624611D01*
X1137920Y624917D01*
X1135599Y624611D01*
X1133437Y623715D01*
X1131592Y622300D01*
X1137920D01*
Y609600D01*
X1131592D01*
X1133437Y608185D01*
X1135599Y607289D01*
X1137920Y606983D01*
X1140241Y607289D01*
X1141337Y607743D01*
X1142393Y607037D01*
Y602218D01*
X1142197Y601980D01*
X877090D01*
X876424Y602068D01*
X875758Y601980D01*
X861060D01*
Y673100D01*
X407670D01*
Y652780D01*
X492760Y567690D01*
Y356870D01*
X438150D01*
Y537210D01*
X302260Y673100D01*
Y758041D01*
Y758550D01*
X303170Y759436D01*
X350520Y758190D01*
D02*
G37*
%LPC*%
G36*
X473688Y402590D02*
X461032D01*
X462877Y401175D01*
X462918Y401157D01*
X462747Y399854D01*
X462499Y399821D01*
X460337Y398925D01*
X458492Y397510D01*
X471148D01*
X469303Y398925D01*
X469262Y398943D01*
X469433Y400246D01*
X469681Y400279D01*
X471843Y401175D01*
X473688Y402590D01*
D02*
G37*
%LPD*%
D13*
X500380Y629920D02*
X683260Y447040D01*
X500380Y629920D02*
Y647700D01*
X683260Y447040D02*
X733776D01*
X769258Y773068D02*
X1034790D01*
X730250Y734060D02*
X769258Y773068D01*
X799204Y321684D02*
X848868Y371348D01*
X877128D01*
X984880Y387440D02*
X988115D01*
X957030Y415290D02*
X984880Y387440D01*
X704588Y114211D02*
X762411Y56388D01*
X704588Y114211D02*
Y133612D01*
X728980Y476410D02*
X761014D01*
X876424Y591820D01*
X1141730Y482600D02*
X1184054D01*
X1040616Y583714D02*
X1141730Y482600D01*
X898978Y369570D02*
X944698Y415290D01*
X891540Y369570D02*
X898978D01*
X877128Y371348D02*
X928690Y422910D01*
X994410D01*
X660720Y33020D02*
X866140D01*
X632586Y61154D02*
X660720Y33020D01*
X1203960Y482600D02*
Y545830D01*
X1147572Y602218D02*
X1203960Y545830D01*
X452120Y641350D02*
X466296D01*
X518922Y588724D01*
Y576138D02*
Y588724D01*
X1147572Y602218D02*
Y640268D01*
X1047441Y740399D02*
X1147572Y640268D01*
X1047441Y740399D02*
Y749187D01*
X1050268Y752014D01*
Y760010D01*
X1037210Y773068D02*
X1050268Y760010D01*
X1034790Y773068D02*
X1037210D01*
X591614Y734060D02*
X730250D01*
X515414Y810260D02*
X591614Y734060D01*
X481660Y810260D02*
X515414D01*
X793750Y406400D02*
X840740D01*
X697230Y309880D02*
X793750Y406400D01*
X586740Y309880D02*
X697230D01*
X733776Y447040D02*
X747498Y460762D01*
X586740Y309880D02*
Y508320D01*
X518922Y576138D02*
X586740Y508320D01*
X153895Y801595D02*
X169171D01*
X142240Y789940D02*
X153895Y801595D01*
X182238Y822318D02*
X201930Y842010D01*
X182238Y814662D02*
Y822318D01*
X169171Y801595D02*
X182238Y814662D01*
X190500Y857250D02*
X719642D01*
X177800Y844550D02*
X190500Y857250D01*
X719642D02*
X734060Y842832D01*
X743398D01*
X745490Y840740D01*
X730475Y801595D02*
X745751D01*
X718820Y789940D02*
X730475Y801595D01*
X745751D02*
X755022Y810866D01*
Y824872D02*
X760730Y830580D01*
X755022Y810866D02*
Y824872D01*
X902783Y840740D02*
X913197Y851154D01*
X1053846D02*
X1095502Y809498D01*
X913197Y851154D02*
X1053846D01*
X745490Y840740D02*
X902783D01*
X1095502Y809498D02*
X1184438D01*
X1195190Y798746D01*
X1205314D01*
X1206500Y797560D01*
X944698Y415290D02*
X957030D01*
X994410Y422910D02*
X1013460Y403860D01*
X829558Y460762D02*
X853440Y436880D01*
X944698D01*
X747498Y460762D02*
X829558D01*
X479974Y292100D02*
X693420D01*
X247564Y524510D02*
X479974Y292100D01*
X245110Y524510D02*
X247564D01*
X1261110Y590550D02*
X1263650D01*
X1206500Y645160D02*
X1261110Y590550D01*
X632586Y61154D02*
Y84244D01*
X620310Y96520D02*
X632586Y84244D01*
X646430Y60960D02*
Y122076D01*
X632968Y135538D02*
X646430Y122076D01*
X632968Y135538D02*
Y198308D01*
X724220Y289560D01*
X767080D01*
X756920Y177032D02*
Y190500D01*
Y177032D02*
X842512Y91440D01*
X794610Y43538D02*
X842512Y91440D01*
X754342Y43538D02*
X794610D01*
X753134Y44746D02*
X754342Y43538D01*
X746105Y44746D02*
X753134D01*
X744161Y46690D02*
X746105Y44746D01*
X643890Y194310D02*
X704588Y133612D01*
X642620Y194310D02*
X643890D01*
X770890Y128270D02*
X782320Y116840D01*
Y66040D02*
Y116840D01*
X1301750Y0D02*
G03*
X1309370Y7620I0J7620D01*
G01*
Y858520D02*
G03*
X1300480Y866140I-8255J-635D01*
G01*
X7620D02*
G03*
X0Y858520I0J-7620D01*
G01*
Y7620D02*
G03*
X7620Y0I7620J0D01*
G01*
X1301750D01*
X1309370Y7620D02*
Y852170D01*
Y858520D01*
X7620Y866140D02*
X1300480D01*
X0Y7620D02*
Y858520D01*
D16*
X1180372Y362492D02*
G03*
X1187812Y380453I-17960J17960D01*
G01*
X802640Y341630D02*
Y342900D01*
Y341630D02*
X843153Y382143D01*
X873633D01*
X711040Y476410D02*
X728980D01*
X537210Y650240D02*
X711040Y476410D01*
X527050Y650240D02*
X537210D01*
X873633Y382143D02*
X873760Y382270D01*
X637540Y213360D02*
X815340Y391160D01*
X855980D01*
X544830Y213360D02*
X637540D01*
X1130300Y312420D02*
X1180372Y362492D01*
X1187812Y380453D02*
Y425232D01*
D93*
X1226790Y521639D02*
G03*
X1219351Y539599I-25400J0D01*
G01*
X1129030Y725531D02*
G03*
X1136469Y707570I25400J0D01*
G01*
X1235710Y793750D02*
X1263650D01*
X594233Y849757D02*
X670433Y773557D01*
X705993D01*
X718820Y760730D01*
X1129030Y725531D02*
Y727710D01*
X1136469Y707570D02*
X1159510Y684530D01*
X1226790Y391470D02*
Y521639D01*
X201930Y842010D02*
X209677Y849757D01*
X594233D01*
X760730Y830580D02*
X901783D01*
X915880Y844677D01*
X986610D01*
X995627Y835660D01*
X1054100D01*
X1092200Y797560D01*
X1181100D01*
X1206500Y822960D02*
X1235710Y793750D01*
X913130Y265430D02*
Y367030D01*
Y265430D02*
X1046480Y132080D01*
X1159510Y684530D02*
X1159510Y684530D01*
X1159510Y599440D02*
Y684530D01*
Y599440D02*
X1219351Y539599D01*
X980385Y238705D02*
X1103630Y361950D01*
X971495Y238705D02*
X980385D01*
X970280Y237490D02*
X971495Y238705D01*
X1218539Y777767D02*
Y785521D01*
Y777767D02*
X1267460Y728846D01*
Y726440D02*
Y728846D01*
X1206500Y797560D02*
X1218539Y785521D01*
X1129030Y745490D02*
X1181100Y797560D01*
X1129030Y727710D02*
Y745490D01*
X508000Y466090D02*
Y584200D01*
X1046480Y132080D02*
X1065530D01*
X1104900Y107950D02*
Y110490D01*
X1084580Y130810D02*
X1104900Y110490D01*
X1084580Y130810D02*
Y186690D01*
X1083851Y198661D02*
X1084580Y199390D01*
X1082003Y198661D02*
X1083851D01*
X1065530Y182188D02*
X1082003Y198661D01*
X1065530Y132080D02*
Y182188D01*
X976630Y274320D02*
X1084580Y382270D01*
Y419100D01*
X1163320Y277183D02*
X1190186Y250317D01*
X1161985Y278518D02*
X1163320Y277183D01*
X1190186Y250317D02*
X1239647D01*
X1226790Y391470D02*
X1239617Y378643D01*
Y329465D02*
Y378643D01*
X1226820Y316668D02*
X1239617Y329465D01*
X1226820Y267490D02*
Y316668D01*
X1256790Y391470D02*
X1269617Y378643D01*
Y349445D02*
Y378643D01*
X1255903Y335731D02*
X1269617Y349445D01*
X1255903Y268407D02*
Y335731D01*
Y268407D02*
X1256820Y267490D01*
X1239647Y250317D02*
X1256820Y267490D01*
X976630Y274320D02*
X977845Y273105D01*
X116158Y426466D02*
X124841Y417783D01*
X107188Y426466D02*
X116158D01*
D96*
X343535Y506095D02*
X386080Y463550D01*
X343535Y506095D02*
Y612140D01*
X399938Y477820D02*
Y479882D01*
X391160Y488660D02*
X399938Y479882D01*
X391160Y488660D02*
Y514350D01*
D97*
X209550Y541274D02*
Y566420D01*
Y541274D02*
X245110Y505714D01*
X1178560Y820420D02*
X1181100Y822960D01*
X1131570Y820420D02*
X1178560D01*
D102*
X1226790Y391470D02*
D03*
X1256790D02*
D03*
X508000Y584200D02*
D03*
X1084580Y419100D02*
D03*
X1103630Y361950D02*
D03*
X1104900Y107950D02*
D03*
X1065530Y132080D02*
D03*
X1256820Y267490D02*
D03*
X1226820D02*
D03*
X620310Y96520D02*
D03*
X1263650Y590550D02*
D03*
X1267460Y726440D02*
D03*
X1263650Y792480D02*
D03*
X1131570Y820420D02*
D03*
X1129030Y727710D02*
D03*
X745490Y840740D02*
D03*
X718820Y760730D02*
D03*
X177800Y844550D02*
D03*
D103*
X1163320Y277183D02*
D03*
X1206500Y822960D02*
D03*
X1181100Y797560D02*
D03*
X1206500D02*
D03*
Y645160D02*
D03*
X718820Y789940D02*
D03*
X142240D02*
D03*
D104*
X1181100Y822960D02*
D03*
D105*
X1084580Y199390D02*
D03*
Y186690D02*
D03*
D110*
X107188Y426466D02*
D03*
D111*
X799204Y321684D02*
D03*
X802640Y342900D02*
D03*
X988115Y387440D02*
D03*
X762411Y56388D02*
D03*
X728980Y476410D02*
D03*
X1184054Y482600D02*
D03*
X891540Y369570D02*
D03*
X1203960Y482600D02*
D03*
X1040616Y583714D02*
D03*
X876424Y591820D02*
D03*
X527050Y650240D02*
D03*
X464820Y391160D02*
D03*
X467360Y408940D02*
D03*
X500380Y647700D02*
D03*
X452120Y641350D02*
D03*
X1034790Y773068D02*
D03*
X873760Y382270D02*
D03*
X913130Y367030D02*
D03*
X944698Y436880D02*
D03*
X840740Y406400D02*
D03*
X855980Y391160D02*
D03*
X481660Y810260D02*
D03*
X209550Y566420D02*
D03*
X693420Y292100D02*
D03*
X544830Y213360D02*
D03*
X586740Y309880D02*
D03*
X1187812Y422910D02*
D03*
X1012510Y404780D02*
D03*
X1129350Y313340D02*
D03*
X1137920Y615950D02*
D03*
X1114450Y636270D02*
D03*
X1137920D02*
D03*
X1114450Y615950D02*
D03*
X892810Y701700D02*
D03*
X872490Y725170D02*
D03*
Y701700D02*
D03*
X892810Y725170D02*
D03*
X646430Y60960D02*
D03*
X610870Y189230D02*
D03*
X300990Y224790D02*
D03*
X866140Y33020D02*
D03*
X770890Y128270D02*
D03*
X756920Y190500D02*
D03*
X842512Y91440D02*
D03*
X744161Y46690D02*
D03*
X782320Y66040D02*
D03*
X767080Y289560D02*
D03*
X642620Y194310D02*
D03*
X386080Y463550D02*
D03*
X245110Y505714D02*
D03*
X343535Y612140D02*
D03*
X245110Y524510D02*
D03*
X399938Y477820D02*
D03*
X508000Y466090D02*
D03*
X391160Y514350D02*
D03*
X337820Y746760D02*
D03*
X317500Y723290D02*
D03*
Y746760D02*
D03*
X337820Y723290D02*
D03*
X969330Y238410D02*
D03*
X975680Y275240D02*
D03*
D114*
X360928Y194818D02*
X605282D01*
X330956Y224790D02*
X360928Y194818D01*
X300990Y224790D02*
X330956D01*
X605282Y194818D02*
X610870Y189230D01*
X533660Y156210D02*
X593350Y96520D01*
X369570Y156210D02*
X533660D01*
X300990Y224790D02*
X369570Y156210D01*
X593350Y96520D02*
X620310D01*
M02*
