G04*
G04 #@! TF.GenerationSoftware,Altium Limited,Altium Designer,19.1.8 (144)*
G04*
G04 Layer_Color=8421504*
%FSLAX44Y44*%
%MOMM*%
G71*
G01*
G75*
%ADD19R,1.7780X0.4064*%
%ADD20R,2.4600X2.3100*%
%ADD21R,1.9000X3.3700*%
%ADD22R,3.3700X1.9000*%
%ADD23R,1.4224X0.3302*%
%ADD24R,2.9972X3.0988*%
%ADD25R,1.4500X0.2540*%
%ADD26R,0.2540X1.4500*%
%ADD27R,0.8000X0.8000*%
%ADD28R,1.4500X1.2000*%
%ADD29R,1.3208X0.5588*%
%ADD30R,1.6002X2.6924*%
%ADD31R,1.2000X1.4500*%
%ADD32R,0.8000X0.8000*%
%ADD33R,1.5500X0.3000*%
%ADD34R,0.3000X1.5500*%
%ADD35R,1.0056X1.2000*%
%ADD36R,1.3800X1.1000*%
%ADD37R,1.2000X1.0056*%
%ADD38R,1.1000X1.3800*%
%ADD39R,1.3000X2.1000*%
%ADD40R,2.6924X1.6002*%
%ADD41R,3.4036X3.6576*%
%ADD42R,4.0905X4.2683*%
%ADD43R,0.4301X0.4501*%
%ADD44R,0.4501X0.4301*%
%ADD45R,4.2683X4.0905*%
%ADD46R,0.8500X0.5000*%
%ADD47R,0.8000X0.6000*%
%ADD48R,3.7500X4.4100*%
%ADD49R,1.3208X0.9398*%
%ADD50R,1.2700X3.3020*%
%ADD51R,3.6576X3.4036*%
%ADD52R,1.5000X0.6000*%
G36*
X436280Y621090D02*
X432280D01*
Y628590D01*
X436280D01*
Y621090D01*
D02*
G37*
G36*
X378730D02*
X373730D01*
Y628590D01*
X378730D01*
Y621090D01*
D02*
G37*
G36*
X436280Y608390D02*
X432280D01*
Y615890D01*
X436280D01*
Y608390D01*
D02*
G37*
G36*
X378730D02*
X373730D01*
Y615890D01*
X378730D01*
Y608390D01*
D02*
G37*
G36*
X414780Y606790D02*
X399780D01*
Y621790D01*
X414780D01*
Y606790D01*
D02*
G37*
G36*
X397780D02*
X382780D01*
Y621790D01*
X397780D01*
Y606790D01*
D02*
G37*
G36*
X436280Y595690D02*
X432280D01*
Y603190D01*
X436280D01*
Y595690D01*
D02*
G37*
G36*
X378730D02*
X373730D01*
Y603190D01*
X378730D01*
Y595690D01*
D02*
G37*
G36*
X414780Y589790D02*
X399780D01*
Y604790D01*
X414780D01*
Y589790D01*
D02*
G37*
G36*
X397780D02*
X382780D01*
Y604790D01*
X397780D01*
Y589790D01*
D02*
G37*
G36*
X436280Y582990D02*
X432280D01*
Y590490D01*
X436280D01*
Y582990D01*
D02*
G37*
G36*
X378730D02*
X373730D01*
Y590490D01*
X378730D01*
Y582990D01*
D02*
G37*
G36*
X426720Y550469D02*
X410870D01*
Y566166D01*
X426720D01*
Y550469D01*
D02*
G37*
G36*
X405869D02*
X393520D01*
Y566166D01*
X405869D01*
Y550469D01*
D02*
G37*
G36*
X426720Y528574D02*
X410870D01*
Y544271D01*
X426720D01*
Y528574D01*
D02*
G37*
G36*
X405869D02*
X393520D01*
Y544271D01*
X405869D01*
Y528574D01*
D02*
G37*
G36*
X411080Y342780D02*
X386480D01*
Y365880D01*
X411080D01*
Y342780D01*
D02*
G37*
G36*
X700786Y153612D02*
X685089D01*
Y165961D01*
X700786D01*
Y153612D01*
D02*
G37*
G36*
X678891D02*
X663194D01*
Y165961D01*
X678891D01*
Y153612D01*
D02*
G37*
G36*
X756666Y151790D02*
X740969D01*
Y167640D01*
X756666D01*
Y151790D01*
D02*
G37*
G36*
X734771D02*
X719074D01*
Y167640D01*
X734771D01*
Y151790D01*
D02*
G37*
G36*
X756666Y134440D02*
X740969D01*
Y146789D01*
X756666D01*
Y134440D01*
D02*
G37*
G36*
X734771D02*
X719074D01*
Y146789D01*
X734771D01*
Y134440D01*
D02*
G37*
G36*
X700786Y132761D02*
X685089D01*
Y148610D01*
X700786D01*
Y132761D01*
D02*
G37*
G36*
X678891D02*
X663194D01*
Y148610D01*
X678891D01*
Y132761D01*
D02*
G37*
D19*
X428498Y334830D02*
D03*
Y341330D02*
D03*
Y347830D02*
D03*
Y354330D02*
D03*
Y360830D02*
D03*
Y367330D02*
D03*
Y373830D02*
D03*
X369062D02*
D03*
Y367330D02*
D03*
Y360830D02*
D03*
Y354330D02*
D03*
Y347830D02*
D03*
Y341330D02*
D03*
Y334830D02*
D03*
D20*
X398780Y354330D02*
D03*
D21*
X715080Y575310D02*
D03*
X768280D02*
D03*
X1177150Y582930D02*
D03*
X1123950D02*
D03*
D22*
X595630Y387280D02*
D03*
Y334080D02*
D03*
X289560Y133490D02*
D03*
Y186690D02*
D03*
X369570Y788530D02*
D03*
Y735330D02*
D03*
X925830Y703650D02*
D03*
Y756850D02*
D03*
D23*
X308102Y484320D02*
D03*
Y477820D02*
D03*
Y471320D02*
D03*
Y464820D02*
D03*
Y458320D02*
D03*
Y451820D02*
D03*
Y445320D02*
D03*
X364998Y445320D02*
D03*
Y451820D02*
D03*
Y458320D02*
D03*
Y464820D02*
D03*
Y471320D02*
D03*
Y477820D02*
D03*
Y484320D02*
D03*
X721868Y79190D02*
D03*
Y72690D02*
D03*
Y66190D02*
D03*
Y59690D02*
D03*
Y53190D02*
D03*
Y46690D02*
D03*
Y40190D02*
D03*
X664972Y40190D02*
D03*
Y46690D02*
D03*
Y53190D02*
D03*
Y59690D02*
D03*
Y66190D02*
D03*
Y72690D02*
D03*
Y79190D02*
D03*
D24*
X336550Y464820D02*
D03*
X693420Y59690D02*
D03*
D25*
X485550Y758350D02*
D03*
Y763350D02*
D03*
Y768350D02*
D03*
Y773350D02*
D03*
Y778350D02*
D03*
X441550D02*
D03*
Y773350D02*
D03*
Y768350D02*
D03*
Y763350D02*
D03*
Y758350D02*
D03*
X797300Y491410D02*
D03*
Y486410D02*
D03*
Y481410D02*
D03*
Y476410D02*
D03*
Y471410D02*
D03*
X753300D02*
D03*
Y476410D02*
D03*
Y481410D02*
D03*
Y486410D02*
D03*
Y491410D02*
D03*
X543970Y266860D02*
D03*
Y271860D02*
D03*
Y276860D02*
D03*
Y281860D02*
D03*
Y286860D02*
D03*
X499970D02*
D03*
Y281860D02*
D03*
Y276860D02*
D03*
Y271860D02*
D03*
Y266860D02*
D03*
X390252Y153830D02*
D03*
Y158830D02*
D03*
Y163830D02*
D03*
Y168830D02*
D03*
Y173830D02*
D03*
X434252D02*
D03*
Y168830D02*
D03*
Y163830D02*
D03*
Y158830D02*
D03*
Y153830D02*
D03*
X1040540Y718980D02*
D03*
Y723980D02*
D03*
Y728980D02*
D03*
Y733980D02*
D03*
Y738980D02*
D03*
X996540D02*
D03*
Y733980D02*
D03*
Y728980D02*
D03*
Y723980D02*
D03*
Y718980D02*
D03*
D26*
X1146970Y512220D02*
D03*
X1151970D02*
D03*
X1156970D02*
D03*
X1161970D02*
D03*
X1166970D02*
D03*
Y468220D02*
D03*
X1161970D02*
D03*
X1156970D02*
D03*
X1151970D02*
D03*
X1146970D02*
D03*
D27*
X624080Y461010D02*
D03*
X640080D02*
D03*
X357250Y57150D02*
D03*
X341250D02*
D03*
X474090Y128270D02*
D03*
X458090D02*
D03*
X485140Y369870D02*
D03*
X469140D02*
D03*
X838580Y551180D02*
D03*
X822580D02*
D03*
X66420Y298450D02*
D03*
X50420D02*
D03*
D28*
X646430Y438150D02*
D03*
Y418150D02*
D03*
X840740Y508160D02*
D03*
Y528160D02*
D03*
X890270Y467040D02*
D03*
Y447040D02*
D03*
X963930Y469580D02*
D03*
Y449580D02*
D03*
X512130Y412590D02*
D03*
Y392590D02*
D03*
X1038860Y469580D02*
D03*
Y449580D02*
D03*
D29*
X285458Y515112D02*
D03*
X263614Y505714D02*
D03*
Y524510D02*
D03*
X590334Y78950D02*
D03*
Y60154D02*
D03*
X612178Y69552D02*
D03*
D30*
X663702Y575310D02*
D03*
X633730D02*
D03*
D31*
X415290Y55880D02*
D03*
X435290D02*
D03*
X541020Y121920D02*
D03*
X521020D02*
D03*
X150810Y300990D02*
D03*
X130810D02*
D03*
D32*
X1031240Y408032D02*
D03*
Y424032D02*
D03*
X885190Y422400D02*
D03*
Y406400D02*
D03*
X958850Y426210D02*
D03*
Y410210D02*
D03*
D33*
X1039880Y350560D02*
D03*
Y345560D02*
D03*
Y340560D02*
D03*
Y335560D02*
D03*
Y330560D02*
D03*
Y325560D02*
D03*
Y320560D02*
D03*
Y315560D02*
D03*
Y310560D02*
D03*
Y305560D02*
D03*
Y300560D02*
D03*
Y295560D02*
D03*
Y290560D02*
D03*
Y285560D02*
D03*
Y280560D02*
D03*
Y275560D02*
D03*
X924880D02*
D03*
Y280560D02*
D03*
Y285560D02*
D03*
Y290560D02*
D03*
Y295560D02*
D03*
Y300560D02*
D03*
Y305560D02*
D03*
Y310560D02*
D03*
Y315560D02*
D03*
Y320560D02*
D03*
Y325560D02*
D03*
Y330560D02*
D03*
Y335560D02*
D03*
Y340560D02*
D03*
Y345560D02*
D03*
Y350560D02*
D03*
D34*
X1019880Y255560D02*
D03*
X1014880D02*
D03*
X1009880D02*
D03*
X1004880D02*
D03*
X999880D02*
D03*
X994880D02*
D03*
X989880D02*
D03*
X984880D02*
D03*
X979880D02*
D03*
X974880D02*
D03*
X969880D02*
D03*
X964880D02*
D03*
X959880D02*
D03*
X954880D02*
D03*
X949880D02*
D03*
X944880D02*
D03*
Y370560D02*
D03*
X949880D02*
D03*
X954880D02*
D03*
X959880D02*
D03*
X964880D02*
D03*
X969880D02*
D03*
X974880D02*
D03*
X979880D02*
D03*
X984880D02*
D03*
X989880D02*
D03*
X994880D02*
D03*
X999880D02*
D03*
X1004880D02*
D03*
X1009880D02*
D03*
X1014880D02*
D03*
X1019880D02*
D03*
D35*
X880834Y351790D02*
D03*
X897890D02*
D03*
X1084580Y151130D02*
D03*
X1101636D02*
D03*
X719366Y97790D02*
D03*
X702310D02*
D03*
X361226Y513080D02*
D03*
X344170D02*
D03*
X772160Y402590D02*
D03*
X755104D02*
D03*
X770890Y381000D02*
D03*
X753834D02*
D03*
X585832Y275590D02*
D03*
X602888D02*
D03*
X567430Y292100D02*
D03*
X584486D02*
D03*
X585108Y257810D02*
D03*
X568052D02*
D03*
X561886Y389625D02*
D03*
X544830D02*
D03*
X565150Y328930D02*
D03*
X548094D02*
D03*
X603250Y42882D02*
D03*
X620306D02*
D03*
X823322Y54610D02*
D03*
X840378D02*
D03*
X782682Y34290D02*
D03*
X799738D02*
D03*
X710476Y473710D02*
D03*
X693420D02*
D03*
X744506Y452120D02*
D03*
X727450D02*
D03*
X718922Y494030D02*
D03*
X735978D02*
D03*
X418940Y448412D02*
D03*
X435996D02*
D03*
X290468Y441960D02*
D03*
X273412D02*
D03*
X263614Y486410D02*
D03*
X280670D02*
D03*
X1187812Y462280D02*
D03*
X1204868D02*
D03*
X1219562Y482600D02*
D03*
X1236618D02*
D03*
X1204868Y440690D02*
D03*
X1187812D02*
D03*
X957580Y762000D02*
D03*
X974636D02*
D03*
X957580Y694690D02*
D03*
X974636D02*
D03*
X402044Y795020D02*
D03*
X419100D02*
D03*
X403314Y731520D02*
D03*
X420370D02*
D03*
X451561Y309938D02*
D03*
X468617D02*
D03*
X451561Y347830D02*
D03*
X468617D02*
D03*
X452107Y331528D02*
D03*
X469163D02*
D03*
X339814Y187960D02*
D03*
X356870D02*
D03*
X338544Y129540D02*
D03*
X355600D02*
D03*
X474618Y147320D02*
D03*
X457562D02*
D03*
X462642Y196850D02*
D03*
X479698D02*
D03*
X485864Y172720D02*
D03*
X502920D02*
D03*
D36*
X1130300Y197600D02*
D03*
Y180340D02*
D03*
X477520Y273050D02*
D03*
Y290310D02*
D03*
X543560Y350520D02*
D03*
Y367780D02*
D03*
X632587Y131820D02*
D03*
Y114560D02*
D03*
X565150Y132080D02*
D03*
Y114820D02*
D03*
X610870Y132340D02*
D03*
Y115080D02*
D03*
X588010Y132080D02*
D03*
Y114820D02*
D03*
X638810Y524510D02*
D03*
Y541770D02*
D03*
X300990Y578340D02*
D03*
Y561080D02*
D03*
X236728Y579350D02*
D03*
Y562090D02*
D03*
X257810Y579350D02*
D03*
Y562090D02*
D03*
X279400Y578600D02*
D03*
Y561340D02*
D03*
X999490Y754900D02*
D03*
Y772160D02*
D03*
X976630Y719080D02*
D03*
Y736340D02*
D03*
X447040Y809250D02*
D03*
Y826510D02*
D03*
X419100Y756920D02*
D03*
Y774180D02*
D03*
X366122Y152660D02*
D03*
Y169920D02*
D03*
D37*
X1054100Y208280D02*
D03*
Y225336D02*
D03*
X1191260Y285349D02*
D03*
Y268293D02*
D03*
X1059180Y424180D02*
D03*
Y407124D02*
D03*
X990238Y423456D02*
D03*
Y406400D02*
D03*
X916940Y422186D02*
D03*
Y405130D02*
D03*
X1188720Y170726D02*
D03*
Y153670D02*
D03*
X714750Y543198D02*
D03*
Y526142D02*
D03*
X768090Y542836D02*
D03*
Y525780D02*
D03*
X657860Y541566D02*
D03*
Y524510D02*
D03*
X618490D02*
D03*
Y541566D02*
D03*
X1183281Y552088D02*
D03*
Y535032D02*
D03*
X1118870Y548786D02*
D03*
Y531730D02*
D03*
X1040130Y791572D02*
D03*
Y808628D02*
D03*
X1018540Y754742D02*
D03*
Y771798D02*
D03*
X1062990Y773068D02*
D03*
Y756012D02*
D03*
X491490Y827494D02*
D03*
Y844550D02*
D03*
X466090Y793750D02*
D03*
Y810806D02*
D03*
X505460D02*
D03*
Y793750D02*
D03*
D38*
X1126750Y361950D02*
D03*
X1144010D02*
D03*
X944880Y128270D02*
D03*
X962140D02*
D03*
X901180Y304800D02*
D03*
X883920D02*
D03*
X901440Y328930D02*
D03*
X884180D02*
D03*
X770890Y359410D02*
D03*
X753630D02*
D03*
X842512Y73660D02*
D03*
X825252D02*
D03*
X768610Y452120D02*
D03*
X785870D02*
D03*
X732790Y525780D02*
D03*
X750050D02*
D03*
X436200Y471320D02*
D03*
X418940D02*
D03*
X1187970Y504190D02*
D03*
X1205230D02*
D03*
X1144530Y533400D02*
D03*
X1161790D02*
D03*
X426980Y393700D02*
D03*
X444240D02*
D03*
X368808Y411480D02*
D03*
X351548D02*
D03*
X368808Y391160D02*
D03*
X351548D02*
D03*
X421482Y190500D02*
D03*
X404222D02*
D03*
D39*
X928370Y198400D02*
D03*
X979170D02*
D03*
Y152400D02*
D03*
X928370D02*
D03*
D40*
X717550Y376428D02*
D03*
Y406400D02*
D03*
D41*
X715010Y224790D02*
D03*
Y330200D02*
D03*
D42*
X412750Y547370D02*
D03*
D43*
X435021Y566420D02*
D03*
Y553720D02*
D03*
Y541020D02*
D03*
Y528320D02*
D03*
X380319D02*
D03*
Y541020D02*
D03*
Y553720D02*
D03*
Y566420D02*
D03*
D44*
X701040Y179161D02*
D03*
X688340D02*
D03*
X675640D02*
D03*
X662940D02*
D03*
Y124460D02*
D03*
X675640D02*
D03*
X688340D02*
D03*
X701040D02*
D03*
X718820Y175941D02*
D03*
X731520D02*
D03*
X744220D02*
D03*
X756920D02*
D03*
Y121239D02*
D03*
X744220D02*
D03*
X731520D02*
D03*
X718820D02*
D03*
D45*
X681990Y146731D02*
D03*
X737870Y153670D02*
D03*
D46*
X434280Y586740D02*
D03*
Y624840D02*
D03*
Y599440D02*
D03*
Y612140D02*
D03*
D47*
X376030Y624840D02*
D03*
Y612140D02*
D03*
Y599440D02*
D03*
Y586740D02*
D03*
D48*
X398780Y605790D02*
D03*
D49*
X359537Y296037D02*
D03*
Y273050D02*
D03*
Y250063D02*
D03*
D50*
X430530Y273050D02*
D03*
D51*
X483223Y568960D02*
D03*
X588633D02*
D03*
D52*
X1163320Y419100D02*
D03*
Y406400D02*
D03*
Y393700D02*
D03*
Y381000D02*
D03*
X1110320D02*
D03*
Y393700D02*
D03*
Y406400D02*
D03*
Y419100D02*
D03*
M02*
