G04*
G04 #@! TF.GenerationSoftware,Altium Limited,Altium Designer,19.1.8 (144)*
G04*
G04 Layer_Physical_Order=4*
G04 Layer_Color=16711680*
%FSLAX25Y25*%
%MOIN*%
G70*
G01*
G75*
%ADD13C,0.01000*%
%ADD16C,0.00500*%
%ADD93C,0.02500*%
%ADD96C,0.02000*%
%ADD101O,0.08900X0.06000*%
%ADD102C,0.06000*%
%ADD103C,0.05906*%
%ADD104R,0.05906X0.05906*%
%ADD105C,0.04000*%
%ADD106R,0.04000X0.04000*%
%ADD107C,0.05898*%
%ADD108R,0.05906X0.05906*%
%ADD109C,0.15000*%
%ADD110O,0.26300X0.09900*%
%ADD111C,0.05000*%
%ADD112C,0.02500*%
%ADD113C,0.03000*%
%ADD114C,0.05000*%
G36*
X512906Y339723D02*
X514024Y338976D01*
X514063Y338937D01*
X514208Y338720D01*
X514362Y338348D01*
X514162Y338128D01*
X513605Y337293D01*
X513221Y336365D01*
X513025Y335381D01*
X513000Y334879D01*
Y1201D01*
X512784Y1112D01*
X512322Y1020D01*
X512086Y1020D01*
X6899D01*
X5405Y1638D01*
X3768Y2733D01*
X1020Y5480D01*
Y337586D01*
X1020Y337586D01*
X1020Y337586D01*
X1019Y337822D01*
X1111Y338284D01*
X1291Y338719D01*
X1553Y339111D01*
X1719Y339277D01*
X1886Y339444D01*
X2279Y339707D01*
X2715Y339888D01*
X3179Y339980D01*
X3415Y339980D01*
X289095D01*
X289194Y339480D01*
X288450Y339172D01*
X286772Y338144D01*
X285342Y336922D01*
X285269Y336874D01*
X284249Y335854D01*
X284175Y335884D01*
X283000Y336039D01*
X281825Y335884D01*
X280731Y335431D01*
X279791Y334709D01*
X279069Y333769D01*
X278616Y332675D01*
X278461Y331500D01*
X278616Y330325D01*
X278646Y330251D01*
X273783Y325388D01*
X273000Y325491D01*
X271838Y325338D01*
X271105Y325034D01*
X263142D01*
Y325043D01*
X260945Y324870D01*
X258803Y324356D01*
X256767Y323513D01*
X254888Y322361D01*
X253212Y320930D01*
X253212Y320930D01*
X252865Y320570D01*
X240647Y308353D01*
X240006Y307517D01*
X239603Y306544D01*
X239465Y305500D01*
X239465Y305500D01*
Y219534D01*
X207262D01*
X201497Y225299D01*
X201594Y225790D01*
X202269Y226069D01*
X203209Y226791D01*
X203931Y227731D01*
X204384Y228825D01*
X204539Y230000D01*
X204384Y231175D01*
X203931Y232269D01*
X203209Y233209D01*
X202269Y233931D01*
X201175Y234384D01*
X200000Y234539D01*
X198825Y234384D01*
X197731Y233931D01*
X196791Y233209D01*
X196069Y232269D01*
X195790Y231594D01*
X195299Y231497D01*
X178692Y248104D01*
X178853Y248578D01*
X179044Y248603D01*
X180017Y249006D01*
X180853Y249647D01*
X181494Y250483D01*
X181897Y251456D01*
X182035Y252500D01*
X181901Y253517D01*
X185257Y256873D01*
X185699Y257535D01*
X185854Y258315D01*
Y312340D01*
X187975Y314461D01*
X188399Y314178D01*
X188103Y313464D01*
X187966Y312420D01*
X188103Y311375D01*
X188506Y310402D01*
X189147Y309567D01*
X189983Y308926D01*
X190956Y308523D01*
X192000Y308385D01*
X193044Y308523D01*
X194017Y308926D01*
X194853Y309567D01*
X195494Y310402D01*
X195822Y311194D01*
X200422D01*
X200591Y310694D01*
X200147Y310353D01*
X199506Y309517D01*
X199211Y308806D01*
X199000D01*
X199000Y308806D01*
X198220Y308650D01*
X197558Y308208D01*
X193866Y304516D01*
X193423Y303854D01*
X193268Y303074D01*
Y280424D01*
X193423Y279644D01*
X193866Y278982D01*
X194961Y277887D01*
Y258477D01*
X194147Y257853D01*
X193506Y257017D01*
X193103Y256044D01*
X192965Y255000D01*
X193103Y253956D01*
X193506Y252983D01*
X194147Y252147D01*
X194983Y251506D01*
X195956Y251103D01*
X197000Y250965D01*
X198044Y251103D01*
X199017Y251506D01*
X199853Y252147D01*
X200494Y252983D01*
X200897Y253956D01*
X201034Y255000D01*
X200897Y256044D01*
X200494Y257017D01*
X199853Y257853D01*
X199039Y258477D01*
Y278732D01*
X198884Y279512D01*
X198442Y280174D01*
X197347Y281269D01*
Y297991D01*
X197762Y298269D01*
X198194Y298090D01*
X199108Y297970D01*
X200021Y298090D01*
X200873Y298443D01*
X201604Y299004D01*
X202165Y299735D01*
X202517Y300586D01*
X202638Y301500D01*
X202517Y302414D01*
X202250Y303060D01*
X202547Y303504D01*
X202574Y303521D01*
X203000Y303466D01*
X204044Y303603D01*
X205017Y304006D01*
X205267Y304198D01*
X205716Y303977D01*
Y259591D01*
X205483Y259494D01*
X204647Y258853D01*
X204006Y258017D01*
X203603Y257044D01*
X203466Y256000D01*
X203603Y254956D01*
X204006Y253983D01*
X204647Y253147D01*
X205483Y252506D01*
X206456Y252103D01*
X207500Y251965D01*
X208544Y252103D01*
X209517Y252506D01*
X210353Y253147D01*
X210994Y253983D01*
X211397Y254956D01*
X211535Y256000D01*
X211397Y257044D01*
X210994Y258017D01*
X210353Y258853D01*
X209517Y259494D01*
X209284Y259591D01*
Y308685D01*
X209284Y308685D01*
X209149Y309368D01*
X208762Y309947D01*
X208762Y309947D01*
X204469Y314240D01*
X203890Y314627D01*
X203207Y314762D01*
X195244D01*
X194853Y315272D01*
X194017Y315914D01*
X193195Y316254D01*
X192967Y316779D01*
X193124Y316983D01*
X193527Y317956D01*
X193664Y319000D01*
X193527Y320044D01*
X193124Y321017D01*
X192483Y321853D01*
X191647Y322494D01*
X190674Y322897D01*
X189630Y323035D01*
X188585Y322897D01*
X187612Y322494D01*
X186777Y321853D01*
X186136Y321017D01*
X185733Y320044D01*
X185595Y319000D01*
X185729Y317983D01*
X182373Y314627D01*
X181931Y313966D01*
X181776Y313185D01*
Y259159D01*
X179017Y256401D01*
X178000Y256535D01*
X176956Y256397D01*
X175983Y255994D01*
X175147Y255353D01*
X174506Y254517D01*
X174103Y253544D01*
X174078Y253353D01*
X173604Y253192D01*
X158943Y267853D01*
X158108Y268494D01*
X157135Y268897D01*
X156090Y269035D01*
X156090Y269035D01*
X35171D01*
X25035Y279171D01*
X24681Y279524D01*
X24359Y279891D01*
X23759Y280672D01*
X23194Y282036D01*
X23018Y283375D01*
X23034Y283500D01*
Y304829D01*
X33079Y314873D01*
X33424Y315218D01*
X33792Y315537D01*
X34321Y315971D01*
X35354Y316524D01*
X36476Y316864D01*
X37584Y316973D01*
X37642Y316966D01*
X44105D01*
X44838Y316662D01*
X46000Y316509D01*
X47162Y316662D01*
X48246Y317110D01*
X49176Y317824D01*
X49889Y318754D01*
X50338Y319838D01*
X50491Y321000D01*
X50338Y322162D01*
X49889Y323246D01*
X49176Y324176D01*
X48246Y324889D01*
X47162Y325338D01*
X46000Y325491D01*
X44838Y325338D01*
X44105Y325034D01*
X37642D01*
Y325043D01*
X35445Y324870D01*
X33303Y324356D01*
X31267Y323513D01*
X29388Y322361D01*
X27712Y320930D01*
X27712Y320930D01*
X27365Y320570D01*
X16147Y309353D01*
X15506Y308517D01*
X15103Y307544D01*
X14965Y306500D01*
X14965Y306500D01*
Y283500D01*
X14958D01*
X15126Y281357D01*
X15628Y279267D01*
X16451Y277281D01*
X17574Y275448D01*
X18970Y273813D01*
X18976Y273819D01*
X18976Y273819D01*
X30647Y262147D01*
X30647Y262147D01*
X31483Y261506D01*
X32456Y261103D01*
X33500Y260965D01*
X154419D01*
X202738Y212647D01*
X202738Y212647D01*
X203573Y212006D01*
X204546Y211603D01*
X205591Y211466D01*
X205591Y211466D01*
X239465D01*
Y201171D01*
X226484Y188190D01*
X225862Y188221D01*
X225531Y188442D01*
X225141Y188520D01*
X218500D01*
X218110Y188442D01*
X217779Y188221D01*
X217558Y187890D01*
X217480Y187500D01*
Y161000D01*
X217487Y160969D01*
X217482Y160937D01*
X217525Y160775D01*
X217558Y160610D01*
X217576Y160583D01*
X217584Y160553D01*
X217686Y160419D01*
X217779Y160279D01*
X217806Y160261D01*
X217825Y160236D01*
X218191Y159913D01*
X218251Y159878D01*
X218300Y159829D01*
X218730Y159541D01*
X218823Y159502D01*
X218907Y159447D01*
X219528Y159189D01*
X219627Y159170D01*
X219719Y159131D01*
X220379Y159000D01*
X220479D01*
X220578Y158980D01*
X248500D01*
X248890Y159058D01*
X249221Y159279D01*
X249442Y159610D01*
X249520Y160000D01*
Y187500D01*
X249442Y187890D01*
X249221Y188221D01*
X248890Y188442D01*
X248500Y188520D01*
X238878D01*
X238687Y188981D01*
X246353Y196647D01*
X246353Y196647D01*
X246994Y197483D01*
X247397Y198456D01*
X247534Y199500D01*
X247534Y199500D01*
Y235547D01*
X254953D01*
Y244453D01*
X247534D01*
Y303829D01*
X258924Y315218D01*
X258924Y315218D01*
X259292Y315537D01*
X259821Y315971D01*
X260854Y316524D01*
X261976Y316864D01*
X263084Y316973D01*
X263142Y316966D01*
X271105D01*
X271838Y316662D01*
X273000Y316509D01*
X274162Y316662D01*
X275246Y317110D01*
X276176Y317824D01*
X276889Y318754D01*
X277338Y319838D01*
X277491Y321000D01*
X277388Y321783D01*
X278371Y322766D01*
X278795Y322483D01*
X278662Y322162D01*
X278509Y321000D01*
X278662Y319838D01*
X279111Y318754D01*
X279824Y317824D01*
X280754Y317110D01*
X281838Y316662D01*
X283000Y316509D01*
X284162Y316662D01*
X285246Y317110D01*
X286176Y317824D01*
X286890Y318754D01*
X287338Y319838D01*
X287491Y321000D01*
X287338Y322162D01*
X286890Y323246D01*
X286176Y324176D01*
X285246Y324889D01*
X284162Y325338D01*
X283000Y325491D01*
X281838Y325338D01*
X281517Y325205D01*
X281234Y325629D01*
X282616Y327012D01*
X283000Y326961D01*
X284175Y327116D01*
X285269Y327569D01*
X286209Y328291D01*
X286931Y329231D01*
X287384Y330325D01*
X287539Y331500D01*
X287488Y331884D01*
X288874Y333269D01*
X289042Y333303D01*
X289403Y332867D01*
X289116Y332175D01*
X288961Y331000D01*
X289116Y329825D01*
X289569Y328731D01*
X290291Y327791D01*
X291231Y327069D01*
X292325Y326616D01*
X293500Y326461D01*
X294675Y326616D01*
X295769Y327069D01*
X296709Y327791D01*
X297431Y328731D01*
X297884Y329825D01*
X298039Y331000D01*
X297884Y332175D01*
X297431Y333269D01*
X296709Y334209D01*
X295769Y334931D01*
X295721Y334951D01*
X295820Y335451D01*
X456858D01*
X456976Y335474D01*
X458318Y335342D01*
X459723Y334916D01*
X461017Y334224D01*
X462060Y333368D01*
X462126Y333269D01*
X466480Y328915D01*
X466289Y328453D01*
X460547D01*
Y319547D01*
X469453D01*
Y325289D01*
X469915Y325481D01*
X470612Y324783D01*
X470509Y324000D01*
X470662Y322838D01*
X471110Y321754D01*
X471824Y320824D01*
X472754Y320111D01*
X473838Y319662D01*
X475000Y319509D01*
X476162Y319662D01*
X477246Y320111D01*
X478176Y320824D01*
X478890Y321754D01*
X479338Y322838D01*
X479491Y324000D01*
X479338Y325162D01*
X478890Y326246D01*
X478176Y327176D01*
X477246Y327889D01*
X476162Y328338D01*
X475000Y328491D01*
X474217Y328388D01*
X465731Y336874D01*
X465658Y336922D01*
X464228Y338144D01*
X462550Y339172D01*
X461806Y339480D01*
X461905Y339980D01*
X512086D01*
X512284Y339981D01*
X512906Y339723D01*
D02*
G37*
G36*
X248500Y160000D02*
X220578D01*
X219918Y160131D01*
X219297Y160389D01*
X218866Y160677D01*
X218500Y161000D01*
Y187500D01*
X225141D01*
X225332Y187038D01*
X223147Y184853D01*
X222876Y184500D01*
X226000D01*
Y182000D01*
X228500D01*
Y178876D01*
X228853Y179147D01*
X233353Y183647D01*
X233776Y183364D01*
X233590Y182914D01*
X233470Y182000D01*
X233590Y181086D01*
X233943Y180235D01*
X234500Y179509D01*
Y182000D01*
X237000D01*
Y184500D01*
X239491D01*
X238765Y185057D01*
X237914Y185410D01*
X237000Y185530D01*
X236086Y185410D01*
X235636Y185223D01*
X235353Y185647D01*
X237206Y187500D01*
X248500D01*
Y160000D01*
D02*
G37*
%LPC*%
G36*
X143000Y332624D02*
Y332000D01*
X143624D01*
X143353Y332353D01*
X143000Y332624D01*
D02*
G37*
G36*
X138000D02*
X137647Y332353D01*
X137376Y332000D01*
X138000D01*
Y332624D01*
D02*
G37*
G36*
X370000Y330624D02*
Y330000D01*
X370624D01*
X370353Y330353D01*
X370000Y330624D01*
D02*
G37*
G36*
X365000D02*
X364647Y330353D01*
X364376Y330000D01*
X365000D01*
Y330624D01*
D02*
G37*
G36*
X70000Y337039D02*
X68825Y336884D01*
X67731Y336431D01*
X66791Y335709D01*
X66069Y334769D01*
X65616Y333675D01*
X65461Y332500D01*
X65616Y331325D01*
X66069Y330231D01*
X66791Y329291D01*
X67731Y328569D01*
X68825Y328116D01*
X70000Y327961D01*
X71175Y328116D01*
X72269Y328569D01*
X73209Y329291D01*
X73931Y330231D01*
X74384Y331325D01*
X74539Y332500D01*
X74384Y333675D01*
X73931Y334769D01*
X73209Y335709D01*
X72269Y336431D01*
X71175Y336884D01*
X70000Y337039D01*
D02*
G37*
G36*
X36000Y336039D02*
X34825Y335884D01*
X33731Y335431D01*
X32791Y334709D01*
X32069Y333769D01*
X31616Y332675D01*
X31461Y331500D01*
X31616Y330325D01*
X32069Y329231D01*
X32791Y328291D01*
X33731Y327569D01*
X34825Y327116D01*
X36000Y326961D01*
X37175Y327116D01*
X38269Y327569D01*
X39209Y328291D01*
X39931Y329231D01*
X40384Y330325D01*
X40539Y331500D01*
X40384Y332675D01*
X39931Y333769D01*
X39209Y334709D01*
X38269Y335431D01*
X37175Y335884D01*
X36000Y336039D01*
D02*
G37*
G36*
X143624Y327000D02*
X143000D01*
Y326376D01*
X143353Y326647D01*
X143624Y327000D01*
D02*
G37*
G36*
X138000D02*
X137376D01*
X137647Y326647D01*
X138000Y326376D01*
Y327000D01*
D02*
G37*
G36*
X370624Y325000D02*
X370000D01*
Y324376D01*
X370353Y324647D01*
X370624Y325000D01*
D02*
G37*
G36*
X365000D02*
X364376D01*
X364647Y324647D01*
X365000Y324376D01*
Y325000D01*
D02*
G37*
G36*
X345500Y324064D02*
Y323500D01*
X346064D01*
X345819Y323819D01*
X345500Y324064D01*
D02*
G37*
G36*
X340500D02*
X340181Y323819D01*
X339936Y323500D01*
X340500D01*
Y324064D01*
D02*
G37*
G36*
X335500D02*
Y323500D01*
X336064D01*
X335819Y323819D01*
X335500Y324064D01*
D02*
G37*
G36*
X330500D02*
X330181Y323819D01*
X329936Y323500D01*
X330500D01*
Y324064D01*
D02*
G37*
G36*
X325500D02*
Y323500D01*
X326064D01*
X325819Y323819D01*
X325500Y324064D01*
D02*
G37*
G36*
X320500D02*
X320181Y323819D01*
X319936Y323500D01*
X320500D01*
Y324064D01*
D02*
G37*
G36*
X315500D02*
Y323500D01*
X316064D01*
X315819Y323819D01*
X315500Y324064D01*
D02*
G37*
G36*
X310500D02*
X310181Y323819D01*
X309936Y323500D01*
X310500D01*
Y324064D01*
D02*
G37*
G36*
X305500D02*
Y323500D01*
X306064D01*
X305819Y323819D01*
X305500Y324064D01*
D02*
G37*
G36*
X300500D02*
X300181Y323819D01*
X299936Y323500D01*
X300500D01*
Y324064D01*
D02*
G37*
G36*
X295500D02*
Y323500D01*
X296064D01*
X295819Y323819D01*
X295500Y324064D01*
D02*
G37*
G36*
X290500D02*
X290181Y323819D01*
X289936Y323500D01*
X290500D01*
Y324064D01*
D02*
G37*
G36*
X118500D02*
Y323500D01*
X119064D01*
X118819Y323819D01*
X118500Y324064D01*
D02*
G37*
G36*
X113500D02*
X113181Y323819D01*
X112936Y323500D01*
X113500D01*
Y324064D01*
D02*
G37*
G36*
X108500D02*
Y323500D01*
X109064D01*
X108819Y323819D01*
X108500Y324064D01*
D02*
G37*
G36*
X103500D02*
X103181Y323819D01*
X102936Y323500D01*
X103500D01*
Y324064D01*
D02*
G37*
G36*
X98500D02*
Y323500D01*
X99064D01*
X98819Y323819D01*
X98500Y324064D01*
D02*
G37*
G36*
X93500D02*
X93181Y323819D01*
X92936Y323500D01*
X93500D01*
Y324064D01*
D02*
G37*
G36*
X88500D02*
Y323500D01*
X89064D01*
X88819Y323819D01*
X88500Y324064D01*
D02*
G37*
G36*
X83500D02*
X83181Y323819D01*
X82936Y323500D01*
X83500D01*
Y324064D01*
D02*
G37*
G36*
X78500D02*
Y323500D01*
X79064D01*
X78819Y323819D01*
X78500Y324064D01*
D02*
G37*
G36*
X73500D02*
X73181Y323819D01*
X72936Y323500D01*
X73500D01*
Y324064D01*
D02*
G37*
G36*
X68500D02*
Y323500D01*
X69064D01*
X68819Y323819D01*
X68500Y324064D01*
D02*
G37*
G36*
X63500D02*
X63181Y323819D01*
X62936Y323500D01*
X63500D01*
Y324064D01*
D02*
G37*
G36*
X445500Y327539D02*
X444325Y327384D01*
X443231Y326931D01*
X442291Y326209D01*
X441569Y325269D01*
X441116Y324175D01*
X440961Y323000D01*
X441116Y321825D01*
X441569Y320731D01*
X442291Y319791D01*
X443231Y319069D01*
X444325Y318616D01*
X445500Y318461D01*
X446675Y318616D01*
X447769Y319069D01*
X448709Y319791D01*
X449431Y320731D01*
X449884Y321825D01*
X450039Y323000D01*
X449884Y324175D01*
X449431Y325269D01*
X448709Y326209D01*
X447769Y326931D01*
X446675Y327384D01*
X445500Y327539D01*
D02*
G37*
G36*
X500500Y333837D02*
X498971Y333686D01*
X497501Y333240D01*
X496146Y332516D01*
X494958Y331542D01*
X493984Y330354D01*
X493260Y328999D01*
X492814Y327529D01*
X492663Y326000D01*
X492814Y324471D01*
X493260Y323001D01*
X493984Y321646D01*
X494958Y320458D01*
X496146Y319484D01*
X497501Y318760D01*
X498971Y318314D01*
X500500Y318163D01*
X502029Y318314D01*
X503499Y318760D01*
X504854Y319484D01*
X506042Y320458D01*
X507016Y321646D01*
X507740Y323001D01*
X508186Y324471D01*
X508337Y326000D01*
X508186Y327529D01*
X507740Y328999D01*
X507016Y330354D01*
X506042Y331542D01*
X504854Y332516D01*
X503499Y333240D01*
X502029Y333686D01*
X500500Y333837D01*
D02*
G37*
G36*
X15000D02*
X13471Y333686D01*
X12001Y333240D01*
X10646Y332516D01*
X9458Y331542D01*
X8484Y330354D01*
X7760Y328999D01*
X7314Y327529D01*
X7163Y326000D01*
X7314Y324471D01*
X7760Y323001D01*
X8484Y321646D01*
X9458Y320458D01*
X10646Y319484D01*
X12001Y318760D01*
X13471Y318314D01*
X15000Y318163D01*
X16529Y318314D01*
X17999Y318760D01*
X19354Y319484D01*
X20542Y320458D01*
X21516Y321646D01*
X22240Y323001D01*
X22686Y324471D01*
X22837Y326000D01*
X22686Y327529D01*
X22240Y328999D01*
X21516Y330354D01*
X20542Y331542D01*
X19354Y332516D01*
X17999Y333240D01*
X16529Y333686D01*
X15000Y333837D01*
D02*
G37*
G36*
X346064Y318500D02*
X345500D01*
Y317936D01*
X345819Y318181D01*
X346064Y318500D01*
D02*
G37*
G36*
X340500D02*
X339936D01*
X340181Y318181D01*
X340500Y317936D01*
Y318500D01*
D02*
G37*
G36*
X336064D02*
X335500D01*
Y317936D01*
X335819Y318181D01*
X336064Y318500D01*
D02*
G37*
G36*
X330500D02*
X329936D01*
X330181Y318181D01*
X330500Y317936D01*
Y318500D01*
D02*
G37*
G36*
X326064D02*
X325500D01*
Y317936D01*
X325819Y318181D01*
X326064Y318500D01*
D02*
G37*
G36*
X320500D02*
X319936D01*
X320181Y318181D01*
X320500Y317936D01*
Y318500D01*
D02*
G37*
G36*
X316064D02*
X315500D01*
Y317936D01*
X315819Y318181D01*
X316064Y318500D01*
D02*
G37*
G36*
X310500D02*
X309936D01*
X310181Y318181D01*
X310500Y317936D01*
Y318500D01*
D02*
G37*
G36*
X306064D02*
X305500D01*
Y317936D01*
X305819Y318181D01*
X306064Y318500D01*
D02*
G37*
G36*
X300500D02*
X299936D01*
X300181Y318181D01*
X300500Y317936D01*
Y318500D01*
D02*
G37*
G36*
X296064D02*
X295500D01*
Y317936D01*
X295819Y318181D01*
X296064Y318500D01*
D02*
G37*
G36*
X290500D02*
X289936D01*
X290181Y318181D01*
X290500Y317936D01*
Y318500D01*
D02*
G37*
G36*
X119064D02*
X118500D01*
Y317936D01*
X118819Y318181D01*
X119064Y318500D01*
D02*
G37*
G36*
X113500D02*
X112936D01*
X113181Y318181D01*
X113500Y317936D01*
Y318500D01*
D02*
G37*
G36*
X109064D02*
X108500D01*
Y317936D01*
X108819Y318181D01*
X109064Y318500D01*
D02*
G37*
G36*
X103500D02*
X102936D01*
X103181Y318181D01*
X103500Y317936D01*
Y318500D01*
D02*
G37*
G36*
X99064D02*
X98500D01*
Y317936D01*
X98819Y318181D01*
X99064Y318500D01*
D02*
G37*
G36*
X93500D02*
X92936D01*
X93181Y318181D01*
X93500Y317936D01*
Y318500D01*
D02*
G37*
G36*
X89064D02*
X88500D01*
Y317936D01*
X88819Y318181D01*
X89064Y318500D01*
D02*
G37*
G36*
X83500D02*
X82936D01*
X83181Y318181D01*
X83500Y317936D01*
Y318500D01*
D02*
G37*
G36*
X79064D02*
X78500D01*
Y317936D01*
X78819Y318181D01*
X79064Y318500D01*
D02*
G37*
G36*
X73500D02*
X72936D01*
X73181Y318181D01*
X73500Y317936D01*
Y318500D01*
D02*
G37*
G36*
X69064D02*
X68500D01*
Y317936D01*
X68819Y318181D01*
X69064Y318500D01*
D02*
G37*
G36*
X63500D02*
X62936D01*
X63181Y318181D01*
X63500Y317936D01*
Y318500D01*
D02*
G37*
G36*
X56000Y325491D02*
X54838Y325338D01*
X53754Y324889D01*
X52824Y324176D01*
X52110Y323246D01*
X51662Y322162D01*
X51509Y321000D01*
X51662Y319838D01*
X52110Y318754D01*
X52824Y317824D01*
X53754Y317110D01*
X54838Y316662D01*
X56000Y316509D01*
X57162Y316662D01*
X58246Y317110D01*
X59176Y317824D01*
X59890Y318754D01*
X60338Y319838D01*
X60491Y321000D01*
X60338Y322162D01*
X59890Y323246D01*
X59176Y324176D01*
X58246Y324889D01*
X57162Y325338D01*
X56000Y325491D01*
D02*
G37*
G36*
X209000Y323539D02*
X207825Y323384D01*
X206731Y322931D01*
X205791Y322209D01*
X205069Y321269D01*
X204616Y320175D01*
X204461Y319000D01*
X204616Y317825D01*
X205069Y316731D01*
X205791Y315791D01*
X206731Y315069D01*
X207825Y314616D01*
X209000Y314461D01*
X210175Y314616D01*
X211269Y315069D01*
X212209Y315791D01*
X212931Y316731D01*
X213384Y317825D01*
X213539Y319000D01*
X213384Y320175D01*
X212931Y321269D01*
X212209Y322209D01*
X211269Y322931D01*
X210175Y323384D01*
X209000Y323539D01*
D02*
G37*
G36*
X475000Y318491D02*
X473838Y318338D01*
X472754Y317889D01*
X471824Y317176D01*
X471110Y316246D01*
X470662Y315162D01*
X470509Y314000D01*
X470662Y312838D01*
X471110Y311754D01*
X471824Y310824D01*
X472754Y310110D01*
X473838Y309662D01*
X475000Y309509D01*
X476162Y309662D01*
X477246Y310110D01*
X478176Y310824D01*
X478890Y311754D01*
X479338Y312838D01*
X479491Y314000D01*
X479338Y315162D01*
X478890Y316246D01*
X478176Y317176D01*
X477246Y317889D01*
X476162Y318338D01*
X475000Y318491D01*
D02*
G37*
G36*
X465000D02*
X463838Y318338D01*
X462754Y317889D01*
X461824Y317176D01*
X461110Y316246D01*
X460662Y315162D01*
X460509Y314000D01*
X460662Y312838D01*
X461110Y311754D01*
X461824Y310824D01*
X462754Y310110D01*
X463838Y309662D01*
X465000Y309509D01*
X466162Y309662D01*
X467246Y310110D01*
X468176Y310824D01*
X468890Y311754D01*
X469338Y312838D01*
X469491Y314000D01*
X469338Y315162D01*
X468890Y316246D01*
X468176Y317176D01*
X467246Y317889D01*
X466162Y318338D01*
X465000Y318491D01*
D02*
G37*
G36*
X497500Y316539D02*
X496325Y316384D01*
X495231Y315931D01*
X494291Y315209D01*
X493569Y314269D01*
X493116Y313175D01*
X492961Y312000D01*
X493116Y310825D01*
X493569Y309731D01*
X494291Y308791D01*
X495231Y308069D01*
X496325Y307616D01*
X497500Y307461D01*
X498675Y307616D01*
X499769Y308069D01*
X500709Y308791D01*
X501431Y309731D01*
X501884Y310825D01*
X502039Y312000D01*
X501884Y313175D01*
X501431Y314269D01*
X500709Y315209D01*
X499769Y315931D01*
X498675Y316384D01*
X497500Y316539D01*
D02*
G37*
G36*
X277453Y315453D02*
X268547D01*
Y306547D01*
X277453D01*
Y315453D01*
D02*
G37*
G36*
X50453D02*
X41547D01*
Y306547D01*
X50453D01*
Y315453D01*
D02*
G37*
G36*
X343000Y315491D02*
X341838Y315338D01*
X340754Y314890D01*
X339824Y314176D01*
X339110Y313246D01*
X338662Y312162D01*
X338509Y311000D01*
X338662Y309838D01*
X339110Y308754D01*
X339824Y307824D01*
X340754Y307111D01*
X341838Y306662D01*
X343000Y306509D01*
X344162Y306662D01*
X345246Y307111D01*
X346176Y307824D01*
X346889Y308754D01*
X347338Y309838D01*
X347491Y311000D01*
X347338Y312162D01*
X346889Y313246D01*
X346176Y314176D01*
X345246Y314890D01*
X344162Y315338D01*
X343000Y315491D01*
D02*
G37*
G36*
X333000D02*
X331838Y315338D01*
X330754Y314890D01*
X329824Y314176D01*
X329111Y313246D01*
X328662Y312162D01*
X328509Y311000D01*
X328662Y309838D01*
X329111Y308754D01*
X329824Y307824D01*
X330754Y307111D01*
X331838Y306662D01*
X333000Y306509D01*
X334162Y306662D01*
X335246Y307111D01*
X336176Y307824D01*
X336890Y308754D01*
X337338Y309838D01*
X337491Y311000D01*
X337338Y312162D01*
X336890Y313246D01*
X336176Y314176D01*
X335246Y314890D01*
X334162Y315338D01*
X333000Y315491D01*
D02*
G37*
G36*
X323000D02*
X321838Y315338D01*
X320754Y314890D01*
X319824Y314176D01*
X319110Y313246D01*
X318662Y312162D01*
X318509Y311000D01*
X318662Y309838D01*
X319110Y308754D01*
X319824Y307824D01*
X320754Y307111D01*
X321838Y306662D01*
X323000Y306509D01*
X324162Y306662D01*
X325246Y307111D01*
X326176Y307824D01*
X326889Y308754D01*
X327338Y309838D01*
X327491Y311000D01*
X327338Y312162D01*
X326889Y313246D01*
X326176Y314176D01*
X325246Y314890D01*
X324162Y315338D01*
X323000Y315491D01*
D02*
G37*
G36*
X313000D02*
X311838Y315338D01*
X310754Y314890D01*
X309824Y314176D01*
X309110Y313246D01*
X308662Y312162D01*
X308509Y311000D01*
X308662Y309838D01*
X309110Y308754D01*
X309824Y307824D01*
X310754Y307111D01*
X311838Y306662D01*
X313000Y306509D01*
X314162Y306662D01*
X315246Y307111D01*
X316176Y307824D01*
X316890Y308754D01*
X317338Y309838D01*
X317491Y311000D01*
X317338Y312162D01*
X316890Y313246D01*
X316176Y314176D01*
X315246Y314890D01*
X314162Y315338D01*
X313000Y315491D01*
D02*
G37*
G36*
X303000D02*
X301838Y315338D01*
X300754Y314890D01*
X299824Y314176D01*
X299111Y313246D01*
X298662Y312162D01*
X298509Y311000D01*
X298662Y309838D01*
X299111Y308754D01*
X299824Y307824D01*
X300754Y307111D01*
X301838Y306662D01*
X303000Y306509D01*
X304162Y306662D01*
X305246Y307111D01*
X306176Y307824D01*
X306890Y308754D01*
X307338Y309838D01*
X307491Y311000D01*
X307338Y312162D01*
X306890Y313246D01*
X306176Y314176D01*
X305246Y314890D01*
X304162Y315338D01*
X303000Y315491D01*
D02*
G37*
G36*
X293000D02*
X291838Y315338D01*
X290754Y314890D01*
X289824Y314176D01*
X289110Y313246D01*
X288662Y312162D01*
X288509Y311000D01*
X288662Y309838D01*
X289110Y308754D01*
X289824Y307824D01*
X290754Y307111D01*
X291838Y306662D01*
X293000Y306509D01*
X294162Y306662D01*
X295246Y307111D01*
X296176Y307824D01*
X296889Y308754D01*
X297338Y309838D01*
X297491Y311000D01*
X297338Y312162D01*
X296889Y313246D01*
X296176Y314176D01*
X295246Y314890D01*
X294162Y315338D01*
X293000Y315491D01*
D02*
G37*
G36*
X283000D02*
X281838Y315338D01*
X280754Y314890D01*
X279824Y314176D01*
X279111Y313246D01*
X278662Y312162D01*
X278509Y311000D01*
X278662Y309838D01*
X279111Y308754D01*
X279824Y307824D01*
X280754Y307111D01*
X281838Y306662D01*
X283000Y306509D01*
X284162Y306662D01*
X285246Y307111D01*
X286176Y307824D01*
X286890Y308754D01*
X287338Y309838D01*
X287491Y311000D01*
X287338Y312162D01*
X286890Y313246D01*
X286176Y314176D01*
X285246Y314890D01*
X284162Y315338D01*
X283000Y315491D01*
D02*
G37*
G36*
X116000D02*
X114838Y315338D01*
X113754Y314890D01*
X112824Y314176D01*
X112110Y313246D01*
X111662Y312162D01*
X111509Y311000D01*
X111662Y309838D01*
X112110Y308754D01*
X112824Y307824D01*
X113754Y307111D01*
X114838Y306662D01*
X116000Y306509D01*
X117162Y306662D01*
X118246Y307111D01*
X119176Y307824D01*
X119889Y308754D01*
X120338Y309838D01*
X120491Y311000D01*
X120338Y312162D01*
X119889Y313246D01*
X119176Y314176D01*
X118246Y314890D01*
X117162Y315338D01*
X116000Y315491D01*
D02*
G37*
G36*
X106000D02*
X104838Y315338D01*
X103754Y314890D01*
X102824Y314176D01*
X102111Y313246D01*
X101662Y312162D01*
X101509Y311000D01*
X101662Y309838D01*
X102111Y308754D01*
X102824Y307824D01*
X103754Y307111D01*
X104838Y306662D01*
X106000Y306509D01*
X107162Y306662D01*
X108246Y307111D01*
X109176Y307824D01*
X109889Y308754D01*
X110338Y309838D01*
X110491Y311000D01*
X110338Y312162D01*
X109889Y313246D01*
X109176Y314176D01*
X108246Y314890D01*
X107162Y315338D01*
X106000Y315491D01*
D02*
G37*
G36*
X96000D02*
X94838Y315338D01*
X93754Y314890D01*
X92824Y314176D01*
X92111Y313246D01*
X91662Y312162D01*
X91509Y311000D01*
X91662Y309838D01*
X92111Y308754D01*
X92824Y307824D01*
X93754Y307111D01*
X94838Y306662D01*
X96000Y306509D01*
X97162Y306662D01*
X98246Y307111D01*
X99176Y307824D01*
X99889Y308754D01*
X100338Y309838D01*
X100491Y311000D01*
X100338Y312162D01*
X99889Y313246D01*
X99176Y314176D01*
X98246Y314890D01*
X97162Y315338D01*
X96000Y315491D01*
D02*
G37*
G36*
X86000D02*
X84838Y315338D01*
X83754Y314890D01*
X82824Y314176D01*
X82111Y313246D01*
X81662Y312162D01*
X81509Y311000D01*
X81662Y309838D01*
X82111Y308754D01*
X82824Y307824D01*
X83754Y307111D01*
X84838Y306662D01*
X86000Y306509D01*
X87162Y306662D01*
X88246Y307111D01*
X89176Y307824D01*
X89890Y308754D01*
X90338Y309838D01*
X90491Y311000D01*
X90338Y312162D01*
X89890Y313246D01*
X89176Y314176D01*
X88246Y314890D01*
X87162Y315338D01*
X86000Y315491D01*
D02*
G37*
G36*
X76000D02*
X74838Y315338D01*
X73754Y314890D01*
X72824Y314176D01*
X72110Y313246D01*
X71662Y312162D01*
X71509Y311000D01*
X71662Y309838D01*
X72110Y308754D01*
X72824Y307824D01*
X73754Y307111D01*
X74838Y306662D01*
X76000Y306509D01*
X77162Y306662D01*
X78246Y307111D01*
X79176Y307824D01*
X79890Y308754D01*
X80338Y309838D01*
X80491Y311000D01*
X80338Y312162D01*
X79890Y313246D01*
X79176Y314176D01*
X78246Y314890D01*
X77162Y315338D01*
X76000Y315491D01*
D02*
G37*
G36*
X66000D02*
X64838Y315338D01*
X63754Y314890D01*
X62824Y314176D01*
X62111Y313246D01*
X61662Y312162D01*
X61509Y311000D01*
X61662Y309838D01*
X62111Y308754D01*
X62824Y307824D01*
X63754Y307111D01*
X64838Y306662D01*
X66000Y306509D01*
X67162Y306662D01*
X68246Y307111D01*
X69176Y307824D01*
X69889Y308754D01*
X70338Y309838D01*
X70491Y311000D01*
X70338Y312162D01*
X69889Y313246D01*
X69176Y314176D01*
X68246Y314890D01*
X67162Y315338D01*
X66000Y315491D01*
D02*
G37*
G36*
X56000D02*
X54838Y315338D01*
X53754Y314890D01*
X52824Y314176D01*
X52110Y313246D01*
X51662Y312162D01*
X51509Y311000D01*
X51662Y309838D01*
X52110Y308754D01*
X52824Y307824D01*
X53754Y307111D01*
X54838Y306662D01*
X56000Y306509D01*
X57162Y306662D01*
X58246Y307111D01*
X59176Y307824D01*
X59890Y308754D01*
X60338Y309838D01*
X60491Y311000D01*
X60338Y312162D01*
X59890Y313246D01*
X59176Y314176D01*
X58246Y314890D01*
X57162Y315338D01*
X56000Y315491D01*
D02*
G37*
G36*
X477500Y307064D02*
Y306500D01*
X478064D01*
X477819Y306819D01*
X477500Y307064D01*
D02*
G37*
G36*
X472500D02*
X472181Y306819D01*
X471936Y306500D01*
X472500D01*
Y307064D01*
D02*
G37*
G36*
X428500Y310039D02*
X427325Y309884D01*
X426231Y309431D01*
X425291Y308709D01*
X424569Y307769D01*
X424116Y306675D01*
X423961Y305500D01*
X424116Y304325D01*
X424569Y303231D01*
X425291Y302291D01*
X426231Y301569D01*
X427325Y301116D01*
X428500Y300961D01*
X429675Y301116D01*
X430769Y301569D01*
X431709Y302291D01*
X432431Y303231D01*
X432884Y304325D01*
X433039Y305500D01*
X432884Y306675D01*
X432431Y307769D01*
X431709Y308709D01*
X430769Y309431D01*
X429675Y309884D01*
X428500Y310039D01*
D02*
G37*
G36*
X478064Y301500D02*
X477500D01*
Y300936D01*
X477819Y301181D01*
X478064Y301500D01*
D02*
G37*
G36*
X472500D02*
X471936D01*
X472181Y301181D01*
X472500Y300936D01*
Y301500D01*
D02*
G37*
G36*
X465000Y308491D02*
X463838Y308338D01*
X462754Y307890D01*
X461824Y307176D01*
X461110Y306246D01*
X460662Y305162D01*
X460509Y304000D01*
X460662Y302838D01*
X461110Y301754D01*
X461824Y300824D01*
X462754Y300111D01*
X463838Y299662D01*
X465000Y299509D01*
X466162Y299662D01*
X467246Y300111D01*
X468176Y300824D01*
X468890Y301754D01*
X469338Y302838D01*
X469491Y304000D01*
X469338Y305162D01*
X468890Y306246D01*
X468176Y307176D01*
X467246Y307890D01*
X466162Y308338D01*
X465000Y308491D01*
D02*
G37*
G36*
X477500Y297064D02*
Y296500D01*
X478064D01*
X477819Y296819D01*
X477500Y297064D01*
D02*
G37*
G36*
X472500D02*
X472181Y296819D01*
X471936Y296500D01*
X472500D01*
Y297064D01*
D02*
G37*
G36*
X113500Y305539D02*
X112325Y305384D01*
X111231Y304931D01*
X110291Y304209D01*
X109569Y303269D01*
X109116Y302175D01*
X108961Y301000D01*
X109116Y299825D01*
X109569Y298731D01*
X110291Y297791D01*
X111231Y297069D01*
X112325Y296616D01*
X113500Y296461D01*
X114675Y296616D01*
X115769Y297069D01*
X116709Y297791D01*
X117431Y298731D01*
X117884Y299825D01*
X118039Y301000D01*
X117884Y302175D01*
X117431Y303269D01*
X116709Y304209D01*
X115769Y304931D01*
X114675Y305384D01*
X113500Y305539D01*
D02*
G37*
G36*
X57500Y305039D02*
X56325Y304884D01*
X55231Y304431D01*
X54291Y303709D01*
X53569Y302769D01*
X53116Y301675D01*
X52961Y300500D01*
X53116Y299325D01*
X53569Y298231D01*
X54291Y297291D01*
X55231Y296569D01*
X56325Y296116D01*
X57500Y295961D01*
X58675Y296116D01*
X59769Y296569D01*
X60709Y297291D01*
X61431Y298231D01*
X61884Y299325D01*
X62039Y300500D01*
X61884Y301675D01*
X61431Y302769D01*
X60709Y303709D01*
X59769Y304431D01*
X58675Y304884D01*
X57500Y305039D01*
D02*
G37*
G36*
X133000Y298035D02*
X131956Y297897D01*
X130983Y297494D01*
X130147Y296853D01*
X129506Y296017D01*
X129271Y295449D01*
X128729D01*
X128494Y296017D01*
X127853Y296853D01*
X127017Y297494D01*
X126044Y297897D01*
X125000Y298035D01*
X123956Y297897D01*
X122983Y297494D01*
X122147Y296853D01*
X121506Y296017D01*
X121103Y295044D01*
X120966Y294000D01*
X121103Y292956D01*
X121506Y291983D01*
X122147Y291147D01*
X122983Y290506D01*
X123956Y290103D01*
X125000Y289966D01*
X126044Y290103D01*
X127017Y290506D01*
X127853Y291147D01*
X128494Y291983D01*
X128729Y292551D01*
X129271D01*
X129506Y291983D01*
X130147Y291147D01*
X130983Y290506D01*
X131956Y290103D01*
X133000Y289966D01*
X134044Y290103D01*
X135017Y290506D01*
X135853Y291147D01*
X136494Y291983D01*
X136897Y292956D01*
X137034Y294000D01*
X136897Y295044D01*
X136494Y296017D01*
X135853Y296853D01*
X135017Y297494D01*
X134044Y297897D01*
X133000Y298035D01*
D02*
G37*
G36*
X320000Y304039D02*
X318825Y303884D01*
X317731Y303431D01*
X316791Y302709D01*
X316069Y301769D01*
X315616Y300675D01*
X315461Y299500D01*
X315616Y298325D01*
X316069Y297231D01*
X316791Y296291D01*
X317731Y295569D01*
X318825Y295116D01*
X320000Y294961D01*
X321175Y295116D01*
X322269Y295569D01*
X323209Y296291D01*
X323931Y297231D01*
X324384Y298325D01*
X324539Y299500D01*
X324384Y300675D01*
X323931Y301769D01*
X323209Y302709D01*
X322269Y303431D01*
X321175Y303884D01*
X320000Y304039D01*
D02*
G37*
G36*
X283000D02*
X281825Y303884D01*
X280731Y303431D01*
X279791Y302709D01*
X279069Y301769D01*
X278616Y300675D01*
X278461Y299500D01*
X278616Y298325D01*
X279069Y297231D01*
X279791Y296291D01*
X280731Y295569D01*
X281825Y295116D01*
X283000Y294961D01*
X284175Y295116D01*
X285269Y295569D01*
X286209Y296291D01*
X286931Y297231D01*
X287384Y298325D01*
X287539Y299500D01*
X287384Y300675D01*
X286931Y301769D01*
X286209Y302709D01*
X285269Y303431D01*
X284175Y303884D01*
X283000Y304039D01*
D02*
G37*
G36*
X269500D02*
X268325Y303884D01*
X267231Y303431D01*
X266291Y302709D01*
X265569Y301769D01*
X265116Y300675D01*
X264961Y299500D01*
X265116Y298325D01*
X265569Y297231D01*
X266291Y296291D01*
X267231Y295569D01*
X268325Y295116D01*
X269500Y294961D01*
X270675Y295116D01*
X271769Y295569D01*
X272709Y296291D01*
X273431Y297231D01*
X273884Y298325D01*
X274039Y299500D01*
X273884Y300675D01*
X273431Y301769D01*
X272709Y302709D01*
X271769Y303431D01*
X270675Y303884D01*
X269500Y304039D01*
D02*
G37*
G36*
X478064Y291500D02*
X477500D01*
Y290936D01*
X477819Y291181D01*
X478064Y291500D01*
D02*
G37*
G36*
X472500D02*
X471936D01*
X472181Y291181D01*
X472500Y290936D01*
Y291500D01*
D02*
G37*
G36*
X465000Y298491D02*
X463838Y298338D01*
X462754Y297889D01*
X461824Y297176D01*
X461110Y296246D01*
X460662Y295162D01*
X460509Y294000D01*
X460662Y292838D01*
X461110Y291754D01*
X461824Y290824D01*
X462754Y290110D01*
X463838Y289662D01*
X465000Y289509D01*
X466162Y289662D01*
X467246Y290110D01*
X468176Y290824D01*
X468890Y291754D01*
X469338Y292838D01*
X469491Y294000D01*
X469338Y295162D01*
X468890Y296246D01*
X468176Y297176D01*
X467246Y297889D01*
X466162Y298338D01*
X465000Y298491D01*
D02*
G37*
G36*
X52500Y296039D02*
X51325Y295884D01*
X50231Y295431D01*
X49291Y294709D01*
X48569Y293769D01*
X48116Y292675D01*
X47961Y291500D01*
X48116Y290325D01*
X48569Y289231D01*
X49291Y288291D01*
X50231Y287569D01*
X51325Y287116D01*
X52500Y286961D01*
X53675Y287116D01*
X54769Y287569D01*
X55709Y288291D01*
X56431Y289231D01*
X56884Y290325D01*
X57039Y291500D01*
X56884Y292675D01*
X56431Y293769D01*
X55709Y294709D01*
X54769Y295431D01*
X53675Y295884D01*
X52500Y296039D01*
D02*
G37*
G36*
X351500Y289534D02*
X350456Y289397D01*
X349483Y288994D01*
X348647Y288353D01*
X348006Y287517D01*
X347771Y286949D01*
X347229D01*
X346994Y287517D01*
X346353Y288353D01*
X345517Y288994D01*
X344544Y289397D01*
X343500Y289534D01*
X342456Y289397D01*
X341483Y288994D01*
X340647Y288353D01*
X340006Y287517D01*
X339603Y286544D01*
X339465Y285500D01*
X339603Y284456D01*
X340006Y283483D01*
X340647Y282647D01*
X341483Y282006D01*
X342456Y281603D01*
X343500Y281466D01*
X344544Y281603D01*
X345517Y282006D01*
X346353Y282647D01*
X346994Y283483D01*
X347229Y284051D01*
X347771D01*
X348006Y283483D01*
X348647Y282647D01*
X349483Y282006D01*
X350456Y281603D01*
X351500Y281466D01*
X352544Y281603D01*
X353517Y282006D01*
X354353Y282647D01*
X354994Y283483D01*
X355397Y284456D01*
X355535Y285500D01*
X355397Y286544D01*
X354994Y287517D01*
X354353Y288353D01*
X353517Y288994D01*
X352544Y289397D01*
X351500Y289534D01*
D02*
G37*
G36*
X477500Y287064D02*
Y286500D01*
X478064D01*
X477819Y286819D01*
X477500Y287064D01*
D02*
G37*
G36*
X472500D02*
X472181Y286819D01*
X471936Y286500D01*
X472500D01*
Y287064D01*
D02*
G37*
G36*
X133000Y288794D02*
X131956Y288657D01*
X130983Y288254D01*
X130147Y287613D01*
X129506Y286777D01*
X129271Y286209D01*
X128729D01*
X128494Y286777D01*
X127853Y287613D01*
X127017Y288254D01*
X126044Y288657D01*
X125000Y288794D01*
X123956Y288657D01*
X122983Y288254D01*
X122147Y287613D01*
X121506Y286777D01*
X121103Y285804D01*
X120966Y284760D01*
X121103Y283716D01*
X121506Y282743D01*
X122147Y281907D01*
X122983Y281266D01*
X123956Y280863D01*
X125000Y280725D01*
X126044Y280863D01*
X127017Y281266D01*
X127853Y281907D01*
X128494Y282743D01*
X128729Y283311D01*
X129271D01*
X129506Y282743D01*
X130147Y281907D01*
X130983Y281266D01*
X131956Y280863D01*
X133000Y280725D01*
X134044Y280863D01*
X135017Y281266D01*
X135853Y281907D01*
X136494Y282743D01*
X136897Y283716D01*
X137034Y284760D01*
X136897Y285804D01*
X136494Y286777D01*
X135853Y287613D01*
X135017Y288254D01*
X134044Y288657D01*
X133000Y288794D01*
D02*
G37*
G36*
X444500Y291039D02*
X443325Y290884D01*
X442231Y290431D01*
X441291Y289709D01*
X440569Y288769D01*
X440116Y287675D01*
X439961Y286500D01*
X440116Y285325D01*
X440569Y284231D01*
X441291Y283291D01*
X442231Y282569D01*
X443325Y282116D01*
X444500Y281961D01*
X445675Y282116D01*
X446769Y282569D01*
X447709Y283291D01*
X448431Y284231D01*
X448884Y285325D01*
X449039Y286500D01*
X448884Y287675D01*
X448431Y288769D01*
X447709Y289709D01*
X446769Y290431D01*
X445675Y290884D01*
X444500Y291039D01*
D02*
G37*
G36*
X499000Y290539D02*
X497825Y290384D01*
X496731Y289931D01*
X495791Y289209D01*
X495069Y288269D01*
X494616Y287175D01*
X494461Y286000D01*
X494616Y284825D01*
X495069Y283731D01*
X495791Y282791D01*
X496731Y282069D01*
X497825Y281616D01*
X499000Y281461D01*
X500175Y281616D01*
X501269Y282069D01*
X502209Y282791D01*
X502931Y283731D01*
X503384Y284825D01*
X503539Y286000D01*
X503384Y287175D01*
X502931Y288269D01*
X502209Y289209D01*
X501269Y289931D01*
X500175Y290384D01*
X499000Y290539D01*
D02*
G37*
G36*
X478064Y281500D02*
X477500D01*
Y280936D01*
X477819Y281181D01*
X478064Y281500D01*
D02*
G37*
G36*
X472500D02*
X471936D01*
X472181Y281181D01*
X472500Y280936D01*
Y281500D01*
D02*
G37*
G36*
X465000Y288491D02*
X463838Y288338D01*
X462754Y287890D01*
X461824Y287176D01*
X461110Y286246D01*
X460662Y285162D01*
X460509Y284000D01*
X460662Y282838D01*
X461110Y281754D01*
X461824Y280824D01*
X462754Y280111D01*
X463838Y279662D01*
X465000Y279509D01*
X466162Y279662D01*
X467246Y280111D01*
X468176Y280824D01*
X468890Y281754D01*
X469338Y282838D01*
X469491Y284000D01*
X469338Y285162D01*
X468890Y286246D01*
X468176Y287176D01*
X467246Y287890D01*
X466162Y288338D01*
X465000Y288491D01*
D02*
G37*
G36*
X421000Y292534D02*
X419956Y292397D01*
X418983Y291994D01*
X418147Y291353D01*
X417506Y290517D01*
X417103Y289544D01*
X416965Y288500D01*
X417103Y287456D01*
X417506Y286483D01*
X418147Y285647D01*
X418961Y285023D01*
Y279139D01*
X418461Y278970D01*
X418060Y279491D01*
Y277000D01*
Y274509D01*
X418461Y275030D01*
X418961Y274861D01*
Y137518D01*
X419116Y136737D01*
X419558Y136076D01*
X438727Y116907D01*
X438591Y115880D01*
X438729Y114836D01*
X439132Y113863D01*
X439773Y113027D01*
X440609Y112386D01*
X441582Y111983D01*
X442626Y111845D01*
X443670Y111983D01*
X444643Y112386D01*
X445479Y113027D01*
X446120Y113863D01*
X446523Y114836D01*
X446661Y115880D01*
X446523Y116924D01*
X446120Y117897D01*
X445479Y118733D01*
X445211Y118939D01*
X445340Y119422D01*
X445670Y119465D01*
X446643Y119868D01*
X447479Y120509D01*
X448120Y121345D01*
X448523Y122318D01*
X448661Y123362D01*
X448523Y124406D01*
X448120Y125379D01*
X447479Y126215D01*
X446643Y126856D01*
X445670Y127259D01*
X444626Y127397D01*
X443582Y127259D01*
X442609Y126856D01*
X441773Y126215D01*
X441132Y125379D01*
X440729Y124406D01*
X440591Y123362D01*
X440729Y122318D01*
X441132Y121345D01*
X441738Y120555D01*
X441715Y120338D01*
X441604Y120009D01*
X441434Y119968D01*
X423039Y138362D01*
Y161948D01*
X423539Y162118D01*
X423791Y161791D01*
X424731Y161069D01*
X425825Y160616D01*
X427000Y160461D01*
X428175Y160616D01*
X429269Y161069D01*
X430209Y161791D01*
X430931Y162731D01*
X431384Y163825D01*
X431539Y165000D01*
X431384Y166175D01*
X430931Y167269D01*
X430209Y168209D01*
X429269Y168931D01*
X428175Y169384D01*
X427000Y169539D01*
X425825Y169384D01*
X424731Y168931D01*
X423791Y168209D01*
X423539Y167882D01*
X423039Y168052D01*
Y285023D01*
X423853Y285647D01*
X424494Y286483D01*
X424897Y287456D01*
X425035Y288500D01*
X424897Y289544D01*
X424494Y290517D01*
X423853Y291353D01*
X423017Y291994D01*
X422044Y292397D01*
X421000Y292534D01*
D02*
G37*
G36*
X351500Y280294D02*
X350456Y280157D01*
X349483Y279754D01*
X348647Y279113D01*
X348006Y278277D01*
X347771Y277709D01*
X347229D01*
X346994Y278277D01*
X346353Y279113D01*
X345517Y279754D01*
X344544Y280157D01*
X343500Y280294D01*
X342456Y280157D01*
X341483Y279754D01*
X340647Y279113D01*
X340006Y278277D01*
X339603Y277304D01*
X339465Y276260D01*
X339603Y275216D01*
X340006Y274243D01*
X340647Y273407D01*
X341483Y272766D01*
X342456Y272363D01*
X343500Y272225D01*
X344544Y272363D01*
X345517Y272766D01*
X346353Y273407D01*
X346994Y274243D01*
X347229Y274811D01*
X347771D01*
X348006Y274243D01*
X348647Y273407D01*
X349483Y272766D01*
X350456Y272363D01*
X351500Y272225D01*
X352544Y272363D01*
X353517Y272766D01*
X354353Y273407D01*
X354994Y274243D01*
X355397Y275216D01*
X355535Y276260D01*
X355397Y277304D01*
X354994Y278277D01*
X354353Y279113D01*
X353517Y279754D01*
X352544Y280157D01*
X351500Y280294D01*
D02*
G37*
G36*
X477500Y277064D02*
Y276500D01*
X478064D01*
X477819Y276819D01*
X477500Y277064D01*
D02*
G37*
G36*
X472500D02*
X472181Y276819D01*
X471936Y276500D01*
X472500D01*
Y277064D01*
D02*
G37*
G36*
X407398Y308392D02*
X406353Y308255D01*
X405380Y307852D01*
X404545Y307210D01*
X403904Y306375D01*
X403501Y305402D01*
X403363Y304358D01*
X403501Y303313D01*
X403904Y302340D01*
X404545Y301505D01*
X405380Y300864D01*
X406223Y300515D01*
X406457Y299998D01*
X406197Y299660D01*
X405794Y298687D01*
X405657Y297642D01*
X405794Y296598D01*
X405891Y296365D01*
X346326Y236801D01*
X346093Y236897D01*
X345049Y237035D01*
X344005Y236897D01*
X343032Y236494D01*
X342196Y235853D01*
X341555Y235017D01*
X341152Y234044D01*
X341014Y233000D01*
X341152Y231956D01*
X341555Y230983D01*
X342196Y230147D01*
X343032Y229506D01*
X344005Y229103D01*
X345049Y228965D01*
X346093Y229103D01*
X347066Y229506D01*
X347902Y230147D01*
X348543Y230983D01*
X348946Y231956D01*
X349083Y233000D01*
X348946Y234044D01*
X348849Y234277D01*
X407190Y292618D01*
X407652Y292427D01*
Y233286D01*
X406839Y232662D01*
X406197Y231826D01*
X405794Y230853D01*
X405657Y229809D01*
X405794Y228764D01*
X406197Y227791D01*
X406839Y226956D01*
X407674Y226315D01*
X408647Y225912D01*
X409691Y225774D01*
X410736Y225912D01*
X411709Y226315D01*
X412544Y226956D01*
X413185Y227791D01*
X413588Y228764D01*
X413726Y229809D01*
X413588Y230853D01*
X413185Y231826D01*
X412544Y232662D01*
X411730Y233286D01*
Y275794D01*
X412230Y275893D01*
X412503Y275235D01*
X413061Y274509D01*
Y277000D01*
Y279491D01*
X412503Y278765D01*
X412230Y278107D01*
X411730Y278206D01*
Y294165D01*
X412544Y294790D01*
X413185Y295625D01*
X413588Y296598D01*
X413726Y297642D01*
X413588Y298687D01*
X413185Y299660D01*
X412544Y300495D01*
X411709Y301136D01*
X410866Y301485D01*
X410632Y302002D01*
X410892Y302340D01*
X411295Y303313D01*
X411432Y304358D01*
X411295Y305402D01*
X410892Y306375D01*
X410251Y307210D01*
X409415Y307852D01*
X408442Y308255D01*
X407398Y308392D01*
D02*
G37*
G36*
X478064Y271500D02*
X477500D01*
Y270936D01*
X477819Y271181D01*
X478064Y271500D01*
D02*
G37*
G36*
X472500D02*
X471936D01*
X472181Y271181D01*
X472500Y270936D01*
Y271500D01*
D02*
G37*
G36*
X465000Y278491D02*
X463838Y278338D01*
X462754Y277889D01*
X461824Y277176D01*
X461110Y276246D01*
X460662Y275162D01*
X460509Y274000D01*
X460662Y272838D01*
X461110Y271754D01*
X461824Y270824D01*
X462754Y270111D01*
X463838Y269662D01*
X465000Y269509D01*
X466162Y269662D01*
X467246Y270111D01*
X468176Y270824D01*
X468890Y271754D01*
X469338Y272838D01*
X469491Y274000D01*
X469338Y275162D01*
X468890Y276246D01*
X468176Y277176D01*
X467246Y277889D01*
X466162Y278338D01*
X465000Y278491D01*
D02*
G37*
G36*
X477500Y267064D02*
Y266500D01*
X478064D01*
X477819Y266819D01*
X477500Y267064D01*
D02*
G37*
G36*
X472500D02*
X472181Y266819D01*
X471936Y266500D01*
X472500D01*
Y267064D01*
D02*
G37*
G36*
X478064Y261500D02*
X477500D01*
Y260936D01*
X477819Y261181D01*
X478064Y261500D01*
D02*
G37*
G36*
X472500D02*
X471936D01*
X472181Y261181D01*
X472500Y260936D01*
Y261500D01*
D02*
G37*
G36*
X465000Y268491D02*
X463838Y268338D01*
X462754Y267889D01*
X461824Y267176D01*
X461110Y266246D01*
X460662Y265162D01*
X460509Y264000D01*
X460662Y262838D01*
X461110Y261754D01*
X461824Y260824D01*
X462754Y260110D01*
X463838Y259662D01*
X465000Y259509D01*
X466162Y259662D01*
X467246Y260110D01*
X468176Y260824D01*
X468890Y261754D01*
X469338Y262838D01*
X469491Y264000D01*
X469338Y265162D01*
X468890Y266246D01*
X468176Y267176D01*
X467246Y267889D01*
X466162Y268338D01*
X465000Y268491D01*
D02*
G37*
G36*
X477500Y257064D02*
Y256500D01*
X478064D01*
X477819Y256819D01*
X477500Y257064D01*
D02*
G37*
G36*
X472500D02*
X472181Y256819D01*
X471936Y256500D01*
X472500D01*
Y257064D01*
D02*
G37*
G36*
X478064Y251500D02*
X477500D01*
Y250936D01*
X477819Y251181D01*
X478064Y251500D01*
D02*
G37*
G36*
X472500D02*
X471936D01*
X472181Y251181D01*
X472500Y250936D01*
Y251500D01*
D02*
G37*
G36*
X465000Y258491D02*
X463838Y258338D01*
X462754Y257890D01*
X461824Y257176D01*
X461110Y256246D01*
X460662Y255162D01*
X460509Y254000D01*
X460662Y252838D01*
X461110Y251754D01*
X461824Y250824D01*
X462754Y250111D01*
X463838Y249662D01*
X465000Y249509D01*
X466162Y249662D01*
X467246Y250111D01*
X468176Y250824D01*
X468890Y251754D01*
X469338Y252838D01*
X469491Y254000D01*
X469338Y255162D01*
X468890Y256246D01*
X468176Y257176D01*
X467246Y257890D01*
X466162Y258338D01*
X465000Y258491D01*
D02*
G37*
G36*
X448000Y254535D02*
X446956Y254397D01*
X445983Y253994D01*
X445147Y253353D01*
X444506Y252517D01*
X444103Y251544D01*
X443965Y250500D01*
X444103Y249456D01*
X444506Y248483D01*
X445147Y247647D01*
X445983Y247006D01*
X446551Y246771D01*
Y246229D01*
X445983Y245994D01*
X445147Y245353D01*
X444506Y244517D01*
X444103Y243544D01*
X443965Y242500D01*
X444103Y241456D01*
X444506Y240483D01*
X445147Y239647D01*
X445983Y239006D01*
X446956Y238603D01*
X448000Y238465D01*
X449044Y238603D01*
X450017Y239006D01*
X450853Y239647D01*
X451494Y240483D01*
X451897Y241456D01*
X452035Y242500D01*
X451897Y243544D01*
X451494Y244517D01*
X450853Y245353D01*
X450017Y245994D01*
X449449Y246229D01*
Y246771D01*
X450017Y247006D01*
X450853Y247647D01*
X451494Y248483D01*
X451897Y249456D01*
X452035Y250500D01*
X451897Y251544D01*
X451494Y252517D01*
X450853Y253353D01*
X450017Y253994D01*
X449044Y254397D01*
X448000Y254535D01*
D02*
G37*
G36*
X438760D02*
X437716Y254397D01*
X436743Y253994D01*
X435907Y253353D01*
X435266Y252517D01*
X434863Y251544D01*
X434725Y250500D01*
X434863Y249456D01*
X435266Y248483D01*
X435907Y247647D01*
X436743Y247006D01*
X437311Y246771D01*
Y246229D01*
X436743Y245994D01*
X435907Y245353D01*
X435266Y244517D01*
X434863Y243544D01*
X434725Y242500D01*
X434863Y241456D01*
X435266Y240483D01*
X435907Y239647D01*
X436743Y239006D01*
X437716Y238603D01*
X438760Y238465D01*
X439804Y238603D01*
X440777Y239006D01*
X441613Y239647D01*
X442254Y240483D01*
X442657Y241456D01*
X442794Y242500D01*
X442657Y243544D01*
X442254Y244517D01*
X441613Y245353D01*
X440777Y245994D01*
X440209Y246229D01*
Y246771D01*
X440777Y247006D01*
X441613Y247647D01*
X442254Y248483D01*
X442657Y249456D01*
X442794Y250500D01*
X442657Y251544D01*
X442254Y252517D01*
X441613Y253353D01*
X440777Y253994D01*
X439804Y254397D01*
X438760Y254535D01*
D02*
G37*
G36*
X260500Y244491D02*
X259338Y244338D01*
X258254Y243889D01*
X257324Y243176D01*
X256610Y242246D01*
X256162Y241162D01*
X256009Y240000D01*
X256162Y238838D01*
X256610Y237754D01*
X257324Y236824D01*
X258254Y236110D01*
X259338Y235662D01*
X260500Y235509D01*
X261662Y235662D01*
X262746Y236110D01*
X263676Y236824D01*
X264389Y237754D01*
X264838Y238838D01*
X264991Y240000D01*
X264838Y241162D01*
X264389Y242246D01*
X263676Y243176D01*
X262746Y243889D01*
X261662Y244338D01*
X260500Y244491D01*
D02*
G37*
G36*
X500000Y235624D02*
Y235000D01*
X500624D01*
X500353Y235353D01*
X500000Y235624D01*
D02*
G37*
G36*
X495000D02*
X494647Y235353D01*
X494376Y235000D01*
X495000D01*
Y235624D01*
D02*
G37*
G36*
X135250Y245035D02*
X134206Y244897D01*
X133233Y244494D01*
X132397Y243853D01*
X131756Y243017D01*
X131353Y242044D01*
X131216Y241000D01*
X131353Y239956D01*
X131756Y238983D01*
X132397Y238147D01*
X133233Y237506D01*
X134206Y237103D01*
X135250Y236965D01*
X136294Y237103D01*
X136686Y236724D01*
X136708Y236631D01*
X111559Y211481D01*
X111147Y211731D01*
X111601Y212825D01*
X111755Y214000D01*
X111601Y215175D01*
X111147Y216269D01*
X110426Y217209D01*
X109486Y217931D01*
X108391Y218384D01*
X107217Y218539D01*
X106042Y218384D01*
X104947Y217931D01*
X104007Y217209D01*
X103286Y216269D01*
X102832Y215175D01*
X102719Y214316D01*
X102215D01*
X102168Y214675D01*
X101714Y215769D01*
X100993Y216709D01*
X100053Y217431D01*
X98958Y217884D01*
X97783Y218039D01*
X96609Y217884D01*
X95514Y217431D01*
X94574Y216709D01*
X93853Y215769D01*
X93399Y214675D01*
X93260Y213617D01*
X79716Y200074D01*
X67500D01*
Y205500D01*
X17000D01*
Y183500D01*
X67500D01*
Y191776D01*
X98550D01*
X99268Y191871D01*
X99937Y192148D01*
X100511Y192589D01*
X140901Y232979D01*
X141000Y232965D01*
X142044Y233103D01*
X143017Y233506D01*
X143853Y234147D01*
X144494Y234983D01*
X144897Y235956D01*
X145035Y237000D01*
X144897Y238044D01*
X144494Y239017D01*
X143853Y239853D01*
X143017Y240494D01*
X142044Y240897D01*
X141000Y241035D01*
X139956Y240897D01*
X139708Y240794D01*
X139265Y241152D01*
X139147Y242044D01*
X138744Y243017D01*
X138103Y243853D01*
X137267Y244494D01*
X136294Y244897D01*
X135250Y245035D01*
D02*
G37*
G36*
X37000Y239039D02*
X35825Y238884D01*
X34731Y238431D01*
X33791Y237709D01*
X33069Y236769D01*
X32616Y235675D01*
X32461Y234500D01*
X32616Y233325D01*
X33069Y232231D01*
X33791Y231291D01*
X34731Y230569D01*
X35825Y230116D01*
X37000Y229961D01*
X38175Y230116D01*
X39269Y230569D01*
X40209Y231291D01*
X40931Y232231D01*
X41384Y233325D01*
X41539Y234500D01*
X41384Y235675D01*
X40931Y236769D01*
X40209Y237709D01*
X39269Y238431D01*
X38175Y238884D01*
X37000Y239039D01*
D02*
G37*
G36*
X500624Y230000D02*
X500000D01*
Y229376D01*
X500353Y229647D01*
X500624Y230000D01*
D02*
G37*
G36*
X495000D02*
X494376D01*
X494647Y229647D01*
X495000Y229376D01*
Y230000D01*
D02*
G37*
G36*
X311500Y228539D02*
X310325Y228384D01*
X309231Y227931D01*
X308291Y227209D01*
X307569Y226269D01*
X307116Y225175D01*
X306961Y224000D01*
X307116Y222825D01*
X307569Y221731D01*
X308291Y220791D01*
X309231Y220069D01*
X310325Y219616D01*
X311500Y219461D01*
X312675Y219616D01*
X313769Y220069D01*
X314709Y220791D01*
X315431Y221731D01*
X315884Y222825D01*
X316039Y224000D01*
X315884Y225175D01*
X315431Y226269D01*
X314709Y227209D01*
X313769Y227931D01*
X312675Y228384D01*
X311500Y228539D01*
D02*
G37*
G36*
X485000Y223039D02*
X483825Y222884D01*
X482731Y222431D01*
X481791Y221709D01*
X481069Y220769D01*
X480616Y219675D01*
X480461Y218500D01*
X480616Y217325D01*
X481069Y216231D01*
X481791Y215291D01*
X482731Y214569D01*
X483825Y214116D01*
X485000Y213961D01*
X486175Y214116D01*
X487269Y214569D01*
X488209Y215291D01*
X488931Y216231D01*
X489384Y217325D01*
X489539Y218500D01*
X489384Y219675D01*
X488931Y220769D01*
X488209Y221709D01*
X487269Y222431D01*
X486175Y222884D01*
X485000Y223039D01*
D02*
G37*
G36*
X34000Y225244D02*
X32236Y225070D01*
X30539Y224555D01*
X28976Y223719D01*
X27605Y222595D01*
X26481Y221224D01*
X25645Y219661D01*
X25130Y217964D01*
X24957Y216200D01*
X25130Y214436D01*
X25645Y212739D01*
X26481Y211176D01*
X27605Y209805D01*
X28976Y208681D01*
X30539Y207845D01*
X32236Y207330D01*
X34000Y207156D01*
X35764Y207330D01*
X37461Y207845D01*
X39024Y208681D01*
X40395Y209805D01*
X41519Y211176D01*
X42355Y212739D01*
X42870Y214436D01*
X43044Y216200D01*
X42870Y217964D01*
X42355Y219661D01*
X41519Y221224D01*
X40395Y222595D01*
X39024Y223719D01*
X37461Y224555D01*
X35764Y225070D01*
X34000Y225244D01*
D02*
G37*
G36*
X494500Y214039D02*
X493325Y213884D01*
X492231Y213431D01*
X491291Y212709D01*
X490569Y211769D01*
X490116Y210675D01*
X489961Y209500D01*
X490116Y208325D01*
X490569Y207231D01*
X491291Y206291D01*
X492231Y205569D01*
X493325Y205116D01*
X494500Y204961D01*
X495675Y205116D01*
X496769Y205569D01*
X497709Y206291D01*
X498431Y207231D01*
X498884Y208325D01*
X499039Y209500D01*
X498884Y210675D01*
X498431Y211769D01*
X497709Y212709D01*
X496769Y213431D01*
X495675Y213884D01*
X494500Y214039D01*
D02*
G37*
G36*
X232500Y208034D02*
X231456Y207897D01*
X230483Y207494D01*
X229647Y206853D01*
X229587Y206774D01*
X179935D01*
X179217Y206679D01*
X178548Y206402D01*
X177973Y205961D01*
X161619Y189607D01*
X161128Y189704D01*
X160950Y190135D01*
X160309Y190971D01*
X159473Y191612D01*
X158500Y192015D01*
X157456Y192153D01*
X156412Y192015D01*
X155438Y191612D01*
X154603Y190971D01*
X153962Y190135D01*
X153559Y189162D01*
X153421Y188118D01*
X153559Y187074D01*
X153733Y186653D01*
X153350Y186270D01*
X153044Y186397D01*
X152000Y186535D01*
X150956Y186397D01*
X149983Y185994D01*
X149147Y185353D01*
X148506Y184517D01*
X148103Y183544D01*
X147966Y182500D01*
X148103Y181456D01*
X148234Y181140D01*
X147956Y180724D01*
X120199D01*
X117461Y183461D01*
X116887Y183902D01*
X116218Y184179D01*
X116001Y184208D01*
X115890Y184353D01*
X115055Y184994D01*
X114082Y185397D01*
X113037Y185535D01*
X111993Y185397D01*
X111654Y185257D01*
X111247Y185629D01*
X111119Y186603D01*
X110716Y187576D01*
X110075Y188412D01*
X109239Y189053D01*
X108266Y189456D01*
X107222Y189594D01*
X106178Y189456D01*
X105205Y189053D01*
X104369Y188412D01*
X103728Y187576D01*
X103325Y186603D01*
X103188Y185559D01*
X103325Y184515D01*
X103728Y183542D01*
X104369Y182706D01*
X105205Y182065D01*
X106178Y181662D01*
X107222Y181525D01*
X108266Y181662D01*
X108606Y181802D01*
X109012Y181430D01*
X109140Y180456D01*
X109543Y179483D01*
X110185Y178647D01*
X111020Y178006D01*
X111993Y177603D01*
X113037Y177465D01*
X114082Y177603D01*
X115055Y178006D01*
X115064Y178013D01*
X117089Y175989D01*
X117663Y175548D01*
X118332Y175271D01*
X119050Y175176D01*
X153885D01*
X154603Y175271D01*
X155271Y175548D01*
X155846Y175989D01*
X181084Y201226D01*
X229587D01*
X229647Y201147D01*
X230483Y200506D01*
X231456Y200103D01*
X232500Y199966D01*
X233544Y200103D01*
X234517Y200506D01*
X235353Y201147D01*
X235994Y201983D01*
X236397Y202956D01*
X236535Y204000D01*
X236397Y205044D01*
X235994Y206017D01*
X235353Y206853D01*
X234517Y207494D01*
X233544Y207897D01*
X232500Y208034D01*
D02*
G37*
G36*
X154000Y206535D02*
X152956Y206397D01*
X151983Y205994D01*
X151147Y205353D01*
X150506Y204517D01*
X150103Y203544D01*
X149966Y202500D01*
X150103Y201456D01*
X150506Y200483D01*
X151147Y199647D01*
X151983Y199006D01*
X152956Y198603D01*
X154000Y198466D01*
X155044Y198603D01*
X156017Y199006D01*
X156853Y199647D01*
X157494Y200483D01*
X157897Y201456D01*
X158035Y202500D01*
X157897Y203544D01*
X157494Y204517D01*
X156853Y205353D01*
X156017Y205994D01*
X155044Y206397D01*
X154000Y206535D01*
D02*
G37*
G36*
X474000Y194035D02*
X472956Y193897D01*
X471983Y193494D01*
X471147Y192853D01*
X470506Y192017D01*
X470352Y191646D01*
X469811D01*
X469657Y192017D01*
X469016Y192853D01*
X468180Y193494D01*
X467207Y193897D01*
X466163Y194035D01*
X465119Y193897D01*
X464146Y193494D01*
X463310Y192853D01*
X462669Y192017D01*
X462266Y191044D01*
X462128Y190000D01*
X462266Y188956D01*
X462669Y187983D01*
X463310Y187147D01*
X464146Y186506D01*
X465119Y186103D01*
X466163Y185966D01*
X467207Y186103D01*
X468180Y186506D01*
X469016Y187147D01*
X469657Y187983D01*
X469811Y188354D01*
X470352D01*
X470506Y187983D01*
X471147Y187147D01*
X471983Y186506D01*
X472956Y186103D01*
X474000Y185966D01*
X475044Y186103D01*
X476017Y186506D01*
X476853Y187147D01*
X477494Y187983D01*
X477897Y188956D01*
X478034Y190000D01*
X477897Y191044D01*
X477494Y192017D01*
X476853Y192853D01*
X476017Y193494D01*
X475044Y193897D01*
X474000Y194035D01*
D02*
G37*
G36*
X436858Y193535D02*
X435814Y193397D01*
X434841Y192994D01*
X434005Y192353D01*
X433364Y191517D01*
X432961Y190544D01*
X432823Y189500D01*
X432961Y188456D01*
X433364Y187483D01*
X434005Y186647D01*
X434841Y186006D01*
X434898Y185982D01*
X434898Y185982D01*
X435814Y185603D01*
X436575Y185503D01*
X436575Y185503D01*
X436858Y185466D01*
X437902Y185603D01*
X438875Y186006D01*
X439711Y186647D01*
X440352Y187483D01*
X440755Y188456D01*
X440892Y189500D01*
X440755Y190544D01*
X440352Y191517D01*
X439711Y192353D01*
X438875Y192994D01*
X437902Y193397D01*
X436858Y193535D01*
D02*
G37*
G36*
X200000Y187534D02*
X198956Y187397D01*
X197983Y186994D01*
X197147Y186353D01*
X196506Y185517D01*
X196103Y184544D01*
X195966Y183500D01*
X196103Y182456D01*
X196506Y181483D01*
X197147Y180647D01*
X197983Y180006D01*
X198956Y179603D01*
X200000Y179465D01*
X201044Y179603D01*
X202017Y180006D01*
X202853Y180647D01*
X203494Y181483D01*
X203897Y182456D01*
X204034Y183500D01*
X203897Y184544D01*
X203494Y185517D01*
X202853Y186353D01*
X202017Y186994D01*
X201044Y187397D01*
X200000Y187534D01*
D02*
G37*
G36*
X282215Y205034D02*
X281171Y204897D01*
X280198Y204494D01*
X279362Y203853D01*
X278721Y203017D01*
X278318Y202044D01*
X278180Y201000D01*
X278318Y199956D01*
X278721Y198983D01*
X279362Y198147D01*
X280198Y197506D01*
X281171Y197103D01*
X282215Y196966D01*
X283259Y197103D01*
X284232Y197506D01*
X285068Y198147D01*
X285692Y198961D01*
X297737D01*
X314896Y181801D01*
X314799Y181311D01*
X314128Y181033D01*
X313188Y180312D01*
X312467Y179372D01*
X312014Y178277D01*
X311859Y177102D01*
X312014Y175928D01*
X312293Y175252D01*
X312015Y174837D01*
X303687D01*
X291026Y187497D01*
X291035Y187563D01*
X290897Y188607D01*
X290494Y189580D01*
X289853Y190416D01*
X289017Y191057D01*
X288044Y191460D01*
X287000Y191597D01*
X285956Y191460D01*
X284983Y191057D01*
X284147Y190416D01*
X283506Y189580D01*
X283103Y188607D01*
X282965Y187563D01*
X283103Y186519D01*
X283506Y185546D01*
X284147Y184710D01*
X284983Y184069D01*
X285956Y183666D01*
X287000Y183528D01*
X288044Y183666D01*
X289017Y184069D01*
X289238Y184239D01*
X301686Y171791D01*
X301686Y171791D01*
X302265Y171404D01*
X302948Y171268D01*
X322229D01*
X329386Y164111D01*
X329289Y163621D01*
X328983Y163494D01*
X328147Y162853D01*
X327523Y162039D01*
X301345D01*
X283901Y179483D01*
X284034Y180500D01*
X283897Y181544D01*
X283494Y182517D01*
X282853Y183353D01*
X282017Y183994D01*
X281044Y184397D01*
X280000Y184535D01*
X278956Y184397D01*
X277983Y183994D01*
X277147Y183353D01*
X276506Y182517D01*
X276103Y181544D01*
X275965Y180500D01*
X276103Y179456D01*
X276506Y178483D01*
X277147Y177647D01*
X277983Y177006D01*
X278956Y176603D01*
X280000Y176465D01*
X281017Y176599D01*
X299058Y158558D01*
X299720Y158116D01*
X300500Y157961D01*
X327523D01*
X328147Y157147D01*
X328961Y156523D01*
Y154626D01*
X329116Y153846D01*
X329558Y153184D01*
X335341Y147401D01*
X335150Y146939D01*
X272453D01*
Y154453D01*
X263547D01*
Y150073D01*
X263106Y149837D01*
X263036Y149884D01*
X262256Y150039D01*
X201977D01*
X201353Y150853D01*
X200517Y151494D01*
X199544Y151897D01*
X198500Y152034D01*
X197456Y151897D01*
X196483Y151494D01*
X195647Y150853D01*
X195006Y150017D01*
X194603Y149044D01*
X194465Y148000D01*
X194603Y146956D01*
X195006Y145983D01*
X195647Y145147D01*
X196483Y144506D01*
X197456Y144103D01*
X198500Y143965D01*
X199544Y144103D01*
X200517Y144506D01*
X201085Y144942D01*
X201554Y144671D01*
X201466Y144000D01*
X201603Y142956D01*
X202006Y141983D01*
X202647Y141147D01*
X203483Y140506D01*
X204456Y140103D01*
X205500Y139965D01*
X206544Y140103D01*
X207270Y140403D01*
X208915Y138758D01*
X209577Y138316D01*
X210357Y138161D01*
X293830D01*
X293879Y137661D01*
X293817Y137648D01*
X293238Y137262D01*
X276761Y120784D01*
X256609D01*
X255926Y120649D01*
X255347Y120262D01*
X255347Y120262D01*
X245370Y110284D01*
X227590D01*
X227494Y110517D01*
X226853Y111353D01*
X226017Y111994D01*
X225044Y112397D01*
X224611Y112454D01*
X224451Y112927D01*
X229723Y118200D01*
X229956Y118103D01*
X231000Y117965D01*
X232044Y118103D01*
X233017Y118506D01*
X233853Y119147D01*
X234494Y119983D01*
X234897Y120956D01*
X235034Y122000D01*
X234897Y123044D01*
X234494Y124017D01*
X233853Y124853D01*
X233017Y125494D01*
X232044Y125897D01*
X231000Y126034D01*
X229956Y125897D01*
X228983Y125494D01*
X228147Y124853D01*
X227506Y124017D01*
X227103Y123044D01*
X226965Y122000D01*
X227103Y120956D01*
X227200Y120723D01*
X179984Y73508D01*
X179044Y73897D01*
X178000Y74035D01*
X176956Y73897D01*
X175983Y73494D01*
X175147Y72853D01*
X174506Y72017D01*
X174103Y71044D01*
X173966Y70000D01*
X174103Y68956D01*
X174506Y67983D01*
X175147Y67147D01*
X175983Y66506D01*
X176956Y66103D01*
X178000Y65965D01*
X179044Y66103D01*
X180017Y66506D01*
X180230Y66669D01*
X180713Y66540D01*
X180944Y65983D01*
X181585Y65147D01*
X182421Y64506D01*
X183394Y64103D01*
X184438Y63965D01*
X185482Y64103D01*
X186456Y64506D01*
X187291Y65147D01*
X187932Y65983D01*
X188335Y66956D01*
X188473Y68000D01*
X188335Y69044D01*
X188101Y69609D01*
X208404Y89911D01*
X208950Y89751D01*
X209269Y88983D01*
X209910Y88147D01*
X210745Y87506D01*
X211350Y87255D01*
X211400Y87188D01*
X211495Y86654D01*
X211006Y86017D01*
X210603Y85044D01*
X210466Y84000D01*
X210603Y82956D01*
X211006Y81983D01*
X211647Y81147D01*
X212483Y80506D01*
X213456Y80103D01*
X214500Y79966D01*
X215544Y80103D01*
X216517Y80506D01*
X217353Y81147D01*
X217994Y81983D01*
X218397Y82956D01*
X218534Y84000D01*
X218458Y84585D01*
X218787Y84961D01*
X277343D01*
X277535Y84499D01*
X269828Y76792D01*
X266753D01*
X266753Y76792D01*
X265972Y76637D01*
X265311Y76195D01*
X265311Y76195D01*
X228717Y39601D01*
X227700Y39735D01*
X226656Y39597D01*
X225683Y39194D01*
X224847Y38553D01*
X224206Y37717D01*
X223803Y36744D01*
X223665Y35700D01*
X223803Y34656D01*
X224206Y33683D01*
X224847Y32847D01*
X225683Y32206D01*
X226656Y31803D01*
X227700Y31666D01*
X228744Y31803D01*
X229717Y32206D01*
X230553Y32847D01*
X231194Y33683D01*
X231597Y34656D01*
X231734Y35700D01*
X231601Y36717D01*
X267597Y72714D01*
X270672D01*
X271453Y72869D01*
X272114Y73311D01*
X310764Y111961D01*
X317023D01*
X317647Y111147D01*
X318483Y110506D01*
X319456Y110103D01*
X320500Y109966D01*
X321544Y110103D01*
X322517Y110506D01*
X323353Y111147D01*
X323994Y111983D01*
X324397Y112956D01*
X324535Y114000D01*
X324397Y115044D01*
X323994Y116017D01*
X323353Y116853D01*
X322517Y117494D01*
X321544Y117897D01*
X320500Y118035D01*
X319456Y117897D01*
X318483Y117494D01*
X317647Y116853D01*
X317023Y116039D01*
X312950D01*
X312759Y116501D01*
X326192Y129934D01*
X369422D01*
X369700Y129518D01*
X369575Y129217D01*
X369438Y128173D01*
X369575Y127129D01*
X369978Y126156D01*
X370620Y125320D01*
X371455Y124679D01*
X372428Y124276D01*
X373472Y124139D01*
X373771Y124178D01*
X385188Y112761D01*
X384955Y112288D01*
X384126Y112397D01*
X383082Y112259D01*
X382109Y111856D01*
X381273Y111215D01*
X380632Y110379D01*
X380229Y109406D01*
X380092Y108362D01*
X380229Y107318D01*
X380632Y106345D01*
X381273Y105509D01*
X382109Y104868D01*
X383082Y104465D01*
X384126Y104328D01*
X385170Y104465D01*
X386143Y104868D01*
X386979Y105509D01*
X387620Y106345D01*
X388023Y107318D01*
X388160Y108362D01*
X388051Y109191D01*
X388525Y109424D01*
X423584Y74366D01*
X423470Y73500D01*
X423590Y72586D01*
X423943Y71735D01*
X424504Y71004D01*
X425235Y70443D01*
X426086Y70090D01*
X427000Y69970D01*
X427914Y70090D01*
X428192Y70205D01*
X428500Y70000D01*
Y70000D01*
X435500D01*
Y77000D01*
X435076D01*
X435076Y77000D01*
X432000D01*
Y81000D01*
D01*
Y84970D01*
X432914Y85090D01*
X433765Y85443D01*
X434140Y85730D01*
Y85730D01*
X434496Y86004D01*
X435057Y86735D01*
X435410Y87586D01*
X435530Y88500D01*
X435410Y89414D01*
X435057Y90265D01*
X434496Y90996D01*
X434140Y91270D01*
Y91270D01*
X433765Y91557D01*
X432914Y91910D01*
X432000Y92030D01*
Y93500D01*
X430530D01*
X430410Y94414D01*
X430057Y95265D01*
X429770Y95640D01*
X429770D01*
X429496Y95996D01*
X428765Y96557D01*
X427914Y96910D01*
X427000Y97030D01*
X426086Y96910D01*
X425235Y96557D01*
X424504Y95996D01*
X423943Y95265D01*
X423590Y94414D01*
X423470Y93500D01*
X423590Y92586D01*
X423943Y91735D01*
X424504Y91004D01*
Y90996D01*
X423943Y90265D01*
X423590Y89414D01*
X423470Y88500D01*
X423590Y87586D01*
X423943Y86735D01*
X424504Y86004D01*
Y85996D01*
X423943Y85265D01*
X423590Y84414D01*
X423470Y83500D01*
X423590Y82586D01*
X423943Y81735D01*
X424504Y81004D01*
Y80996D01*
X424037Y80387D01*
X423462Y80255D01*
X377141Y126576D01*
X377369Y127129D01*
X377507Y128173D01*
X377369Y129217D01*
X377245Y129518D01*
X377523Y129934D01*
X378221D01*
X378897Y129258D01*
X379558Y128816D01*
X380339Y128661D01*
X385344D01*
X385444Y128161D01*
X384861Y127919D01*
X384135Y127362D01*
X389117D01*
X388391Y127919D01*
X387808Y128161D01*
X387908Y128661D01*
X395789D01*
X414060Y110389D01*
X413925Y109362D01*
X414062Y108318D01*
X414465Y107345D01*
X415107Y106509D01*
X415942Y105868D01*
X416915Y105465D01*
X417959Y105328D01*
X419004Y105465D01*
X419977Y105868D01*
X420812Y106509D01*
X421453Y107345D01*
X421856Y108318D01*
X421994Y109362D01*
X421905Y110037D01*
X422007Y110126D01*
X422378Y110278D01*
X423109Y109717D01*
X424082Y109314D01*
X425126Y109176D01*
X426170Y109314D01*
X427143Y109717D01*
X427979Y110358D01*
X428620Y111194D01*
X429023Y112167D01*
X429160Y113211D01*
X429023Y114255D01*
X428620Y115228D01*
X427979Y116064D01*
X427143Y116705D01*
X426170Y117108D01*
X425126Y117245D01*
X424109Y117112D01*
X400843Y140378D01*
X400181Y140820D01*
X399401Y140975D01*
X398771D01*
X391152Y148594D01*
X391250Y149203D01*
X391875Y149683D01*
X392516Y150518D01*
X392919Y151491D01*
X393056Y152535D01*
X392919Y153580D01*
X392516Y154553D01*
X391875Y155388D01*
X391039Y156029D01*
X390066Y156432D01*
X389022Y156570D01*
X387977Y156432D01*
X387004Y156029D01*
X386169Y155388D01*
X385630Y154686D01*
X385087Y154691D01*
X384994Y154915D01*
X384353Y155751D01*
X383517Y156392D01*
X382544Y156795D01*
X381500Y156932D01*
X380456Y156795D01*
X379483Y156392D01*
X378647Y155751D01*
X378006Y154915D01*
X377603Y153942D01*
X377466Y152898D01*
X377603Y151853D01*
X377899Y151139D01*
X377594Y150639D01*
X373619D01*
X372762Y151496D01*
X372941Y152024D01*
X373544Y152103D01*
X374517Y152506D01*
X375353Y153147D01*
X375994Y153983D01*
X376397Y154956D01*
X376535Y156000D01*
X376397Y157044D01*
X375994Y158017D01*
X375353Y158853D01*
X374517Y159494D01*
X374253Y159603D01*
Y168742D01*
X374781Y169147D01*
X375422Y169983D01*
X375825Y170956D01*
X375963Y172000D01*
X375825Y173044D01*
X375422Y174017D01*
X374781Y174853D01*
X373945Y175494D01*
X372972Y175897D01*
X371928Y176034D01*
X370884Y175897D01*
X369911Y175494D01*
X369075Y174853D01*
X368434Y174017D01*
X368031Y173044D01*
X367894Y172000D01*
X368031Y170956D01*
X368434Y169983D01*
X369075Y169147D01*
X369911Y168506D01*
X370175Y168397D01*
Y159258D01*
X369647Y158853D01*
X369006Y158017D01*
X368603Y157044D01*
X368511Y156346D01*
X367975Y156104D01*
X367854Y156184D01*
X367074Y156339D01*
X346126D01*
X300023Y202442D01*
X299361Y202884D01*
X298581Y203039D01*
X285692D01*
X285068Y203853D01*
X284232Y204494D01*
X283259Y204897D01*
X282215Y205034D01*
D02*
G37*
G36*
X50400Y173879D02*
X44700D01*
Y170400D01*
X55810D01*
X55371Y171222D01*
X54628Y172128D01*
X53722Y172871D01*
X52688Y173424D01*
X51566Y173764D01*
X50400Y173879D01*
D02*
G37*
G36*
X39700D02*
X34000D01*
X32834Y173764D01*
X31712Y173424D01*
X30678Y172871D01*
X29772Y172128D01*
X29029Y171222D01*
X28590Y170400D01*
X39700D01*
Y173879D01*
D02*
G37*
G36*
X467642Y170535D02*
X466598Y170397D01*
X465625Y169994D01*
X464790Y169353D01*
X464149Y168517D01*
X463745Y167544D01*
X463608Y166500D01*
X463745Y165456D01*
X464149Y164483D01*
X464790Y163647D01*
X465625Y163006D01*
X466598Y162603D01*
X467642Y162466D01*
X468687Y162603D01*
X469660Y163006D01*
X470495Y163647D01*
X471137Y164483D01*
X471540Y165456D01*
X471677Y166500D01*
X471540Y167544D01*
X471137Y168517D01*
X470495Y169353D01*
X469660Y169994D01*
X468687Y170397D01*
X467642Y170535D01*
D02*
G37*
G36*
X498500Y169463D02*
X497586Y169343D01*
X496735Y168990D01*
X496004Y168429D01*
X495443Y167698D01*
X495090Y166847D01*
X494970Y165933D01*
X495090Y165019D01*
X495443Y164168D01*
X496004Y163437D01*
X496735Y162876D01*
X497586Y162523D01*
X498500Y162403D01*
X499414Y162523D01*
X500265Y162876D01*
X500996Y163437D01*
X501557Y164168D01*
X501910Y165019D01*
X502030Y165933D01*
X501910Y166847D01*
X501557Y167698D01*
X500996Y168429D01*
X500265Y168990D01*
X499414Y169343D01*
X498500Y169463D01*
D02*
G37*
G36*
X55810Y165400D02*
X44700D01*
Y161921D01*
X50400D01*
X51566Y162036D01*
X52688Y162376D01*
X53722Y162929D01*
X54628Y163672D01*
X55371Y164578D01*
X55810Y165400D01*
D02*
G37*
G36*
X39700D02*
X28590D01*
X29029Y164578D01*
X29772Y163672D01*
X30678Y162929D01*
X31712Y162376D01*
X32834Y162036D01*
X34000Y161921D01*
X39700D01*
Y165400D01*
D02*
G37*
G36*
X268000Y164491D02*
X266838Y164338D01*
X265754Y163890D01*
X264824Y163176D01*
X264110Y162246D01*
X263662Y161162D01*
X263509Y160000D01*
X263662Y158838D01*
X264110Y157754D01*
X264824Y156824D01*
X265754Y156111D01*
X266838Y155662D01*
X268000Y155509D01*
X269162Y155662D01*
X270246Y156111D01*
X271176Y156824D01*
X271889Y157754D01*
X272338Y158838D01*
X272491Y160000D01*
X272338Y161162D01*
X271889Y162246D01*
X271176Y163176D01*
X270246Y163890D01*
X269162Y164338D01*
X268000Y164491D01*
D02*
G37*
G36*
X398626Y163397D02*
X397582Y163259D01*
X396609Y162856D01*
X395773Y162215D01*
X395132Y161379D01*
X394729Y160406D01*
X394591Y159362D01*
X394729Y158318D01*
X395132Y157345D01*
X395773Y156509D01*
X396609Y155868D01*
X397582Y155465D01*
X398626Y155328D01*
X399670Y155465D01*
X400643Y155868D01*
X401479Y156509D01*
X402120Y157345D01*
X402523Y158318D01*
X402661Y159362D01*
X402523Y160406D01*
X402120Y161379D01*
X401479Y162215D01*
X400643Y162856D01*
X399670Y163259D01*
X398626Y163397D01*
D02*
G37*
G36*
X184000Y165034D02*
X182956Y164897D01*
X181983Y164494D01*
X181147Y163853D01*
X180506Y163017D01*
X180103Y162044D01*
X179965Y161000D01*
X180103Y159956D01*
X180506Y158983D01*
X181147Y158147D01*
X181246Y158072D01*
X181180Y157576D01*
X180983Y157494D01*
X180147Y156853D01*
X179506Y156017D01*
X179103Y155044D01*
X178965Y154000D01*
X179103Y152956D01*
X179506Y151983D01*
X180147Y151147D01*
X180983Y150506D01*
X181956Y150103D01*
X183000Y149966D01*
X184044Y150103D01*
X185017Y150506D01*
X185853Y151147D01*
X186494Y151983D01*
X186897Y152956D01*
X187034Y154000D01*
X186897Y155044D01*
X186494Y156017D01*
X185853Y156853D01*
X185754Y156928D01*
X185820Y157424D01*
X186017Y157506D01*
X186853Y158147D01*
X187494Y158983D01*
X187897Y159956D01*
X188034Y161000D01*
X187897Y162044D01*
X187494Y163017D01*
X186853Y163853D01*
X186017Y164494D01*
X185044Y164897D01*
X184000Y165034D01*
D02*
G37*
G36*
X494799Y158661D02*
X493624Y158506D01*
X492530Y158053D01*
X491590Y157332D01*
X490869Y156392D01*
X490415Y155297D01*
X490260Y154122D01*
X490415Y152947D01*
X490869Y151853D01*
X491590Y150913D01*
X492530Y150191D01*
X493624Y149738D01*
X494799Y149583D01*
X495974Y149738D01*
X497069Y150191D01*
X498009Y150913D01*
X498730Y151853D01*
X499183Y152947D01*
X499338Y154122D01*
X499183Y155297D01*
X498730Y156392D01*
X498009Y157332D01*
X497069Y158053D01*
X495974Y158506D01*
X494799Y158661D01*
D02*
G37*
G36*
X482988D02*
X481813Y158506D01*
X480719Y158053D01*
X479779Y157332D01*
X479057Y156392D01*
X478604Y155297D01*
X478449Y154122D01*
X478604Y152947D01*
X479057Y151853D01*
X479779Y150913D01*
X480719Y150191D01*
X481813Y149738D01*
X482988Y149583D01*
X484163Y149738D01*
X485258Y150191D01*
X486198Y150913D01*
X486919Y151853D01*
X487372Y152947D01*
X487527Y154122D01*
X487372Y155297D01*
X486919Y156392D01*
X486198Y157332D01*
X485258Y158053D01*
X484163Y158506D01*
X482988Y158661D01*
D02*
G37*
G36*
X485488Y145435D02*
Y144811D01*
X486112D01*
X485841Y145164D01*
X485488Y145435D01*
D02*
G37*
G36*
X480488Y145435D02*
X480135Y145164D01*
X479865Y144811D01*
X480488D01*
Y145435D01*
D02*
G37*
G36*
X120788Y148862D02*
X119744Y148724D01*
X118771Y148321D01*
X117935Y147680D01*
X117294Y146845D01*
X116891Y145872D01*
X116754Y144827D01*
X116891Y143783D01*
X117294Y142810D01*
X117935Y141975D01*
X118771Y141333D01*
X119744Y140930D01*
X120788Y140793D01*
X121832Y140930D01*
X122806Y141333D01*
X123641Y141975D01*
X124282Y142810D01*
X124685Y143783D01*
X124823Y144827D01*
X124685Y145872D01*
X124282Y146845D01*
X123641Y147680D01*
X122806Y148321D01*
X121832Y148724D01*
X120788Y148862D01*
D02*
G37*
G36*
X131250Y148653D02*
X130206Y148515D01*
X129233Y148112D01*
X128397Y147471D01*
X127756Y146635D01*
X127353Y145662D01*
X127216Y144618D01*
X127353Y143574D01*
X127756Y142601D01*
X128397Y141765D01*
X129233Y141124D01*
X130206Y140721D01*
X131250Y140584D01*
X132294Y140721D01*
X133267Y141124D01*
X134103Y141765D01*
X134744Y142601D01*
X135147Y143574D01*
X135284Y144618D01*
X135147Y145662D01*
X134744Y146635D01*
X134103Y147471D01*
X133267Y148112D01*
X132294Y148515D01*
X131250Y148653D01*
D02*
G37*
G36*
X34000Y158044D02*
X32236Y157870D01*
X30539Y157355D01*
X28976Y156519D01*
X27605Y155395D01*
X26481Y154024D01*
X25645Y152461D01*
X25130Y150764D01*
X24957Y149000D01*
X25130Y147236D01*
X25645Y145539D01*
X26481Y143976D01*
X27605Y142605D01*
X28976Y141481D01*
X30539Y140645D01*
X32236Y140130D01*
X34000Y139956D01*
X35764Y140130D01*
X37461Y140645D01*
X39024Y141481D01*
X40395Y142605D01*
X41519Y143976D01*
X42355Y145539D01*
X42870Y147236D01*
X43044Y149000D01*
X42870Y150764D01*
X42355Y152461D01*
X41519Y154024D01*
X40395Y155395D01*
X39024Y156519D01*
X37461Y157355D01*
X35764Y157870D01*
X34000Y158044D01*
D02*
G37*
G36*
X486112Y139811D02*
X485488D01*
Y139187D01*
X485841Y139458D01*
X486112Y139811D01*
D02*
G37*
G36*
X480488D02*
X479865D01*
X480135Y139458D01*
X480488Y139187D01*
Y139811D01*
D02*
G37*
G36*
X20000Y138624D02*
Y138000D01*
X20624D01*
X20353Y138353D01*
X20000Y138624D01*
D02*
G37*
G36*
X15000D02*
X14647Y138353D01*
X14376Y138000D01*
X15000D01*
Y138624D01*
D02*
G37*
G36*
X434500Y147039D02*
X433325Y146884D01*
X432231Y146431D01*
X431291Y145709D01*
X430569Y144769D01*
X430116Y143675D01*
X429961Y142500D01*
X430116Y141325D01*
X430569Y140231D01*
X431291Y139291D01*
X432231Y138569D01*
X433325Y138116D01*
X434500Y137961D01*
X435675Y138116D01*
X436769Y138569D01*
X437709Y139291D01*
X438431Y140231D01*
X438884Y141325D01*
X439039Y142500D01*
X438884Y143675D01*
X438431Y144769D01*
X437709Y145709D01*
X436769Y146431D01*
X435675Y146884D01*
X434500Y147039D01*
D02*
G37*
G36*
X494799Y146850D02*
X493624Y146695D01*
X492530Y146242D01*
X491590Y145520D01*
X490869Y144580D01*
X490415Y143486D01*
X490260Y142311D01*
X490415Y141136D01*
X490869Y140042D01*
X491590Y139102D01*
X492530Y138380D01*
X493624Y137927D01*
X494799Y137772D01*
X495974Y137927D01*
X497069Y138380D01*
X498009Y139102D01*
X498730Y140042D01*
X499183Y141136D01*
X499338Y142311D01*
X499183Y143486D01*
X498730Y144580D01*
X498009Y145520D01*
X497069Y146242D01*
X495974Y146695D01*
X494799Y146850D01*
D02*
G37*
G36*
X158870Y141461D02*
X154595D01*
Y139167D01*
X154825Y139212D01*
X155125Y138762D01*
X154880Y138396D01*
X154706Y137518D01*
X157000D01*
Y140018D01*
X158870D01*
Y141461D01*
D02*
G37*
G36*
X20624Y133000D02*
X20000D01*
Y132376D01*
X20353Y132647D01*
X20624Y133000D01*
D02*
G37*
G36*
X15000D02*
X14376D01*
X14647Y132647D01*
X15000Y132376D01*
Y133000D01*
D02*
G37*
G36*
X130000Y139534D02*
X128956Y139397D01*
X127983Y138994D01*
X127147Y138353D01*
X126506Y137517D01*
X126103Y136544D01*
X125965Y135500D01*
X126103Y134456D01*
X126506Y133483D01*
X127147Y132647D01*
X127983Y132006D01*
X128956Y131603D01*
X130000Y131465D01*
X131044Y131603D01*
X132017Y132006D01*
X132853Y132647D01*
X133494Y133483D01*
X133897Y134456D01*
X134035Y135500D01*
X133897Y136544D01*
X133494Y137517D01*
X132853Y138353D01*
X132017Y138994D01*
X131044Y139397D01*
X130000Y139534D01*
D02*
G37*
G36*
X498500Y134030D02*
X497586Y133910D01*
X496735Y133557D01*
X496004Y132996D01*
X495443Y132265D01*
X495090Y131414D01*
X494970Y130500D01*
X495090Y129586D01*
X495443Y128735D01*
X496004Y128004D01*
X496735Y127443D01*
X497586Y127090D01*
X498500Y126970D01*
X499414Y127090D01*
X500265Y127443D01*
X500996Y128004D01*
X501557Y128735D01*
X501910Y129586D01*
X502030Y130500D01*
X501910Y131414D01*
X501557Y132265D01*
X500996Y132996D01*
X500265Y133557D01*
X499414Y133910D01*
X498500Y134030D01*
D02*
G37*
G36*
X425710Y127397D02*
X424666Y127259D01*
X423693Y126856D01*
X422858Y126215D01*
X422216Y125379D01*
X421813Y124406D01*
X421676Y123362D01*
X421813Y122318D01*
X422216Y121345D01*
X422858Y120509D01*
X423693Y119868D01*
X424666Y119465D01*
X425710Y119328D01*
X426755Y119465D01*
X427728Y119868D01*
X428563Y120509D01*
X429204Y121345D01*
X429607Y122318D01*
X429745Y123362D01*
X429607Y124406D01*
X429204Y125379D01*
X428563Y126215D01*
X427728Y126856D01*
X426755Y127259D01*
X425710Y127397D01*
D02*
G37*
G36*
X458000Y123618D02*
X456838Y123465D01*
X455754Y123017D01*
X454824Y122303D01*
X454110Y121373D01*
X453662Y120290D01*
X453509Y119127D01*
X453662Y117965D01*
X454110Y116882D01*
X454824Y115951D01*
X455754Y115238D01*
X456838Y114789D01*
X458000Y114636D01*
X459162Y114789D01*
X460246Y115238D01*
X461176Y115951D01*
X461890Y116882D01*
X462338Y117965D01*
X462491Y119127D01*
X462338Y120290D01*
X461890Y121373D01*
X461176Y122303D01*
X460246Y123017D01*
X459162Y123465D01*
X458000Y123618D01*
D02*
G37*
G36*
X171500Y122035D02*
X170456Y121897D01*
X169483Y121494D01*
X168647Y120853D01*
X168006Y120017D01*
X167603Y119044D01*
X167465Y118000D01*
X167603Y116956D01*
X168006Y115983D01*
X168647Y115147D01*
X169483Y114506D01*
X170456Y114103D01*
X171500Y113965D01*
X172544Y114103D01*
X173517Y114506D01*
X174353Y115147D01*
X174994Y115983D01*
X175397Y116956D01*
X175534Y118000D01*
X175397Y119044D01*
X174994Y120017D01*
X174353Y120853D01*
X173517Y121494D01*
X172544Y121897D01*
X171500Y122035D01*
D02*
G37*
G36*
X498512Y120652D02*
X497598Y120532D01*
X496747Y120179D01*
X496016Y119618D01*
X495455Y118887D01*
X495102Y118036D01*
X494982Y117122D01*
X495102Y116208D01*
X495455Y115357D01*
X496016Y114626D01*
X496747Y114065D01*
X497598Y113712D01*
X498512Y113592D01*
X499426Y113712D01*
X500277Y114065D01*
X501008Y114626D01*
X501569Y115357D01*
X501922Y116208D01*
X502042Y117122D01*
X501922Y118036D01*
X501569Y118887D01*
X501008Y119618D01*
X500277Y120179D01*
X499426Y120532D01*
X498512Y120652D01*
D02*
G37*
G36*
X436500Y110124D02*
Y109500D01*
X437124D01*
X436853Y109853D01*
X436500Y110124D01*
D02*
G37*
G36*
X431500D02*
X431147Y109853D01*
X430876Y109500D01*
X431500D01*
Y110124D01*
D02*
G37*
G36*
X347500Y110039D02*
X346325Y109884D01*
X345231Y109431D01*
X344558Y108915D01*
X344473Y109000D01*
X344000D01*
Y108527D01*
X344085Y108442D01*
X343569Y107769D01*
X343116Y106675D01*
X342961Y105500D01*
X343116Y104325D01*
X343569Y103231D01*
X344291Y102291D01*
X345231Y101569D01*
X346325Y101116D01*
X347500Y100961D01*
X348675Y101116D01*
X349769Y101569D01*
X350709Y102291D01*
X351431Y103231D01*
X351884Y104325D01*
X352039Y105500D01*
X351884Y106675D01*
X351431Y107769D01*
X350709Y108709D01*
X349769Y109431D01*
X348675Y109884D01*
X347500Y110039D01*
D02*
G37*
G36*
X458000Y113618D02*
X456838Y113465D01*
X455754Y113017D01*
X454824Y112303D01*
X454110Y111373D01*
X453662Y110290D01*
X453509Y109127D01*
X453662Y107965D01*
X454110Y106882D01*
X454824Y105951D01*
X455754Y105238D01*
X456838Y104789D01*
X458000Y104636D01*
X459162Y104789D01*
X460246Y105238D01*
X461176Y105951D01*
X461890Y106882D01*
X462338Y107965D01*
X462491Y109127D01*
X462338Y110290D01*
X461890Y111373D01*
X461176Y112303D01*
X460246Y113017D01*
X459162Y113465D01*
X458000Y113618D01*
D02*
G37*
G36*
X437124Y104500D02*
X436500D01*
Y103876D01*
X436853Y104147D01*
X437124Y104500D01*
D02*
G37*
G36*
X431500D02*
X430876D01*
X431147Y104147D01*
X431500Y103876D01*
Y104500D01*
D02*
G37*
G36*
X494811Y109850D02*
X493636Y109695D01*
X492542Y109242D01*
X491602Y108520D01*
X490880Y107580D01*
X490427Y106486D01*
X490272Y105311D01*
X490427Y104136D01*
X490880Y103042D01*
X491602Y102102D01*
X492542Y101380D01*
X493636Y100927D01*
X494811Y100772D01*
X495986Y100927D01*
X497080Y101380D01*
X498021Y102102D01*
X498742Y103042D01*
X499195Y104136D01*
X499350Y105311D01*
X499195Y106486D01*
X498742Y107580D01*
X498021Y108520D01*
X497080Y109242D01*
X495986Y109695D01*
X494811Y109850D01*
D02*
G37*
G36*
X483000D02*
X481825Y109695D01*
X480731Y109242D01*
X479791Y108520D01*
X479069Y107580D01*
X478616Y106486D01*
X478461Y105311D01*
X478616Y104136D01*
X479069Y103042D01*
X479791Y102102D01*
X480731Y101380D01*
X481825Y100927D01*
X483000Y100772D01*
X484175Y100927D01*
X485269Y101380D01*
X486209Y102102D01*
X486931Y103042D01*
X487384Y104136D01*
X487539Y105311D01*
X487384Y106486D01*
X486931Y107580D01*
X486209Y108520D01*
X485269Y109242D01*
X484175Y109695D01*
X483000Y109850D01*
D02*
G37*
G36*
X485500Y96624D02*
Y96000D01*
X486124D01*
X485853Y96353D01*
X485500Y96624D01*
D02*
G37*
G36*
X480500D02*
X480147Y96353D01*
X479876Y96000D01*
X480500D01*
Y96624D01*
D02*
G37*
G36*
X462453Y103580D02*
X453547D01*
Y94674D01*
X462453D01*
Y103580D01*
D02*
G37*
G36*
X33800Y110844D02*
X32036Y110670D01*
X30339Y110155D01*
X28776Y109319D01*
X27405Y108195D01*
X26281Y106824D01*
X25445Y105261D01*
X24930Y103564D01*
X24757Y101800D01*
X24930Y100036D01*
X25445Y98339D01*
X26281Y96776D01*
X27405Y95405D01*
X28776Y94281D01*
X30339Y93445D01*
X32036Y92930D01*
X33800Y92756D01*
X35564Y92930D01*
X37261Y93445D01*
X38824Y94281D01*
X40195Y95405D01*
X41319Y96776D01*
X42155Y98339D01*
X42670Y100036D01*
X42843Y101800D01*
X42670Y103564D01*
X42155Y105261D01*
X41319Y106824D01*
X40195Y108195D01*
X38824Y109319D01*
X37261Y110155D01*
X35564Y110670D01*
X33800Y110844D01*
D02*
G37*
G36*
X486124Y91000D02*
X485500D01*
Y90376D01*
X485853Y90647D01*
X486124Y91000D01*
D02*
G37*
G36*
X480500D02*
X479876D01*
X480147Y90647D01*
X480500Y90376D01*
Y91000D01*
D02*
G37*
G36*
X381626Y97897D02*
X380582Y97759D01*
X379609Y97356D01*
X378773Y96715D01*
X378132Y95879D01*
X377729Y94906D01*
X377591Y93862D01*
X377729Y92818D01*
X378132Y91845D01*
X378773Y91009D01*
X379609Y90368D01*
X380582Y89965D01*
X381626Y89828D01*
X382670Y89965D01*
X383643Y90368D01*
X384479Y91009D01*
X385120Y91845D01*
X385523Y92818D01*
X385661Y93862D01*
X385523Y94906D01*
X385120Y95879D01*
X384479Y96715D01*
X383643Y97356D01*
X382670Y97759D01*
X381626Y97897D01*
D02*
G37*
G36*
X494811Y98039D02*
X493636Y97884D01*
X492542Y97431D01*
X491602Y96709D01*
X490880Y95769D01*
X490427Y94675D01*
X490272Y93500D01*
X490427Y92325D01*
X490880Y91231D01*
X491602Y90291D01*
X492542Y89569D01*
X493636Y89116D01*
X494811Y88961D01*
X495986Y89116D01*
X497080Y89569D01*
X498021Y90291D01*
X498742Y91231D01*
X499195Y92325D01*
X499350Y93500D01*
X499195Y94675D01*
X498742Y95769D01*
X498021Y96709D01*
X497080Y97431D01*
X495986Y97884D01*
X494811Y98039D01*
D02*
G37*
G36*
X159000Y93534D02*
X157956Y93397D01*
X156983Y92994D01*
X156147Y92353D01*
X155506Y91517D01*
X155103Y90544D01*
X154965Y89500D01*
X155103Y88456D01*
X155506Y87483D01*
X156147Y86647D01*
X156983Y86006D01*
X157956Y85603D01*
X159000Y85466D01*
X160044Y85603D01*
X161017Y86006D01*
X161853Y86647D01*
X162494Y87483D01*
X162897Y88456D01*
X163034Y89500D01*
X162897Y90544D01*
X162494Y91517D01*
X161853Y92353D01*
X161017Y92994D01*
X160044Y93397D01*
X159000Y93534D01*
D02*
G37*
G36*
X118500Y92535D02*
X117456Y92397D01*
X116483Y91994D01*
X115647Y91353D01*
X115006Y90517D01*
X114603Y89544D01*
X114465Y88500D01*
X114603Y87456D01*
X115006Y86483D01*
X115647Y85647D01*
X116483Y85006D01*
X117456Y84603D01*
X118500Y84465D01*
X119544Y84603D01*
X120517Y85006D01*
X121353Y85647D01*
X121994Y86483D01*
X122397Y87456D01*
X122535Y88500D01*
X122397Y89544D01*
X121994Y90517D01*
X121353Y91353D01*
X120517Y91994D01*
X119544Y92397D01*
X118500Y92535D01*
D02*
G37*
G36*
X139500Y91535D02*
X138456Y91397D01*
X137483Y90994D01*
X136647Y90353D01*
X136006Y89517D01*
X135603Y88544D01*
X135466Y87500D01*
X135603Y86456D01*
X136006Y85483D01*
X136647Y84647D01*
X137483Y84006D01*
X138456Y83603D01*
X139500Y83465D01*
X140544Y83603D01*
X141517Y84006D01*
X142353Y84647D01*
X142994Y85483D01*
X143397Y86456D01*
X143535Y87500D01*
X143397Y88544D01*
X142994Y89517D01*
X142353Y90353D01*
X141517Y90994D01*
X140544Y91397D01*
X139500Y91535D01*
D02*
G37*
G36*
X368000Y92539D02*
X366825Y92384D01*
X365731Y91931D01*
X364791Y91209D01*
X364069Y90269D01*
X363616Y89175D01*
X363461Y88000D01*
X363616Y86825D01*
X364069Y85731D01*
X364791Y84791D01*
X365731Y84069D01*
X366825Y83616D01*
X368000Y83461D01*
X369175Y83616D01*
X370269Y84069D01*
X371209Y84791D01*
X371931Y85731D01*
X372384Y86825D01*
X372539Y88000D01*
X372384Y89175D01*
X371931Y90269D01*
X371209Y91209D01*
X370269Y91931D01*
X369175Y92384D01*
X368000Y92539D01*
D02*
G37*
G36*
X70500Y89039D02*
X69325Y88884D01*
X68231Y88431D01*
X67291Y87709D01*
X66569Y86769D01*
X66116Y85675D01*
X65961Y84500D01*
X66116Y83325D01*
X66569Y82231D01*
X67291Y81291D01*
X68231Y80569D01*
X69325Y80116D01*
X70500Y79961D01*
X71675Y80116D01*
X72769Y80569D01*
X73709Y81291D01*
X74431Y82231D01*
X74884Y83325D01*
X75039Y84500D01*
X74884Y85675D01*
X74431Y86769D01*
X73709Y87709D01*
X72769Y88431D01*
X71675Y88884D01*
X70500Y89039D01*
D02*
G37*
G36*
X176000Y87539D02*
X174825Y87384D01*
X173731Y86931D01*
X172791Y86209D01*
X172069Y85269D01*
X171616Y84175D01*
X171461Y83000D01*
X171616Y81825D01*
X172069Y80731D01*
X172791Y79791D01*
X173731Y79069D01*
X174825Y78616D01*
X176000Y78461D01*
X177175Y78616D01*
X178269Y79069D01*
X179209Y79791D01*
X179931Y80731D01*
X180384Y81825D01*
X180539Y83000D01*
X180384Y84175D01*
X179931Y85269D01*
X179209Y86209D01*
X178269Y86931D01*
X177175Y87384D01*
X176000Y87539D01*
D02*
G37*
G36*
X104000D02*
X102825Y87384D01*
X101731Y86931D01*
X100791Y86209D01*
X100069Y85269D01*
X99616Y84175D01*
X99461Y83000D01*
X99616Y81825D01*
X100069Y80731D01*
X100791Y79791D01*
X101731Y79069D01*
X102825Y78616D01*
X104000Y78461D01*
X105175Y78616D01*
X106269Y79069D01*
X107209Y79791D01*
X107931Y80731D01*
X108384Y81825D01*
X108539Y83000D01*
X108384Y84175D01*
X107931Y85269D01*
X107209Y86209D01*
X106269Y86931D01*
X105175Y87384D01*
X104000Y87539D01*
D02*
G37*
G36*
X498512Y85219D02*
X497598Y85099D01*
X496747Y84746D01*
X496016Y84185D01*
X495455Y83454D01*
X495102Y82603D01*
X494982Y81689D01*
X495102Y80775D01*
X495455Y79924D01*
X496016Y79193D01*
X496747Y78632D01*
X497598Y78279D01*
X498512Y78159D01*
X499426Y78279D01*
X500277Y78632D01*
X501008Y79193D01*
X501569Y79924D01*
X501922Y80775D01*
X502042Y81689D01*
X501922Y82603D01*
X501569Y83454D01*
X501008Y84185D01*
X500277Y84746D01*
X499426Y85099D01*
X498512Y85219D01*
D02*
G37*
G36*
X253000Y80534D02*
X251956Y80397D01*
X250983Y79994D01*
X250147Y79353D01*
X249506Y78517D01*
X249103Y77544D01*
X248966Y76500D01*
X249103Y75456D01*
X249506Y74483D01*
X250147Y73647D01*
X250983Y73006D01*
X251956Y72603D01*
X253000Y72465D01*
X254044Y72603D01*
X255017Y73006D01*
X255853Y73647D01*
X256494Y74483D01*
X256897Y75456D01*
X257034Y76500D01*
X256897Y77544D01*
X256494Y78517D01*
X255853Y79353D01*
X255017Y79994D01*
X254044Y80397D01*
X253000Y80534D01*
D02*
G37*
G36*
X501500Y72150D02*
Y71591D01*
X502059D01*
X501816Y71907D01*
X501500Y72150D01*
D02*
G37*
G36*
X496500D02*
X496184Y71907D01*
X495941Y71591D01*
X496500D01*
Y72150D01*
D02*
G37*
G36*
X23500Y91500D02*
Y71000D01*
X62500D01*
Y91000D01*
X24500D01*
X23500Y91500D01*
D02*
G37*
G36*
X298000Y79035D02*
X296956Y78897D01*
X295983Y78494D01*
X295147Y77853D01*
X294506Y77017D01*
X294103Y76044D01*
X293966Y75000D01*
X294103Y73956D01*
X294506Y72983D01*
X295147Y72147D01*
X295983Y71506D01*
X296956Y71103D01*
X298000Y70965D01*
X299044Y71103D01*
X300017Y71506D01*
X300853Y72147D01*
X301494Y72983D01*
X301897Y73956D01*
X302034Y75000D01*
X301897Y76044D01*
X301494Y77017D01*
X300853Y77853D01*
X300017Y78494D01*
X299044Y78897D01*
X298000Y79035D01*
D02*
G37*
G36*
X240500Y78535D02*
X239456Y78397D01*
X238483Y77994D01*
X237647Y77353D01*
X237006Y76517D01*
X236603Y75544D01*
X236466Y74500D01*
X236603Y73456D01*
X237006Y72483D01*
X237647Y71647D01*
X238483Y71006D01*
X239456Y70603D01*
X240500Y70465D01*
X241544Y70603D01*
X242517Y71006D01*
X243353Y71647D01*
X243994Y72483D01*
X244397Y73456D01*
X244534Y74500D01*
X244397Y75544D01*
X243994Y76517D01*
X243353Y77353D01*
X242517Y77994D01*
X241544Y78397D01*
X240500Y78535D01*
D02*
G37*
G36*
X502059Y66591D02*
X501500D01*
Y66031D01*
X501816Y66274D01*
X502059Y66591D01*
D02*
G37*
G36*
X496500D02*
X495941D01*
X496184Y66274D01*
X496500Y66031D01*
Y66591D01*
D02*
G37*
G36*
X481284Y73578D02*
X480122Y73425D01*
X479040Y72977D01*
X478111Y72263D01*
X477397Y71334D01*
X476949Y70252D01*
X476796Y69091D01*
X476949Y67929D01*
X477397Y66847D01*
X478111Y65918D01*
X479040Y65205D01*
X480122Y64756D01*
X481284Y64603D01*
X482445Y64756D01*
X483527Y65205D01*
X484456Y65918D01*
X485170Y66847D01*
X485618Y67929D01*
X485771Y69091D01*
X485618Y70252D01*
X485170Y71334D01*
X484456Y72263D01*
X483527Y72977D01*
X482445Y73425D01*
X481284Y73578D01*
D02*
G37*
G36*
X50200Y59479D02*
X44500D01*
Y56000D01*
X55610D01*
X55171Y56822D01*
X54428Y57728D01*
X53522Y58471D01*
X52488Y59024D01*
X51366Y59364D01*
X50200Y59479D01*
D02*
G37*
G36*
X39500D02*
X33800D01*
X32634Y59364D01*
X31512Y59024D01*
X30478Y58471D01*
X29572Y57728D01*
X28829Y56822D01*
X28390Y56000D01*
X39500D01*
Y59479D01*
D02*
G37*
G36*
X55610Y51000D02*
X44500D01*
Y47521D01*
X50200D01*
X51366Y47636D01*
X52488Y47976D01*
X53522Y48529D01*
X54428Y49272D01*
X55171Y50178D01*
X55610Y51000D01*
D02*
G37*
G36*
X39500D02*
X28390D01*
X28829Y50178D01*
X29572Y49272D01*
X30478Y48529D01*
X31512Y47976D01*
X32634Y47636D01*
X33800Y47521D01*
X39500D01*
Y51000D01*
D02*
G37*
G36*
X419500Y56539D02*
X418325Y56384D01*
X417231Y55931D01*
X416291Y55209D01*
X415569Y54269D01*
X415116Y53175D01*
X414961Y52000D01*
X415116Y50825D01*
X415569Y49731D01*
X416291Y48791D01*
X417231Y48069D01*
X418325Y47616D01*
X419500Y47461D01*
X420675Y47616D01*
X421769Y48069D01*
X422709Y48791D01*
X423431Y49731D01*
X423884Y50825D01*
X424039Y52000D01*
X423884Y53175D01*
X423431Y54269D01*
X422709Y55209D01*
X421769Y55931D01*
X420675Y56384D01*
X419500Y56539D01*
D02*
G37*
G36*
X303500Y54535D02*
X302456Y54397D01*
X301483Y53994D01*
X300647Y53353D01*
X300006Y52517D01*
X299603Y51544D01*
X299465Y50500D01*
X299603Y49456D01*
X300006Y48483D01*
X300647Y47647D01*
X301483Y47006D01*
X302456Y46603D01*
X303500Y46466D01*
X304544Y46603D01*
X305517Y47006D01*
X306353Y47647D01*
X306994Y48483D01*
X307397Y49456D01*
X307535Y50500D01*
X307397Y51544D01*
X306994Y52517D01*
X306353Y53353D01*
X305517Y53994D01*
X304544Y54397D01*
X303500Y54535D01*
D02*
G37*
G36*
X501500Y46559D02*
Y46000D01*
X502059D01*
X501816Y46316D01*
X501500Y46559D01*
D02*
G37*
G36*
X496500D02*
X496184Y46316D01*
X495941Y46000D01*
X496500D01*
Y46559D01*
D02*
G37*
G36*
X333500Y49539D02*
X332325Y49384D01*
X331231Y48931D01*
X330291Y48209D01*
X329569Y47269D01*
X329116Y46175D01*
X328961Y45000D01*
X329116Y43825D01*
X329569Y42731D01*
X330291Y41791D01*
X331231Y41069D01*
X332325Y40616D01*
X333500Y40461D01*
X334675Y40616D01*
X335769Y41069D01*
X336709Y41791D01*
X337431Y42731D01*
X337884Y43825D01*
X338039Y45000D01*
X337884Y46175D01*
X337431Y47269D01*
X336709Y48209D01*
X335769Y48931D01*
X334675Y49384D01*
X333500Y49539D01*
D02*
G37*
G36*
X502059Y41000D02*
X501500D01*
Y40441D01*
X501816Y40684D01*
X502059Y41000D01*
D02*
G37*
G36*
X496500D02*
X495941D01*
X496184Y40684D01*
X496500Y40441D01*
Y41000D01*
D02*
G37*
G36*
X481284Y47987D02*
X480122Y47834D01*
X479040Y47386D01*
X478111Y46673D01*
X477397Y45744D01*
X476949Y44661D01*
X476796Y43500D01*
X476949Y42339D01*
X477397Y41256D01*
X478111Y40327D01*
X479040Y39614D01*
X480122Y39166D01*
X481284Y39013D01*
X482445Y39166D01*
X483527Y39614D01*
X484456Y40327D01*
X485170Y41256D01*
X485618Y42339D01*
X485771Y43500D01*
X485618Y44661D01*
X485170Y45744D01*
X484456Y46673D01*
X483527Y47386D01*
X482445Y47834D01*
X481284Y47987D01*
D02*
G37*
G36*
X459500Y48039D02*
X458325Y47884D01*
X457231Y47431D01*
X456291Y46709D01*
X455569Y45769D01*
X455116Y44675D01*
X454961Y43500D01*
X455116Y42325D01*
X455569Y41231D01*
X456291Y40291D01*
X457231Y39569D01*
X458325Y39116D01*
X459500Y38961D01*
X460675Y39116D01*
X461769Y39569D01*
X462709Y40291D01*
X463431Y41231D01*
X463884Y42325D01*
X464039Y43500D01*
X463884Y44675D01*
X463431Y45769D01*
X462709Y46709D01*
X461769Y47431D01*
X460675Y47884D01*
X459500Y48039D01*
D02*
G37*
G36*
X435000Y47039D02*
X433825Y46884D01*
X432731Y46431D01*
X431791Y45709D01*
X431069Y44769D01*
X430616Y43675D01*
X430461Y42500D01*
X430616Y41325D01*
X431069Y40231D01*
X431791Y39291D01*
X432731Y38569D01*
X433825Y38116D01*
X435000Y37961D01*
X436175Y38116D01*
X437269Y38569D01*
X438209Y39291D01*
X438931Y40231D01*
X439384Y41325D01*
X439539Y42500D01*
X439384Y43675D01*
X438931Y44769D01*
X438209Y45709D01*
X437269Y46431D01*
X436175Y46884D01*
X435000Y47039D01*
D02*
G37*
G36*
X244216Y42539D02*
X243042Y42384D01*
X241947Y41931D01*
X241007Y41209D01*
X240286Y40269D01*
X239832Y39175D01*
X239678Y38000D01*
X239832Y36825D01*
X240286Y35731D01*
X241007Y34791D01*
X241947Y34069D01*
X243042Y33616D01*
X244216Y33461D01*
X245391Y33616D01*
X246486Y34069D01*
X247426Y34791D01*
X248147Y35731D01*
X248601Y36825D01*
X248755Y38000D01*
X248601Y39175D01*
X248147Y40269D01*
X247426Y41209D01*
X246486Y41931D01*
X245391Y42384D01*
X244216Y42539D01*
D02*
G37*
G36*
X331698Y40034D02*
X330653Y39897D01*
X329680Y39494D01*
X328845Y38853D01*
X328204Y38017D01*
X327801Y37044D01*
X327663Y36000D01*
X327801Y34956D01*
X328204Y33983D01*
X328845Y33147D01*
X329680Y32506D01*
X330653Y32103D01*
X331698Y31966D01*
X332742Y32103D01*
X333715Y32506D01*
X334550Y33147D01*
X335192Y33983D01*
X335595Y34956D01*
X335732Y36000D01*
X335595Y37044D01*
X335192Y38017D01*
X334550Y38853D01*
X333715Y39494D01*
X332742Y39897D01*
X331698Y40034D01*
D02*
G37*
G36*
X33800Y43644D02*
X32036Y43470D01*
X30339Y42955D01*
X28776Y42119D01*
X27405Y40995D01*
X26281Y39624D01*
X25445Y38061D01*
X24930Y36364D01*
X24757Y34600D01*
X24930Y32836D01*
X25445Y31139D01*
X26281Y29576D01*
X27405Y28205D01*
X28776Y27081D01*
X30339Y26245D01*
X32036Y25730D01*
X33800Y25556D01*
X35564Y25730D01*
X37261Y26245D01*
X38824Y27081D01*
X40195Y28205D01*
X41319Y29576D01*
X42155Y31139D01*
X42670Y32836D01*
X42843Y34600D01*
X42670Y36364D01*
X42155Y38061D01*
X41319Y39624D01*
X40195Y40995D01*
X38824Y42119D01*
X37261Y42955D01*
X35564Y43470D01*
X33800Y43644D01*
D02*
G37*
G36*
X308000Y30035D02*
X306956Y29897D01*
X305983Y29494D01*
X305147Y28853D01*
X304506Y28017D01*
X304103Y27044D01*
X303965Y26000D01*
X304103Y24956D01*
X304506Y23983D01*
X305147Y23147D01*
X305983Y22506D01*
X306956Y22103D01*
X308000Y21966D01*
X309044Y22103D01*
X310017Y22506D01*
X310853Y23147D01*
X311494Y23983D01*
X311897Y24956D01*
X312035Y26000D01*
X311897Y27044D01*
X311494Y28017D01*
X310853Y28853D01*
X310017Y29494D01*
X309044Y29897D01*
X308000Y30035D01*
D02*
G37*
G36*
X46500Y22124D02*
Y21500D01*
X47124D01*
X46853Y21853D01*
X46500Y22124D01*
D02*
G37*
G36*
X41500D02*
X41147Y21853D01*
X40876Y21500D01*
X41500D01*
Y22124D01*
D02*
G37*
G36*
X300162Y26234D02*
X299118Y26097D01*
X298145Y25694D01*
X297309Y25053D01*
X296668Y24217D01*
X296265Y23244D01*
X296127Y22200D01*
X296213Y21546D01*
X296053Y21417D01*
X295741Y21303D01*
X294994Y21876D01*
X294021Y22279D01*
X292977Y22416D01*
X291933Y22279D01*
X290959Y21876D01*
X290124Y21235D01*
X289483Y20399D01*
X289080Y19426D01*
X288942Y18382D01*
X289080Y17338D01*
X289483Y16365D01*
X290124Y15529D01*
X290959Y14888D01*
X291933Y14485D01*
X292977Y14347D01*
X294021Y14485D01*
X294994Y14888D01*
X295830Y15529D01*
X296471Y16365D01*
X296874Y17338D01*
X297011Y18382D01*
X296925Y19035D01*
X297085Y19165D01*
X297397Y19279D01*
X298145Y18706D01*
X299118Y18303D01*
X300162Y18166D01*
X301206Y18303D01*
X302179Y18706D01*
X303015Y19347D01*
X303656Y20183D01*
X304059Y21156D01*
X304196Y22200D01*
X304059Y23244D01*
X303656Y24217D01*
X303015Y25053D01*
X302179Y25694D01*
X301206Y26097D01*
X300162Y26234D01*
D02*
G37*
G36*
X254500Y28034D02*
X253456Y27897D01*
X252483Y27494D01*
X251647Y26853D01*
X251006Y26017D01*
X250603Y25044D01*
X250465Y24000D01*
X250603Y22956D01*
X251006Y21983D01*
X251647Y21147D01*
X252483Y20506D01*
X253456Y20103D01*
X254500Y19965D01*
X255544Y20103D01*
X256517Y20506D01*
X257353Y21147D01*
X257994Y21983D01*
X258397Y22956D01*
X258535Y24000D01*
X258397Y25044D01*
X257994Y26017D01*
X257353Y26853D01*
X256517Y27494D01*
X255544Y27897D01*
X254500Y28034D01*
D02*
G37*
G36*
X47124Y16500D02*
X46500D01*
Y15876D01*
X46853Y16147D01*
X47124Y16500D01*
D02*
G37*
G36*
X41500D02*
X40876D01*
X41147Y16147D01*
X41500Y15876D01*
Y16500D01*
D02*
G37*
G36*
X79500Y22530D02*
X78586Y22410D01*
X77735Y22057D01*
X77004Y21496D01*
X76443Y20765D01*
X76090Y19914D01*
X75970Y19000D01*
X76090Y18086D01*
X76443Y17235D01*
X77004Y16504D01*
X77735Y15943D01*
X78586Y15590D01*
X79500Y15470D01*
X80414Y15590D01*
X81265Y15943D01*
X81996Y16504D01*
X82557Y17235D01*
X82910Y18086D01*
X83030Y19000D01*
X82910Y19914D01*
X82557Y20765D01*
X81996Y21496D01*
X81265Y22057D01*
X80414Y22410D01*
X79500Y22530D01*
D02*
G37*
G36*
X119500Y21530D02*
X118586Y21410D01*
X117735Y21057D01*
X117004Y20496D01*
X116443Y19765D01*
X116090Y18914D01*
X115970Y18000D01*
X116090Y17086D01*
X116443Y16235D01*
X117004Y15504D01*
X117735Y14943D01*
X118586Y14590D01*
X119500Y14470D01*
X120414Y14590D01*
X121265Y14943D01*
X121996Y15504D01*
X122557Y16235D01*
X122910Y17086D01*
X123030Y18000D01*
X122910Y18914D01*
X122557Y19765D01*
X121996Y20496D01*
X121265Y21057D01*
X120414Y21410D01*
X119500Y21530D01*
D02*
G37*
G36*
X226000Y20535D02*
X224956Y20397D01*
X223983Y19994D01*
X223147Y19353D01*
X222506Y18517D01*
X222103Y17544D01*
X221966Y16500D01*
X222103Y15456D01*
X222506Y14483D01*
X223147Y13647D01*
X223983Y13006D01*
X224956Y12603D01*
X226000Y12466D01*
X227044Y12603D01*
X228017Y13006D01*
X228853Y13647D01*
X229494Y14483D01*
X229897Y15456D01*
X230034Y16500D01*
X229897Y17544D01*
X229494Y18517D01*
X228853Y19353D01*
X228017Y19994D01*
X227044Y20397D01*
X226000Y20535D01*
D02*
G37*
G36*
X131000Y19539D02*
X129825Y19384D01*
X128731Y18931D01*
X127791Y18209D01*
X127069Y17269D01*
X126616Y16175D01*
X126461Y15000D01*
X126616Y13825D01*
X127069Y12731D01*
X127791Y11791D01*
X128731Y11069D01*
X129825Y10616D01*
X131000Y10461D01*
X132175Y10616D01*
X133269Y11069D01*
X134209Y11791D01*
X134931Y12731D01*
X135384Y13825D01*
X135539Y15000D01*
X135384Y16175D01*
X134931Y17269D01*
X134209Y18209D01*
X133269Y18931D01*
X132175Y19384D01*
X131000Y19539D01*
D02*
G37*
G36*
X250900Y19123D02*
X249725Y18969D01*
X248631Y18515D01*
X247691Y17794D01*
X246969Y16854D01*
X246516Y15759D01*
X246361Y14584D01*
X246516Y13410D01*
X246969Y12315D01*
X247691Y11375D01*
X248631Y10654D01*
X249725Y10200D01*
X250900Y10046D01*
X252075Y10200D01*
X253169Y10654D01*
X254109Y11375D01*
X254831Y12315D01*
X255284Y13410D01*
X255439Y14584D01*
X255284Y15759D01*
X254831Y16854D01*
X254109Y17794D01*
X253169Y18515D01*
X252075Y18969D01*
X250900Y19123D01*
D02*
G37*
G36*
X341000Y17034D02*
X339956Y16897D01*
X338983Y16494D01*
X338147Y15853D01*
X337506Y15017D01*
X337103Y14044D01*
X336965Y13000D01*
X337103Y11956D01*
X337506Y10983D01*
X338147Y10147D01*
X338983Y9506D01*
X339956Y9103D01*
X341000Y8965D01*
X342044Y9103D01*
X343017Y9506D01*
X343853Y10147D01*
X344494Y10983D01*
X344897Y11956D01*
X345035Y13000D01*
X344897Y14044D01*
X344494Y15017D01*
X343853Y15853D01*
X343017Y16494D01*
X342044Y16897D01*
X341000Y17034D01*
D02*
G37*
G36*
X500500Y22837D02*
X498971Y22686D01*
X497501Y22240D01*
X496146Y21516D01*
X494958Y20542D01*
X493984Y19354D01*
X493260Y17999D01*
X492814Y16529D01*
X492663Y15000D01*
X492814Y13471D01*
X493260Y12001D01*
X493984Y10646D01*
X494958Y9458D01*
X496146Y8484D01*
X497501Y7760D01*
X498971Y7314D01*
X500500Y7163D01*
X502029Y7314D01*
X503499Y7760D01*
X504854Y8484D01*
X506042Y9458D01*
X507016Y10646D01*
X507740Y12001D01*
X508186Y13471D01*
X508337Y15000D01*
X508186Y16529D01*
X507740Y17999D01*
X507016Y19354D01*
X506042Y20542D01*
X504854Y21516D01*
X503499Y22240D01*
X502029Y22686D01*
X500500Y22837D01*
D02*
G37*
G36*
X15000D02*
X13471Y22686D01*
X12001Y22240D01*
X10646Y21516D01*
X9458Y20542D01*
X8484Y19354D01*
X7760Y17999D01*
X7314Y16529D01*
X7163Y15000D01*
X7314Y13471D01*
X7760Y12001D01*
X8484Y10646D01*
X9458Y9458D01*
X10646Y8484D01*
X12001Y7760D01*
X13471Y7314D01*
X15000Y7163D01*
X16529Y7314D01*
X17999Y7760D01*
X19354Y8484D01*
X20542Y9458D01*
X21516Y10646D01*
X22240Y12001D01*
X22686Y13471D01*
X22837Y15000D01*
X22686Y16529D01*
X22240Y17999D01*
X21516Y19354D01*
X20542Y20542D01*
X19354Y21516D01*
X17999Y22240D01*
X16529Y22686D01*
X15000Y22837D01*
D02*
G37*
%LPD*%
G36*
X102832Y212825D02*
X103286Y211731D01*
X104007Y210791D01*
X104947Y210069D01*
X106042Y209616D01*
X107217Y209461D01*
X108391Y209616D01*
X109486Y210069D01*
X109735Y209658D01*
X100346Y200268D01*
X99756Y200386D01*
X99557Y200865D01*
X98996Y201596D01*
X98265Y202157D01*
X98020Y202259D01*
Y202800D01*
X98517Y203006D01*
X99353Y203647D01*
X99994Y204483D01*
X100397Y205456D01*
X100534Y206500D01*
X100397Y207544D01*
X99994Y208517D01*
X99646Y208971D01*
X99775Y209454D01*
X100053Y209569D01*
X100993Y210291D01*
X101714Y211231D01*
X102168Y212325D01*
X102281Y213184D01*
X102785D01*
X102832Y212825D01*
D02*
G37*
G36*
X92875Y204799D02*
X93006Y204483D01*
X93647Y203647D01*
X94483Y203006D01*
X94980Y202800D01*
Y202259D01*
X94735Y202157D01*
X94004Y201596D01*
X93443Y200865D01*
X93090Y200014D01*
X92970Y199100D01*
X93090Y198186D01*
X93240Y197824D01*
X92906Y197324D01*
X85465D01*
X85274Y197786D01*
X92385Y204897D01*
X92875Y204799D01*
D02*
G37*
G36*
X263914Y143458D02*
X264576Y143016D01*
X265356Y142861D01*
X347591D01*
X347682Y142739D01*
X347432Y142239D01*
X211202D01*
X209524Y143917D01*
X209535Y144000D01*
X209397Y145044D01*
X209190Y145545D01*
X209467Y145961D01*
X261411D01*
X263914Y143458D01*
D02*
G37*
G36*
X390227Y138390D02*
X390091Y137362D01*
X390229Y136318D01*
X390632Y135345D01*
X391273Y134509D01*
X392109Y133868D01*
X393082Y133465D01*
X394126Y133328D01*
X395170Y133465D01*
X396143Y133868D01*
X396979Y134509D01*
X397620Y135345D01*
X398023Y136318D01*
X398089Y136818D01*
X398585Y136868D01*
X421225Y114228D01*
X421092Y113211D01*
X421180Y112536D01*
X421078Y112447D01*
X420708Y112295D01*
X419977Y112856D01*
X419004Y113259D01*
X417959Y113397D01*
X416953Y113264D01*
X398075Y132142D01*
X397414Y132584D01*
X396633Y132739D01*
X381183D01*
X380507Y133415D01*
X379846Y133857D01*
X379065Y134012D01*
X325347D01*
X324567Y133857D01*
X323905Y133415D01*
X318756Y128266D01*
X318266Y128364D01*
X318141Y128664D01*
X317500Y129500D01*
X316664Y130141D01*
X315842Y130482D01*
X315972Y130969D01*
X316000Y130965D01*
X317044Y131103D01*
X318017Y131506D01*
X318853Y132147D01*
X319494Y132983D01*
X319897Y133956D01*
X320035Y135000D01*
X319897Y136044D01*
X319494Y137017D01*
X319000Y137661D01*
X319243Y138161D01*
X351074D01*
X351854Y138316D01*
X352516Y138758D01*
X355840Y142082D01*
X356339Y142049D01*
X356647Y141647D01*
X357483Y141006D01*
X358456Y140603D01*
X359500Y140465D01*
X360544Y140603D01*
X361517Y141006D01*
X362353Y141647D01*
X362994Y142483D01*
X363397Y143456D01*
X363490Y144161D01*
X366574D01*
X367354Y144316D01*
X367870Y144661D01*
X383955D01*
X390227Y138390D01*
D02*
G37*
G36*
X312103Y133956D02*
X312506Y132983D01*
X313147Y132147D01*
X313983Y131506D01*
X314806Y131165D01*
X314675Y130678D01*
X314647Y130682D01*
X313603Y130544D01*
X312630Y130141D01*
X311794Y129500D01*
X311170Y128686D01*
X298397D01*
X297617Y128531D01*
X296955Y128089D01*
X285905Y117039D01*
X278615D01*
X278464Y117539D01*
X278762Y117738D01*
X295239Y134216D01*
X312069D01*
X312103Y133956D01*
D02*
G37*
G36*
X311794Y123794D02*
X312630Y123153D01*
X312931Y123029D01*
X313028Y122538D01*
X306109Y115619D01*
X305619Y115716D01*
X305494Y116017D01*
X304853Y116853D01*
X304017Y117494D01*
X303044Y117897D01*
X302000Y118035D01*
X300956Y117897D01*
X299983Y117494D01*
X299147Y116853D01*
X298506Y116017D01*
X298103Y115044D01*
X297966Y114000D01*
X298103Y112956D01*
X298506Y111983D01*
X299147Y111147D01*
X299983Y110506D01*
X300284Y110381D01*
X300381Y109891D01*
X279529Y89039D01*
X233409D01*
X233239Y89539D01*
X233567Y89791D01*
X234288Y90731D01*
X234742Y91825D01*
X234896Y93000D01*
X234742Y94175D01*
X234288Y95269D01*
X233567Y96209D01*
X232627Y96931D01*
X231532Y97384D01*
X230358Y97539D01*
X229183Y97384D01*
X228088Y96931D01*
X227148Y96209D01*
X226427Y95269D01*
X225973Y94175D01*
X225819Y93000D01*
X225973Y91825D01*
X226427Y90731D01*
X227148Y89791D01*
X227476Y89539D01*
X227306Y89039D01*
X218845D01*
X216784Y91100D01*
X216660Y92044D01*
X216257Y93017D01*
X215615Y93853D01*
X214780Y94494D01*
X214012Y94812D01*
X213851Y95359D01*
X223079Y104587D01*
X224000Y104465D01*
X225044Y104603D01*
X226017Y105006D01*
X226853Y105647D01*
X227494Y106483D01*
X227590Y106716D01*
X246109D01*
X246792Y106851D01*
X247371Y107238D01*
X257348Y117216D01*
X269051D01*
X269381Y116716D01*
X269103Y116044D01*
X268966Y115000D01*
X269103Y113956D01*
X269506Y112983D01*
X270147Y112147D01*
X270983Y111506D01*
X271956Y111103D01*
X273000Y110966D01*
X274044Y111103D01*
X275017Y111506D01*
X275853Y112147D01*
X276477Y112961D01*
X286750D01*
X287530Y113116D01*
X288192Y113558D01*
X299242Y124608D01*
X311170D01*
X311794Y123794D01*
D02*
G37*
G36*
X220046Y107888D02*
X220103Y107456D01*
X220337Y106891D01*
X185359Y71913D01*
X184438Y72035D01*
X184195Y72003D01*
X183974Y72451D01*
X219572Y108049D01*
X220046Y107888D01*
D02*
G37*
%LPC*%
G36*
X223500Y179500D02*
X222876D01*
X223147Y179147D01*
X223500Y178876D01*
Y179500D01*
D02*
G37*
%LPD*%
D13*
X298397Y126647D02*
X314647D01*
X286750Y115000D02*
X298397Y126647D01*
X280374Y87000D02*
X325347Y131973D01*
X379065D01*
X212763Y91000D02*
X214000D01*
X218000Y87000D01*
X280374D01*
X351074Y140200D02*
X354800Y143926D01*
X210357Y140200D02*
X351074D01*
X345826Y146700D02*
X349726Y150600D01*
X338926Y146700D02*
X345826D01*
X331000Y154626D02*
X338926Y146700D01*
X265356Y144900D02*
X350400D01*
X262256Y148000D02*
X265356Y144900D01*
X350400D02*
X351000Y145500D01*
X354800Y145174D02*
X358426Y148800D01*
X354800Y143926D02*
Y145174D01*
X349726Y150600D02*
X364400D01*
X206557Y144000D02*
X210357Y140200D01*
X282215Y201000D02*
X298581D01*
X345281Y154300D01*
X409691Y229809D02*
Y297642D01*
X202267Y306767D02*
X203000Y307500D01*
X195308Y303074D02*
X199000Y306767D01*
X202267D01*
X195308Y280424D02*
Y303074D01*
Y280424D02*
X197000Y278732D01*
X183815Y258315D02*
Y313185D01*
X189630Y319000D01*
X178000Y252500D02*
X183815Y258315D01*
X197000Y255000D02*
Y278732D01*
X421000Y137518D02*
Y288500D01*
Y137518D02*
X443000Y115518D01*
X280000Y180500D02*
X300500Y160000D01*
X331000D01*
X364400Y150600D02*
X365000Y150000D01*
X345281Y154300D02*
X367074D01*
X372774Y148600D01*
X372214Y156286D02*
X372500Y156000D01*
X372214Y156286D02*
Y171714D01*
X371928Y172000D02*
X372214Y171714D01*
X372774Y148600D02*
X388262D01*
X367074Y146700D02*
X384800D01*
X366574Y146200D02*
X367074Y146700D01*
X384800D02*
X394500Y137000D01*
X363426Y146200D02*
X366574D01*
X388262Y148600D02*
X397926Y138936D01*
X361200Y148426D02*
X363426Y146200D01*
X361200Y148426D02*
Y148800D01*
X358426D02*
X361200D01*
X425488Y112849D02*
X425500D01*
X425126Y113211D02*
X425488Y112849D01*
X380339Y130700D02*
X396633D01*
X418333Y109000D01*
X379065Y131973D02*
X380339Y130700D01*
X399401Y138936D02*
X425126Y113211D01*
X331000Y154626D02*
Y160000D01*
X205500Y144000D02*
X206557D01*
X198500Y148000D02*
X262256D01*
X397926Y138936D02*
X399401D01*
X273000Y115000D02*
X286750D01*
X270672Y74753D02*
X309920Y114000D01*
X320500D01*
X266753Y74753D02*
X270672D01*
X227700Y35700D02*
X266753Y74753D01*
X373847Y126987D02*
X427000Y73833D01*
Y73500D02*
Y73833D01*
X373847Y126987D02*
Y127811D01*
X512500Y0D02*
G03*
X515500Y3000I0J3000D01*
G01*
Y338000D02*
G03*
X512000Y341000I-3250J-250D01*
G01*
X3000Y341000D02*
G03*
X0Y338000I0J-3000D01*
G01*
Y3000D02*
G03*
X3000Y0I3000J0D01*
G01*
X512500D01*
X515500Y3000D02*
Y335500D01*
Y338000D01*
X3000Y341000D02*
X512000D01*
X0Y3000D02*
Y338000D01*
D16*
X287000Y187563D02*
X288437D01*
X302948Y173052D01*
X322968D01*
X345049Y233000D02*
X409691Y297642D01*
X192000Y312420D02*
X192558Y312978D01*
X203207D01*
X207500Y308685D01*
Y256000D02*
Y308685D01*
X294500Y136000D02*
X316000D01*
X277500Y119000D02*
X294500Y136000D01*
X256609Y119000D02*
X277500D01*
X246109Y108500D02*
X256609Y119000D01*
X224000Y108500D02*
X246109D01*
X343500Y151500D02*
Y152521D01*
X322968Y173052D02*
X343500Y152521D01*
X178000Y70000D02*
X179000D01*
X231000Y122000D01*
X224000Y108031D02*
Y108500D01*
X184438Y68469D02*
X224000Y108031D01*
X184438Y68000D02*
Y68469D01*
D93*
X115500Y181500D02*
X119050Y177950D01*
X113037Y181500D02*
X115500D01*
X119050Y177950D02*
X153885D01*
X179935Y204000D01*
X232500D01*
X97065Y213500D02*
X97783D01*
X80865Y197300D02*
X97065Y213500D01*
X42200Y197300D02*
X80865D01*
X42200D02*
X44950Y194550D01*
X98550D02*
X141000Y237000D01*
X44950Y194550D02*
X98550D01*
D96*
X463929Y335071D02*
G03*
X456858Y338000I-7071J-7071D01*
G01*
X294142D02*
G03*
X287071Y335071I0J-10000D01*
G01*
X294142Y338000D02*
X456858D01*
X463929Y335071D02*
X475000Y324000D01*
X273000Y321000D02*
X287071Y335071D01*
D101*
X500500Y15000D02*
D03*
Y326000D02*
D03*
X15000D02*
D03*
Y15000D02*
D03*
D102*
X482988Y154122D02*
D03*
X494799D02*
D03*
X482988Y142311D02*
D03*
X494799D02*
D03*
X200000Y230000D02*
D03*
X427000Y165000D02*
D03*
X434000Y107000D02*
D03*
X459500Y43500D02*
D03*
X347500Y105500D02*
D03*
X368000Y88000D02*
D03*
X434500Y142500D02*
D03*
X435000Y42500D02*
D03*
X419500Y52000D02*
D03*
X494811Y93500D02*
D03*
X483000D02*
D03*
X494811Y105311D02*
D03*
X483000D02*
D03*
X230358Y93000D02*
D03*
X226000Y182000D02*
D03*
X250900Y14584D02*
D03*
X333500Y45000D02*
D03*
X244216Y38000D02*
D03*
X311500Y224000D02*
D03*
X316398Y177102D02*
D03*
X107217Y214000D02*
D03*
X97783Y213500D02*
D03*
X497500Y232500D02*
D03*
X499000Y286000D02*
D03*
X497500Y312000D02*
D03*
X445500Y323000D02*
D03*
X444500Y286500D02*
D03*
X485000Y218500D02*
D03*
X494500Y209500D02*
D03*
X320000Y299500D02*
D03*
X293500Y331000D02*
D03*
X367500Y327500D02*
D03*
X283000Y331500D02*
D03*
X269500Y299500D02*
D03*
X283000D02*
D03*
X428500Y305500D02*
D03*
X70000Y332500D02*
D03*
X57500Y300500D02*
D03*
X36000Y331500D02*
D03*
X209000Y319000D02*
D03*
X113500Y301000D02*
D03*
X140500Y329500D02*
D03*
X52500Y291500D02*
D03*
X104000Y83000D02*
D03*
X37000Y234500D02*
D03*
X17500Y135500D02*
D03*
X70500Y84500D02*
D03*
X44000Y19000D02*
D03*
X176000Y83000D02*
D03*
X131000Y15000D02*
D03*
D103*
X268000Y160000D02*
D03*
X458000Y119127D02*
D03*
Y109127D02*
D03*
X260500Y240000D02*
D03*
X475000Y324000D02*
D03*
X465000Y314000D02*
D03*
X475000D02*
D03*
X465000Y304000D02*
D03*
X475000D02*
D03*
X465000Y294000D02*
D03*
X475000D02*
D03*
X465000Y284000D02*
D03*
X475000D02*
D03*
X465000Y274000D02*
D03*
X475000D02*
D03*
X465000Y264000D02*
D03*
X475000D02*
D03*
X465000Y254000D02*
D03*
X475000D02*
D03*
X273000Y321000D02*
D03*
X283000Y311000D02*
D03*
Y321000D02*
D03*
X293000Y311000D02*
D03*
Y321000D02*
D03*
X303000Y311000D02*
D03*
Y321000D02*
D03*
X313000Y311000D02*
D03*
Y321000D02*
D03*
X323000Y311000D02*
D03*
Y321000D02*
D03*
X333000Y311000D02*
D03*
Y321000D02*
D03*
X343000Y311000D02*
D03*
Y321000D02*
D03*
X46000D02*
D03*
X56000Y311000D02*
D03*
Y321000D02*
D03*
X66000Y311000D02*
D03*
Y321000D02*
D03*
X76000Y311000D02*
D03*
Y321000D02*
D03*
X86000Y311000D02*
D03*
Y321000D02*
D03*
X96000Y311000D02*
D03*
Y321000D02*
D03*
X106000Y311000D02*
D03*
Y321000D02*
D03*
X116000Y311000D02*
D03*
Y321000D02*
D03*
D104*
X268000Y150000D02*
D03*
X458000Y99127D02*
D03*
X465000Y324000D02*
D03*
D105*
X427000Y93500D02*
D03*
X432000D02*
D03*
X427000Y88500D02*
D03*
X432000D02*
D03*
X427000Y83500D02*
D03*
X432000D02*
D03*
X427000Y78500D02*
D03*
X432000D02*
D03*
X427000Y73500D02*
D03*
X119500Y18000D02*
D03*
X79500Y19000D02*
D03*
D106*
X432000Y73500D02*
D03*
D107*
X499000Y69091D02*
D03*
Y43500D02*
D03*
X481284Y69091D02*
D03*
Y43500D02*
D03*
D108*
X250500Y240000D02*
D03*
X273000Y311000D02*
D03*
X46000D02*
D03*
D109*
X34000Y149000D02*
D03*
Y216200D02*
D03*
X33800Y34600D02*
D03*
Y101800D02*
D03*
D110*
X42200Y197300D02*
D03*
Y167900D02*
D03*
X42000Y82900D02*
D03*
Y53500D02*
D03*
D111*
X120788Y144827D02*
D03*
X130000Y135500D02*
D03*
X131250Y144618D02*
D03*
X314647Y126647D02*
D03*
X316000Y135000D02*
D03*
X389022Y152535D02*
D03*
X300162Y22200D02*
D03*
X212763Y91000D02*
D03*
X113037Y181500D02*
D03*
X107222Y185559D02*
D03*
X271000Y40360D02*
D03*
X415560Y277000D02*
D03*
X171500Y118000D02*
D03*
X287000Y187563D02*
D03*
X466163Y190000D02*
D03*
X351000Y145500D02*
D03*
X282215Y201000D02*
D03*
X474000Y190000D02*
D03*
X409691Y229809D02*
D03*
X345049Y233000D02*
D03*
X203000Y307500D02*
D03*
X199108Y301500D02*
D03*
X207500Y256000D02*
D03*
X173839Y310500D02*
D03*
X183000Y154000D02*
D03*
X184000Y161000D02*
D03*
X197000Y255000D02*
D03*
X178000Y252500D02*
D03*
X421000Y288500D02*
D03*
X192000Y312420D02*
D03*
X409691Y297642D02*
D03*
X407398Y304358D02*
D03*
X364000Y190500D02*
D03*
X321500Y200063D02*
D03*
X265500Y170500D02*
D03*
X344000Y150500D02*
D03*
X280000Y180500D02*
D03*
X381500Y152898D02*
D03*
X359500Y144500D02*
D03*
X365000Y150000D02*
D03*
X372500Y156000D02*
D03*
X371928Y172000D02*
D03*
X331000Y160000D02*
D03*
X337000Y154000D02*
D03*
X189630Y319000D02*
D03*
X205500Y144000D02*
D03*
X198500Y148000D02*
D03*
X209000Y173500D02*
D03*
X82500Y223000D02*
D03*
X273000Y115000D02*
D03*
X214500Y84000D02*
D03*
X171761Y31239D02*
D03*
X224000Y108500D02*
D03*
X231000Y122000D02*
D03*
X178000Y70000D02*
D03*
X184438Y68000D02*
D03*
X341500Y111500D02*
D03*
X467642Y166500D02*
D03*
X386626Y124862D02*
D03*
X373472Y128173D02*
D03*
X389500Y190500D02*
D03*
X320500Y114000D02*
D03*
X394126Y137362D02*
D03*
X398626Y159362D02*
D03*
X436858Y189500D02*
D03*
X387000Y46000D02*
D03*
X425710Y123362D02*
D03*
X425126Y113211D02*
D03*
X417959Y109362D02*
D03*
X442626Y115880D02*
D03*
X444626Y123362D02*
D03*
X434500Y182000D02*
D03*
X457000Y172000D02*
D03*
X237000Y182000D02*
D03*
Y171500D02*
D03*
X225500D02*
D03*
X448000Y242500D02*
D03*
X438760Y250500D02*
D03*
X448000D02*
D03*
X438760Y242500D02*
D03*
X351500Y276260D02*
D03*
X343500Y285500D02*
D03*
Y276260D02*
D03*
X351500Y285500D02*
D03*
X254500Y24000D02*
D03*
X240500Y74500D02*
D03*
X118500Y88500D02*
D03*
X341000Y13000D02*
D03*
X303500Y50500D02*
D03*
X298000Y75000D02*
D03*
X331698Y36000D02*
D03*
X292977Y18382D02*
D03*
X308000Y26000D02*
D03*
X302000Y114000D02*
D03*
X226000Y16500D02*
D03*
X219000Y21500D02*
D03*
X227700Y35700D02*
D03*
X253000Y76500D02*
D03*
X152000Y182500D02*
D03*
X96500Y199100D02*
D03*
X135250Y241000D02*
D03*
X141000Y237000D02*
D03*
X232500Y204000D02*
D03*
X96500Y206500D02*
D03*
X157456Y188118D02*
D03*
X200000Y183500D02*
D03*
X154000Y202500D02*
D03*
X133000Y294000D02*
D03*
X125000Y284760D02*
D03*
Y294000D02*
D03*
X133000Y284760D02*
D03*
X159000Y89500D02*
D03*
X139500Y87500D02*
D03*
X156000Y107500D02*
D03*
X381626Y93862D02*
D03*
X384126Y108362D02*
D03*
D112*
X157000Y137518D02*
D03*
X154595Y141461D02*
D03*
X158870D02*
D03*
D113*
X276500Y9500D02*
D03*
X151500Y167380D02*
D03*
X164000Y163000D02*
D03*
X150300D02*
D03*
X162154Y167302D02*
D03*
D114*
X263142Y321000D02*
G03*
X256071Y318071I0J-10000D01*
G01*
X37642Y321000D02*
G03*
X30571Y318071I0J-10000D01*
G01*
X19000Y283500D02*
G03*
X21828Y276672I9657J0D01*
G01*
X263142Y321000D02*
X273000D01*
X243500Y305500D02*
X256071Y318071D01*
X37642Y321000D02*
X46000D01*
X19000Y306500D02*
X30571Y318071D01*
X19000Y283500D02*
Y306500D01*
X21828Y276672D02*
X33500Y265000D01*
X156090D01*
X205591Y215500D01*
X226000Y182000D02*
X243500Y199500D01*
X205591Y215500D02*
X242000D01*
X243500Y199500D02*
Y305500D01*
M02*
