G04*
G04 #@! TF.GenerationSoftware,Altium Limited,Altium Designer,19.1.8 (144)*
G04*
G04 Layer_Color=16711935*
%FSLAX44Y44*%
%MOMM*%
G71*
G01*
G75*
%ADD53R,2.5400X6.3500*%
%ADD77O,2.4638X1.7272*%
%ADD78C,0.2032*%
%ADD79C,1.7272*%
%ADD80C,1.7032*%
%ADD81R,1.7032X1.7032*%
%ADD82C,1.1684*%
%ADD83R,1.1684X1.1684*%
%ADD84C,1.7012*%
%ADD85R,1.7032X1.7032*%
%ADD86C,1.7780*%
%ADD87C,4.0132*%
%ADD88O,6.8834X2.7178*%
%ADD89C,1.4732*%
%ADD90C,0.8382*%
%ADD91C,0.9652*%
D53*
X1090932Y212089D02*
D03*
D77*
X1271270Y38100D02*
D03*
Y828040D02*
D03*
X38100D02*
D03*
Y38100D02*
D03*
D78*
X1266190Y421470D02*
D03*
Y331470D02*
D03*
X1266220Y207490D02*
D03*
Y297490D02*
D03*
D79*
X1226790Y391470D02*
D03*
X1256790D02*
D03*
X1226790Y361470D02*
D03*
X1256790D02*
D03*
X508000Y584200D02*
D03*
X1084580Y419100D02*
D03*
X1102360Y271780D02*
D03*
X1167130Y110490D02*
D03*
X882650Y267970D02*
D03*
X934720Y223520D02*
D03*
X1103630Y361950D02*
D03*
X1104900Y107950D02*
D03*
X1065530Y132080D02*
D03*
X1256820Y237490D02*
D03*
X1226820D02*
D03*
X1256820Y267490D02*
D03*
X1226820D02*
D03*
X585108Y236220D02*
D03*
X574040Y462280D02*
D03*
X637286Y37044D02*
D03*
X847090Y114300D02*
D03*
X620310Y96520D02*
D03*
X791210Y568960D02*
D03*
X803650Y449840D02*
D03*
X272330Y543560D02*
D03*
X248370Y542290D02*
D03*
X1263650Y590550D02*
D03*
X1267460Y726440D02*
D03*
X1263650Y792480D02*
D03*
X1131570Y820420D02*
D03*
X1129030Y727710D02*
D03*
X1231900Y554990D02*
D03*
X1256030Y532130D02*
D03*
X812800Y760730D02*
D03*
X745490Y840740D02*
D03*
X933450Y831850D02*
D03*
X718820Y842010D02*
D03*
X684530Y760730D02*
D03*
X718820D02*
D03*
X1088390Y775970D02*
D03*
X177800Y844550D02*
D03*
X146050Y763270D02*
D03*
X91440Y842010D02*
D03*
X530860Y810260D02*
D03*
X288290Y764540D02*
D03*
X356870Y836930D02*
D03*
X133350Y740410D02*
D03*
X264160Y210820D02*
D03*
X93980Y595630D02*
D03*
X44450Y344170D02*
D03*
X179070Y214630D02*
D03*
X111760Y48260D02*
D03*
X447040Y210820D02*
D03*
X332740Y38100D02*
D03*
D80*
X680720Y406400D02*
D03*
X1163320Y302583D02*
D03*
Y277183D02*
D03*
X661670Y609600D02*
D03*
X1206500Y822960D02*
D03*
X1181100Y797560D02*
D03*
X1206500D02*
D03*
X1181100Y772160D02*
D03*
X1206500D02*
D03*
X1181100Y746760D02*
D03*
X1206500D02*
D03*
X1181100Y721360D02*
D03*
X1206500D02*
D03*
X1181100Y695960D02*
D03*
X1206500D02*
D03*
X1181100Y670560D02*
D03*
X1206500D02*
D03*
X1181100Y645160D02*
D03*
X1206500D02*
D03*
X693420Y815340D02*
D03*
X718820Y789940D02*
D03*
Y815340D02*
D03*
X744220Y789940D02*
D03*
Y815340D02*
D03*
X769620Y789940D02*
D03*
Y815340D02*
D03*
X795020Y789940D02*
D03*
Y815340D02*
D03*
X820420Y789940D02*
D03*
Y815340D02*
D03*
X845820Y789940D02*
D03*
Y815340D02*
D03*
X871220Y789940D02*
D03*
Y815340D02*
D03*
X116840D02*
D03*
X142240Y789940D02*
D03*
Y815340D02*
D03*
X167640Y789940D02*
D03*
Y815340D02*
D03*
X193040Y789940D02*
D03*
Y815340D02*
D03*
X218440Y789940D02*
D03*
Y815340D02*
D03*
X243840Y789940D02*
D03*
Y815340D02*
D03*
X269240Y789940D02*
D03*
Y815340D02*
D03*
X294640Y789940D02*
D03*
Y815340D02*
D03*
D81*
X680720Y381000D02*
D03*
X1163320Y251783D02*
D03*
X1181100Y822960D02*
D03*
D82*
X1084580Y237490D02*
D03*
X1097280D02*
D03*
X1084580Y224790D02*
D03*
X1097280D02*
D03*
X1084580Y212090D02*
D03*
X1097280D02*
D03*
X1084580Y199390D02*
D03*
X1097280D02*
D03*
X1084580Y186690D02*
D03*
D83*
X1097280D02*
D03*
D84*
X1267460Y175490D02*
D03*
Y110490D02*
D03*
X1222460Y175490D02*
D03*
Y110490D02*
D03*
D85*
X636270Y609600D02*
D03*
X693420Y789940D02*
D03*
X116840D02*
D03*
D86*
X303530Y45720D02*
D03*
X201930Y48260D02*
D03*
D87*
X86360Y378460D02*
D03*
Y549148D02*
D03*
X85852Y87884D02*
D03*
Y258572D02*
D03*
D88*
X107188Y501142D02*
D03*
Y426466D02*
D03*
X106680Y210566D02*
D03*
Y135890D02*
D03*
D89*
X306802Y367862D02*
D03*
X330200Y344170D02*
D03*
X333375Y367330D02*
D03*
X799204Y321684D02*
D03*
X802640Y342900D02*
D03*
X988115Y387440D02*
D03*
X762411Y56388D02*
D03*
X540417Y231140D02*
D03*
X287115Y461010D02*
D03*
X272344Y471320D02*
D03*
X688340Y102515D02*
D03*
X1055524Y703580D02*
D03*
X435610Y299720D02*
D03*
X728980Y476410D02*
D03*
X1184054Y482600D02*
D03*
X891540Y369570D02*
D03*
X716826Y510540D02*
D03*
X1203960Y482600D02*
D03*
X1040616Y583714D02*
D03*
X876424Y591820D02*
D03*
X515620Y781050D02*
D03*
X505733Y765810D02*
D03*
X527050Y650240D02*
D03*
X441550Y788670D02*
D03*
X464820Y391160D02*
D03*
X467360Y408940D02*
D03*
X500380Y647700D02*
D03*
X452120Y641350D02*
D03*
X1069340Y732790D02*
D03*
X487680Y793546D02*
D03*
X1040616Y756012D02*
D03*
X1034790Y773068D02*
D03*
X924560Y483870D02*
D03*
X816610Y508160D02*
D03*
X674370Y433070D02*
D03*
X873760Y382270D02*
D03*
X711200Y458470D02*
D03*
X969010Y388360D02*
D03*
X913130Y367030D02*
D03*
X927100Y381000D02*
D03*
X946150Y396240D02*
D03*
X944698Y436880D02*
D03*
X840740Y406400D02*
D03*
X855980Y391160D02*
D03*
X481660Y810260D02*
D03*
X521970Y365760D02*
D03*
X504190Y375920D02*
D03*
X530860Y440690D02*
D03*
X209550Y566420D02*
D03*
X693420Y292100D02*
D03*
X544830Y213360D02*
D03*
X436273Y79348D02*
D03*
X568960Y275590D02*
D03*
X586740Y309880D02*
D03*
X452120Y177800D02*
D03*
X468473Y172720D02*
D03*
X867410Y283210D02*
D03*
X1187812Y422910D02*
D03*
X982030Y317150D02*
D03*
X948620Y325560D02*
D03*
X989330Y483870D02*
D03*
X814070Y289560D02*
D03*
X1001080Y348900D02*
D03*
X1012510Y404780D02*
D03*
X1109619Y481330D02*
D03*
X982980Y116840D02*
D03*
X1081304Y313340D02*
D03*
X1079820Y287556D02*
D03*
X1061617Y277780D02*
D03*
X1124270Y294335D02*
D03*
X1129350Y313340D02*
D03*
X1103630Y462280D02*
D03*
X1160780Y436880D02*
D03*
X601980Y462280D02*
D03*
Y435610D02*
D03*
X572770D02*
D03*
X1137920Y615950D02*
D03*
X1114450Y636270D02*
D03*
X1137920D02*
D03*
X1114450Y615950D02*
D03*
X892810Y701700D02*
D03*
X872490Y725170D02*
D03*
Y701700D02*
D03*
X892810Y725170D02*
D03*
X646430Y60960D02*
D03*
X610870Y189230D02*
D03*
X300990Y224790D02*
D03*
X866140Y33020D02*
D03*
X770890Y128270D02*
D03*
X756920Y190500D02*
D03*
X842512Y91440D02*
D03*
X744161Y46690D02*
D03*
X782320Y66040D02*
D03*
X767080Y289560D02*
D03*
X574040Y41910D02*
D03*
X556260Y54610D02*
D03*
X578358Y90678D02*
D03*
X642620Y194310D02*
D03*
X386080Y463550D02*
D03*
X245110Y505714D02*
D03*
X343535Y612140D02*
D03*
X358140Y601980D02*
D03*
X590550Y518160D02*
D03*
X245110Y524510D02*
D03*
X399938Y477820D02*
D03*
X508000Y466090D02*
D03*
X391160Y514350D02*
D03*
X337820Y746760D02*
D03*
X317500Y723290D02*
D03*
Y746760D02*
D03*
X337820Y723290D02*
D03*
X403860Y227330D02*
D03*
X354330Y222250D02*
D03*
X396240Y273050D02*
D03*
X969330Y238410D02*
D03*
X975680Y275240D02*
D03*
D90*
X398780Y349296D02*
D03*
X392672Y359310D02*
D03*
X403530D02*
D03*
D91*
X702310Y24130D02*
D03*
X384810Y425147D02*
D03*
X416560Y414020D02*
D03*
X381762D02*
D03*
X411871Y424946D02*
D03*
M02*
