G04*
G04 #@! TF.GenerationSoftware,Altium Limited,Altium Designer,19.1.8 (144)*
G04*
G04 Layer_Color=128*
%FSLAX44Y44*%
%MOMM*%
G71*
G01*
G75*
%ADD13C,0.2540*%
%ADD118C,0.0508*%
D13*
X1301750Y0D02*
G03*
X1309370Y7620I0J7620D01*
G01*
Y858520D02*
G03*
X1300480Y866140I-8255J-635D01*
G01*
X7620D02*
G03*
X0Y858520I0J-7620D01*
G01*
Y7620D02*
G03*
X7620Y0I7620J0D01*
G01*
X1301750D01*
X1309370Y7620D02*
Y852170D01*
Y858520D01*
X7620Y866140D02*
X1300480D01*
X0Y7620D02*
Y858520D01*
D118*
X1255270Y38100D02*
X1287270D01*
X1271270Y22100D02*
Y54100D01*
X1255270Y828040D02*
X1287270D01*
X1271270Y812040D02*
Y844040D01*
X22100Y828040D02*
X54100D01*
X38100Y812040D02*
Y844040D01*
X22100Y38100D02*
X54100D01*
X38100Y22100D02*
Y54100D01*
X1261110Y421470D02*
X1271270D01*
X1266190Y416390D02*
Y426550D01*
X1261110Y331470D02*
X1271270D01*
X1266190Y326390D02*
Y336550D01*
X1221710Y391470D02*
X1231870D01*
X1226790Y386390D02*
Y396550D01*
X1251710Y391470D02*
X1261870D01*
X1256790Y386390D02*
Y396550D01*
X1221710Y361470D02*
X1231870D01*
X1226790Y356390D02*
Y366550D01*
X1251710Y361470D02*
X1261870D01*
X1256790Y356390D02*
Y366550D01*
X676220Y406400D02*
X685220D01*
X680720Y401900D02*
Y410900D01*
X676220Y381000D02*
X685220D01*
X680720Y376500D02*
Y385500D01*
X503936Y584200D02*
X512064D01*
X508000Y580136D02*
Y588264D01*
X1158820Y302583D02*
X1167820D01*
X1163320Y298083D02*
Y307083D01*
X1158820Y277183D02*
X1167820D01*
X1163320Y272683D02*
Y281683D01*
X1158820Y251783D02*
X1167820D01*
X1163320Y247283D02*
Y256283D01*
X1080516Y419100D02*
X1088644D01*
X1084580Y415036D02*
Y423164D01*
X1098296Y271780D02*
X1106424D01*
X1102360Y267716D02*
Y275844D01*
X1163066Y110490D02*
X1171194D01*
X1167130Y106426D02*
Y114554D01*
X878586Y267970D02*
X886714D01*
X882650Y263906D02*
Y272034D01*
X930656Y223520D02*
X938784D01*
X934720Y219456D02*
Y227584D01*
X1099566Y361950D02*
X1107694D01*
X1103630Y357886D02*
Y366014D01*
X1100836Y107950D02*
X1108964D01*
X1104900Y103886D02*
Y112014D01*
X1061466Y132080D02*
X1069594D01*
X1065530Y128016D02*
Y136144D01*
X1081024Y237490D02*
X1088136D01*
X1084580Y233934D02*
Y241046D01*
X1093724Y237490D02*
X1100836D01*
X1097280Y233934D02*
Y241046D01*
X1081024Y224790D02*
X1088136D01*
X1084580Y221234D02*
Y228346D01*
X1093724Y224790D02*
X1100836D01*
X1097280Y221234D02*
Y228346D01*
X1081024Y212090D02*
X1088136D01*
X1084580Y208534D02*
Y215646D01*
X1093724Y212090D02*
X1100836D01*
X1097280Y208534D02*
Y215646D01*
X1081024Y199390D02*
X1088136D01*
X1084580Y195834D02*
Y202946D01*
X1093724Y199390D02*
X1100836D01*
X1097280Y195834D02*
Y202946D01*
X1081024Y186690D02*
X1088136D01*
X1084580Y183134D02*
Y190246D01*
X1093724Y186690D02*
X1100836D01*
X1097280Y183134D02*
Y190246D01*
X1262510Y175490D02*
X1272410D01*
X1267460Y170540D02*
Y180440D01*
X1262510Y110490D02*
X1272410D01*
X1267460Y105540D02*
Y115440D01*
X1217510Y175490D02*
X1227410D01*
X1222460Y170540D02*
Y180440D01*
X1217510Y110490D02*
X1227410D01*
X1222460Y105540D02*
Y115440D01*
X1251740Y237490D02*
X1261900D01*
X1256820Y232410D02*
Y242570D01*
X1221740Y237490D02*
X1231900D01*
X1226820Y232410D02*
Y242570D01*
X1251740Y267490D02*
X1261900D01*
X1256820Y262410D02*
Y272570D01*
X1221740Y267490D02*
X1231900D01*
X1226820Y262410D02*
Y272570D01*
X1261140Y207490D02*
X1271300D01*
X1266220Y202410D02*
Y212570D01*
X1261140Y297490D02*
X1271300D01*
X1266220Y292410D02*
Y302570D01*
X581044Y236220D02*
X589172D01*
X585108Y232156D02*
Y240284D01*
X569976Y462280D02*
X578104D01*
X574040Y458216D02*
Y466344D01*
X633222Y37044D02*
X641350D01*
X637286Y32980D02*
Y41108D01*
X843026Y114300D02*
X851154D01*
X847090Y110236D02*
Y118364D01*
X616246Y96520D02*
X624374D01*
X620310Y92456D02*
Y100584D01*
X787146Y568960D02*
X795274D01*
X791210Y564896D02*
Y573024D01*
X799586Y449840D02*
X807714D01*
X803650Y445776D02*
Y453904D01*
X268266Y543560D02*
X276394D01*
X272330Y539496D02*
Y547624D01*
X244306Y542290D02*
X252434D01*
X248370Y538226D02*
Y546354D01*
X631770Y609600D02*
X640770D01*
X636270Y605100D02*
Y614100D01*
X657170Y609600D02*
X666170D01*
X661670Y605100D02*
Y614100D01*
X1259586Y590550D02*
X1267714D01*
X1263650Y586486D02*
Y594614D01*
X1263396Y726440D02*
X1271524D01*
X1267460Y722376D02*
Y730504D01*
X1259586Y792480D02*
X1267714D01*
X1263650Y788416D02*
Y796544D01*
X1127506Y820420D02*
X1135634D01*
X1131570Y816356D02*
Y824484D01*
X1124966Y727710D02*
X1133094D01*
X1129030Y723646D02*
Y731774D01*
X1227836Y554990D02*
X1235964D01*
X1231900Y550926D02*
Y559054D01*
X1251966Y532130D02*
X1260094D01*
X1256030Y528066D02*
Y536194D01*
X808736Y760730D02*
X816864D01*
X812800Y756666D02*
Y764794D01*
X741426Y840740D02*
X749554D01*
X745490Y836676D02*
Y844804D01*
X929386Y831850D02*
X937514D01*
X933450Y827786D02*
Y835914D01*
X714756Y842010D02*
X722884D01*
X718820Y837946D02*
Y846074D01*
X680466Y760730D02*
X688594D01*
X684530Y756666D02*
Y764794D01*
X714756Y760730D02*
X722884D01*
X718820Y756666D02*
Y764794D01*
X1084326Y775970D02*
X1092454D01*
X1088390Y771906D02*
Y780034D01*
X173736Y844550D02*
X181864D01*
X177800Y840486D02*
Y848614D01*
X141986Y763270D02*
X150114D01*
X146050Y759206D02*
Y767334D01*
X87376Y842010D02*
X95504D01*
X91440Y837946D02*
Y846074D01*
X526796Y810260D02*
X534924D01*
X530860Y806196D02*
Y814324D01*
X284226Y764540D02*
X292354D01*
X288290Y760476D02*
Y768604D01*
X352806Y836930D02*
X360934D01*
X356870Y832866D02*
Y840994D01*
X129286Y740410D02*
X137414D01*
X133350Y736346D02*
Y744474D01*
X1176600Y822960D02*
X1185600D01*
X1181100Y818460D02*
Y827460D01*
X1202000Y822960D02*
X1211000D01*
X1206500Y818460D02*
Y827460D01*
X1176600Y797560D02*
X1185600D01*
X1181100Y793060D02*
Y802060D01*
X1202000Y797560D02*
X1211000D01*
X1206500Y793060D02*
Y802060D01*
X1176600Y772160D02*
X1185600D01*
X1181100Y767660D02*
Y776660D01*
X1202000Y772160D02*
X1211000D01*
X1206500Y767660D02*
Y776660D01*
X1176600Y746760D02*
X1185600D01*
X1181100Y742260D02*
Y751260D01*
X1202000Y746760D02*
X1211000D01*
X1206500Y742260D02*
Y751260D01*
X1176600Y721360D02*
X1185600D01*
X1181100Y716860D02*
Y725860D01*
X1202000Y721360D02*
X1211000D01*
X1206500Y716860D02*
Y725860D01*
X1176600Y695960D02*
X1185600D01*
X1181100Y691460D02*
Y700460D01*
X1202000Y695960D02*
X1211000D01*
X1206500Y691460D02*
Y700460D01*
X1176600Y670560D02*
X1185600D01*
X1181100Y666060D02*
Y675060D01*
X1202000Y670560D02*
X1211000D01*
X1206500Y666060D02*
Y675060D01*
X1176600Y645160D02*
X1185600D01*
X1181100Y640660D02*
Y649660D01*
X1202000Y645160D02*
X1211000D01*
X1206500Y640660D02*
Y649660D01*
X688920Y789940D02*
X697920D01*
X693420Y785440D02*
Y794440D01*
X688920Y815340D02*
X697920D01*
X693420Y810840D02*
Y819840D01*
X714320Y789940D02*
X723320D01*
X718820Y785440D02*
Y794440D01*
X714320Y815340D02*
X723320D01*
X718820Y810840D02*
Y819840D01*
X739720Y789940D02*
X748720D01*
X744220Y785440D02*
Y794440D01*
X739720Y815340D02*
X748720D01*
X744220Y810840D02*
Y819840D01*
X765120Y789940D02*
X774120D01*
X769620Y785440D02*
Y794440D01*
X765120Y815340D02*
X774120D01*
X769620Y810840D02*
Y819840D01*
X790520Y789940D02*
X799520D01*
X795020Y785440D02*
Y794440D01*
X790520Y815340D02*
X799520D01*
X795020Y810840D02*
Y819840D01*
X815920Y789940D02*
X824920D01*
X820420Y785440D02*
Y794440D01*
X815920Y815340D02*
X824920D01*
X820420Y810840D02*
Y819840D01*
X841320Y789940D02*
X850320D01*
X845820Y785440D02*
Y794440D01*
X841320Y815340D02*
X850320D01*
X845820Y810840D02*
Y819840D01*
X866720Y789940D02*
X875720D01*
X871220Y785440D02*
Y794440D01*
X866720Y815340D02*
X875720D01*
X871220Y810840D02*
Y819840D01*
X112340Y789940D02*
X121340D01*
X116840Y785440D02*
Y794440D01*
X112340Y815340D02*
X121340D01*
X116840Y810840D02*
Y819840D01*
X137740Y789940D02*
X146740D01*
X142240Y785440D02*
Y794440D01*
X137740Y815340D02*
X146740D01*
X142240Y810840D02*
Y819840D01*
X163140Y789940D02*
X172140D01*
X167640Y785440D02*
Y794440D01*
X163140Y815340D02*
X172140D01*
X167640Y810840D02*
Y819840D01*
X188540Y789940D02*
X197540D01*
X193040Y785440D02*
Y794440D01*
X188540Y815340D02*
X197540D01*
X193040Y810840D02*
Y819840D01*
X213940Y789940D02*
X222940D01*
X218440Y785440D02*
Y794440D01*
X213940Y815340D02*
X222940D01*
X218440Y810840D02*
Y819840D01*
X239340Y789940D02*
X248340D01*
X243840Y785440D02*
Y794440D01*
X239340Y815340D02*
X248340D01*
X243840Y810840D02*
Y819840D01*
X264740Y789940D02*
X273740D01*
X269240Y785440D02*
Y794440D01*
X264740Y815340D02*
X273740D01*
X269240Y810840D02*
Y819840D01*
X290140Y789940D02*
X299140D01*
X294640Y785440D02*
Y794440D01*
X290140Y815340D02*
X299140D01*
X294640Y810840D02*
Y819840D01*
X260096Y210820D02*
X268224D01*
X264160Y206756D02*
Y214884D01*
X89916Y595630D02*
X98044D01*
X93980Y591566D02*
Y599694D01*
X40386Y344170D02*
X48514D01*
X44450Y340106D02*
Y348234D01*
X175006Y214630D02*
X183134D01*
X179070Y210566D02*
Y218694D01*
X107696Y48260D02*
X115824D01*
X111760Y44196D02*
Y52324D01*
X442976Y210820D02*
X451104D01*
X447040Y206756D02*
Y214884D01*
X328676Y38100D02*
X336804D01*
X332740Y34036D02*
Y42164D01*
X300355Y45720D02*
X306705D01*
X303530Y42545D02*
Y48895D01*
X198755Y48260D02*
X205105D01*
X201930Y45085D02*
Y51435D01*
X71374Y378460D02*
X101346D01*
X86360Y363474D02*
Y393446D01*
X71374Y549148D02*
X101346D01*
X86360Y534162D02*
Y564134D01*
X81407Y501142D02*
X132969D01*
X107188Y475361D02*
Y526923D01*
X81407Y426466D02*
X132969D01*
X107188Y400685D02*
Y452247D01*
X70866Y87884D02*
X100838D01*
X85852Y72898D02*
Y102870D01*
X70866Y258572D02*
X100838D01*
X85852Y243586D02*
Y273558D01*
X80899Y210566D02*
X132461D01*
X106680Y184785D02*
Y236347D01*
X80899Y135890D02*
X132461D01*
X106680Y110109D02*
Y161671D01*
X303246Y367862D02*
X310358D01*
X306802Y364306D02*
Y371418D01*
X326644Y344170D02*
X333756D01*
X330200Y340614D02*
Y347726D01*
X329819Y367330D02*
X336931D01*
X333375Y363774D02*
Y370886D01*
X795648Y321684D02*
X802760D01*
X799204Y318128D02*
Y325240D01*
X799084Y342900D02*
X806196D01*
X802640Y339344D02*
Y346456D01*
X397510Y349296D02*
X400050D01*
X398780Y348026D02*
Y350565D01*
X391402Y359310D02*
X393942D01*
X392672Y358041D02*
Y360580D01*
X402260Y359310D02*
X404800D01*
X403530Y358041D02*
Y360580D01*
X984559Y387440D02*
X991671D01*
X988115Y383884D02*
Y390996D01*
X758855Y56388D02*
X765967D01*
X762411Y52832D02*
Y59944D01*
X536861Y231140D02*
X543973D01*
X540417Y227584D02*
Y234696D01*
X283559Y461010D02*
X290671D01*
X287115Y457454D02*
Y464566D01*
X268788Y471320D02*
X275900D01*
X272344Y467764D02*
Y474876D01*
X684784Y102515D02*
X691896D01*
X688340Y98959D02*
Y106071D01*
X1051968Y703580D02*
X1059080D01*
X1055524Y700024D02*
Y707136D01*
X432054Y299720D02*
X439166D01*
X435610Y296164D02*
Y303276D01*
X725424Y476410D02*
X732536D01*
X728980Y472854D02*
Y479966D01*
X1180498Y482600D02*
X1187610D01*
X1184054Y479044D02*
Y486156D01*
X887984Y369570D02*
X895096D01*
X891540Y366014D02*
Y373126D01*
X713270Y510540D02*
X720382D01*
X716826Y506984D02*
Y514096D01*
X701040Y24130D02*
X703580D01*
X702310Y22860D02*
Y25400D01*
X1200404Y482600D02*
X1207516D01*
X1203960Y479044D02*
Y486156D01*
X1037060Y583714D02*
X1044172D01*
X1040616Y580158D02*
Y587270D01*
X872868Y591820D02*
X879980D01*
X876424Y588264D02*
Y595376D01*
X512064Y781050D02*
X519176D01*
X515620Y777494D02*
Y784606D01*
X502177Y765810D02*
X509289D01*
X505733Y762254D02*
Y769366D01*
X523494Y650240D02*
X530606D01*
X527050Y646684D02*
Y653796D01*
X437994Y788670D02*
X445106D01*
X441550Y785114D02*
Y792226D01*
X461264Y391160D02*
X468376D01*
X464820Y387604D02*
Y394716D01*
X463804Y408940D02*
X470916D01*
X467360Y405384D02*
Y412496D01*
X496824Y647700D02*
X503936D01*
X500380Y644144D02*
Y651256D01*
X448564Y641350D02*
X455676D01*
X452120Y637794D02*
Y644906D01*
X1065784Y732790D02*
X1072896D01*
X1069340Y729234D02*
Y736346D01*
X484124Y793546D02*
X491236D01*
X487680Y789990D02*
Y797102D01*
X1037060Y756012D02*
X1044172D01*
X1040616Y752456D02*
Y759568D01*
X1031234Y773068D02*
X1038346D01*
X1034790Y769512D02*
Y776624D01*
X921004Y483870D02*
X928116D01*
X924560Y480314D02*
Y487426D01*
X813054Y508160D02*
X820166D01*
X816610Y504604D02*
Y511716D01*
X670814Y433070D02*
X677926D01*
X674370Y429514D02*
Y436626D01*
X870204Y382270D02*
X877316D01*
X873760Y378714D02*
Y385826D01*
X707644Y458470D02*
X714756D01*
X711200Y454914D02*
Y462026D01*
X965454Y388360D02*
X972566D01*
X969010Y384804D02*
Y391916D01*
X909574Y367030D02*
X916686D01*
X913130Y363474D02*
Y370586D01*
X923544Y381000D02*
X930656D01*
X927100Y377444D02*
Y384556D01*
X942594Y396240D02*
X949706D01*
X946150Y392684D02*
Y399796D01*
X941142Y436880D02*
X948254D01*
X944698Y433324D02*
Y440436D01*
X837184Y406400D02*
X844296D01*
X840740Y402844D02*
Y409956D01*
X852424Y391160D02*
X859536D01*
X855980Y387604D02*
Y394716D01*
X478103Y810260D02*
X485215D01*
X481660Y806704D02*
Y813816D01*
X518414Y365760D02*
X525526D01*
X521970Y362204D02*
Y369316D01*
X500634Y375920D02*
X507746D01*
X504190Y372364D02*
Y379476D01*
X527304Y440690D02*
X534416D01*
X530860Y437134D02*
Y444246D01*
X205994Y566420D02*
X213106D01*
X209550Y562864D02*
Y569976D01*
X689864Y292100D02*
X696976D01*
X693420Y288544D02*
Y295656D01*
X541274Y213360D02*
X548386D01*
X544830Y209804D02*
Y216916D01*
X432716Y79348D02*
X439828D01*
X436273Y75792D02*
Y82903D01*
X565404Y275590D02*
X572516D01*
X568960Y272034D02*
Y279146D01*
X583184Y309880D02*
X590296D01*
X586740Y306324D02*
Y313436D01*
X448564Y177800D02*
X455676D01*
X452120Y174244D02*
Y181356D01*
X464917Y172720D02*
X472029D01*
X468473Y169164D02*
Y176276D01*
X863854Y283210D02*
X870966D01*
X867410Y279654D02*
Y286766D01*
X1184256Y422910D02*
X1191368D01*
X1187812Y419354D02*
Y426466D01*
X978474Y317150D02*
X985586D01*
X982030Y313594D02*
Y320706D01*
X945064Y325560D02*
X952176D01*
X948620Y322004D02*
Y329116D01*
X985774Y483870D02*
X992886D01*
X989330Y480314D02*
Y487426D01*
X810514Y289560D02*
X817626D01*
X814070Y286004D02*
Y293116D01*
X997524Y348900D02*
X1004636D01*
X1001080Y345344D02*
Y352456D01*
X1008954Y404780D02*
X1016066D01*
X1012510Y401224D02*
Y408336D01*
X1106063Y481330D02*
X1113175D01*
X1109619Y477774D02*
Y484886D01*
X979424Y116840D02*
X986536D01*
X982980Y113284D02*
Y120396D01*
X1077748Y313340D02*
X1084861D01*
X1081304Y309784D02*
Y316896D01*
X1076264Y287556D02*
X1083376D01*
X1079820Y284000D02*
Y291112D01*
X1058061Y277780D02*
X1065173D01*
X1061617Y274224D02*
Y281336D01*
X1120714Y294335D02*
X1127826D01*
X1124270Y290779D02*
Y297891D01*
X1125794Y313340D02*
X1132906D01*
X1129350Y309784D02*
Y316896D01*
X1100074Y462280D02*
X1107186D01*
X1103630Y458724D02*
Y465836D01*
X1157224Y436880D02*
X1164336D01*
X1160780Y433324D02*
Y440436D01*
X598424Y462280D02*
X605536D01*
X601980Y458724D02*
Y465836D01*
X598424Y435610D02*
X605536D01*
X601980Y432054D02*
Y439166D01*
X569214Y435610D02*
X576326D01*
X572770Y432054D02*
Y439166D01*
X1134364Y615950D02*
X1141476D01*
X1137920Y612394D02*
Y619506D01*
X1110894Y636270D02*
X1118006D01*
X1114450Y632714D02*
Y639826D01*
X1134364Y636270D02*
X1141476D01*
X1137920Y632714D02*
Y639826D01*
X1110894Y615950D02*
X1118006D01*
X1114450Y612394D02*
Y619506D01*
X889254Y701700D02*
X896366D01*
X892810Y698144D02*
Y705256D01*
X868934Y725170D02*
X876046D01*
X872490Y721614D02*
Y728726D01*
X868934Y701700D02*
X876046D01*
X872490Y698144D02*
Y705256D01*
X889254Y725170D02*
X896366D01*
X892810Y721614D02*
Y728726D01*
X642874Y60960D02*
X649986D01*
X646430Y57404D02*
Y64516D01*
X607314Y189230D02*
X614426D01*
X610870Y185674D02*
Y192786D01*
X297434Y224790D02*
X304546D01*
X300990Y221234D02*
Y228346D01*
X862584Y33020D02*
X869696D01*
X866140Y29464D02*
Y36576D01*
X767334Y128270D02*
X774446D01*
X770890Y124714D02*
Y131826D01*
X753364Y190500D02*
X760476D01*
X756920Y186944D02*
Y194056D01*
X838956Y91440D02*
X846068D01*
X842512Y87884D02*
Y94996D01*
X740605Y46690D02*
X747717D01*
X744161Y43134D02*
Y50246D01*
X778764Y66040D02*
X785876D01*
X782320Y62484D02*
Y69596D01*
X763524Y289560D02*
X770636D01*
X767080Y286004D02*
Y293116D01*
X570484Y41910D02*
X577596D01*
X574040Y38354D02*
Y45466D01*
X552704Y54610D02*
X559816D01*
X556260Y51054D02*
Y58166D01*
X574802Y90678D02*
X581914D01*
X578358Y87122D02*
Y94234D01*
X639064Y194310D02*
X646176D01*
X642620Y190754D02*
Y197866D01*
X383540Y425147D02*
X386080D01*
X384810Y423877D02*
Y426417D01*
X382524Y463550D02*
X389636D01*
X386080Y459994D02*
Y467106D01*
X241554Y505714D02*
X248666D01*
X245110Y502158D02*
Y509270D01*
X339979Y612140D02*
X347091D01*
X343535Y608584D02*
Y615696D01*
X354584Y601980D02*
X361696D01*
X358140Y598424D02*
Y605536D01*
X586994Y518160D02*
X594106D01*
X590550Y514604D02*
Y521716D01*
X241554Y524510D02*
X248666D01*
X245110Y520954D02*
Y528066D01*
X396382Y477820D02*
X403494D01*
X399938Y474264D02*
Y481376D01*
X504444Y466090D02*
X511556D01*
X508000Y462534D02*
Y469646D01*
X387604Y514350D02*
X394716D01*
X391160Y510794D02*
Y517906D01*
X334264Y746760D02*
X341376D01*
X337820Y743204D02*
Y750316D01*
X313944Y723290D02*
X321056D01*
X317500Y719734D02*
Y726846D01*
X313944Y746760D02*
X321056D01*
X317500Y743204D02*
Y750316D01*
X334264Y723290D02*
X341376D01*
X337820Y719734D02*
Y726846D01*
X414655Y414020D02*
X418465D01*
X416560Y412115D02*
Y415925D01*
X380492Y414020D02*
X383032D01*
X381762Y412750D02*
Y415290D01*
X409966Y424946D02*
X413776D01*
X411871Y423041D02*
Y426851D01*
X400304Y227330D02*
X407416D01*
X403860Y223774D02*
Y230886D01*
X350774Y222250D02*
X357886D01*
X354330Y218694D02*
Y225806D01*
X392684Y273050D02*
X399796D01*
X396240Y269494D02*
Y276606D01*
X965774Y238410D02*
X972886D01*
X969330Y234854D02*
Y241966D01*
X972124Y275240D02*
X979236D01*
X975680Y271684D02*
Y278796D01*
M02*
