G04*
G04 #@! TF.GenerationSoftware,Altium Limited,Altium Designer,19.1.8 (144)*
G04*
G04 Layer_Color=255*
%FSLAX44Y44*%
%MOMM*%
G71*
G01*
G75*
%ADD13C,0.2540*%
%ADD101O,2.2606X1.5240*%
%ADD102C,1.5240*%
%ADD103C,1.5000*%
%ADD104R,1.5000X1.5000*%
%ADD105C,1.0160*%
%ADD106R,1.0160X1.0160*%
%ADD107C,1.4980*%
%ADD108R,1.5000X1.5000*%
%ADD109C,3.8100*%
%ADD110O,6.6802X2.5146*%
D13*
X1301750Y0D02*
G03*
X1309370Y7620I0J7620D01*
G01*
Y858520D02*
G03*
X1300480Y866140I-8255J-635D01*
G01*
X7620D02*
G03*
X0Y858520I0J-7620D01*
G01*
Y7620D02*
G03*
X7620Y0I7620J0D01*
G01*
X1301750D01*
X1309370Y7620D02*
Y852170D01*
Y858520D01*
X7620Y866140D02*
X1300480D01*
X0Y7620D02*
Y858520D01*
D101*
X1271270Y38100D02*
D03*
Y828040D02*
D03*
X38100D02*
D03*
Y38100D02*
D03*
D102*
X1226790Y391470D02*
D03*
X1256790D02*
D03*
X1226790Y361470D02*
D03*
X1256790D02*
D03*
X508000Y584200D02*
D03*
X1084580Y419100D02*
D03*
X1102360Y271780D02*
D03*
X1167130Y110490D02*
D03*
X882650Y267970D02*
D03*
X934720Y223520D02*
D03*
X1103630Y361950D02*
D03*
X1104900Y107950D02*
D03*
X1065530Y132080D02*
D03*
X1256820Y237490D02*
D03*
X1226820D02*
D03*
X1256820Y267490D02*
D03*
X1226820D02*
D03*
X585108Y236220D02*
D03*
X574040Y462280D02*
D03*
X637286Y37044D02*
D03*
X847090Y114300D02*
D03*
X620310Y96520D02*
D03*
X791210Y568960D02*
D03*
X803650Y449840D02*
D03*
X272330Y543560D02*
D03*
X248370Y542290D02*
D03*
X1263650Y590550D02*
D03*
X1267460Y726440D02*
D03*
X1263650Y792480D02*
D03*
X1131570Y820420D02*
D03*
X1129030Y727710D02*
D03*
X1231900Y554990D02*
D03*
X1256030Y532130D02*
D03*
X812800Y760730D02*
D03*
X745490Y840740D02*
D03*
X933450Y831850D02*
D03*
X718820Y842010D02*
D03*
X684530Y760730D02*
D03*
X718820D02*
D03*
X1088390Y775970D02*
D03*
X177800Y844550D02*
D03*
X146050Y763270D02*
D03*
X91440Y842010D02*
D03*
X530860Y810260D02*
D03*
X288290Y764540D02*
D03*
X356870Y836930D02*
D03*
X133350Y740410D02*
D03*
X264160Y210820D02*
D03*
X93980Y595630D02*
D03*
X44450Y344170D02*
D03*
X179070Y214630D02*
D03*
X111760Y48260D02*
D03*
X447040Y210820D02*
D03*
X332740Y38100D02*
D03*
D103*
X680720Y406400D02*
D03*
X1163320Y302583D02*
D03*
Y277183D02*
D03*
X661670Y609600D02*
D03*
X1206500Y822960D02*
D03*
X1181100Y797560D02*
D03*
X1206500D02*
D03*
X1181100Y772160D02*
D03*
X1206500D02*
D03*
X1181100Y746760D02*
D03*
X1206500D02*
D03*
X1181100Y721360D02*
D03*
X1206500D02*
D03*
X1181100Y695960D02*
D03*
X1206500D02*
D03*
X1181100Y670560D02*
D03*
X1206500D02*
D03*
X1181100Y645160D02*
D03*
X1206500D02*
D03*
X693420Y815340D02*
D03*
X718820Y789940D02*
D03*
Y815340D02*
D03*
X744220Y789940D02*
D03*
Y815340D02*
D03*
X769620Y789940D02*
D03*
Y815340D02*
D03*
X795020Y789940D02*
D03*
Y815340D02*
D03*
X820420Y789940D02*
D03*
Y815340D02*
D03*
X845820Y789940D02*
D03*
Y815340D02*
D03*
X871220Y789940D02*
D03*
Y815340D02*
D03*
X116840D02*
D03*
X142240Y789940D02*
D03*
Y815340D02*
D03*
X167640Y789940D02*
D03*
Y815340D02*
D03*
X193040Y789940D02*
D03*
Y815340D02*
D03*
X218440Y789940D02*
D03*
Y815340D02*
D03*
X243840Y789940D02*
D03*
Y815340D02*
D03*
X269240Y789940D02*
D03*
Y815340D02*
D03*
X294640Y789940D02*
D03*
Y815340D02*
D03*
D104*
X680720Y381000D02*
D03*
X1163320Y251783D02*
D03*
X1181100Y822960D02*
D03*
D105*
X1084580Y237490D02*
D03*
X1097280D02*
D03*
X1084580Y224790D02*
D03*
X1097280D02*
D03*
X1084580Y212090D02*
D03*
X1097280D02*
D03*
X1084580Y199390D02*
D03*
X1097280D02*
D03*
X1084580Y186690D02*
D03*
X303530Y45720D02*
D03*
X201930Y48260D02*
D03*
D106*
X1097280Y186690D02*
D03*
D107*
X1267460Y175490D02*
D03*
Y110490D02*
D03*
X1222460Y175490D02*
D03*
Y110490D02*
D03*
D108*
X636270Y609600D02*
D03*
X693420Y789940D02*
D03*
X116840D02*
D03*
D109*
X86360Y378460D02*
D03*
Y549148D02*
D03*
X85852Y87884D02*
D03*
Y258572D02*
D03*
D110*
X107188Y501142D02*
D03*
Y426466D02*
D03*
X106680Y210566D02*
D03*
Y135890D02*
D03*
M02*
