G04*
G04 #@! TF.GenerationSoftware,Altium Limited,Altium Designer,19.1.8 (144)*
G04*
G04 Layer_Color=32896*
%FSLAX44Y44*%
%MOMM*%
G71*
G01*
G75*
%ADD14C,0.2000*%
%ADD16C,0.1270*%
%ADD115C,0.0000*%
D14*
X445280Y585790D02*
G03*
X445280Y585790I-1000J0D01*
G01*
D02*
G03*
X445280Y585790I-1000J0D01*
G01*
D16*
X709180Y592110D02*
X774180D01*
X709180Y558510D02*
X774180D01*
Y592110D01*
X709180Y558510D02*
Y592110D01*
X774180D01*
X709180Y558510D02*
X774180D01*
Y592110D01*
X709180Y558510D02*
Y592110D01*
X578830Y328180D02*
X612430D01*
X578830Y393180D02*
X612430D01*
Y328180D02*
Y393180D01*
X578830Y328180D02*
Y393180D01*
Y328180D02*
X612430D01*
X578830Y393180D02*
X612430D01*
Y328180D02*
Y393180D01*
X578830Y328180D02*
Y393180D01*
X272760Y127590D02*
Y192590D01*
X306360Y127590D02*
Y192590D01*
X272760D02*
X306360D01*
X272760Y127590D02*
X306360D01*
X272760D02*
Y192590D01*
X306360Y127590D02*
Y192590D01*
X272760D02*
X306360D01*
X272760Y127590D02*
X306360D01*
X352770Y729430D02*
X386370D01*
X352770Y794430D02*
X386370D01*
Y729430D02*
Y794430D01*
X352770Y729430D02*
Y794430D01*
Y729430D02*
X386370D01*
X352770Y794430D02*
X386370D01*
Y729430D02*
Y794430D01*
X352770Y729430D02*
Y794430D01*
X909030Y697750D02*
Y762750D01*
X942630Y697750D02*
Y762750D01*
X909030D02*
X942630D01*
X909030Y697750D02*
X942630D01*
X909030D02*
Y762750D01*
X942630Y697750D02*
Y762750D01*
X909030D02*
X942630D01*
X909030Y697750D02*
X942630D01*
X1118050Y566130D02*
Y599730D01*
X1183050Y566130D02*
Y599730D01*
X1118050Y566130D02*
X1183050D01*
X1118050Y599730D02*
X1183050D01*
X1118050Y566130D02*
Y599730D01*
X1183050Y566130D02*
Y599730D01*
X1118050Y566130D02*
X1183050D01*
X1118050Y599730D02*
X1183050D01*
X1123500Y178470D02*
Y199470D01*
X1137100Y178470D02*
Y199470D01*
X1123500Y178470D02*
X1137100D01*
X1123500Y199470D02*
X1137100D01*
X1123500Y178470D02*
Y199470D01*
X1137100Y178470D02*
Y199470D01*
X1123500Y178470D02*
X1137100D01*
X1123500Y199470D02*
X1137100D01*
X1124880Y355150D02*
X1145880D01*
X1124880Y368750D02*
X1145880D01*
Y355150D02*
Y368750D01*
X1124880Y355150D02*
Y368750D01*
Y355150D02*
X1145880D01*
X1124880Y368750D02*
X1145880D01*
Y355150D02*
Y368750D01*
X1124880Y355150D02*
Y368750D01*
X943010Y121470D02*
X964010D01*
X943010Y135070D02*
X964010D01*
Y121470D02*
Y135070D01*
X943010Y121470D02*
Y135070D01*
Y121470D02*
X964010D01*
X943010Y135070D02*
X964010D01*
Y121470D02*
Y135070D01*
X943010Y121470D02*
Y135070D01*
X882050Y311600D02*
X903050D01*
X882050Y298000D02*
X903050D01*
X882050D02*
Y311600D01*
X903050Y298000D02*
Y311600D01*
X882050D02*
X903050D01*
X882050Y298000D02*
X903050D01*
X882050D02*
Y311600D01*
X903050Y298000D02*
Y311600D01*
X882310Y335730D02*
X903310D01*
X882310Y322130D02*
X903310D01*
X882310D02*
Y335730D01*
X903310Y322130D02*
Y335730D01*
X882310D02*
X903310D01*
X882310Y322130D02*
X903310D01*
X882310D02*
Y335730D01*
X903310Y322130D02*
Y335730D01*
X1214960Y172990D02*
X1274960D01*
Y112990D02*
Y172990D01*
X1214960Y112990D02*
X1274960D01*
X1214960D02*
Y172990D01*
X1274960D01*
Y112990D02*
Y172990D01*
X1214960Y112990D02*
X1274960D01*
X1214960D02*
Y172990D01*
X751760Y366210D02*
X772760D01*
X751760Y352610D02*
X772760D01*
X751760D02*
Y366210D01*
X772760Y352610D02*
Y366210D01*
X751760D02*
X772760D01*
X751760Y352610D02*
X772760D01*
X751760D02*
Y366210D01*
X772760Y352610D02*
Y366210D01*
X484320Y271180D02*
Y292180D01*
X470720Y271180D02*
Y292180D01*
X484320D01*
X470720Y271180D02*
X484320D01*
Y292180D01*
X470720Y271180D02*
Y292180D01*
X484320D01*
X470720Y271180D02*
X484320D01*
X550360Y348650D02*
Y369650D01*
X536760Y348650D02*
Y369650D01*
X550360D01*
X536760Y348650D02*
X550360D01*
Y369650D01*
X536760Y348650D02*
Y369650D01*
X550360D01*
X536760Y348650D02*
X550360D01*
X625787Y112690D02*
Y133690D01*
X639387Y112690D02*
Y133690D01*
X625787Y112690D02*
X639387D01*
X625787Y133690D02*
X639387D01*
X625787Y112690D02*
Y133690D01*
X639387Y112690D02*
Y133690D01*
X625787Y112690D02*
X639387D01*
X625787Y133690D02*
X639387D01*
X558350Y112950D02*
Y133950D01*
X571950Y112950D02*
Y133950D01*
X558350Y112950D02*
X571950D01*
X558350Y133950D02*
X571950D01*
X558350Y112950D02*
Y133950D01*
X571950Y112950D02*
Y133950D01*
X558350Y112950D02*
X571950D01*
X558350Y133950D02*
X571950D01*
X604070Y113210D02*
Y134210D01*
X617670Y113210D02*
Y134210D01*
X604070Y113210D02*
X617670D01*
X604070Y134210D02*
X617670D01*
X604070Y113210D02*
Y134210D01*
X617670Y113210D02*
Y134210D01*
X604070Y113210D02*
X617670D01*
X604070Y134210D02*
X617670D01*
X823382Y80460D02*
X844382D01*
X823382Y66860D02*
X844382D01*
X823382D02*
Y80460D01*
X844382Y66860D02*
Y80460D01*
X823382D02*
X844382D01*
X823382Y66860D02*
X844382D01*
X823382D02*
Y80460D01*
X844382Y66860D02*
Y80460D01*
X581210Y112950D02*
Y133950D01*
X594810Y112950D02*
Y133950D01*
X581210Y112950D02*
X594810D01*
X581210Y133950D02*
X594810D01*
X581210Y112950D02*
Y133950D01*
X594810Y112950D02*
Y133950D01*
X581210Y112950D02*
X594810D01*
X581210Y133950D02*
X594810D01*
X766740Y445320D02*
X787740D01*
X766740Y458920D02*
X787740D01*
Y445320D02*
Y458920D01*
X766740Y445320D02*
Y458920D01*
Y445320D02*
X787740D01*
X766740Y458920D02*
X787740D01*
Y445320D02*
Y458920D01*
X766740Y445320D02*
Y458920D01*
X730920Y518980D02*
X751920D01*
X730920Y532580D02*
X751920D01*
Y518980D02*
Y532580D01*
X730920Y518980D02*
Y532580D01*
Y518980D02*
X751920D01*
X730920Y532580D02*
X751920D01*
Y518980D02*
Y532580D01*
X730920Y518980D02*
Y532580D01*
X645610Y522640D02*
Y543640D01*
X632010Y522640D02*
Y543640D01*
X645610D01*
X632010Y522640D02*
X645610D01*
Y543640D01*
X632010Y522640D02*
Y543640D01*
X645610D01*
X632010Y522640D02*
X645610D01*
X375780Y580040D02*
X434780D01*
X375780D02*
Y631540D01*
X434780D01*
Y580040D02*
Y631540D01*
X375780Y580040D02*
X434780D01*
X375780D02*
Y631540D01*
X434780D01*
Y580040D02*
Y631540D01*
X294190Y559210D02*
Y580210D01*
X307790Y559210D02*
Y580210D01*
X294190Y559210D02*
X307790D01*
X294190Y580210D02*
X307790D01*
X294190Y559210D02*
Y580210D01*
X307790Y559210D02*
Y580210D01*
X294190Y559210D02*
X307790D01*
X294190Y580210D02*
X307790D01*
X417070Y478120D02*
X438070D01*
X417070Y464520D02*
X438070D01*
X417070D02*
Y478120D01*
X438070Y464520D02*
Y478120D01*
X417070D02*
X438070D01*
X417070Y464520D02*
X438070D01*
X417070D02*
Y478120D01*
X438070Y464520D02*
Y478120D01*
X229928Y560220D02*
Y581220D01*
X243528Y560220D02*
Y581220D01*
X229928Y560220D02*
X243528D01*
X229928Y581220D02*
X243528D01*
X229928Y560220D02*
Y581220D01*
X243528Y560220D02*
Y581220D01*
X229928Y560220D02*
X243528D01*
X229928Y581220D02*
X243528D01*
X251010Y560220D02*
Y581220D01*
X264610Y560220D02*
Y581220D01*
X251010Y560220D02*
X264610D01*
X251010Y581220D02*
X264610D01*
X251010Y560220D02*
Y581220D01*
X264610Y560220D02*
Y581220D01*
X251010Y560220D02*
X264610D01*
X251010Y581220D02*
X264610D01*
X272600Y559470D02*
Y580470D01*
X286200Y559470D02*
Y580470D01*
X272600Y559470D02*
X286200D01*
X272600Y580470D02*
X286200D01*
X272600Y559470D02*
Y580470D01*
X286200Y559470D02*
Y580470D01*
X272600Y559470D02*
X286200D01*
X272600Y580470D02*
X286200D01*
X1186100Y497390D02*
X1207100D01*
X1186100Y510990D02*
X1207100D01*
Y497390D02*
Y510990D01*
X1186100Y497390D02*
Y510990D01*
Y497390D02*
X1207100D01*
X1186100Y510990D02*
X1207100D01*
Y497390D02*
Y510990D01*
X1186100Y497390D02*
Y510990D01*
X1142660Y526600D02*
X1163660D01*
X1142660Y540200D02*
X1163660D01*
Y526600D02*
Y540200D01*
X1142660Y526600D02*
Y540200D01*
Y526600D02*
X1163660D01*
X1142660Y540200D02*
X1163660D01*
Y526600D02*
Y540200D01*
X1142660Y526600D02*
Y540200D01*
X1006290Y753030D02*
Y774030D01*
X992690Y753030D02*
Y774030D01*
X1006290D01*
X992690Y753030D02*
X1006290D01*
Y774030D01*
X992690Y753030D02*
Y774030D01*
X1006290D01*
X992690Y753030D02*
X1006290D01*
X983430Y717210D02*
Y738210D01*
X969830Y717210D02*
Y738210D01*
X983430D01*
X969830Y717210D02*
X983430D01*
Y738210D01*
X969830Y717210D02*
Y738210D01*
X983430D01*
X969830Y717210D02*
X983430D01*
X453840Y807380D02*
Y828380D01*
X440240Y807380D02*
Y828380D01*
X453840D01*
X440240Y807380D02*
X453840D01*
Y828380D01*
X440240Y807380D02*
Y828380D01*
X453840D01*
X440240Y807380D02*
X453840D01*
X425900Y755050D02*
Y776050D01*
X412300Y755050D02*
Y776050D01*
X425900D01*
X412300Y755050D02*
X425900D01*
Y776050D01*
X412300Y755050D02*
Y776050D01*
X425900D01*
X412300Y755050D02*
X425900D01*
X425110Y386900D02*
X446110D01*
X425110Y400500D02*
X446110D01*
Y386900D02*
Y400500D01*
X425110Y386900D02*
Y400500D01*
Y386900D02*
X446110D01*
X425110Y400500D02*
X446110D01*
Y386900D02*
Y400500D01*
X425110Y386900D02*
Y400500D01*
X349678Y418280D02*
X370678D01*
X349678Y404680D02*
X370678D01*
X349678D02*
Y418280D01*
X370678Y404680D02*
Y418280D01*
X349678D02*
X370678D01*
X349678Y404680D02*
X370678D01*
X349678D02*
Y418280D01*
X370678Y404680D02*
Y418280D01*
X349678Y397960D02*
X370678D01*
X349678Y384360D02*
X370678D01*
X349678D02*
Y397960D01*
X370678Y384360D02*
Y397960D01*
X349678D02*
X370678D01*
X349678Y384360D02*
X370678D01*
X349678D02*
Y397960D01*
X370678Y384360D02*
Y397960D01*
X372922Y150790D02*
Y171790D01*
X359322Y150790D02*
Y171790D01*
X372922D01*
X359322Y150790D02*
X372922D01*
Y171790D01*
X359322Y150790D02*
Y171790D01*
X372922D01*
X359322Y150790D02*
X372922D01*
X402352Y197300D02*
X423352D01*
X402352Y183700D02*
X423352D01*
X402352D02*
Y197300D01*
X423352Y183700D02*
Y197300D01*
X402352D02*
X423352D01*
X402352Y183700D02*
X423352D01*
X402352D02*
Y197300D01*
X423352Y183700D02*
Y197300D01*
D115*
X271488Y530352D02*
G03*
X277584Y530352I3048J0D01*
G01*
X271488D02*
G03*
X277584Y530352I3048J0D01*
G01*
X598208Y84792D02*
G03*
X604304Y84792I3048J0D01*
G01*
X598208D02*
G03*
X604304Y84792I3048J0D01*
G01*
X281648Y517652D02*
X287744D01*
Y512572D02*
Y517652D01*
X281648Y512572D02*
X287744D01*
X261328Y503174D02*
X267424D01*
X261328D02*
Y508000D01*
X267424D01*
Y503174D02*
Y508000D01*
Y499872D02*
Y503174D01*
X261328Y522224D02*
X267424D01*
X261328D02*
Y527050D01*
X267424D01*
Y508000D02*
Y522224D01*
Y527050D01*
Y530352D01*
X271488D01*
X277584D01*
X281648D01*
Y517652D02*
Y530352D01*
Y512572D02*
Y517652D01*
Y499872D02*
Y512572D01*
X267424Y499872D02*
X281648D01*
Y517652D02*
X287744D01*
Y512572D02*
Y517652D01*
X281648Y512572D02*
X287744D01*
X261328Y503174D02*
X267424D01*
X261328D02*
Y508000D01*
X267424D01*
Y503174D02*
Y508000D01*
Y499872D02*
Y503174D01*
X261328Y522224D02*
X267424D01*
X261328D02*
Y527050D01*
X267424D01*
Y508000D02*
Y522224D01*
Y527050D01*
Y530352D01*
X271488D01*
X277584D01*
X281648D01*
Y517652D02*
Y530352D01*
Y512572D02*
Y517652D01*
Y499872D02*
Y512572D01*
X267424Y499872D02*
X281648D01*
X594144Y54312D02*
X608368D01*
Y67012D01*
Y72092D01*
Y84792D01*
X604304D02*
X608368D01*
X598208D02*
X604304D01*
X594144D02*
X598208D01*
X594144Y81490D02*
Y84792D01*
Y76664D02*
Y81490D01*
Y62440D02*
Y76664D01*
X588048Y81490D02*
X594144D01*
X588048Y76664D02*
Y81490D01*
Y76664D02*
X594144D01*
Y54312D02*
Y57614D01*
Y62440D01*
X588048D02*
X594144D01*
X588048Y57614D02*
Y62440D01*
Y57614D02*
X594144D01*
X608368Y67012D02*
X614464D01*
Y72092D01*
X608368D02*
X614464D01*
X594144Y54312D02*
X608368D01*
Y67012D01*
Y72092D01*
Y84792D01*
X604304D02*
X608368D01*
X598208D02*
X604304D01*
X594144D02*
X598208D01*
X594144Y81490D02*
Y84792D01*
Y76664D02*
Y81490D01*
Y62440D02*
Y76664D01*
X588048Y81490D02*
X594144D01*
X588048Y76664D02*
Y81490D01*
Y76664D02*
X594144D01*
Y54312D02*
Y57614D01*
Y62440D01*
X588048D02*
X594144D01*
X588048Y57614D02*
Y62440D01*
Y57614D02*
X594144D01*
X608368Y67012D02*
X614464D01*
Y72092D01*
X608368D02*
X614464D01*
M02*
