G04*
G04 #@! TF.GenerationSoftware,Altium Limited,Altium Designer,19.1.8 (144)*
G04*
G04 Layer_Color=32768*
%FSLAX25Y25*%
%MOIN*%
G70*
G01*
G75*
%ADD10C,0.00600*%
%ADD11C,0.00197*%
%ADD13C,0.01000*%
%ADD14C,0.00787*%
%ADD15C,0.00394*%
D10*
X253950Y80900D02*
Y137600D01*
Y80900D02*
X273600D01*
X289400D02*
X309050D01*
Y137600D01*
X289400D02*
X309050D01*
X253950D02*
X273600D01*
Y138200D01*
Y80300D02*
Y80900D01*
X289400Y80300D02*
Y80900D01*
Y137600D02*
Y138200D01*
X147200Y121700D02*
X163800D01*
Y114700D02*
Y121700D01*
Y93300D02*
Y100300D01*
X147200Y93300D02*
X163800D01*
X147200D02*
Y95800D01*
X137950D02*
X147200D01*
X137950Y119200D02*
X147200D01*
Y121700D01*
X182645Y251550D02*
X239346D01*
X182645Y231900D02*
Y251550D01*
Y196450D02*
Y216100D01*
Y196450D02*
X239346D01*
Y216100D01*
Y231900D02*
Y251550D01*
Y231900D02*
X239946D01*
X182045D02*
X182645D01*
X182045Y216100D02*
X182645D01*
X239346D02*
X239946D01*
D11*
X259421Y160295D02*
Y176831D01*
X249579Y160295D02*
Y176831D01*
X259421D01*
X249579Y160295D02*
X259421D01*
X159169Y26921D02*
X175705D01*
X159169Y17079D02*
X175705D01*
X159169D02*
Y26921D01*
X175705Y17079D02*
Y26921D01*
X326079Y195732D02*
X335921D01*
X326079Y212268D02*
X335921D01*
X326079Y195732D02*
Y212268D01*
X335921Y195732D02*
Y212268D01*
X217331Y43079D02*
Y52921D01*
X200795Y43079D02*
Y52921D01*
Y43079D02*
X217331D01*
X200795Y52921D02*
X217331D01*
X345579Y188205D02*
X355421D01*
X345579Y171669D02*
X355421D01*
Y188205D01*
X345579Y171669D02*
Y188205D01*
X374579Y189205D02*
X384421D01*
X374579Y172669D02*
X384421D01*
Y189205D01*
X374579Y172669D02*
Y189205D01*
X413535Y96480D02*
Y150024D01*
X359992Y96480D02*
X413535D01*
X359992D02*
Y150024D01*
X413535D01*
X196705Y166768D02*
X206547D01*
X196705Y150232D02*
X206547D01*
Y166768D01*
X196705Y150232D02*
Y166768D01*
X404079Y189205D02*
X413921D01*
X404079Y172669D02*
X413921D01*
Y189205D01*
X404079Y172669D02*
Y189205D01*
X63705Y113579D02*
Y123421D01*
X47169Y113579D02*
Y123421D01*
Y113579D02*
X63705D01*
X47169Y123421D02*
X63705D01*
D13*
X512500Y0D02*
G03*
X515500Y3000I0J3000D01*
G01*
Y338000D02*
G03*
X512000Y341000I-3250J-250D01*
G01*
X3000Y341000D02*
G03*
X0Y338000I0J-3000D01*
G01*
Y3000D02*
G03*
X3000Y0I3000J0D01*
G01*
X512500D01*
X515500Y3000D02*
Y335500D01*
Y338000D01*
X3000Y341000D02*
X512000D01*
X0Y3000D02*
Y338000D01*
D14*
X354831Y59213D02*
Y78898D01*
X396169D01*
Y59213D02*
Y78898D01*
X354831Y59213D02*
X396169D01*
D15*
X248850Y179728D02*
Y183272D01*
X247079Y181500D02*
X250622D01*
X242846Y184059D02*
X254854D01*
X242846Y178941D02*
X254854D01*
X242846D02*
Y184059D01*
X254854Y178941D02*
Y184059D01*
X252532Y168563D02*
X256469D01*
X254500Y166595D02*
Y170531D01*
X167437Y20031D02*
Y23968D01*
X165469Y22000D02*
X169405D01*
X404228Y163792D02*
X407772D01*
X406000Y162021D02*
Y165564D01*
X403441Y157788D02*
Y169796D01*
X408559Y157788D02*
Y169796D01*
X403441Y157788D02*
X408559D01*
X403441Y169796D02*
X408559D01*
X143504Y19941D02*
Y25059D01*
X131496Y19941D02*
Y25059D01*
Y19941D02*
X143504D01*
X131496Y25059D02*
X143504D01*
X135728Y22500D02*
X139272D01*
X137500Y20728D02*
Y24272D01*
X331000Y202031D02*
Y205968D01*
X329031Y204000D02*
X332968D01*
X207095Y48000D02*
X211032D01*
X209063Y46031D02*
Y49968D01*
X189504Y47941D02*
Y53059D01*
X177496Y47941D02*
Y53059D01*
Y47941D02*
X189504D01*
X177496Y53059D02*
X189504D01*
X181728Y50500D02*
X185272D01*
X183500Y48728D02*
Y52272D01*
X350500Y177969D02*
Y181905D01*
X348532Y179937D02*
X352468D01*
X379500Y178969D02*
Y182905D01*
X377532Y180937D02*
X381469D01*
X345941Y169153D02*
X351059D01*
X345941Y157146D02*
X351059D01*
Y169153D01*
X345941Y157146D02*
Y169153D01*
X348500Y161378D02*
Y164921D01*
X346728Y163150D02*
X350272D01*
X374941Y170653D02*
X380059D01*
X374941Y158646D02*
X380059D01*
Y170653D01*
X374941Y158646D02*
Y170653D01*
X377500Y162878D02*
Y166421D01*
X375728Y164650D02*
X379272D01*
X193854Y143059D02*
Y148177D01*
X181846Y143059D02*
Y148177D01*
Y143059D02*
X193854D01*
X181846Y148177D02*
X193854D01*
X186079Y145618D02*
X189622D01*
X187850Y143847D02*
Y147390D01*
X201626Y156532D02*
Y160468D01*
X199657Y158500D02*
X203594D01*
X409000Y178969D02*
Y182905D01*
X407031Y180937D02*
X410968D01*
X333004Y214441D02*
Y219559D01*
X320996Y214441D02*
Y219559D01*
Y214441D02*
X333004D01*
X320996Y219559D02*
X333004D01*
X325228Y217000D02*
X328772D01*
X327000Y215228D02*
Y218772D01*
X29004Y114941D02*
Y120059D01*
X16996Y114941D02*
Y120059D01*
Y114941D02*
X29004D01*
X16996Y120059D02*
X29004D01*
X21228Y117500D02*
X24772D01*
X23000Y115728D02*
Y119272D01*
X53469Y118500D02*
X57406D01*
X55437Y116532D02*
Y120468D01*
M02*
