G04*
G04 #@! TF.GenerationSoftware,Altium Limited,Altium Designer,19.1.8 (144)*
G04*
G04 Layer_Color=32896*
%FSLAX25Y25*%
%MOIN*%
G70*
G01*
G75*
%ADD13C,0.01000*%
%ADD14C,0.00787*%
%ADD16C,0.00500*%
%ADD115C,0.00000*%
D13*
X512500Y0D02*
G03*
X515500Y3000I0J3000D01*
G01*
Y338000D02*
G03*
X512000Y341000I-3250J-250D01*
G01*
X3000Y341000D02*
G03*
X0Y338000I0J-3000D01*
G01*
Y3000D02*
G03*
X3000Y0I3000J0D01*
G01*
X512500D01*
X515500Y3000D02*
Y335500D01*
Y338000D01*
X3000Y341000D02*
X512000D01*
X0Y3000D02*
Y338000D01*
D14*
X175307Y230626D02*
G03*
X175307Y230626I-394J0D01*
G01*
D02*
G03*
X175307Y230626I-394J0D01*
G01*
D16*
X279205Y233114D02*
X304795D01*
X279205Y219886D02*
X304795D01*
Y233114D01*
X279205Y219886D02*
Y233114D01*
X304795D01*
X279205Y219886D02*
X304795D01*
Y233114D01*
X279205Y219886D02*
Y233114D01*
X227886Y129205D02*
X241114D01*
X227886Y154795D02*
X241114D01*
Y129205D02*
Y154795D01*
X227886Y129205D02*
Y154795D01*
Y129205D02*
X241114D01*
X227886Y154795D02*
X241114D01*
Y129205D02*
Y154795D01*
X227886Y129205D02*
Y154795D01*
X107386Y50232D02*
Y75823D01*
X120614Y50232D02*
Y75823D01*
X107386D02*
X120614D01*
X107386Y50232D02*
X120614D01*
X107386D02*
Y75823D01*
X120614Y50232D02*
Y75823D01*
X107386D02*
X120614D01*
X107386Y50232D02*
X120614D01*
X138886Y287177D02*
X152114D01*
X138886Y312768D02*
X152114D01*
Y287177D02*
Y312768D01*
X138886Y287177D02*
Y312768D01*
Y287177D02*
X152114D01*
X138886Y312768D02*
X152114D01*
Y287177D02*
Y312768D01*
X138886Y287177D02*
Y312768D01*
X357886Y274705D02*
Y300295D01*
X371114Y274705D02*
Y300295D01*
X357886D02*
X371114D01*
X357886Y274705D02*
X371114D01*
X357886D02*
Y300295D01*
X371114Y274705D02*
Y300295D01*
X357886D02*
X371114D01*
X357886Y274705D02*
X371114D01*
X440177Y222886D02*
Y236114D01*
X465768Y222886D02*
Y236114D01*
X440177Y222886D02*
X465768D01*
X440177Y236114D02*
X465768D01*
X440177Y222886D02*
Y236114D01*
X465768Y222886D02*
Y236114D01*
X440177Y222886D02*
X465768D01*
X440177Y236114D02*
X465768D01*
X442323Y70264D02*
Y78531D01*
X447677Y70264D02*
Y78531D01*
X442323Y70264D02*
X447677D01*
X442323Y78531D02*
X447677D01*
X442323Y70264D02*
Y78531D01*
X447677Y70264D02*
Y78531D01*
X442323Y70264D02*
X447677D01*
X442323Y78531D02*
X447677D01*
X442366Y139823D02*
X450634D01*
X442366Y145177D02*
X450634D01*
Y139823D02*
Y145177D01*
X442366Y139823D02*
Y145177D01*
Y139823D02*
X450634D01*
X442366Y145177D02*
X450634D01*
Y139823D02*
Y145177D01*
X442366Y139823D02*
Y145177D01*
X371264Y47823D02*
X379532D01*
X371264Y53177D02*
X379532D01*
Y47823D02*
Y53177D01*
X371264Y47823D02*
Y53177D01*
Y47823D02*
X379532D01*
X371264Y53177D02*
X379532D01*
Y47823D02*
Y53177D01*
X371264Y47823D02*
Y53177D01*
X347264Y122677D02*
X355532D01*
X347264Y117323D02*
X355532D01*
X347264D02*
Y122677D01*
X355532Y117323D02*
Y122677D01*
X347264D02*
X355532D01*
X347264Y117323D02*
X355532D01*
X347264D02*
Y122677D01*
X355532Y117323D02*
Y122677D01*
X347366Y132177D02*
X355634D01*
X347366Y126823D02*
X355634D01*
X347366D02*
Y132177D01*
X355634Y126823D02*
Y132177D01*
X347366D02*
X355634D01*
X347366Y126823D02*
X355634D01*
X347366D02*
Y132177D01*
X355634Y126823D02*
Y132177D01*
X478331Y68106D02*
X501953D01*
Y44484D02*
Y68106D01*
X478331Y44484D02*
X501953D01*
X478331D02*
Y68106D01*
X501953D01*
Y44484D02*
Y68106D01*
X478331Y44484D02*
X501953D01*
X478331D02*
Y68106D01*
X295969Y144177D02*
X304236D01*
X295969Y138823D02*
X304236D01*
X295969D02*
Y144177D01*
X304236Y138823D02*
Y144177D01*
X295969D02*
X304236D01*
X295969Y138823D02*
X304236D01*
X295969D02*
Y144177D01*
X304236Y138823D02*
Y144177D01*
X190677Y106764D02*
Y115032D01*
X185323Y106764D02*
Y115032D01*
X190677D01*
X185323Y106764D02*
X190677D01*
Y115032D01*
X185323Y106764D02*
Y115032D01*
X190677D01*
X185323Y106764D02*
X190677D01*
X216677Y137264D02*
Y145531D01*
X211323Y137264D02*
Y145531D01*
X216677D01*
X211323Y137264D02*
X216677D01*
Y145531D01*
X211323Y137264D02*
Y145531D01*
X216677D01*
X211323Y137264D02*
X216677D01*
X246373Y44366D02*
Y52634D01*
X251727Y44366D02*
Y52634D01*
X246373Y44366D02*
X251727D01*
X246373Y52634D02*
X251727D01*
X246373Y44366D02*
Y52634D01*
X251727Y44366D02*
Y52634D01*
X246373Y44366D02*
X251727D01*
X246373Y52634D02*
X251727D01*
X219823Y44469D02*
Y52736D01*
X225177Y44469D02*
Y52736D01*
X219823Y44469D02*
X225177D01*
X219823Y52736D02*
X225177D01*
X219823Y44469D02*
Y52736D01*
X225177Y44469D02*
Y52736D01*
X219823Y44469D02*
X225177D01*
X219823Y52736D02*
X225177D01*
X237823Y44571D02*
Y52839D01*
X243177Y44571D02*
Y52839D01*
X237823Y44571D02*
X243177D01*
X237823Y52839D02*
X243177D01*
X237823Y44571D02*
Y52839D01*
X243177Y44571D02*
Y52839D01*
X237823Y44571D02*
X243177D01*
X237823Y52839D02*
X243177D01*
X324166Y31677D02*
X332434D01*
X324166Y26323D02*
X332434D01*
X324166D02*
Y31677D01*
X332434Y26323D02*
Y31677D01*
X324166D02*
X332434D01*
X324166Y26323D02*
X332434D01*
X324166D02*
Y31677D01*
X332434Y26323D02*
Y31677D01*
X228823Y44469D02*
Y52736D01*
X234177Y44469D02*
Y52736D01*
X228823Y44469D02*
X234177D01*
X228823Y52736D02*
X234177D01*
X228823Y44469D02*
Y52736D01*
X234177Y44469D02*
Y52736D01*
X228823Y44469D02*
X234177D01*
X228823Y52736D02*
X234177D01*
X301866Y175323D02*
X310134D01*
X301866Y180677D02*
X310134D01*
Y175323D02*
Y180677D01*
X301866Y175323D02*
Y180677D01*
Y175323D02*
X310134D01*
X301866Y180677D02*
X310134D01*
Y175323D02*
Y180677D01*
X301866Y175323D02*
Y180677D01*
X287764Y204323D02*
X296031D01*
X287764Y209677D02*
X296031D01*
Y204323D02*
Y209677D01*
X287764Y204323D02*
Y209677D01*
Y204323D02*
X296031D01*
X287764Y209677D02*
X296031D01*
Y204323D02*
Y209677D01*
X287764Y204323D02*
Y209677D01*
X254177Y205764D02*
Y214032D01*
X248823Y205764D02*
Y214032D01*
X254177D01*
X248823Y205764D02*
X254177D01*
Y214032D01*
X248823Y205764D02*
Y214032D01*
X254177D01*
X248823Y205764D02*
X254177D01*
X147945Y228362D02*
X171173D01*
X147945D02*
Y248638D01*
X171173D01*
Y228362D02*
Y248638D01*
X147945Y228362D02*
X171173D01*
X147945D02*
Y248638D01*
X171173D01*
Y228362D02*
Y248638D01*
X115823Y220161D02*
Y228429D01*
X121177Y220161D02*
Y228429D01*
X115823Y220161D02*
X121177D01*
X115823Y228429D02*
X121177D01*
X115823Y220161D02*
Y228429D01*
X121177Y220161D02*
Y228429D01*
X115823Y220161D02*
X121177D01*
X115823Y228429D02*
X121177D01*
X164201Y188236D02*
X172468D01*
X164201Y182882D02*
X172468D01*
X164201D02*
Y188236D01*
X172468Y182882D02*
Y188236D01*
X164201D02*
X172468D01*
X164201Y182882D02*
X172468D01*
X164201D02*
Y188236D01*
X172468Y182882D02*
Y188236D01*
X90523Y220559D02*
Y228827D01*
X95877Y220559D02*
Y228827D01*
X90523Y220559D02*
X95877D01*
X90523Y228827D02*
X95877D01*
X90523Y220559D02*
Y228827D01*
X95877Y220559D02*
Y228827D01*
X90523Y220559D02*
X95877D01*
X90523Y228827D02*
X95877D01*
X98823Y220559D02*
Y228827D01*
X104177Y220559D02*
Y228827D01*
X98823Y220559D02*
X104177D01*
X98823Y228827D02*
X104177D01*
X98823Y220559D02*
Y228827D01*
X104177Y220559D02*
Y228827D01*
X98823Y220559D02*
X104177D01*
X98823Y228827D02*
X104177D01*
X107323Y220264D02*
Y228532D01*
X112677Y220264D02*
Y228532D01*
X107323Y220264D02*
X112677D01*
X107323Y228532D02*
X112677D01*
X107323Y220264D02*
Y228532D01*
X112677Y220264D02*
Y228532D01*
X107323Y220264D02*
X112677D01*
X107323Y228532D02*
X112677D01*
X466968Y195823D02*
X475236D01*
X466968Y201177D02*
X475236D01*
Y195823D02*
Y201177D01*
X466968Y195823D02*
Y201177D01*
Y195823D02*
X475236D01*
X466968Y201177D02*
X475236D01*
Y195823D02*
Y201177D01*
X466968Y195823D02*
Y201177D01*
X449866Y207323D02*
X458134D01*
X449866Y212677D02*
X458134D01*
Y207323D02*
Y212677D01*
X449866Y207323D02*
Y212677D01*
Y207323D02*
X458134D01*
X449866Y212677D02*
X458134D01*
Y207323D02*
Y212677D01*
X449866Y207323D02*
Y212677D01*
X396177Y296468D02*
Y304736D01*
X390823Y296468D02*
Y304736D01*
X396177D01*
X390823Y296468D02*
X396177D01*
Y304736D01*
X390823Y296468D02*
Y304736D01*
X396177D01*
X390823Y296468D02*
X396177D01*
X387177Y282366D02*
Y290634D01*
X381823Y282366D02*
Y290634D01*
X387177D01*
X381823Y282366D02*
X387177D01*
Y290634D01*
X381823Y282366D02*
Y290634D01*
X387177D01*
X381823Y282366D02*
X387177D01*
X178677Y317866D02*
Y326134D01*
X173323Y317866D02*
Y326134D01*
X178677D01*
X173323Y317866D02*
X178677D01*
Y326134D01*
X173323Y317866D02*
Y326134D01*
X178677D01*
X173323Y317866D02*
X178677D01*
X167677Y297264D02*
Y305532D01*
X162323Y297264D02*
Y305532D01*
X167677D01*
X162323Y297264D02*
X167677D01*
Y305532D01*
X162323Y297264D02*
Y305532D01*
X167677D01*
X162323Y297264D02*
X167677D01*
X167366Y152323D02*
X175634D01*
X167366Y157677D02*
X175634D01*
Y152323D02*
Y157677D01*
X167366Y152323D02*
Y157677D01*
Y152323D02*
X175634D01*
X167366Y157677D02*
X175634D01*
Y152323D02*
Y157677D01*
X167366Y152323D02*
Y157677D01*
X137669Y164677D02*
X145936D01*
X137669Y159323D02*
X145936D01*
X137669D02*
Y164677D01*
X145936Y159323D02*
Y164677D01*
X137669D02*
X145936D01*
X137669Y159323D02*
X145936D01*
X137669D02*
Y164677D01*
X145936Y159323D02*
Y164677D01*
X137669Y156677D02*
X145936D01*
X137669Y151323D02*
X145936D01*
X137669D02*
Y156677D01*
X145936Y151323D02*
Y156677D01*
X137669D02*
X145936D01*
X137669Y151323D02*
X145936D01*
X137669D02*
Y156677D01*
X145936Y151323D02*
Y156677D01*
X146820Y59366D02*
Y67634D01*
X141465Y59366D02*
Y67634D01*
X146820D01*
X141465Y59366D02*
X146820D01*
Y67634D01*
X141465Y59366D02*
Y67634D01*
X146820D01*
X141465Y59366D02*
X146820D01*
X158406Y77677D02*
X166674D01*
X158406Y72323D02*
X166674D01*
X158406D02*
Y77677D01*
X166674Y72323D02*
Y77677D01*
X158406D02*
X166674D01*
X158406Y72323D02*
X166674D01*
X158406D02*
Y77677D01*
X166674Y72323D02*
Y77677D01*
D115*
X106885Y208800D02*
G03*
X109285Y208800I1200J0D01*
G01*
X106885D02*
G03*
X109285Y208800I1200J0D01*
G01*
X235515Y33383D02*
G03*
X237915Y33383I1200J0D01*
G01*
X235515D02*
G03*
X237915Y33383I1200J0D01*
G01*
X110885Y203800D02*
X113285D01*
Y201800D02*
Y203800D01*
X110885Y201800D02*
X113285D01*
X102885Y198100D02*
X105285D01*
X102885D02*
Y200000D01*
X105285D01*
Y198100D02*
Y200000D01*
Y196800D02*
Y198100D01*
X102885Y205600D02*
X105285D01*
X102885D02*
Y207500D01*
X105285D01*
Y200000D02*
Y205600D01*
Y207500D01*
Y208800D01*
X106885D01*
X109285D01*
X110885D01*
Y203800D02*
Y208800D01*
Y201800D02*
Y203800D01*
Y196800D02*
Y201800D01*
X105285Y196800D02*
X110885D01*
Y203800D02*
X113285D01*
Y201800D02*
Y203800D01*
X110885Y201800D02*
X113285D01*
X102885Y198100D02*
X105285D01*
X102885D02*
Y200000D01*
X105285D01*
Y198100D02*
Y200000D01*
Y196800D02*
Y198100D01*
X102885Y205600D02*
X105285D01*
X102885D02*
Y207500D01*
X105285D01*
Y200000D02*
Y205600D01*
Y207500D01*
Y208800D01*
X106885D01*
X109285D01*
X110885D01*
Y203800D02*
Y208800D01*
Y201800D02*
Y203800D01*
Y196800D02*
Y201800D01*
X105285Y196800D02*
X110885D01*
X233915Y21383D02*
X239515D01*
Y26383D01*
Y28383D01*
Y33383D01*
X237915D02*
X239515D01*
X235515D02*
X237915D01*
X233915D02*
X235515D01*
X233915Y32083D02*
Y33383D01*
Y30183D02*
Y32083D01*
Y24583D02*
Y30183D01*
X231515Y32083D02*
X233915D01*
X231515Y30183D02*
Y32083D01*
Y30183D02*
X233915D01*
Y21383D02*
Y22683D01*
Y24583D01*
X231515D02*
X233915D01*
X231515Y22683D02*
Y24583D01*
Y22683D02*
X233915D01*
X239515Y26383D02*
X241915D01*
Y28383D01*
X239515D02*
X241915D01*
X233915Y21383D02*
X239515D01*
Y26383D01*
Y28383D01*
Y33383D01*
X237915D02*
X239515D01*
X235515D02*
X237915D01*
X233915D02*
X235515D01*
X233915Y32083D02*
Y33383D01*
Y30183D02*
Y32083D01*
Y24583D02*
Y30183D01*
X231515Y32083D02*
X233915D01*
X231515Y30183D02*
Y32083D01*
Y30183D02*
X233915D01*
Y21383D02*
Y22683D01*
Y24583D01*
X231515D02*
X233915D01*
X231515Y22683D02*
Y24583D01*
Y22683D02*
X233915D01*
X239515Y26383D02*
X241915D01*
Y28383D01*
X239515D02*
X241915D01*
M02*
