G04*
G04 #@! TF.GenerationSoftware,Altium Limited,Altium Designer,19.1.8 (144)*
G04*
G04 Layer_Color=8421504*
%FSLAX25Y25*%
%MOIN*%
G70*
G01*
G75*
%ADD13C,0.01000*%
%ADD19R,0.07000X0.01600*%
%ADD20R,0.09685X0.09095*%
%ADD21R,0.07480X0.13268*%
%ADD22R,0.13268X0.07480*%
%ADD23R,0.05600X0.01300*%
%ADD24R,0.11800X0.12200*%
%ADD25R,0.05709X0.01000*%
%ADD26R,0.01000X0.05709*%
%ADD27R,0.03150X0.03150*%
%ADD28R,0.05709X0.04724*%
%ADD29R,0.05200X0.02200*%
%ADD30R,0.06300X0.10600*%
%ADD31R,0.04724X0.05709*%
%ADD32R,0.03150X0.03150*%
%ADD33R,0.06102X0.01181*%
%ADD34R,0.01181X0.06102*%
%ADD35R,0.03959X0.04724*%
%ADD36R,0.05433X0.04331*%
%ADD37R,0.04724X0.03959*%
%ADD38R,0.04331X0.05433*%
%ADD39R,0.05118X0.08268*%
%ADD40R,0.10600X0.06300*%
%ADD41R,0.13400X0.14400*%
%ADD42R,0.16104X0.16804*%
%ADD43R,0.01693X0.01772*%
%ADD44R,0.01772X0.01693*%
%ADD45R,0.16804X0.16104*%
%ADD46R,0.03347X0.01968*%
%ADD47R,0.03150X0.02362*%
%ADD48R,0.14764X0.17362*%
%ADD49R,0.05200X0.03700*%
%ADD50R,0.05000X0.13000*%
%ADD51R,0.14400X0.13400*%
%ADD52R,0.05906X0.02362*%
G36*
X171764Y244524D02*
X170189D01*
Y247476D01*
X171764D01*
Y244524D01*
D02*
G37*
G36*
X149106D02*
X147138D01*
Y247476D01*
X149106D01*
Y244524D01*
D02*
G37*
G36*
X171764Y239524D02*
X170189D01*
Y242476D01*
X171764D01*
Y239524D01*
D02*
G37*
G36*
X149106D02*
X147138D01*
Y242476D01*
X149106D01*
Y239524D01*
D02*
G37*
G36*
X163299Y238894D02*
X157394D01*
Y244799D01*
X163299D01*
Y238894D01*
D02*
G37*
G36*
X156606D02*
X150701D01*
Y244799D01*
X156606D01*
Y238894D01*
D02*
G37*
G36*
X171764Y234524D02*
X170189D01*
Y237476D01*
X171764D01*
Y234524D01*
D02*
G37*
G36*
X149106D02*
X147138D01*
Y237476D01*
X149106D01*
Y234524D01*
D02*
G37*
G36*
X163299Y232201D02*
X157394D01*
Y238106D01*
X163299D01*
Y232201D01*
D02*
G37*
G36*
X156606D02*
X150701D01*
Y238106D01*
X156606D01*
Y232201D01*
D02*
G37*
G36*
X171764Y229524D02*
X170189D01*
Y232476D01*
X171764D01*
Y229524D01*
D02*
G37*
G36*
X149106D02*
X147138D01*
Y232476D01*
X149106D01*
Y229524D01*
D02*
G37*
G36*
X168000Y216720D02*
X161760D01*
Y222900D01*
X168000D01*
Y216720D01*
D02*
G37*
G36*
X159791D02*
X154929D01*
Y222900D01*
X159791D01*
Y216720D01*
D02*
G37*
G36*
X168000Y208100D02*
X161760D01*
Y214280D01*
X168000D01*
Y208100D01*
D02*
G37*
G36*
X159791D02*
X154929D01*
Y214280D01*
X159791D01*
Y208100D01*
D02*
G37*
G36*
X161843Y134953D02*
X152157D01*
Y144047D01*
X161843D01*
Y134953D01*
D02*
G37*
G36*
X275900Y60477D02*
X269720D01*
Y65339D01*
X275900D01*
Y60477D01*
D02*
G37*
G36*
X267280D02*
X261100D01*
Y65339D01*
X267280D01*
Y60477D01*
D02*
G37*
G36*
X297900Y59760D02*
X291720D01*
Y66000D01*
X297900D01*
Y59760D01*
D02*
G37*
G36*
X289280D02*
X283100D01*
Y66000D01*
X289280D01*
Y59760D01*
D02*
G37*
G36*
X297900Y52929D02*
X291720D01*
Y57791D01*
X297900D01*
Y52929D01*
D02*
G37*
G36*
X289280D02*
X283100D01*
Y57791D01*
X289280D01*
Y52929D01*
D02*
G37*
G36*
X275900Y52268D02*
X269720D01*
Y58508D01*
X275900D01*
Y52268D01*
D02*
G37*
G36*
X267280D02*
X261100D01*
Y58508D01*
X267280D01*
Y52268D01*
D02*
G37*
D13*
X512500Y0D02*
G03*
X515500Y3000I0J3000D01*
G01*
Y338000D02*
G03*
X512000Y341000I-3250J-250D01*
G01*
X3000Y341000D02*
G03*
X0Y338000I0J-3000D01*
G01*
Y3000D02*
G03*
X3000Y0I3000J0D01*
G01*
X512500D01*
X515500Y3000D02*
Y335500D01*
Y338000D01*
X3000Y341000D02*
X512000D01*
X0Y3000D02*
Y338000D01*
D19*
X168700Y131823D02*
D03*
Y134382D02*
D03*
Y136941D02*
D03*
Y139500D02*
D03*
Y142059D02*
D03*
Y144618D02*
D03*
Y147177D02*
D03*
X145300D02*
D03*
Y144618D02*
D03*
Y142059D02*
D03*
Y139500D02*
D03*
Y136941D02*
D03*
Y134382D02*
D03*
Y131823D02*
D03*
D20*
X157000Y139500D02*
D03*
D21*
X281528Y226500D02*
D03*
X302472D02*
D03*
X463445Y229500D02*
D03*
X442500D02*
D03*
D22*
X234500Y152472D02*
D03*
Y131528D02*
D03*
X114000Y52555D02*
D03*
Y73500D02*
D03*
X145500Y310445D02*
D03*
Y289500D02*
D03*
X364500Y277028D02*
D03*
Y297972D02*
D03*
D23*
X121300Y190677D02*
D03*
Y188118D02*
D03*
Y185559D02*
D03*
Y183000D02*
D03*
Y180441D02*
D03*
Y177882D02*
D03*
Y175323D02*
D03*
X143700Y175323D02*
D03*
Y177882D02*
D03*
Y180441D02*
D03*
Y183000D02*
D03*
Y185559D02*
D03*
Y188118D02*
D03*
Y190677D02*
D03*
X284200Y31177D02*
D03*
Y28618D02*
D03*
Y26059D02*
D03*
Y23500D02*
D03*
Y20941D02*
D03*
Y18382D02*
D03*
Y15823D02*
D03*
X261800Y15823D02*
D03*
Y18382D02*
D03*
Y20941D02*
D03*
Y23500D02*
D03*
Y26059D02*
D03*
Y28618D02*
D03*
Y31177D02*
D03*
D24*
X132500Y183000D02*
D03*
X273000Y23500D02*
D03*
D25*
X191161Y298563D02*
D03*
Y300532D02*
D03*
Y302500D02*
D03*
Y304468D02*
D03*
Y306437D02*
D03*
X173839D02*
D03*
Y304468D02*
D03*
Y302500D02*
D03*
Y300532D02*
D03*
Y298563D02*
D03*
X313898Y193468D02*
D03*
Y191500D02*
D03*
Y189532D02*
D03*
Y187563D02*
D03*
Y185594D02*
D03*
X296575D02*
D03*
Y187563D02*
D03*
Y189532D02*
D03*
Y191500D02*
D03*
Y193468D02*
D03*
X214161Y105063D02*
D03*
Y107032D02*
D03*
Y109000D02*
D03*
Y110968D02*
D03*
Y112937D02*
D03*
X196839D02*
D03*
Y110968D02*
D03*
Y109000D02*
D03*
Y107032D02*
D03*
Y105063D02*
D03*
X153642Y60563D02*
D03*
Y62532D02*
D03*
Y64500D02*
D03*
Y66469D02*
D03*
Y68437D02*
D03*
X170965D02*
D03*
Y66469D02*
D03*
Y64500D02*
D03*
Y62532D02*
D03*
Y60563D02*
D03*
X409661Y283063D02*
D03*
Y285032D02*
D03*
Y287000D02*
D03*
Y288968D02*
D03*
Y290937D02*
D03*
X392339D02*
D03*
Y288968D02*
D03*
Y287000D02*
D03*
Y285032D02*
D03*
Y283063D02*
D03*
D26*
X451563Y201661D02*
D03*
X453532D02*
D03*
X455500D02*
D03*
X457469D02*
D03*
X459437D02*
D03*
Y184339D02*
D03*
X457469D02*
D03*
X455500D02*
D03*
X453532D02*
D03*
X451563D02*
D03*
D27*
X245701Y181500D02*
D03*
X252000D02*
D03*
X140650Y22500D02*
D03*
X134350D02*
D03*
X186650Y50500D02*
D03*
X180350D02*
D03*
X191000Y145618D02*
D03*
X184701D02*
D03*
X330150Y217000D02*
D03*
X323850D02*
D03*
X26150Y117500D02*
D03*
X19850D02*
D03*
D28*
X254500Y172500D02*
D03*
Y164626D02*
D03*
X331000Y200063D02*
D03*
Y207937D02*
D03*
X350500Y183874D02*
D03*
Y176000D02*
D03*
X379500Y184874D02*
D03*
Y177000D02*
D03*
X201626Y162437D02*
D03*
Y154563D02*
D03*
X409000Y184874D02*
D03*
Y177000D02*
D03*
D29*
X112385Y202800D02*
D03*
X103785Y199100D02*
D03*
Y206500D02*
D03*
X232415Y31083D02*
D03*
Y23683D02*
D03*
X241015Y27383D02*
D03*
D30*
X261300Y226500D02*
D03*
X249500D02*
D03*
D31*
X163500Y22000D02*
D03*
X171374D02*
D03*
X213000Y48000D02*
D03*
X205126D02*
D03*
X59374Y118500D02*
D03*
X51500D02*
D03*
D32*
X406000Y160643D02*
D03*
Y166942D02*
D03*
X348500Y166299D02*
D03*
Y160000D02*
D03*
X377500Y167799D02*
D03*
Y161500D02*
D03*
D33*
X409402Y138016D02*
D03*
Y136047D02*
D03*
Y134079D02*
D03*
Y132110D02*
D03*
Y130142D02*
D03*
Y128173D02*
D03*
Y126205D02*
D03*
Y124236D02*
D03*
Y122268D02*
D03*
Y120299D02*
D03*
Y118331D02*
D03*
Y116362D02*
D03*
Y114394D02*
D03*
Y112425D02*
D03*
Y110457D02*
D03*
Y108488D02*
D03*
X364126D02*
D03*
Y110457D02*
D03*
Y112425D02*
D03*
Y114394D02*
D03*
Y116362D02*
D03*
Y118331D02*
D03*
Y120299D02*
D03*
Y122268D02*
D03*
Y124236D02*
D03*
Y126205D02*
D03*
Y128173D02*
D03*
Y130142D02*
D03*
Y132110D02*
D03*
Y134079D02*
D03*
Y136047D02*
D03*
Y138016D02*
D03*
D34*
X401528Y100614D02*
D03*
X399559D02*
D03*
X397590D02*
D03*
X395622D02*
D03*
X393653D02*
D03*
X391685D02*
D03*
X389717D02*
D03*
X387748D02*
D03*
X385780D02*
D03*
X383811D02*
D03*
X381842D02*
D03*
X379874D02*
D03*
X377906D02*
D03*
X375937D02*
D03*
X373969D02*
D03*
X372000D02*
D03*
Y145890D02*
D03*
X373969D02*
D03*
X375937D02*
D03*
X377906D02*
D03*
X379874D02*
D03*
X381842D02*
D03*
X383811D02*
D03*
X385780D02*
D03*
X387748D02*
D03*
X389717D02*
D03*
X391685D02*
D03*
X393653D02*
D03*
X395622D02*
D03*
X397590D02*
D03*
X399559D02*
D03*
X401528D02*
D03*
D35*
X346785Y138500D02*
D03*
X353500D02*
D03*
X427000Y59500D02*
D03*
X433715D02*
D03*
X283215Y38500D02*
D03*
X276500D02*
D03*
X142215Y202000D02*
D03*
X135500D02*
D03*
X304000Y158500D02*
D03*
X297285D02*
D03*
X303500Y150000D02*
D03*
X296785D02*
D03*
X230643Y108500D02*
D03*
X237357D02*
D03*
X223398Y115000D02*
D03*
X230113D02*
D03*
X230358Y101500D02*
D03*
X223642D02*
D03*
X221215Y153396D02*
D03*
X214500D02*
D03*
X222500Y129500D02*
D03*
X215785D02*
D03*
X237500Y16883D02*
D03*
X244215D02*
D03*
X324143Y21500D02*
D03*
X330857D02*
D03*
X308142Y13500D02*
D03*
X314858D02*
D03*
X279715Y186500D02*
D03*
X273000D02*
D03*
X293113Y178000D02*
D03*
X286398D02*
D03*
X283040Y194500D02*
D03*
X289755D02*
D03*
X164937Y176540D02*
D03*
X171652D02*
D03*
X114357Y174000D02*
D03*
X107642D02*
D03*
X103785Y191500D02*
D03*
X110500D02*
D03*
X467642Y182000D02*
D03*
X474358D02*
D03*
X480142Y190000D02*
D03*
X486858D02*
D03*
X474358Y173500D02*
D03*
X467642D02*
D03*
X377000Y300000D02*
D03*
X383715D02*
D03*
X377000Y273500D02*
D03*
X383715D02*
D03*
X158285Y313000D02*
D03*
X165000D02*
D03*
X158785Y288000D02*
D03*
X165500D02*
D03*
X177780Y122023D02*
D03*
X184495D02*
D03*
X177780Y136941D02*
D03*
X184495D02*
D03*
X177995Y130523D02*
D03*
X184710D02*
D03*
X133785Y74000D02*
D03*
X140500D02*
D03*
X133285Y51000D02*
D03*
X140000D02*
D03*
X186857Y58000D02*
D03*
X180142D02*
D03*
X182142Y77500D02*
D03*
X188857D02*
D03*
X191285Y68000D02*
D03*
X198000D02*
D03*
D36*
X445000Y77795D02*
D03*
Y71000D02*
D03*
X188000Y107500D02*
D03*
Y114295D02*
D03*
X214000Y138000D02*
D03*
Y144795D02*
D03*
X249050Y51898D02*
D03*
Y45102D02*
D03*
X222500Y52000D02*
D03*
Y45205D02*
D03*
X240500Y52102D02*
D03*
Y45307D02*
D03*
X231500Y52000D02*
D03*
Y45205D02*
D03*
X251500Y206500D02*
D03*
Y213295D02*
D03*
X118500Y227693D02*
D03*
Y220898D02*
D03*
X93200Y228091D02*
D03*
Y221295D02*
D03*
X101500Y228091D02*
D03*
Y221295D02*
D03*
X110000Y227795D02*
D03*
Y221000D02*
D03*
X393500Y297205D02*
D03*
Y304000D02*
D03*
X384500Y283102D02*
D03*
Y289898D02*
D03*
X176000Y318602D02*
D03*
Y325398D02*
D03*
X165000Y298000D02*
D03*
Y304795D02*
D03*
X144142Y60102D02*
D03*
Y66898D02*
D03*
D37*
X415000Y82000D02*
D03*
Y88715D02*
D03*
X469000Y112342D02*
D03*
Y105627D02*
D03*
X417000Y167000D02*
D03*
Y160285D02*
D03*
X389858Y166715D02*
D03*
Y160000D02*
D03*
X361000Y166215D02*
D03*
Y159500D02*
D03*
X468000Y67215D02*
D03*
Y60500D02*
D03*
X281398Y213858D02*
D03*
Y207142D02*
D03*
X302398Y213715D02*
D03*
Y207000D02*
D03*
X259000Y213215D02*
D03*
Y206500D02*
D03*
X243500D02*
D03*
Y213215D02*
D03*
X465859Y217357D02*
D03*
Y210643D02*
D03*
X440500Y216058D02*
D03*
Y209343D02*
D03*
X409500Y311643D02*
D03*
Y318357D02*
D03*
X401000Y297143D02*
D03*
Y303857D02*
D03*
X418500Y304358D02*
D03*
Y297642D02*
D03*
X193500Y325785D02*
D03*
Y332500D02*
D03*
X183500Y312500D02*
D03*
Y319215D02*
D03*
X199000D02*
D03*
Y312500D02*
D03*
D38*
X443602Y142500D02*
D03*
X450398D02*
D03*
X372000Y50500D02*
D03*
X378795D02*
D03*
X354795Y120000D02*
D03*
X348000D02*
D03*
X354898Y129500D02*
D03*
X348102D02*
D03*
X303500Y141500D02*
D03*
X296705D02*
D03*
X331698Y29000D02*
D03*
X324902D02*
D03*
X302602Y178000D02*
D03*
X309398D02*
D03*
X288500Y207000D02*
D03*
X295295D02*
D03*
X171732Y185559D02*
D03*
X164937D02*
D03*
X467705Y198500D02*
D03*
X474500D02*
D03*
X450602Y210000D02*
D03*
X457398D02*
D03*
X168102Y155000D02*
D03*
X174898D02*
D03*
X145200Y162000D02*
D03*
X138405D02*
D03*
X145200Y154000D02*
D03*
X138405D02*
D03*
X165938Y75000D02*
D03*
X159142D02*
D03*
D39*
X365500Y78110D02*
D03*
X385500D02*
D03*
Y60000D02*
D03*
X365500D02*
D03*
D40*
X282500Y148200D02*
D03*
Y160000D02*
D03*
D41*
X281500Y88500D02*
D03*
Y130000D02*
D03*
D42*
X162500Y215500D02*
D03*
D43*
X171268Y223000D02*
D03*
Y218000D02*
D03*
Y213000D02*
D03*
Y208000D02*
D03*
X149732D02*
D03*
Y213000D02*
D03*
Y218000D02*
D03*
Y223000D02*
D03*
D44*
X276000Y70536D02*
D03*
X271000D02*
D03*
X266000D02*
D03*
X261000D02*
D03*
Y49000D02*
D03*
X266000D02*
D03*
X271000D02*
D03*
X276000D02*
D03*
X283000Y69268D02*
D03*
X288000D02*
D03*
X293000D02*
D03*
X298000D02*
D03*
Y47732D02*
D03*
X293000D02*
D03*
X288000D02*
D03*
X283000D02*
D03*
D45*
X268500Y57768D02*
D03*
X290500Y60500D02*
D03*
D46*
X170976Y231000D02*
D03*
Y246000D02*
D03*
Y236000D02*
D03*
Y241000D02*
D03*
D47*
X148043Y246000D02*
D03*
Y241000D02*
D03*
Y236000D02*
D03*
Y231000D02*
D03*
D48*
X157000Y238500D02*
D03*
D49*
X141550Y116550D02*
D03*
Y107500D02*
D03*
Y98450D02*
D03*
D50*
X169500Y107500D02*
D03*
D51*
X190245Y224000D02*
D03*
X231746D02*
D03*
D52*
X458000Y165000D02*
D03*
Y160000D02*
D03*
Y155000D02*
D03*
Y150000D02*
D03*
X437134D02*
D03*
Y155000D02*
D03*
Y160000D02*
D03*
Y165000D02*
D03*
M02*
