G04*
G04 #@! TF.GenerationSoftware,Altium Limited,Altium Designer,19.1.8 (144)*
G04*
G04 Layer_Color=8388736*
%FSLAX25Y25*%
%MOIN*%
G70*
G01*
G75*
%ADD13C,0.01000*%
%ADD19R,0.07000X0.01600*%
%ADD20R,0.09685X0.09095*%
%ADD30R,0.06300X0.10600*%
%ADD33R,0.06102X0.01181*%
%ADD34R,0.01181X0.06102*%
%ADD35R,0.03959X0.04724*%
%ADD37R,0.04724X0.03959*%
%ADD40R,0.10600X0.06300*%
%ADD41R,0.13400X0.14400*%
%ADD49R,0.05200X0.03700*%
%ADD51R,0.14400X0.13400*%
%ADD53R,0.10000X0.25000*%
%ADD54R,0.08280X0.14068*%
%ADD55R,0.14068X0.08280*%
%ADD56R,0.06100X0.01800*%
%ADD57R,0.12600X0.13000*%
%ADD58R,0.06009X0.01300*%
%ADD59R,0.01300X0.06009*%
%ADD60R,0.03950X0.03950*%
%ADD61R,0.06509X0.05524*%
%ADD62R,0.06000X0.03000*%
%ADD63R,0.05524X0.06509*%
%ADD64R,0.03950X0.03950*%
%ADD65R,0.06233X0.05131*%
%ADD66R,0.05131X0.06233*%
%ADD67R,0.05918X0.09068*%
%ADD68R,0.16891X0.17591*%
%ADD69R,0.03280X0.03359*%
%ADD70R,0.03359X0.03280*%
%ADD71R,0.17591X0.16891*%
%ADD72R,0.04147X0.02769*%
%ADD73R,0.03950X0.03162*%
%ADD74R,0.15564X0.18162*%
%ADD75R,0.05800X0.13800*%
%ADD76R,0.06706X0.03162*%
%ADD77O,0.09700X0.06800*%
%ADD78C,0.00800*%
%ADD79C,0.06800*%
%ADD80C,0.06706*%
%ADD81R,0.06706X0.06706*%
%ADD82C,0.04600*%
%ADD83R,0.04600X0.04600*%
%ADD84C,0.06698*%
%ADD85R,0.06706X0.06706*%
%ADD86C,0.07000*%
%ADD87C,0.15800*%
%ADD88O,0.27100X0.10700*%
%ADD89C,0.05800*%
%ADD90C,0.03300*%
%ADD91C,0.03800*%
G36*
X151248Y221445D02*
X148216D01*
Y224555D01*
X151248D01*
Y221445D01*
D02*
G37*
G36*
Y216445D02*
X148216D01*
Y219555D01*
X151248D01*
Y216445D01*
D02*
G37*
G36*
Y211445D02*
X148216D01*
Y214555D01*
X151248D01*
Y211445D01*
D02*
G37*
G36*
X172784Y221445D02*
X171308D01*
Y219555D01*
X172784D01*
Y216445D01*
X171308D01*
Y215500D01*
Y214555D01*
X172784D01*
Y211445D01*
X171308D01*
Y209555D01*
X172784D01*
Y206445D01*
X169752D01*
Y206720D01*
X154417D01*
Y215500D01*
Y224279D01*
X169752D01*
Y224555D01*
X172784D01*
Y221445D01*
D02*
G37*
G36*
X151248Y206445D02*
X148216D01*
Y209555D01*
X151248D01*
Y206445D01*
D02*
G37*
G36*
X158870Y144047D02*
X157689D01*
Y145031D01*
X158870D01*
Y144047D01*
D02*
G37*
G36*
X156311D02*
X155130D01*
Y145031D01*
X156311D01*
Y144047D01*
D02*
G37*
G36*
X158870Y133968D02*
X157689D01*
Y134953D01*
X158870D01*
Y133968D01*
D02*
G37*
G36*
X156311D02*
X155130D01*
Y134953D01*
X156311D01*
Y133968D01*
D02*
G37*
G36*
X174250Y100900D02*
X165050D01*
Y114100D01*
X174250D01*
Y100900D01*
D02*
G37*
G36*
X299555Y67752D02*
X299279D01*
Y52416D01*
X281720D01*
Y67752D01*
X281445D01*
Y70784D01*
X284555D01*
Y69308D01*
X286445D01*
Y70784D01*
X289555D01*
Y69308D01*
X291445D01*
Y70784D01*
X294555D01*
Y69308D01*
X296445D01*
Y70784D01*
X299555D01*
Y67752D01*
D02*
G37*
G36*
X277555Y69020D02*
X274445D01*
Y72052D01*
X277555D01*
Y69020D01*
D02*
G37*
G36*
X272555D02*
X269445D01*
Y72052D01*
X272555D01*
Y69020D01*
D02*
G37*
G36*
X267555D02*
X264445D01*
Y72052D01*
X267555D01*
Y69020D01*
D02*
G37*
G36*
X262555D02*
X259445D01*
Y72052D01*
X262555D01*
Y69020D01*
D02*
G37*
G36*
X277279Y50516D02*
X277555D01*
Y47484D01*
X274445D01*
Y48960D01*
X272555D01*
Y47484D01*
X269445D01*
Y48960D01*
X267555D01*
Y47484D01*
X264445D01*
Y48960D01*
X262555D01*
Y47484D01*
X259445D01*
Y50516D01*
X259720D01*
Y65851D01*
X277279D01*
Y50516D01*
D02*
G37*
G36*
X299555Y46216D02*
X296445D01*
Y49248D01*
X299555D01*
Y46216D01*
D02*
G37*
G36*
X294555D02*
X291445D01*
Y49248D01*
X294555D01*
Y46216D01*
D02*
G37*
G36*
X289555D02*
X286445D01*
Y49248D01*
X289555D01*
Y46216D01*
D02*
G37*
G36*
X284555D02*
X281445D01*
Y49248D01*
X284555D01*
Y46216D01*
D02*
G37*
D13*
X512500Y0D02*
G03*
X515500Y3000I0J3000D01*
G01*
Y338000D02*
G03*
X512000Y341000I-3250J-250D01*
G01*
X3000Y341000D02*
G03*
X0Y338000I0J-3000D01*
G01*
Y3000D02*
G03*
X3000Y0I3000J0D01*
G01*
X512500D01*
X515500Y3000D02*
Y335500D01*
Y338000D01*
X3000Y341000D02*
X512000D01*
X0Y3000D02*
Y338000D01*
D19*
X168700Y131823D02*
D03*
Y134382D02*
D03*
Y136941D02*
D03*
Y139500D02*
D03*
Y142059D02*
D03*
Y144618D02*
D03*
Y147177D02*
D03*
X145300D02*
D03*
Y144618D02*
D03*
Y142059D02*
D03*
Y139500D02*
D03*
Y136941D02*
D03*
Y134382D02*
D03*
Y131823D02*
D03*
D20*
X157000Y139500D02*
D03*
D30*
X261300Y226500D02*
D03*
X249500D02*
D03*
D33*
X409402Y138016D02*
D03*
Y136047D02*
D03*
Y134079D02*
D03*
Y132110D02*
D03*
Y130142D02*
D03*
Y128173D02*
D03*
Y126205D02*
D03*
Y124236D02*
D03*
Y122268D02*
D03*
Y120299D02*
D03*
Y118331D02*
D03*
Y116362D02*
D03*
Y114394D02*
D03*
Y112425D02*
D03*
Y110457D02*
D03*
Y108488D02*
D03*
X364126D02*
D03*
Y110457D02*
D03*
Y112425D02*
D03*
Y114394D02*
D03*
Y116362D02*
D03*
Y118331D02*
D03*
Y120299D02*
D03*
Y122268D02*
D03*
Y124236D02*
D03*
Y126205D02*
D03*
Y128173D02*
D03*
Y130142D02*
D03*
Y132110D02*
D03*
Y134079D02*
D03*
Y136047D02*
D03*
Y138016D02*
D03*
D34*
X401528Y100614D02*
D03*
X399559D02*
D03*
X397590D02*
D03*
X395622D02*
D03*
X393653D02*
D03*
X391685D02*
D03*
X389717D02*
D03*
X387748D02*
D03*
X385780D02*
D03*
X383811D02*
D03*
X381842D02*
D03*
X379874D02*
D03*
X377906D02*
D03*
X375937D02*
D03*
X373969D02*
D03*
X372000D02*
D03*
Y145890D02*
D03*
X373969D02*
D03*
X375937D02*
D03*
X377906D02*
D03*
X379874D02*
D03*
X381842D02*
D03*
X383811D02*
D03*
X385780D02*
D03*
X387748D02*
D03*
X389717D02*
D03*
X391685D02*
D03*
X393653D02*
D03*
X395622D02*
D03*
X397590D02*
D03*
X399559D02*
D03*
X401528D02*
D03*
D35*
X346785Y138500D02*
D03*
X353500D02*
D03*
X427000Y59500D02*
D03*
X433715D02*
D03*
X283215Y38500D02*
D03*
X276500D02*
D03*
X142215Y202000D02*
D03*
X135500D02*
D03*
X304000Y158500D02*
D03*
X297285D02*
D03*
X303500Y150000D02*
D03*
X296785D02*
D03*
X230643Y108500D02*
D03*
X237357D02*
D03*
X223398Y115000D02*
D03*
X230113D02*
D03*
X230358Y101500D02*
D03*
X223642D02*
D03*
X221215Y153396D02*
D03*
X214500D02*
D03*
X222500Y129500D02*
D03*
X215785D02*
D03*
X237500Y16883D02*
D03*
X244215D02*
D03*
X324143Y21500D02*
D03*
X330857D02*
D03*
X308142Y13500D02*
D03*
X314858D02*
D03*
X279715Y186500D02*
D03*
X273000D02*
D03*
X293113Y178000D02*
D03*
X286398D02*
D03*
X283040Y194500D02*
D03*
X289755D02*
D03*
X164937Y176540D02*
D03*
X171652D02*
D03*
X114357Y174000D02*
D03*
X107642D02*
D03*
X103785Y191500D02*
D03*
X110500D02*
D03*
X467642Y182000D02*
D03*
X474358D02*
D03*
X480142Y190000D02*
D03*
X486858D02*
D03*
X474358Y173500D02*
D03*
X467642D02*
D03*
X377000Y300000D02*
D03*
X383715D02*
D03*
X377000Y273500D02*
D03*
X383715D02*
D03*
X158285Y313000D02*
D03*
X165000D02*
D03*
X158785Y288000D02*
D03*
X165500D02*
D03*
X177780Y122023D02*
D03*
X184495D02*
D03*
X177780Y136941D02*
D03*
X184495D02*
D03*
X177995Y130523D02*
D03*
X184710D02*
D03*
X133785Y74000D02*
D03*
X140500D02*
D03*
X133285Y51000D02*
D03*
X140000D02*
D03*
X186857Y58000D02*
D03*
X180142D02*
D03*
X182142Y77500D02*
D03*
X188857D02*
D03*
X191285Y68000D02*
D03*
X198000D02*
D03*
D37*
X415000Y82000D02*
D03*
Y88715D02*
D03*
X469000Y112342D02*
D03*
Y105627D02*
D03*
X417000Y167000D02*
D03*
Y160285D02*
D03*
X389858Y166715D02*
D03*
Y160000D02*
D03*
X361000Y166215D02*
D03*
Y159500D02*
D03*
X468000Y67215D02*
D03*
Y60500D02*
D03*
X281398Y213858D02*
D03*
Y207142D02*
D03*
X302398Y213715D02*
D03*
Y207000D02*
D03*
X259000Y213215D02*
D03*
Y206500D02*
D03*
X243500D02*
D03*
Y213215D02*
D03*
X465859Y217357D02*
D03*
Y210643D02*
D03*
X440500Y216058D02*
D03*
Y209343D02*
D03*
X409500Y311643D02*
D03*
Y318357D02*
D03*
X401000Y297143D02*
D03*
Y303857D02*
D03*
X418500Y304358D02*
D03*
Y297642D02*
D03*
X193500Y325785D02*
D03*
Y332500D02*
D03*
X183500Y312500D02*
D03*
Y319215D02*
D03*
X199000D02*
D03*
Y312500D02*
D03*
D40*
X282500Y148200D02*
D03*
Y160000D02*
D03*
D41*
X281500Y88500D02*
D03*
Y130000D02*
D03*
D49*
X141550Y116550D02*
D03*
Y107500D02*
D03*
Y98450D02*
D03*
D51*
X190245Y224000D02*
D03*
X231746D02*
D03*
D53*
X429501Y83500D02*
D03*
D54*
X281528Y226500D02*
D03*
X302472D02*
D03*
X463445Y229500D02*
D03*
X442500D02*
D03*
D55*
X234500Y152472D02*
D03*
Y131528D02*
D03*
X114000Y52555D02*
D03*
Y73500D02*
D03*
X145500Y310445D02*
D03*
Y289500D02*
D03*
X364500Y277028D02*
D03*
Y297972D02*
D03*
D56*
X121300Y190677D02*
D03*
Y188118D02*
D03*
Y185559D02*
D03*
Y183000D02*
D03*
Y180441D02*
D03*
Y177882D02*
D03*
Y175323D02*
D03*
X143700Y175323D02*
D03*
Y177882D02*
D03*
Y180441D02*
D03*
Y183000D02*
D03*
Y185559D02*
D03*
Y188118D02*
D03*
Y190677D02*
D03*
X284200Y31177D02*
D03*
Y28618D02*
D03*
Y26059D02*
D03*
Y23500D02*
D03*
Y20941D02*
D03*
Y18382D02*
D03*
Y15823D02*
D03*
X261800Y15823D02*
D03*
Y18382D02*
D03*
Y20941D02*
D03*
Y23500D02*
D03*
Y26059D02*
D03*
Y28618D02*
D03*
Y31177D02*
D03*
D57*
X132500Y183000D02*
D03*
X273000Y23500D02*
D03*
D58*
X191161Y298563D02*
D03*
Y300532D02*
D03*
Y302500D02*
D03*
Y304468D02*
D03*
Y306437D02*
D03*
X173839D02*
D03*
Y304468D02*
D03*
Y302500D02*
D03*
Y300532D02*
D03*
Y298563D02*
D03*
X313898Y193468D02*
D03*
Y191500D02*
D03*
Y189532D02*
D03*
Y187563D02*
D03*
Y185594D02*
D03*
X296575D02*
D03*
Y187563D02*
D03*
Y189532D02*
D03*
Y191500D02*
D03*
Y193468D02*
D03*
X214161Y105063D02*
D03*
Y107032D02*
D03*
Y109000D02*
D03*
Y110968D02*
D03*
Y112937D02*
D03*
X196839D02*
D03*
Y110968D02*
D03*
Y109000D02*
D03*
Y107032D02*
D03*
Y105063D02*
D03*
X153642Y60563D02*
D03*
Y62532D02*
D03*
Y64500D02*
D03*
Y66469D02*
D03*
Y68437D02*
D03*
X170965D02*
D03*
Y66469D02*
D03*
Y64500D02*
D03*
Y62532D02*
D03*
Y60563D02*
D03*
X409661Y283063D02*
D03*
Y285032D02*
D03*
Y287000D02*
D03*
Y288968D02*
D03*
Y290937D02*
D03*
X392339D02*
D03*
Y288968D02*
D03*
Y287000D02*
D03*
Y285032D02*
D03*
Y283063D02*
D03*
D59*
X451563Y201661D02*
D03*
X453532D02*
D03*
X455500D02*
D03*
X457469D02*
D03*
X459437D02*
D03*
Y184339D02*
D03*
X457469D02*
D03*
X455500D02*
D03*
X453532D02*
D03*
X451563D02*
D03*
D60*
X245701Y181500D02*
D03*
X252000D02*
D03*
X140650Y22500D02*
D03*
X134350D02*
D03*
X186650Y50500D02*
D03*
X180350D02*
D03*
X191000Y145618D02*
D03*
X184701D02*
D03*
X330150Y217000D02*
D03*
X323850D02*
D03*
X26150Y117500D02*
D03*
X19850D02*
D03*
D61*
X254500Y172500D02*
D03*
Y164626D02*
D03*
X331000Y200063D02*
D03*
Y207937D02*
D03*
X350500Y183874D02*
D03*
Y176000D02*
D03*
X379500Y184874D02*
D03*
Y177000D02*
D03*
X201626Y162437D02*
D03*
Y154563D02*
D03*
X409000Y184874D02*
D03*
Y177000D02*
D03*
D62*
X112385Y202800D02*
D03*
X103785Y199100D02*
D03*
Y206500D02*
D03*
X232415Y31083D02*
D03*
Y23683D02*
D03*
X241015Y27383D02*
D03*
D63*
X163500Y22000D02*
D03*
X171374D02*
D03*
X213000Y48000D02*
D03*
X205126D02*
D03*
X59374Y118500D02*
D03*
X51500D02*
D03*
D64*
X406000Y160643D02*
D03*
Y166942D02*
D03*
X348500Y166299D02*
D03*
Y160000D02*
D03*
X377500Y167799D02*
D03*
Y161500D02*
D03*
D65*
X445000Y77795D02*
D03*
Y71000D02*
D03*
X188000Y107500D02*
D03*
Y114295D02*
D03*
X214000Y138000D02*
D03*
Y144795D02*
D03*
X249050Y51898D02*
D03*
Y45102D02*
D03*
X222500Y52000D02*
D03*
Y45205D02*
D03*
X240500Y52102D02*
D03*
Y45307D02*
D03*
X231500Y52000D02*
D03*
Y45205D02*
D03*
X251500Y206500D02*
D03*
Y213295D02*
D03*
X118500Y227693D02*
D03*
Y220898D02*
D03*
X93200Y228091D02*
D03*
Y221295D02*
D03*
X101500Y228091D02*
D03*
Y221295D02*
D03*
X110000Y227795D02*
D03*
Y221000D02*
D03*
X393500Y297205D02*
D03*
Y304000D02*
D03*
X384500Y283102D02*
D03*
Y289898D02*
D03*
X176000Y318602D02*
D03*
Y325398D02*
D03*
X165000Y298000D02*
D03*
Y304795D02*
D03*
X144142Y60102D02*
D03*
Y66898D02*
D03*
D66*
X443602Y142500D02*
D03*
X450398D02*
D03*
X372000Y50500D02*
D03*
X378795D02*
D03*
X354795Y120000D02*
D03*
X348000D02*
D03*
X354898Y129500D02*
D03*
X348102D02*
D03*
X303500Y141500D02*
D03*
X296705D02*
D03*
X331698Y29000D02*
D03*
X324902D02*
D03*
X302602Y178000D02*
D03*
X309398D02*
D03*
X288500Y207000D02*
D03*
X295295D02*
D03*
X171732Y185559D02*
D03*
X164937D02*
D03*
X467705Y198500D02*
D03*
X474500D02*
D03*
X450602Y210000D02*
D03*
X457398D02*
D03*
X168102Y155000D02*
D03*
X174898D02*
D03*
X145200Y162000D02*
D03*
X138405D02*
D03*
X145200Y154000D02*
D03*
X138405D02*
D03*
X165938Y75000D02*
D03*
X159142D02*
D03*
D67*
X365500Y78110D02*
D03*
X385500D02*
D03*
Y60000D02*
D03*
X365500D02*
D03*
D68*
X162500Y215500D02*
D03*
D69*
X171268Y223000D02*
D03*
Y218000D02*
D03*
Y213000D02*
D03*
Y208000D02*
D03*
X149732D02*
D03*
Y213000D02*
D03*
Y218000D02*
D03*
Y223000D02*
D03*
D70*
X276000Y70536D02*
D03*
X271000D02*
D03*
X266000D02*
D03*
X261000D02*
D03*
Y49000D02*
D03*
X266000D02*
D03*
X271000D02*
D03*
X276000D02*
D03*
X283000Y69268D02*
D03*
X288000D02*
D03*
X293000D02*
D03*
X298000D02*
D03*
Y47732D02*
D03*
X293000D02*
D03*
X288000D02*
D03*
X283000D02*
D03*
D71*
X268500Y57768D02*
D03*
X290500Y60500D02*
D03*
D72*
X170976Y231000D02*
D03*
Y246000D02*
D03*
Y236000D02*
D03*
Y241000D02*
D03*
D73*
X148043Y246000D02*
D03*
Y241000D02*
D03*
Y236000D02*
D03*
Y231000D02*
D03*
D74*
X157000Y238500D02*
D03*
D75*
X169500Y107500D02*
D03*
D76*
X458000Y165000D02*
D03*
Y160000D02*
D03*
Y155000D02*
D03*
Y150000D02*
D03*
X437134D02*
D03*
Y155000D02*
D03*
Y160000D02*
D03*
Y165000D02*
D03*
D77*
X500500Y15000D02*
D03*
Y326000D02*
D03*
X15000D02*
D03*
Y15000D02*
D03*
D78*
X498500Y165933D02*
D03*
Y130500D02*
D03*
X498512Y81689D02*
D03*
Y117122D02*
D03*
D79*
X482988Y154122D02*
D03*
X494799D02*
D03*
X482988Y142311D02*
D03*
X494799D02*
D03*
X200000Y230000D02*
D03*
X427000Y165000D02*
D03*
X434000Y107000D02*
D03*
X459500Y43500D02*
D03*
X347500Y105500D02*
D03*
X368000Y88000D02*
D03*
X434500Y142500D02*
D03*
X435000Y42500D02*
D03*
X419500Y52000D02*
D03*
X494811Y93500D02*
D03*
X483000D02*
D03*
X494811Y105311D02*
D03*
X483000D02*
D03*
X230358Y93000D02*
D03*
X226000Y182000D02*
D03*
X250900Y14584D02*
D03*
X333500Y45000D02*
D03*
X244216Y38000D02*
D03*
X311500Y224000D02*
D03*
X316398Y177102D02*
D03*
X107217Y214000D02*
D03*
X97783Y213500D02*
D03*
X497500Y232500D02*
D03*
X499000Y286000D02*
D03*
X497500Y312000D02*
D03*
X445500Y323000D02*
D03*
X444500Y286500D02*
D03*
X485000Y218500D02*
D03*
X494500Y209500D02*
D03*
X320000Y299500D02*
D03*
X293500Y331000D02*
D03*
X367500Y327500D02*
D03*
X283000Y331500D02*
D03*
X269500Y299500D02*
D03*
X283000D02*
D03*
X428500Y305500D02*
D03*
X70000Y332500D02*
D03*
X57500Y300500D02*
D03*
X36000Y331500D02*
D03*
X209000Y319000D02*
D03*
X113500Y301000D02*
D03*
X140500Y329500D02*
D03*
X52500Y291500D02*
D03*
X104000Y83000D02*
D03*
X37000Y234500D02*
D03*
X17500Y135500D02*
D03*
X70500Y84500D02*
D03*
X44000Y19000D02*
D03*
X176000Y83000D02*
D03*
X131000Y15000D02*
D03*
D80*
X268000Y160000D02*
D03*
X458000Y119127D02*
D03*
Y109127D02*
D03*
X260500Y240000D02*
D03*
X475000Y324000D02*
D03*
X465000Y314000D02*
D03*
X475000D02*
D03*
X465000Y304000D02*
D03*
X475000D02*
D03*
X465000Y294000D02*
D03*
X475000D02*
D03*
X465000Y284000D02*
D03*
X475000D02*
D03*
X465000Y274000D02*
D03*
X475000D02*
D03*
X465000Y264000D02*
D03*
X475000D02*
D03*
X465000Y254000D02*
D03*
X475000D02*
D03*
X273000Y321000D02*
D03*
X283000Y311000D02*
D03*
Y321000D02*
D03*
X293000Y311000D02*
D03*
Y321000D02*
D03*
X303000Y311000D02*
D03*
Y321000D02*
D03*
X313000Y311000D02*
D03*
Y321000D02*
D03*
X323000Y311000D02*
D03*
Y321000D02*
D03*
X333000Y311000D02*
D03*
Y321000D02*
D03*
X343000Y311000D02*
D03*
Y321000D02*
D03*
X46000D02*
D03*
X56000Y311000D02*
D03*
Y321000D02*
D03*
X66000Y311000D02*
D03*
Y321000D02*
D03*
X76000Y311000D02*
D03*
Y321000D02*
D03*
X86000Y311000D02*
D03*
Y321000D02*
D03*
X96000Y311000D02*
D03*
Y321000D02*
D03*
X106000Y311000D02*
D03*
Y321000D02*
D03*
X116000Y311000D02*
D03*
Y321000D02*
D03*
D81*
X268000Y150000D02*
D03*
X458000Y99127D02*
D03*
X465000Y324000D02*
D03*
D82*
X427000Y93500D02*
D03*
X432000D02*
D03*
X427000Y88500D02*
D03*
X432000D02*
D03*
X427000Y83500D02*
D03*
X432000D02*
D03*
X427000Y78500D02*
D03*
X432000D02*
D03*
X427000Y73500D02*
D03*
D83*
X432000D02*
D03*
D84*
X499000Y69091D02*
D03*
Y43500D02*
D03*
X481284Y69091D02*
D03*
Y43500D02*
D03*
D85*
X250500Y240000D02*
D03*
X273000Y311000D02*
D03*
X46000D02*
D03*
D86*
X119500Y18000D02*
D03*
X79500Y19000D02*
D03*
D87*
X34000Y149000D02*
D03*
Y216200D02*
D03*
X33800Y34600D02*
D03*
Y101800D02*
D03*
D88*
X42200Y197300D02*
D03*
Y167900D02*
D03*
X42000Y82900D02*
D03*
Y53500D02*
D03*
D89*
X120788Y144827D02*
D03*
X130000Y135500D02*
D03*
X131250Y144618D02*
D03*
X314647Y126647D02*
D03*
X316000Y135000D02*
D03*
X389022Y152535D02*
D03*
X300162Y22200D02*
D03*
X212763Y91000D02*
D03*
X113037Y181500D02*
D03*
X107222Y185559D02*
D03*
X271000Y40360D02*
D03*
X415560Y277000D02*
D03*
X171500Y118000D02*
D03*
X287000Y187563D02*
D03*
X466163Y190000D02*
D03*
X351000Y145500D02*
D03*
X282215Y201000D02*
D03*
X474000Y190000D02*
D03*
X409691Y229809D02*
D03*
X345049Y233000D02*
D03*
X203000Y307500D02*
D03*
X199108Y301500D02*
D03*
X207500Y256000D02*
D03*
X173839Y310500D02*
D03*
X183000Y154000D02*
D03*
X184000Y161000D02*
D03*
X197000Y255000D02*
D03*
X178000Y252500D02*
D03*
X421000Y288500D02*
D03*
X192000Y312420D02*
D03*
X409691Y297642D02*
D03*
X407398Y304358D02*
D03*
X364000Y190500D02*
D03*
X321500Y200063D02*
D03*
X265500Y170500D02*
D03*
X344000Y150500D02*
D03*
X280000Y180500D02*
D03*
X381500Y152898D02*
D03*
X359500Y144500D02*
D03*
X365000Y150000D02*
D03*
X372500Y156000D02*
D03*
X371928Y172000D02*
D03*
X331000Y160000D02*
D03*
X337000Y154000D02*
D03*
X189630Y319000D02*
D03*
X205500Y144000D02*
D03*
X198500Y148000D02*
D03*
X209000Y173500D02*
D03*
X82500Y223000D02*
D03*
X273000Y115000D02*
D03*
X214500Y84000D02*
D03*
X171761Y31239D02*
D03*
X224000Y108500D02*
D03*
X231000Y122000D02*
D03*
X178000Y70000D02*
D03*
X184438Y68000D02*
D03*
X341500Y111500D02*
D03*
X467642Y166500D02*
D03*
X386626Y124862D02*
D03*
X373472Y128173D02*
D03*
X389500Y190500D02*
D03*
X320500Y114000D02*
D03*
X394126Y137362D02*
D03*
X398626Y159362D02*
D03*
X436858Y189500D02*
D03*
X387000Y46000D02*
D03*
X425710Y123362D02*
D03*
X425126Y113211D02*
D03*
X417959Y109362D02*
D03*
X442626Y115880D02*
D03*
X444626Y123362D02*
D03*
X434500Y182000D02*
D03*
X457000Y172000D02*
D03*
X237000Y182000D02*
D03*
Y171500D02*
D03*
X225500D02*
D03*
X448000Y242500D02*
D03*
X438760Y250500D02*
D03*
X448000D02*
D03*
X438760Y242500D02*
D03*
X351500Y276260D02*
D03*
X343500Y285500D02*
D03*
Y276260D02*
D03*
X351500Y285500D02*
D03*
X254500Y24000D02*
D03*
X240500Y74500D02*
D03*
X118500Y88500D02*
D03*
X341000Y13000D02*
D03*
X303500Y50500D02*
D03*
X298000Y75000D02*
D03*
X331698Y36000D02*
D03*
X292977Y18382D02*
D03*
X308000Y26000D02*
D03*
X302000Y114000D02*
D03*
X226000Y16500D02*
D03*
X219000Y21500D02*
D03*
X227700Y35700D02*
D03*
X253000Y76500D02*
D03*
X152000Y182500D02*
D03*
X96500Y199100D02*
D03*
X135250Y241000D02*
D03*
X141000Y237000D02*
D03*
X232500Y204000D02*
D03*
X96500Y206500D02*
D03*
X157456Y188118D02*
D03*
X200000Y183500D02*
D03*
X154000Y202500D02*
D03*
X133000Y294000D02*
D03*
X125000Y284760D02*
D03*
Y294000D02*
D03*
X133000Y284760D02*
D03*
X159000Y89500D02*
D03*
X139500Y87500D02*
D03*
X156000Y107500D02*
D03*
X381626Y93862D02*
D03*
X384126Y108362D02*
D03*
D90*
X157000Y137518D02*
D03*
X154595Y141461D02*
D03*
X158870D02*
D03*
D91*
X276500Y9500D02*
D03*
X151500Y167380D02*
D03*
X164000Y163000D02*
D03*
X150300D02*
D03*
X162154Y167302D02*
D03*
M02*
