G04*
G04 #@! TF.GenerationSoftware,Altium Limited,Altium Designer,19.1.8 (144)*
G04*
G04 Layer_Physical_Order=4*
G04 Layer_Color=16711680*
%FSLAX44Y44*%
%MOMM*%
G71*
G01*
G75*
%ADD13C,0.2540*%
%ADD16C,0.1270*%
%ADD93C,0.6350*%
%ADD96C,0.5080*%
%ADD101O,2.2606X1.5240*%
%ADD102C,1.5240*%
%ADD103C,1.5000*%
%ADD104R,1.5000X1.5000*%
%ADD105C,1.0160*%
%ADD106R,1.0160X1.0160*%
%ADD107C,1.4980*%
%ADD108R,1.5000X1.5000*%
%ADD109C,3.8100*%
%ADD110O,6.6802X2.5146*%
%ADD111C,1.2700*%
%ADD112C,0.6350*%
%ADD113C,0.7620*%
%ADD114C,1.2700*%
G36*
X1302781Y862896D02*
X1305622Y860998D01*
X1305720Y860900D01*
X1306088Y860349D01*
X1306480Y859404D01*
X1305973Y858844D01*
X1304556Y856724D01*
X1303580Y854368D01*
X1303083Y851867D01*
X1303020Y850592D01*
Y3050D01*
X1302472Y2823D01*
X1301297Y2590D01*
X1300698Y2590D01*
X17523D01*
X13730Y4161D01*
X9570Y6941D01*
X2590Y13920D01*
Y857468D01*
X2589Y857468D01*
X2590Y857469D01*
X2589Y858067D01*
X2822Y859240D01*
X3279Y860346D01*
X3944Y861341D01*
X4366Y861764D01*
X4790Y862188D01*
X5788Y862856D01*
X6896Y863315D01*
X8073Y863550D01*
X8673Y863550D01*
X734301D01*
X734554Y862280D01*
X732662Y861497D01*
X728401Y858886D01*
X724768Y855782D01*
X724582Y855659D01*
X721992Y853068D01*
X721804Y853146D01*
X718820Y853539D01*
X715836Y853146D01*
X713056Y851994D01*
X710668Y850162D01*
X708836Y847774D01*
X707684Y844994D01*
X707291Y842010D01*
X707684Y839026D01*
X707762Y838838D01*
X695409Y826486D01*
X693420Y826748D01*
X690468Y826359D01*
X688606Y825588D01*
X668381D01*
Y825610D01*
X662801Y825171D01*
X657358Y823864D01*
X652187Y821722D01*
X647415Y818798D01*
X643159Y815163D01*
X643159Y815163D01*
X642276Y814249D01*
X611244Y783216D01*
X609615Y781094D01*
X608591Y778622D01*
X608242Y775970D01*
X608242Y775970D01*
Y557618D01*
X526445D01*
X511802Y572260D01*
X512050Y573506D01*
X513764Y574216D01*
X516152Y576048D01*
X517984Y578436D01*
X519136Y581216D01*
X519529Y584200D01*
X519136Y587184D01*
X517984Y589964D01*
X516152Y592352D01*
X513764Y594184D01*
X510984Y595336D01*
X508000Y595729D01*
X505016Y595336D01*
X502236Y594184D01*
X499848Y592352D01*
X498016Y589964D01*
X497306Y588250D01*
X496060Y588002D01*
X453877Y630185D01*
X454286Y631387D01*
X454772Y631451D01*
X457244Y632475D01*
X459366Y634104D01*
X460995Y636226D01*
X462019Y638698D01*
X462368Y641350D01*
X462028Y643933D01*
X470552Y652457D01*
X471675Y654138D01*
X472069Y656120D01*
Y793345D01*
X477456Y798732D01*
X478533Y798012D01*
X477781Y796198D01*
X477432Y793546D01*
X477781Y790894D01*
X478805Y788422D01*
X480434Y786300D01*
X482556Y784671D01*
X485028Y783647D01*
X487680Y783298D01*
X490332Y783647D01*
X492804Y784671D01*
X494926Y786300D01*
X496555Y788422D01*
X497387Y790432D01*
X509071D01*
X509502Y789162D01*
X508374Y788296D01*
X506745Y786174D01*
X505997Y784367D01*
X505460D01*
X505460Y784367D01*
X503478Y783972D01*
X501797Y782850D01*
X492419Y773471D01*
X491296Y771790D01*
X490901Y769808D01*
Y712278D01*
X491296Y710296D01*
X492419Y708616D01*
X495201Y705834D01*
Y656532D01*
X493134Y654946D01*
X491505Y652824D01*
X490481Y650352D01*
X490132Y647700D01*
X490481Y645048D01*
X491505Y642576D01*
X493134Y640454D01*
X495256Y638825D01*
X497728Y637802D01*
X500380Y637452D01*
X503032Y637802D01*
X505504Y638825D01*
X507626Y640454D01*
X509255Y642576D01*
X510279Y645048D01*
X510628Y647700D01*
X510279Y650352D01*
X509255Y652824D01*
X507626Y654946D01*
X505560Y656532D01*
Y707979D01*
X505165Y709961D01*
X504043Y711642D01*
X501260Y714424D01*
Y756897D01*
X502317Y757603D01*
X503412Y757149D01*
X505733Y756843D01*
X508054Y757149D01*
X510216Y758045D01*
X512073Y759470D01*
X513498Y761327D01*
X514394Y763489D01*
X514700Y765810D01*
X514394Y768131D01*
X513714Y769772D01*
X514469Y770901D01*
X514539Y770945D01*
X515620Y770802D01*
X518272Y771152D01*
X520744Y772175D01*
X521379Y772663D01*
X522518Y772101D01*
Y659360D01*
X521926Y659115D01*
X519804Y657486D01*
X518175Y655364D01*
X517151Y652892D01*
X516802Y650240D01*
X517151Y647588D01*
X518175Y645116D01*
X519804Y642994D01*
X521926Y641365D01*
X524398Y640341D01*
X527050Y639992D01*
X529702Y640341D01*
X532174Y641365D01*
X534296Y642994D01*
X535925Y645116D01*
X536949Y647588D01*
X537298Y650240D01*
X536949Y652892D01*
X535925Y655364D01*
X534296Y657486D01*
X532174Y659115D01*
X531582Y659360D01*
Y784060D01*
X531582Y784060D01*
X531237Y785795D01*
X530255Y787265D01*
X530255Y787265D01*
X519351Y798169D01*
X517880Y799151D01*
X516146Y799496D01*
X495920D01*
X494926Y800792D01*
X492804Y802421D01*
X490715Y803286D01*
X490136Y804618D01*
X490534Y805136D01*
X491558Y807608D01*
X491907Y810260D01*
X491558Y812912D01*
X490534Y815384D01*
X488906Y817506D01*
X486783Y819135D01*
X484312Y820158D01*
X481660Y820508D01*
X479007Y820158D01*
X476536Y819135D01*
X474413Y817506D01*
X472785Y815384D01*
X471761Y812912D01*
X471412Y810260D01*
X471752Y807677D01*
X463227Y799153D01*
X462104Y797472D01*
X461710Y795490D01*
Y658265D01*
X454703Y651258D01*
X452120Y651598D01*
X449468Y651248D01*
X446996Y650225D01*
X444874Y648596D01*
X443245Y646474D01*
X442221Y644002D01*
X442157Y643516D01*
X440955Y643107D01*
X403716Y680346D01*
X401594Y681975D01*
X399122Y682999D01*
X396470Y683348D01*
X396470Y683348D01*
X89335D01*
X63589Y709094D01*
X62691Y709992D01*
X61872Y710923D01*
X60349Y712908D01*
X58914Y716372D01*
X58466Y719773D01*
X58508Y720090D01*
Y774265D01*
X84020Y799778D01*
X84897Y800654D01*
X85831Y801465D01*
X87174Y802567D01*
X89800Y803970D01*
X92648Y804834D01*
X95464Y805112D01*
X95611Y805092D01*
X112026D01*
X113888Y804321D01*
X116840Y803932D01*
X119792Y804321D01*
X122544Y805461D01*
X124906Y807274D01*
X126719Y809636D01*
X127859Y812387D01*
X128248Y815340D01*
X127859Y818292D01*
X126719Y821044D01*
X124906Y823406D01*
X122544Y825219D01*
X119792Y826359D01*
X116840Y826748D01*
X113888Y826359D01*
X112026Y825588D01*
X95611D01*
Y825610D01*
X90031Y825171D01*
X84588Y823864D01*
X79417Y821722D01*
X74645Y818798D01*
X70389Y815163D01*
X70389Y815163D01*
X69506Y814249D01*
X41014Y785756D01*
X39385Y783634D01*
X38361Y781162D01*
X38012Y778510D01*
X38012Y778510D01*
Y720090D01*
X37993D01*
X38421Y714647D01*
X39696Y709337D01*
X41785Y704293D01*
X44638Y699638D01*
X48184Y695486D01*
X48198Y695500D01*
X48198Y695499D01*
X77844Y665854D01*
X77844Y665854D01*
X79966Y664225D01*
X82438Y663202D01*
X85090Y662852D01*
X392225D01*
X514953Y540124D01*
X514954Y540124D01*
X517076Y538495D01*
X519548Y537472D01*
X522200Y537122D01*
X522200Y537122D01*
X608242D01*
Y510975D01*
X575270Y478002D01*
X573689Y478081D01*
X572849Y478643D01*
X571858Y478840D01*
X554990D01*
X553999Y478643D01*
X553159Y478081D01*
X552597Y477241D01*
X552400Y476250D01*
Y408940D01*
X552416Y408861D01*
X552405Y408781D01*
X552514Y408368D01*
X552597Y407949D01*
X552642Y407882D01*
X552663Y407803D01*
X552922Y407464D01*
X553159Y407109D01*
X553226Y407064D01*
X553275Y407000D01*
X554205Y406178D01*
X554357Y406089D01*
X554481Y405965D01*
X555575Y405234D01*
X555811Y405136D01*
X556023Y404994D01*
X557602Y404341D01*
X557852Y404291D01*
X558087Y404193D01*
X559763Y403860D01*
X560018D01*
X560268Y403810D01*
X631190D01*
X632181Y404007D01*
X633021Y404569D01*
X633583Y405409D01*
X633780Y406400D01*
Y476250D01*
X633583Y477241D01*
X633021Y478081D01*
X632181Y478643D01*
X631190Y478840D01*
X606752D01*
X606265Y480013D01*
X625736Y499484D01*
X625736Y499484D01*
X627365Y501606D01*
X628388Y504078D01*
X628738Y506730D01*
X628738Y506730D01*
Y598290D01*
X647580D01*
Y620910D01*
X628738D01*
Y771725D01*
X657667Y800654D01*
X657667Y800654D01*
X658601Y801465D01*
X659944Y802567D01*
X662570Y803970D01*
X665418Y804834D01*
X668234Y805112D01*
X668381Y805092D01*
X688606D01*
X690468Y804321D01*
X693420Y803932D01*
X696373Y804321D01*
X699124Y805461D01*
X701486Y807274D01*
X703299Y809636D01*
X704439Y812387D01*
X704828Y815340D01*
X704566Y817329D01*
X707061Y819825D01*
X708138Y819106D01*
X707801Y818292D01*
X707412Y815340D01*
X707801Y812387D01*
X708941Y809636D01*
X710754Y807274D01*
X713116Y805461D01*
X715867Y804321D01*
X718820Y803932D01*
X721773Y804321D01*
X724524Y805461D01*
X726886Y807274D01*
X728699Y809636D01*
X729839Y812387D01*
X730228Y815340D01*
X729839Y818292D01*
X728699Y821044D01*
X726886Y823406D01*
X724524Y825219D01*
X721773Y826359D01*
X718820Y826748D01*
X715867Y826359D01*
X715054Y826022D01*
X714335Y827099D01*
X717846Y830610D01*
X718820Y830481D01*
X721804Y830874D01*
X724584Y832026D01*
X726972Y833858D01*
X728804Y836246D01*
X729956Y839026D01*
X730349Y842010D01*
X730220Y842984D01*
X733739Y846502D01*
X734167Y846591D01*
X735083Y845483D01*
X734354Y843724D01*
X733961Y840740D01*
X734354Y837756D01*
X735506Y834976D01*
X737338Y832588D01*
X739726Y830756D01*
X742506Y829604D01*
X745490Y829211D01*
X748474Y829604D01*
X751254Y830756D01*
X753642Y832588D01*
X755474Y834976D01*
X756626Y837756D01*
X757019Y840740D01*
X756626Y843724D01*
X755474Y846504D01*
X753642Y848892D01*
X751254Y850724D01*
X751130Y850776D01*
X751383Y852046D01*
X1160419D01*
X1160718Y852105D01*
X1164128Y851769D01*
X1167695Y850687D01*
X1170983Y848930D01*
X1173632Y846756D01*
X1173801Y846502D01*
X1184861Y835443D01*
X1184374Y834270D01*
X1169790D01*
Y811650D01*
X1192410D01*
Y826235D01*
X1193583Y826721D01*
X1195354Y824949D01*
X1195092Y822960D01*
X1195481Y820007D01*
X1196621Y817256D01*
X1198434Y814894D01*
X1200796Y813081D01*
X1203548Y811941D01*
X1206500Y811552D01*
X1209453Y811941D01*
X1212204Y813081D01*
X1214566Y814894D01*
X1216379Y817256D01*
X1217519Y820007D01*
X1217908Y822960D01*
X1217519Y825912D01*
X1216379Y828664D01*
X1214566Y831026D01*
X1212204Y832839D01*
X1209453Y833979D01*
X1206500Y834368D01*
X1204510Y834106D01*
X1182958Y855659D01*
X1182772Y855782D01*
X1179139Y858886D01*
X1174878Y861497D01*
X1172987Y862280D01*
X1173239Y863550D01*
X1300698D01*
X1301202Y863550D01*
X1302781Y862896D01*
D02*
G37*
G36*
X631190Y406400D02*
X560268D01*
X558592Y406733D01*
X557014Y407387D01*
X555920Y408118D01*
X554990Y408940D01*
Y476250D01*
X571858D01*
X572344Y475077D01*
X566794Y469526D01*
X566106Y468630D01*
X574040D01*
Y462280D01*
X580390D01*
Y454346D01*
X581286Y455034D01*
X592716Y466463D01*
X593792Y465744D01*
X593319Y464601D01*
X593013Y462280D01*
X593319Y459959D01*
X594215Y457797D01*
X595630Y455952D01*
Y462280D01*
X601980D01*
Y468630D01*
X608308D01*
X606463Y470045D01*
X604301Y470941D01*
X601980Y471247D01*
X599659Y470941D01*
X598516Y470468D01*
X597797Y471544D01*
X602502Y476250D01*
X631190D01*
Y406400D01*
D02*
G37*
%LPC*%
G36*
X363220Y844864D02*
Y843280D01*
X364804D01*
X364116Y844176D01*
X363220Y844864D01*
D02*
G37*
G36*
X350520D02*
X349624Y844176D01*
X348936Y843280D01*
X350520D01*
Y844864D01*
D02*
G37*
G36*
X939800Y839784D02*
Y838200D01*
X941384D01*
X940696Y839096D01*
X939800Y839784D01*
D02*
G37*
G36*
X927100D02*
X926204Y839096D01*
X925516Y838200D01*
X927100D01*
Y839784D01*
D02*
G37*
G36*
X177800Y856079D02*
X174816Y855686D01*
X172036Y854534D01*
X169648Y852702D01*
X167816Y850314D01*
X166664Y847534D01*
X166271Y844550D01*
X166664Y841566D01*
X167816Y838786D01*
X169648Y836398D01*
X172036Y834566D01*
X174816Y833414D01*
X177800Y833021D01*
X180784Y833414D01*
X183564Y834566D01*
X185952Y836398D01*
X187784Y838786D01*
X188936Y841566D01*
X189329Y844550D01*
X188936Y847534D01*
X187784Y850314D01*
X185952Y852702D01*
X183564Y854534D01*
X180784Y855686D01*
X177800Y856079D01*
D02*
G37*
G36*
X91440Y853539D02*
X88456Y853146D01*
X85676Y851994D01*
X83288Y850162D01*
X81456Y847774D01*
X80304Y844994D01*
X79911Y842010D01*
X80304Y839026D01*
X81456Y836246D01*
X83288Y833858D01*
X85676Y832026D01*
X88456Y830874D01*
X91440Y830481D01*
X94424Y830874D01*
X97204Y832026D01*
X99592Y833858D01*
X101424Y836246D01*
X102576Y839026D01*
X102969Y842010D01*
X102576Y844994D01*
X101424Y847774D01*
X99592Y850162D01*
X97204Y851994D01*
X94424Y853146D01*
X91440Y853539D01*
D02*
G37*
G36*
X364804Y830580D02*
X363220D01*
Y828996D01*
X364116Y829684D01*
X364804Y830580D01*
D02*
G37*
G36*
X350520D02*
X348936D01*
X349624Y829684D01*
X350520Y828996D01*
Y830580D01*
D02*
G37*
G36*
X941384Y825500D02*
X939800D01*
Y823916D01*
X940696Y824604D01*
X941384Y825500D01*
D02*
G37*
G36*
X927100D02*
X925516D01*
X926204Y824604D01*
X927100Y823916D01*
Y825500D01*
D02*
G37*
G36*
X877570Y823123D02*
Y821690D01*
X879003D01*
X878381Y822501D01*
X877570Y823123D01*
D02*
G37*
G36*
X864870D02*
X864059Y822501D01*
X863437Y821690D01*
X864870D01*
Y823123D01*
D02*
G37*
G36*
X852170D02*
Y821690D01*
X853603D01*
X852981Y822501D01*
X852170Y823123D01*
D02*
G37*
G36*
X839470D02*
X838659Y822501D01*
X838037Y821690D01*
X839470D01*
Y823123D01*
D02*
G37*
G36*
X826770D02*
Y821690D01*
X828203D01*
X827581Y822501D01*
X826770Y823123D01*
D02*
G37*
G36*
X814070D02*
X813259Y822501D01*
X812637Y821690D01*
X814070D01*
Y823123D01*
D02*
G37*
G36*
X801370D02*
Y821690D01*
X802803D01*
X802181Y822501D01*
X801370Y823123D01*
D02*
G37*
G36*
X788670D02*
X787859Y822501D01*
X787237Y821690D01*
X788670D01*
Y823123D01*
D02*
G37*
G36*
X775970D02*
Y821690D01*
X777403D01*
X776781Y822501D01*
X775970Y823123D01*
D02*
G37*
G36*
X763270D02*
X762459Y822501D01*
X761837Y821690D01*
X763270D01*
Y823123D01*
D02*
G37*
G36*
X750570D02*
Y821690D01*
X752003D01*
X751381Y822501D01*
X750570Y823123D01*
D02*
G37*
G36*
X737870D02*
X737059Y822501D01*
X736437Y821690D01*
X737870D01*
Y823123D01*
D02*
G37*
G36*
X300990D02*
Y821690D01*
X302423D01*
X301801Y822501D01*
X300990Y823123D01*
D02*
G37*
G36*
X288290D02*
X287479Y822501D01*
X286857Y821690D01*
X288290D01*
Y823123D01*
D02*
G37*
G36*
X275590D02*
Y821690D01*
X277023D01*
X276401Y822501D01*
X275590Y823123D01*
D02*
G37*
G36*
X262890D02*
X262079Y822501D01*
X261457Y821690D01*
X262890D01*
Y823123D01*
D02*
G37*
G36*
X250190D02*
Y821690D01*
X251623D01*
X251001Y822501D01*
X250190Y823123D01*
D02*
G37*
G36*
X237490D02*
X236679Y822501D01*
X236057Y821690D01*
X237490D01*
Y823123D01*
D02*
G37*
G36*
X224790D02*
Y821690D01*
X226223D01*
X225601Y822501D01*
X224790Y823123D01*
D02*
G37*
G36*
X212090D02*
X211279Y822501D01*
X210657Y821690D01*
X212090D01*
Y823123D01*
D02*
G37*
G36*
X199390D02*
Y821690D01*
X200823D01*
X200201Y822501D01*
X199390Y823123D01*
D02*
G37*
G36*
X186690D02*
X185879Y822501D01*
X185257Y821690D01*
X186690D01*
Y823123D01*
D02*
G37*
G36*
X173990D02*
Y821690D01*
X175423D01*
X174801Y822501D01*
X173990Y823123D01*
D02*
G37*
G36*
X161290D02*
X160479Y822501D01*
X159857Y821690D01*
X161290D01*
Y823123D01*
D02*
G37*
G36*
X1131570Y831949D02*
X1128586Y831556D01*
X1125806Y830404D01*
X1123418Y828572D01*
X1121586Y826184D01*
X1120434Y823404D01*
X1120041Y820420D01*
X1120434Y817436D01*
X1121586Y814656D01*
X1123418Y812268D01*
X1125806Y810436D01*
X1128586Y809284D01*
X1131570Y808891D01*
X1134554Y809284D01*
X1137334Y810436D01*
X1139722Y812268D01*
X1141554Y814656D01*
X1142706Y817436D01*
X1143099Y820420D01*
X1142706Y823404D01*
X1141554Y826184D01*
X1139722Y828572D01*
X1137334Y830404D01*
X1134554Y831556D01*
X1131570Y831949D01*
D02*
G37*
G36*
X1271270Y847946D02*
X1267387Y847563D01*
X1263652Y846431D01*
X1260211Y844591D01*
X1257194Y842116D01*
X1254719Y839099D01*
X1252879Y835658D01*
X1251747Y831923D01*
X1251364Y828040D01*
X1251747Y824157D01*
X1252879Y820422D01*
X1254719Y816981D01*
X1257194Y813964D01*
X1260211Y811489D01*
X1263652Y809649D01*
X1267387Y808517D01*
X1271270Y808134D01*
X1275153Y808517D01*
X1278888Y809649D01*
X1282329Y811489D01*
X1285346Y813964D01*
X1287821Y816981D01*
X1289661Y820422D01*
X1290793Y824157D01*
X1291176Y828040D01*
X1290793Y831923D01*
X1289661Y835658D01*
X1287821Y839099D01*
X1285346Y842116D01*
X1282329Y844591D01*
X1278888Y846431D01*
X1275153Y847563D01*
X1271270Y847946D01*
D02*
G37*
G36*
X38100D02*
X34217Y847563D01*
X30482Y846431D01*
X27041Y844591D01*
X24024Y842116D01*
X21549Y839099D01*
X19709Y835658D01*
X18577Y831923D01*
X18194Y828040D01*
X18577Y824157D01*
X19709Y820422D01*
X21549Y816981D01*
X24024Y813964D01*
X27041Y811489D01*
X30482Y809649D01*
X34217Y808517D01*
X38100Y808134D01*
X41983Y808517D01*
X45718Y809649D01*
X49159Y811489D01*
X52176Y813964D01*
X54651Y816981D01*
X56491Y820422D01*
X57623Y824157D01*
X58006Y828040D01*
X57623Y831923D01*
X56491Y835658D01*
X54651Y839099D01*
X52176Y842116D01*
X49159Y844591D01*
X45718Y846431D01*
X41983Y847563D01*
X38100Y847946D01*
D02*
G37*
G36*
X879003Y808990D02*
X877570D01*
Y807557D01*
X878381Y808179D01*
X879003Y808990D01*
D02*
G37*
G36*
X864870D02*
X863437D01*
X864059Y808179D01*
X864870Y807557D01*
Y808990D01*
D02*
G37*
G36*
X853603D02*
X852170D01*
Y807557D01*
X852981Y808179D01*
X853603Y808990D01*
D02*
G37*
G36*
X839470D02*
X838037D01*
X838659Y808179D01*
X839470Y807557D01*
Y808990D01*
D02*
G37*
G36*
X828203D02*
X826770D01*
Y807557D01*
X827581Y808179D01*
X828203Y808990D01*
D02*
G37*
G36*
X814070D02*
X812637D01*
X813259Y808179D01*
X814070Y807557D01*
Y808990D01*
D02*
G37*
G36*
X802803D02*
X801370D01*
Y807557D01*
X802181Y808179D01*
X802803Y808990D01*
D02*
G37*
G36*
X788670D02*
X787237D01*
X787859Y808179D01*
X788670Y807557D01*
Y808990D01*
D02*
G37*
G36*
X777403D02*
X775970D01*
Y807557D01*
X776781Y808179D01*
X777403Y808990D01*
D02*
G37*
G36*
X763270D02*
X761837D01*
X762459Y808179D01*
X763270Y807557D01*
Y808990D01*
D02*
G37*
G36*
X752003D02*
X750570D01*
Y807557D01*
X751381Y808179D01*
X752003Y808990D01*
D02*
G37*
G36*
X737870D02*
X736437D01*
X737059Y808179D01*
X737870Y807557D01*
Y808990D01*
D02*
G37*
G36*
X302423D02*
X300990D01*
Y807557D01*
X301801Y808179D01*
X302423Y808990D01*
D02*
G37*
G36*
X288290D02*
X286857D01*
X287479Y808179D01*
X288290Y807557D01*
Y808990D01*
D02*
G37*
G36*
X277023D02*
X275590D01*
Y807557D01*
X276401Y808179D01*
X277023Y808990D01*
D02*
G37*
G36*
X262890D02*
X261457D01*
X262079Y808179D01*
X262890Y807557D01*
Y808990D01*
D02*
G37*
G36*
X251623D02*
X250190D01*
Y807557D01*
X251001Y808179D01*
X251623Y808990D01*
D02*
G37*
G36*
X237490D02*
X236057D01*
X236679Y808179D01*
X237490Y807557D01*
Y808990D01*
D02*
G37*
G36*
X226223D02*
X224790D01*
Y807557D01*
X225601Y808179D01*
X226223Y808990D01*
D02*
G37*
G36*
X212090D02*
X210657D01*
X211279Y808179D01*
X212090Y807557D01*
Y808990D01*
D02*
G37*
G36*
X200823D02*
X199390D01*
Y807557D01*
X200201Y808179D01*
X200823Y808990D01*
D02*
G37*
G36*
X186690D02*
X185257D01*
X185879Y808179D01*
X186690Y807557D01*
Y808990D01*
D02*
G37*
G36*
X175423D02*
X173990D01*
Y807557D01*
X174801Y808179D01*
X175423Y808990D01*
D02*
G37*
G36*
X161290D02*
X159857D01*
X160479Y808179D01*
X161290Y807557D01*
Y808990D01*
D02*
G37*
G36*
X142240Y826748D02*
X139288Y826359D01*
X136536Y825219D01*
X134174Y823406D01*
X132361Y821044D01*
X131221Y818292D01*
X130832Y815340D01*
X131221Y812387D01*
X132361Y809636D01*
X134174Y807274D01*
X136536Y805461D01*
X139288Y804321D01*
X142240Y803932D01*
X145192Y804321D01*
X147944Y805461D01*
X150306Y807274D01*
X152119Y809636D01*
X153259Y812387D01*
X153648Y815340D01*
X153259Y818292D01*
X152119Y821044D01*
X150306Y823406D01*
X147944Y825219D01*
X145192Y826359D01*
X142240Y826748D01*
D02*
G37*
G36*
X530860Y821789D02*
X527876Y821396D01*
X525096Y820244D01*
X522708Y818412D01*
X520876Y816024D01*
X519724Y813244D01*
X519331Y810260D01*
X519724Y807276D01*
X520876Y804496D01*
X522708Y802108D01*
X525096Y800276D01*
X527876Y799124D01*
X530860Y798731D01*
X533844Y799124D01*
X536624Y800276D01*
X539012Y802108D01*
X540844Y804496D01*
X541996Y807276D01*
X542389Y810260D01*
X541996Y813244D01*
X540844Y816024D01*
X539012Y818412D01*
X536624Y820244D01*
X533844Y821396D01*
X530860Y821789D01*
D02*
G37*
G36*
X1206500Y808968D02*
X1203548Y808579D01*
X1200796Y807439D01*
X1198434Y805626D01*
X1196621Y803264D01*
X1195481Y800512D01*
X1195092Y797560D01*
X1195481Y794607D01*
X1196621Y791856D01*
X1198434Y789494D01*
X1200796Y787681D01*
X1203548Y786541D01*
X1206500Y786152D01*
X1209453Y786541D01*
X1212204Y787681D01*
X1214566Y789494D01*
X1216379Y791856D01*
X1217519Y794607D01*
X1217908Y797560D01*
X1217519Y800512D01*
X1216379Y803264D01*
X1214566Y805626D01*
X1212204Y807439D01*
X1209453Y808579D01*
X1206500Y808968D01*
D02*
G37*
G36*
X1181100D02*
X1178148Y808579D01*
X1175396Y807439D01*
X1173034Y805626D01*
X1171221Y803264D01*
X1170081Y800512D01*
X1169692Y797560D01*
X1170081Y794607D01*
X1171221Y791856D01*
X1173034Y789494D01*
X1175396Y787681D01*
X1178148Y786541D01*
X1181100Y786152D01*
X1184053Y786541D01*
X1186804Y787681D01*
X1189166Y789494D01*
X1190979Y791856D01*
X1192119Y794607D01*
X1192508Y797560D01*
X1192119Y800512D01*
X1190979Y803264D01*
X1189166Y805626D01*
X1186804Y807439D01*
X1184053Y808579D01*
X1181100Y808968D01*
D02*
G37*
G36*
X1263650Y804009D02*
X1260666Y803616D01*
X1257886Y802464D01*
X1255498Y800632D01*
X1253666Y798244D01*
X1252514Y795464D01*
X1252121Y792480D01*
X1252514Y789496D01*
X1253666Y786716D01*
X1255498Y784328D01*
X1257886Y782496D01*
X1260666Y781344D01*
X1263650Y780951D01*
X1266634Y781344D01*
X1269414Y782496D01*
X1271802Y784328D01*
X1273634Y786716D01*
X1274786Y789496D01*
X1275179Y792480D01*
X1274786Y795464D01*
X1273634Y798244D01*
X1271802Y800632D01*
X1269414Y802464D01*
X1266634Y803616D01*
X1263650Y804009D01*
D02*
G37*
G36*
X704730Y801250D02*
X682110D01*
Y778630D01*
X704730D01*
Y801250D01*
D02*
G37*
G36*
X128150D02*
X105530D01*
Y778630D01*
X128150D01*
Y801250D01*
D02*
G37*
G36*
X871220Y801348D02*
X868268Y800959D01*
X865516Y799819D01*
X863154Y798006D01*
X861341Y795644D01*
X860201Y792893D01*
X859812Y789940D01*
X860201Y786988D01*
X861341Y784236D01*
X863154Y781874D01*
X865516Y780061D01*
X868268Y778921D01*
X871220Y778532D01*
X874173Y778921D01*
X876924Y780061D01*
X879286Y781874D01*
X881099Y784236D01*
X882239Y786988D01*
X882628Y789940D01*
X882239Y792893D01*
X881099Y795644D01*
X879286Y798006D01*
X876924Y799819D01*
X874173Y800959D01*
X871220Y801348D01*
D02*
G37*
G36*
X845820D02*
X842868Y800959D01*
X840116Y799819D01*
X837754Y798006D01*
X835941Y795644D01*
X834801Y792893D01*
X834412Y789940D01*
X834801Y786988D01*
X835941Y784236D01*
X837754Y781874D01*
X840116Y780061D01*
X842868Y778921D01*
X845820Y778532D01*
X848773Y778921D01*
X851524Y780061D01*
X853886Y781874D01*
X855699Y784236D01*
X856839Y786988D01*
X857228Y789940D01*
X856839Y792893D01*
X855699Y795644D01*
X853886Y798006D01*
X851524Y799819D01*
X848773Y800959D01*
X845820Y801348D01*
D02*
G37*
G36*
X820420D02*
X817467Y800959D01*
X814716Y799819D01*
X812354Y798006D01*
X810541Y795644D01*
X809401Y792893D01*
X809012Y789940D01*
X809401Y786988D01*
X810541Y784236D01*
X812354Y781874D01*
X814716Y780061D01*
X817467Y778921D01*
X820420Y778532D01*
X823372Y778921D01*
X826124Y780061D01*
X828486Y781874D01*
X830299Y784236D01*
X831439Y786988D01*
X831828Y789940D01*
X831439Y792893D01*
X830299Y795644D01*
X828486Y798006D01*
X826124Y799819D01*
X823372Y800959D01*
X820420Y801348D01*
D02*
G37*
G36*
X795020D02*
X792067Y800959D01*
X789316Y799819D01*
X786954Y798006D01*
X785141Y795644D01*
X784001Y792893D01*
X783612Y789940D01*
X784001Y786988D01*
X785141Y784236D01*
X786954Y781874D01*
X789316Y780061D01*
X792067Y778921D01*
X795020Y778532D01*
X797972Y778921D01*
X800724Y780061D01*
X803086Y781874D01*
X804899Y784236D01*
X806039Y786988D01*
X806428Y789940D01*
X806039Y792893D01*
X804899Y795644D01*
X803086Y798006D01*
X800724Y799819D01*
X797972Y800959D01*
X795020Y801348D01*
D02*
G37*
G36*
X769620D02*
X766667Y800959D01*
X763916Y799819D01*
X761554Y798006D01*
X759741Y795644D01*
X758601Y792893D01*
X758212Y789940D01*
X758601Y786988D01*
X759741Y784236D01*
X761554Y781874D01*
X763916Y780061D01*
X766667Y778921D01*
X769620Y778532D01*
X772572Y778921D01*
X775324Y780061D01*
X777686Y781874D01*
X779499Y784236D01*
X780639Y786988D01*
X781028Y789940D01*
X780639Y792893D01*
X779499Y795644D01*
X777686Y798006D01*
X775324Y799819D01*
X772572Y800959D01*
X769620Y801348D01*
D02*
G37*
G36*
X744220D02*
X741267Y800959D01*
X738516Y799819D01*
X736154Y798006D01*
X734341Y795644D01*
X733201Y792893D01*
X732812Y789940D01*
X733201Y786988D01*
X734341Y784236D01*
X736154Y781874D01*
X738516Y780061D01*
X741267Y778921D01*
X744220Y778532D01*
X747172Y778921D01*
X749924Y780061D01*
X752286Y781874D01*
X754099Y784236D01*
X755239Y786988D01*
X755628Y789940D01*
X755239Y792893D01*
X754099Y795644D01*
X752286Y798006D01*
X749924Y799819D01*
X747172Y800959D01*
X744220Y801348D01*
D02*
G37*
G36*
X718820D02*
X715867Y800959D01*
X713116Y799819D01*
X710754Y798006D01*
X708941Y795644D01*
X707801Y792893D01*
X707412Y789940D01*
X707801Y786988D01*
X708941Y784236D01*
X710754Y781874D01*
X713116Y780061D01*
X715867Y778921D01*
X718820Y778532D01*
X721773Y778921D01*
X724524Y780061D01*
X726886Y781874D01*
X728699Y784236D01*
X729839Y786988D01*
X730228Y789940D01*
X729839Y792893D01*
X728699Y795644D01*
X726886Y798006D01*
X724524Y799819D01*
X721773Y800959D01*
X718820Y801348D01*
D02*
G37*
G36*
X294640D02*
X291688Y800959D01*
X288936Y799819D01*
X286574Y798006D01*
X284761Y795644D01*
X283621Y792893D01*
X283232Y789940D01*
X283621Y786988D01*
X284761Y784236D01*
X286574Y781874D01*
X288936Y780061D01*
X291688Y778921D01*
X294640Y778532D01*
X297593Y778921D01*
X300344Y780061D01*
X302706Y781874D01*
X304519Y784236D01*
X305659Y786988D01*
X306048Y789940D01*
X305659Y792893D01*
X304519Y795644D01*
X302706Y798006D01*
X300344Y799819D01*
X297593Y800959D01*
X294640Y801348D01*
D02*
G37*
G36*
X269240D02*
X266287Y800959D01*
X263536Y799819D01*
X261174Y798006D01*
X259361Y795644D01*
X258221Y792893D01*
X257832Y789940D01*
X258221Y786988D01*
X259361Y784236D01*
X261174Y781874D01*
X263536Y780061D01*
X266287Y778921D01*
X269240Y778532D01*
X272192Y778921D01*
X274944Y780061D01*
X277306Y781874D01*
X279119Y784236D01*
X280259Y786988D01*
X280648Y789940D01*
X280259Y792893D01*
X279119Y795644D01*
X277306Y798006D01*
X274944Y799819D01*
X272192Y800959D01*
X269240Y801348D01*
D02*
G37*
G36*
X243840D02*
X240888Y800959D01*
X238136Y799819D01*
X235774Y798006D01*
X233961Y795644D01*
X232821Y792893D01*
X232432Y789940D01*
X232821Y786988D01*
X233961Y784236D01*
X235774Y781874D01*
X238136Y780061D01*
X240888Y778921D01*
X243840Y778532D01*
X246793Y778921D01*
X249544Y780061D01*
X251906Y781874D01*
X253719Y784236D01*
X254859Y786988D01*
X255248Y789940D01*
X254859Y792893D01*
X253719Y795644D01*
X251906Y798006D01*
X249544Y799819D01*
X246793Y800959D01*
X243840Y801348D01*
D02*
G37*
G36*
X218440D02*
X215487Y800959D01*
X212736Y799819D01*
X210374Y798006D01*
X208561Y795644D01*
X207421Y792893D01*
X207032Y789940D01*
X207421Y786988D01*
X208561Y784236D01*
X210374Y781874D01*
X212736Y780061D01*
X215487Y778921D01*
X218440Y778532D01*
X221392Y778921D01*
X224144Y780061D01*
X226506Y781874D01*
X228319Y784236D01*
X229459Y786988D01*
X229848Y789940D01*
X229459Y792893D01*
X228319Y795644D01*
X226506Y798006D01*
X224144Y799819D01*
X221392Y800959D01*
X218440Y801348D01*
D02*
G37*
G36*
X193040D02*
X190088Y800959D01*
X187336Y799819D01*
X184974Y798006D01*
X183161Y795644D01*
X182021Y792893D01*
X181632Y789940D01*
X182021Y786988D01*
X183161Y784236D01*
X184974Y781874D01*
X187336Y780061D01*
X190088Y778921D01*
X193040Y778532D01*
X195993Y778921D01*
X198744Y780061D01*
X201106Y781874D01*
X202919Y784236D01*
X204059Y786988D01*
X204448Y789940D01*
X204059Y792893D01*
X202919Y795644D01*
X201106Y798006D01*
X198744Y799819D01*
X195993Y800959D01*
X193040Y801348D01*
D02*
G37*
G36*
X167640D02*
X164688Y800959D01*
X161936Y799819D01*
X159574Y798006D01*
X157761Y795644D01*
X156621Y792893D01*
X156232Y789940D01*
X156621Y786988D01*
X157761Y784236D01*
X159574Y781874D01*
X161936Y780061D01*
X164688Y778921D01*
X167640Y778532D01*
X170592Y778921D01*
X173344Y780061D01*
X175706Y781874D01*
X177519Y784236D01*
X178659Y786988D01*
X179048Y789940D01*
X178659Y792893D01*
X177519Y795644D01*
X175706Y798006D01*
X173344Y799819D01*
X170592Y800959D01*
X167640Y801348D01*
D02*
G37*
G36*
X142240D02*
X139288Y800959D01*
X136536Y799819D01*
X134174Y798006D01*
X132361Y795644D01*
X131221Y792893D01*
X130832Y789940D01*
X131221Y786988D01*
X132361Y784236D01*
X134174Y781874D01*
X136536Y780061D01*
X139288Y778921D01*
X142240Y778532D01*
X145192Y778921D01*
X147944Y780061D01*
X150306Y781874D01*
X152119Y784236D01*
X153259Y786988D01*
X153648Y789940D01*
X153259Y792893D01*
X152119Y795644D01*
X150306Y798006D01*
X147944Y799819D01*
X145192Y800959D01*
X142240Y801348D01*
D02*
G37*
G36*
X1212850Y779943D02*
Y778510D01*
X1214283D01*
X1213661Y779321D01*
X1212850Y779943D01*
D02*
G37*
G36*
X1200150D02*
X1199339Y779321D01*
X1198717Y778510D01*
X1200150D01*
Y779943D01*
D02*
G37*
G36*
X1088390Y787499D02*
X1085406Y787106D01*
X1082626Y785954D01*
X1080238Y784122D01*
X1078406Y781734D01*
X1077254Y778954D01*
X1076861Y775970D01*
X1077254Y772986D01*
X1078406Y770206D01*
X1080238Y767818D01*
X1082626Y765986D01*
X1085406Y764834D01*
X1088390Y764441D01*
X1091374Y764834D01*
X1094154Y765986D01*
X1096542Y767818D01*
X1098374Y770206D01*
X1099526Y772986D01*
X1099919Y775970D01*
X1099526Y778954D01*
X1098374Y781734D01*
X1096542Y784122D01*
X1094154Y785954D01*
X1091374Y787106D01*
X1088390Y787499D01*
D02*
G37*
G36*
X1214283Y765810D02*
X1212850D01*
Y764377D01*
X1213661Y764999D01*
X1214283Y765810D01*
D02*
G37*
G36*
X1200150D02*
X1198717D01*
X1199339Y764999D01*
X1200150Y764377D01*
Y765810D01*
D02*
G37*
G36*
X1181100Y783568D02*
X1178148Y783179D01*
X1175396Y782039D01*
X1173034Y780226D01*
X1171221Y777864D01*
X1170081Y775113D01*
X1169692Y772160D01*
X1170081Y769208D01*
X1171221Y766456D01*
X1173034Y764094D01*
X1175396Y762281D01*
X1178148Y761141D01*
X1181100Y760752D01*
X1184053Y761141D01*
X1186804Y762281D01*
X1189166Y764094D01*
X1190979Y766456D01*
X1192119Y769208D01*
X1192508Y772160D01*
X1192119Y775113D01*
X1190979Y777864D01*
X1189166Y780226D01*
X1186804Y782039D01*
X1184053Y783179D01*
X1181100Y783568D01*
D02*
G37*
G36*
X1212850Y754543D02*
Y753110D01*
X1214283D01*
X1213661Y753921D01*
X1212850Y754543D01*
D02*
G37*
G36*
X1200150D02*
X1199339Y753921D01*
X1198717Y753110D01*
X1200150D01*
Y754543D01*
D02*
G37*
G36*
X288290Y776069D02*
X285306Y775676D01*
X282526Y774524D01*
X280138Y772692D01*
X278306Y770304D01*
X277154Y767524D01*
X276761Y764540D01*
X277154Y761556D01*
X278306Y758776D01*
X280138Y756388D01*
X282526Y754556D01*
X285306Y753404D01*
X288290Y753011D01*
X291274Y753404D01*
X294054Y754556D01*
X296442Y756388D01*
X298274Y758776D01*
X299426Y761556D01*
X299819Y764540D01*
X299426Y767524D01*
X298274Y770304D01*
X296442Y772692D01*
X294054Y774524D01*
X291274Y775676D01*
X288290Y776069D01*
D02*
G37*
G36*
X146050Y774799D02*
X143066Y774406D01*
X140286Y773254D01*
X137898Y771422D01*
X136066Y769034D01*
X134914Y766254D01*
X134521Y763270D01*
X134914Y760286D01*
X136066Y757506D01*
X137898Y755118D01*
X140286Y753286D01*
X143066Y752134D01*
X146050Y751741D01*
X149034Y752134D01*
X151814Y753286D01*
X154202Y755118D01*
X156034Y757506D01*
X157186Y760286D01*
X157579Y763270D01*
X157186Y766254D01*
X156034Y769034D01*
X154202Y771422D01*
X151814Y773254D01*
X149034Y774406D01*
X146050Y774799D01*
D02*
G37*
G36*
X337820Y757008D02*
X335168Y756658D01*
X332696Y755635D01*
X330574Y754006D01*
X328945Y751884D01*
X328347Y750440D01*
X326973D01*
X326375Y751884D01*
X324746Y754006D01*
X322624Y755635D01*
X320152Y756658D01*
X317500Y757008D01*
X314848Y756658D01*
X312376Y755635D01*
X310254Y754006D01*
X308625Y751884D01*
X307602Y749412D01*
X307252Y746760D01*
X307602Y744108D01*
X308625Y741636D01*
X310254Y739514D01*
X312376Y737885D01*
X314848Y736861D01*
X317500Y736512D01*
X320152Y736861D01*
X322624Y737885D01*
X324746Y739514D01*
X326375Y741636D01*
X326973Y743080D01*
X328347D01*
X328945Y741636D01*
X330574Y739514D01*
X332696Y737885D01*
X335168Y736861D01*
X337820Y736512D01*
X340472Y736861D01*
X342944Y737885D01*
X345066Y739514D01*
X346695Y741636D01*
X347719Y744108D01*
X348068Y746760D01*
X347719Y749412D01*
X346695Y751884D01*
X345066Y754006D01*
X342944Y755635D01*
X340472Y756658D01*
X337820Y757008D01*
D02*
G37*
G36*
X812800Y772259D02*
X809816Y771866D01*
X807036Y770714D01*
X804648Y768882D01*
X802816Y766494D01*
X801664Y763714D01*
X801271Y760730D01*
X801664Y757746D01*
X802816Y754966D01*
X804648Y752578D01*
X807036Y750746D01*
X809816Y749594D01*
X812800Y749201D01*
X815784Y749594D01*
X818564Y750746D01*
X820952Y752578D01*
X822784Y754966D01*
X823936Y757746D01*
X824329Y760730D01*
X823936Y763714D01*
X822784Y766494D01*
X820952Y768882D01*
X818564Y770714D01*
X815784Y771866D01*
X812800Y772259D01*
D02*
G37*
G36*
X718820D02*
X715836Y771866D01*
X713056Y770714D01*
X710668Y768882D01*
X708836Y766494D01*
X707684Y763714D01*
X707291Y760730D01*
X707684Y757746D01*
X708836Y754966D01*
X710668Y752578D01*
X713056Y750746D01*
X715836Y749594D01*
X718820Y749201D01*
X721804Y749594D01*
X724584Y750746D01*
X726972Y752578D01*
X728804Y754966D01*
X729956Y757746D01*
X730349Y760730D01*
X729956Y763714D01*
X728804Y766494D01*
X726972Y768882D01*
X724584Y770714D01*
X721804Y771866D01*
X718820Y772259D01*
D02*
G37*
G36*
X684530D02*
X681546Y771866D01*
X678766Y770714D01*
X676378Y768882D01*
X674546Y766494D01*
X673394Y763714D01*
X673001Y760730D01*
X673394Y757746D01*
X674546Y754966D01*
X676378Y752578D01*
X678766Y750746D01*
X681546Y749594D01*
X684530Y749201D01*
X687514Y749594D01*
X690294Y750746D01*
X692682Y752578D01*
X694514Y754966D01*
X695666Y757746D01*
X696059Y760730D01*
X695666Y763714D01*
X694514Y766494D01*
X692682Y768882D01*
X690294Y770714D01*
X687514Y771866D01*
X684530Y772259D01*
D02*
G37*
G36*
X1214283Y740410D02*
X1212850D01*
Y738977D01*
X1213661Y739599D01*
X1214283Y740410D01*
D02*
G37*
G36*
X1200150D02*
X1198717D01*
X1199339Y739599D01*
X1200150Y738977D01*
Y740410D01*
D02*
G37*
G36*
X1181100Y758168D02*
X1178148Y757779D01*
X1175396Y756639D01*
X1173034Y754826D01*
X1171221Y752464D01*
X1170081Y749713D01*
X1169692Y746760D01*
X1170081Y743808D01*
X1171221Y741056D01*
X1173034Y738694D01*
X1175396Y736881D01*
X1178148Y735741D01*
X1181100Y735352D01*
X1184053Y735741D01*
X1186804Y736881D01*
X1189166Y738694D01*
X1190979Y741056D01*
X1192119Y743808D01*
X1192508Y746760D01*
X1192119Y749713D01*
X1190979Y752464D01*
X1189166Y754826D01*
X1186804Y756639D01*
X1184053Y757779D01*
X1181100Y758168D01*
D02*
G37*
G36*
X133350Y751939D02*
X130366Y751546D01*
X127586Y750394D01*
X125198Y748562D01*
X123366Y746174D01*
X122214Y743394D01*
X121821Y740410D01*
X122214Y737426D01*
X123366Y734646D01*
X125198Y732258D01*
X127586Y730426D01*
X130366Y729274D01*
X133350Y728881D01*
X136334Y729274D01*
X139114Y730426D01*
X141502Y732258D01*
X143334Y734646D01*
X144486Y737426D01*
X144879Y740410D01*
X144486Y743394D01*
X143334Y746174D01*
X141502Y748562D01*
X139114Y750394D01*
X136334Y751546D01*
X133350Y751939D01*
D02*
G37*
G36*
X892810Y735418D02*
X890158Y735069D01*
X887686Y734045D01*
X885564Y732416D01*
X883935Y730294D01*
X883337Y728850D01*
X881963D01*
X881365Y730294D01*
X879736Y732416D01*
X877614Y734045D01*
X875142Y735069D01*
X872490Y735418D01*
X869838Y735069D01*
X867366Y734045D01*
X865244Y732416D01*
X863615Y730294D01*
X862591Y727822D01*
X862242Y725170D01*
X862591Y722518D01*
X863615Y720046D01*
X865244Y717924D01*
X867366Y716295D01*
X869838Y715272D01*
X872490Y714922D01*
X875142Y715272D01*
X877614Y716295D01*
X879736Y717924D01*
X881365Y720046D01*
X881963Y721490D01*
X883337D01*
X883935Y720046D01*
X885564Y717924D01*
X887686Y716295D01*
X890158Y715272D01*
X892810Y714922D01*
X895462Y715272D01*
X897934Y716295D01*
X900056Y717924D01*
X901685Y720046D01*
X902709Y722518D01*
X903058Y725170D01*
X902709Y727822D01*
X901685Y730294D01*
X900056Y732416D01*
X897934Y734045D01*
X895462Y735069D01*
X892810Y735418D01*
D02*
G37*
G36*
X1212850Y729143D02*
Y727710D01*
X1214283D01*
X1213661Y728521D01*
X1212850Y729143D01*
D02*
G37*
G36*
X1200150D02*
X1199339Y728521D01*
X1198717Y727710D01*
X1200150D01*
Y729143D01*
D02*
G37*
G36*
X337820Y733538D02*
X335168Y733188D01*
X332696Y732165D01*
X330574Y730536D01*
X328945Y728414D01*
X328347Y726970D01*
X326973D01*
X326375Y728414D01*
X324746Y730536D01*
X322624Y732165D01*
X320152Y733188D01*
X317500Y733538D01*
X314848Y733188D01*
X312376Y732165D01*
X310254Y730536D01*
X308625Y728414D01*
X307602Y725942D01*
X307252Y723290D01*
X307602Y720638D01*
X308625Y718166D01*
X310254Y716044D01*
X312376Y714415D01*
X314848Y713391D01*
X317500Y713042D01*
X320152Y713391D01*
X322624Y714415D01*
X324746Y716044D01*
X326375Y718166D01*
X326973Y719610D01*
X328347D01*
X328945Y718166D01*
X330574Y716044D01*
X332696Y714415D01*
X335168Y713391D01*
X337820Y713042D01*
X340472Y713391D01*
X342944Y714415D01*
X345066Y716044D01*
X346695Y718166D01*
X347719Y720638D01*
X348068Y723290D01*
X347719Y725942D01*
X346695Y728414D01*
X345066Y730536D01*
X342944Y732165D01*
X340472Y733188D01*
X337820Y733538D01*
D02*
G37*
G36*
X1129030Y739239D02*
X1126046Y738846D01*
X1123266Y737694D01*
X1120878Y735862D01*
X1119046Y733474D01*
X1117894Y730694D01*
X1117501Y727710D01*
X1117894Y724726D01*
X1119046Y721946D01*
X1120878Y719558D01*
X1123266Y717726D01*
X1126046Y716574D01*
X1129030Y716181D01*
X1132014Y716574D01*
X1134794Y717726D01*
X1137182Y719558D01*
X1139014Y721946D01*
X1140166Y724726D01*
X1140559Y727710D01*
X1140166Y730694D01*
X1139014Y733474D01*
X1137182Y735862D01*
X1134794Y737694D01*
X1132014Y738846D01*
X1129030Y739239D01*
D02*
G37*
G36*
X1267460Y737969D02*
X1264476Y737576D01*
X1261696Y736424D01*
X1259308Y734592D01*
X1257476Y732204D01*
X1256324Y729424D01*
X1255931Y726440D01*
X1256324Y723456D01*
X1257476Y720676D01*
X1259308Y718288D01*
X1261696Y716456D01*
X1264476Y715304D01*
X1267460Y714911D01*
X1270444Y715304D01*
X1273224Y716456D01*
X1275612Y718288D01*
X1277444Y720676D01*
X1278596Y723456D01*
X1278989Y726440D01*
X1278596Y729424D01*
X1277444Y732204D01*
X1275612Y734592D01*
X1273224Y736424D01*
X1270444Y737576D01*
X1267460Y737969D01*
D02*
G37*
G36*
X1214283Y715010D02*
X1212850D01*
Y713577D01*
X1213661Y714199D01*
X1214283Y715010D01*
D02*
G37*
G36*
X1200150D02*
X1198717D01*
X1199339Y714199D01*
X1200150Y713577D01*
Y715010D01*
D02*
G37*
G36*
X1181100Y732768D02*
X1178148Y732379D01*
X1175396Y731239D01*
X1173034Y729426D01*
X1171221Y727064D01*
X1170081Y724313D01*
X1169692Y721360D01*
X1170081Y718408D01*
X1171221Y715656D01*
X1173034Y713294D01*
X1175396Y711481D01*
X1178148Y710341D01*
X1181100Y709952D01*
X1184053Y710341D01*
X1186804Y711481D01*
X1189166Y713294D01*
X1190979Y715656D01*
X1192119Y718408D01*
X1192508Y721360D01*
X1192119Y724313D01*
X1190979Y727064D01*
X1189166Y729426D01*
X1186804Y731239D01*
X1184053Y732379D01*
X1181100Y732768D01*
D02*
G37*
G36*
X1069340Y743038D02*
X1066688Y742689D01*
X1064216Y741665D01*
X1062094Y740036D01*
X1060465Y737914D01*
X1059442Y735442D01*
X1059092Y732790D01*
X1059442Y730138D01*
X1060465Y727666D01*
X1062094Y725544D01*
X1064161Y723958D01*
Y709014D01*
X1062890Y708583D01*
X1061874Y709908D01*
Y703580D01*
Y697252D01*
X1062890Y698577D01*
X1064161Y698146D01*
Y349295D01*
X1064555Y347313D01*
X1065677Y345633D01*
X1114366Y296944D01*
X1114022Y294335D01*
X1114371Y291683D01*
X1115395Y289211D01*
X1117024Y287089D01*
X1119146Y285460D01*
X1121618Y284437D01*
X1124270Y284087D01*
X1126922Y284437D01*
X1129394Y285460D01*
X1131516Y287089D01*
X1133145Y289211D01*
X1134168Y291683D01*
X1134518Y294335D01*
X1134168Y296987D01*
X1133145Y299459D01*
X1131516Y301581D01*
X1130835Y302104D01*
X1131163Y303331D01*
X1132002Y303442D01*
X1134474Y304465D01*
X1136596Y306094D01*
X1138225Y308216D01*
X1139249Y310688D01*
X1139598Y313340D01*
X1139249Y315992D01*
X1138225Y318464D01*
X1136596Y320586D01*
X1134474Y322215D01*
X1132002Y323238D01*
X1129350Y323588D01*
X1126698Y323238D01*
X1124226Y322215D01*
X1122104Y320586D01*
X1120475Y318464D01*
X1119452Y315992D01*
X1119102Y313340D01*
X1119452Y310688D01*
X1120475Y308216D01*
X1122014Y306211D01*
X1121957Y305658D01*
X1121674Y304823D01*
X1121242Y304718D01*
X1074520Y351441D01*
Y411349D01*
X1075789Y411780D01*
X1076428Y410948D01*
X1078816Y409116D01*
X1081596Y407964D01*
X1084580Y407571D01*
X1087564Y407964D01*
X1090344Y409116D01*
X1092732Y410948D01*
X1094564Y413336D01*
X1095716Y416116D01*
X1096109Y419100D01*
X1095716Y422084D01*
X1094564Y424864D01*
X1092732Y427252D01*
X1090344Y429084D01*
X1087564Y430236D01*
X1084580Y430629D01*
X1081596Y430236D01*
X1078816Y429084D01*
X1076428Y427252D01*
X1075789Y426420D01*
X1074520Y426851D01*
Y723958D01*
X1076586Y725544D01*
X1078215Y727666D01*
X1079239Y730138D01*
X1079588Y732790D01*
X1079239Y735442D01*
X1078215Y737914D01*
X1076586Y740036D01*
X1074464Y741665D01*
X1071992Y742689D01*
X1069340Y743038D01*
D02*
G37*
G36*
X892810Y711948D02*
X890158Y711599D01*
X887686Y710575D01*
X885564Y708946D01*
X883935Y706824D01*
X883337Y705380D01*
X881963D01*
X881365Y706824D01*
X879736Y708946D01*
X877614Y710575D01*
X875142Y711599D01*
X872490Y711948D01*
X869838Y711599D01*
X867366Y710575D01*
X865244Y708946D01*
X863615Y706824D01*
X862591Y704352D01*
X862242Y701700D01*
X862591Y699048D01*
X863615Y696576D01*
X865244Y694454D01*
X867366Y692825D01*
X869838Y691802D01*
X872490Y691452D01*
X875142Y691802D01*
X877614Y692825D01*
X879736Y694454D01*
X881365Y696576D01*
X881963Y698020D01*
X883337D01*
X883935Y696576D01*
X885564Y694454D01*
X887686Y692825D01*
X890158Y691802D01*
X892810Y691452D01*
X895462Y691802D01*
X897934Y692825D01*
X900056Y694454D01*
X901685Y696576D01*
X902709Y699048D01*
X903058Y701700D01*
X902709Y704352D01*
X901685Y706824D01*
X900056Y708946D01*
X897934Y710575D01*
X895462Y711599D01*
X892810Y711948D01*
D02*
G37*
G36*
X1212850Y703743D02*
Y702310D01*
X1214283D01*
X1213661Y703121D01*
X1212850Y703743D01*
D02*
G37*
G36*
X1200150D02*
X1199339Y703121D01*
X1198717Y702310D01*
X1200150D01*
Y703743D01*
D02*
G37*
G36*
X1034790Y783316D02*
X1032138Y782967D01*
X1029666Y781943D01*
X1027544Y780314D01*
X1025915Y778192D01*
X1024892Y775720D01*
X1024542Y773068D01*
X1024892Y770416D01*
X1025915Y767944D01*
X1027544Y765822D01*
X1029666Y764193D01*
X1031806Y763307D01*
X1032401Y761996D01*
X1031741Y761136D01*
X1030717Y758664D01*
X1030368Y756012D01*
X1030717Y753360D01*
X1030963Y752768D01*
X879668Y601473D01*
X879076Y601718D01*
X876424Y602068D01*
X873772Y601718D01*
X871300Y600695D01*
X869178Y599066D01*
X867549Y596944D01*
X866525Y594472D01*
X866176Y591820D01*
X866525Y589168D01*
X867549Y586696D01*
X869178Y584574D01*
X871300Y582945D01*
X873772Y581922D01*
X876424Y581572D01*
X879076Y581922D01*
X881548Y582945D01*
X883670Y584574D01*
X885299Y586696D01*
X886322Y589168D01*
X886672Y591820D01*
X886322Y594472D01*
X886077Y595064D01*
X1034263Y743250D01*
X1035436Y742764D01*
Y592546D01*
X1033370Y590960D01*
X1031741Y588838D01*
X1030717Y586366D01*
X1030368Y583714D01*
X1030717Y581062D01*
X1031741Y578590D01*
X1033370Y576468D01*
X1035492Y574839D01*
X1037964Y573815D01*
X1040616Y573466D01*
X1043268Y573815D01*
X1045740Y574839D01*
X1047862Y576468D01*
X1049491Y578590D01*
X1050515Y581062D01*
X1050864Y583714D01*
X1050515Y586366D01*
X1049491Y588838D01*
X1047862Y590960D01*
X1045796Y592546D01*
Y700517D01*
X1047066Y700769D01*
X1047758Y699097D01*
X1049174Y697252D01*
Y703580D01*
Y709908D01*
X1047758Y708063D01*
X1047066Y706391D01*
X1045796Y706644D01*
Y747180D01*
X1047862Y748766D01*
X1049491Y750888D01*
X1050515Y753360D01*
X1050864Y756012D01*
X1050515Y758664D01*
X1049491Y761136D01*
X1047862Y763258D01*
X1045740Y764887D01*
X1043600Y765773D01*
X1043005Y767084D01*
X1043665Y767944D01*
X1044688Y770416D01*
X1045038Y773068D01*
X1044688Y775720D01*
X1043665Y778192D01*
X1042036Y780314D01*
X1039914Y781943D01*
X1037442Y782967D01*
X1034790Y783316D01*
D02*
G37*
G36*
X1214283Y689610D02*
X1212850D01*
Y688177D01*
X1213661Y688799D01*
X1214283Y689610D01*
D02*
G37*
G36*
X1200150D02*
X1198717D01*
X1199339Y688799D01*
X1200150Y688177D01*
Y689610D01*
D02*
G37*
G36*
X1181100Y707368D02*
X1178148Y706979D01*
X1175396Y705839D01*
X1173034Y704026D01*
X1171221Y701664D01*
X1170081Y698913D01*
X1169692Y695960D01*
X1170081Y693008D01*
X1171221Y690256D01*
X1173034Y687894D01*
X1175396Y686081D01*
X1178148Y684941D01*
X1181100Y684552D01*
X1184053Y684941D01*
X1186804Y686081D01*
X1189166Y687894D01*
X1190979Y690256D01*
X1192119Y693008D01*
X1192508Y695960D01*
X1192119Y698913D01*
X1190979Y701664D01*
X1189166Y704026D01*
X1186804Y705839D01*
X1184053Y706979D01*
X1181100Y707368D01*
D02*
G37*
G36*
X1212850Y678343D02*
Y676910D01*
X1214283D01*
X1213661Y677721D01*
X1212850Y678343D01*
D02*
G37*
G36*
X1200150D02*
X1199339Y677721D01*
X1198717Y676910D01*
X1200150D01*
Y678343D01*
D02*
G37*
G36*
X1214283Y664210D02*
X1212850D01*
Y662777D01*
X1213661Y663399D01*
X1214283Y664210D01*
D02*
G37*
G36*
X1200150D02*
X1198717D01*
X1199339Y663399D01*
X1200150Y662777D01*
Y664210D01*
D02*
G37*
G36*
X1181100Y681968D02*
X1178148Y681579D01*
X1175396Y680439D01*
X1173034Y678626D01*
X1171221Y676264D01*
X1170081Y673512D01*
X1169692Y670560D01*
X1170081Y667607D01*
X1171221Y664856D01*
X1173034Y662494D01*
X1175396Y660681D01*
X1178148Y659541D01*
X1181100Y659152D01*
X1184053Y659541D01*
X1186804Y660681D01*
X1189166Y662494D01*
X1190979Y664856D01*
X1192119Y667607D01*
X1192508Y670560D01*
X1192119Y673512D01*
X1190979Y676264D01*
X1189166Y678626D01*
X1186804Y680439D01*
X1184053Y681579D01*
X1181100Y681968D01*
D02*
G37*
G36*
X1212850Y652943D02*
Y651510D01*
X1214283D01*
X1213661Y652321D01*
X1212850Y652943D01*
D02*
G37*
G36*
X1200150D02*
X1199339Y652321D01*
X1198717Y651510D01*
X1200150D01*
Y652943D01*
D02*
G37*
G36*
X1214283Y638810D02*
X1212850D01*
Y637377D01*
X1213661Y637999D01*
X1214283Y638810D01*
D02*
G37*
G36*
X1200150D02*
X1198717D01*
X1199339Y637999D01*
X1200150Y637377D01*
Y638810D01*
D02*
G37*
G36*
X1181100Y656568D02*
X1178148Y656179D01*
X1175396Y655039D01*
X1173034Y653226D01*
X1171221Y650864D01*
X1170081Y648112D01*
X1169692Y645160D01*
X1170081Y642207D01*
X1171221Y639456D01*
X1173034Y637094D01*
X1175396Y635281D01*
X1178148Y634141D01*
X1181100Y633752D01*
X1184053Y634141D01*
X1186804Y635281D01*
X1189166Y637094D01*
X1190979Y639456D01*
X1192119Y642207D01*
X1192508Y645160D01*
X1192119Y648112D01*
X1190979Y650864D01*
X1189166Y653226D01*
X1186804Y655039D01*
X1184053Y656179D01*
X1181100Y656568D01*
D02*
G37*
G36*
X1137920Y646518D02*
X1135268Y646169D01*
X1132796Y645145D01*
X1130674Y643516D01*
X1129045Y641394D01*
X1128021Y638922D01*
X1127672Y636270D01*
X1128021Y633618D01*
X1129045Y631146D01*
X1130674Y629024D01*
X1132796Y627395D01*
X1134240Y626797D01*
Y625423D01*
X1132796Y624825D01*
X1130674Y623196D01*
X1129045Y621074D01*
X1128021Y618602D01*
X1127672Y615950D01*
X1128021Y613298D01*
X1129045Y610826D01*
X1130674Y608704D01*
X1132796Y607075D01*
X1135268Y606051D01*
X1137920Y605702D01*
X1140572Y606051D01*
X1143044Y607075D01*
X1145166Y608704D01*
X1146795Y610826D01*
X1147819Y613298D01*
X1148168Y615950D01*
X1147819Y618602D01*
X1146795Y621074D01*
X1145166Y623196D01*
X1143044Y624825D01*
X1141600Y625423D01*
Y626797D01*
X1143044Y627395D01*
X1145166Y629024D01*
X1146795Y631146D01*
X1147819Y633618D01*
X1148168Y636270D01*
X1147819Y638922D01*
X1146795Y641394D01*
X1145166Y643516D01*
X1143044Y645145D01*
X1140572Y646169D01*
X1137920Y646518D01*
D02*
G37*
G36*
X1114450D02*
X1111798Y646169D01*
X1109326Y645145D01*
X1107204Y643516D01*
X1105575Y641394D01*
X1104551Y638922D01*
X1104202Y636270D01*
X1104551Y633618D01*
X1105575Y631146D01*
X1107204Y629024D01*
X1109326Y627395D01*
X1110770Y626797D01*
Y625423D01*
X1109326Y624825D01*
X1107204Y623196D01*
X1105575Y621074D01*
X1104551Y618602D01*
X1104202Y615950D01*
X1104551Y613298D01*
X1105575Y610826D01*
X1107204Y608704D01*
X1109326Y607075D01*
X1111798Y606051D01*
X1114450Y605702D01*
X1117102Y606051D01*
X1119574Y607075D01*
X1121696Y608704D01*
X1123325Y610826D01*
X1124349Y613298D01*
X1124698Y615950D01*
X1124349Y618602D01*
X1123325Y621074D01*
X1121696Y623196D01*
X1119574Y624825D01*
X1118130Y625423D01*
Y626797D01*
X1119574Y627395D01*
X1121696Y629024D01*
X1123325Y631146D01*
X1124349Y633618D01*
X1124698Y636270D01*
X1124349Y638922D01*
X1123325Y641394D01*
X1121696Y643516D01*
X1119574Y645145D01*
X1117102Y646169D01*
X1114450Y646518D01*
D02*
G37*
G36*
X661670Y621008D02*
X658717Y620619D01*
X655966Y619479D01*
X653604Y617666D01*
X651791Y615304D01*
X650651Y612552D01*
X650262Y609600D01*
X650651Y606647D01*
X651791Y603896D01*
X653604Y601534D01*
X655966Y599721D01*
X658717Y598581D01*
X661670Y598192D01*
X664622Y598581D01*
X667374Y599721D01*
X669736Y601534D01*
X671549Y603896D01*
X672689Y606647D01*
X673078Y609600D01*
X672689Y612552D01*
X671549Y615304D01*
X669736Y617666D01*
X667374Y619479D01*
X664622Y620619D01*
X661670Y621008D01*
D02*
G37*
G36*
X1270000Y598484D02*
Y596900D01*
X1271584D01*
X1270896Y597796D01*
X1270000Y598484D01*
D02*
G37*
G36*
X1257300D02*
X1256404Y597796D01*
X1255716Y596900D01*
X1257300D01*
Y598484D01*
D02*
G37*
G36*
X343535Y622388D02*
X340883Y622038D01*
X338411Y621015D01*
X336289Y619386D01*
X334660Y617264D01*
X333637Y614792D01*
X333287Y612140D01*
X333637Y609488D01*
X334660Y607016D01*
X336289Y604894D01*
X338411Y603265D01*
X340883Y602242D01*
X343535Y601892D01*
X346187Y602242D01*
X347183Y601279D01*
X347238Y601042D01*
X283359Y537163D01*
X282314Y537796D01*
X283466Y540576D01*
X283859Y543560D01*
X283466Y546544D01*
X282314Y549324D01*
X280482Y551712D01*
X278094Y553544D01*
X275314Y554696D01*
X272330Y555089D01*
X269346Y554696D01*
X266566Y553544D01*
X264178Y551712D01*
X262346Y549324D01*
X261194Y546544D01*
X260907Y544361D01*
X259626D01*
X259506Y545274D01*
X258354Y548054D01*
X256522Y550442D01*
X254134Y552274D01*
X251354Y553426D01*
X248370Y553819D01*
X245386Y553426D01*
X242606Y552274D01*
X240218Y550442D01*
X238386Y548054D01*
X237234Y545274D01*
X236881Y542588D01*
X202480Y508187D01*
X171450D01*
Y521970D01*
X43180D01*
Y466090D01*
X171450D01*
Y487112D01*
X250317D01*
X252140Y487352D01*
X253840Y488056D01*
X255299Y489175D01*
X357889Y591765D01*
X358140Y591732D01*
X360792Y592081D01*
X363264Y593105D01*
X365386Y594734D01*
X367015Y596856D01*
X368038Y599328D01*
X368388Y601980D01*
X368038Y604632D01*
X367015Y607104D01*
X365386Y609226D01*
X363264Y610855D01*
X360792Y611879D01*
X358140Y612228D01*
X355488Y611879D01*
X354857Y611617D01*
X353732Y612526D01*
X353433Y614792D01*
X352410Y617264D01*
X350781Y619386D01*
X348659Y621015D01*
X346187Y622038D01*
X343535Y622388D01*
D02*
G37*
G36*
X93980Y607159D02*
X90996Y606766D01*
X88216Y605614D01*
X85828Y603782D01*
X83996Y601394D01*
X82844Y598614D01*
X82451Y595630D01*
X82844Y592646D01*
X83996Y589866D01*
X85828Y587478D01*
X88216Y585646D01*
X90996Y584494D01*
X93980Y584101D01*
X96964Y584494D01*
X99744Y585646D01*
X102132Y587478D01*
X103964Y589866D01*
X105116Y592646D01*
X105509Y595630D01*
X105116Y598614D01*
X103964Y601394D01*
X102132Y603782D01*
X99744Y605614D01*
X96964Y606766D01*
X93980Y607159D01*
D02*
G37*
G36*
X1271584Y584200D02*
X1270000D01*
Y582616D01*
X1270896Y583304D01*
X1271584Y584200D01*
D02*
G37*
G36*
X1257300D02*
X1255716D01*
X1256404Y583304D01*
X1257300Y582616D01*
Y584200D01*
D02*
G37*
G36*
X791210Y580489D02*
X788226Y580096D01*
X785446Y578944D01*
X783058Y577112D01*
X781226Y574724D01*
X780074Y571944D01*
X779681Y568960D01*
X780074Y565976D01*
X781226Y563196D01*
X783058Y560808D01*
X785446Y558976D01*
X788226Y557824D01*
X791210Y557431D01*
X794194Y557824D01*
X796974Y558976D01*
X799362Y560808D01*
X801194Y563196D01*
X802346Y565976D01*
X802739Y568960D01*
X802346Y571944D01*
X801194Y574724D01*
X799362Y577112D01*
X796974Y578944D01*
X794194Y580096D01*
X791210Y580489D01*
D02*
G37*
G36*
X1231900Y566519D02*
X1228916Y566126D01*
X1226136Y564974D01*
X1223748Y563142D01*
X1221916Y560754D01*
X1220764Y557974D01*
X1220371Y554990D01*
X1220764Y552006D01*
X1221916Y549226D01*
X1223748Y546838D01*
X1226136Y545006D01*
X1228916Y543854D01*
X1231900Y543461D01*
X1234884Y543854D01*
X1237664Y545006D01*
X1240052Y546838D01*
X1241884Y549226D01*
X1243036Y552006D01*
X1243429Y554990D01*
X1243036Y557974D01*
X1241884Y560754D01*
X1240052Y563142D01*
X1237664Y564974D01*
X1234884Y566126D01*
X1231900Y566519D01*
D02*
G37*
G36*
X86360Y572119D02*
X81879Y571677D01*
X77569Y570370D01*
X73598Y568247D01*
X70117Y565391D01*
X67261Y561910D01*
X65138Y557938D01*
X63831Y553629D01*
X63389Y549148D01*
X63831Y544667D01*
X65138Y540358D01*
X67261Y536386D01*
X70117Y532905D01*
X73598Y530049D01*
X77569Y527926D01*
X81879Y526619D01*
X86360Y526177D01*
X90841Y526619D01*
X95150Y527926D01*
X99122Y530049D01*
X102603Y532905D01*
X105459Y536386D01*
X107582Y540358D01*
X108889Y544667D01*
X109331Y549148D01*
X108889Y553629D01*
X107582Y557938D01*
X105459Y561910D01*
X102603Y565391D01*
X99122Y568247D01*
X95150Y570370D01*
X90841Y571677D01*
X86360Y572119D01*
D02*
G37*
G36*
X1256030Y543659D02*
X1253046Y543266D01*
X1250266Y542114D01*
X1247878Y540282D01*
X1246046Y537894D01*
X1244894Y535114D01*
X1244501Y532130D01*
X1244894Y529146D01*
X1246046Y526366D01*
X1247878Y523978D01*
X1250266Y522146D01*
X1253046Y520994D01*
X1256030Y520601D01*
X1259014Y520994D01*
X1261794Y522146D01*
X1264182Y523978D01*
X1266014Y526366D01*
X1267166Y529146D01*
X1267559Y532130D01*
X1267166Y535114D01*
X1266014Y537894D01*
X1264182Y540282D01*
X1261794Y542114D01*
X1259014Y543266D01*
X1256030Y543659D01*
D02*
G37*
G36*
X590550Y528408D02*
X587898Y528059D01*
X585426Y527035D01*
X583304Y525406D01*
X583150Y525205D01*
X457034D01*
X455211Y524965D01*
X453511Y524261D01*
X452052Y523142D01*
X410512Y481601D01*
X409266Y481849D01*
X408812Y482944D01*
X407184Y485066D01*
X405061Y486695D01*
X402590Y487719D01*
X399938Y488068D01*
X397285Y487719D01*
X394814Y486695D01*
X392691Y485066D01*
X391063Y482944D01*
X390039Y480472D01*
X389690Y477820D01*
X390039Y475168D01*
X390482Y474098D01*
X389510Y473126D01*
X388732Y473448D01*
X386080Y473798D01*
X383428Y473448D01*
X380956Y472425D01*
X378834Y470796D01*
X377205Y468674D01*
X376181Y466202D01*
X375832Y463550D01*
X376181Y460898D01*
X376514Y460094D01*
X375809Y459038D01*
X305305D01*
X298352Y465992D01*
X296893Y467111D01*
X295193Y467815D01*
X294644Y467888D01*
X294361Y468256D01*
X292239Y469885D01*
X289767Y470909D01*
X287115Y471258D01*
X284462Y470909D01*
X283601Y470551D01*
X282568Y471498D01*
X282243Y473972D01*
X281219Y476444D01*
X279590Y478566D01*
X277468Y480195D01*
X274996Y481218D01*
X272344Y481568D01*
X269692Y481218D01*
X267220Y480195D01*
X265098Y478566D01*
X263469Y476444D01*
X262446Y473972D01*
X262096Y471320D01*
X262446Y468668D01*
X263469Y466196D01*
X265098Y464074D01*
X267220Y462445D01*
X269692Y461422D01*
X272344Y461072D01*
X274996Y461422D01*
X275858Y461778D01*
X276891Y460831D01*
X277216Y458358D01*
X278240Y455886D01*
X279869Y453764D01*
X281991Y452135D01*
X284462Y451111D01*
X287115Y450762D01*
X289767Y451111D01*
X292239Y452135D01*
X292263Y452154D01*
X297405Y447011D01*
X298864Y445892D01*
X300564Y445188D01*
X302387Y444948D01*
X390867D01*
X392691Y445188D01*
X394390Y445892D01*
X395849Y447011D01*
X459952Y511115D01*
X583150D01*
X583304Y510914D01*
X585426Y509285D01*
X587898Y508261D01*
X590550Y507912D01*
X593202Y508261D01*
X595674Y509285D01*
X597796Y510914D01*
X599425Y513036D01*
X600448Y515508D01*
X600798Y518160D01*
X600448Y520812D01*
X599425Y523284D01*
X597796Y525406D01*
X595674Y527035D01*
X593202Y528059D01*
X590550Y528408D01*
D02*
G37*
G36*
X391160Y524598D02*
X388508Y524249D01*
X386036Y523225D01*
X383914Y521596D01*
X382285Y519474D01*
X381261Y517002D01*
X380912Y514350D01*
X381261Y511698D01*
X382285Y509226D01*
X383914Y507104D01*
X386036Y505475D01*
X388508Y504451D01*
X391160Y504102D01*
X393812Y504451D01*
X396284Y505475D01*
X398406Y507104D01*
X400035Y509226D01*
X401059Y511698D01*
X401408Y514350D01*
X401059Y517002D01*
X400035Y519474D01*
X398406Y521596D01*
X396284Y523225D01*
X393812Y524249D01*
X391160Y524598D01*
D02*
G37*
G36*
X1203960Y492848D02*
X1201308Y492499D01*
X1198836Y491475D01*
X1196714Y489846D01*
X1195085Y487724D01*
X1194694Y486780D01*
X1193320D01*
X1192929Y487724D01*
X1191300Y489846D01*
X1189178Y491475D01*
X1186706Y492499D01*
X1184054Y492848D01*
X1181402Y492499D01*
X1178930Y491475D01*
X1176808Y489846D01*
X1175179Y487724D01*
X1174156Y485252D01*
X1173806Y482600D01*
X1174156Y479948D01*
X1175179Y477476D01*
X1176808Y475354D01*
X1178930Y473725D01*
X1181402Y472701D01*
X1184054Y472352D01*
X1186706Y472701D01*
X1189178Y473725D01*
X1191300Y475354D01*
X1192929Y477476D01*
X1193320Y478420D01*
X1194694D01*
X1195085Y477476D01*
X1196714Y475354D01*
X1198836Y473725D01*
X1201308Y472701D01*
X1203960Y472352D01*
X1206612Y472701D01*
X1209084Y473725D01*
X1211206Y475354D01*
X1212835Y477476D01*
X1213858Y479948D01*
X1214208Y482600D01*
X1213858Y485252D01*
X1212835Y487724D01*
X1211206Y489846D01*
X1209084Y491475D01*
X1206612Y492499D01*
X1203960Y492848D01*
D02*
G37*
G36*
X1109619Y491578D02*
X1106967Y491228D01*
X1104495Y490205D01*
X1102373Y488576D01*
X1100744Y486454D01*
X1099721Y483982D01*
X1099371Y481330D01*
X1099721Y478678D01*
X1100744Y476206D01*
X1102373Y474084D01*
X1104495Y472455D01*
X1104642Y472394D01*
X1104642Y472394D01*
X1106966Y471431D01*
X1108900Y471176D01*
X1108900Y471177D01*
X1109619Y471082D01*
X1112271Y471432D01*
X1114743Y472455D01*
X1116865Y474084D01*
X1118494Y476206D01*
X1119518Y478678D01*
X1119867Y481330D01*
X1119518Y483982D01*
X1118494Y486454D01*
X1116865Y488576D01*
X1114743Y490205D01*
X1112271Y491228D01*
X1109619Y491578D01*
D02*
G37*
G36*
X508000Y476338D02*
X505348Y475989D01*
X502876Y474965D01*
X500754Y473336D01*
X499125Y471214D01*
X498102Y468742D01*
X497752Y466090D01*
X498102Y463438D01*
X499125Y460966D01*
X500754Y458844D01*
X502876Y457215D01*
X505348Y456191D01*
X508000Y455842D01*
X510652Y456191D01*
X513124Y457215D01*
X515246Y458844D01*
X516875Y460966D01*
X517898Y463438D01*
X518248Y466090D01*
X517898Y468742D01*
X516875Y471214D01*
X515246Y473336D01*
X513124Y474965D01*
X510652Y475989D01*
X508000Y476338D01*
D02*
G37*
G36*
X716826Y520788D02*
X714174Y520438D01*
X711702Y519415D01*
X709580Y517786D01*
X707951Y515664D01*
X706927Y513192D01*
X706578Y510540D01*
X706927Y507888D01*
X707951Y505416D01*
X709580Y503294D01*
X711702Y501665D01*
X714174Y500642D01*
X716826Y500292D01*
X719478Y500642D01*
X721950Y501665D01*
X724072Y503294D01*
X725658Y505360D01*
X756251D01*
X799836Y461775D01*
X799588Y460529D01*
X797886Y459824D01*
X795498Y457992D01*
X793666Y455604D01*
X792514Y452824D01*
X792121Y449840D01*
X792514Y446856D01*
X793225Y445141D01*
X792519Y444085D01*
X771364D01*
X739206Y476244D01*
X739228Y476410D01*
X738878Y479062D01*
X737855Y481534D01*
X736226Y483656D01*
X734104Y485285D01*
X731632Y486309D01*
X728980Y486658D01*
X726328Y486309D01*
X723856Y485285D01*
X721734Y483656D01*
X720105Y481534D01*
X719081Y479062D01*
X718732Y476410D01*
X719081Y473758D01*
X720105Y471286D01*
X721734Y469164D01*
X723856Y467535D01*
X726328Y466511D01*
X728980Y466162D01*
X731632Y466511D01*
X734104Y467535D01*
X734665Y467966D01*
X766282Y436348D01*
X766282Y436348D01*
X767753Y435366D01*
X769487Y435021D01*
X818462D01*
X836641Y416842D01*
X836393Y415597D01*
X835616Y415275D01*
X833494Y413646D01*
X831908Y411580D01*
X765415D01*
X721108Y455887D01*
X721448Y458470D01*
X721098Y461122D01*
X720075Y463594D01*
X718446Y465716D01*
X716324Y467345D01*
X713852Y468368D01*
X711200Y468718D01*
X708548Y468368D01*
X706076Y467345D01*
X703954Y465716D01*
X702325Y463594D01*
X701301Y461122D01*
X700952Y458470D01*
X701301Y455818D01*
X702325Y453346D01*
X703954Y451224D01*
X706076Y449595D01*
X708548Y448572D01*
X711200Y448222D01*
X713783Y448562D01*
X759607Y402738D01*
X761288Y401615D01*
X763270Y401221D01*
X831908D01*
X833494Y399154D01*
X835561Y397568D01*
Y392750D01*
X835955Y390768D01*
X837077Y389087D01*
X851766Y374399D01*
X851280Y373226D01*
X692030D01*
Y392310D01*
X669410D01*
Y381185D01*
X668290Y380587D01*
X668112Y380705D01*
X666130Y381100D01*
X513022D01*
X511436Y383166D01*
X509314Y384795D01*
X506842Y385818D01*
X504190Y386168D01*
X501538Y385818D01*
X499066Y384795D01*
X496944Y383166D01*
X495315Y381044D01*
X494291Y378572D01*
X493942Y375920D01*
X494291Y373268D01*
X495315Y370796D01*
X496944Y368674D01*
X499066Y367045D01*
X501538Y366021D01*
X504190Y365672D01*
X506842Y366021D01*
X509314Y367045D01*
X510756Y368152D01*
X511947Y367465D01*
X511722Y365760D01*
X512071Y363108D01*
X513095Y360636D01*
X514724Y358514D01*
X516846Y356885D01*
X519318Y355862D01*
X521970Y355512D01*
X524622Y355862D01*
X526465Y356625D01*
X530644Y352445D01*
X532324Y351323D01*
X534306Y350928D01*
X746328D01*
X746453Y349659D01*
X746296Y349627D01*
X744825Y348645D01*
X702973Y306792D01*
X651786D01*
X650052Y306447D01*
X648582Y305465D01*
X648582Y305465D01*
X623239Y280122D01*
X578080D01*
X577835Y280714D01*
X576206Y282836D01*
X574084Y284465D01*
X571612Y285488D01*
X570513Y285633D01*
X570105Y286836D01*
X583496Y300227D01*
X584088Y299981D01*
X586740Y299632D01*
X589392Y299981D01*
X591864Y301005D01*
X593986Y302634D01*
X595615Y304756D01*
X596638Y307228D01*
X596988Y309880D01*
X596638Y312532D01*
X595615Y315004D01*
X593986Y317126D01*
X591864Y318755D01*
X589392Y319778D01*
X586740Y320128D01*
X584088Y319778D01*
X581616Y318755D01*
X579494Y317126D01*
X577865Y315004D01*
X576842Y312532D01*
X576492Y309880D01*
X576842Y307228D01*
X577087Y306636D01*
X457160Y186709D01*
X454772Y187698D01*
X452120Y188048D01*
X449468Y187698D01*
X446996Y186675D01*
X444874Y185046D01*
X443245Y182924D01*
X442221Y180452D01*
X441872Y177800D01*
X442221Y175148D01*
X443245Y172676D01*
X444874Y170554D01*
X446996Y168925D01*
X449468Y167901D01*
X452120Y167552D01*
X454772Y167901D01*
X457244Y168925D01*
X457785Y169341D01*
X459012Y169012D01*
X459598Y167596D01*
X461227Y165474D01*
X463349Y163845D01*
X465821Y162822D01*
X468473Y162472D01*
X471125Y162822D01*
X473597Y163845D01*
X475719Y165474D01*
X477348Y167596D01*
X478372Y170068D01*
X478721Y172720D01*
X478372Y175372D01*
X477777Y176807D01*
X529345Y228374D01*
X530734Y227967D01*
X531542Y226016D01*
X533171Y223894D01*
X535293Y222265D01*
X536830Y221629D01*
X536956Y221457D01*
X537197Y220102D01*
X535955Y218484D01*
X534931Y216012D01*
X534582Y213360D01*
X534931Y210708D01*
X535955Y208236D01*
X537584Y206114D01*
X539706Y204485D01*
X542178Y203461D01*
X544830Y203112D01*
X547482Y203461D01*
X549954Y204485D01*
X552076Y206114D01*
X553705Y208236D01*
X554729Y210708D01*
X555078Y213360D01*
X554882Y214846D01*
X555719Y215800D01*
X704452D01*
X704938Y214627D01*
X685362Y195052D01*
X677552D01*
X677552Y195052D01*
X675570Y194657D01*
X673890Y193535D01*
X673890Y193535D01*
X580941Y100586D01*
X578358Y100926D01*
X575706Y100576D01*
X573234Y99553D01*
X571112Y97924D01*
X569483Y95802D01*
X568460Y93330D01*
X568110Y90678D01*
X568460Y88026D01*
X569483Y85554D01*
X571112Y83432D01*
X573234Y81803D01*
X575706Y80779D01*
X578358Y80430D01*
X581010Y80779D01*
X583482Y81803D01*
X585604Y83432D01*
X587233Y85554D01*
X588256Y88026D01*
X588606Y90678D01*
X588266Y93261D01*
X679697Y184693D01*
X687508D01*
X689490Y185087D01*
X691170Y186210D01*
X789341Y284380D01*
X805238D01*
X806824Y282314D01*
X808946Y280685D01*
X811418Y279662D01*
X814070Y279312D01*
X816722Y279662D01*
X819194Y280685D01*
X821316Y282314D01*
X822945Y284436D01*
X823969Y286908D01*
X824318Y289560D01*
X823969Y292212D01*
X822945Y294684D01*
X821316Y296806D01*
X819194Y298435D01*
X816722Y299459D01*
X814070Y299808D01*
X811418Y299459D01*
X808946Y298435D01*
X806824Y296806D01*
X805238Y294739D01*
X794894D01*
X794408Y295913D01*
X828527Y330032D01*
X938333D01*
X939038Y328977D01*
X938721Y328212D01*
X938372Y325560D01*
X938721Y322908D01*
X939745Y320436D01*
X941374Y318314D01*
X943496Y316685D01*
X945968Y315661D01*
X948620Y315312D01*
X949379Y315412D01*
X978378Y286413D01*
X977785Y285211D01*
X975680Y285488D01*
X973028Y285138D01*
X970556Y284115D01*
X968434Y282486D01*
X966805Y280364D01*
X965781Y277892D01*
X965432Y275240D01*
X965781Y272588D01*
X966805Y270116D01*
X968434Y267994D01*
X970556Y266365D01*
X973028Y265341D01*
X975680Y264992D01*
X978332Y265341D01*
X980804Y266365D01*
X982926Y267994D01*
X984555Y270116D01*
X985579Y272588D01*
X985928Y275240D01*
X985651Y277344D01*
X986853Y277938D01*
X1075903Y188888D01*
X1075613Y186690D01*
X1075919Y184369D01*
X1076815Y182207D01*
X1078240Y180350D01*
X1080097Y178925D01*
X1082259Y178029D01*
X1084580Y177723D01*
X1086901Y178029D01*
X1087609Y178322D01*
X1088390Y177800D01*
Y177800D01*
X1106170D01*
Y195580D01*
X1105093D01*
X1105092Y195581D01*
X1097280D01*
Y205740D01*
D01*
Y215823D01*
X1099601Y216128D01*
X1101764Y217024D01*
X1102715Y217754D01*
Y217755D01*
X1103620Y218450D01*
X1105045Y220307D01*
X1105941Y222469D01*
X1106247Y224790D01*
X1105941Y227111D01*
X1105045Y229273D01*
X1103620Y231130D01*
X1102715Y231825D01*
Y231826D01*
X1101764Y232556D01*
X1099601Y233452D01*
X1097280Y233757D01*
Y237490D01*
X1093547D01*
X1093242Y239811D01*
X1092346Y241974D01*
X1091616Y242925D01*
X1091615D01*
X1090920Y243830D01*
X1089063Y245255D01*
X1086901Y246151D01*
X1084580Y246457D01*
X1082259Y246151D01*
X1080097Y245255D01*
X1078240Y243830D01*
X1076815Y241973D01*
X1075919Y239811D01*
X1075613Y237490D01*
X1075919Y235169D01*
X1076815Y233007D01*
X1078240Y231150D01*
Y231130D01*
X1076815Y229273D01*
X1075919Y227111D01*
X1075613Y224790D01*
X1075919Y222469D01*
X1076815Y220307D01*
X1078240Y218450D01*
Y218430D01*
X1076815Y216573D01*
X1075919Y214411D01*
X1075613Y212090D01*
X1075919Y209769D01*
X1076815Y207607D01*
X1078240Y205750D01*
Y205730D01*
X1077053Y204184D01*
X1075593Y203848D01*
X957937Y321504D01*
X958519Y322908D01*
X958868Y325560D01*
X958519Y328212D01*
X958202Y328977D01*
X958907Y330032D01*
X960681D01*
X962398Y328316D01*
X964078Y327193D01*
X966060Y326799D01*
X978774D01*
X979027Y325528D01*
X977547Y324915D01*
X975702Y323500D01*
X988358D01*
X986513Y324915D01*
X985033Y325528D01*
X985286Y326799D01*
X1005303D01*
X1051713Y280389D01*
X1051369Y277780D01*
X1051718Y275128D01*
X1052742Y272656D01*
X1054371Y270534D01*
X1056493Y268905D01*
X1058965Y267882D01*
X1061617Y267532D01*
X1064269Y267882D01*
X1066741Y268905D01*
X1068863Y270534D01*
X1070492Y272656D01*
X1071515Y275128D01*
X1071865Y277780D01*
X1071639Y279494D01*
X1071898Y279720D01*
X1072839Y280106D01*
X1074696Y278681D01*
X1077168Y277657D01*
X1079820Y277308D01*
X1082472Y277657D01*
X1084944Y278681D01*
X1087066Y280310D01*
X1088695Y282432D01*
X1089718Y284904D01*
X1090068Y287556D01*
X1089718Y290208D01*
X1088695Y292680D01*
X1087066Y294802D01*
X1084944Y296430D01*
X1082472Y297454D01*
X1079820Y297803D01*
X1077237Y297463D01*
X1018140Y356560D01*
X1016460Y357683D01*
X1014478Y358078D01*
X1012877D01*
X993527Y377428D01*
X993775Y378976D01*
X995361Y380194D01*
X996990Y382316D01*
X998014Y384788D01*
X998363Y387440D01*
X998014Y390092D01*
X996990Y392564D01*
X995361Y394686D01*
X993239Y396315D01*
X990767Y397338D01*
X988115Y397688D01*
X985463Y397338D01*
X982991Y396315D01*
X980869Y394686D01*
X979500Y392903D01*
X978120Y392916D01*
X977885Y393484D01*
X976256Y395606D01*
X974134Y397235D01*
X971662Y398259D01*
X969010Y398608D01*
X966358Y398259D01*
X963886Y397235D01*
X961764Y395606D01*
X960135Y393484D01*
X959111Y391012D01*
X958762Y388360D01*
X959111Y385708D01*
X959863Y383894D01*
X959089Y382623D01*
X948991D01*
X946816Y384799D01*
X947271Y386140D01*
X948802Y386342D01*
X951274Y387365D01*
X953396Y388994D01*
X955025Y391116D01*
X956049Y393588D01*
X956398Y396240D01*
X956049Y398892D01*
X955025Y401364D01*
X953396Y403486D01*
X951274Y405115D01*
X950603Y405392D01*
Y428605D01*
X951944Y429634D01*
X953572Y431756D01*
X954596Y434228D01*
X954945Y436880D01*
X954596Y439532D01*
X953572Y442004D01*
X951944Y444126D01*
X949821Y445755D01*
X947350Y446778D01*
X944698Y447128D01*
X942045Y446778D01*
X939574Y445755D01*
X937451Y444126D01*
X935823Y442004D01*
X934799Y439532D01*
X934450Y436880D01*
X934799Y434228D01*
X935823Y431756D01*
X937451Y429634D01*
X939574Y428005D01*
X940244Y427728D01*
Y404515D01*
X938904Y403486D01*
X937275Y401364D01*
X936252Y398892D01*
X936018Y397120D01*
X934656Y396503D01*
X934350Y396707D01*
X932368Y397102D01*
X879159D01*
X762058Y514202D01*
X760378Y515325D01*
X758396Y515719D01*
X725658D01*
X724072Y517786D01*
X721950Y519415D01*
X719478Y520438D01*
X716826Y520788D01*
D02*
G37*
G36*
X128016Y441652D02*
X113538D01*
Y432816D01*
X141758D01*
X140643Y434903D01*
X138754Y437204D01*
X136453Y439093D01*
X133827Y440496D01*
X130979Y441360D01*
X128016Y441652D01*
D02*
G37*
G36*
X100838D02*
X86360D01*
X83397Y441360D01*
X80548Y440496D01*
X77923Y439093D01*
X75622Y437204D01*
X73733Y434903D01*
X72618Y432816D01*
X100838D01*
Y441652D01*
D02*
G37*
G36*
X1187812Y433158D02*
X1185160Y432808D01*
X1182688Y431785D01*
X1180566Y430156D01*
X1178937Y428034D01*
X1177914Y425562D01*
X1177564Y422910D01*
X1177914Y420258D01*
X1178937Y417786D01*
X1180566Y415664D01*
X1182688Y414035D01*
X1185160Y413012D01*
X1187812Y412662D01*
X1190464Y413012D01*
X1192936Y414035D01*
X1195058Y415664D01*
X1196687Y417786D01*
X1197710Y420258D01*
X1198060Y422910D01*
X1197710Y425562D01*
X1196687Y428034D01*
X1195058Y430156D01*
X1192936Y431785D01*
X1190464Y432808D01*
X1187812Y433158D01*
D02*
G37*
G36*
X1266190Y430437D02*
X1263869Y430131D01*
X1261707Y429235D01*
X1259850Y427810D01*
X1258425Y425953D01*
X1257529Y423791D01*
X1257223Y421470D01*
X1257529Y419149D01*
X1258425Y416987D01*
X1259850Y415130D01*
X1261707Y413705D01*
X1263869Y412809D01*
X1266190Y412503D01*
X1268511Y412809D01*
X1270673Y413705D01*
X1272530Y415130D01*
X1273955Y416987D01*
X1274851Y419149D01*
X1275157Y421470D01*
X1274851Y423791D01*
X1273955Y425953D01*
X1272530Y427810D01*
X1270673Y429235D01*
X1268511Y430131D01*
X1266190Y430437D01*
D02*
G37*
G36*
X141758Y420116D02*
X113538D01*
Y411280D01*
X128016D01*
X130979Y411572D01*
X133827Y412436D01*
X136453Y413839D01*
X138754Y415728D01*
X140643Y418029D01*
X141758Y420116D01*
D02*
G37*
G36*
X100838D02*
X72618D01*
X73733Y418029D01*
X75622Y415728D01*
X77923Y413839D01*
X80548Y412436D01*
X83397Y411572D01*
X86360Y411280D01*
X100838D01*
Y420116D01*
D02*
G37*
G36*
X680720Y417808D02*
X677767Y417419D01*
X675016Y416279D01*
X672654Y414466D01*
X670841Y412104D01*
X669701Y409352D01*
X669312Y406400D01*
X669701Y403447D01*
X670841Y400696D01*
X672654Y398334D01*
X675016Y396521D01*
X677767Y395381D01*
X680720Y394992D01*
X683672Y395381D01*
X686424Y396521D01*
X688786Y398334D01*
X690599Y400696D01*
X691739Y403447D01*
X692128Y406400D01*
X691739Y409352D01*
X690599Y412104D01*
X688786Y414466D01*
X686424Y416279D01*
X683672Y417419D01*
X680720Y417808D01*
D02*
G37*
G36*
X1012510Y415028D02*
X1009858Y414678D01*
X1007386Y413655D01*
X1005264Y412026D01*
X1003635Y409904D01*
X1002611Y407432D01*
X1002262Y404780D01*
X1002611Y402128D01*
X1003635Y399656D01*
X1005264Y397534D01*
X1007386Y395905D01*
X1009858Y394882D01*
X1012510Y394532D01*
X1015162Y394882D01*
X1017634Y395905D01*
X1019756Y397534D01*
X1021385Y399656D01*
X1022409Y402128D01*
X1022758Y404780D01*
X1022409Y407432D01*
X1021385Y409904D01*
X1019756Y412026D01*
X1017634Y413655D01*
X1015162Y414678D01*
X1012510Y415028D01*
D02*
G37*
G36*
X467360Y419188D02*
X464708Y418839D01*
X462236Y417815D01*
X460114Y416186D01*
X458485Y414064D01*
X457462Y411592D01*
X457112Y408940D01*
X457462Y406288D01*
X458485Y403816D01*
X460114Y401694D01*
X460364Y401502D01*
X460198Y400243D01*
X459696Y400035D01*
X457574Y398406D01*
X455945Y396284D01*
X454921Y393812D01*
X454572Y391160D01*
X454921Y388508D01*
X455945Y386036D01*
X457574Y383914D01*
X459696Y382285D01*
X462168Y381261D01*
X464820Y380912D01*
X467472Y381261D01*
X469944Y382285D01*
X472066Y383914D01*
X473695Y386036D01*
X474719Y388508D01*
X475068Y391160D01*
X474719Y393812D01*
X473695Y396284D01*
X472066Y398406D01*
X471816Y398598D01*
X471982Y399857D01*
X472484Y400065D01*
X474606Y401694D01*
X476235Y403816D01*
X477258Y406288D01*
X477608Y408940D01*
X477258Y411592D01*
X476235Y414064D01*
X474606Y416186D01*
X472484Y417815D01*
X470012Y418839D01*
X467360Y419188D01*
D02*
G37*
G36*
X1256790Y402999D02*
X1253806Y402606D01*
X1251026Y401454D01*
X1248638Y399622D01*
X1246806Y397234D01*
X1245654Y394454D01*
X1245261Y391470D01*
X1245654Y388486D01*
X1246806Y385706D01*
X1248638Y383318D01*
X1251026Y381486D01*
X1253806Y380334D01*
X1256790Y379941D01*
X1259774Y380334D01*
X1262554Y381486D01*
X1264942Y383318D01*
X1266774Y385706D01*
X1267926Y388486D01*
X1268319Y391470D01*
X1267926Y394454D01*
X1266774Y397234D01*
X1264942Y399622D01*
X1262554Y401454D01*
X1259774Y402606D01*
X1256790Y402999D01*
D02*
G37*
G36*
X1226790D02*
X1223806Y402606D01*
X1221026Y401454D01*
X1218638Y399622D01*
X1216806Y397234D01*
X1215654Y394454D01*
X1215261Y391470D01*
X1215654Y388486D01*
X1216806Y385706D01*
X1218638Y383318D01*
X1221026Y381486D01*
X1223806Y380334D01*
X1226790Y379941D01*
X1229774Y380334D01*
X1232554Y381486D01*
X1234942Y383318D01*
X1236774Y385706D01*
X1237926Y388486D01*
X1238319Y391470D01*
X1237926Y394454D01*
X1236774Y397234D01*
X1234942Y399622D01*
X1232554Y401454D01*
X1229774Y402606D01*
X1226790Y402999D01*
D02*
G37*
G36*
X1233140Y369404D02*
Y367820D01*
X1234724D01*
X1234036Y368716D01*
X1233140Y369404D01*
D02*
G37*
G36*
X1220440Y369404D02*
X1219544Y368716D01*
X1218856Y367820D01*
X1220440D01*
Y369404D01*
D02*
G37*
G36*
X306802Y378109D02*
X304150Y377760D01*
X301678Y376736D01*
X299556Y375108D01*
X297927Y372986D01*
X296903Y370514D01*
X296554Y367862D01*
X296903Y365210D01*
X297927Y362738D01*
X299556Y360616D01*
X301678Y358987D01*
X304150Y357963D01*
X306802Y357614D01*
X309454Y357963D01*
X311926Y358987D01*
X314048Y360616D01*
X315677Y362738D01*
X316701Y365210D01*
X317050Y367862D01*
X316701Y370514D01*
X315677Y372986D01*
X314048Y375108D01*
X311926Y376736D01*
X309454Y377760D01*
X306802Y378109D01*
D02*
G37*
G36*
X333375Y377578D02*
X330723Y377229D01*
X328251Y376205D01*
X326129Y374576D01*
X324500Y372454D01*
X323476Y369982D01*
X323127Y367330D01*
X323476Y364678D01*
X324500Y362206D01*
X326129Y360084D01*
X328251Y358456D01*
X330723Y357432D01*
X333375Y357082D01*
X336027Y357432D01*
X338499Y358456D01*
X340621Y360084D01*
X342250Y362206D01*
X343274Y364678D01*
X343623Y367330D01*
X343274Y369982D01*
X342250Y372454D01*
X340621Y374576D01*
X338499Y376205D01*
X336027Y377229D01*
X333375Y377578D01*
D02*
G37*
G36*
X86360Y401431D02*
X81879Y400989D01*
X77569Y399682D01*
X73598Y397559D01*
X70117Y394703D01*
X67261Y391222D01*
X65138Y387251D01*
X63831Y382941D01*
X63389Y378460D01*
X63831Y373979D01*
X65138Y369669D01*
X67261Y365698D01*
X70117Y362217D01*
X73598Y359361D01*
X77569Y357238D01*
X81879Y355931D01*
X86360Y355489D01*
X90841Y355931D01*
X95150Y357238D01*
X99122Y359361D01*
X102603Y362217D01*
X105459Y365698D01*
X107582Y369669D01*
X108889Y373979D01*
X109331Y378460D01*
X108889Y382941D01*
X107582Y387251D01*
X105459Y391222D01*
X102603Y394703D01*
X99122Y397559D01*
X95150Y399682D01*
X90841Y400989D01*
X86360Y401431D01*
D02*
G37*
G36*
X1234724Y355120D02*
X1233140D01*
Y353536D01*
X1234036Y354224D01*
X1234724Y355120D01*
D02*
G37*
G36*
X1220440D02*
X1218856D01*
X1219544Y354224D01*
X1220440Y353536D01*
Y355120D01*
D02*
G37*
G36*
X50800Y352104D02*
Y350520D01*
X52384D01*
X51696Y351416D01*
X50800Y352104D01*
D02*
G37*
G36*
X38100D02*
X37204Y351416D01*
X36516Y350520D01*
X38100D01*
Y352104D01*
D02*
G37*
G36*
X1103630Y373479D02*
X1100646Y373086D01*
X1097866Y371934D01*
X1095478Y370102D01*
X1093646Y367714D01*
X1092494Y364934D01*
X1092101Y361950D01*
X1092494Y358966D01*
X1093646Y356186D01*
X1095478Y353798D01*
X1097866Y351966D01*
X1100646Y350814D01*
X1103630Y350421D01*
X1106614Y350814D01*
X1109394Y351966D01*
X1111782Y353798D01*
X1113614Y356186D01*
X1114766Y358966D01*
X1115159Y361950D01*
X1114766Y364934D01*
X1113614Y367714D01*
X1111782Y370102D01*
X1109394Y371934D01*
X1106614Y373086D01*
X1103630Y373479D01*
D02*
G37*
G36*
X1256790Y372999D02*
X1253806Y372606D01*
X1251026Y371454D01*
X1248638Y369622D01*
X1246806Y367234D01*
X1245654Y364454D01*
X1245261Y361470D01*
X1245654Y358486D01*
X1246806Y355706D01*
X1248638Y353318D01*
X1251026Y351486D01*
X1253806Y350334D01*
X1256790Y349941D01*
X1259774Y350334D01*
X1262554Y351486D01*
X1264942Y353318D01*
X1266774Y355706D01*
X1267926Y358486D01*
X1268319Y361470D01*
X1267926Y364454D01*
X1266774Y367234D01*
X1264942Y369622D01*
X1262554Y371454D01*
X1259774Y372606D01*
X1256790Y372999D01*
D02*
G37*
G36*
X403530Y359310D02*
X392672D01*
Y353484D01*
X393255Y353600D01*
X394019Y352457D01*
X393397Y351525D01*
X392953Y349296D01*
X398780D01*
Y355645D01*
X403530D01*
Y359310D01*
D02*
G37*
G36*
X52384Y337820D02*
X50800D01*
Y336236D01*
X51696Y336924D01*
X52384Y337820D01*
D02*
G37*
G36*
X38100D02*
X36516D01*
X37204Y336924D01*
X38100Y336236D01*
Y337820D01*
D02*
G37*
G36*
X330200Y354418D02*
X327548Y354068D01*
X325076Y353045D01*
X322954Y351416D01*
X321325Y349294D01*
X320302Y346822D01*
X319952Y344170D01*
X320302Y341518D01*
X321325Y339046D01*
X322954Y336924D01*
X325076Y335295D01*
X327548Y334272D01*
X330200Y333922D01*
X332852Y334272D01*
X335324Y335295D01*
X337446Y336924D01*
X339075Y339046D01*
X340098Y341518D01*
X340448Y344170D01*
X340098Y346822D01*
X339075Y349294D01*
X337446Y351416D01*
X335324Y353045D01*
X332852Y354068D01*
X330200Y354418D01*
D02*
G37*
G36*
X1266190Y340437D02*
X1263869Y340131D01*
X1261707Y339235D01*
X1259850Y337810D01*
X1258425Y335953D01*
X1257529Y333791D01*
X1257223Y331470D01*
X1257529Y329149D01*
X1258425Y326987D01*
X1259850Y325130D01*
X1261707Y323705D01*
X1263869Y322809D01*
X1266190Y322503D01*
X1268511Y322809D01*
X1270673Y323705D01*
X1272530Y325130D01*
X1273955Y326987D01*
X1274851Y329149D01*
X1275157Y331470D01*
X1274851Y333791D01*
X1273955Y335953D01*
X1272530Y337810D01*
X1270673Y339235D01*
X1268511Y340131D01*
X1266190Y340437D01*
D02*
G37*
G36*
X1081304Y323588D02*
X1078652Y323238D01*
X1076181Y322215D01*
X1074058Y320586D01*
X1072430Y318464D01*
X1071406Y315992D01*
X1071057Y313340D01*
X1071406Y310688D01*
X1072430Y308216D01*
X1074058Y306094D01*
X1076181Y304465D01*
X1078652Y303442D01*
X1081304Y303092D01*
X1083957Y303442D01*
X1086428Y304465D01*
X1088551Y306094D01*
X1090179Y308216D01*
X1091203Y310688D01*
X1091552Y313340D01*
X1091203Y315992D01*
X1090179Y318464D01*
X1088551Y320586D01*
X1086428Y322215D01*
X1083957Y323238D01*
X1081304Y323588D01*
D02*
G37*
G36*
X1163320Y313991D02*
X1160368Y313602D01*
X1157616Y312462D01*
X1155254Y310649D01*
X1153441Y308287D01*
X1152301Y305536D01*
X1151912Y302583D01*
X1152301Y299631D01*
X1153441Y296879D01*
X1155254Y294517D01*
X1157616Y292704D01*
X1160368Y291564D01*
X1163320Y291175D01*
X1166273Y291564D01*
X1169024Y292704D01*
X1171386Y294517D01*
X1173199Y296879D01*
X1174339Y299631D01*
X1174728Y302583D01*
X1174339Y305536D01*
X1173199Y308287D01*
X1171386Y310649D01*
X1169024Y312462D01*
X1166273Y313602D01*
X1163320Y313991D01*
D02*
G37*
G36*
X435610Y309968D02*
X432958Y309618D01*
X430486Y308595D01*
X428364Y306966D01*
X426735Y304844D01*
X425712Y302372D01*
X425362Y299720D01*
X425712Y297068D01*
X426735Y294596D01*
X428364Y292474D01*
X430486Y290845D01*
X432958Y289821D01*
X435610Y289472D01*
X438262Y289821D01*
X440734Y290845D01*
X442856Y292474D01*
X444485Y294596D01*
X445508Y297068D01*
X445858Y299720D01*
X445508Y302372D01*
X444485Y304844D01*
X442856Y306966D01*
X440734Y308595D01*
X438262Y309618D01*
X435610Y309968D01*
D02*
G37*
G36*
X1266220Y306457D02*
X1263899Y306151D01*
X1261737Y305255D01*
X1259880Y303830D01*
X1258455Y301973D01*
X1257559Y299811D01*
X1257253Y297490D01*
X1257559Y295169D01*
X1258455Y293007D01*
X1259880Y291150D01*
X1261737Y289725D01*
X1263899Y288829D01*
X1266220Y288523D01*
X1268541Y288829D01*
X1270703Y289725D01*
X1272560Y291150D01*
X1273985Y293007D01*
X1274881Y295169D01*
X1275187Y297490D01*
X1274881Y299811D01*
X1273985Y301973D01*
X1272560Y303830D01*
X1270703Y305255D01*
X1268541Y306151D01*
X1266220Y306457D01*
D02*
G37*
G36*
X1108710Y279714D02*
Y278130D01*
X1110294D01*
X1109606Y279026D01*
X1108710Y279714D01*
D02*
G37*
G36*
X1096010D02*
X1095114Y279026D01*
X1094426Y278130D01*
X1096010D01*
Y279714D01*
D02*
G37*
G36*
X882650Y279499D02*
X879666Y279106D01*
X876886Y277954D01*
X875178Y276644D01*
X874961Y276860D01*
X873760D01*
Y275658D01*
X873976Y275442D01*
X872666Y273734D01*
X871514Y270954D01*
X871121Y267970D01*
X871514Y264986D01*
X872666Y262206D01*
X874498Y259818D01*
X876886Y257986D01*
X879666Y256834D01*
X882650Y256441D01*
X885634Y256834D01*
X888414Y257986D01*
X890802Y259818D01*
X892634Y262206D01*
X893786Y264986D01*
X894179Y267970D01*
X893786Y270954D01*
X892634Y273734D01*
X890802Y276122D01*
X888414Y277954D01*
X885634Y279106D01*
X882650Y279499D01*
D02*
G37*
G36*
X1163320Y288591D02*
X1160368Y288202D01*
X1157616Y287062D01*
X1155254Y285249D01*
X1153441Y282887D01*
X1152301Y280135D01*
X1151912Y277183D01*
X1152301Y274230D01*
X1153441Y271479D01*
X1155254Y269117D01*
X1157616Y267304D01*
X1160368Y266164D01*
X1163320Y265775D01*
X1166273Y266164D01*
X1169024Y267304D01*
X1171386Y269117D01*
X1173199Y271479D01*
X1174339Y274230D01*
X1174728Y277183D01*
X1174339Y280135D01*
X1173199Y282887D01*
X1171386Y285249D01*
X1169024Y287062D01*
X1166273Y288202D01*
X1163320Y288591D01*
D02*
G37*
G36*
X1110294Y265430D02*
X1108710D01*
Y263846D01*
X1109606Y264534D01*
X1110294Y265430D01*
D02*
G37*
G36*
X1096010D02*
X1094426D01*
X1095114Y264534D01*
X1096010Y263846D01*
Y265430D01*
D02*
G37*
G36*
X1256820Y279019D02*
X1253836Y278626D01*
X1251056Y277474D01*
X1248668Y275642D01*
X1246836Y273254D01*
X1245684Y270474D01*
X1245291Y267490D01*
X1245684Y264506D01*
X1246836Y261726D01*
X1248668Y259338D01*
X1251056Y257506D01*
X1253836Y256354D01*
X1256820Y255961D01*
X1259804Y256354D01*
X1262584Y257506D01*
X1264972Y259338D01*
X1266804Y261726D01*
X1267956Y264506D01*
X1268349Y267490D01*
X1267956Y270474D01*
X1266804Y273254D01*
X1264972Y275642D01*
X1262584Y277474D01*
X1259804Y278626D01*
X1256820Y279019D01*
D02*
G37*
G36*
X1226820D02*
X1223836Y278626D01*
X1221056Y277474D01*
X1218668Y275642D01*
X1216836Y273254D01*
X1215684Y270474D01*
X1215291Y267490D01*
X1215684Y264506D01*
X1216836Y261726D01*
X1218668Y259338D01*
X1221056Y257506D01*
X1223836Y256354D01*
X1226820Y255961D01*
X1229804Y256354D01*
X1232584Y257506D01*
X1234972Y259338D01*
X1236804Y261726D01*
X1237956Y264506D01*
X1238349Y267490D01*
X1237956Y270474D01*
X1236804Y273254D01*
X1234972Y275642D01*
X1232584Y277474D01*
X1229804Y278626D01*
X1226820Y279019D01*
D02*
G37*
G36*
X1233170Y245424D02*
Y243840D01*
X1234754D01*
X1234066Y244736D01*
X1233170Y245424D01*
D02*
G37*
G36*
X1220470D02*
X1219574Y244736D01*
X1218886Y243840D01*
X1220470D01*
Y245424D01*
D02*
G37*
G36*
X1174630Y263093D02*
X1152010D01*
Y240473D01*
X1174630D01*
Y263093D01*
D02*
G37*
G36*
X85852Y281543D02*
X81371Y281101D01*
X77062Y279794D01*
X73090Y277671D01*
X69609Y274815D01*
X66753Y271334D01*
X64630Y267362D01*
X63323Y263053D01*
X62881Y258572D01*
X63323Y254091D01*
X64630Y249781D01*
X66753Y245810D01*
X69609Y242329D01*
X73090Y239473D01*
X77062Y237350D01*
X81371Y236043D01*
X85852Y235601D01*
X90333Y236043D01*
X94642Y237350D01*
X98614Y239473D01*
X102095Y242329D01*
X104951Y245810D01*
X107074Y249781D01*
X108381Y254091D01*
X108823Y258572D01*
X108381Y263053D01*
X107074Y267362D01*
X104951Y271334D01*
X102095Y274815D01*
X98614Y277671D01*
X94642Y279794D01*
X90333Y281101D01*
X85852Y281543D01*
D02*
G37*
G36*
X1234754Y231140D02*
X1233170D01*
Y229556D01*
X1234066Y230244D01*
X1234754Y231140D01*
D02*
G37*
G36*
X1220470D02*
X1218886D01*
X1219574Y230244D01*
X1220470Y229556D01*
Y231140D01*
D02*
G37*
G36*
X969330Y248658D02*
X966678Y248309D01*
X964206Y247285D01*
X962084Y245656D01*
X960455Y243534D01*
X959432Y241062D01*
X959082Y238410D01*
X959432Y235758D01*
X960455Y233286D01*
X962084Y231164D01*
X964206Y229535D01*
X966678Y228512D01*
X969330Y228162D01*
X971982Y228512D01*
X974454Y229535D01*
X976576Y231164D01*
X978205Y233286D01*
X979229Y235758D01*
X979578Y238410D01*
X979229Y241062D01*
X978205Y243534D01*
X976576Y245656D01*
X974454Y247285D01*
X971982Y248309D01*
X969330Y248658D01*
D02*
G37*
G36*
X1256820Y249019D02*
X1253836Y248626D01*
X1251056Y247474D01*
X1248668Y245642D01*
X1246836Y243254D01*
X1245684Y240474D01*
X1245291Y237490D01*
X1245684Y234506D01*
X1246836Y231726D01*
X1248668Y229338D01*
X1251056Y227506D01*
X1253836Y226354D01*
X1256820Y225961D01*
X1259804Y226354D01*
X1262584Y227506D01*
X1264972Y229338D01*
X1266804Y231726D01*
X1267956Y234506D01*
X1268349Y237490D01*
X1267956Y240474D01*
X1266804Y243254D01*
X1264972Y245642D01*
X1262584Y247474D01*
X1259804Y248626D01*
X1256820Y249019D01*
D02*
G37*
G36*
X403860Y237578D02*
X401208Y237229D01*
X398736Y236205D01*
X396614Y234576D01*
X394985Y232454D01*
X393961Y229982D01*
X393612Y227330D01*
X393961Y224678D01*
X394985Y222206D01*
X396614Y220084D01*
X398736Y218455D01*
X401208Y217432D01*
X403860Y217082D01*
X406512Y217432D01*
X408984Y218455D01*
X411106Y220084D01*
X412735Y222206D01*
X413759Y224678D01*
X414108Y227330D01*
X413759Y229982D01*
X412735Y232454D01*
X411106Y234576D01*
X408984Y236205D01*
X406512Y237229D01*
X403860Y237578D01*
D02*
G37*
G36*
X300990Y235038D02*
X298338Y234688D01*
X295866Y233665D01*
X293744Y232036D01*
X292115Y229914D01*
X291091Y227442D01*
X290742Y224790D01*
X291091Y222138D01*
X292115Y219666D01*
X293744Y217544D01*
X295866Y215915D01*
X298338Y214891D01*
X300990Y214542D01*
X303642Y214891D01*
X306114Y215915D01*
X308236Y217544D01*
X309865Y219666D01*
X310889Y222138D01*
X311238Y224790D01*
X310889Y227442D01*
X309865Y229914D01*
X308236Y232036D01*
X306114Y233665D01*
X303642Y234688D01*
X300990Y235038D01*
D02*
G37*
G36*
X354330Y232498D02*
X351678Y232148D01*
X349206Y231125D01*
X347084Y229496D01*
X345455Y227374D01*
X344431Y224902D01*
X344082Y222250D01*
X344431Y219598D01*
X345455Y217126D01*
X347084Y215004D01*
X349206Y213375D01*
X351678Y212351D01*
X354330Y212002D01*
X356982Y212351D01*
X359454Y213375D01*
X361576Y215004D01*
X363205Y217126D01*
X364229Y219598D01*
X364578Y222250D01*
X364229Y224902D01*
X363205Y227374D01*
X361576Y229496D01*
X359454Y231125D01*
X356982Y232148D01*
X354330Y232498D01*
D02*
G37*
G36*
X934720Y235049D02*
X931736Y234656D01*
X928956Y233504D01*
X926568Y231672D01*
X924736Y229284D01*
X923584Y226504D01*
X923191Y223520D01*
X923584Y220536D01*
X924736Y217756D01*
X926568Y215368D01*
X928956Y213536D01*
X931736Y212384D01*
X934720Y211991D01*
X937704Y212384D01*
X940484Y213536D01*
X942872Y215368D01*
X944704Y217756D01*
X945856Y220536D01*
X946249Y223520D01*
X945856Y226504D01*
X944704Y229284D01*
X942872Y231672D01*
X940484Y233504D01*
X937704Y234656D01*
X934720Y235049D01*
D02*
G37*
G36*
X179070Y226159D02*
X176086Y225766D01*
X173306Y224614D01*
X170918Y222782D01*
X169086Y220394D01*
X167934Y217614D01*
X167541Y214630D01*
X167934Y211646D01*
X169086Y208866D01*
X170918Y206478D01*
X173306Y204646D01*
X176086Y203494D01*
X179070Y203101D01*
X182054Y203494D01*
X184834Y204646D01*
X187222Y206478D01*
X189054Y208866D01*
X190206Y211646D01*
X190599Y214630D01*
X190206Y217614D01*
X189054Y220394D01*
X187222Y222782D01*
X184834Y224614D01*
X182054Y225766D01*
X179070Y226159D01*
D02*
G37*
G36*
X447040Y222349D02*
X444056Y221956D01*
X441276Y220804D01*
X438888Y218972D01*
X437056Y216584D01*
X435904Y213804D01*
X435511Y210820D01*
X435904Y207836D01*
X437056Y205056D01*
X438888Y202668D01*
X441276Y200836D01*
X444056Y199684D01*
X447040Y199291D01*
X450024Y199684D01*
X452804Y200836D01*
X455192Y202668D01*
X457024Y205056D01*
X458176Y207836D01*
X458569Y210820D01*
X458176Y213804D01*
X457024Y216584D01*
X455192Y218972D01*
X452804Y220804D01*
X450024Y221956D01*
X447040Y222349D01*
D02*
G37*
G36*
X264160D02*
X261176Y221956D01*
X258396Y220804D01*
X256008Y218972D01*
X254176Y216584D01*
X253024Y213804D01*
X252631Y210820D01*
X253024Y207836D01*
X254176Y205056D01*
X256008Y202668D01*
X258396Y200836D01*
X261176Y199684D01*
X264160Y199291D01*
X267144Y199684D01*
X269924Y200836D01*
X272312Y202668D01*
X274144Y205056D01*
X275296Y207836D01*
X275689Y210820D01*
X275296Y213804D01*
X274144Y216584D01*
X272312Y218972D01*
X269924Y220804D01*
X267144Y221956D01*
X264160Y222349D01*
D02*
G37*
G36*
X1266220Y216457D02*
X1263899Y216151D01*
X1261737Y215255D01*
X1259880Y213830D01*
X1258455Y211973D01*
X1257559Y209811D01*
X1257253Y207490D01*
X1257559Y205169D01*
X1258455Y203007D01*
X1259880Y201150D01*
X1261737Y199725D01*
X1263899Y198829D01*
X1266220Y198523D01*
X1268541Y198829D01*
X1270703Y199725D01*
X1272560Y201150D01*
X1273985Y203007D01*
X1274881Y205169D01*
X1275187Y207490D01*
X1274881Y209811D01*
X1273985Y211973D01*
X1272560Y213830D01*
X1270703Y215255D01*
X1268541Y216151D01*
X1266220Y216457D01*
D02*
G37*
G36*
X642620Y204558D02*
X639968Y204209D01*
X637496Y203185D01*
X635374Y201556D01*
X633745Y199434D01*
X632721Y196962D01*
X632372Y194310D01*
X632721Y191658D01*
X633745Y189186D01*
X635374Y187064D01*
X637496Y185435D01*
X639968Y184412D01*
X642620Y184062D01*
X645272Y184412D01*
X647744Y185435D01*
X649866Y187064D01*
X651495Y189186D01*
X652518Y191658D01*
X652868Y194310D01*
X652518Y196962D01*
X651495Y199434D01*
X649866Y201556D01*
X647744Y203185D01*
X645272Y204209D01*
X642620Y204558D01*
D02*
G37*
G36*
X1273810Y183260D02*
Y181840D01*
X1275230D01*
X1274613Y182644D01*
X1273810Y183260D01*
D02*
G37*
G36*
X1261110D02*
X1260306Y182644D01*
X1259690Y181840D01*
X1261110D01*
Y183260D01*
D02*
G37*
G36*
X59690Y232410D02*
Y180340D01*
X158750D01*
Y231140D01*
X62230D01*
X59690Y232410D01*
D02*
G37*
G36*
X756920Y200748D02*
X754268Y200399D01*
X751796Y199375D01*
X749674Y197746D01*
X748045Y195624D01*
X747021Y193152D01*
X746672Y190500D01*
X747021Y187848D01*
X748045Y185376D01*
X749674Y183254D01*
X751796Y181625D01*
X754268Y180602D01*
X756920Y180252D01*
X759572Y180602D01*
X762044Y181625D01*
X764166Y183254D01*
X765795Y185376D01*
X766818Y187848D01*
X767168Y190500D01*
X766818Y193152D01*
X765795Y195624D01*
X764166Y197746D01*
X762044Y199375D01*
X759572Y200399D01*
X756920Y200748D01*
D02*
G37*
G36*
X610870Y199478D02*
X608218Y199128D01*
X605746Y198105D01*
X603624Y196476D01*
X601995Y194354D01*
X600971Y191882D01*
X600622Y189230D01*
X600971Y186578D01*
X601995Y184106D01*
X603624Y181984D01*
X605746Y180355D01*
X608218Y179331D01*
X610870Y178982D01*
X613522Y179331D01*
X615994Y180355D01*
X618116Y181984D01*
X619745Y184106D01*
X620769Y186578D01*
X621118Y189230D01*
X620769Y191882D01*
X619745Y194354D01*
X618116Y196476D01*
X615994Y198105D01*
X613522Y199128D01*
X610870Y199478D01*
D02*
G37*
G36*
X1275230Y169140D02*
X1273810D01*
Y167720D01*
X1274613Y168337D01*
X1275230Y169140D01*
D02*
G37*
G36*
X1261110D02*
X1259690D01*
X1260306Y168337D01*
X1261110Y167720D01*
Y169140D01*
D02*
G37*
G36*
X1222460Y186887D02*
X1219510Y186499D01*
X1216761Y185361D01*
X1214401Y183549D01*
X1212589Y181189D01*
X1211451Y178440D01*
X1211062Y175490D01*
X1211451Y172540D01*
X1212589Y169791D01*
X1214401Y167431D01*
X1216761Y165620D01*
X1219510Y164481D01*
X1222460Y164093D01*
X1225410Y164481D01*
X1228159Y165620D01*
X1230519Y167431D01*
X1232330Y169791D01*
X1233469Y172540D01*
X1233857Y175490D01*
X1233469Y178440D01*
X1232330Y181189D01*
X1230519Y183549D01*
X1228159Y185361D01*
X1225410Y186499D01*
X1222460Y186887D01*
D02*
G37*
G36*
X127508Y151076D02*
X113030D01*
Y142240D01*
X141250D01*
X140135Y144327D01*
X138246Y146628D01*
X135945Y148517D01*
X133320Y149920D01*
X130471Y150784D01*
X127508Y151076D01*
D02*
G37*
G36*
X100330D02*
X85852D01*
X82889Y150784D01*
X80041Y149920D01*
X77415Y148517D01*
X75114Y146628D01*
X73225Y144327D01*
X72110Y142240D01*
X100330D01*
Y151076D01*
D02*
G37*
G36*
X141250Y129540D02*
X113030D01*
Y120704D01*
X127508D01*
X130471Y120996D01*
X133320Y121860D01*
X135945Y123263D01*
X138246Y125152D01*
X140135Y127453D01*
X141250Y129540D01*
D02*
G37*
G36*
X100330D02*
X72110D01*
X73225Y127453D01*
X75114Y125152D01*
X77415Y123263D01*
X80041Y121860D01*
X82889Y120996D01*
X85852Y120704D01*
X100330D01*
Y129540D01*
D02*
G37*
G36*
X1065530Y143609D02*
X1062546Y143216D01*
X1059766Y142064D01*
X1057378Y140232D01*
X1055546Y137844D01*
X1054394Y135064D01*
X1054001Y132080D01*
X1054394Y129096D01*
X1055546Y126316D01*
X1057378Y123928D01*
X1059766Y122096D01*
X1062546Y120944D01*
X1065530Y120551D01*
X1068514Y120944D01*
X1071294Y122096D01*
X1073682Y123928D01*
X1075514Y126316D01*
X1076666Y129096D01*
X1077059Y132080D01*
X1076666Y135064D01*
X1075514Y137844D01*
X1073682Y140232D01*
X1071294Y142064D01*
X1068514Y143216D01*
X1065530Y143609D01*
D02*
G37*
G36*
X770890Y138518D02*
X768238Y138168D01*
X765766Y137145D01*
X763644Y135516D01*
X762015Y133394D01*
X760992Y130922D01*
X760642Y128270D01*
X760992Y125618D01*
X762015Y123146D01*
X763644Y121024D01*
X765766Y119395D01*
X768238Y118371D01*
X770890Y118022D01*
X773542Y118371D01*
X776014Y119395D01*
X778136Y121024D01*
X779765Y123146D01*
X780788Y125618D01*
X781138Y128270D01*
X780788Y130922D01*
X779765Y133394D01*
X778136Y135516D01*
X776014Y137145D01*
X773542Y138168D01*
X770890Y138518D01*
D02*
G37*
G36*
X1273810Y118260D02*
Y116840D01*
X1275230D01*
X1274613Y117643D01*
X1273810Y118260D01*
D02*
G37*
G36*
X1261110D02*
X1260306Y117643D01*
X1259690Y116840D01*
X1261110D01*
Y118260D01*
D02*
G37*
G36*
X847090Y125829D02*
X844106Y125436D01*
X841326Y124284D01*
X838938Y122452D01*
X837106Y120064D01*
X835954Y117284D01*
X835561Y114300D01*
X835954Y111316D01*
X837106Y108536D01*
X838938Y106148D01*
X841326Y104316D01*
X844106Y103164D01*
X847090Y102771D01*
X850074Y103164D01*
X852854Y104316D01*
X855242Y106148D01*
X857074Y108536D01*
X858226Y111316D01*
X858619Y114300D01*
X858226Y117284D01*
X857074Y120064D01*
X855242Y122452D01*
X852854Y124284D01*
X850074Y125436D01*
X847090Y125829D01*
D02*
G37*
G36*
X1275230Y104140D02*
X1273810D01*
Y102720D01*
X1274613Y103336D01*
X1275230Y104140D01*
D02*
G37*
G36*
X1261110D02*
X1259690D01*
X1260306Y103336D01*
X1261110Y102720D01*
Y104140D01*
D02*
G37*
G36*
X1222460Y121888D02*
X1219510Y121499D01*
X1216761Y120360D01*
X1214401Y118549D01*
X1212589Y116189D01*
X1211451Y113440D01*
X1211062Y110490D01*
X1211451Y107540D01*
X1212589Y104791D01*
X1214401Y102431D01*
X1216761Y100619D01*
X1219510Y99481D01*
X1222460Y99093D01*
X1225410Y99481D01*
X1228159Y100619D01*
X1230519Y102431D01*
X1232330Y104791D01*
X1233469Y107540D01*
X1233857Y110490D01*
X1233469Y113440D01*
X1232330Y116189D01*
X1230519Y118549D01*
X1228159Y120360D01*
X1225410Y121499D01*
X1222460Y121888D01*
D02*
G37*
G36*
X1167130Y122019D02*
X1164146Y121626D01*
X1161366Y120474D01*
X1158978Y118642D01*
X1157146Y116254D01*
X1155994Y113474D01*
X1155601Y110490D01*
X1155994Y107506D01*
X1157146Y104726D01*
X1158978Y102338D01*
X1161366Y100506D01*
X1164146Y99354D01*
X1167130Y98961D01*
X1170114Y99354D01*
X1172894Y100506D01*
X1175282Y102338D01*
X1177114Y104726D01*
X1178266Y107506D01*
X1178659Y110490D01*
X1178266Y113474D01*
X1177114Y116254D01*
X1175282Y118642D01*
X1172894Y120474D01*
X1170114Y121626D01*
X1167130Y122019D01*
D02*
G37*
G36*
X1104900Y119479D02*
X1101916Y119086D01*
X1099136Y117934D01*
X1096748Y116102D01*
X1094916Y113714D01*
X1093764Y110934D01*
X1093371Y107950D01*
X1093764Y104966D01*
X1094916Y102186D01*
X1096748Y99798D01*
X1099136Y97966D01*
X1101916Y96814D01*
X1104900Y96421D01*
X1107884Y96814D01*
X1110664Y97966D01*
X1113052Y99798D01*
X1114884Y102186D01*
X1116036Y104966D01*
X1116429Y107950D01*
X1116036Y110934D01*
X1114884Y113714D01*
X1113052Y116102D01*
X1110664Y117934D01*
X1107884Y119086D01*
X1104900Y119479D01*
D02*
G37*
G36*
X620310Y108049D02*
X617326Y107656D01*
X614546Y106504D01*
X612158Y104672D01*
X610326Y102284D01*
X609174Y99504D01*
X608781Y96520D01*
X609174Y93536D01*
X610326Y90756D01*
X612158Y88368D01*
X614546Y86536D01*
X617326Y85384D01*
X620310Y84991D01*
X623294Y85384D01*
X626074Y86536D01*
X628462Y88368D01*
X630294Y90756D01*
X631446Y93536D01*
X631839Y96520D01*
X631446Y99504D01*
X630294Y102284D01*
X628462Y104672D01*
X626074Y106504D01*
X623294Y107656D01*
X620310Y108049D01*
D02*
G37*
G36*
X842512Y101688D02*
X839860Y101339D01*
X837388Y100315D01*
X835266Y98686D01*
X833637Y96564D01*
X832614Y94092D01*
X832264Y91440D01*
X832614Y88788D01*
X833637Y86316D01*
X835266Y84194D01*
X837388Y82565D01*
X839860Y81542D01*
X842512Y81192D01*
X845164Y81542D01*
X847636Y82565D01*
X849758Y84194D01*
X851387Y86316D01*
X852411Y88788D01*
X852760Y91440D01*
X852411Y94092D01*
X851387Y96564D01*
X849758Y98686D01*
X847636Y100315D01*
X845164Y101339D01*
X842512Y101688D01*
D02*
G37*
G36*
X85852Y110855D02*
X81371Y110413D01*
X77062Y109106D01*
X73090Y106983D01*
X69609Y104127D01*
X66753Y100646D01*
X64630Y96674D01*
X63323Y92365D01*
X62881Y87884D01*
X63323Y83403D01*
X64630Y79093D01*
X66753Y75122D01*
X69609Y71641D01*
X73090Y68785D01*
X77062Y66662D01*
X81371Y65355D01*
X85852Y64913D01*
X90333Y65355D01*
X94642Y66662D01*
X98614Y68785D01*
X102095Y71641D01*
X104951Y75122D01*
X107074Y79093D01*
X108381Y83403D01*
X108823Y87884D01*
X108381Y92365D01*
X107074Y96674D01*
X104951Y100646D01*
X102095Y104127D01*
X98614Y106983D01*
X94642Y109106D01*
X90333Y110413D01*
X85852Y110855D01*
D02*
G37*
G36*
X782320Y76288D02*
X779668Y75939D01*
X777196Y74915D01*
X775074Y73286D01*
X773445Y71164D01*
X772421Y68692D01*
X772072Y66040D01*
X772421Y63388D01*
X773445Y60916D01*
X775074Y58794D01*
X777196Y57165D01*
X779668Y56142D01*
X782320Y55792D01*
X784972Y56142D01*
X787444Y57165D01*
X789566Y58794D01*
X791195Y60916D01*
X792218Y63388D01*
X792568Y66040D01*
X792218Y68692D01*
X791195Y71164D01*
X789566Y73286D01*
X787444Y74915D01*
X784972Y75939D01*
X782320Y76288D01*
D02*
G37*
G36*
X118110Y56194D02*
Y54610D01*
X119694D01*
X119006Y55506D01*
X118110Y56194D01*
D02*
G37*
G36*
X105410D02*
X104514Y55506D01*
X103826Y54610D01*
X105410D01*
Y56194D01*
D02*
G37*
G36*
X762411Y66636D02*
X759759Y66287D01*
X757287Y65263D01*
X755165Y63634D01*
X753536Y61512D01*
X752513Y59040D01*
X752163Y56388D01*
X752382Y54728D01*
X751975Y54398D01*
X751182Y54109D01*
X749285Y55565D01*
X746813Y56589D01*
X744161Y56938D01*
X741508Y56589D01*
X739037Y55565D01*
X736915Y53936D01*
X735286Y51814D01*
X734262Y49342D01*
X733913Y46690D01*
X734262Y44038D01*
X735286Y41566D01*
X736915Y39444D01*
X739037Y37815D01*
X741508Y36792D01*
X744161Y36442D01*
X746813Y36792D01*
X749285Y37815D01*
X751407Y39444D01*
X753036Y41566D01*
X754059Y44038D01*
X754408Y46690D01*
X754190Y48350D01*
X754596Y48680D01*
X755389Y48969D01*
X757287Y47513D01*
X759759Y46490D01*
X762411Y46140D01*
X765063Y46490D01*
X767535Y47513D01*
X769657Y49142D01*
X771286Y51264D01*
X772309Y53736D01*
X772659Y56388D01*
X772309Y59040D01*
X771286Y61512D01*
X769657Y63634D01*
X767535Y65263D01*
X765063Y66287D01*
X762411Y66636D01*
D02*
G37*
G36*
X646430Y71208D02*
X643778Y70858D01*
X641306Y69835D01*
X639184Y68206D01*
X637555Y66084D01*
X636531Y63612D01*
X636182Y60960D01*
X636531Y58308D01*
X637555Y55836D01*
X639184Y53714D01*
X641306Y52085D01*
X643778Y51062D01*
X646430Y50712D01*
X649082Y51062D01*
X651554Y52085D01*
X653676Y53714D01*
X655305Y55836D01*
X656329Y58308D01*
X656678Y60960D01*
X656329Y63612D01*
X655305Y66084D01*
X653676Y68206D01*
X651554Y69835D01*
X649082Y70858D01*
X646430Y71208D01*
D02*
G37*
G36*
X119694Y41910D02*
X118110D01*
Y40326D01*
X119006Y41014D01*
X119694Y41910D01*
D02*
G37*
G36*
X105410D02*
X103826D01*
X104514Y41014D01*
X105410Y40326D01*
Y41910D01*
D02*
G37*
G36*
X201930Y57227D02*
X199609Y56921D01*
X197447Y56025D01*
X195590Y54600D01*
X194165Y52743D01*
X193269Y50581D01*
X192963Y48260D01*
X193269Y45939D01*
X194165Y43777D01*
X195590Y41920D01*
X197447Y40495D01*
X199609Y39599D01*
X201930Y39293D01*
X204251Y39599D01*
X206413Y40495D01*
X208270Y41920D01*
X209695Y43777D01*
X210591Y45939D01*
X210897Y48260D01*
X210591Y50581D01*
X209695Y52743D01*
X208270Y54600D01*
X206413Y56025D01*
X204251Y56921D01*
X201930Y57227D01*
D02*
G37*
G36*
X303530Y54687D02*
X301209Y54381D01*
X299047Y53485D01*
X297190Y52060D01*
X295765Y50203D01*
X294869Y48041D01*
X294563Y45720D01*
X294869Y43399D01*
X295765Y41237D01*
X297190Y39380D01*
X299047Y37955D01*
X301209Y37059D01*
X303530Y36753D01*
X305851Y37059D01*
X308013Y37955D01*
X309870Y39380D01*
X311295Y41237D01*
X312191Y43399D01*
X312497Y45720D01*
X312191Y48041D01*
X311295Y50203D01*
X309870Y52060D01*
X308013Y53485D01*
X305851Y54381D01*
X303530Y54687D01*
D02*
G37*
G36*
X574040Y52158D02*
X571388Y51809D01*
X568916Y50785D01*
X566794Y49156D01*
X565165Y47034D01*
X564142Y44562D01*
X563792Y41910D01*
X564142Y39258D01*
X565165Y36786D01*
X566794Y34664D01*
X568916Y33035D01*
X571388Y32011D01*
X574040Y31662D01*
X576692Y32011D01*
X579164Y33035D01*
X581286Y34664D01*
X582915Y36786D01*
X583938Y39258D01*
X584288Y41910D01*
X583938Y44562D01*
X582915Y47034D01*
X581286Y49156D01*
X579164Y50785D01*
X576692Y51809D01*
X574040Y52158D01*
D02*
G37*
G36*
X332740Y49629D02*
X329756Y49236D01*
X326976Y48084D01*
X324588Y46252D01*
X322756Y43864D01*
X321604Y41084D01*
X321211Y38100D01*
X321604Y35116D01*
X322756Y32336D01*
X324588Y29948D01*
X326976Y28116D01*
X329756Y26964D01*
X332740Y26571D01*
X335724Y26964D01*
X338504Y28116D01*
X340892Y29948D01*
X342724Y32336D01*
X343876Y35116D01*
X344269Y38100D01*
X343876Y41084D01*
X342724Y43864D01*
X340892Y46252D01*
X338504Y48084D01*
X335724Y49236D01*
X332740Y49629D01*
D02*
G37*
G36*
X637286Y48573D02*
X634302Y48180D01*
X631522Y47028D01*
X629134Y45196D01*
X627302Y42809D01*
X626150Y40028D01*
X625757Y37044D01*
X626150Y34060D01*
X627302Y31280D01*
X629134Y28892D01*
X631522Y27060D01*
X634302Y25909D01*
X637286Y25516D01*
X640270Y25909D01*
X643050Y27060D01*
X645438Y28892D01*
X647270Y31280D01*
X648422Y34060D01*
X648815Y37044D01*
X648422Y40028D01*
X647270Y42809D01*
X645438Y45196D01*
X643050Y47028D01*
X640270Y48180D01*
X637286Y48573D01*
D02*
G37*
G36*
X866140Y43268D02*
X863488Y42919D01*
X861016Y41895D01*
X858894Y40266D01*
X857265Y38144D01*
X856242Y35672D01*
X855892Y33020D01*
X856242Y30368D01*
X857265Y27896D01*
X858894Y25774D01*
X861016Y24145D01*
X863488Y23122D01*
X866140Y22772D01*
X868792Y23122D01*
X871264Y24145D01*
X873386Y25774D01*
X875015Y27896D01*
X876039Y30368D01*
X876388Y33020D01*
X876039Y35672D01*
X875015Y38144D01*
X873386Y40266D01*
X871264Y41895D01*
X868792Y42919D01*
X866140Y43268D01*
D02*
G37*
G36*
X1271270Y58006D02*
X1267387Y57623D01*
X1263652Y56491D01*
X1260211Y54651D01*
X1257194Y52176D01*
X1254719Y49159D01*
X1252879Y45718D01*
X1251747Y41983D01*
X1251364Y38100D01*
X1251747Y34217D01*
X1252879Y30482D01*
X1254719Y27041D01*
X1257194Y24024D01*
X1260211Y21549D01*
X1263652Y19709D01*
X1267387Y18577D01*
X1271270Y18194D01*
X1275153Y18577D01*
X1278888Y19709D01*
X1282329Y21549D01*
X1285346Y24024D01*
X1287821Y27041D01*
X1289661Y30482D01*
X1290793Y34217D01*
X1291176Y38100D01*
X1290793Y41983D01*
X1289661Y45718D01*
X1287821Y49159D01*
X1285346Y52176D01*
X1282329Y54651D01*
X1278888Y56491D01*
X1275153Y57623D01*
X1271270Y58006D01*
D02*
G37*
G36*
X38100D02*
X34217Y57623D01*
X30482Y56491D01*
X27041Y54651D01*
X24024Y52176D01*
X21549Y49159D01*
X19709Y45718D01*
X18577Y41983D01*
X18194Y38100D01*
X18577Y34217D01*
X19709Y30482D01*
X21549Y27041D01*
X24024Y24024D01*
X27041Y21549D01*
X30482Y19709D01*
X34217Y18577D01*
X38100Y18194D01*
X41983Y18577D01*
X45718Y19709D01*
X49159Y21549D01*
X52176Y24024D01*
X54651Y27041D01*
X56491Y30482D01*
X57623Y34217D01*
X58006Y38100D01*
X57623Y41983D01*
X56491Y45718D01*
X54651Y49159D01*
X52176Y52176D01*
X49159Y54651D01*
X45718Y56491D01*
X41983Y57623D01*
X38100Y58006D01*
D02*
G37*
%LPD*%
G36*
X261194Y540576D02*
X262346Y537796D01*
X264178Y535408D01*
X266566Y533576D01*
X269346Y532424D01*
X272330Y532031D01*
X275314Y532424D01*
X278094Y533576D01*
X278727Y532531D01*
X254878Y508681D01*
X253380Y508979D01*
X252875Y510197D01*
X251450Y512054D01*
X249593Y513479D01*
X248971Y513737D01*
Y515112D01*
X250234Y515635D01*
X252356Y517264D01*
X253985Y519386D01*
X255009Y521858D01*
X255358Y524510D01*
X255009Y527162D01*
X253985Y529634D01*
X253100Y530787D01*
X253429Y532014D01*
X254134Y532306D01*
X256522Y534138D01*
X258354Y536526D01*
X259506Y539306D01*
X259793Y541488D01*
X261074D01*
X261194Y540576D01*
D02*
G37*
G36*
X235902Y520190D02*
X236235Y519386D01*
X237864Y517264D01*
X239986Y515635D01*
X241249Y515112D01*
Y513737D01*
X240627Y513479D01*
X238770Y512054D01*
X237345Y510197D01*
X236449Y508035D01*
X236143Y505714D01*
X236449Y503393D01*
X236830Y502472D01*
X235982Y501202D01*
X217081D01*
X216595Y502376D01*
X234657Y520437D01*
X235902Y520190D01*
D02*
G37*
G36*
X670342Y364384D02*
X672022Y363261D01*
X674004Y362867D01*
X882881D01*
X883113Y362557D01*
X882477Y361287D01*
X536452D01*
X532190Y365549D01*
X532218Y365760D01*
X531869Y368412D01*
X531342Y369684D01*
X532047Y370741D01*
X663985D01*
X670342Y364384D01*
D02*
G37*
G36*
X991176Y351509D02*
X990832Y348900D01*
X991181Y346248D01*
X992205Y343776D01*
X993834Y341654D01*
X995956Y340025D01*
X998428Y339002D01*
X1001080Y338652D01*
X1003732Y339002D01*
X1006204Y340025D01*
X1008326Y341654D01*
X1009955Y343776D01*
X1010978Y346248D01*
X1011146Y347517D01*
X1012407Y347644D01*
X1069912Y290138D01*
X1069572Y287556D01*
X1069798Y285841D01*
X1069539Y285615D01*
X1068597Y285230D01*
X1066741Y286655D01*
X1064269Y287679D01*
X1061617Y288028D01*
X1059061Y287691D01*
X1011111Y335640D01*
X1009431Y336763D01*
X1007449Y337158D01*
X968205D01*
X966488Y338874D01*
X964808Y339997D01*
X962826Y340392D01*
X826382D01*
X824400Y339997D01*
X822719Y338874D01*
X809641Y325796D01*
X808395Y326043D01*
X808079Y326808D01*
X806450Y328930D01*
X804328Y330559D01*
X802237Y331424D01*
X802569Y332662D01*
X802640Y332652D01*
X805292Y333002D01*
X807764Y334025D01*
X809886Y335654D01*
X811515Y337776D01*
X812539Y340248D01*
X812888Y342900D01*
X812539Y345552D01*
X811515Y348024D01*
X810260Y349659D01*
X810878Y350928D01*
X891728D01*
X893710Y351323D01*
X895390Y352445D01*
X903833Y360888D01*
X905100Y360805D01*
X905884Y359784D01*
X908006Y358155D01*
X910478Y357132D01*
X913130Y356782D01*
X915782Y357132D01*
X918254Y358155D01*
X920376Y359784D01*
X922005Y361906D01*
X923028Y364378D01*
X923264Y366169D01*
X931098D01*
X933080Y366563D01*
X934391Y367439D01*
X975247D01*
X991176Y351509D01*
D02*
G37*
G36*
X792741Y340248D02*
X793765Y337776D01*
X795394Y335654D01*
X797516Y334025D01*
X799606Y333159D01*
X799275Y331922D01*
X799204Y331931D01*
X796552Y331582D01*
X794080Y330559D01*
X791958Y328930D01*
X790372Y326863D01*
X757929D01*
X755947Y326469D01*
X754266Y325346D01*
X726200Y297279D01*
X707683D01*
X707298Y298549D01*
X708055Y299055D01*
X749907Y340908D01*
X792655D01*
X792741Y340248D01*
D02*
G37*
G36*
X791958Y314438D02*
X794080Y312809D01*
X794844Y312493D01*
X795092Y311247D01*
X777517Y293672D01*
X776271Y293920D01*
X775955Y294684D01*
X774326Y296806D01*
X772204Y298435D01*
X769732Y299459D01*
X767080Y299808D01*
X764428Y299459D01*
X761956Y298435D01*
X759834Y296806D01*
X758205Y294684D01*
X757181Y292212D01*
X756832Y289560D01*
X757181Y286908D01*
X758205Y284436D01*
X759834Y282314D01*
X761956Y280685D01*
X762720Y280369D01*
X762968Y279123D01*
X710005Y226159D01*
X592859D01*
X592428Y227430D01*
X593260Y228068D01*
X595092Y230456D01*
X596244Y233236D01*
X596637Y236220D01*
X596244Y239204D01*
X595092Y241984D01*
X593260Y244372D01*
X590872Y246204D01*
X588092Y247356D01*
X585108Y247749D01*
X582124Y247356D01*
X579344Y246204D01*
X576956Y244372D01*
X575124Y241984D01*
X573972Y239204D01*
X573579Y236220D01*
X573972Y233236D01*
X575124Y230456D01*
X576956Y228068D01*
X577788Y227430D01*
X577357Y226159D01*
X555865D01*
X550631Y231394D01*
X550316Y233792D01*
X549292Y236264D01*
X547663Y238386D01*
X545541Y240015D01*
X543590Y240823D01*
X543183Y242212D01*
X566621Y265650D01*
X568960Y265342D01*
X571612Y265692D01*
X574084Y266715D01*
X576206Y268344D01*
X577835Y270466D01*
X578080Y271058D01*
X625117D01*
X626851Y271403D01*
X628321Y272385D01*
X653664Y297728D01*
X683390D01*
X684228Y296458D01*
X683521Y294752D01*
X683172Y292100D01*
X683521Y289448D01*
X684545Y286976D01*
X686174Y284854D01*
X688296Y283225D01*
X690768Y282201D01*
X693420Y281852D01*
X696072Y282201D01*
X698544Y283225D01*
X700666Y284854D01*
X702252Y286921D01*
X728345D01*
X730327Y287315D01*
X732008Y288438D01*
X760074Y316504D01*
X790372D01*
X791958Y314438D01*
D02*
G37*
G36*
X558917Y274037D02*
X559062Y272938D01*
X559656Y271503D01*
X470812Y182660D01*
X468473Y182968D01*
X467857Y182887D01*
X467295Y184026D01*
X557714Y274445D01*
X558917Y274037D01*
D02*
G37*
%LPC*%
G36*
X567690Y455930D02*
X566106D01*
X566794Y455034D01*
X567690Y454346D01*
Y455930D01*
D02*
G37*
%LPD*%
D13*
X757929Y321684D02*
X799204D01*
X728345Y292100D02*
X757929Y321684D01*
X712150Y220980D02*
X826382Y335212D01*
X962826D01*
X540417Y231140D02*
X543560D01*
X553720Y220980D01*
X712150D01*
X891728Y356108D02*
X901192Y365572D01*
X534306Y356108D02*
X891728D01*
X878398Y372618D02*
X888304Y382524D01*
X860872Y372618D02*
X878398D01*
X840740Y392750D02*
X860872Y372618D01*
X674004Y368046D02*
X890016D01*
X666130Y375920D02*
X674004Y368046D01*
X890016D02*
X891540Y369570D01*
X901192Y368742D02*
X910402Y377952D01*
X901192Y365572D02*
Y368742D01*
X888304Y382524D02*
X925576D01*
X524654Y365760D02*
X534306Y356108D01*
X716826Y510540D02*
X758396D01*
X877014Y391922D01*
X1040616Y583714D02*
Y756012D01*
X513757Y779187D02*
X515620Y781050D01*
X496081Y769808D02*
X505460Y779187D01*
X513757D01*
X496081Y712278D02*
Y769808D01*
Y712278D02*
X500380Y707979D01*
X466890Y656120D02*
Y795490D01*
X481660Y810260D01*
X452120Y641350D02*
X466890Y656120D01*
X500380Y647700D02*
Y707979D01*
X1069340Y349295D02*
Y732790D01*
Y349295D02*
X1125220Y293415D01*
X711200Y458470D02*
X763270Y406400D01*
X840740D01*
X925576Y382524D02*
X927100Y381000D01*
X877014Y391922D02*
X932368D01*
X946846Y377444D01*
X945424Y396966D02*
X946150Y396240D01*
X945424Y396966D02*
Y436154D01*
X944698Y436880D02*
X945424Y436154D01*
X946846Y377444D02*
X986186D01*
X932368Y372618D02*
X977392D01*
X931098Y371348D02*
X932368Y372618D01*
X977392D02*
X1002030Y347980D01*
X923102Y371348D02*
X931098D01*
X986186Y377444D02*
X1010732Y352898D01*
X917448Y377002D02*
X923102Y371348D01*
X917448Y377002D02*
Y377952D01*
X910402D02*
X917448D01*
X1080740Y286636D02*
X1080770D01*
X1079820Y287556D02*
X1080740Y286636D01*
X966060Y331978D02*
X1007449D01*
X1062567Y276860D01*
X962826Y335212D02*
X966060Y331978D01*
X1014478Y352898D02*
X1079820Y287556D01*
X840740Y392750D02*
Y406400D01*
X521970Y365760D02*
X524654D01*
X504190Y375920D02*
X666130D01*
X1010732Y352898D02*
X1014478D01*
X693420Y292100D02*
X728345D01*
X687508Y189872D02*
X787196Y289560D01*
X814070D01*
X677552Y189872D02*
X687508D01*
X578358Y90678D02*
X677552Y189872D01*
X949570Y322546D02*
X1084580Y187536D01*
Y186690D02*
Y187536D01*
X949570Y322546D02*
Y324640D01*
X1301750Y0D02*
G03*
X1309370Y7620I0J7620D01*
G01*
Y858520D02*
G03*
X1300480Y866140I-8255J-635D01*
G01*
X7620D02*
G03*
X0Y858520I0J-7620D01*
G01*
Y7620D02*
G03*
X7620Y0I7620J0D01*
G01*
X1301750D01*
X1309370Y7620D02*
Y852170D01*
Y858520D01*
X7620Y866140D02*
X1300480D01*
X0Y7620D02*
Y858520D01*
D16*
X728980Y476410D02*
X732630D01*
X769487Y439553D01*
X820339D01*
X876424Y591820D02*
X1040616Y756012D01*
X487680Y793546D02*
X489098Y794964D01*
X516146D01*
X527050Y784060D01*
Y650240D02*
Y784060D01*
X748030Y345440D02*
X802640D01*
X704850Y302260D02*
X748030Y345440D01*
X651786Y302260D02*
X704850D01*
X625117Y275590D02*
X651786Y302260D01*
X568960Y275590D02*
X625117D01*
X872490Y384810D02*
Y387402D01*
X820339Y439553D02*
X872490Y387402D01*
X452120Y177800D02*
X454660D01*
X586740Y309880D01*
X568960Y274398D02*
Y275590D01*
X468473Y173911D02*
X568960Y274398D01*
X468473Y172720D02*
Y173911D01*
D93*
X293370Y461010D02*
X302387Y451993D01*
X287115Y461010D02*
X293370D01*
X302387Y451993D02*
X390867D01*
X457034Y518160D01*
X590550D01*
X246546Y542290D02*
X248370D01*
X205398Y501142D02*
X246546Y542290D01*
X107188Y501142D02*
X205398D01*
X107188D02*
X114173Y494157D01*
X250317D02*
X358140Y601980D01*
X114173Y494157D02*
X250317D01*
D96*
X1178380Y851080D02*
G03*
X1160419Y858520I-17960J-17960D01*
G01*
X747121D02*
G03*
X729161Y851080I0J-25400D01*
G01*
X747121Y858520D02*
X1160419D01*
X1178380Y851080D02*
X1206500Y822960D01*
X693420Y815340D02*
X729161Y851080D01*
D101*
X1271270Y38100D02*
D03*
Y828040D02*
D03*
X38100D02*
D03*
Y38100D02*
D03*
D102*
X1226790Y391470D02*
D03*
X1256790D02*
D03*
X1226790Y361470D02*
D03*
X1256790D02*
D03*
X508000Y584200D02*
D03*
X1084580Y419100D02*
D03*
X1102360Y271780D02*
D03*
X1167130Y110490D02*
D03*
X882650Y267970D02*
D03*
X934720Y223520D02*
D03*
X1103630Y361950D02*
D03*
X1104900Y107950D02*
D03*
X1065530Y132080D02*
D03*
X1256820Y237490D02*
D03*
X1226820D02*
D03*
X1256820Y267490D02*
D03*
X1226820D02*
D03*
X585108Y236220D02*
D03*
X574040Y462280D02*
D03*
X637286Y37044D02*
D03*
X847090Y114300D02*
D03*
X620310Y96520D02*
D03*
X791210Y568960D02*
D03*
X803650Y449840D02*
D03*
X272330Y543560D02*
D03*
X248370Y542290D02*
D03*
X1263650Y590550D02*
D03*
X1267460Y726440D02*
D03*
X1263650Y792480D02*
D03*
X1131570Y820420D02*
D03*
X1129030Y727710D02*
D03*
X1231900Y554990D02*
D03*
X1256030Y532130D02*
D03*
X812800Y760730D02*
D03*
X745490Y840740D02*
D03*
X933450Y831850D02*
D03*
X718820Y842010D02*
D03*
X684530Y760730D02*
D03*
X718820D02*
D03*
X1088390Y775970D02*
D03*
X177800Y844550D02*
D03*
X146050Y763270D02*
D03*
X91440Y842010D02*
D03*
X530860Y810260D02*
D03*
X288290Y764540D02*
D03*
X356870Y836930D02*
D03*
X133350Y740410D02*
D03*
X264160Y210820D02*
D03*
X93980Y595630D02*
D03*
X44450Y344170D02*
D03*
X179070Y214630D02*
D03*
X111760Y48260D02*
D03*
X447040Y210820D02*
D03*
X332740Y38100D02*
D03*
D103*
X680720Y406400D02*
D03*
X1163320Y302583D02*
D03*
Y277183D02*
D03*
X661670Y609600D02*
D03*
X1206500Y822960D02*
D03*
X1181100Y797560D02*
D03*
X1206500D02*
D03*
X1181100Y772160D02*
D03*
X1206500D02*
D03*
X1181100Y746760D02*
D03*
X1206500D02*
D03*
X1181100Y721360D02*
D03*
X1206500D02*
D03*
X1181100Y695960D02*
D03*
X1206500D02*
D03*
X1181100Y670560D02*
D03*
X1206500D02*
D03*
X1181100Y645160D02*
D03*
X1206500D02*
D03*
X693420Y815340D02*
D03*
X718820Y789940D02*
D03*
Y815340D02*
D03*
X744220Y789940D02*
D03*
Y815340D02*
D03*
X769620Y789940D02*
D03*
Y815340D02*
D03*
X795020Y789940D02*
D03*
Y815340D02*
D03*
X820420Y789940D02*
D03*
Y815340D02*
D03*
X845820Y789940D02*
D03*
Y815340D02*
D03*
X871220Y789940D02*
D03*
Y815340D02*
D03*
X116840D02*
D03*
X142240Y789940D02*
D03*
Y815340D02*
D03*
X167640Y789940D02*
D03*
Y815340D02*
D03*
X193040Y789940D02*
D03*
Y815340D02*
D03*
X218440Y789940D02*
D03*
Y815340D02*
D03*
X243840Y789940D02*
D03*
Y815340D02*
D03*
X269240Y789940D02*
D03*
Y815340D02*
D03*
X294640Y789940D02*
D03*
Y815340D02*
D03*
D104*
X680720Y381000D02*
D03*
X1163320Y251783D02*
D03*
X1181100Y822960D02*
D03*
D105*
X1084580Y237490D02*
D03*
X1097280D02*
D03*
X1084580Y224790D02*
D03*
X1097280D02*
D03*
X1084580Y212090D02*
D03*
X1097280D02*
D03*
X1084580Y199390D02*
D03*
X1097280D02*
D03*
X1084580Y186690D02*
D03*
X303530Y45720D02*
D03*
X201930Y48260D02*
D03*
D106*
X1097280Y186690D02*
D03*
D107*
X1267460Y175490D02*
D03*
Y110490D02*
D03*
X1222460Y175490D02*
D03*
Y110490D02*
D03*
D108*
X636270Y609600D02*
D03*
X693420Y789940D02*
D03*
X116840D02*
D03*
D109*
X86360Y378460D02*
D03*
Y549148D02*
D03*
X85852Y87884D02*
D03*
Y258572D02*
D03*
D110*
X107188Y501142D02*
D03*
Y426466D02*
D03*
X106680Y210566D02*
D03*
Y135890D02*
D03*
D111*
X306802Y367862D02*
D03*
X330200Y344170D02*
D03*
X333375Y367330D02*
D03*
X799204Y321684D02*
D03*
X802640Y342900D02*
D03*
X988115Y387440D02*
D03*
X762411Y56388D02*
D03*
X540417Y231140D02*
D03*
X287115Y461010D02*
D03*
X272344Y471320D02*
D03*
X688340Y102515D02*
D03*
X1055524Y703580D02*
D03*
X435610Y299720D02*
D03*
X728980Y476410D02*
D03*
X1184054Y482600D02*
D03*
X891540Y369570D02*
D03*
X716826Y510540D02*
D03*
X1203960Y482600D02*
D03*
X1040616Y583714D02*
D03*
X876424Y591820D02*
D03*
X515620Y781050D02*
D03*
X505733Y765810D02*
D03*
X527050Y650240D02*
D03*
X441550Y788670D02*
D03*
X464820Y391160D02*
D03*
X467360Y408940D02*
D03*
X500380Y647700D02*
D03*
X452120Y641350D02*
D03*
X1069340Y732790D02*
D03*
X487680Y793546D02*
D03*
X1040616Y756012D02*
D03*
X1034790Y773068D02*
D03*
X924560Y483870D02*
D03*
X816610Y508160D02*
D03*
X674370Y433070D02*
D03*
X873760Y382270D02*
D03*
X711200Y458470D02*
D03*
X969010Y388360D02*
D03*
X913130Y367030D02*
D03*
X927100Y381000D02*
D03*
X946150Y396240D02*
D03*
X944698Y436880D02*
D03*
X840740Y406400D02*
D03*
X855980Y391160D02*
D03*
X481660Y810260D02*
D03*
X521970Y365760D02*
D03*
X504190Y375920D02*
D03*
X530860Y440690D02*
D03*
X209550Y566420D02*
D03*
X693420Y292100D02*
D03*
X544830Y213360D02*
D03*
X436273Y79348D02*
D03*
X568960Y275590D02*
D03*
X586740Y309880D02*
D03*
X452120Y177800D02*
D03*
X468473Y172720D02*
D03*
X867410Y283210D02*
D03*
X1187812Y422910D02*
D03*
X982030Y317150D02*
D03*
X948620Y325560D02*
D03*
X989330Y483870D02*
D03*
X814070Y289560D02*
D03*
X1001080Y348900D02*
D03*
X1012510Y404780D02*
D03*
X1109619Y481330D02*
D03*
X982980Y116840D02*
D03*
X1081304Y313340D02*
D03*
X1079820Y287556D02*
D03*
X1061617Y277780D02*
D03*
X1124270Y294335D02*
D03*
X1129350Y313340D02*
D03*
X1103630Y462280D02*
D03*
X1160780Y436880D02*
D03*
X601980Y462280D02*
D03*
Y435610D02*
D03*
X572770D02*
D03*
X1137920Y615950D02*
D03*
X1114450Y636270D02*
D03*
X1137920D02*
D03*
X1114450Y615950D02*
D03*
X892810Y701700D02*
D03*
X872490Y725170D02*
D03*
Y701700D02*
D03*
X892810Y725170D02*
D03*
X646430Y60960D02*
D03*
X610870Y189230D02*
D03*
X300990Y224790D02*
D03*
X866140Y33020D02*
D03*
X770890Y128270D02*
D03*
X756920Y190500D02*
D03*
X842512Y91440D02*
D03*
X744161Y46690D02*
D03*
X782320Y66040D02*
D03*
X767080Y289560D02*
D03*
X574040Y41910D02*
D03*
X556260Y54610D02*
D03*
X578358Y90678D02*
D03*
X642620Y194310D02*
D03*
X386080Y463550D02*
D03*
X245110Y505714D02*
D03*
X343535Y612140D02*
D03*
X358140Y601980D02*
D03*
X590550Y518160D02*
D03*
X245110Y524510D02*
D03*
X399938Y477820D02*
D03*
X508000Y466090D02*
D03*
X391160Y514350D02*
D03*
X337820Y746760D02*
D03*
X317500Y723290D02*
D03*
Y746760D02*
D03*
X337820Y723290D02*
D03*
X403860Y227330D02*
D03*
X354330Y222250D02*
D03*
X396240Y273050D02*
D03*
X969330Y238410D02*
D03*
X975680Y275240D02*
D03*
D112*
X398780Y349296D02*
D03*
X392672Y359310D02*
D03*
X403530D02*
D03*
D113*
X702310Y24130D02*
D03*
X384810Y425147D02*
D03*
X416560Y414020D02*
D03*
X381762D02*
D03*
X411871Y424946D02*
D03*
D114*
X668381Y815340D02*
G03*
X650421Y807900I0J-25400D01*
G01*
X95611Y815340D02*
G03*
X77650Y807900I0J-25400D01*
G01*
X48260Y720090D02*
G03*
X55444Y702746I24528J0D01*
G01*
X668381Y815340D02*
X693420D01*
X618490Y775970D02*
X650421Y807900D01*
X95611Y815340D02*
X116840D01*
X48260Y778510D02*
X77650Y807900D01*
X48260Y720090D02*
Y778510D01*
X55444Y702746D02*
X85090Y673100D01*
X396470D01*
X522200Y547370D01*
X574040Y462280D02*
X618490Y506730D01*
X522200Y547370D02*
X614680D01*
X618490Y506730D02*
Y775970D01*
M02*
