G04*
G04 #@! TF.GenerationSoftware,Altium Limited,Altium Designer,19.1.8 (144)*
G04*
G04 Layer_Color=16711935*
%FSLAX25Y25*%
%MOIN*%
G70*
G01*
G75*
%ADD11C,0.00197*%
%ADD12C,0.01575*%
%ADD13C,0.01000*%
%ADD15C,0.00394*%
%ADD17C,0.00300*%
%ADD115C,0.00000*%
%ADD116C,0.00100*%
%ADD117C,0.00591*%
D11*
X389112Y138852D02*
X386489D01*
X385964Y138327D01*
Y137278D01*
X386489Y136753D01*
X389112D01*
X385964Y135703D02*
Y134654D01*
Y135179D01*
X389112D01*
X388588Y135703D01*
Y133080D02*
X389112Y132555D01*
Y131505D01*
X388588Y130981D01*
X388063D01*
X387538Y131505D01*
Y132030D01*
Y131505D01*
X387013Y130981D01*
X386489D01*
X385964Y131505D01*
Y132555D01*
X386489Y133080D01*
D12*
X402451Y151239D02*
G03*
X402451Y151239I-787J0D01*
G01*
D13*
X512500Y0D02*
G03*
X515500Y3000I0J3000D01*
G01*
Y338000D02*
G03*
X512000Y341000I-3250J-250D01*
G01*
X3000Y341000D02*
G03*
X0Y338000I0J-3000D01*
G01*
Y3000D02*
G03*
X3000Y0I3000J0D01*
G01*
X512500D01*
X515500Y3000D02*
Y335500D01*
Y338000D01*
X3000Y341000D02*
X512000D01*
X0Y3000D02*
Y338000D01*
D15*
X245504Y183272D02*
X252197D01*
X245504Y179728D02*
X252197D01*
X245504D02*
Y183272D01*
X252197Y179728D02*
Y183272D01*
X257157Y164429D02*
Y172697D01*
X251842Y164429D02*
Y172697D01*
X257157D01*
X251842Y164429D02*
X257157D01*
X163303Y24657D02*
X171571D01*
X163303Y19342D02*
X171571D01*
X163303D02*
Y24657D01*
X171571Y19342D02*
Y24657D01*
X404228Y160446D02*
Y167139D01*
X407772Y160446D02*
Y167139D01*
X404228Y160446D02*
X407772D01*
X404228Y167139D02*
X407772D01*
X140847Y20728D02*
Y24272D01*
X134153Y20728D02*
Y24272D01*
Y20728D02*
X140847D01*
X134153Y24272D02*
X140847D01*
X328343Y199866D02*
X333658D01*
X328343Y208134D02*
X333658D01*
X328343Y199866D02*
Y208134D01*
X333658Y199866D02*
Y208134D01*
X213197Y45342D02*
Y50657D01*
X204929Y45342D02*
Y50657D01*
Y45342D02*
X213197D01*
X204929Y50657D02*
X213197D01*
X186846Y48728D02*
Y52272D01*
X180154Y48728D02*
Y52272D01*
Y48728D02*
X186846D01*
X180154Y52272D02*
X186846D01*
X347843Y184071D02*
X353157D01*
X347843Y175803D02*
X353157D01*
Y184071D01*
X347843Y175803D02*
Y184071D01*
X376842Y185071D02*
X382157D01*
X376842Y176803D02*
X382157D01*
Y185071D01*
X376842Y176803D02*
Y185071D01*
X346728Y166496D02*
X350272D01*
X346728Y159803D02*
X350272D01*
Y166496D01*
X346728Y159803D02*
Y166496D01*
X375728Y167996D02*
X379272D01*
X375728Y161303D02*
X379272D01*
Y167996D01*
X375728Y161303D02*
Y167996D01*
X191197Y143847D02*
Y147390D01*
X184504Y143847D02*
Y147390D01*
Y143847D02*
X191197D01*
X184504Y147390D02*
X191197D01*
X198969Y162634D02*
X204283D01*
X198969Y154366D02*
X204283D01*
Y162634D01*
X198969Y154366D02*
Y162634D01*
X406343Y185071D02*
X411657D01*
X406343Y176803D02*
X411657D01*
Y185071D01*
X406343Y176803D02*
Y185071D01*
X330346Y215228D02*
Y218772D01*
X323654Y215228D02*
Y218772D01*
Y215228D02*
X330346D01*
X323654Y218772D02*
X330346D01*
X26346Y115728D02*
Y119272D01*
X19654Y115728D02*
Y119272D01*
Y115728D02*
X26346D01*
X19654Y119272D02*
X26346D01*
X59571Y115842D02*
Y121158D01*
X51303Y115842D02*
Y121158D01*
Y115842D02*
X59571D01*
X51303Y121158D02*
X59571D01*
D17*
X166100Y131057D02*
X162768Y134390D01*
X166100D02*
X162768Y131057D01*
X166100Y132723D02*
X162768D01*
X164434Y134390D02*
Y131057D01*
D115*
X158200Y129450D02*
G03*
X155800Y129450I-1200J0D01*
G01*
X124400Y190677D02*
G03*
X124400Y190677I-300J0D01*
G01*
X131300Y193050D02*
G03*
X133700Y193050I1200J0D01*
G01*
X271800Y33550D02*
G03*
X274200Y33550I1200J0D01*
G01*
X264900Y31177D02*
G03*
X264900Y31177I-300J0D01*
G01*
X281800Y134600D02*
G03*
X281800Y134600I-300J0D01*
G01*
X159300Y225342D02*
G03*
X161700Y225342I1200J0D01*
G01*
X150072Y223000D02*
G03*
X150072Y223000I-300J0D01*
G01*
X276300Y70496D02*
G03*
X276300Y70496I-300J0D01*
G01*
X278343Y60968D02*
G03*
X278343Y58568I0J-1200D01*
G01*
X280658Y57300D02*
G03*
X280658Y59700I0J1200D01*
G01*
X283300Y47772D02*
G03*
X283300Y47772I-300J0D01*
G01*
X149700Y119700D02*
G03*
X149700Y119700I-500J0D01*
G01*
X236646Y224000D02*
G03*
X236646Y224000I-300J0D01*
G01*
D116*
X165850Y131223D02*
Y132423D01*
Y131223D02*
X170000D01*
Y132423D01*
X165850D02*
X170000D01*
X165850Y133782D02*
Y134982D01*
Y133782D02*
X170000D01*
Y134982D01*
X165850D02*
X170000D01*
X165850Y136341D02*
Y137541D01*
Y136341D02*
X170000D01*
Y137541D01*
X165850D02*
X170000D01*
X165850Y138900D02*
Y140100D01*
Y138900D02*
X170000D01*
Y140100D01*
X165850D02*
X170000D01*
X165850Y141459D02*
Y142659D01*
Y141459D02*
X170000D01*
Y142659D01*
X165850D02*
X170000D01*
X165850Y144018D02*
Y145218D01*
Y144018D02*
X170000D01*
Y145218D01*
X165850D02*
X170000D01*
X165850Y146577D02*
Y147777D01*
Y146577D02*
X170000D01*
Y147777D01*
X165850D02*
X170000D01*
X148150Y146577D02*
Y147777D01*
X144000D02*
X148150D01*
X144000Y146577D02*
Y147777D01*
Y146577D02*
X148150D01*
Y144018D02*
Y145218D01*
X144000D02*
X148150D01*
X144000Y144018D02*
Y145218D01*
Y144018D02*
X148150D01*
Y141459D02*
Y142659D01*
X144000D02*
X148150D01*
X144000Y141459D02*
Y142659D01*
Y141459D02*
X148150D01*
Y138900D02*
Y140100D01*
X144000D02*
X148150D01*
X144000Y138900D02*
Y140100D01*
Y138900D02*
X148150D01*
Y136341D02*
Y137541D01*
X144000D02*
X148150D01*
X144000Y136341D02*
Y137541D01*
Y136341D02*
X148150D01*
Y133782D02*
Y134982D01*
X144000D02*
X148150D01*
X144000Y133782D02*
Y134982D01*
Y133782D02*
X148150D01*
Y131223D02*
Y132423D01*
X144000D02*
X148150D01*
X144000Y131223D02*
Y132423D01*
Y131223D02*
X148150D01*
Y149550D02*
X165850D01*
X148150Y129450D02*
Y149550D01*
Y129450D02*
X165850D01*
Y149550D01*
X123650Y190077D02*
Y191277D01*
X119900D02*
X123650D01*
X119900Y190077D02*
Y191277D01*
Y190077D02*
X123650D01*
Y187518D02*
Y188718D01*
X119900D02*
X123650D01*
X119900Y187518D02*
Y188718D01*
Y187518D02*
X123650D01*
Y184959D02*
Y186159D01*
X119900D02*
X123650D01*
X119900Y184959D02*
Y186159D01*
Y184959D02*
X123650D01*
Y182400D02*
Y183600D01*
X119900D02*
X123650D01*
X119900Y182400D02*
Y183600D01*
Y182400D02*
X123650D01*
Y179841D02*
Y181041D01*
X119900D02*
X123650D01*
X119900Y179841D02*
Y181041D01*
Y179841D02*
X123650D01*
Y177282D02*
Y178482D01*
X119900D02*
X123650D01*
X119900Y177282D02*
Y178482D01*
Y177282D02*
X123650D01*
Y174723D02*
Y175923D01*
X119900D02*
X123650D01*
X119900Y174723D02*
Y175923D01*
Y174723D02*
X123650D01*
X141350Y174723D02*
Y175923D01*
Y174723D02*
X145100D01*
Y175923D01*
X141350D02*
X145100D01*
X141350Y177282D02*
Y178482D01*
Y177282D02*
X145100D01*
Y178482D01*
X141350D02*
X145100D01*
X141350Y179841D02*
Y181041D01*
Y179841D02*
X145100D01*
Y181041D01*
X141350D02*
X145100D01*
X141350Y182400D02*
Y183600D01*
Y182400D02*
X145100D01*
Y183600D01*
X141350D02*
X145100D01*
X141350Y184959D02*
Y186159D01*
Y184959D02*
X145100D01*
Y186159D01*
X141350D02*
X145100D01*
X141350Y187518D02*
Y188718D01*
Y187518D02*
X145100D01*
Y188718D01*
X141350D02*
X145100D01*
X141350Y190077D02*
Y191277D01*
Y190077D02*
X145100D01*
Y191277D01*
X141350D02*
X145100D01*
X123650Y172950D02*
X141350D01*
Y193050D01*
X123650D02*
X141350D01*
X123650Y172950D02*
Y193050D01*
X264150Y13450D02*
Y33550D01*
X281850D01*
Y13450D02*
Y33550D01*
X264150Y13450D02*
X281850D01*
Y31777D02*
X285600D01*
Y30577D02*
Y31777D01*
X281850Y30577D02*
X285600D01*
X281850D02*
Y31777D01*
Y29218D02*
X285600D01*
Y28018D02*
Y29218D01*
X281850Y28018D02*
X285600D01*
X281850D02*
Y29218D01*
Y26659D02*
X285600D01*
Y25459D02*
Y26659D01*
X281850Y25459D02*
X285600D01*
X281850D02*
Y26659D01*
Y24100D02*
X285600D01*
Y22900D02*
Y24100D01*
X281850Y22900D02*
X285600D01*
X281850D02*
Y24100D01*
Y21541D02*
X285600D01*
Y20341D02*
Y21541D01*
X281850Y20341D02*
X285600D01*
X281850D02*
Y21541D01*
Y18982D02*
X285600D01*
Y17782D02*
Y18982D01*
X281850Y17782D02*
X285600D01*
X281850D02*
Y18982D01*
Y16423D02*
X285600D01*
Y15223D02*
Y16423D01*
X281850Y15223D02*
X285600D01*
X281850D02*
Y16423D01*
X260400Y15223D02*
X264150D01*
X260400D02*
Y16423D01*
X264150D01*
Y15223D02*
Y16423D01*
X260400Y17782D02*
X264150D01*
X260400D02*
Y18982D01*
X264150D01*
Y17782D02*
Y18982D01*
X260400Y20341D02*
X264150D01*
X260400D02*
Y21541D01*
X264150D01*
Y20341D02*
Y21541D01*
X260400Y22900D02*
X264150D01*
X260400D02*
Y24100D01*
X264150D01*
Y22900D02*
Y24100D01*
X260400Y25459D02*
X264150D01*
X260400D02*
Y26659D01*
X264150D01*
Y25459D02*
Y26659D01*
X260400Y28018D02*
X264150D01*
X260400D02*
Y29218D01*
X264150D01*
Y28018D02*
Y29218D01*
X260400Y30577D02*
X264150D01*
X260400D02*
Y31777D01*
X264150D01*
Y30577D02*
Y31777D01*
X348765Y136138D02*
Y140862D01*
X346205D02*
X348765D01*
X346205Y136138D02*
Y140862D01*
Y136138D02*
X348765D01*
X351520D02*
Y140862D01*
Y136138D02*
X354080D01*
Y140862D01*
X351520D02*
X354080D01*
X346205Y136138D02*
X354080D01*
Y140862D01*
X346205D02*
X354080D01*
X346205Y136138D02*
Y140862D01*
X412638Y83979D02*
X417362D01*
X412638Y81420D02*
Y83979D01*
Y81420D02*
X417362D01*
Y83979D01*
X412638Y86735D02*
X417362D01*
Y89294D01*
X412638D02*
X417362D01*
X412638Y86735D02*
Y89294D01*
X417362Y81420D02*
Y89294D01*
X412638D02*
X417362D01*
X412638Y81420D02*
Y89294D01*
Y81420D02*
X417362D01*
X428979Y57138D02*
Y61862D01*
X426420D02*
X428979D01*
X426420Y57138D02*
Y61862D01*
Y57138D02*
X428979D01*
X431735D02*
Y61862D01*
Y57138D02*
X434295D01*
Y61862D01*
X431735D02*
X434295D01*
X426420Y57138D02*
X434295D01*
Y61862D01*
X426420D02*
X434295D01*
X426420Y57138D02*
Y61862D01*
X466638Y110363D02*
X471362D01*
Y112922D01*
X466638D02*
X471362D01*
X466638Y110363D02*
Y112922D01*
Y107607D02*
X471362D01*
X466638Y105048D02*
Y107607D01*
Y105048D02*
X471362D01*
Y107607D01*
X466638Y105048D02*
Y112922D01*
Y105048D02*
X471362D01*
Y112922D01*
X466638D02*
X471362D01*
X414638Y165021D02*
X419362D01*
Y167579D01*
X414638D02*
X419362D01*
X414638Y165021D02*
Y167579D01*
Y162265D02*
X419362D01*
X414638Y159705D02*
Y162265D01*
Y159705D02*
X419362D01*
Y162265D01*
X414638Y159705D02*
Y167579D01*
Y159705D02*
X419362D01*
Y167579D01*
X414638D02*
X419362D01*
X387495Y164735D02*
X392220D01*
Y167295D01*
X387495D02*
X392220D01*
X387495Y164735D02*
Y167295D01*
Y161979D02*
X392220D01*
X387495Y159421D02*
Y161979D01*
Y159421D02*
X392220D01*
Y161979D01*
X387495Y159421D02*
Y167295D01*
Y159421D02*
X392220D01*
Y167295D01*
X387495D02*
X392220D01*
X358638Y164235D02*
X363362D01*
Y166795D01*
X358638D02*
X363362D01*
X358638Y164235D02*
Y166795D01*
Y161479D02*
X363362D01*
X358638Y158921D02*
Y161479D01*
Y158921D02*
X363362D01*
Y161479D01*
X358638Y158921D02*
Y166795D01*
Y158921D02*
X363362D01*
Y166795D01*
X358638D02*
X363362D01*
X465638Y65235D02*
X470362D01*
Y67795D01*
X465638D02*
X470362D01*
X465638Y65235D02*
Y67795D01*
Y62480D02*
X470362D01*
X465638Y59921D02*
Y62480D01*
Y59921D02*
X470362D01*
Y62480D01*
X465638Y59921D02*
Y67795D01*
Y59921D02*
X470362D01*
Y67795D01*
X465638D02*
X470362D01*
X281235Y36138D02*
Y40862D01*
Y36138D02*
X283794D01*
Y40862D01*
X281235D02*
X283794D01*
X278480Y36138D02*
Y40862D01*
X275921D02*
X278480D01*
X275921Y36138D02*
Y40862D01*
Y36138D02*
X278480D01*
X275921Y40862D02*
X283794D01*
X275921Y36138D02*
Y40862D01*
Y36138D02*
X283794D01*
Y40862D01*
X140235Y199638D02*
Y204362D01*
Y199638D02*
X142795D01*
Y204362D01*
X140235D02*
X142795D01*
X137479Y199638D02*
Y204362D01*
X134921D02*
X137479D01*
X134921Y199638D02*
Y204362D01*
Y199638D02*
X137479D01*
X134921Y204362D02*
X142795D01*
X134921Y199638D02*
Y204362D01*
Y199638D02*
X142795D01*
Y204362D01*
X302021Y156138D02*
Y160862D01*
Y156138D02*
X304579D01*
Y160862D01*
X302021D02*
X304579D01*
X299265Y156138D02*
Y160862D01*
X296706D02*
X299265D01*
X296706Y156138D02*
Y160862D01*
Y156138D02*
X299265D01*
X296706Y160862D02*
X304579D01*
X296706Y156138D02*
Y160862D01*
Y156138D02*
X304579D01*
Y160862D01*
X301520Y147638D02*
Y152362D01*
Y147638D02*
X304080D01*
Y152362D01*
X301520D02*
X304080D01*
X298765Y147638D02*
Y152362D01*
X296205D02*
X298765D01*
X296205Y147638D02*
Y152362D01*
Y147638D02*
X298765D01*
X296205Y152362D02*
X304080D01*
X296205Y147638D02*
Y152362D01*
Y147638D02*
X304080D01*
Y152362D01*
X254950Y136600D02*
X308050D01*
Y81900D02*
Y136600D01*
X254950Y81900D02*
X308050D01*
X254950D02*
Y136600D01*
X232622Y106138D02*
Y110862D01*
X230063D02*
X232622D01*
X230063Y106138D02*
Y110862D01*
Y106138D02*
X232622D01*
X235378D02*
Y110862D01*
Y106138D02*
X237937D01*
Y110862D01*
X235378D02*
X237937D01*
X230063Y106138D02*
X237937D01*
Y110862D01*
X230063D02*
X237937D01*
X230063Y106138D02*
Y110862D01*
X225377Y112638D02*
Y117362D01*
X222818D02*
X225377D01*
X222818Y112638D02*
Y117362D01*
Y112638D02*
X225377D01*
X228133D02*
Y117362D01*
Y112638D02*
X230692D01*
Y117362D01*
X228133D02*
X230692D01*
X222818Y112638D02*
X230692D01*
Y117362D01*
X222818D02*
X230692D01*
X222818Y112638D02*
Y117362D01*
X228378Y99138D02*
Y103862D01*
Y99138D02*
X230937D01*
Y103862D01*
X228378D02*
X230937D01*
X225622Y99138D02*
Y103862D01*
X223063D02*
X225622D01*
X223063Y99138D02*
Y103862D01*
Y99138D02*
X225622D01*
X223063Y103862D02*
X230937D01*
X223063Y99138D02*
Y103862D01*
Y99138D02*
X230937D01*
Y103862D01*
X219235Y151033D02*
Y155758D01*
Y151033D02*
X221795D01*
Y155758D01*
X219235D02*
X221795D01*
X216479Y151033D02*
Y155758D01*
X213920D02*
X216479D01*
X213920Y151033D02*
Y155758D01*
Y151033D02*
X216479D01*
X213920Y155758D02*
X221795D01*
X213920Y151033D02*
Y155758D01*
Y151033D02*
X221795D01*
Y155758D01*
X220520Y127138D02*
Y131862D01*
Y127138D02*
X223079D01*
Y131862D01*
X220520D02*
X223079D01*
X217765Y127138D02*
Y131862D01*
X215206D02*
X217765D01*
X215206Y127138D02*
Y131862D01*
Y127138D02*
X217765D01*
X215206Y131862D02*
X223079D01*
X215206Y127138D02*
Y131862D01*
Y127138D02*
X223079D01*
Y131862D01*
X239479Y14521D02*
Y19245D01*
X236920D02*
X239479D01*
X236920Y14521D02*
Y19245D01*
Y14521D02*
X239479D01*
X242235D02*
Y19245D01*
Y14521D02*
X244795D01*
Y19245D01*
X242235D02*
X244795D01*
X236920Y14521D02*
X244795D01*
Y19245D01*
X236920D02*
X244795D01*
X236920Y14521D02*
Y19245D01*
X326122Y19138D02*
Y23862D01*
X323563D02*
X326122D01*
X323563Y19138D02*
Y23862D01*
Y19138D02*
X326122D01*
X328878D02*
Y23862D01*
Y19138D02*
X331437D01*
Y23862D01*
X328878D02*
X331437D01*
X323563Y19138D02*
X331437D01*
Y23862D01*
X323563D02*
X331437D01*
X323563Y19138D02*
Y23862D01*
X310122Y11138D02*
Y15862D01*
X307563D02*
X310122D01*
X307563Y11138D02*
Y15862D01*
Y11138D02*
X310122D01*
X312878D02*
Y15862D01*
Y11138D02*
X315437D01*
Y15862D01*
X312878D02*
X315437D01*
X307563Y11138D02*
X315437D01*
Y15862D01*
X307563D02*
X315437D01*
X307563Y11138D02*
Y15862D01*
X149083Y205658D02*
Y225342D01*
X171917D01*
Y205658D02*
Y225342D01*
X258658Y48351D02*
X278343D01*
Y71185D01*
X258658D02*
X278343D01*
X280658Y47083D02*
X300342D01*
X280658D02*
Y69917D01*
X300342D01*
X277735Y184138D02*
Y188862D01*
Y184138D02*
X280294D01*
Y188862D01*
X277735D02*
X280294D01*
X274979Y184138D02*
Y188862D01*
X272421D02*
X274979D01*
X272421Y184138D02*
Y188862D01*
Y184138D02*
X274979D01*
X272421Y188862D02*
X280294D01*
X272421Y184138D02*
Y188862D01*
Y184138D02*
X280294D01*
Y188862D01*
X291133Y175638D02*
Y180362D01*
Y175638D02*
X293692D01*
Y180362D01*
X291133D02*
X293692D01*
X288377Y175638D02*
Y180362D01*
X285818D02*
X288377D01*
X285818Y175638D02*
Y180362D01*
Y175638D02*
X288377D01*
X285818Y180362D02*
X293692D01*
X285818Y175638D02*
Y180362D01*
Y175638D02*
X293692D01*
Y180362D01*
X285020Y192138D02*
Y196862D01*
X282461D02*
X285020D01*
X282461Y192138D02*
Y196862D01*
Y192138D02*
X285020D01*
X287776D02*
Y196862D01*
Y192138D02*
X290335D01*
Y196862D01*
X287776D02*
X290335D01*
X282461Y192138D02*
X290335D01*
Y196862D01*
X282461D02*
X290335D01*
X282461Y192138D02*
Y196862D01*
X279035Y211878D02*
X283760D01*
Y214437D01*
X279035D02*
X283760D01*
X279035Y211878D02*
Y214437D01*
Y209122D02*
X283760D01*
X279035Y206563D02*
Y209122D01*
Y206563D02*
X283760D01*
Y209122D01*
X279035Y206563D02*
Y214437D01*
Y206563D02*
X283760D01*
Y214437D01*
X279035D02*
X283760D01*
X300035Y211735D02*
X304760D01*
Y214295D01*
X300035D02*
X304760D01*
X300035Y211735D02*
Y214295D01*
Y208980D02*
X304760D01*
X300035Y206420D02*
Y208980D01*
Y206420D02*
X304760D01*
Y208980D01*
X300035Y206420D02*
Y214295D01*
Y206420D02*
X304760D01*
Y214295D01*
X300035D02*
X304760D01*
X256638Y211235D02*
X261362D01*
Y213794D01*
X256638D02*
X261362D01*
X256638Y211235D02*
Y213794D01*
Y208479D02*
X261362D01*
X256638Y205921D02*
Y208479D01*
Y205921D02*
X261362D01*
Y208479D01*
X256638Y205921D02*
Y213794D01*
Y205921D02*
X261362D01*
Y213794D01*
X256638D02*
X261362D01*
X241138Y208479D02*
X245862D01*
X241138Y205921D02*
Y208479D01*
Y205921D02*
X245862D01*
Y208479D01*
X241138Y211235D02*
X245862D01*
Y213794D01*
X241138D02*
X245862D01*
X241138Y211235D02*
Y213794D01*
X245862Y205921D02*
Y213794D01*
X241138D02*
X245862D01*
X241138Y205921D02*
Y213794D01*
Y205921D02*
X245862D01*
X166917Y174178D02*
Y178902D01*
X164357D02*
X166917D01*
X164357Y174178D02*
Y178902D01*
Y174178D02*
X166917D01*
X169672D02*
Y178902D01*
Y174178D02*
X172231D01*
Y178902D01*
X169672D02*
X172231D01*
X164357Y174178D02*
X172231D01*
Y178902D01*
X164357D02*
X172231D01*
X164357Y174178D02*
Y178902D01*
X112378Y171638D02*
Y176362D01*
Y171638D02*
X114937D01*
Y176362D01*
X112378D02*
X114937D01*
X109622Y171638D02*
Y176362D01*
X107063D02*
X109622D01*
X107063Y171638D02*
Y176362D01*
Y171638D02*
X109622D01*
X107063Y176362D02*
X114937D01*
X107063Y171638D02*
Y176362D01*
Y171638D02*
X114937D01*
Y176362D01*
X105765Y189138D02*
Y193862D01*
X103206D02*
X105765D01*
X103206Y189138D02*
Y193862D01*
Y189138D02*
X105765D01*
X108520D02*
Y193862D01*
Y189138D02*
X111080D01*
Y193862D01*
X108520D02*
X111080D01*
X103206Y189138D02*
X111080D01*
Y193862D01*
X103206D02*
X111080D01*
X103206Y189138D02*
Y193862D01*
X469622Y179638D02*
Y184362D01*
X467063D02*
X469622D01*
X467063Y179638D02*
Y184362D01*
Y179638D02*
X469622D01*
X472378D02*
Y184362D01*
Y179638D02*
X474937D01*
Y184362D01*
X472378D02*
X474937D01*
X467063Y179638D02*
X474937D01*
Y184362D01*
X467063D02*
X474937D01*
X467063Y179638D02*
Y184362D01*
X482122Y187638D02*
Y192362D01*
X479563D02*
X482122D01*
X479563Y187638D02*
Y192362D01*
Y187638D02*
X482122D01*
X484878D02*
Y192362D01*
Y187638D02*
X487437D01*
Y192362D01*
X484878D02*
X487437D01*
X479563Y187638D02*
X487437D01*
Y192362D01*
X479563D02*
X487437D01*
X479563Y187638D02*
Y192362D01*
X472378Y171138D02*
Y175862D01*
Y171138D02*
X474937D01*
Y175862D01*
X472378D02*
X474937D01*
X469622Y171138D02*
Y175862D01*
X467063D02*
X469622D01*
X467063Y171138D02*
Y175862D01*
Y171138D02*
X469622D01*
X467063Y175862D02*
X474937D01*
X467063Y171138D02*
Y175862D01*
Y171138D02*
X474937D01*
Y175862D01*
X463496Y215378D02*
X468221D01*
Y217937D01*
X463496D02*
X468221D01*
X463496Y215378D02*
Y217937D01*
Y212622D02*
X468221D01*
X463496Y210063D02*
Y212622D01*
Y210063D02*
X468221D01*
Y212622D01*
X463496Y210063D02*
Y217937D01*
Y210063D02*
X468221D01*
Y217937D01*
X463496D02*
X468221D01*
X438138Y214078D02*
X442862D01*
Y216637D01*
X438138D02*
X442862D01*
X438138Y214078D02*
Y216637D01*
Y211322D02*
X442862D01*
X438138Y208763D02*
Y211322D01*
Y208763D02*
X442862D01*
Y211322D01*
X438138Y208763D02*
Y216637D01*
Y208763D02*
X442862D01*
Y216637D01*
X438138D02*
X442862D01*
X407138Y313622D02*
X411862D01*
X407138Y311063D02*
Y313622D01*
Y311063D02*
X411862D01*
Y313622D01*
X407138Y316378D02*
X411862D01*
Y318937D01*
X407138D02*
X411862D01*
X407138Y316378D02*
Y318937D01*
X411862Y311063D02*
Y318937D01*
X407138D02*
X411862D01*
X407138Y311063D02*
Y318937D01*
Y311063D02*
X411862D01*
X398638Y299122D02*
X403362D01*
X398638Y296563D02*
Y299122D01*
Y296563D02*
X403362D01*
Y299122D01*
X398638Y301878D02*
X403362D01*
Y304437D01*
X398638D02*
X403362D01*
X398638Y301878D02*
Y304437D01*
X403362Y296563D02*
Y304437D01*
X398638D02*
X403362D01*
X398638Y296563D02*
Y304437D01*
Y296563D02*
X403362D01*
X416138Y302378D02*
X420862D01*
Y304937D01*
X416138D02*
X420862D01*
X416138Y302378D02*
Y304937D01*
Y299622D02*
X420862D01*
X416138Y297063D02*
Y299622D01*
Y297063D02*
X420862D01*
Y299622D01*
X416138Y297063D02*
Y304937D01*
Y297063D02*
X420862D01*
Y304937D01*
X416138D02*
X420862D01*
X378979Y297638D02*
Y302362D01*
X376420D02*
X378979D01*
X376420Y297638D02*
Y302362D01*
Y297638D02*
X378979D01*
X381735D02*
Y302362D01*
Y297638D02*
X384295D01*
Y302362D01*
X381735D02*
X384295D01*
X376420Y297638D02*
X384295D01*
Y302362D01*
X376420D02*
X384295D01*
X376420Y297638D02*
Y302362D01*
X378979Y271138D02*
Y275862D01*
X376420D02*
X378979D01*
X376420Y271138D02*
Y275862D01*
Y271138D02*
X378979D01*
X381735D02*
Y275862D01*
Y271138D02*
X384295D01*
Y275862D01*
X381735D02*
X384295D01*
X376420Y271138D02*
X384295D01*
Y275862D01*
X376420D02*
X384295D01*
X376420Y271138D02*
Y275862D01*
X191138Y327765D02*
X195862D01*
X191138Y325205D02*
Y327765D01*
Y325205D02*
X195862D01*
Y327765D01*
X191138Y330521D02*
X195862D01*
Y333080D01*
X191138D02*
X195862D01*
X191138Y330521D02*
Y333080D01*
X195862Y325205D02*
Y333080D01*
X191138D02*
X195862D01*
X191138Y325205D02*
Y333080D01*
Y325205D02*
X195862D01*
X181138Y314479D02*
X185862D01*
X181138Y311920D02*
Y314479D01*
Y311920D02*
X185862D01*
Y314479D01*
X181138Y317235D02*
X185862D01*
Y319795D01*
X181138D02*
X185862D01*
X181138Y317235D02*
Y319795D01*
X185862Y311920D02*
Y319795D01*
X181138D02*
X185862D01*
X181138Y311920D02*
Y319795D01*
Y311920D02*
X185862D01*
X196638Y317235D02*
X201362D01*
Y319795D01*
X196638D02*
X201362D01*
X196638Y317235D02*
Y319795D01*
Y314479D02*
X201362D01*
X196638Y311920D02*
Y314479D01*
Y311920D02*
X201362D01*
Y314479D01*
X196638Y311920D02*
Y319795D01*
Y311920D02*
X201362D01*
Y319795D01*
X196638D02*
X201362D01*
X160265Y310638D02*
Y315362D01*
X157705D02*
X160265D01*
X157705Y310638D02*
Y315362D01*
Y310638D02*
X160265D01*
X163021D02*
Y315362D01*
Y310638D02*
X165579D01*
Y315362D01*
X163021D02*
X165579D01*
X157705Y310638D02*
X165579D01*
Y315362D01*
X157705D02*
X165579D01*
X157705Y310638D02*
Y315362D01*
X160765Y285638D02*
Y290362D01*
X158205D02*
X160765D01*
X158205Y285638D02*
Y290362D01*
Y285638D02*
X160765D01*
X163521D02*
Y290362D01*
Y285638D02*
X166079D01*
Y290362D01*
X163521D02*
X166079D01*
X158205Y285638D02*
X166079D01*
Y290362D01*
X158205D02*
X166079D01*
X158205Y285638D02*
Y290362D01*
X148200Y114900D02*
Y118200D01*
X141150D02*
X148200D01*
X141150Y114900D02*
X148200D01*
Y105850D02*
Y109150D01*
X141150D02*
X148200D01*
X141150Y105850D02*
X148200D01*
Y96800D02*
Y100100D01*
X141150D02*
X148200D01*
X141150Y96800D02*
X148200D01*
X162800Y101300D02*
Y113700D01*
Y101300D02*
X169850D01*
Y113700D01*
X162800D02*
X169850D01*
X148200Y94300D02*
Y120700D01*
Y94300D02*
X162800D01*
Y120700D01*
X148200D02*
X162800D01*
X179759Y119660D02*
Y124385D01*
X177200D02*
X179759D01*
X177200Y119660D02*
Y124385D01*
Y119660D02*
X179759D01*
X182515D02*
Y124385D01*
Y119660D02*
X185074D01*
Y124385D01*
X182515D02*
X185074D01*
X177200Y119660D02*
X185074D01*
Y124385D01*
X177200D02*
X185074D01*
X177200Y119660D02*
Y124385D01*
X179759Y134579D02*
Y139303D01*
X177200D02*
X179759D01*
X177200Y134579D02*
Y139303D01*
Y134579D02*
X179759D01*
X182515D02*
Y139303D01*
Y134579D02*
X185074D01*
Y139303D01*
X182515D02*
X185074D01*
X177200Y134579D02*
X185074D01*
Y139303D01*
X177200D02*
X185074D01*
X177200Y134579D02*
Y139303D01*
X179974Y128161D02*
Y132885D01*
X177415D02*
X179974D01*
X177415Y128161D02*
Y132885D01*
Y128161D02*
X179974D01*
X182730D02*
Y132885D01*
Y128161D02*
X185289D01*
Y132885D01*
X182730D02*
X185289D01*
X177415Y128161D02*
X185289D01*
Y132885D01*
X177415D02*
X185289D01*
X177415Y128161D02*
Y132885D01*
X135765Y71638D02*
Y76362D01*
X133205D02*
X135765D01*
X133205Y71638D02*
Y76362D01*
Y71638D02*
X135765D01*
X138521D02*
Y76362D01*
Y71638D02*
X141079D01*
Y76362D01*
X138521D02*
X141079D01*
X133205Y71638D02*
X141079D01*
Y76362D01*
X133205D02*
X141079D01*
X133205Y71638D02*
Y76362D01*
X135265Y48638D02*
Y53362D01*
X132705D02*
X135265D01*
X132705Y48638D02*
Y53362D01*
Y48638D02*
X135265D01*
X138021D02*
Y53362D01*
Y48638D02*
X140579D01*
Y53362D01*
X138021D02*
X140579D01*
X132705Y48638D02*
X140579D01*
Y53362D01*
X132705D02*
X140579D01*
X132705Y48638D02*
Y53362D01*
X184878Y55638D02*
Y60362D01*
Y55638D02*
X187437D01*
Y60362D01*
X184878D02*
X187437D01*
X182122Y55638D02*
Y60362D01*
X179563D02*
X182122D01*
X179563Y55638D02*
Y60362D01*
Y55638D02*
X182122D01*
X179563Y60362D02*
X187437D01*
X179563Y55638D02*
Y60362D01*
Y55638D02*
X187437D01*
Y60362D01*
X184122Y75138D02*
Y79862D01*
X181563D02*
X184122D01*
X181563Y75138D02*
Y79862D01*
Y75138D02*
X184122D01*
X186878D02*
Y79862D01*
Y75138D02*
X189437D01*
Y79862D01*
X186878D02*
X189437D01*
X181563Y75138D02*
X189437D01*
Y79862D01*
X181563D02*
X189437D01*
X181563Y75138D02*
Y79862D01*
X193265Y65638D02*
Y70362D01*
X190706D02*
X193265D01*
X190706Y65638D02*
Y70362D01*
Y65638D02*
X193265D01*
X196020D02*
Y70362D01*
Y65638D02*
X198580D01*
Y70362D01*
X196020D02*
X198580D01*
X190706Y65638D02*
X198580D01*
Y70362D01*
X190706D02*
X198580D01*
X190706Y65638D02*
Y70362D01*
X238346Y197450D02*
Y250550D01*
X183645Y197450D02*
X238346D01*
X183645D02*
Y250550D01*
X238346D01*
D117*
X366882Y143134D02*
X406646D01*
X366882Y103370D02*
Y143134D01*
Y103370D02*
X406646D01*
Y143134D01*
M02*
