M48
;Layer_Color=9474304
;FILE_FORMAT=2:5
INCH,LZ
;TYPE=PLATED
T1F00S00C0.01000
T2F00S00C0.01500
T3F00S00C0.02500
T4F00S00C0.02800
T5F00S00C0.03200
T6F00S00C0.03543
T7F00S00C0.03898
T9F00S00C0.04000
T10F00S00C0.11800
T11F00S00C0.12598
;TYPE=NON_PLATED
T12F00S00C0.04000
%
T01
X02765Y00095
X0157Y0137518
X015887Y0141461
X0154595
X01503Y0163
X01515Y016738
T02
X0164Y0163
X0162154Y0167302
T03
X00795Y0019
X01195Y0018
T04
X0387Y0046
X0381626Y0093862
X0384126Y0108362
X0386626Y0124862
X0394126Y0137362
X0389022Y0152535
X03815Y0152898
X0398626Y0159362
X042571Y0123362
X0425126Y0113211
X0417959Y0109362
X0427Y00935
X0432
Y00885
X0427
Y00835
X0432
Y00785
X0427
Y00735
X0432
X0442626Y011588
X0444626Y0123362
X0467642Y01665
X03725Y0156
X0365Y015
X03595Y01445
X0351Y01455
X0344Y01505
X0337Y0154
X0331Y016
X0316Y0135
X0314647Y0126647
X03205Y0114
X0302
X0273Y0115
X0231Y0122
X0224Y01085
X02405Y00745
X0253Y00765
X0298Y0075
X03035Y00505
X0308Y0026
X0300162Y00222
X0292977Y0018382
X0271Y004036
X02545Y0024
X0226Y00165
X0219Y00215
X02277Y00357
X0331698Y0036
X0341Y0013
X03415Y01115
X0373472Y0128173
X02055Y0144
X01985Y0148
X0183Y0154
X0184Y0161
X01715Y0118
X0156Y01075
X0159Y00895
X01395Y00875
X01185Y00885
X013Y01355
X013125Y0144618
X0120788Y0144827
X0178Y007
X0184438Y0068
X02145Y0084
X0212763Y0091
X0171761Y0031239
X0152Y01825
X0157456Y0188118
X0154Y02025
X0141Y0237
X013525Y0241
X0133Y028476
X0125
Y0294
X0133
X0173839Y03105
X0192Y031242
X018963Y0319
X0203Y03075
X0199108Y03015
X0197Y0255
X02075Y0256
X0178Y02525
X02Y01835
X0209Y01735
X0113037Y01815
X0107222Y0185559
X00965Y01991
Y02065
X00825Y0223
X02325Y0204
X0237Y0182
Y01715
X02255
X02655Y01705
X028Y01805
X0287Y0187563
X0282215Y0201
X03215Y0200063
X0364Y01905
X0371928Y0172
X0345049Y0233
X03435Y027626
X03515
Y02855
X03435
X0409691Y0297642
X0407398Y0304358
X0421Y02885
X041556Y0277
X043876Y02505
Y02425
X0448
Y02505
X0409691Y0229809
X03895Y01905
X0436858Y01895
X04345Y0182
X0457Y0172
X0466163Y019
X0474
T05
X04195Y0052
X0435Y00425
X04595Y00435
X0434Y0107
X04345Y01425
X0427Y0165
X0368Y0088
X03475Y01055
X03335Y0045
X0244216Y0038
X02509Y0014584
X0230358Y0093
X0176Y0083
X0104
X00705Y00845
X0131Y0015
X0044Y0019
X00175Y01355
X0037Y02345
X00525Y02915
X00575Y03005
X01135Y0301
X0107217Y0214
X0097783Y02135
X02Y023
X0209Y0319
X02695Y02995
X0283
X032
X03115Y0224
X0316398Y0177102
X0226Y0182
X0485Y02185
X04945Y02095
X04975Y02325
X0499Y0286
X04975Y0312
X04455Y0323
X04285Y03055
X04445Y02865
X03675Y03275
X02935Y0331
X0283Y03315
X01405Y03295
X007Y03325
X0036Y03315
T06
X0458Y0099127
Y0109127
Y0119127
X0268Y015
Y016
X0056Y0311
X0046
Y0321
X0056
X0066
Y0311
X0076
Y0321
X0086
Y0311
X0096
Y0321
X0106
Y0311
X0116
Y0321
X0273
Y0311
X0283
Y0321
X0293
Y0311
X0303
Y0321
X0313
Y0311
X0323
Y0321
X0333
Y0311
X0343
Y0321
X02605Y024
X02505
X0465Y0254
Y0264
Y0274
Y0284
Y0294
Y0304
Y0314
Y0324
X0475
Y0314
Y0304
Y0294
Y0284
Y0274
Y0264
Y0254
T07
X0481284Y00435
X0499
Y0069091
X0481284
T09
X0483Y00935
X0494811
Y0105311
X0483
X0482988Y0142311
Y0154122
X0494799
Y0142311
T10
X00338Y00346
Y01018
X0034Y0149
Y02162
T11
X05005Y0015
X0015
X05005Y0326
X0015
T12
X0498512Y0081689
Y0117122
X04985Y01305
Y0165933
M30
