G04*
G04 #@! TF.GenerationSoftware,Altium Limited,Altium Designer,19.1.8 (144)*
G04*
G04 Layer_Physical_Order=3*
G04 Layer_Color=16440176*
%FSLAX25Y25*%
%MOIN*%
G70*
G01*
G75*
%ADD13C,0.01000*%
%ADD93C,0.02500*%
%ADD102C,0.06000*%
%ADD106R,0.04000X0.04000*%
%ADD111C,0.05000*%
G36*
X512784Y339888D02*
X513220Y339708D01*
X513612Y339446D01*
X513779Y339279D01*
X513779Y339279D01*
X513946Y339112D01*
X514208Y338720D01*
X514388Y338284D01*
X514480Y337822D01*
X514480Y337586D01*
X514480Y3414D01*
X514480Y3178D01*
X514388Y2716D01*
X514208Y2280D01*
X513946Y1888D01*
X513779Y1721D01*
X513779Y1721D01*
X513612Y1554D01*
X513220Y1292D01*
X512784Y1112D01*
X512322Y1020D01*
X512086Y1020D01*
X3414D01*
X3178Y1020D01*
X2716Y1112D01*
X2280Y1292D01*
X1888Y1554D01*
X1721Y1721D01*
X1721Y1721D01*
X1554Y1888D01*
X1292Y2280D01*
X1112Y2716D01*
X1020Y3178D01*
Y3414D01*
Y337586D01*
X1020Y337586D01*
X1020Y337586D01*
X1020Y337608D01*
X1410Y338087D01*
X511929Y338087D01*
X512392Y338087D01*
X513091D01*
X513511Y338087D01*
X513792Y338087D01*
X513511Y338087D01*
X512978Y338268D01*
X512978Y338268D01*
X512562Y338587D01*
X512288Y338974D01*
X512217Y339079D01*
X512110Y339480D01*
X512203Y339700D01*
X512593Y339927D01*
X512784Y339888D01*
D02*
G37*
%LPC*%
G36*
X70000Y337039D02*
X68825Y336884D01*
X67731Y336431D01*
X66791Y335709D01*
X66069Y334769D01*
X65616Y333675D01*
X65461Y332500D01*
X65616Y331325D01*
X66069Y330231D01*
X66791Y329291D01*
X67731Y328569D01*
X68825Y328116D01*
X70000Y327961D01*
X71175Y328116D01*
X72269Y328569D01*
X73209Y329291D01*
X73931Y330231D01*
X74384Y331325D01*
X74539Y332500D01*
X74384Y333675D01*
X73931Y334769D01*
X73209Y335709D01*
X72269Y336431D01*
X71175Y336884D01*
X70000Y337039D01*
D02*
G37*
G36*
X283000Y336039D02*
X281825Y335884D01*
X280731Y335431D01*
X279791Y334709D01*
X279069Y333769D01*
X278616Y332675D01*
X278461Y331500D01*
X278616Y330325D01*
X279069Y329231D01*
X279791Y328291D01*
X280731Y327569D01*
X281825Y327116D01*
X283000Y326961D01*
X284175Y327116D01*
X285269Y327569D01*
X286209Y328291D01*
X286931Y329231D01*
X287384Y330325D01*
X287539Y331500D01*
X287384Y332675D01*
X286931Y333769D01*
X286209Y334709D01*
X285269Y335431D01*
X284175Y335884D01*
X283000Y336039D01*
D02*
G37*
G36*
X36000D02*
X34825Y335884D01*
X33731Y335431D01*
X32791Y334709D01*
X32069Y333769D01*
X31616Y332675D01*
X31461Y331500D01*
X31616Y330325D01*
X32069Y329231D01*
X32791Y328291D01*
X33731Y327569D01*
X34825Y327116D01*
X36000Y326961D01*
X37175Y327116D01*
X38269Y327569D01*
X39209Y328291D01*
X39931Y329231D01*
X40384Y330325D01*
X40539Y331500D01*
X40384Y332675D01*
X39931Y333769D01*
X39209Y334709D01*
X38269Y335431D01*
X37175Y335884D01*
X36000Y336039D01*
D02*
G37*
G36*
X293500Y335539D02*
X292325Y335384D01*
X291231Y334931D01*
X290291Y334209D01*
X289569Y333269D01*
X289116Y332175D01*
X288961Y331000D01*
X289116Y329825D01*
X289569Y328731D01*
X290291Y327791D01*
X291231Y327069D01*
X292325Y326616D01*
X293500Y326461D01*
X294675Y326616D01*
X295769Y327069D01*
X296709Y327791D01*
X297431Y328731D01*
X297884Y329825D01*
X298039Y331000D01*
X297884Y332175D01*
X297431Y333269D01*
X296709Y334209D01*
X295769Y334931D01*
X294675Y335384D01*
X293500Y335539D01*
D02*
G37*
G36*
X140500Y334039D02*
X139325Y333884D01*
X138231Y333431D01*
X137291Y332709D01*
X136569Y331769D01*
X136116Y330675D01*
X135961Y329500D01*
X136116Y328325D01*
X136569Y327231D01*
X137291Y326291D01*
X138231Y325569D01*
X139325Y325116D01*
X140500Y324961D01*
X141675Y325116D01*
X142769Y325569D01*
X143709Y326291D01*
X144431Y327231D01*
X144884Y328325D01*
X145039Y329500D01*
X144884Y330675D01*
X144431Y331769D01*
X143709Y332709D01*
X142769Y333431D01*
X141675Y333884D01*
X140500Y334039D01*
D02*
G37*
G36*
X367500Y332039D02*
X366325Y331884D01*
X365231Y331431D01*
X364291Y330709D01*
X363569Y329769D01*
X363116Y328675D01*
X362961Y327500D01*
X363116Y326325D01*
X363569Y325231D01*
X364291Y324291D01*
X365231Y323569D01*
X366325Y323116D01*
X367500Y322961D01*
X368675Y323116D01*
X369769Y323569D01*
X370709Y324291D01*
X371431Y325231D01*
X371884Y326325D01*
X372039Y327500D01*
X371884Y328675D01*
X371431Y329769D01*
X370709Y330709D01*
X369769Y331431D01*
X368675Y331884D01*
X367500Y332039D01*
D02*
G37*
G36*
X211500Y322124D02*
Y321500D01*
X212124D01*
X211853Y321853D01*
X211500Y322124D01*
D02*
G37*
G36*
X206500D02*
X206147Y321853D01*
X205876Y321500D01*
X206500D01*
Y322124D01*
D02*
G37*
G36*
X469453Y328453D02*
X460547D01*
Y319547D01*
X469453D01*
Y328453D01*
D02*
G37*
G36*
X475000Y328491D02*
X473838Y328338D01*
X472754Y327889D01*
X471824Y327176D01*
X471110Y326246D01*
X470662Y325162D01*
X470509Y324000D01*
X470662Y322838D01*
X471110Y321754D01*
X471824Y320824D01*
X472754Y320111D01*
X473838Y319662D01*
X475000Y319509D01*
X476162Y319662D01*
X477246Y320111D01*
X478176Y320824D01*
X478890Y321754D01*
X479338Y322838D01*
X479491Y324000D01*
X479338Y325162D01*
X478890Y326246D01*
X478176Y327176D01*
X477246Y327889D01*
X476162Y328338D01*
X475000Y328491D01*
D02*
G37*
G36*
X445500Y327539D02*
X444325Y327384D01*
X443231Y326931D01*
X442291Y326209D01*
X441569Y325269D01*
X441116Y324175D01*
X440961Y323000D01*
X441116Y321825D01*
X441569Y320731D01*
X442291Y319791D01*
X443231Y319069D01*
X444325Y318616D01*
X445500Y318461D01*
X446675Y318616D01*
X447769Y319069D01*
X448709Y319791D01*
X449431Y320731D01*
X449884Y321825D01*
X450039Y323000D01*
X449884Y324175D01*
X449431Y325269D01*
X448709Y326209D01*
X447769Y326931D01*
X446675Y327384D01*
X445500Y327539D01*
D02*
G37*
G36*
X500500Y333837D02*
X498971Y333686D01*
X497501Y333240D01*
X496146Y332516D01*
X494958Y331542D01*
X493984Y330354D01*
X493260Y328999D01*
X492814Y327529D01*
X492663Y326000D01*
X492814Y324471D01*
X493260Y323001D01*
X493984Y321646D01*
X494958Y320458D01*
X496146Y319484D01*
X497501Y318760D01*
X498971Y318314D01*
X500500Y318163D01*
X502029Y318314D01*
X503499Y318760D01*
X504854Y319484D01*
X506042Y320458D01*
X507016Y321646D01*
X507740Y323001D01*
X508186Y324471D01*
X508337Y326000D01*
X508186Y327529D01*
X507740Y328999D01*
X507016Y330354D01*
X506042Y331542D01*
X504854Y332516D01*
X503499Y333240D01*
X502029Y333686D01*
X500500Y333837D01*
D02*
G37*
G36*
X15000D02*
X13471Y333686D01*
X12001Y333240D01*
X10646Y332516D01*
X9458Y331542D01*
X8484Y330354D01*
X7760Y328999D01*
X7314Y327529D01*
X7163Y326000D01*
X7314Y324471D01*
X7760Y323001D01*
X8484Y321646D01*
X9458Y320458D01*
X10646Y319484D01*
X12001Y318760D01*
X13471Y318314D01*
X15000Y318163D01*
X16529Y318314D01*
X17999Y318760D01*
X19354Y319484D01*
X20542Y320458D01*
X21516Y321646D01*
X22240Y323001D01*
X22686Y324471D01*
X22837Y326000D01*
X22686Y327529D01*
X22240Y328999D01*
X21516Y330354D01*
X20542Y331542D01*
X19354Y332516D01*
X17999Y333240D01*
X16529Y333686D01*
X15000Y333837D01*
D02*
G37*
G36*
X343000Y325491D02*
X341838Y325338D01*
X340754Y324889D01*
X339824Y324176D01*
X339110Y323246D01*
X338662Y322162D01*
X338509Y321000D01*
X338662Y319838D01*
X339110Y318754D01*
X339824Y317824D01*
X340754Y317110D01*
X341838Y316662D01*
X343000Y316509D01*
X344162Y316662D01*
X345246Y317110D01*
X346176Y317824D01*
X346889Y318754D01*
X347338Y319838D01*
X347491Y321000D01*
X347338Y322162D01*
X346889Y323246D01*
X346176Y324176D01*
X345246Y324889D01*
X344162Y325338D01*
X343000Y325491D01*
D02*
G37*
G36*
X333000D02*
X331838Y325338D01*
X330754Y324889D01*
X329824Y324176D01*
X329111Y323246D01*
X328662Y322162D01*
X328509Y321000D01*
X328662Y319838D01*
X329111Y318754D01*
X329824Y317824D01*
X330754Y317110D01*
X331838Y316662D01*
X333000Y316509D01*
X334162Y316662D01*
X335246Y317110D01*
X336176Y317824D01*
X336890Y318754D01*
X337338Y319838D01*
X337491Y321000D01*
X337338Y322162D01*
X336890Y323246D01*
X336176Y324176D01*
X335246Y324889D01*
X334162Y325338D01*
X333000Y325491D01*
D02*
G37*
G36*
X323000D02*
X321838Y325338D01*
X320754Y324889D01*
X319824Y324176D01*
X319110Y323246D01*
X318662Y322162D01*
X318509Y321000D01*
X318662Y319838D01*
X319110Y318754D01*
X319824Y317824D01*
X320754Y317110D01*
X321838Y316662D01*
X323000Y316509D01*
X324162Y316662D01*
X325246Y317110D01*
X326176Y317824D01*
X326889Y318754D01*
X327338Y319838D01*
X327491Y321000D01*
X327338Y322162D01*
X326889Y323246D01*
X326176Y324176D01*
X325246Y324889D01*
X324162Y325338D01*
X323000Y325491D01*
D02*
G37*
G36*
X313000D02*
X311838Y325338D01*
X310754Y324889D01*
X309824Y324176D01*
X309110Y323246D01*
X308662Y322162D01*
X308509Y321000D01*
X308662Y319838D01*
X309110Y318754D01*
X309824Y317824D01*
X310754Y317110D01*
X311838Y316662D01*
X313000Y316509D01*
X314162Y316662D01*
X315246Y317110D01*
X316176Y317824D01*
X316890Y318754D01*
X317338Y319838D01*
X317491Y321000D01*
X317338Y322162D01*
X316890Y323246D01*
X316176Y324176D01*
X315246Y324889D01*
X314162Y325338D01*
X313000Y325491D01*
D02*
G37*
G36*
X303000D02*
X301838Y325338D01*
X300754Y324889D01*
X299824Y324176D01*
X299111Y323246D01*
X298662Y322162D01*
X298509Y321000D01*
X298662Y319838D01*
X299111Y318754D01*
X299824Y317824D01*
X300754Y317110D01*
X301838Y316662D01*
X303000Y316509D01*
X304162Y316662D01*
X305246Y317110D01*
X306176Y317824D01*
X306890Y318754D01*
X307338Y319838D01*
X307491Y321000D01*
X307338Y322162D01*
X306890Y323246D01*
X306176Y324176D01*
X305246Y324889D01*
X304162Y325338D01*
X303000Y325491D01*
D02*
G37*
G36*
X293000D02*
X291838Y325338D01*
X290754Y324889D01*
X289824Y324176D01*
X289110Y323246D01*
X288662Y322162D01*
X288509Y321000D01*
X288662Y319838D01*
X289110Y318754D01*
X289824Y317824D01*
X290754Y317110D01*
X291838Y316662D01*
X293000Y316509D01*
X294162Y316662D01*
X295246Y317110D01*
X296176Y317824D01*
X296889Y318754D01*
X297338Y319838D01*
X297491Y321000D01*
X297338Y322162D01*
X296889Y323246D01*
X296176Y324176D01*
X295246Y324889D01*
X294162Y325338D01*
X293000Y325491D01*
D02*
G37*
G36*
X283000D02*
X281838Y325338D01*
X280754Y324889D01*
X279824Y324176D01*
X279111Y323246D01*
X278662Y322162D01*
X278509Y321000D01*
X278662Y319838D01*
X279111Y318754D01*
X279824Y317824D01*
X280754Y317110D01*
X281838Y316662D01*
X283000Y316509D01*
X284162Y316662D01*
X285246Y317110D01*
X286176Y317824D01*
X286890Y318754D01*
X287338Y319838D01*
X287491Y321000D01*
X287338Y322162D01*
X286890Y323246D01*
X286176Y324176D01*
X285246Y324889D01*
X284162Y325338D01*
X283000Y325491D01*
D02*
G37*
G36*
X273000D02*
X271838Y325338D01*
X270754Y324889D01*
X269824Y324176D01*
X269110Y323246D01*
X268662Y322162D01*
X268509Y321000D01*
X268662Y319838D01*
X269110Y318754D01*
X269824Y317824D01*
X270754Y317110D01*
X271838Y316662D01*
X273000Y316509D01*
X274162Y316662D01*
X275246Y317110D01*
X276176Y317824D01*
X276889Y318754D01*
X277338Y319838D01*
X277491Y321000D01*
X277338Y322162D01*
X276889Y323246D01*
X276176Y324176D01*
X275246Y324889D01*
X274162Y325338D01*
X273000Y325491D01*
D02*
G37*
G36*
X116000D02*
X114838Y325338D01*
X113754Y324889D01*
X112824Y324176D01*
X112110Y323246D01*
X111662Y322162D01*
X111509Y321000D01*
X111662Y319838D01*
X112110Y318754D01*
X112824Y317824D01*
X113754Y317110D01*
X114838Y316662D01*
X116000Y316509D01*
X117162Y316662D01*
X118246Y317110D01*
X119176Y317824D01*
X119889Y318754D01*
X120338Y319838D01*
X120491Y321000D01*
X120338Y322162D01*
X119889Y323246D01*
X119176Y324176D01*
X118246Y324889D01*
X117162Y325338D01*
X116000Y325491D01*
D02*
G37*
G36*
X106000D02*
X104838Y325338D01*
X103754Y324889D01*
X102824Y324176D01*
X102111Y323246D01*
X101662Y322162D01*
X101509Y321000D01*
X101662Y319838D01*
X102111Y318754D01*
X102824Y317824D01*
X103754Y317110D01*
X104838Y316662D01*
X106000Y316509D01*
X107162Y316662D01*
X108246Y317110D01*
X109176Y317824D01*
X109889Y318754D01*
X110338Y319838D01*
X110491Y321000D01*
X110338Y322162D01*
X109889Y323246D01*
X109176Y324176D01*
X108246Y324889D01*
X107162Y325338D01*
X106000Y325491D01*
D02*
G37*
G36*
X96000D02*
X94838Y325338D01*
X93754Y324889D01*
X92824Y324176D01*
X92111Y323246D01*
X91662Y322162D01*
X91509Y321000D01*
X91662Y319838D01*
X92111Y318754D01*
X92824Y317824D01*
X93754Y317110D01*
X94838Y316662D01*
X96000Y316509D01*
X97162Y316662D01*
X98246Y317110D01*
X99176Y317824D01*
X99889Y318754D01*
X100338Y319838D01*
X100491Y321000D01*
X100338Y322162D01*
X99889Y323246D01*
X99176Y324176D01*
X98246Y324889D01*
X97162Y325338D01*
X96000Y325491D01*
D02*
G37*
G36*
X86000D02*
X84838Y325338D01*
X83754Y324889D01*
X82824Y324176D01*
X82111Y323246D01*
X81662Y322162D01*
X81509Y321000D01*
X81662Y319838D01*
X82111Y318754D01*
X82824Y317824D01*
X83754Y317110D01*
X84838Y316662D01*
X86000Y316509D01*
X87162Y316662D01*
X88246Y317110D01*
X89176Y317824D01*
X89890Y318754D01*
X90338Y319838D01*
X90491Y321000D01*
X90338Y322162D01*
X89890Y323246D01*
X89176Y324176D01*
X88246Y324889D01*
X87162Y325338D01*
X86000Y325491D01*
D02*
G37*
G36*
X76000D02*
X74838Y325338D01*
X73754Y324889D01*
X72824Y324176D01*
X72110Y323246D01*
X71662Y322162D01*
X71509Y321000D01*
X71662Y319838D01*
X72110Y318754D01*
X72824Y317824D01*
X73754Y317110D01*
X74838Y316662D01*
X76000Y316509D01*
X77162Y316662D01*
X78246Y317110D01*
X79176Y317824D01*
X79890Y318754D01*
X80338Y319838D01*
X80491Y321000D01*
X80338Y322162D01*
X79890Y323246D01*
X79176Y324176D01*
X78246Y324889D01*
X77162Y325338D01*
X76000Y325491D01*
D02*
G37*
G36*
X66000D02*
X64838Y325338D01*
X63754Y324889D01*
X62824Y324176D01*
X62111Y323246D01*
X61662Y322162D01*
X61509Y321000D01*
X61662Y319838D01*
X62111Y318754D01*
X62824Y317824D01*
X63754Y317110D01*
X64838Y316662D01*
X66000Y316509D01*
X67162Y316662D01*
X68246Y317110D01*
X69176Y317824D01*
X69889Y318754D01*
X70338Y319838D01*
X70491Y321000D01*
X70338Y322162D01*
X69889Y323246D01*
X69176Y324176D01*
X68246Y324889D01*
X67162Y325338D01*
X66000Y325491D01*
D02*
G37*
G36*
X56000D02*
X54838Y325338D01*
X53754Y324889D01*
X52824Y324176D01*
X52110Y323246D01*
X51662Y322162D01*
X51509Y321000D01*
X51662Y319838D01*
X52110Y318754D01*
X52824Y317824D01*
X53754Y317110D01*
X54838Y316662D01*
X56000Y316509D01*
X57162Y316662D01*
X58246Y317110D01*
X59176Y317824D01*
X59890Y318754D01*
X60338Y319838D01*
X60491Y321000D01*
X60338Y322162D01*
X59890Y323246D01*
X59176Y324176D01*
X58246Y324889D01*
X57162Y325338D01*
X56000Y325491D01*
D02*
G37*
G36*
X46000D02*
X44838Y325338D01*
X43754Y324889D01*
X42824Y324176D01*
X42110Y323246D01*
X41662Y322162D01*
X41509Y321000D01*
X41662Y319838D01*
X42110Y318754D01*
X42824Y317824D01*
X43754Y317110D01*
X44838Y316662D01*
X46000Y316509D01*
X47162Y316662D01*
X48246Y317110D01*
X49176Y317824D01*
X49889Y318754D01*
X50338Y319838D01*
X50491Y321000D01*
X50338Y322162D01*
X49889Y323246D01*
X49176Y324176D01*
X48246Y324889D01*
X47162Y325338D01*
X46000Y325491D01*
D02*
G37*
G36*
X212124Y316500D02*
X211500D01*
Y315876D01*
X211853Y316147D01*
X212124Y316500D01*
D02*
G37*
G36*
X206500D02*
X205876D01*
X206147Y316147D01*
X206500Y315876D01*
Y316500D01*
D02*
G37*
G36*
X475000Y318491D02*
X473838Y318338D01*
X472754Y317889D01*
X471824Y317176D01*
X471110Y316246D01*
X470662Y315162D01*
X470509Y314000D01*
X470662Y312838D01*
X471110Y311754D01*
X471824Y310824D01*
X472754Y310110D01*
X473838Y309662D01*
X475000Y309509D01*
X476162Y309662D01*
X477246Y310110D01*
X478176Y310824D01*
X478890Y311754D01*
X479338Y312838D01*
X479491Y314000D01*
X479338Y315162D01*
X478890Y316246D01*
X478176Y317176D01*
X477246Y317889D01*
X476162Y318338D01*
X475000Y318491D01*
D02*
G37*
G36*
X465000D02*
X463838Y318338D01*
X462754Y317889D01*
X461824Y317176D01*
X461110Y316246D01*
X460662Y315162D01*
X460509Y314000D01*
X460662Y312838D01*
X461110Y311754D01*
X461824Y310824D01*
X462754Y310110D01*
X463838Y309662D01*
X465000Y309509D01*
X466162Y309662D01*
X467246Y310110D01*
X468176Y310824D01*
X468890Y311754D01*
X469338Y312838D01*
X469491Y314000D01*
X469338Y315162D01*
X468890Y316246D01*
X468176Y317176D01*
X467246Y317889D01*
X466162Y318338D01*
X465000Y318491D01*
D02*
G37*
G36*
X189630Y323035D02*
X188585Y322897D01*
X187612Y322494D01*
X186777Y321853D01*
X186136Y321017D01*
X185733Y320044D01*
X185595Y319000D01*
X185733Y317956D01*
X186136Y316983D01*
X186777Y316147D01*
X187612Y315506D01*
X188435Y315165D01*
X188663Y314641D01*
X188506Y314437D01*
X188103Y313464D01*
X187966Y312420D01*
X188103Y311375D01*
X188506Y310402D01*
X189147Y309567D01*
X189983Y308926D01*
X190956Y308523D01*
X192000Y308385D01*
X193044Y308523D01*
X194017Y308926D01*
X194853Y309567D01*
X195494Y310402D01*
X195897Y311375D01*
X196035Y312420D01*
X195897Y313464D01*
X195494Y314437D01*
X194853Y315272D01*
X194017Y315914D01*
X193195Y316254D01*
X192967Y316779D01*
X193124Y316983D01*
X193527Y317956D01*
X193664Y319000D01*
X193527Y320044D01*
X193124Y321017D01*
X192483Y321853D01*
X191647Y322494D01*
X190674Y322897D01*
X189630Y323035D01*
D02*
G37*
G36*
X431000Y308624D02*
Y308000D01*
X431624D01*
X431353Y308353D01*
X431000Y308624D01*
D02*
G37*
G36*
X426000D02*
X425647Y308353D01*
X425376Y308000D01*
X426000D01*
Y308624D01*
D02*
G37*
G36*
X497500Y316539D02*
X496325Y316384D01*
X495231Y315931D01*
X494291Y315209D01*
X493569Y314269D01*
X493116Y313175D01*
X492961Y312000D01*
X493116Y310825D01*
X493569Y309731D01*
X494291Y308791D01*
X495231Y308069D01*
X496325Y307616D01*
X497500Y307461D01*
X498675Y307616D01*
X499769Y308069D01*
X500709Y308791D01*
X501431Y309731D01*
X501884Y310825D01*
X502039Y312000D01*
X501884Y313175D01*
X501431Y314269D01*
X500709Y315209D01*
X499769Y315931D01*
X498675Y316384D01*
X497500Y316539D01*
D02*
G37*
G36*
X277453Y315453D02*
X268547D01*
Y306547D01*
X277453D01*
Y315453D01*
D02*
G37*
G36*
X50453D02*
X41547D01*
Y306547D01*
X50453D01*
Y315453D01*
D02*
G37*
G36*
X343000Y315491D02*
X341838Y315338D01*
X340754Y314890D01*
X339824Y314176D01*
X339110Y313246D01*
X338662Y312162D01*
X338509Y311000D01*
X338662Y309838D01*
X339110Y308754D01*
X339824Y307824D01*
X340754Y307111D01*
X341838Y306662D01*
X343000Y306509D01*
X344162Y306662D01*
X345246Y307111D01*
X346176Y307824D01*
X346889Y308754D01*
X347338Y309838D01*
X347491Y311000D01*
X347338Y312162D01*
X346889Y313246D01*
X346176Y314176D01*
X345246Y314890D01*
X344162Y315338D01*
X343000Y315491D01*
D02*
G37*
G36*
X333000D02*
X331838Y315338D01*
X330754Y314890D01*
X329824Y314176D01*
X329111Y313246D01*
X328662Y312162D01*
X328509Y311000D01*
X328662Y309838D01*
X329111Y308754D01*
X329824Y307824D01*
X330754Y307111D01*
X331838Y306662D01*
X333000Y306509D01*
X334162Y306662D01*
X335246Y307111D01*
X336176Y307824D01*
X336890Y308754D01*
X337338Y309838D01*
X337491Y311000D01*
X337338Y312162D01*
X336890Y313246D01*
X336176Y314176D01*
X335246Y314890D01*
X334162Y315338D01*
X333000Y315491D01*
D02*
G37*
G36*
X323000D02*
X321838Y315338D01*
X320754Y314890D01*
X319824Y314176D01*
X319110Y313246D01*
X318662Y312162D01*
X318509Y311000D01*
X318662Y309838D01*
X319110Y308754D01*
X319824Y307824D01*
X320754Y307111D01*
X321838Y306662D01*
X323000Y306509D01*
X324162Y306662D01*
X325246Y307111D01*
X326176Y307824D01*
X326889Y308754D01*
X327338Y309838D01*
X327491Y311000D01*
X327338Y312162D01*
X326889Y313246D01*
X326176Y314176D01*
X325246Y314890D01*
X324162Y315338D01*
X323000Y315491D01*
D02*
G37*
G36*
X313000D02*
X311838Y315338D01*
X310754Y314890D01*
X309824Y314176D01*
X309110Y313246D01*
X308662Y312162D01*
X308509Y311000D01*
X308662Y309838D01*
X309110Y308754D01*
X309824Y307824D01*
X310754Y307111D01*
X311838Y306662D01*
X313000Y306509D01*
X314162Y306662D01*
X315246Y307111D01*
X316176Y307824D01*
X316890Y308754D01*
X317338Y309838D01*
X317491Y311000D01*
X317338Y312162D01*
X316890Y313246D01*
X316176Y314176D01*
X315246Y314890D01*
X314162Y315338D01*
X313000Y315491D01*
D02*
G37*
G36*
X303000D02*
X301838Y315338D01*
X300754Y314890D01*
X299824Y314176D01*
X299111Y313246D01*
X298662Y312162D01*
X298509Y311000D01*
X298662Y309838D01*
X299111Y308754D01*
X299824Y307824D01*
X300754Y307111D01*
X301838Y306662D01*
X303000Y306509D01*
X304162Y306662D01*
X305246Y307111D01*
X306176Y307824D01*
X306890Y308754D01*
X307338Y309838D01*
X307491Y311000D01*
X307338Y312162D01*
X306890Y313246D01*
X306176Y314176D01*
X305246Y314890D01*
X304162Y315338D01*
X303000Y315491D01*
D02*
G37*
G36*
X293000D02*
X291838Y315338D01*
X290754Y314890D01*
X289824Y314176D01*
X289110Y313246D01*
X288662Y312162D01*
X288509Y311000D01*
X288662Y309838D01*
X289110Y308754D01*
X289824Y307824D01*
X290754Y307111D01*
X291838Y306662D01*
X293000Y306509D01*
X294162Y306662D01*
X295246Y307111D01*
X296176Y307824D01*
X296889Y308754D01*
X297338Y309838D01*
X297491Y311000D01*
X297338Y312162D01*
X296889Y313246D01*
X296176Y314176D01*
X295246Y314890D01*
X294162Y315338D01*
X293000Y315491D01*
D02*
G37*
G36*
X283000D02*
X281838Y315338D01*
X280754Y314890D01*
X279824Y314176D01*
X279111Y313246D01*
X278662Y312162D01*
X278509Y311000D01*
X278662Y309838D01*
X279111Y308754D01*
X279824Y307824D01*
X280754Y307111D01*
X281838Y306662D01*
X283000Y306509D01*
X284162Y306662D01*
X285246Y307111D01*
X286176Y307824D01*
X286890Y308754D01*
X287338Y309838D01*
X287491Y311000D01*
X287338Y312162D01*
X286890Y313246D01*
X286176Y314176D01*
X285246Y314890D01*
X284162Y315338D01*
X283000Y315491D01*
D02*
G37*
G36*
X116000D02*
X114838Y315338D01*
X113754Y314890D01*
X112824Y314176D01*
X112110Y313246D01*
X111662Y312162D01*
X111509Y311000D01*
X111662Y309838D01*
X112110Y308754D01*
X112824Y307824D01*
X113754Y307111D01*
X114838Y306662D01*
X116000Y306509D01*
X117162Y306662D01*
X118246Y307111D01*
X119176Y307824D01*
X119889Y308754D01*
X120338Y309838D01*
X120491Y311000D01*
X120338Y312162D01*
X119889Y313246D01*
X119176Y314176D01*
X118246Y314890D01*
X117162Y315338D01*
X116000Y315491D01*
D02*
G37*
G36*
X106000D02*
X104838Y315338D01*
X103754Y314890D01*
X102824Y314176D01*
X102111Y313246D01*
X101662Y312162D01*
X101509Y311000D01*
X101662Y309838D01*
X102111Y308754D01*
X102824Y307824D01*
X103754Y307111D01*
X104838Y306662D01*
X106000Y306509D01*
X107162Y306662D01*
X108246Y307111D01*
X109176Y307824D01*
X109889Y308754D01*
X110338Y309838D01*
X110491Y311000D01*
X110338Y312162D01*
X109889Y313246D01*
X109176Y314176D01*
X108246Y314890D01*
X107162Y315338D01*
X106000Y315491D01*
D02*
G37*
G36*
X96000D02*
X94838Y315338D01*
X93754Y314890D01*
X92824Y314176D01*
X92111Y313246D01*
X91662Y312162D01*
X91509Y311000D01*
X91662Y309838D01*
X92111Y308754D01*
X92824Y307824D01*
X93754Y307111D01*
X94838Y306662D01*
X96000Y306509D01*
X97162Y306662D01*
X98246Y307111D01*
X99176Y307824D01*
X99889Y308754D01*
X100338Y309838D01*
X100491Y311000D01*
X100338Y312162D01*
X99889Y313246D01*
X99176Y314176D01*
X98246Y314890D01*
X97162Y315338D01*
X96000Y315491D01*
D02*
G37*
G36*
X86000D02*
X84838Y315338D01*
X83754Y314890D01*
X82824Y314176D01*
X82111Y313246D01*
X81662Y312162D01*
X81509Y311000D01*
X81662Y309838D01*
X82111Y308754D01*
X82824Y307824D01*
X83754Y307111D01*
X84838Y306662D01*
X86000Y306509D01*
X87162Y306662D01*
X88246Y307111D01*
X89176Y307824D01*
X89890Y308754D01*
X90338Y309838D01*
X90491Y311000D01*
X90338Y312162D01*
X89890Y313246D01*
X89176Y314176D01*
X88246Y314890D01*
X87162Y315338D01*
X86000Y315491D01*
D02*
G37*
G36*
X76000D02*
X74838Y315338D01*
X73754Y314890D01*
X72824Y314176D01*
X72110Y313246D01*
X71662Y312162D01*
X71509Y311000D01*
X71662Y309838D01*
X72110Y308754D01*
X72824Y307824D01*
X73754Y307111D01*
X74838Y306662D01*
X76000Y306509D01*
X77162Y306662D01*
X78246Y307111D01*
X79176Y307824D01*
X79890Y308754D01*
X80338Y309838D01*
X80491Y311000D01*
X80338Y312162D01*
X79890Y313246D01*
X79176Y314176D01*
X78246Y314890D01*
X77162Y315338D01*
X76000Y315491D01*
D02*
G37*
G36*
X66000D02*
X64838Y315338D01*
X63754Y314890D01*
X62824Y314176D01*
X62111Y313246D01*
X61662Y312162D01*
X61509Y311000D01*
X61662Y309838D01*
X62111Y308754D01*
X62824Y307824D01*
X63754Y307111D01*
X64838Y306662D01*
X66000Y306509D01*
X67162Y306662D01*
X68246Y307111D01*
X69176Y307824D01*
X69889Y308754D01*
X70338Y309838D01*
X70491Y311000D01*
X70338Y312162D01*
X69889Y313246D01*
X69176Y314176D01*
X68246Y314890D01*
X67162Y315338D01*
X66000Y315491D01*
D02*
G37*
G36*
X56000D02*
X54838Y315338D01*
X53754Y314890D01*
X52824Y314176D01*
X52110Y313246D01*
X51662Y312162D01*
X51509Y311000D01*
X51662Y309838D01*
X52110Y308754D01*
X52824Y307824D01*
X53754Y307111D01*
X54838Y306662D01*
X56000Y306509D01*
X57162Y306662D01*
X58246Y307111D01*
X59176Y307824D01*
X59890Y308754D01*
X60338Y309838D01*
X60491Y311000D01*
X60338Y312162D01*
X59890Y313246D01*
X59176Y314176D01*
X58246Y314890D01*
X57162Y315338D01*
X56000Y315491D01*
D02*
G37*
G36*
X173839Y314534D02*
X172794Y314397D01*
X171821Y313994D01*
X170986Y313353D01*
X170345Y312517D01*
X169941Y311544D01*
X169804Y310500D01*
X169941Y309456D01*
X170345Y308483D01*
X170986Y307647D01*
X171821Y307006D01*
X172794Y306603D01*
X173839Y306466D01*
X174883Y306603D01*
X175856Y307006D01*
X176691Y307647D01*
X177333Y308483D01*
X177736Y309456D01*
X177873Y310500D01*
X177736Y311544D01*
X177333Y312517D01*
X176691Y313353D01*
X175856Y313994D01*
X174883Y314397D01*
X173839Y314534D01*
D02*
G37*
G36*
X431624Y303000D02*
X431000D01*
Y302376D01*
X431353Y302647D01*
X431624Y303000D01*
D02*
G37*
G36*
X426000D02*
X425376D01*
X425647Y302647D01*
X426000Y302376D01*
Y303000D01*
D02*
G37*
G36*
X475000Y308491D02*
X473838Y308338D01*
X472754Y307890D01*
X471824Y307176D01*
X471110Y306246D01*
X470662Y305162D01*
X470509Y304000D01*
X470662Y302838D01*
X471110Y301754D01*
X471824Y300824D01*
X472754Y300111D01*
X473838Y299662D01*
X475000Y299509D01*
X476162Y299662D01*
X477246Y300111D01*
X478176Y300824D01*
X478890Y301754D01*
X479338Y302838D01*
X479491Y304000D01*
X479338Y305162D01*
X478890Y306246D01*
X478176Y307176D01*
X477246Y307890D01*
X476162Y308338D01*
X475000Y308491D01*
D02*
G37*
G36*
X465000D02*
X463838Y308338D01*
X462754Y307890D01*
X461824Y307176D01*
X461110Y306246D01*
X460662Y305162D01*
X460509Y304000D01*
X460662Y302838D01*
X461110Y301754D01*
X461824Y300824D01*
X462754Y300111D01*
X463838Y299662D01*
X465000Y299509D01*
X466162Y299662D01*
X467246Y300111D01*
X468176Y300824D01*
X468890Y301754D01*
X469338Y302838D01*
X469491Y304000D01*
X469338Y305162D01*
X468890Y306246D01*
X468176Y307176D01*
X467246Y307890D01*
X466162Y308338D01*
X465000Y308491D01*
D02*
G37*
G36*
X203000Y311535D02*
X201956Y311397D01*
X200983Y310994D01*
X200147Y310353D01*
X199506Y309517D01*
X199103Y308544D01*
X198966Y307500D01*
X199103Y306456D01*
X199285Y306015D01*
X199226Y305856D01*
X198952Y305514D01*
X198063Y305397D01*
X197090Y304994D01*
X196255Y304353D01*
X195614Y303517D01*
X195210Y302544D01*
X195073Y301500D01*
X195210Y300456D01*
X195614Y299483D01*
X196255Y298647D01*
X197090Y298006D01*
X198063Y297603D01*
X199108Y297465D01*
X200152Y297603D01*
X201125Y298006D01*
X201960Y298647D01*
X202602Y299483D01*
X203005Y300456D01*
X203142Y301500D01*
X203005Y302544D01*
X202822Y302985D01*
X202881Y303144D01*
X203156Y303486D01*
X204044Y303603D01*
X205017Y304006D01*
X205853Y304647D01*
X206494Y305483D01*
X206897Y306456D01*
X207034Y307500D01*
X206897Y308544D01*
X206494Y309517D01*
X205853Y310353D01*
X205017Y310994D01*
X204044Y311397D01*
X203000Y311535D01*
D02*
G37*
G36*
X113500Y305539D02*
X112325Y305384D01*
X111231Y304931D01*
X110291Y304209D01*
X109569Y303269D01*
X109116Y302175D01*
X108961Y301000D01*
X109116Y299825D01*
X109569Y298731D01*
X110291Y297791D01*
X111231Y297069D01*
X112325Y296616D01*
X113500Y296461D01*
X114675Y296616D01*
X115769Y297069D01*
X116709Y297791D01*
X117431Y298731D01*
X117884Y299825D01*
X118039Y301000D01*
X117884Y302175D01*
X117431Y303269D01*
X116709Y304209D01*
X115769Y304931D01*
X114675Y305384D01*
X113500Y305539D01*
D02*
G37*
G36*
X57500Y305039D02*
X56325Y304884D01*
X55231Y304431D01*
X54291Y303709D01*
X53569Y302769D01*
X53116Y301675D01*
X52961Y300500D01*
X53116Y299325D01*
X53569Y298231D01*
X54291Y297291D01*
X55231Y296569D01*
X56325Y296116D01*
X57500Y295961D01*
X58675Y296116D01*
X59769Y296569D01*
X60709Y297291D01*
X61431Y298231D01*
X61884Y299325D01*
X62039Y300500D01*
X61884Y301675D01*
X61431Y302769D01*
X60709Y303709D01*
X59769Y304431D01*
X58675Y304884D01*
X57500Y305039D01*
D02*
G37*
G36*
X133000Y298035D02*
X131956Y297897D01*
X130983Y297494D01*
X130147Y296853D01*
X129506Y296017D01*
X129271Y295449D01*
X128729D01*
X128494Y296017D01*
X127853Y296853D01*
X127017Y297494D01*
X126044Y297897D01*
X125000Y298035D01*
X123956Y297897D01*
X122983Y297494D01*
X122147Y296853D01*
X121506Y296017D01*
X121103Y295044D01*
X120966Y294000D01*
X121103Y292956D01*
X121506Y291983D01*
X122147Y291147D01*
X122983Y290506D01*
X123956Y290103D01*
X125000Y289966D01*
X126044Y290103D01*
X127017Y290506D01*
X127853Y291147D01*
X128494Y291983D01*
X128729Y292551D01*
X129271D01*
X129506Y291983D01*
X130147Y291147D01*
X130983Y290506D01*
X131956Y290103D01*
X133000Y289966D01*
X134044Y290103D01*
X135017Y290506D01*
X135853Y291147D01*
X136494Y291983D01*
X136897Y292956D01*
X137034Y294000D01*
X136897Y295044D01*
X136494Y296017D01*
X135853Y296853D01*
X135017Y297494D01*
X134044Y297897D01*
X133000Y298035D01*
D02*
G37*
G36*
X320000Y304039D02*
X318825Y303884D01*
X317731Y303431D01*
X316791Y302709D01*
X316069Y301769D01*
X315616Y300675D01*
X315461Y299500D01*
X315616Y298325D01*
X316069Y297231D01*
X316791Y296291D01*
X317731Y295569D01*
X318825Y295116D01*
X320000Y294961D01*
X321175Y295116D01*
X322269Y295569D01*
X323209Y296291D01*
X323931Y297231D01*
X324384Y298325D01*
X324539Y299500D01*
X324384Y300675D01*
X323931Y301769D01*
X323209Y302709D01*
X322269Y303431D01*
X321175Y303884D01*
X320000Y304039D01*
D02*
G37*
G36*
X283000D02*
X281825Y303884D01*
X280731Y303431D01*
X279791Y302709D01*
X279069Y301769D01*
X278616Y300675D01*
X278461Y299500D01*
X278616Y298325D01*
X279069Y297231D01*
X279791Y296291D01*
X280731Y295569D01*
X281825Y295116D01*
X283000Y294961D01*
X284175Y295116D01*
X285269Y295569D01*
X286209Y296291D01*
X286931Y297231D01*
X287384Y298325D01*
X287539Y299500D01*
X287384Y300675D01*
X286931Y301769D01*
X286209Y302709D01*
X285269Y303431D01*
X284175Y303884D01*
X283000Y304039D01*
D02*
G37*
G36*
X269500D02*
X268325Y303884D01*
X267231Y303431D01*
X266291Y302709D01*
X265569Y301769D01*
X265116Y300675D01*
X264961Y299500D01*
X265116Y298325D01*
X265569Y297231D01*
X266291Y296291D01*
X267231Y295569D01*
X268325Y295116D01*
X269500Y294961D01*
X270675Y295116D01*
X271769Y295569D01*
X272709Y296291D01*
X273431Y297231D01*
X273884Y298325D01*
X274039Y299500D01*
X273884Y300675D01*
X273431Y301769D01*
X272709Y302709D01*
X271769Y303431D01*
X270675Y303884D01*
X269500Y304039D01*
D02*
G37*
G36*
X407398Y308392D02*
X406353Y308255D01*
X405380Y307852D01*
X404545Y307210D01*
X403904Y306375D01*
X403501Y305402D01*
X403363Y304358D01*
X403501Y303313D01*
X403904Y302340D01*
X404545Y301505D01*
X405380Y300864D01*
X406223Y300515D01*
X406457Y299998D01*
X406197Y299660D01*
X405794Y298687D01*
X405657Y297642D01*
X405794Y296598D01*
X406197Y295625D01*
X406839Y294790D01*
X407674Y294148D01*
X408647Y293745D01*
X409691Y293608D01*
X410736Y293745D01*
X411709Y294148D01*
X412544Y294790D01*
X413185Y295625D01*
X413588Y296598D01*
X413726Y297642D01*
X413588Y298687D01*
X413185Y299660D01*
X412544Y300495D01*
X411709Y301136D01*
X410866Y301485D01*
X410632Y302002D01*
X410892Y302340D01*
X411295Y303313D01*
X411432Y304358D01*
X411295Y305402D01*
X410892Y306375D01*
X410251Y307210D01*
X409415Y307852D01*
X408442Y308255D01*
X407398Y308392D01*
D02*
G37*
G36*
X475000Y298491D02*
X473838Y298338D01*
X472754Y297889D01*
X471824Y297176D01*
X471110Y296246D01*
X470662Y295162D01*
X470509Y294000D01*
X470662Y292838D01*
X471110Y291754D01*
X471824Y290824D01*
X472754Y290110D01*
X473838Y289662D01*
X475000Y289509D01*
X476162Y289662D01*
X477246Y290110D01*
X478176Y290824D01*
X478890Y291754D01*
X479338Y292838D01*
X479491Y294000D01*
X479338Y295162D01*
X478890Y296246D01*
X478176Y297176D01*
X477246Y297889D01*
X476162Y298338D01*
X475000Y298491D01*
D02*
G37*
G36*
X465000D02*
X463838Y298338D01*
X462754Y297889D01*
X461824Y297176D01*
X461110Y296246D01*
X460662Y295162D01*
X460509Y294000D01*
X460662Y292838D01*
X461110Y291754D01*
X461824Y290824D01*
X462754Y290110D01*
X463838Y289662D01*
X465000Y289509D01*
X466162Y289662D01*
X467246Y290110D01*
X468176Y290824D01*
X468890Y291754D01*
X469338Y292838D01*
X469491Y294000D01*
X469338Y295162D01*
X468890Y296246D01*
X468176Y297176D01*
X467246Y297889D01*
X466162Y298338D01*
X465000Y298491D01*
D02*
G37*
G36*
X52500Y296039D02*
X51325Y295884D01*
X50231Y295431D01*
X49291Y294709D01*
X48569Y293769D01*
X48116Y292675D01*
X47961Y291500D01*
X48116Y290325D01*
X48569Y289231D01*
X49291Y288291D01*
X50231Y287569D01*
X51325Y287116D01*
X52500Y286961D01*
X53675Y287116D01*
X54769Y287569D01*
X55709Y288291D01*
X56431Y289231D01*
X56884Y290325D01*
X57039Y291500D01*
X56884Y292675D01*
X56431Y293769D01*
X55709Y294709D01*
X54769Y295431D01*
X53675Y295884D01*
X52500Y296039D01*
D02*
G37*
G36*
X351500Y289534D02*
X350456Y289397D01*
X349483Y288994D01*
X348647Y288353D01*
X348006Y287517D01*
X347771Y286949D01*
X347229D01*
X346994Y287517D01*
X346353Y288353D01*
X345517Y288994D01*
X344544Y289397D01*
X343500Y289534D01*
X342456Y289397D01*
X341483Y288994D01*
X340647Y288353D01*
X340006Y287517D01*
X339603Y286544D01*
X339465Y285500D01*
X339603Y284456D01*
X340006Y283483D01*
X340647Y282647D01*
X341483Y282006D01*
X342456Y281603D01*
X343500Y281466D01*
X344544Y281603D01*
X345517Y282006D01*
X346353Y282647D01*
X346994Y283483D01*
X347229Y284051D01*
X347771D01*
X348006Y283483D01*
X348647Y282647D01*
X349483Y282006D01*
X350456Y281603D01*
X351500Y281466D01*
X352544Y281603D01*
X353517Y282006D01*
X354353Y282647D01*
X354994Y283483D01*
X355397Y284456D01*
X355535Y285500D01*
X355397Y286544D01*
X354994Y287517D01*
X354353Y288353D01*
X353517Y288994D01*
X352544Y289397D01*
X351500Y289534D01*
D02*
G37*
G36*
X133000Y288794D02*
X131956Y288657D01*
X130983Y288254D01*
X130147Y287613D01*
X129506Y286777D01*
X129271Y286209D01*
X128729D01*
X128494Y286777D01*
X127853Y287613D01*
X127017Y288254D01*
X126044Y288657D01*
X125000Y288794D01*
X123956Y288657D01*
X122983Y288254D01*
X122147Y287613D01*
X121506Y286777D01*
X121103Y285804D01*
X120966Y284760D01*
X121103Y283716D01*
X121506Y282743D01*
X122147Y281907D01*
X122983Y281266D01*
X123956Y280863D01*
X125000Y280725D01*
X126044Y280863D01*
X127017Y281266D01*
X127853Y281907D01*
X128494Y282743D01*
X128729Y283311D01*
X129271D01*
X129506Y282743D01*
X130147Y281907D01*
X130983Y281266D01*
X131956Y280863D01*
X133000Y280725D01*
X134044Y280863D01*
X135017Y281266D01*
X135853Y281907D01*
X136494Y282743D01*
X136897Y283716D01*
X137034Y284760D01*
X136897Y285804D01*
X136494Y286777D01*
X135853Y287613D01*
X135017Y288254D01*
X134044Y288657D01*
X133000Y288794D01*
D02*
G37*
G36*
X421000Y292534D02*
X419956Y292397D01*
X418983Y291994D01*
X418147Y291353D01*
X417506Y290517D01*
X417103Y289544D01*
X416965Y288500D01*
X417103Y287456D01*
X417506Y286483D01*
X418147Y285647D01*
X418983Y285006D01*
X419956Y284603D01*
X421000Y284466D01*
X422044Y284603D01*
X423017Y285006D01*
X423853Y285647D01*
X424494Y286483D01*
X424897Y287456D01*
X425035Y288500D01*
X424897Y289544D01*
X424494Y290517D01*
X423853Y291353D01*
X423017Y291994D01*
X422044Y292397D01*
X421000Y292534D01*
D02*
G37*
G36*
X444500Y291039D02*
X443325Y290884D01*
X442231Y290431D01*
X441291Y289709D01*
X440569Y288769D01*
X440116Y287675D01*
X439961Y286500D01*
X440116Y285325D01*
X440569Y284231D01*
X441291Y283291D01*
X442231Y282569D01*
X443325Y282116D01*
X444500Y281961D01*
X445675Y282116D01*
X446769Y282569D01*
X447709Y283291D01*
X448431Y284231D01*
X448884Y285325D01*
X449039Y286500D01*
X448884Y287675D01*
X448431Y288769D01*
X447709Y289709D01*
X446769Y290431D01*
X445675Y290884D01*
X444500Y291039D01*
D02*
G37*
G36*
X499000Y290539D02*
X497825Y290384D01*
X496731Y289931D01*
X495791Y289209D01*
X495069Y288269D01*
X494616Y287175D01*
X494461Y286000D01*
X494616Y284825D01*
X495069Y283731D01*
X495791Y282791D01*
X496731Y282069D01*
X497825Y281616D01*
X499000Y281461D01*
X500175Y281616D01*
X501269Y282069D01*
X502209Y282791D01*
X502931Y283731D01*
X503384Y284825D01*
X503539Y286000D01*
X503384Y287175D01*
X502931Y288269D01*
X502209Y289209D01*
X501269Y289931D01*
X500175Y290384D01*
X499000Y290539D01*
D02*
G37*
G36*
X475000Y288491D02*
X473838Y288338D01*
X472754Y287890D01*
X471824Y287176D01*
X471110Y286246D01*
X470662Y285162D01*
X470509Y284000D01*
X470662Y282838D01*
X471110Y281754D01*
X471824Y280824D01*
X472754Y280111D01*
X473838Y279662D01*
X475000Y279509D01*
X476162Y279662D01*
X477246Y280111D01*
X478176Y280824D01*
X478890Y281754D01*
X479338Y282838D01*
X479491Y284000D01*
X479338Y285162D01*
X478890Y286246D01*
X478176Y287176D01*
X477246Y287890D01*
X476162Y288338D01*
X475000Y288491D01*
D02*
G37*
G36*
X465000D02*
X463838Y288338D01*
X462754Y287890D01*
X461824Y287176D01*
X461110Y286246D01*
X460662Y285162D01*
X460509Y284000D01*
X460662Y282838D01*
X461110Y281754D01*
X461824Y280824D01*
X462754Y280111D01*
X463838Y279662D01*
X465000Y279509D01*
X466162Y279662D01*
X467246Y280111D01*
X468176Y280824D01*
X468890Y281754D01*
X469338Y282838D01*
X469491Y284000D01*
X469338Y285162D01*
X468890Y286246D01*
X468176Y287176D01*
X467246Y287890D01*
X466162Y288338D01*
X465000Y288491D01*
D02*
G37*
G36*
X351500Y280294D02*
X350456Y280157D01*
X349483Y279754D01*
X348647Y279113D01*
X348006Y278277D01*
X347771Y277709D01*
X347229D01*
X346994Y278277D01*
X346353Y279113D01*
X345517Y279754D01*
X344544Y280157D01*
X343500Y280294D01*
X342456Y280157D01*
X341483Y279754D01*
X340647Y279113D01*
X340006Y278277D01*
X339603Y277304D01*
X339465Y276260D01*
X339603Y275216D01*
X340006Y274243D01*
X340647Y273407D01*
X341483Y272766D01*
X342456Y272363D01*
X343500Y272225D01*
X344544Y272363D01*
X345517Y272766D01*
X346353Y273407D01*
X346994Y274243D01*
X347229Y274811D01*
X347771D01*
X348006Y274243D01*
X348647Y273407D01*
X349483Y272766D01*
X350456Y272363D01*
X351500Y272225D01*
X352544Y272363D01*
X353517Y272766D01*
X354353Y273407D01*
X354994Y274243D01*
X355397Y275216D01*
X355535Y276260D01*
X355397Y277304D01*
X354994Y278277D01*
X354353Y279113D01*
X353517Y279754D01*
X352544Y280157D01*
X351500Y280294D01*
D02*
G37*
G36*
X415560Y281034D02*
X414516Y280897D01*
X413543Y280494D01*
X412708Y279853D01*
X412067Y279017D01*
X411663Y278044D01*
X411526Y277000D01*
X411663Y275956D01*
X412067Y274983D01*
X412708Y274147D01*
X413543Y273506D01*
X414516Y273103D01*
X415560Y272966D01*
X416605Y273103D01*
X417578Y273506D01*
X418413Y274147D01*
X419055Y274983D01*
X419458Y275956D01*
X419595Y277000D01*
X419458Y278044D01*
X419055Y279017D01*
X418413Y279853D01*
X417578Y280494D01*
X416605Y280897D01*
X415560Y281034D01*
D02*
G37*
G36*
X475000Y278491D02*
X473838Y278338D01*
X472754Y277889D01*
X471824Y277176D01*
X471110Y276246D01*
X470662Y275162D01*
X470509Y274000D01*
X470662Y272838D01*
X471110Y271754D01*
X471824Y270824D01*
X472754Y270111D01*
X473838Y269662D01*
X475000Y269509D01*
X476162Y269662D01*
X477246Y270111D01*
X478176Y270824D01*
X478890Y271754D01*
X479338Y272838D01*
X479491Y274000D01*
X479338Y275162D01*
X478890Y276246D01*
X478176Y277176D01*
X477246Y277889D01*
X476162Y278338D01*
X475000Y278491D01*
D02*
G37*
G36*
X465000D02*
X463838Y278338D01*
X462754Y277889D01*
X461824Y277176D01*
X461110Y276246D01*
X460662Y275162D01*
X460509Y274000D01*
X460662Y272838D01*
X461110Y271754D01*
X461824Y270824D01*
X462754Y270111D01*
X463838Y269662D01*
X465000Y269509D01*
X466162Y269662D01*
X467246Y270111D01*
X468176Y270824D01*
X468890Y271754D01*
X469338Y272838D01*
X469491Y274000D01*
X469338Y275162D01*
X468890Y276246D01*
X468176Y277176D01*
X467246Y277889D01*
X466162Y278338D01*
X465000Y278491D01*
D02*
G37*
G36*
X475000Y268491D02*
X473838Y268338D01*
X472754Y267889D01*
X471824Y267176D01*
X471110Y266246D01*
X470662Y265162D01*
X470509Y264000D01*
X470662Y262838D01*
X471110Y261754D01*
X471824Y260824D01*
X472754Y260110D01*
X473838Y259662D01*
X475000Y259509D01*
X476162Y259662D01*
X477246Y260110D01*
X478176Y260824D01*
X478890Y261754D01*
X479338Y262838D01*
X479491Y264000D01*
X479338Y265162D01*
X478890Y266246D01*
X478176Y267176D01*
X477246Y267889D01*
X476162Y268338D01*
X475000Y268491D01*
D02*
G37*
G36*
X465000D02*
X463838Y268338D01*
X462754Y267889D01*
X461824Y267176D01*
X461110Y266246D01*
X460662Y265162D01*
X460509Y264000D01*
X460662Y262838D01*
X461110Y261754D01*
X461824Y260824D01*
X462754Y260110D01*
X463838Y259662D01*
X465000Y259509D01*
X466162Y259662D01*
X467246Y260110D01*
X468176Y260824D01*
X468890Y261754D01*
X469338Y262838D01*
X469491Y264000D01*
X469338Y265162D01*
X468890Y266246D01*
X468176Y267176D01*
X467246Y267889D01*
X466162Y268338D01*
X465000Y268491D01*
D02*
G37*
G36*
X207500Y260034D02*
X206456Y259897D01*
X205483Y259494D01*
X204647Y258853D01*
X204006Y258017D01*
X203603Y257044D01*
X203466Y256000D01*
X203603Y254956D01*
X204006Y253983D01*
X204647Y253147D01*
X205483Y252506D01*
X206456Y252103D01*
X207500Y251965D01*
X208544Y252103D01*
X209517Y252506D01*
X210353Y253147D01*
X210994Y253983D01*
X211397Y254956D01*
X211535Y256000D01*
X211397Y257044D01*
X210994Y258017D01*
X210353Y258853D01*
X209517Y259494D01*
X208544Y259897D01*
X207500Y260034D01*
D02*
G37*
G36*
X197000Y259034D02*
X195956Y258897D01*
X194983Y258494D01*
X194147Y257853D01*
X193506Y257017D01*
X193103Y256044D01*
X192965Y255000D01*
X193103Y253956D01*
X193506Y252983D01*
X194147Y252147D01*
X194983Y251506D01*
X195956Y251103D01*
X197000Y250965D01*
X198044Y251103D01*
X199017Y251506D01*
X199853Y252147D01*
X200494Y252983D01*
X200897Y253956D01*
X201034Y255000D01*
X200897Y256044D01*
X200494Y257017D01*
X199853Y257853D01*
X199017Y258494D01*
X198044Y258897D01*
X197000Y259034D01*
D02*
G37*
G36*
X475000Y258491D02*
X473838Y258338D01*
X472754Y257890D01*
X471824Y257176D01*
X471110Y256246D01*
X470662Y255162D01*
X470509Y254000D01*
X470662Y252838D01*
X471110Y251754D01*
X471824Y250824D01*
X472754Y250111D01*
X473838Y249662D01*
X475000Y249509D01*
X476162Y249662D01*
X477246Y250111D01*
X478176Y250824D01*
X478890Y251754D01*
X479338Y252838D01*
X479491Y254000D01*
X479338Y255162D01*
X478890Y256246D01*
X478176Y257176D01*
X477246Y257890D01*
X476162Y258338D01*
X475000Y258491D01*
D02*
G37*
G36*
X465000D02*
X463838Y258338D01*
X462754Y257890D01*
X461824Y257176D01*
X461110Y256246D01*
X460662Y255162D01*
X460509Y254000D01*
X460662Y252838D01*
X461110Y251754D01*
X461824Y250824D01*
X462754Y250111D01*
X463838Y249662D01*
X465000Y249509D01*
X466162Y249662D01*
X467246Y250111D01*
X468176Y250824D01*
X468890Y251754D01*
X469338Y252838D01*
X469491Y254000D01*
X469338Y255162D01*
X468890Y256246D01*
X468176Y257176D01*
X467246Y257890D01*
X466162Y258338D01*
X465000Y258491D01*
D02*
G37*
G36*
X178000Y256535D02*
X176956Y256397D01*
X175983Y255994D01*
X175147Y255353D01*
X174506Y254517D01*
X174103Y253544D01*
X173966Y252500D01*
X174103Y251456D01*
X174506Y250483D01*
X175147Y249647D01*
X175983Y249006D01*
X176956Y248603D01*
X178000Y248465D01*
X179044Y248603D01*
X180017Y249006D01*
X180853Y249647D01*
X181494Y250483D01*
X181897Y251456D01*
X182035Y252500D01*
X181897Y253544D01*
X181494Y254517D01*
X180853Y255353D01*
X180017Y255994D01*
X179044Y256397D01*
X178000Y256535D01*
D02*
G37*
G36*
X448000Y254535D02*
X446956Y254397D01*
X445983Y253994D01*
X445147Y253353D01*
X444506Y252517D01*
X444103Y251544D01*
X443965Y250500D01*
X444103Y249456D01*
X444506Y248483D01*
X445147Y247647D01*
X445983Y247006D01*
X446551Y246771D01*
Y246229D01*
X445983Y245994D01*
X445147Y245353D01*
X444506Y244517D01*
X444103Y243544D01*
X443965Y242500D01*
X444103Y241456D01*
X444506Y240483D01*
X445147Y239647D01*
X445983Y239006D01*
X446956Y238603D01*
X448000Y238465D01*
X449044Y238603D01*
X450017Y239006D01*
X450853Y239647D01*
X451494Y240483D01*
X451897Y241456D01*
X452035Y242500D01*
X451897Y243544D01*
X451494Y244517D01*
X450853Y245353D01*
X450017Y245994D01*
X449449Y246229D01*
Y246771D01*
X450017Y247006D01*
X450853Y247647D01*
X451494Y248483D01*
X451897Y249456D01*
X452035Y250500D01*
X451897Y251544D01*
X451494Y252517D01*
X450853Y253353D01*
X450017Y253994D01*
X449044Y254397D01*
X448000Y254535D01*
D02*
G37*
G36*
X438760D02*
X437716Y254397D01*
X436743Y253994D01*
X435907Y253353D01*
X435266Y252517D01*
X434863Y251544D01*
X434725Y250500D01*
X434863Y249456D01*
X435266Y248483D01*
X435907Y247647D01*
X436743Y247006D01*
X437311Y246771D01*
Y246229D01*
X436743Y245994D01*
X435907Y245353D01*
X435266Y244517D01*
X434863Y243544D01*
X434725Y242500D01*
X434863Y241456D01*
X435266Y240483D01*
X435907Y239647D01*
X436743Y239006D01*
X437716Y238603D01*
X438760Y238465D01*
X439804Y238603D01*
X440777Y239006D01*
X441613Y239647D01*
X442254Y240483D01*
X442657Y241456D01*
X442794Y242500D01*
X442657Y243544D01*
X442254Y244517D01*
X441613Y245353D01*
X440777Y245994D01*
X440209Y246229D01*
Y246771D01*
X440777Y247006D01*
X441613Y247647D01*
X442254Y248483D01*
X442657Y249456D01*
X442794Y250500D01*
X442657Y251544D01*
X442254Y252517D01*
X441613Y253353D01*
X440777Y253994D01*
X439804Y254397D01*
X438760Y254535D01*
D02*
G37*
G36*
X254953Y244453D02*
X246047D01*
Y235547D01*
X254953D01*
Y244453D01*
D02*
G37*
G36*
X260500Y244491D02*
X259338Y244338D01*
X258254Y243889D01*
X257324Y243176D01*
X256610Y242246D01*
X256162Y241162D01*
X256009Y240000D01*
X256162Y238838D01*
X256610Y237754D01*
X257324Y236824D01*
X258254Y236110D01*
X259338Y235662D01*
X260500Y235509D01*
X261662Y235662D01*
X262746Y236110D01*
X263676Y236824D01*
X264389Y237754D01*
X264838Y238838D01*
X264991Y240000D01*
X264838Y241162D01*
X264389Y242246D01*
X263676Y243176D01*
X262746Y243889D01*
X261662Y244338D01*
X260500Y244491D01*
D02*
G37*
G36*
X135250Y245035D02*
X134206Y244897D01*
X133233Y244494D01*
X132397Y243853D01*
X131756Y243017D01*
X131353Y242044D01*
X131216Y241000D01*
X131353Y239956D01*
X131756Y238983D01*
X132397Y238147D01*
X133233Y237506D01*
X134206Y237103D01*
X135250Y236965D01*
X136294Y237103D01*
X136542Y237206D01*
X136986Y236848D01*
X137103Y235956D01*
X137506Y234983D01*
X138147Y234147D01*
X138983Y233506D01*
X139956Y233103D01*
X141000Y232965D01*
X142044Y233103D01*
X143017Y233506D01*
X143853Y234147D01*
X144494Y234983D01*
X144897Y235956D01*
X145035Y237000D01*
X144897Y238044D01*
X144494Y239017D01*
X143853Y239853D01*
X143017Y240494D01*
X142044Y240897D01*
X141000Y241035D01*
X139956Y240897D01*
X139708Y240794D01*
X139265Y241152D01*
X139147Y242044D01*
X138744Y243017D01*
X138103Y243853D01*
X137267Y244494D01*
X136294Y244897D01*
X135250Y245035D01*
D02*
G37*
G36*
X37000Y239039D02*
X35825Y238884D01*
X34731Y238431D01*
X33791Y237709D01*
X33069Y236769D01*
X32616Y235675D01*
X32461Y234500D01*
X32616Y233325D01*
X33069Y232231D01*
X33791Y231291D01*
X34731Y230569D01*
X35825Y230116D01*
X37000Y229961D01*
X38175Y230116D01*
X39269Y230569D01*
X40209Y231291D01*
X40931Y232231D01*
X41384Y233325D01*
X41539Y234500D01*
X41384Y235675D01*
X40931Y236769D01*
X40209Y237709D01*
X39269Y238431D01*
X38175Y238884D01*
X37000Y239039D01*
D02*
G37*
G36*
X345049Y237035D02*
X344005Y236897D01*
X343032Y236494D01*
X342196Y235853D01*
X341555Y235017D01*
X341152Y234044D01*
X341014Y233000D01*
X341152Y231956D01*
X341555Y230983D01*
X342196Y230147D01*
X343032Y229506D01*
X344005Y229103D01*
X345049Y228965D01*
X346093Y229103D01*
X347066Y229506D01*
X347902Y230147D01*
X348543Y230983D01*
X348946Y231956D01*
X349083Y233000D01*
X348946Y234044D01*
X348543Y235017D01*
X347902Y235853D01*
X347066Y236494D01*
X346093Y236897D01*
X345049Y237035D01*
D02*
G37*
G36*
X497500Y237039D02*
X496325Y236884D01*
X495231Y236431D01*
X494291Y235709D01*
X493569Y234769D01*
X493116Y233675D01*
X492961Y232500D01*
X493116Y231325D01*
X493569Y230231D01*
X494291Y229291D01*
X495231Y228569D01*
X496325Y228116D01*
X497500Y227961D01*
X498675Y228116D01*
X499769Y228569D01*
X500709Y229291D01*
X501431Y230231D01*
X501884Y231325D01*
X502039Y232500D01*
X501884Y233675D01*
X501431Y234769D01*
X500709Y235709D01*
X499769Y236431D01*
X498675Y236884D01*
X497500Y237039D01*
D02*
G37*
G36*
X409691Y233843D02*
X408647Y233706D01*
X407674Y233303D01*
X406839Y232662D01*
X406197Y231826D01*
X405794Y230853D01*
X405657Y229809D01*
X405794Y228764D01*
X406197Y227791D01*
X406839Y226956D01*
X407674Y226315D01*
X408647Y225912D01*
X409691Y225774D01*
X410736Y225912D01*
X411709Y226315D01*
X412544Y226956D01*
X413185Y227791D01*
X413588Y228764D01*
X413726Y229809D01*
X413588Y230853D01*
X413185Y231826D01*
X412544Y232662D01*
X411709Y233303D01*
X410736Y233706D01*
X409691Y233843D01*
D02*
G37*
G36*
X200000Y234539D02*
X198825Y234384D01*
X197731Y233931D01*
X196791Y233209D01*
X196069Y232269D01*
X195616Y231175D01*
X195461Y230000D01*
X195616Y228825D01*
X196069Y227731D01*
X196791Y226791D01*
X197731Y226069D01*
X198825Y225616D01*
X200000Y225461D01*
X201175Y225616D01*
X202269Y226069D01*
X203209Y226791D01*
X203931Y227731D01*
X204384Y228825D01*
X204539Y230000D01*
X204384Y231175D01*
X203931Y232269D01*
X203209Y233209D01*
X202269Y233931D01*
X201175Y234384D01*
X200000Y234539D01*
D02*
G37*
G36*
X311500Y228539D02*
X310325Y228384D01*
X309231Y227931D01*
X308291Y227209D01*
X307569Y226269D01*
X307116Y225175D01*
X306961Y224000D01*
X307116Y222825D01*
X307569Y221731D01*
X308291Y220791D01*
X309231Y220069D01*
X310325Y219616D01*
X311500Y219461D01*
X312675Y219616D01*
X313769Y220069D01*
X314709Y220791D01*
X315431Y221731D01*
X315884Y222825D01*
X316039Y224000D01*
X315884Y225175D01*
X315431Y226269D01*
X314709Y227209D01*
X313769Y227931D01*
X312675Y228384D01*
X311500Y228539D01*
D02*
G37*
G36*
X82500Y227034D02*
X81456Y226897D01*
X80483Y226494D01*
X79647Y225853D01*
X79006Y225017D01*
X78603Y224044D01*
X78465Y223000D01*
X78603Y221956D01*
X79006Y220983D01*
X79647Y220147D01*
X80483Y219506D01*
X81456Y219103D01*
X82500Y218966D01*
X83544Y219103D01*
X84517Y219506D01*
X85353Y220147D01*
X85994Y220983D01*
X86397Y221956D01*
X86535Y223000D01*
X86397Y224044D01*
X85994Y225017D01*
X85353Y225853D01*
X84517Y226494D01*
X83544Y226897D01*
X82500Y227034D01*
D02*
G37*
G36*
X107217Y218539D02*
X106042Y218384D01*
X104947Y217931D01*
X104007Y217209D01*
X103286Y216269D01*
X102832Y215175D01*
X102719Y214316D01*
X102215D01*
X102168Y214675D01*
X101714Y215769D01*
X100993Y216709D01*
X100053Y217431D01*
X98958Y217884D01*
X97783Y218039D01*
X96609Y217884D01*
X95514Y217431D01*
X94574Y216709D01*
X93853Y215769D01*
X93399Y214675D01*
X93245Y213500D01*
X93399Y212325D01*
X93853Y211231D01*
X94410Y210505D01*
X94428Y210375D01*
X94353Y209930D01*
X94311Y209862D01*
X93647Y209353D01*
X93006Y208517D01*
X92603Y207544D01*
X92466Y206500D01*
X92603Y205456D01*
X93006Y204483D01*
X93647Y203647D01*
X94373Y203090D01*
X94419Y202884D01*
Y202716D01*
X94373Y202510D01*
X93647Y201953D01*
X93006Y201117D01*
X92603Y200144D01*
X92466Y199100D01*
X92603Y198056D01*
X93006Y197083D01*
X93647Y196247D01*
X94483Y195606D01*
X95456Y195203D01*
X96500Y195065D01*
X97544Y195203D01*
X98517Y195606D01*
X99353Y196247D01*
X99994Y197083D01*
X100397Y198056D01*
X100534Y199100D01*
X100397Y200144D01*
X99994Y201117D01*
X99353Y201953D01*
X98627Y202510D01*
X98581Y202716D01*
Y202884D01*
X98627Y203090D01*
X99353Y203647D01*
X99994Y204483D01*
X100397Y205456D01*
X100534Y206500D01*
X100397Y207544D01*
X99994Y208517D01*
X99646Y208971D01*
X99775Y209454D01*
X100053Y209569D01*
X100993Y210291D01*
X101714Y211231D01*
X102168Y212325D01*
X102281Y213184D01*
X102785D01*
X102832Y212825D01*
X103286Y211731D01*
X104007Y210791D01*
X104947Y210069D01*
X106042Y209616D01*
X107217Y209461D01*
X108391Y209616D01*
X109486Y210069D01*
X110426Y210791D01*
X111147Y211731D01*
X111601Y212825D01*
X111755Y214000D01*
X111601Y215175D01*
X111147Y216269D01*
X110426Y217209D01*
X109486Y217931D01*
X108391Y218384D01*
X107217Y218539D01*
D02*
G37*
G36*
X485000Y223039D02*
X483825Y222884D01*
X482731Y222431D01*
X481791Y221709D01*
X481069Y220769D01*
X480616Y219675D01*
X480461Y218500D01*
X480616Y217325D01*
X481069Y216231D01*
X481791Y215291D01*
X482731Y214569D01*
X483825Y214116D01*
X485000Y213961D01*
X486175Y214116D01*
X487269Y214569D01*
X488209Y215291D01*
X488931Y216231D01*
X489384Y217325D01*
X489539Y218500D01*
X489384Y219675D01*
X488931Y220769D01*
X488209Y221709D01*
X487269Y222431D01*
X486175Y222884D01*
X485000Y223039D01*
D02*
G37*
G36*
X497000Y212624D02*
Y212000D01*
X497624D01*
X497353Y212353D01*
X497000Y212624D01*
D02*
G37*
G36*
X492000D02*
X491647Y212353D01*
X491376Y212000D01*
X492000D01*
Y212624D01*
D02*
G37*
G36*
X34000Y225244D02*
X32236Y225070D01*
X30539Y224555D01*
X28976Y223719D01*
X27605Y222595D01*
X26481Y221224D01*
X25645Y219661D01*
X25130Y217964D01*
X24957Y216200D01*
X25130Y214436D01*
X25645Y212739D01*
X26481Y211176D01*
X27605Y209805D01*
X28976Y208681D01*
X30539Y207845D01*
X32236Y207330D01*
X34000Y207156D01*
X35764Y207330D01*
X37461Y207845D01*
X39024Y208681D01*
X40395Y209805D01*
X41519Y211176D01*
X42355Y212739D01*
X42870Y214436D01*
X43044Y216200D01*
X42870Y217964D01*
X42355Y219661D01*
X41519Y221224D01*
X40395Y222595D01*
X39024Y223719D01*
X37461Y224555D01*
X35764Y225070D01*
X34000Y225244D01*
D02*
G37*
G36*
X497624Y207000D02*
X497000D01*
Y206376D01*
X497353Y206647D01*
X497624Y207000D01*
D02*
G37*
G36*
X492000D02*
X491376D01*
X491647Y206647D01*
X492000Y206376D01*
Y207000D01*
D02*
G37*
G36*
X232500Y208034D02*
X231456Y207897D01*
X230483Y207494D01*
X229647Y206853D01*
X229006Y206017D01*
X228603Y205044D01*
X228466Y204000D01*
X228603Y202956D01*
X229006Y201983D01*
X229647Y201147D01*
X230483Y200506D01*
X231456Y200103D01*
X232500Y199966D01*
X233544Y200103D01*
X234517Y200506D01*
X235353Y201147D01*
X235994Y201983D01*
X236397Y202956D01*
X236535Y204000D01*
X236397Y205044D01*
X235994Y206017D01*
X235353Y206853D01*
X234517Y207494D01*
X233544Y207897D01*
X232500Y208034D01*
D02*
G37*
G36*
X154000Y206535D02*
X152956Y206397D01*
X151983Y205994D01*
X151147Y205353D01*
X150506Y204517D01*
X150103Y203544D01*
X149966Y202500D01*
X150103Y201456D01*
X150506Y200483D01*
X151147Y199647D01*
X151983Y199006D01*
X152956Y198603D01*
X154000Y198466D01*
X155044Y198603D01*
X156017Y199006D01*
X156853Y199647D01*
X157494Y200483D01*
X157897Y201456D01*
X158035Y202500D01*
X157897Y203544D01*
X157494Y204517D01*
X156853Y205353D01*
X156017Y205994D01*
X155044Y206397D01*
X154000Y206535D01*
D02*
G37*
G36*
X282215Y205034D02*
X281171Y204897D01*
X280198Y204494D01*
X279362Y203853D01*
X278721Y203017D01*
X278318Y202044D01*
X278180Y201000D01*
X278318Y199956D01*
X278721Y198983D01*
X279362Y198147D01*
X280198Y197506D01*
X281171Y197103D01*
X282215Y196966D01*
X283259Y197103D01*
X284232Y197506D01*
X285068Y198147D01*
X285709Y198983D01*
X286112Y199956D01*
X286249Y201000D01*
X286112Y202044D01*
X285709Y203017D01*
X285068Y203853D01*
X284232Y204494D01*
X283259Y204897D01*
X282215Y205034D01*
D02*
G37*
G36*
X321500Y204098D02*
X320456Y203960D01*
X319483Y203557D01*
X318647Y202916D01*
X318006Y202080D01*
X317603Y201107D01*
X317465Y200063D01*
X317603Y199019D01*
X318006Y198046D01*
X318647Y197210D01*
X319483Y196569D01*
X320456Y196166D01*
X321500Y196028D01*
X322544Y196166D01*
X323517Y196569D01*
X324353Y197210D01*
X324994Y198046D01*
X325397Y199019D01*
X325535Y200063D01*
X325397Y201107D01*
X324994Y202080D01*
X324353Y202916D01*
X323517Y203557D01*
X322544Y203960D01*
X321500Y204098D01*
D02*
G37*
G36*
X474000Y194035D02*
X472956Y193897D01*
X471983Y193494D01*
X471147Y192853D01*
X470506Y192017D01*
X470352Y191646D01*
X469811D01*
X469657Y192017D01*
X469016Y192853D01*
X468180Y193494D01*
X467207Y193897D01*
X466163Y194035D01*
X465119Y193897D01*
X464146Y193494D01*
X463310Y192853D01*
X462669Y192017D01*
X462266Y191044D01*
X462128Y190000D01*
X462266Y188956D01*
X462669Y187983D01*
X463310Y187147D01*
X464146Y186506D01*
X465119Y186103D01*
X466163Y185966D01*
X467207Y186103D01*
X468180Y186506D01*
X469016Y187147D01*
X469657Y187983D01*
X469811Y188354D01*
X470352D01*
X470506Y187983D01*
X471147Y187147D01*
X471983Y186506D01*
X472956Y186103D01*
X474000Y185966D01*
X475044Y186103D01*
X476017Y186506D01*
X476853Y187147D01*
X477494Y187983D01*
X477897Y188956D01*
X478034Y190000D01*
X477897Y191044D01*
X477494Y192017D01*
X476853Y192853D01*
X476017Y193494D01*
X475044Y193897D01*
X474000Y194035D01*
D02*
G37*
G36*
X60000Y205500D02*
X23000D01*
Y187000D01*
X60000D01*
Y205500D01*
D02*
G37*
G36*
X389500Y194535D02*
X388456Y194397D01*
X387483Y193994D01*
X386647Y193353D01*
X386006Y192517D01*
X385603Y191544D01*
X385466Y190500D01*
X385603Y189456D01*
X386006Y188483D01*
X386647Y187647D01*
X387483Y187006D01*
X388456Y186603D01*
X389500Y186466D01*
X390544Y186603D01*
X391517Y187006D01*
X392353Y187647D01*
X392994Y188483D01*
X393397Y189456D01*
X393534Y190500D01*
X393397Y191544D01*
X392994Y192517D01*
X392353Y193353D01*
X391517Y193994D01*
X390544Y194397D01*
X389500Y194535D01*
D02*
G37*
G36*
X364000D02*
X362956Y194397D01*
X361983Y193994D01*
X361147Y193353D01*
X360506Y192517D01*
X360103Y191544D01*
X359965Y190500D01*
X360103Y189456D01*
X360506Y188483D01*
X361147Y187647D01*
X361983Y187006D01*
X362956Y186603D01*
X364000Y186466D01*
X365044Y186603D01*
X366017Y187006D01*
X366853Y187647D01*
X367494Y188483D01*
X367897Y189456D01*
X368035Y190500D01*
X367897Y191544D01*
X367494Y192517D01*
X366853Y193353D01*
X366017Y193994D01*
X365044Y194397D01*
X364000Y194535D01*
D02*
G37*
G36*
X157456Y192153D02*
X156412Y192015D01*
X155438Y191612D01*
X154603Y190971D01*
X153962Y190135D01*
X153559Y189162D01*
X153421Y188118D01*
X153559Y187074D01*
X153733Y186653D01*
X153350Y186270D01*
X153044Y186397D01*
X152000Y186535D01*
X150956Y186397D01*
X149983Y185994D01*
X149147Y185353D01*
X148506Y184517D01*
X148103Y183544D01*
X147966Y182500D01*
X148103Y181456D01*
X148506Y180483D01*
X149147Y179647D01*
X149983Y179006D01*
X150956Y178603D01*
X152000Y178465D01*
X153044Y178603D01*
X154017Y179006D01*
X154853Y179647D01*
X155494Y180483D01*
X155897Y181456D01*
X156035Y182500D01*
X155897Y183544D01*
X155723Y183965D01*
X156105Y184348D01*
X156412Y184221D01*
X157456Y184084D01*
X158500Y184221D01*
X159473Y184624D01*
X160309Y185265D01*
X160950Y186101D01*
X161353Y187074D01*
X161490Y188118D01*
X161353Y189162D01*
X160950Y190135D01*
X160309Y190971D01*
X159473Y191612D01*
X158500Y192015D01*
X157456Y192153D01*
D02*
G37*
G36*
X287000Y191597D02*
X285956Y191460D01*
X284983Y191057D01*
X284147Y190416D01*
X283506Y189580D01*
X283103Y188607D01*
X282965Y187563D01*
X283103Y186519D01*
X283506Y185546D01*
X284147Y184710D01*
X284983Y184069D01*
X285956Y183666D01*
X287000Y183528D01*
X288044Y183666D01*
X289017Y184069D01*
X289853Y184710D01*
X290494Y185546D01*
X290897Y186519D01*
X291035Y187563D01*
X290897Y188607D01*
X290494Y189580D01*
X289853Y190416D01*
X289017Y191057D01*
X288044Y191460D01*
X287000Y191597D01*
D02*
G37*
G36*
X318898Y180226D02*
Y179602D01*
X319521D01*
X319250Y179955D01*
X318898Y180226D01*
D02*
G37*
G36*
X313898D02*
X313545Y179955D01*
X313274Y179602D01*
X313898D01*
Y180226D01*
D02*
G37*
G36*
X200000Y187534D02*
X198956Y187397D01*
X197983Y186994D01*
X197147Y186353D01*
X196506Y185517D01*
X196103Y184544D01*
X195966Y183500D01*
X196103Y182456D01*
X196506Y181483D01*
X197147Y180647D01*
X197983Y180006D01*
X198956Y179603D01*
X200000Y179465D01*
X201044Y179603D01*
X202017Y180006D01*
X202853Y180647D01*
X203494Y181483D01*
X203897Y182456D01*
X204034Y183500D01*
X203897Y184544D01*
X203494Y185517D01*
X202853Y186353D01*
X202017Y186994D01*
X201044Y187397D01*
X200000Y187534D01*
D02*
G37*
G36*
X434500Y186035D02*
X433456Y185897D01*
X432483Y185494D01*
X431647Y184853D01*
X431006Y184017D01*
X430603Y183044D01*
X430466Y182000D01*
X430603Y180956D01*
X431006Y179983D01*
X431647Y179147D01*
X432483Y178506D01*
X433456Y178103D01*
X434500Y177965D01*
X435544Y178103D01*
X436517Y178506D01*
X437353Y179147D01*
X437994Y179983D01*
X438397Y180956D01*
X438534Y182000D01*
X438397Y183044D01*
X437994Y184017D01*
X437353Y184853D01*
X436517Y185494D01*
X436459Y185518D01*
X436459Y185518D01*
X435544Y185897D01*
X434783Y185997D01*
X434783Y185997D01*
X434500Y186035D01*
D02*
G37*
G36*
X237000D02*
X235956Y185897D01*
X234983Y185494D01*
X234147Y184853D01*
X233506Y184017D01*
X233103Y183044D01*
X232965Y182000D01*
X233103Y180956D01*
X233506Y179983D01*
X234147Y179147D01*
X234983Y178506D01*
X235956Y178103D01*
X237000Y177965D01*
X238044Y178103D01*
X239017Y178506D01*
X239853Y179147D01*
X240494Y179983D01*
X240897Y180956D01*
X241035Y182000D01*
X240897Y183044D01*
X240494Y184017D01*
X239853Y184853D01*
X239017Y185494D01*
X238044Y185897D01*
X237000Y186035D01*
D02*
G37*
G36*
X109722Y188050D02*
Y185559D01*
X107222D01*
Y183059D01*
X104731D01*
X105457Y182502D01*
X106308Y182149D01*
X107222Y182029D01*
X108136Y182149D01*
X108610Y182345D01*
X109068Y181994D01*
X109003Y181500D01*
X109140Y180456D01*
X109543Y179483D01*
X110185Y178647D01*
X111020Y178006D01*
X111993Y177603D01*
X113037Y177465D01*
X114082Y177603D01*
X115055Y178006D01*
X115890Y178647D01*
X116531Y179483D01*
X116934Y180456D01*
X117072Y181500D01*
X116934Y182544D01*
X116531Y183517D01*
X115890Y184353D01*
X115055Y184994D01*
X114082Y185397D01*
X113037Y185535D01*
X111993Y185397D01*
X111192Y185065D01*
X110725Y185352D01*
X110752Y185559D01*
X110632Y186473D01*
X110279Y187324D01*
X109722Y188050D01*
D02*
G37*
G36*
X226000Y186539D02*
X224825Y186384D01*
X223731Y185931D01*
X222791Y185209D01*
X222069Y184269D01*
X221616Y183175D01*
X221461Y182000D01*
X221616Y180825D01*
X222069Y179731D01*
X222791Y178791D01*
X223731Y178069D01*
X224825Y177616D01*
X226000Y177461D01*
X227175Y177616D01*
X228269Y178069D01*
X229209Y178791D01*
X229931Y179731D01*
X230384Y180825D01*
X230539Y182000D01*
X230384Y183175D01*
X229931Y184269D01*
X229209Y185209D01*
X228269Y185931D01*
X227175Y186384D01*
X226000Y186539D01*
D02*
G37*
G36*
X280000Y184535D02*
X278956Y184397D01*
X277983Y183994D01*
X277147Y183353D01*
X276506Y182517D01*
X276103Y181544D01*
X275965Y180500D01*
X276103Y179456D01*
X276506Y178483D01*
X277147Y177647D01*
X277983Y177006D01*
X278956Y176603D01*
X280000Y176465D01*
X281044Y176603D01*
X282017Y177006D01*
X282853Y177647D01*
X283494Y178483D01*
X283897Y179456D01*
X284034Y180500D01*
X283897Y181544D01*
X283494Y182517D01*
X282853Y183353D01*
X282017Y183994D01*
X281044Y184397D01*
X280000Y184535D01*
D02*
G37*
G36*
X319521Y174602D02*
X318898D01*
Y173979D01*
X319250Y174249D01*
X319521Y174602D01*
D02*
G37*
G36*
X313898D02*
X313274D01*
X313545Y174249D01*
X313898Y173979D01*
Y174602D01*
D02*
G37*
G36*
X209000Y177534D02*
X207956Y177397D01*
X206983Y176994D01*
X206147Y176353D01*
X205506Y175517D01*
X205103Y174544D01*
X204965Y173500D01*
X205103Y172456D01*
X205506Y171483D01*
X206147Y170647D01*
X206983Y170006D01*
X207956Y169603D01*
X209000Y169465D01*
X210044Y169603D01*
X211017Y170006D01*
X211853Y170647D01*
X212494Y171483D01*
X212897Y172456D01*
X213035Y173500D01*
X212897Y174544D01*
X212494Y175517D01*
X211853Y176353D01*
X211017Y176994D01*
X210044Y177397D01*
X209000Y177534D01*
D02*
G37*
G36*
X457000Y176034D02*
X455956Y175897D01*
X454983Y175494D01*
X454147Y174853D01*
X453506Y174017D01*
X453103Y173044D01*
X452965Y172000D01*
X453103Y170956D01*
X453506Y169983D01*
X454147Y169147D01*
X454983Y168506D01*
X455956Y168103D01*
X457000Y167965D01*
X458044Y168103D01*
X459017Y168506D01*
X459853Y169147D01*
X460494Y169983D01*
X460897Y170956D01*
X461034Y172000D01*
X460897Y173044D01*
X460494Y174017D01*
X459853Y174853D01*
X459017Y175494D01*
X458044Y175897D01*
X457000Y176034D01*
D02*
G37*
G36*
X371928D02*
X370884Y175897D01*
X369911Y175494D01*
X369075Y174853D01*
X368434Y174017D01*
X368031Y173044D01*
X367894Y172000D01*
X368031Y170956D01*
X368434Y169983D01*
X369075Y169147D01*
X369911Y168506D01*
X370884Y168103D01*
X371928Y167965D01*
X372972Y168103D01*
X373945Y168506D01*
X374781Y169147D01*
X375422Y169983D01*
X375825Y170956D01*
X375963Y172000D01*
X375825Y173044D01*
X375422Y174017D01*
X374781Y174853D01*
X373945Y175494D01*
X372972Y175897D01*
X371928Y176034D01*
D02*
G37*
G36*
X237000Y175534D02*
X235956Y175397D01*
X234983Y174994D01*
X234147Y174353D01*
X233506Y173517D01*
X233103Y172544D01*
X232965Y171500D01*
X233103Y170456D01*
X233506Y169483D01*
X234147Y168647D01*
X234983Y168006D01*
X235956Y167603D01*
X237000Y167465D01*
X238044Y167603D01*
X239017Y168006D01*
X239853Y168647D01*
X240494Y169483D01*
X240897Y170456D01*
X241035Y171500D01*
X240897Y172544D01*
X240494Y173517D01*
X239853Y174353D01*
X239017Y174994D01*
X238044Y175397D01*
X237000Y175534D01*
D02*
G37*
G36*
X225500D02*
X224456Y175397D01*
X223483Y174994D01*
X222647Y174353D01*
X222006Y173517D01*
X221603Y172544D01*
X221465Y171500D01*
X221603Y170456D01*
X222006Y169483D01*
X222647Y168647D01*
X223483Y168006D01*
X224456Y167603D01*
X225500Y167465D01*
X226544Y167603D01*
X227517Y168006D01*
X228353Y168647D01*
X228994Y169483D01*
X229397Y170456D01*
X229535Y171500D01*
X229397Y172544D01*
X228994Y173517D01*
X228353Y174353D01*
X227517Y174994D01*
X226544Y175397D01*
X225500Y175534D01*
D02*
G37*
G36*
X265500Y174534D02*
X264456Y174397D01*
X263483Y173994D01*
X262647Y173353D01*
X262006Y172517D01*
X261603Y171544D01*
X261466Y170500D01*
X261603Y169456D01*
X262006Y168483D01*
X262647Y167647D01*
X263483Y167006D01*
X264456Y166603D01*
X265500Y166465D01*
X266544Y166603D01*
X267517Y167006D01*
X268353Y167647D01*
X268994Y168483D01*
X269397Y169456D01*
X269534Y170500D01*
X269397Y171544D01*
X268994Y172517D01*
X268353Y173353D01*
X267517Y173994D01*
X266544Y174397D01*
X265500Y174534D01*
D02*
G37*
G36*
X467642Y170535D02*
X466598Y170397D01*
X465625Y169994D01*
X464790Y169353D01*
X464149Y168517D01*
X463745Y167544D01*
X463608Y166500D01*
X463745Y165456D01*
X464149Y164483D01*
X464790Y163647D01*
X465625Y163006D01*
X466598Y162603D01*
X467642Y162466D01*
X468687Y162603D01*
X469660Y163006D01*
X470495Y163647D01*
X471137Y164483D01*
X471540Y165456D01*
X471677Y166500D01*
X471540Y167544D01*
X471137Y168517D01*
X470495Y169353D01*
X469660Y169994D01*
X468687Y170397D01*
X467642Y170535D01*
D02*
G37*
G36*
X498500Y169463D02*
X497586Y169343D01*
X496735Y168990D01*
X496004Y168429D01*
X495443Y167698D01*
X495090Y166847D01*
X494970Y165933D01*
X495090Y165019D01*
X495443Y164168D01*
X496004Y163437D01*
X496735Y162876D01*
X497586Y162523D01*
X498500Y162403D01*
X499414Y162523D01*
X500265Y162876D01*
X500996Y163437D01*
X501557Y164168D01*
X501910Y165019D01*
X502030Y165933D01*
X501910Y166847D01*
X501557Y167698D01*
X500996Y168429D01*
X500265Y168990D01*
X499414Y169343D01*
X498500Y169463D01*
D02*
G37*
G36*
X427000Y169539D02*
X425825Y169384D01*
X424731Y168931D01*
X423791Y168209D01*
X423069Y167269D01*
X422616Y166175D01*
X422461Y165000D01*
X422616Y163825D01*
X423069Y162731D01*
X423791Y161791D01*
X424731Y161069D01*
X425825Y160616D01*
X427000Y160461D01*
X428175Y160616D01*
X429269Y161069D01*
X430209Y161791D01*
X430931Y162731D01*
X431384Y163825D01*
X431539Y165000D01*
X431384Y166175D01*
X430931Y167269D01*
X430209Y168209D01*
X429269Y168931D01*
X428175Y169384D01*
X427000Y169539D01*
D02*
G37*
G36*
X162154Y170327D02*
X161371Y170224D01*
X160641Y169922D01*
X160014Y169441D01*
X159533Y168815D01*
X159231Y168085D01*
X159128Y167302D01*
X159231Y166518D01*
X159533Y165789D01*
X160014Y165162D01*
X160641Y164681D01*
X161331Y164395D01*
X161077Y163783D01*
X160974Y163000D01*
X161077Y162217D01*
X161380Y161487D01*
X161860Y160860D01*
X162487Y160380D01*
X163217Y160077D01*
X164000Y159974D01*
X164783Y160077D01*
X165513Y160380D01*
X166140Y160860D01*
X166621Y161487D01*
X166923Y162217D01*
X167026Y163000D01*
X166923Y163783D01*
X166621Y164513D01*
X166140Y165140D01*
X165513Y165621D01*
X164823Y165906D01*
X165077Y166518D01*
X165180Y167302D01*
X165077Y168085D01*
X164774Y168815D01*
X164294Y169441D01*
X163667Y169922D01*
X162937Y170224D01*
X162154Y170327D01*
D02*
G37*
G36*
X151500Y170406D02*
X150717Y170303D01*
X149987Y170001D01*
X149360Y169520D01*
X148880Y168894D01*
X148577Y168164D01*
X148474Y167380D01*
X148577Y166597D01*
X148880Y165868D01*
X148568Y165452D01*
X148160Y165140D01*
X147679Y164513D01*
X147377Y163783D01*
X147274Y163000D01*
X147377Y162217D01*
X147679Y161487D01*
X148160Y160860D01*
X148787Y160380D01*
X149517Y160077D01*
X150300Y159974D01*
X151083Y160077D01*
X151813Y160380D01*
X152440Y160860D01*
X152920Y161487D01*
X153223Y162217D01*
X153326Y163000D01*
X153223Y163783D01*
X153038Y164229D01*
X153013Y164760D01*
X153640Y165241D01*
X154121Y165868D01*
X154423Y166597D01*
X154526Y167380D01*
X154423Y168164D01*
X154121Y168894D01*
X153640Y169520D01*
X153013Y170001D01*
X152283Y170303D01*
X151500Y170406D01*
D02*
G37*
G36*
X268000Y164491D02*
X266838Y164338D01*
X265754Y163890D01*
X264824Y163176D01*
X264110Y162246D01*
X263662Y161162D01*
X263509Y160000D01*
X263662Y158838D01*
X264110Y157754D01*
X264824Y156824D01*
X265754Y156111D01*
X266838Y155662D01*
X268000Y155509D01*
X269162Y155662D01*
X270246Y156111D01*
X271176Y156824D01*
X271889Y157754D01*
X272338Y158838D01*
X272491Y160000D01*
X272338Y161162D01*
X271889Y162246D01*
X271176Y163176D01*
X270246Y163890D01*
X269162Y164338D01*
X268000Y164491D01*
D02*
G37*
G36*
X398626Y163397D02*
X397582Y163259D01*
X396609Y162856D01*
X395773Y162215D01*
X395132Y161379D01*
X394729Y160406D01*
X394591Y159362D01*
X394729Y158318D01*
X395132Y157345D01*
X395773Y156509D01*
X396609Y155868D01*
X397582Y155465D01*
X398626Y155328D01*
X399670Y155465D01*
X400643Y155868D01*
X401479Y156509D01*
X402120Y157345D01*
X402523Y158318D01*
X402661Y159362D01*
X402523Y160406D01*
X402120Y161379D01*
X401479Y162215D01*
X400643Y162856D01*
X399670Y163259D01*
X398626Y163397D01*
D02*
G37*
G36*
X389022Y156570D02*
X387977Y156432D01*
X387004Y156029D01*
X386169Y155388D01*
X385528Y154553D01*
X385336Y154090D01*
X384795D01*
X384557Y154663D01*
X384000Y155389D01*
Y152898D01*
Y150406D01*
X384557Y151133D01*
X384658Y151376D01*
X384694Y151384D01*
X385186Y151344D01*
X385528Y150518D01*
X386169Y149683D01*
X387004Y149041D01*
X387977Y148638D01*
X389022Y148501D01*
X390066Y148638D01*
X391039Y149041D01*
X391875Y149683D01*
X392516Y150518D01*
X392919Y151491D01*
X393056Y152535D01*
X392919Y153580D01*
X392516Y154553D01*
X391875Y155388D01*
X391039Y156029D01*
X390066Y156432D01*
X389022Y156570D01*
D02*
G37*
G36*
X372500Y160035D02*
X371456Y159897D01*
X370483Y159494D01*
X369647Y158853D01*
X369006Y158017D01*
X368603Y157044D01*
X368465Y156000D01*
X368603Y154956D01*
X369006Y153983D01*
X369647Y153147D01*
X370483Y152506D01*
X371456Y152103D01*
X372500Y151965D01*
X373544Y152103D01*
X374517Y152506D01*
X375353Y153147D01*
X375994Y153983D01*
X376397Y154956D01*
X376535Y156000D01*
X376397Y157044D01*
X375994Y158017D01*
X375353Y158853D01*
X374517Y159494D01*
X373544Y159897D01*
X372500Y160035D01*
D02*
G37*
G36*
X184000Y165034D02*
X182956Y164897D01*
X181983Y164494D01*
X181147Y163853D01*
X180506Y163017D01*
X180103Y162044D01*
X179965Y161000D01*
X180103Y159956D01*
X180506Y158983D01*
X181147Y158147D01*
X181246Y158072D01*
X181180Y157576D01*
X180983Y157494D01*
X180147Y156853D01*
X179506Y156017D01*
X179103Y155044D01*
X178965Y154000D01*
X179103Y152956D01*
X179506Y151983D01*
X180147Y151147D01*
X180983Y150506D01*
X181956Y150103D01*
X183000Y149966D01*
X184044Y150103D01*
X185017Y150506D01*
X185853Y151147D01*
X186494Y151983D01*
X186897Y152956D01*
X187034Y154000D01*
X186897Y155044D01*
X186494Y156017D01*
X185853Y156853D01*
X185754Y156928D01*
X185820Y157424D01*
X186017Y157506D01*
X186853Y158147D01*
X187494Y158983D01*
X187897Y159956D01*
X188034Y161000D01*
X187897Y162044D01*
X187494Y163017D01*
X186853Y163853D01*
X186017Y164494D01*
X185044Y164897D01*
X184000Y165034D01*
D02*
G37*
G36*
X494799Y158661D02*
X493624Y158506D01*
X492530Y158053D01*
X491590Y157332D01*
X490869Y156392D01*
X490415Y155297D01*
X490260Y154122D01*
X490415Y152947D01*
X490869Y151853D01*
X491590Y150913D01*
X492530Y150191D01*
X493624Y149738D01*
X494799Y149583D01*
X495974Y149738D01*
X497069Y150191D01*
X498009Y150913D01*
X498730Y151853D01*
X499183Y152947D01*
X499338Y154122D01*
X499183Y155297D01*
X498730Y156392D01*
X498009Y157332D01*
X497069Y158053D01*
X495974Y158506D01*
X494799Y158661D01*
D02*
G37*
G36*
X482988D02*
X481813Y158506D01*
X480719Y158053D01*
X479779Y157332D01*
X479057Y156392D01*
X478604Y155297D01*
X478449Y154122D01*
X478604Y152947D01*
X479057Y151853D01*
X479779Y150913D01*
X480719Y150191D01*
X481813Y149738D01*
X482988Y149583D01*
X484163Y149738D01*
X485258Y150191D01*
X486198Y150913D01*
X486919Y151853D01*
X487372Y152947D01*
X487527Y154122D01*
X487372Y155297D01*
X486919Y156392D01*
X486198Y157332D01*
X485258Y158053D01*
X484163Y158506D01*
X482988Y158661D01*
D02*
G37*
G36*
X365000Y154034D02*
X363956Y153897D01*
X362983Y153494D01*
X362147Y152853D01*
X361506Y152017D01*
X361103Y151044D01*
X360965Y150000D01*
X361103Y148956D01*
X361248Y148606D01*
X360894Y148252D01*
X360544Y148397D01*
X359500Y148535D01*
X358456Y148397D01*
X357483Y147994D01*
X356647Y147353D01*
X356006Y146517D01*
X355603Y145544D01*
X355466Y144500D01*
X355603Y143456D01*
X356006Y142483D01*
X356647Y141647D01*
X357483Y141006D01*
X358456Y140603D01*
X359500Y140465D01*
X360544Y140603D01*
X361517Y141006D01*
X362353Y141647D01*
X362994Y142483D01*
X363397Y143456D01*
X363534Y144500D01*
X363397Y145544D01*
X363252Y145895D01*
X363605Y146248D01*
X363956Y146103D01*
X365000Y145966D01*
X366044Y146103D01*
X367017Y146506D01*
X367853Y147147D01*
X368494Y147983D01*
X368897Y148956D01*
X369035Y150000D01*
X368897Y151044D01*
X368494Y152017D01*
X367853Y152853D01*
X367017Y153494D01*
X366044Y153897D01*
X365000Y154034D01*
D02*
G37*
G36*
X331000Y164034D02*
X329956Y163897D01*
X328983Y163494D01*
X328147Y162853D01*
X327506Y162017D01*
X327103Y161044D01*
X326965Y160000D01*
X327103Y158956D01*
X327506Y157983D01*
X328147Y157147D01*
X328983Y156506D01*
X329956Y156103D01*
X331000Y155965D01*
X332044Y156103D01*
X333017Y156506D01*
X333585Y156942D01*
X333942Y156585D01*
X333506Y156017D01*
X333103Y155044D01*
X332965Y154000D01*
X333103Y152956D01*
X333506Y151983D01*
X334147Y151147D01*
X334983Y150506D01*
X335956Y150103D01*
X337000Y149966D01*
X338044Y150103D01*
X339017Y150506D01*
X339512Y150886D01*
X339981Y150615D01*
X339966Y150500D01*
X340103Y149456D01*
X340506Y148483D01*
X341147Y147647D01*
X341983Y147006D01*
X342956Y146603D01*
X344000Y146466D01*
X345044Y146603D01*
X346017Y147006D01*
X346853Y147647D01*
X347494Y148483D01*
X347897Y149456D01*
X348035Y150500D01*
X347897Y151544D01*
X347494Y152517D01*
X346853Y153353D01*
X346017Y153994D01*
X345044Y154397D01*
X344000Y154534D01*
X342956Y154397D01*
X341983Y153994D01*
X341488Y153614D01*
X341019Y153885D01*
X341035Y154000D01*
X340897Y155044D01*
X340494Y156017D01*
X339853Y156853D01*
X339017Y157494D01*
X338044Y157897D01*
X337000Y158035D01*
X335956Y157897D01*
X334983Y157494D01*
X334415Y157058D01*
X334058Y157415D01*
X334494Y157983D01*
X334897Y158956D01*
X335034Y160000D01*
X334897Y161044D01*
X334494Y162017D01*
X333853Y162853D01*
X333017Y163494D01*
X332044Y163897D01*
X331000Y164034D01*
D02*
G37*
G36*
X272453Y154453D02*
X263547D01*
Y145547D01*
X272453D01*
Y154453D01*
D02*
G37*
G36*
X158870Y144235D02*
X158152Y144140D01*
X157483Y143863D01*
X156909Y143422D01*
X156556D01*
X155982Y143863D01*
X155313Y144140D01*
X154595Y144235D01*
X153877Y144140D01*
X153208Y143863D01*
X152634Y143422D01*
X152193Y142848D01*
X151916Y142179D01*
X151821Y141461D01*
X151916Y140743D01*
X152193Y140074D01*
X152634Y139499D01*
X153208Y139059D01*
X153877Y138782D01*
X154105Y138752D01*
X154326Y138369D01*
X154319Y138219D01*
X154226Y137518D01*
X154321Y136800D01*
X154598Y136131D01*
X155039Y135557D01*
X155613Y135116D01*
X156282Y134839D01*
X157000Y134744D01*
X157718Y134839D01*
X158387Y135116D01*
X158961Y135557D01*
X159402Y136131D01*
X159679Y136800D01*
X159774Y137518D01*
X159679Y138236D01*
X159510Y138646D01*
X159588Y138782D01*
X160257Y139059D01*
X160831Y139499D01*
X161272Y140074D01*
X161549Y140743D01*
X161644Y141461D01*
X161549Y142179D01*
X161272Y142848D01*
X160831Y143422D01*
X160257Y143863D01*
X159588Y144140D01*
X158870Y144235D01*
D02*
G37*
G36*
X351000Y149534D02*
X349956Y149397D01*
X348983Y148994D01*
X348147Y148353D01*
X347506Y147517D01*
X347103Y146544D01*
X346966Y145500D01*
X347103Y144456D01*
X347506Y143483D01*
X348147Y142647D01*
X348983Y142006D01*
X349956Y141603D01*
X351000Y141465D01*
X352044Y141603D01*
X353017Y142006D01*
X353853Y142647D01*
X354494Y143483D01*
X354897Y144456D01*
X355034Y145500D01*
X354897Y146544D01*
X354494Y147517D01*
X353853Y148353D01*
X353017Y148994D01*
X352044Y149397D01*
X351000Y149534D01*
D02*
G37*
G36*
X120788Y148862D02*
X119744Y148724D01*
X118771Y148321D01*
X117935Y147680D01*
X117294Y146845D01*
X116891Y145872D01*
X116754Y144827D01*
X116891Y143783D01*
X117294Y142810D01*
X117935Y141975D01*
X118771Y141333D01*
X119744Y140930D01*
X120788Y140793D01*
X121832Y140930D01*
X122806Y141333D01*
X123641Y141975D01*
X124282Y142810D01*
X124685Y143783D01*
X124823Y144827D01*
X124685Y145872D01*
X124282Y146845D01*
X123641Y147680D01*
X122806Y148321D01*
X121832Y148724D01*
X120788Y148862D01*
D02*
G37*
G36*
X131250Y148653D02*
X130206Y148515D01*
X129233Y148112D01*
X128397Y147471D01*
X127756Y146635D01*
X127353Y145662D01*
X127216Y144618D01*
X127353Y143574D01*
X127756Y142601D01*
X128397Y141765D01*
X129233Y141124D01*
X130206Y140721D01*
X131250Y140584D01*
X132294Y140721D01*
X133267Y141124D01*
X134103Y141765D01*
X134744Y142601D01*
X135147Y143574D01*
X135284Y144618D01*
X135147Y145662D01*
X134744Y146635D01*
X134103Y147471D01*
X133267Y148112D01*
X132294Y148515D01*
X131250Y148653D01*
D02*
G37*
G36*
X198500Y152034D02*
X197456Y151897D01*
X196483Y151494D01*
X195647Y150853D01*
X195006Y150017D01*
X194603Y149044D01*
X194465Y148000D01*
X194603Y146956D01*
X195006Y145983D01*
X195647Y145147D01*
X196483Y144506D01*
X197456Y144103D01*
X198500Y143965D01*
X199544Y144103D01*
X200517Y144506D01*
X201085Y144942D01*
X201554Y144671D01*
X201466Y144000D01*
X201603Y142956D01*
X202006Y141983D01*
X202647Y141147D01*
X203483Y140506D01*
X204456Y140103D01*
X205500Y139965D01*
X206544Y140103D01*
X207517Y140506D01*
X208353Y141147D01*
X208994Y141983D01*
X209397Y142956D01*
X209535Y144000D01*
X209397Y145044D01*
X208994Y146017D01*
X208353Y146853D01*
X207517Y147494D01*
X206544Y147897D01*
X205500Y148035D01*
X204456Y147897D01*
X203483Y147494D01*
X202915Y147058D01*
X202446Y147329D01*
X202535Y148000D01*
X202397Y149044D01*
X201994Y150017D01*
X201353Y150853D01*
X200517Y151494D01*
X199544Y151897D01*
X198500Y152034D01*
D02*
G37*
G36*
X65000Y180500D02*
X19500D01*
Y158500D01*
X33533D01*
X33558Y158000D01*
X32236Y157870D01*
X30539Y157355D01*
X28976Y156519D01*
X27605Y155395D01*
X26481Y154024D01*
X25645Y152461D01*
X25130Y150764D01*
X24957Y149000D01*
X25130Y147236D01*
X25645Y145539D01*
X26481Y143976D01*
X27605Y142605D01*
X28976Y141481D01*
X30539Y140645D01*
X32236Y140130D01*
X34000Y139956D01*
X35764Y140130D01*
X37461Y140645D01*
X39024Y141481D01*
X40395Y142605D01*
X41519Y143976D01*
X42355Y145539D01*
X42870Y147236D01*
X43044Y149000D01*
X42870Y150764D01*
X42355Y152461D01*
X41519Y154024D01*
X40395Y155395D01*
X39024Y156519D01*
X37461Y157355D01*
X35764Y157870D01*
X34442Y158000D01*
X34467Y158500D01*
X65000D01*
Y180500D01*
D02*
G37*
G36*
X434500Y147039D02*
X433325Y146884D01*
X432231Y146431D01*
X431291Y145709D01*
X430569Y144769D01*
X430116Y143675D01*
X429961Y142500D01*
X430116Y141325D01*
X430569Y140231D01*
X431291Y139291D01*
X432231Y138569D01*
X433325Y138116D01*
X434500Y137961D01*
X435675Y138116D01*
X436769Y138569D01*
X437709Y139291D01*
X438431Y140231D01*
X438884Y141325D01*
X439039Y142500D01*
X438884Y143675D01*
X438431Y144769D01*
X437709Y145709D01*
X436769Y146431D01*
X435675Y146884D01*
X434500Y147039D01*
D02*
G37*
G36*
X494799Y146850D02*
X493624Y146695D01*
X492530Y146242D01*
X491590Y145520D01*
X490869Y144580D01*
X490415Y143486D01*
X490260Y142311D01*
X490415Y141136D01*
X490869Y140042D01*
X491590Y139102D01*
X492530Y138380D01*
X493624Y137927D01*
X494799Y137772D01*
X495974Y137927D01*
X497069Y138380D01*
X498009Y139102D01*
X498730Y140042D01*
X499183Y141136D01*
X499338Y142311D01*
X499183Y143486D01*
X498730Y144580D01*
X498009Y145520D01*
X497069Y146242D01*
X495974Y146695D01*
X494799Y146850D01*
D02*
G37*
G36*
X482988D02*
X481813Y146695D01*
X480719Y146242D01*
X479779Y145520D01*
X479057Y144580D01*
X478604Y143486D01*
X478449Y142311D01*
X478604Y141136D01*
X479057Y140042D01*
X479779Y139102D01*
X480719Y138380D01*
X481813Y137927D01*
X482988Y137772D01*
X484163Y137927D01*
X485258Y138380D01*
X486198Y139102D01*
X486919Y140042D01*
X487372Y141136D01*
X487527Y142311D01*
X487372Y143486D01*
X486919Y144580D01*
X486198Y145520D01*
X485258Y146242D01*
X484163Y146695D01*
X482988Y146850D01*
D02*
G37*
G36*
X394126Y141397D02*
X393082Y141259D01*
X392109Y140856D01*
X391273Y140215D01*
X390632Y139379D01*
X390229Y138406D01*
X390091Y137362D01*
X390229Y136318D01*
X390632Y135345D01*
X391273Y134509D01*
X392109Y133868D01*
X393082Y133465D01*
X394126Y133328D01*
X395170Y133465D01*
X396143Y133868D01*
X396979Y134509D01*
X397620Y135345D01*
X398023Y136318D01*
X398161Y137362D01*
X398023Y138406D01*
X397620Y139379D01*
X396979Y140215D01*
X396143Y140856D01*
X395170Y141259D01*
X394126Y141397D01*
D02*
G37*
G36*
X130000Y139534D02*
X128956Y139397D01*
X127983Y138994D01*
X127147Y138353D01*
X126506Y137517D01*
X126103Y136544D01*
X125965Y135500D01*
X126103Y134456D01*
X126506Y133483D01*
X127147Y132647D01*
X127983Y132006D01*
X128956Y131603D01*
X130000Y131465D01*
X131044Y131603D01*
X132017Y132006D01*
X132853Y132647D01*
X133494Y133483D01*
X133897Y134456D01*
X134035Y135500D01*
X133897Y136544D01*
X133494Y137517D01*
X132853Y138353D01*
X132017Y138994D01*
X131044Y139397D01*
X130000Y139534D01*
D02*
G37*
G36*
X316000Y139034D02*
X314956Y138897D01*
X313983Y138494D01*
X313147Y137853D01*
X312506Y137017D01*
X312103Y136044D01*
X311965Y135000D01*
X312103Y133956D01*
X312506Y132983D01*
X313147Y132147D01*
X313983Y131506D01*
X314806Y131165D01*
X314675Y130678D01*
X314647Y130682D01*
X313603Y130544D01*
X312630Y130141D01*
X311794Y129500D01*
X311153Y128664D01*
X310750Y127691D01*
X310613Y126647D01*
X310750Y125603D01*
X311153Y124630D01*
X311794Y123794D01*
X312630Y123153D01*
X313603Y122750D01*
X314647Y122613D01*
X315691Y122750D01*
X316664Y123153D01*
X317500Y123794D01*
X318141Y124630D01*
X318544Y125603D01*
X318682Y126647D01*
X318544Y127691D01*
X318141Y128664D01*
X317500Y129500D01*
X316664Y130141D01*
X315842Y130482D01*
X315972Y130969D01*
X316000Y130965D01*
X317044Y131103D01*
X318017Y131506D01*
X318853Y132147D01*
X319494Y132983D01*
X319897Y133956D01*
X320035Y135000D01*
X319897Y136044D01*
X319494Y137017D01*
X318853Y137853D01*
X318017Y138494D01*
X317044Y138897D01*
X316000Y139034D01*
D02*
G37*
G36*
X17500Y140039D02*
X16325Y139884D01*
X15231Y139431D01*
X14291Y138709D01*
X13569Y137769D01*
X13116Y136675D01*
X12961Y135500D01*
X13116Y134325D01*
X13569Y133231D01*
X14291Y132291D01*
X15231Y131569D01*
X16325Y131116D01*
X17500Y130961D01*
X18675Y131116D01*
X19769Y131569D01*
X20709Y132291D01*
X21431Y133231D01*
X21884Y134325D01*
X22039Y135500D01*
X21884Y136675D01*
X21431Y137769D01*
X20709Y138709D01*
X19769Y139431D01*
X18675Y139884D01*
X17500Y140039D01*
D02*
G37*
G36*
X498500Y134030D02*
X497586Y133910D01*
X496735Y133557D01*
X496004Y132996D01*
X495443Y132265D01*
X495090Y131414D01*
X494970Y130500D01*
X495090Y129586D01*
X495443Y128735D01*
X496004Y128004D01*
X496735Y127443D01*
X497586Y127090D01*
X498500Y126970D01*
X499414Y127090D01*
X500265Y127443D01*
X500996Y128004D01*
X501557Y128735D01*
X501910Y129586D01*
X502030Y130500D01*
X501910Y131414D01*
X501557Y132265D01*
X500996Y132996D01*
X500265Y133557D01*
X499414Y133910D01*
X498500Y134030D01*
D02*
G37*
G36*
X373472Y132208D02*
X372428Y132070D01*
X371455Y131667D01*
X370620Y131026D01*
X369978Y130191D01*
X369575Y129217D01*
X369438Y128173D01*
X369575Y127129D01*
X369978Y126156D01*
X370620Y125320D01*
X371455Y124679D01*
X372428Y124276D01*
X373472Y124139D01*
X374517Y124276D01*
X375490Y124679D01*
X376325Y125320D01*
X376966Y126156D01*
X377369Y127129D01*
X377507Y128173D01*
X377369Y129217D01*
X376966Y130191D01*
X376325Y131026D01*
X375490Y131667D01*
X374517Y132070D01*
X373472Y132208D01*
D02*
G37*
G36*
X386626Y128897D02*
X385582Y128759D01*
X384609Y128356D01*
X383773Y127715D01*
X383132Y126879D01*
X382729Y125906D01*
X382592Y124862D01*
X382729Y123818D01*
X383132Y122845D01*
X383773Y122009D01*
X384609Y121368D01*
X385582Y120965D01*
X386626Y120828D01*
X387670Y120965D01*
X388643Y121368D01*
X389479Y122009D01*
X390120Y122845D01*
X390523Y123818D01*
X390661Y124862D01*
X390523Y125906D01*
X390120Y126879D01*
X389479Y127715D01*
X388643Y128356D01*
X387670Y128759D01*
X386626Y128897D01*
D02*
G37*
G36*
X231000Y126034D02*
X229956Y125897D01*
X228983Y125494D01*
X228147Y124853D01*
X227506Y124017D01*
X227103Y123044D01*
X226965Y122000D01*
X227103Y120956D01*
X227506Y119983D01*
X228147Y119147D01*
X228983Y118506D01*
X229956Y118103D01*
X231000Y117965D01*
X232044Y118103D01*
X233017Y118506D01*
X233853Y119147D01*
X234494Y119983D01*
X234897Y120956D01*
X235034Y122000D01*
X234897Y123044D01*
X234494Y124017D01*
X233853Y124853D01*
X233017Y125494D01*
X232044Y125897D01*
X231000Y126034D01*
D02*
G37*
G36*
X458000Y123618D02*
X456838Y123465D01*
X455754Y123017D01*
X454824Y122303D01*
X454110Y121373D01*
X453662Y120290D01*
X453509Y119127D01*
X453662Y117965D01*
X454110Y116882D01*
X454824Y115951D01*
X455754Y115238D01*
X456838Y114789D01*
X458000Y114636D01*
X459162Y114789D01*
X460246Y115238D01*
X461176Y115951D01*
X461890Y116882D01*
X462338Y117965D01*
X462491Y119127D01*
X462338Y120290D01*
X461890Y121373D01*
X461176Y122303D01*
X460246Y123017D01*
X459162Y123465D01*
X458000Y123618D01*
D02*
G37*
G36*
X498512Y120652D02*
X497598Y120532D01*
X496747Y120179D01*
X496016Y119618D01*
X495455Y118887D01*
X495102Y118036D01*
X494982Y117122D01*
X495102Y116208D01*
X495455Y115357D01*
X496016Y114626D01*
X496747Y114065D01*
X497598Y113712D01*
X498512Y113592D01*
X499426Y113712D01*
X500277Y114065D01*
X501008Y114626D01*
X501569Y115357D01*
X501922Y116208D01*
X502042Y117122D01*
X501922Y118036D01*
X501569Y118887D01*
X501008Y119618D01*
X500277Y120179D01*
X499426Y120532D01*
X498512Y120652D01*
D02*
G37*
G36*
X425126Y117245D02*
X424082Y117108D01*
X423109Y116705D01*
X422273Y116064D01*
X421632Y115228D01*
X421229Y114255D01*
X421092Y113211D01*
X421180Y112536D01*
X421078Y112447D01*
X420708Y112295D01*
X419977Y112856D01*
X419004Y113259D01*
X417959Y113397D01*
X416915Y113259D01*
X415942Y112856D01*
X415107Y112215D01*
X414465Y111379D01*
X414062Y110406D01*
X413925Y109362D01*
X414062Y108318D01*
X414465Y107345D01*
X415107Y106509D01*
X415942Y105868D01*
X416915Y105465D01*
X417959Y105328D01*
X419004Y105465D01*
X419977Y105868D01*
X420812Y106509D01*
X421453Y107345D01*
X421856Y108318D01*
X421994Y109362D01*
X421905Y110037D01*
X422007Y110126D01*
X422378Y110278D01*
X423109Y109717D01*
X424082Y109314D01*
X425126Y109176D01*
X426170Y109314D01*
X427143Y109717D01*
X427979Y110358D01*
X428620Y111194D01*
X429023Y112167D01*
X429160Y113211D01*
X429023Y114255D01*
X428620Y115228D01*
X427979Y116064D01*
X427143Y116705D01*
X426170Y117108D01*
X425126Y117245D01*
D02*
G37*
G36*
X444626Y127397D02*
X443582Y127259D01*
X442609Y126856D01*
X441773Y126215D01*
X441132Y125379D01*
X440729Y124406D01*
X440591Y123362D01*
X440729Y122318D01*
X441132Y121345D01*
X441773Y120509D01*
X442041Y120303D01*
X441912Y119820D01*
X441582Y119777D01*
X440609Y119374D01*
X439773Y118733D01*
X439132Y117897D01*
X438729Y116924D01*
X438591Y115880D01*
X438729Y114836D01*
X439132Y113863D01*
X439773Y113027D01*
X440609Y112386D01*
X441582Y111983D01*
X442626Y111845D01*
X443670Y111983D01*
X444643Y112386D01*
X445479Y113027D01*
X446120Y113863D01*
X446523Y114836D01*
X446661Y115880D01*
X446523Y116924D01*
X446120Y117897D01*
X445479Y118733D01*
X445211Y118939D01*
X445340Y119422D01*
X445670Y119465D01*
X446643Y119868D01*
X447479Y120509D01*
X448120Y121345D01*
X448523Y122318D01*
X448661Y123362D01*
X448523Y124406D01*
X448120Y125379D01*
X447479Y126215D01*
X446643Y126856D01*
X445670Y127259D01*
X444626Y127397D01*
D02*
G37*
G36*
X273000Y119035D02*
X271956Y118897D01*
X270983Y118494D01*
X270147Y117853D01*
X269506Y117017D01*
X269103Y116044D01*
X268966Y115000D01*
X269103Y113956D01*
X269506Y112983D01*
X270147Y112147D01*
X270983Y111506D01*
X271956Y111103D01*
X273000Y110966D01*
X274044Y111103D01*
X275017Y111506D01*
X275853Y112147D01*
X276494Y112983D01*
X276897Y113956D01*
X277034Y115000D01*
X276897Y116044D01*
X276494Y117017D01*
X275853Y117853D01*
X275017Y118494D01*
X274044Y118897D01*
X273000Y119035D01*
D02*
G37*
G36*
X320500Y118035D02*
X319456Y117897D01*
X318483Y117494D01*
X317647Y116853D01*
X317006Y116017D01*
X316603Y115044D01*
X316465Y114000D01*
X316603Y112956D01*
X317006Y111983D01*
X317647Y111147D01*
X318483Y110506D01*
X319456Y110103D01*
X320500Y109966D01*
X321544Y110103D01*
X322517Y110506D01*
X323353Y111147D01*
X323994Y111983D01*
X324397Y112956D01*
X324535Y114000D01*
X324397Y115044D01*
X323994Y116017D01*
X323353Y116853D01*
X322517Y117494D01*
X321544Y117897D01*
X320500Y118035D01*
D02*
G37*
G36*
X302000D02*
X300956Y117897D01*
X299983Y117494D01*
X299147Y116853D01*
X298506Y116017D01*
X298103Y115044D01*
X297966Y114000D01*
X298103Y112956D01*
X298506Y111983D01*
X299147Y111147D01*
X299983Y110506D01*
X300956Y110103D01*
X302000Y109966D01*
X303044Y110103D01*
X304017Y110506D01*
X304853Y111147D01*
X305494Y111983D01*
X305897Y112956D01*
X306034Y114000D01*
X305897Y115044D01*
X305494Y116017D01*
X304853Y116853D01*
X304017Y117494D01*
X303044Y117897D01*
X302000Y118035D01*
D02*
G37*
G36*
X350000Y108624D02*
Y108000D01*
X350624D01*
X350353Y108353D01*
X350000Y108624D01*
D02*
G37*
G36*
X341500Y115534D02*
X340456Y115397D01*
X339483Y114994D01*
X338647Y114353D01*
X338006Y113517D01*
X337603Y112544D01*
X337466Y111500D01*
X337603Y110456D01*
X338006Y109483D01*
X338647Y108647D01*
X339483Y108006D01*
X340456Y107603D01*
X341500Y107466D01*
X342544Y107603D01*
X343517Y108006D01*
X344085Y108442D01*
X344442Y108085D01*
X344376Y108000D01*
X345000D01*
Y108624D01*
X344915Y108558D01*
X344558Y108915D01*
X344994Y109483D01*
X345397Y110456D01*
X345534Y111500D01*
X345397Y112544D01*
X344994Y113517D01*
X344353Y114353D01*
X343517Y114994D01*
X342544Y115397D01*
X341500Y115534D01*
D02*
G37*
G36*
X458000Y113618D02*
X456838Y113465D01*
X455754Y113017D01*
X454824Y112303D01*
X454110Y111373D01*
X453662Y110290D01*
X453509Y109127D01*
X453662Y107965D01*
X454110Y106882D01*
X454824Y105951D01*
X455754Y105238D01*
X456838Y104789D01*
X458000Y104636D01*
X459162Y104789D01*
X460246Y105238D01*
X461176Y105951D01*
X461890Y106882D01*
X462338Y107965D01*
X462491Y109127D01*
X462338Y110290D01*
X461890Y111373D01*
X461176Y112303D01*
X460246Y113017D01*
X459162Y113465D01*
X458000Y113618D01*
D02*
G37*
G36*
X224000Y112534D02*
X222956Y112397D01*
X221983Y111994D01*
X221147Y111353D01*
X220506Y110517D01*
X220103Y109544D01*
X219966Y108500D01*
X220103Y107456D01*
X220506Y106483D01*
X221147Y105647D01*
X221983Y105006D01*
X222956Y104603D01*
X224000Y104465D01*
X225044Y104603D01*
X226017Y105006D01*
X226853Y105647D01*
X227494Y106483D01*
X227897Y107456D01*
X228034Y108500D01*
X227897Y109544D01*
X227494Y110517D01*
X226853Y111353D01*
X226017Y111994D01*
X225044Y112397D01*
X224000Y112534D01*
D02*
G37*
G36*
X384126Y112397D02*
X383082Y112259D01*
X382109Y111856D01*
X381273Y111215D01*
X380632Y110379D01*
X380229Y109406D01*
X380092Y108362D01*
X380229Y107318D01*
X380632Y106345D01*
X381273Y105509D01*
X382109Y104868D01*
X383082Y104465D01*
X384126Y104328D01*
X385170Y104465D01*
X386143Y104868D01*
X386979Y105509D01*
X387620Y106345D01*
X388023Y107318D01*
X388160Y108362D01*
X388023Y109406D01*
X387620Y110379D01*
X386979Y111215D01*
X386143Y111856D01*
X385170Y112259D01*
X384126Y112397D01*
D02*
G37*
G36*
X156000Y111535D02*
X154956Y111397D01*
X153983Y110994D01*
X153147Y110353D01*
X152506Y109517D01*
X152103Y108544D01*
X151965Y107500D01*
X152103Y106456D01*
X152506Y105483D01*
X153147Y104647D01*
X153983Y104006D01*
X154956Y103603D01*
X156000Y103465D01*
X157044Y103603D01*
X158017Y104006D01*
X158853Y104647D01*
X159494Y105483D01*
X159897Y106456D01*
X160035Y107500D01*
X159897Y108544D01*
X159494Y109517D01*
X158853Y110353D01*
X158017Y110994D01*
X157044Y111397D01*
X156000Y111535D01*
D02*
G37*
G36*
X434000Y111539D02*
X432825Y111384D01*
X431731Y110931D01*
X430791Y110209D01*
X430069Y109269D01*
X429616Y108175D01*
X429461Y107000D01*
X429616Y105825D01*
X430069Y104731D01*
X430791Y103791D01*
X431731Y103069D01*
X432825Y102616D01*
X434000Y102461D01*
X435175Y102616D01*
X436269Y103069D01*
X437209Y103791D01*
X437931Y104731D01*
X438384Y105825D01*
X438539Y107000D01*
X438384Y108175D01*
X437931Y109269D01*
X437209Y110209D01*
X436269Y110931D01*
X435175Y111384D01*
X434000Y111539D01*
D02*
G37*
G36*
X350624Y103000D02*
X350000D01*
Y102376D01*
X350353Y102647D01*
X350624Y103000D01*
D02*
G37*
G36*
X345000D02*
X344376D01*
X344647Y102647D01*
X345000Y102376D01*
Y103000D01*
D02*
G37*
G36*
X494811Y109850D02*
X493636Y109695D01*
X492542Y109242D01*
X491602Y108520D01*
X490880Y107580D01*
X490427Y106486D01*
X490272Y105311D01*
X490427Y104136D01*
X490880Y103042D01*
X491602Y102102D01*
X492542Y101380D01*
X493636Y100927D01*
X494811Y100772D01*
X495986Y100927D01*
X497080Y101380D01*
X498021Y102102D01*
X498742Y103042D01*
X499195Y104136D01*
X499350Y105311D01*
X499195Y106486D01*
X498742Y107580D01*
X498021Y108520D01*
X497080Y109242D01*
X495986Y109695D01*
X494811Y109850D01*
D02*
G37*
G36*
X483000D02*
X481825Y109695D01*
X480731Y109242D01*
X479791Y108520D01*
X479069Y107580D01*
X478616Y106486D01*
X478461Y105311D01*
X478616Y104136D01*
X479069Y103042D01*
X479791Y102102D01*
X480731Y101380D01*
X481825Y100927D01*
X483000Y100772D01*
X484175Y100927D01*
X485269Y101380D01*
X486209Y102102D01*
X486931Y103042D01*
X487384Y104136D01*
X487539Y105311D01*
X487384Y106486D01*
X486931Y107580D01*
X486209Y108520D01*
X485269Y109242D01*
X484175Y109695D01*
X483000Y109850D01*
D02*
G37*
G36*
X432000Y97030D02*
X431086Y96910D01*
X430235Y96557D01*
X429896Y96297D01*
X429500Y95999D01*
X429104Y96297D01*
X428765Y96557D01*
X427914Y96910D01*
X427000Y97030D01*
X426086Y96910D01*
X425235Y96557D01*
X424504Y95996D01*
X423943Y95265D01*
X423590Y94414D01*
X423470Y93500D01*
X423590Y92586D01*
X423943Y91735D01*
X424504Y91004D01*
Y90996D01*
X423943Y90265D01*
X423590Y89414D01*
X423470Y88500D01*
X423590Y87586D01*
X423943Y86735D01*
X424504Y86004D01*
Y85996D01*
X423943Y85265D01*
X423590Y84414D01*
X423470Y83500D01*
X423590Y82586D01*
X423943Y81735D01*
X424504Y81004D01*
Y80996D01*
X423943Y80265D01*
X423590Y79414D01*
X423470Y78500D01*
X423590Y77586D01*
X423943Y76735D01*
X424504Y76004D01*
Y75996D01*
X423943Y75265D01*
X423590Y74414D01*
X423470Y73500D01*
X423590Y72586D01*
X423943Y71735D01*
X424504Y71004D01*
X425235Y70443D01*
X426086Y70090D01*
X427000Y69970D01*
X427914Y70090D01*
X428538Y70349D01*
X429000Y70500D01*
X429000Y70500D01*
X429000Y70500D01*
X429500D01*
Y71008D01*
X430057Y71735D01*
X430410Y72586D01*
X430530Y73500D01*
X432000D01*
Y74970D01*
X432914Y75090D01*
X433765Y75443D01*
X434492Y76000D01*
X435000D01*
Y76500D01*
X435000Y76500D01*
X435143Y76941D01*
X435410Y77586D01*
X435530Y78500D01*
X435410Y79414D01*
X435057Y80265D01*
X434496Y80996D01*
Y81004D01*
X435057Y81735D01*
X435410Y82586D01*
X435530Y83500D01*
X435410Y84414D01*
X435057Y85265D01*
X434496Y85996D01*
Y86004D01*
X435057Y86735D01*
X435410Y87586D01*
X435530Y88500D01*
X435410Y89414D01*
X435057Y90265D01*
X434496Y90996D01*
Y91004D01*
X435057Y91735D01*
X435410Y92586D01*
X435530Y93500D01*
X435410Y94414D01*
X435057Y95265D01*
X434496Y95996D01*
X433765Y96557D01*
X432914Y96910D01*
X432000Y97030D01*
D02*
G37*
G36*
X232857Y96124D02*
Y95500D01*
X233481D01*
X233210Y95853D01*
X232857Y96124D01*
D02*
G37*
G36*
X227857D02*
X227505Y95853D01*
X227234Y95500D01*
X227857D01*
Y96124D01*
D02*
G37*
G36*
X462453Y103580D02*
X453547D01*
Y94674D01*
X462453D01*
Y103580D01*
D02*
G37*
G36*
X33800Y110844D02*
X32036Y110670D01*
X30339Y110155D01*
X28776Y109319D01*
X27405Y108195D01*
X26281Y106824D01*
X25445Y105261D01*
X24930Y103564D01*
X24757Y101800D01*
X24930Y100036D01*
X25445Y98339D01*
X26281Y96776D01*
X27405Y95405D01*
X28776Y94281D01*
X30339Y93445D01*
X32036Y92930D01*
X33800Y92756D01*
X35564Y92930D01*
X37261Y93445D01*
X38824Y94281D01*
X40195Y95405D01*
X41319Y96776D01*
X42155Y98339D01*
X42670Y100036D01*
X42843Y101800D01*
X42670Y103564D01*
X42155Y105261D01*
X41319Y106824D01*
X40195Y108195D01*
X38824Y109319D01*
X37261Y110155D01*
X35564Y110670D01*
X33800Y110844D01*
D02*
G37*
G36*
X233481Y90500D02*
X232857D01*
Y89876D01*
X233210Y90147D01*
X233481Y90500D01*
D02*
G37*
G36*
X227857D02*
X227234D01*
X227505Y90147D01*
X227857Y89876D01*
Y90500D01*
D02*
G37*
G36*
X381626Y97897D02*
X380582Y97759D01*
X379609Y97356D01*
X378773Y96715D01*
X378132Y95879D01*
X377729Y94906D01*
X377591Y93862D01*
X377729Y92818D01*
X378132Y91845D01*
X378773Y91009D01*
X379609Y90368D01*
X380582Y89965D01*
X381626Y89828D01*
X382670Y89965D01*
X383643Y90368D01*
X384479Y91009D01*
X385120Y91845D01*
X385523Y92818D01*
X385661Y93862D01*
X385523Y94906D01*
X385120Y95879D01*
X384479Y96715D01*
X383643Y97356D01*
X382670Y97759D01*
X381626Y97897D01*
D02*
G37*
G36*
X494811Y98039D02*
X493636Y97884D01*
X492542Y97431D01*
X491602Y96709D01*
X490880Y95769D01*
X490427Y94675D01*
X490272Y93500D01*
X490427Y92325D01*
X490880Y91231D01*
X491602Y90291D01*
X492542Y89569D01*
X493636Y89116D01*
X494811Y88961D01*
X495986Y89116D01*
X497080Y89569D01*
X498021Y90291D01*
X498742Y91231D01*
X499195Y92325D01*
X499350Y93500D01*
X499195Y94675D01*
X498742Y95769D01*
X498021Y96709D01*
X497080Y97431D01*
X495986Y97884D01*
X494811Y98039D01*
D02*
G37*
G36*
X483000D02*
X481825Y97884D01*
X480731Y97431D01*
X479791Y96709D01*
X479069Y95769D01*
X478616Y94675D01*
X478461Y93500D01*
X478616Y92325D01*
X479069Y91231D01*
X479791Y90291D01*
X480731Y89569D01*
X481825Y89116D01*
X483000Y88961D01*
X484175Y89116D01*
X485269Y89569D01*
X486209Y90291D01*
X486931Y91231D01*
X487384Y92325D01*
X487539Y93500D01*
X487384Y94675D01*
X486931Y95769D01*
X486209Y96709D01*
X485269Y97431D01*
X484175Y97884D01*
X483000Y98039D01*
D02*
G37*
G36*
X178500Y86124D02*
Y85500D01*
X179124D01*
X178853Y85853D01*
X178500Y86124D01*
D02*
G37*
G36*
X173500D02*
X173147Y85853D01*
X172876Y85500D01*
X173500D01*
Y86124D01*
D02*
G37*
G36*
X118500Y92535D02*
X117456Y92397D01*
X116483Y91994D01*
X115647Y91353D01*
X115006Y90517D01*
X114603Y89544D01*
X114465Y88500D01*
X114603Y87456D01*
X115006Y86483D01*
X115647Y85647D01*
X116483Y85006D01*
X117456Y84603D01*
X118500Y84465D01*
X119544Y84603D01*
X120517Y85006D01*
X121353Y85647D01*
X121994Y86483D01*
X122397Y87456D01*
X122535Y88500D01*
X122397Y89544D01*
X121994Y90517D01*
X121353Y91353D01*
X120517Y91994D01*
X119544Y92397D01*
X118500Y92535D01*
D02*
G37*
G36*
X368000Y92539D02*
X366825Y92384D01*
X365731Y91931D01*
X364791Y91209D01*
X364069Y90269D01*
X363616Y89175D01*
X363461Y88000D01*
X363616Y86825D01*
X364069Y85731D01*
X364791Y84791D01*
X365731Y84069D01*
X366825Y83616D01*
X368000Y83461D01*
X369175Y83616D01*
X370269Y84069D01*
X371209Y84791D01*
X371931Y85731D01*
X372384Y86825D01*
X372539Y88000D01*
X372384Y89175D01*
X371931Y90269D01*
X371209Y91209D01*
X370269Y91931D01*
X369175Y92384D01*
X368000Y92539D01*
D02*
G37*
G36*
X212763Y95034D02*
X211718Y94897D01*
X210745Y94494D01*
X209910Y93853D01*
X209269Y93017D01*
X208865Y92044D01*
X208728Y91000D01*
X208865Y89956D01*
X209269Y88983D01*
X209910Y88147D01*
X210745Y87506D01*
X211350Y87255D01*
X211400Y87188D01*
X211495Y86654D01*
X211006Y86017D01*
X210603Y85044D01*
X210466Y84000D01*
X210603Y82956D01*
X211006Y81983D01*
X211647Y81147D01*
X212483Y80506D01*
X213456Y80103D01*
X214500Y79966D01*
X215544Y80103D01*
X216517Y80506D01*
X217353Y81147D01*
X217994Y81983D01*
X218397Y82956D01*
X218534Y84000D01*
X218397Y85044D01*
X217994Y86017D01*
X217353Y86853D01*
X216517Y87494D01*
X215912Y87745D01*
X215862Y87812D01*
X215768Y88346D01*
X216257Y88983D01*
X216660Y89956D01*
X216797Y91000D01*
X216660Y92044D01*
X216257Y93017D01*
X215615Y93853D01*
X214780Y94494D01*
X213807Y94897D01*
X212763Y95034D01*
D02*
G37*
G36*
X70500Y89039D02*
X69325Y88884D01*
X68231Y88431D01*
X67291Y87709D01*
X66569Y86769D01*
X66116Y85675D01*
X65961Y84500D01*
X66116Y83325D01*
X66569Y82231D01*
X67291Y81291D01*
X68231Y80569D01*
X69325Y80116D01*
X70500Y79961D01*
X71675Y80116D01*
X72769Y80569D01*
X73709Y81291D01*
X74431Y82231D01*
X74884Y83325D01*
X75039Y84500D01*
X74884Y85675D01*
X74431Y86769D01*
X73709Y87709D01*
X72769Y88431D01*
X71675Y88884D01*
X70500Y89039D01*
D02*
G37*
G36*
X179124Y80500D02*
X178500D01*
Y79876D01*
X178853Y80147D01*
X179124Y80500D01*
D02*
G37*
G36*
X173500D02*
X172876D01*
X173147Y80147D01*
X173500Y79876D01*
Y80500D01*
D02*
G37*
G36*
X104000Y87539D02*
X102825Y87384D01*
X101731Y86931D01*
X100791Y86209D01*
X100069Y85269D01*
X99616Y84175D01*
X99461Y83000D01*
X99616Y81825D01*
X100069Y80731D01*
X100791Y79791D01*
X101731Y79069D01*
X102825Y78616D01*
X104000Y78461D01*
X105175Y78616D01*
X106269Y79069D01*
X107209Y79791D01*
X107931Y80731D01*
X108384Y81825D01*
X108539Y83000D01*
X108384Y84175D01*
X107931Y85269D01*
X107209Y86209D01*
X106269Y86931D01*
X105175Y87384D01*
X104000Y87539D01*
D02*
G37*
G36*
X498512Y85219D02*
X497598Y85099D01*
X496747Y84746D01*
X496016Y84185D01*
X495455Y83454D01*
X495102Y82603D01*
X494982Y81689D01*
X495102Y80775D01*
X495455Y79924D01*
X496016Y79193D01*
X496747Y78632D01*
X497598Y78279D01*
X498512Y78159D01*
X499426Y78279D01*
X500277Y78632D01*
X501008Y79193D01*
X501569Y79924D01*
X501922Y80775D01*
X502042Y81689D01*
X501922Y82603D01*
X501569Y83454D01*
X501008Y84185D01*
X500277Y84746D01*
X499426Y85099D01*
X498512Y85219D01*
D02*
G37*
G36*
X253000Y80534D02*
X251956Y80397D01*
X250983Y79994D01*
X250147Y79353D01*
X249506Y78517D01*
X249103Y77544D01*
X248966Y76500D01*
X249103Y75456D01*
X249506Y74483D01*
X250147Y73647D01*
X250983Y73006D01*
X251956Y72603D01*
X253000Y72465D01*
X254044Y72603D01*
X255017Y73006D01*
X255853Y73647D01*
X256494Y74483D01*
X256897Y75456D01*
X257034Y76500D01*
X256897Y77544D01*
X256494Y78517D01*
X255853Y79353D01*
X255017Y79994D01*
X254044Y80397D01*
X253000Y80534D01*
D02*
G37*
G36*
X60000Y91000D02*
X23000D01*
Y71500D01*
X60000D01*
Y91000D01*
D02*
G37*
G36*
X298000Y79035D02*
X296956Y78897D01*
X295983Y78494D01*
X295147Y77853D01*
X294506Y77017D01*
X294103Y76044D01*
X293966Y75000D01*
X294103Y73956D01*
X294506Y72983D01*
X295147Y72147D01*
X295983Y71506D01*
X296956Y71103D01*
X298000Y70965D01*
X299044Y71103D01*
X300017Y71506D01*
X300853Y72147D01*
X301494Y72983D01*
X301897Y73956D01*
X302034Y75000D01*
X301897Y76044D01*
X301494Y77017D01*
X300853Y77853D01*
X300017Y78494D01*
X299044Y78897D01*
X298000Y79035D01*
D02*
G37*
G36*
X435000Y71000D02*
X434500D01*
Y70500D01*
X435000D01*
Y71000D01*
D02*
G37*
G36*
X240500Y78535D02*
X239456Y78397D01*
X238483Y77994D01*
X237647Y77353D01*
X237006Y76517D01*
X236603Y75544D01*
X236466Y74500D01*
X236603Y73456D01*
X237006Y72483D01*
X237647Y71647D01*
X238483Y71006D01*
X239456Y70603D01*
X240500Y70465D01*
X241544Y70603D01*
X242517Y71006D01*
X243353Y71647D01*
X243994Y72483D01*
X244397Y73456D01*
X244534Y74500D01*
X244397Y75544D01*
X243994Y76517D01*
X243353Y77353D01*
X242517Y77994D01*
X241544Y78397D01*
X240500Y78535D01*
D02*
G37*
G36*
X499000Y73578D02*
X497839Y73425D01*
X496756Y72977D01*
X495827Y72263D01*
X495114Y71334D01*
X494666Y70252D01*
X494513Y69091D01*
X494666Y67929D01*
X495114Y66847D01*
X495827Y65918D01*
X496756Y65205D01*
X497839Y64756D01*
X499000Y64603D01*
X500161Y64756D01*
X501244Y65205D01*
X502173Y65918D01*
X502886Y66847D01*
X503334Y67929D01*
X503487Y69091D01*
X503334Y70252D01*
X502886Y71334D01*
X502173Y72263D01*
X501244Y72977D01*
X500161Y73425D01*
X499000Y73578D01*
D02*
G37*
G36*
X481284D02*
X480122Y73425D01*
X479040Y72977D01*
X478111Y72263D01*
X477397Y71334D01*
X476949Y70252D01*
X476796Y69091D01*
X476949Y67929D01*
X477397Y66847D01*
X478111Y65918D01*
X479040Y65205D01*
X480122Y64756D01*
X481284Y64603D01*
X482445Y64756D01*
X483527Y65205D01*
X484456Y65918D01*
X485170Y66847D01*
X485618Y67929D01*
X485771Y69091D01*
X485618Y70252D01*
X485170Y71334D01*
X484456Y72263D01*
X483527Y72977D01*
X482445Y73425D01*
X481284Y73578D01*
D02*
G37*
G36*
X178000Y74035D02*
X176956Y73897D01*
X175983Y73494D01*
X175147Y72853D01*
X174506Y72017D01*
X174103Y71044D01*
X173966Y70000D01*
X174103Y68956D01*
X174506Y67983D01*
X175147Y67147D01*
X175983Y66506D01*
X176956Y66103D01*
X178000Y65965D01*
X179044Y66103D01*
X180017Y66506D01*
X180230Y66669D01*
X180713Y66540D01*
X180944Y65983D01*
X181585Y65147D01*
X182421Y64506D01*
X183394Y64103D01*
X184438Y63965D01*
X185482Y64103D01*
X186456Y64506D01*
X187291Y65147D01*
X187932Y65983D01*
X188335Y66956D01*
X188473Y68000D01*
X188335Y69044D01*
X187932Y70017D01*
X187291Y70853D01*
X186456Y71494D01*
X185482Y71897D01*
X184438Y72035D01*
X183394Y71897D01*
X182421Y71494D01*
X182208Y71330D01*
X181725Y71460D01*
X181494Y72017D01*
X180853Y72853D01*
X180017Y73494D01*
X179044Y73897D01*
X178000Y74035D01*
D02*
G37*
G36*
X419500Y56539D02*
X418325Y56384D01*
X417231Y55931D01*
X416291Y55209D01*
X415569Y54269D01*
X415116Y53175D01*
X414961Y52000D01*
X415116Y50825D01*
X415569Y49731D01*
X416291Y48791D01*
X417231Y48069D01*
X418325Y47616D01*
X419500Y47461D01*
X420675Y47616D01*
X421769Y48069D01*
X422709Y48791D01*
X423431Y49731D01*
X423884Y50825D01*
X424039Y52000D01*
X423884Y53175D01*
X423431Y54269D01*
X422709Y55209D01*
X421769Y55931D01*
X420675Y56384D01*
X419500Y56539D01*
D02*
G37*
G36*
X303500Y54535D02*
X302456Y54397D01*
X301483Y53994D01*
X300647Y53353D01*
X300006Y52517D01*
X299603Y51544D01*
X299465Y50500D01*
X299603Y49456D01*
X300006Y48483D01*
X300647Y47647D01*
X301483Y47006D01*
X302456Y46603D01*
X303500Y46466D01*
X304544Y46603D01*
X305517Y47006D01*
X306353Y47647D01*
X306994Y48483D01*
X307397Y49456D01*
X307535Y50500D01*
X307397Y51544D01*
X306994Y52517D01*
X306353Y53353D01*
X305517Y53994D01*
X304544Y54397D01*
X303500Y54535D01*
D02*
G37*
G36*
X387000Y50034D02*
X385956Y49897D01*
X384983Y49494D01*
X384147Y48853D01*
X383506Y48017D01*
X383103Y47044D01*
X382965Y46000D01*
X383103Y44956D01*
X383506Y43983D01*
X384147Y43147D01*
X384983Y42506D01*
X385956Y42103D01*
X387000Y41965D01*
X388044Y42103D01*
X389017Y42506D01*
X389853Y43147D01*
X390494Y43983D01*
X390897Y44956D01*
X391035Y46000D01*
X390897Y47044D01*
X390494Y48017D01*
X389853Y48853D01*
X389017Y49494D01*
X388044Y49897D01*
X387000Y50034D01*
D02*
G37*
G36*
X333500Y49539D02*
X332325Y49384D01*
X331231Y48931D01*
X330291Y48209D01*
X329569Y47269D01*
X329116Y46175D01*
X328961Y45000D01*
X329116Y43825D01*
X329569Y42731D01*
X330291Y41791D01*
X331231Y41069D01*
X332325Y40616D01*
X333500Y40461D01*
X334675Y40616D01*
X335769Y41069D01*
X336709Y41791D01*
X337431Y42731D01*
X337884Y43825D01*
X338039Y45000D01*
X337884Y46175D01*
X337431Y47269D01*
X336709Y48209D01*
X335769Y48931D01*
X334675Y49384D01*
X333500Y49539D01*
D02*
G37*
G36*
X499000Y47987D02*
X497839Y47834D01*
X496756Y47386D01*
X495827Y46673D01*
X495114Y45744D01*
X494666Y44661D01*
X494513Y43500D01*
X494666Y42339D01*
X495114Y41256D01*
X495827Y40327D01*
X496756Y39614D01*
X497839Y39166D01*
X499000Y39013D01*
X500161Y39166D01*
X501244Y39614D01*
X502173Y40327D01*
X502886Y41256D01*
X503334Y42339D01*
X503487Y43500D01*
X503334Y44661D01*
X502886Y45744D01*
X502173Y46673D01*
X501244Y47386D01*
X500161Y47834D01*
X499000Y47987D01*
D02*
G37*
G36*
X481284D02*
X480122Y47834D01*
X479040Y47386D01*
X478111Y46673D01*
X477397Y45744D01*
X476949Y44661D01*
X476796Y43500D01*
X476949Y42339D01*
X477397Y41256D01*
X478111Y40327D01*
X479040Y39614D01*
X480122Y39166D01*
X481284Y39013D01*
X482445Y39166D01*
X483527Y39614D01*
X484456Y40327D01*
X485170Y41256D01*
X485618Y42339D01*
X485771Y43500D01*
X485618Y44661D01*
X485170Y45744D01*
X484456Y46673D01*
X483527Y47386D01*
X482445Y47834D01*
X481284Y47987D01*
D02*
G37*
G36*
X459500Y48039D02*
X458325Y47884D01*
X457231Y47431D01*
X456291Y46709D01*
X455569Y45769D01*
X455116Y44675D01*
X454961Y43500D01*
X455116Y42325D01*
X455569Y41231D01*
X456291Y40291D01*
X457231Y39569D01*
X458325Y39116D01*
X459500Y38961D01*
X460675Y39116D01*
X461769Y39569D01*
X462709Y40291D01*
X463431Y41231D01*
X463884Y42325D01*
X464039Y43500D01*
X463884Y44675D01*
X463431Y45769D01*
X462709Y46709D01*
X461769Y47431D01*
X460675Y47884D01*
X459500Y48039D01*
D02*
G37*
G36*
X435000Y47039D02*
X433825Y46884D01*
X432731Y46431D01*
X431791Y45709D01*
X431069Y44769D01*
X430616Y43675D01*
X430461Y42500D01*
X430616Y41325D01*
X431069Y40231D01*
X431791Y39291D01*
X432731Y38569D01*
X433825Y38116D01*
X435000Y37961D01*
X436175Y38116D01*
X437269Y38569D01*
X438209Y39291D01*
X438931Y40231D01*
X439384Y41325D01*
X439539Y42500D01*
X439384Y43675D01*
X438931Y44769D01*
X438209Y45709D01*
X437269Y46431D01*
X436175Y46884D01*
X435000Y47039D01*
D02*
G37*
G36*
X271000Y44395D02*
X269956Y44257D01*
X268983Y43854D01*
X268147Y43213D01*
X267506Y42378D01*
X267103Y41405D01*
X266966Y40360D01*
X267103Y39316D01*
X267506Y38343D01*
X268147Y37508D01*
X268983Y36866D01*
X269956Y36463D01*
X271000Y36326D01*
X272044Y36463D01*
X273017Y36866D01*
X273853Y37508D01*
X274494Y38343D01*
X274897Y39316D01*
X275034Y40360D01*
X274897Y41405D01*
X274494Y42378D01*
X273853Y43213D01*
X273017Y43854D01*
X272044Y44257D01*
X271000Y44395D01*
D02*
G37*
G36*
X244216Y42539D02*
X243042Y42384D01*
X241947Y41931D01*
X241007Y41209D01*
X240286Y40269D01*
X239832Y39175D01*
X239678Y38000D01*
X239832Y36825D01*
X240286Y35731D01*
X241007Y34791D01*
X241947Y34069D01*
X243042Y33616D01*
X244216Y33461D01*
X245391Y33616D01*
X246486Y34069D01*
X247426Y34791D01*
X248147Y35731D01*
X248601Y36825D01*
X248755Y38000D01*
X248601Y39175D01*
X248147Y40269D01*
X247426Y41209D01*
X246486Y41931D01*
X245391Y42384D01*
X244216Y42539D01*
D02*
G37*
G36*
X331698Y40034D02*
X330653Y39897D01*
X329680Y39494D01*
X328845Y38853D01*
X328204Y38017D01*
X327801Y37044D01*
X327663Y36000D01*
X327801Y34956D01*
X328204Y33983D01*
X328845Y33147D01*
X329680Y32506D01*
X330653Y32103D01*
X331698Y31966D01*
X332742Y32103D01*
X333715Y32506D01*
X334550Y33147D01*
X335192Y33983D01*
X335595Y34956D01*
X335732Y36000D01*
X335595Y37044D01*
X335192Y38017D01*
X334550Y38853D01*
X333715Y39494D01*
X332742Y39897D01*
X331698Y40034D01*
D02*
G37*
G36*
X227700Y39735D02*
X226656Y39597D01*
X225683Y39194D01*
X224847Y38553D01*
X224206Y37717D01*
X223803Y36744D01*
X223665Y35700D01*
X223803Y34656D01*
X224206Y33683D01*
X224847Y32847D01*
X225683Y32206D01*
X226656Y31803D01*
X227700Y31666D01*
X228744Y31803D01*
X229717Y32206D01*
X230553Y32847D01*
X231194Y33683D01*
X231597Y34656D01*
X231734Y35700D01*
X231597Y36744D01*
X231194Y37717D01*
X230553Y38553D01*
X229717Y39194D01*
X228744Y39597D01*
X227700Y39735D01*
D02*
G37*
G36*
X171761Y35274D02*
X170717Y35136D01*
X169744Y34733D01*
X168908Y34092D01*
X168267Y33256D01*
X167864Y32283D01*
X167726Y31239D01*
X167864Y30195D01*
X168267Y29222D01*
X168908Y28386D01*
X169744Y27745D01*
X170717Y27342D01*
X171761Y27205D01*
X172805Y27342D01*
X173778Y27745D01*
X174614Y28386D01*
X175255Y29222D01*
X175658Y30195D01*
X175795Y31239D01*
X175658Y32283D01*
X175255Y33256D01*
X174614Y34092D01*
X173778Y34733D01*
X172805Y35136D01*
X171761Y35274D01*
D02*
G37*
G36*
X60000Y62500D02*
X22000D01*
Y41495D01*
X21505Y41000D01*
X26763D01*
X26999Y40500D01*
X26281Y39624D01*
X25445Y38061D01*
X24930Y36364D01*
X24757Y34600D01*
X24930Y32836D01*
X25445Y31139D01*
X26281Y29576D01*
X27405Y28205D01*
X28776Y27081D01*
X30339Y26245D01*
X32036Y25730D01*
X33800Y25556D01*
X35564Y25730D01*
X37261Y26245D01*
X38824Y27081D01*
X40195Y28205D01*
X41319Y29576D01*
X42155Y31139D01*
X42670Y32836D01*
X42843Y34600D01*
X42670Y36364D01*
X42155Y38061D01*
X41319Y39624D01*
X40601Y40500D01*
X40837Y41000D01*
X61000D01*
Y61500D01*
X60000Y62500D01*
D02*
G37*
G36*
X308000Y30035D02*
X306956Y29897D01*
X305983Y29494D01*
X305147Y28853D01*
X304506Y28017D01*
X304103Y27044D01*
X303965Y26000D01*
X304103Y24956D01*
X304506Y23983D01*
X305147Y23147D01*
X305983Y22506D01*
X306956Y22103D01*
X308000Y21966D01*
X309044Y22103D01*
X310017Y22506D01*
X310853Y23147D01*
X311494Y23983D01*
X311897Y24956D01*
X312035Y26000D01*
X311897Y27044D01*
X311494Y28017D01*
X310853Y28853D01*
X310017Y29494D01*
X309044Y29897D01*
X308000Y30035D01*
D02*
G37*
G36*
X300162Y26234D02*
X299118Y26097D01*
X298145Y25694D01*
X297309Y25053D01*
X296668Y24217D01*
X296265Y23244D01*
X296127Y22200D01*
X296213Y21546D01*
X296053Y21417D01*
X295741Y21303D01*
X294994Y21876D01*
X294021Y22279D01*
X292977Y22416D01*
X291933Y22279D01*
X290959Y21876D01*
X290124Y21235D01*
X289483Y20399D01*
X289080Y19426D01*
X288942Y18382D01*
X289080Y17338D01*
X289483Y16365D01*
X290124Y15529D01*
X290959Y14888D01*
X291933Y14485D01*
X292977Y14347D01*
X294021Y14485D01*
X294994Y14888D01*
X295830Y15529D01*
X296471Y16365D01*
X296874Y17338D01*
X297011Y18382D01*
X296925Y19035D01*
X297085Y19165D01*
X297397Y19279D01*
X298145Y18706D01*
X299118Y18303D01*
X300162Y18166D01*
X301206Y18303D01*
X302179Y18706D01*
X303015Y19347D01*
X303656Y20183D01*
X304059Y21156D01*
X304196Y22200D01*
X304059Y23244D01*
X303656Y24217D01*
X303015Y25053D01*
X302179Y25694D01*
X301206Y26097D01*
X300162Y26234D01*
D02*
G37*
G36*
X254500Y28034D02*
X253456Y27897D01*
X252483Y27494D01*
X251647Y26853D01*
X251006Y26017D01*
X250603Y25044D01*
X250465Y24000D01*
X250603Y22956D01*
X251006Y21983D01*
X251647Y21147D01*
X252483Y20506D01*
X253456Y20103D01*
X254500Y19965D01*
X255544Y20103D01*
X256517Y20506D01*
X257353Y21147D01*
X257994Y21983D01*
X258397Y22956D01*
X258535Y24000D01*
X258397Y25044D01*
X257994Y26017D01*
X257353Y26853D01*
X256517Y27494D01*
X255544Y27897D01*
X254500Y28034D01*
D02*
G37*
G36*
X219000Y25534D02*
X217956Y25397D01*
X216983Y24994D01*
X216147Y24353D01*
X215506Y23517D01*
X215103Y22544D01*
X214966Y21500D01*
X215103Y20456D01*
X215506Y19483D01*
X216147Y18647D01*
X216983Y18006D01*
X217956Y17603D01*
X219000Y17466D01*
X220044Y17603D01*
X221017Y18006D01*
X221853Y18647D01*
X222494Y19483D01*
X222897Y20456D01*
X223035Y21500D01*
X222897Y22544D01*
X222494Y23517D01*
X221853Y24353D01*
X221017Y24994D01*
X220044Y25397D01*
X219000Y25534D01*
D02*
G37*
G36*
X79500Y22530D02*
X78586Y22410D01*
X77735Y22057D01*
X77004Y21496D01*
X76443Y20765D01*
X76090Y19914D01*
X75970Y19000D01*
X76090Y18086D01*
X76443Y17235D01*
X77004Y16504D01*
X77735Y15943D01*
X78586Y15590D01*
X79500Y15470D01*
X80414Y15590D01*
X81265Y15943D01*
X81996Y16504D01*
X82557Y17235D01*
X82910Y18086D01*
X83030Y19000D01*
X82910Y19914D01*
X82557Y20765D01*
X81996Y21496D01*
X81265Y22057D01*
X80414Y22410D01*
X79500Y22530D01*
D02*
G37*
G36*
X119500Y21530D02*
X118586Y21410D01*
X117735Y21057D01*
X117004Y20496D01*
X116443Y19765D01*
X116090Y18914D01*
X115970Y18000D01*
X116090Y17086D01*
X116443Y16235D01*
X117004Y15504D01*
X117735Y14943D01*
X118586Y14590D01*
X119500Y14470D01*
X120414Y14590D01*
X121265Y14943D01*
X121996Y15504D01*
X122557Y16235D01*
X122910Y17086D01*
X123030Y18000D01*
X122910Y18914D01*
X122557Y19765D01*
X121996Y20496D01*
X121265Y21057D01*
X120414Y21410D01*
X119500Y21530D01*
D02*
G37*
G36*
X44000Y23539D02*
X42825Y23384D01*
X41731Y22931D01*
X40791Y22209D01*
X40069Y21269D01*
X39616Y20175D01*
X39461Y19000D01*
X39616Y17825D01*
X40069Y16731D01*
X40791Y15791D01*
X41731Y15069D01*
X42825Y14616D01*
X44000Y14461D01*
X45175Y14616D01*
X46269Y15069D01*
X47209Y15791D01*
X47931Y16731D01*
X48384Y17825D01*
X48539Y19000D01*
X48384Y20175D01*
X47931Y21269D01*
X47209Y22209D01*
X46269Y22931D01*
X45175Y23384D01*
X44000Y23539D01*
D02*
G37*
G36*
X131000Y19539D02*
X129825Y19384D01*
X128731Y18931D01*
X127791Y18209D01*
X127069Y17269D01*
X126616Y16175D01*
X126461Y15000D01*
X126616Y13825D01*
X127069Y12731D01*
X127791Y11791D01*
X128731Y11069D01*
X129825Y10616D01*
X131000Y10461D01*
X132175Y10616D01*
X133269Y11069D01*
X134209Y11791D01*
X134931Y12731D01*
X135384Y13825D01*
X135539Y15000D01*
X135384Y16175D01*
X134931Y17269D01*
X134209Y18209D01*
X133269Y18931D01*
X132175Y19384D01*
X131000Y19539D01*
D02*
G37*
G36*
X250900Y19123D02*
X249725Y18969D01*
X248631Y18515D01*
X247691Y17794D01*
X246969Y16854D01*
X246516Y15759D01*
X246361Y14584D01*
X246516Y13410D01*
X246969Y12315D01*
X247691Y11375D01*
X248631Y10654D01*
X249725Y10200D01*
X250900Y10046D01*
X252075Y10200D01*
X253169Y10654D01*
X254109Y11375D01*
X254831Y12315D01*
X255284Y13410D01*
X255439Y14584D01*
X255284Y15759D01*
X254831Y16854D01*
X254109Y17794D01*
X253169Y18515D01*
X252075Y18969D01*
X250900Y19123D01*
D02*
G37*
G36*
X341000Y17034D02*
X339956Y16897D01*
X338983Y16494D01*
X338147Y15853D01*
X337506Y15017D01*
X337103Y14044D01*
X336965Y13000D01*
X337103Y11956D01*
X337506Y10983D01*
X338147Y10147D01*
X338983Y9506D01*
X339956Y9103D01*
X341000Y8965D01*
X342044Y9103D01*
X343017Y9506D01*
X343853Y10147D01*
X344494Y10983D01*
X344897Y11956D01*
X345035Y13000D01*
X344897Y14044D01*
X344494Y15017D01*
X343853Y15853D01*
X343017Y16494D01*
X342044Y16897D01*
X341000Y17034D01*
D02*
G37*
G36*
X500500Y22837D02*
X498971Y22686D01*
X497501Y22240D01*
X496146Y21516D01*
X494958Y20542D01*
X493984Y19354D01*
X493260Y17999D01*
X492814Y16529D01*
X492663Y15000D01*
X492814Y13471D01*
X493260Y12001D01*
X493984Y10646D01*
X494958Y9458D01*
X496146Y8484D01*
X497501Y7760D01*
X498971Y7314D01*
X500500Y7163D01*
X502029Y7314D01*
X503499Y7760D01*
X504854Y8484D01*
X506042Y9458D01*
X507016Y10646D01*
X507740Y12001D01*
X508186Y13471D01*
X508337Y15000D01*
X508186Y16529D01*
X507740Y17999D01*
X507016Y19354D01*
X506042Y20542D01*
X504854Y21516D01*
X503499Y22240D01*
X502029Y22686D01*
X500500Y22837D01*
D02*
G37*
G36*
X15000D02*
X13471Y22686D01*
X12001Y22240D01*
X10646Y21516D01*
X9458Y20542D01*
X8484Y19354D01*
X7760Y17999D01*
X7314Y16529D01*
X7163Y15000D01*
X7314Y13471D01*
X7760Y12001D01*
X8484Y10646D01*
X9458Y9458D01*
X10646Y8484D01*
X12001Y7760D01*
X13471Y7314D01*
X15000Y7163D01*
X16529Y7314D01*
X17999Y7760D01*
X19354Y8484D01*
X20542Y9458D01*
X21516Y10646D01*
X22240Y12001D01*
X22686Y13471D01*
X22837Y15000D01*
X22686Y16529D01*
X22240Y17999D01*
X21516Y19354D01*
X20542Y20542D01*
X19354Y21516D01*
X17999Y22240D01*
X16529Y22686D01*
X15000Y22837D01*
D02*
G37*
G36*
X276500Y12526D02*
X275717Y12423D01*
X274987Y12121D01*
X274360Y11640D01*
X273880Y11013D01*
X273577Y10283D01*
X273474Y9500D01*
X273577Y8717D01*
X273880Y7987D01*
X274360Y7360D01*
X274987Y6880D01*
X275717Y6577D01*
X276500Y6474D01*
X277283Y6577D01*
X278013Y6880D01*
X278640Y7360D01*
X279120Y7987D01*
X279423Y8717D01*
X279526Y9500D01*
X279423Y10283D01*
X279120Y11013D01*
X278640Y11640D01*
X278013Y12121D01*
X277283Y12423D01*
X276500Y12526D01*
D02*
G37*
%LPD*%
D13*
X512500Y0D02*
G03*
X515500Y3000I0J3000D01*
G01*
Y338000D02*
G03*
X512000Y341000I-3250J-250D01*
G01*
X3000Y341000D02*
G03*
X0Y338000I0J-3000D01*
G01*
Y3000D02*
G03*
X3000Y0I3000J0D01*
G01*
X512500D01*
X515500Y3000D02*
Y335500D01*
Y338000D01*
X3000Y341000D02*
X512000D01*
X0Y3000D02*
Y338000D01*
D93*
X434500Y142500D02*
X436050D01*
D102*
X347500Y105500D02*
D03*
X434500Y142500D02*
D03*
X230358Y93000D02*
D03*
X316398Y177102D02*
D03*
X494500Y209500D02*
D03*
X428500Y305500D02*
D03*
X209000Y319000D02*
D03*
X176000Y83000D02*
D03*
D106*
X432000Y73500D02*
D03*
D111*
X107222Y185559D02*
D03*
X171500Y118000D02*
D03*
X381500Y152898D02*
D03*
X436858Y189500D02*
D03*
X425710Y123362D02*
D03*
X226000Y16500D02*
D03*
X159000Y89500D02*
D03*
X139500Y87500D02*
D03*
M02*
